%TF.GenerationSoftware,KiCad,Pcbnew,8.0.0-rc2-429-g037f349585*%
%TF.CreationDate,2024-02-09T22:22:20+01:00*%
%TF.ProjectId,xDuinoRail-Protoboard,78447569-6e6f-4526-9169-6c2d50726f74,rev?*%
%TF.SameCoordinates,Original*%
%TF.FileFunction,Legend,Bot*%
%TF.FilePolarity,Positive*%
%FSLAX46Y46*%
G04 Gerber Fmt 4.6, Leading zero omitted, Abs format (unit mm)*
G04 Created by KiCad (PCBNEW 8.0.0-rc2-429-g037f349585) date 2024-02-09 22:22:20*
%MOMM*%
%LPD*%
G01*
G04 APERTURE LIST*
%ADD10C,0.150000*%
%ADD11C,0.120000*%
G04 APERTURE END LIST*
D10*
X130344104Y-84613933D02*
X130344104Y-85090123D01*
X130629819Y-84518695D02*
X129629819Y-84852028D01*
X129629819Y-84852028D02*
X130629819Y-85185361D01*
X130629819Y-86042504D02*
X130629819Y-85471076D01*
X130629819Y-85756790D02*
X129629819Y-85756790D01*
X129629819Y-85756790D02*
X129772676Y-85661552D01*
X129772676Y-85661552D02*
X129867914Y-85566314D01*
X129867914Y-85566314D02*
X129915533Y-85471076D01*
X129629819Y-86661552D02*
X129629819Y-86756790D01*
X129629819Y-86756790D02*
X129677438Y-86852028D01*
X129677438Y-86852028D02*
X129725057Y-86899647D01*
X129725057Y-86899647D02*
X129820295Y-86947266D01*
X129820295Y-86947266D02*
X130010771Y-86994885D01*
X130010771Y-86994885D02*
X130248866Y-86994885D01*
X130248866Y-86994885D02*
X130439342Y-86947266D01*
X130439342Y-86947266D02*
X130534580Y-86899647D01*
X130534580Y-86899647D02*
X130582200Y-86852028D01*
X130582200Y-86852028D02*
X130629819Y-86756790D01*
X130629819Y-86756790D02*
X130629819Y-86661552D01*
X130629819Y-86661552D02*
X130582200Y-86566314D01*
X130582200Y-86566314D02*
X130534580Y-86518695D01*
X130534580Y-86518695D02*
X130439342Y-86471076D01*
X130439342Y-86471076D02*
X130248866Y-86423457D01*
X130248866Y-86423457D02*
X130010771Y-86423457D01*
X130010771Y-86423457D02*
X129820295Y-86471076D01*
X129820295Y-86471076D02*
X129725057Y-86518695D01*
X129725057Y-86518695D02*
X129677438Y-86566314D01*
X129677438Y-86566314D02*
X129629819Y-86661552D01*
X130629819Y-87947266D02*
X130629819Y-87375838D01*
X130629819Y-87661552D02*
X129629819Y-87661552D01*
X129629819Y-87661552D02*
X129772676Y-87566314D01*
X129772676Y-87566314D02*
X129867914Y-87471076D01*
X129867914Y-87471076D02*
X129915533Y-87375838D01*
D11*
%TO.C,A101*%
X75435000Y-50970600D02*
X75435000Y-115620600D01*
X75435000Y-115620600D02*
X84965000Y-115620600D01*
X77085000Y-49320600D02*
X75435000Y-50970600D01*
X84965000Y-115620600D02*
X84965000Y-121970600D01*
X84965000Y-121970600D02*
X96645000Y-121970600D01*
X88515000Y-49320600D02*
X77085000Y-49320600D01*
X91055000Y-46780600D02*
X88515000Y-49320600D01*
X96645000Y-115620600D02*
X116715000Y-115620600D01*
X96645000Y-121970600D02*
X96645000Y-115620600D01*
X116715000Y-115620600D02*
X116715000Y-117520600D01*
X116715000Y-117520600D02*
X125855000Y-117520600D01*
X123825000Y-46780600D02*
X91055000Y-46780600D01*
X125855000Y-115620600D02*
X129035000Y-115620600D01*
X125855000Y-117520600D02*
X125855000Y-115620600D01*
X126365000Y-49320600D02*
X123825000Y-46780600D01*
X129035000Y-49320600D02*
X126365000Y-49320600D01*
X129035000Y-115620600D02*
X129035000Y-49320600D01*
%TD*%
M02*
