%TF.GenerationSoftware,KiCad,Pcbnew,8.0.0-rc2-429-g037f349585*%
%TF.CreationDate,2024-02-09T22:22:20+01:00*%
%TF.ProjectId,xDuinoRail-Protoboard,78447569-6e6f-4526-9169-6c2d50726f74,rev?*%
%TF.SameCoordinates,Original*%
%TF.FileFunction,Copper,L1,Top*%
%TF.FilePolarity,Positive*%
%FSLAX46Y46*%
G04 Gerber Fmt 4.6, Leading zero omitted, Abs format (unit mm)*
G04 Created by KiCad (PCBNEW 8.0.0-rc2-429-g037f349585) date 2024-02-09 22:22:20*
%MOMM*%
%LPD*%
G01*
G04 APERTURE LIST*
G04 Aperture macros list*
%AMRoundRect*
0 Rectangle with rounded corners*
0 $1 Rounding radius*
0 $2 $3 $4 $5 $6 $7 $8 $9 X,Y pos of 4 corners*
0 Add a 4 corners polygon primitive as box body*
4,1,4,$2,$3,$4,$5,$6,$7,$8,$9,$2,$3,0*
0 Add four circle primitives for the rounded corners*
1,1,$1+$1,$2,$3*
1,1,$1+$1,$4,$5*
1,1,$1+$1,$6,$7*
1,1,$1+$1,$8,$9*
0 Add four rect primitives between the rounded corners*
20,1,$1+$1,$2,$3,$4,$5,0*
20,1,$1+$1,$4,$5,$6,$7,0*
20,1,$1+$1,$6,$7,$8,$9,0*
20,1,$1+$1,$8,$9,$2,$3,0*%
%AMOutline4P*
0 Free polygon, 4 corners , with rotation*
0 The origin of the aperture is its center*
0 number of corners: always 4*
0 $1 to $8 corner X, Y*
0 $9 Rotation angle, in degrees counterclockwise*
0 create outline with 4 corners*
4,1,4,$1,$2,$3,$4,$5,$6,$7,$8,$1,$2,$9*%
%AMFreePoly0*
4,1,6,1.000000,0.000000,0.500000,-0.750000,-0.500000,-0.750000,-0.500000,0.750000,0.500000,0.750000,1.000000,0.000000,1.000000,0.000000,$1*%
%AMFreePoly1*
4,1,6,0.500000,-0.750000,-0.650000,-0.750000,-0.150000,0.000000,-0.650000,0.750000,0.500000,0.750000,0.500000,-0.750000,0.500000,-0.750000,$1*%
%AMFreePoly2*
4,1,9,3.862500,-0.866500,0.737500,-0.866500,0.737500,-0.450000,-0.737500,-0.450000,-0.737500,0.450000,0.737500,0.450000,0.737500,0.866500,3.862500,0.866500,3.862500,-0.866500,3.862500,-0.866500,$1*%
G04 Aperture macros list end*
%TA.AperFunction,SMDPad,CuDef*%
%ADD10FreePoly0,90.000000*%
%TD*%
%TA.AperFunction,SMDPad,CuDef*%
%ADD11FreePoly1,90.000000*%
%TD*%
%TA.AperFunction,SMDPad,CuDef*%
%ADD12R,1.550000X0.600000*%
%TD*%
%TA.AperFunction,ComponentPad*%
%ADD13C,0.600000*%
%TD*%
%TA.AperFunction,SMDPad,CuDef*%
%ADD14R,2.600000X3.100000*%
%TD*%
%TA.AperFunction,SMDPad,CuDef*%
%ADD15R,2.950000X4.500000*%
%TD*%
%TA.AperFunction,SMDPad,CuDef*%
%ADD16R,2.900000X5.400000*%
%TD*%
%TA.AperFunction,ComponentPad*%
%ADD17R,1.350000X1.350000*%
%TD*%
%TA.AperFunction,ComponentPad*%
%ADD18O,1.350000X1.350000*%
%TD*%
%TA.AperFunction,SMDPad,CuDef*%
%ADD19RoundRect,0.250000X-0.750000X0.850000X-0.750000X-0.850000X0.750000X-0.850000X0.750000X0.850000X0*%
%TD*%
%TA.AperFunction,SMDPad,CuDef*%
%ADD20RoundRect,0.250000X-0.700000X0.750000X-0.700000X-0.750000X0.700000X-0.750000X0.700000X0.750000X0*%
%TD*%
%TA.AperFunction,SMDPad,CuDef*%
%ADD21Outline4P,-1.800000X-1.150000X1.800000X-0.550000X1.800000X0.550000X-1.800000X1.150000X180.000000*%
%TD*%
%TA.AperFunction,SMDPad,CuDef*%
%ADD22Outline4P,-1.800000X-1.150000X1.800000X-0.550000X1.800000X0.550000X-1.800000X1.150000X0.000000*%
%TD*%
%TA.AperFunction,ComponentPad*%
%ADD23RoundRect,0.250000X-0.600000X-0.600000X0.600000X-0.600000X0.600000X0.600000X-0.600000X0.600000X0*%
%TD*%
%TA.AperFunction,ComponentPad*%
%ADD24O,1.700000X1.700000*%
%TD*%
%TA.AperFunction,ComponentPad*%
%ADD25R,1.000000X1.000000*%
%TD*%
%TA.AperFunction,ComponentPad*%
%ADD26O,1.000000X1.000000*%
%TD*%
%TA.AperFunction,SMDPad,CuDef*%
%ADD27R,1.900000X0.800000*%
%TD*%
%TA.AperFunction,SMDPad,CuDef*%
%ADD28Outline4P,-1.800000X-1.150000X1.800000X-0.550000X1.800000X0.550000X-1.800000X1.150000X270.000000*%
%TD*%
%TA.AperFunction,SMDPad,CuDef*%
%ADD29Outline4P,-1.800000X-1.150000X1.800000X-0.550000X1.800000X0.550000X-1.800000X1.150000X90.000000*%
%TD*%
%TA.AperFunction,SMDPad,CuDef*%
%ADD30R,0.650000X0.400000*%
%TD*%
%TA.AperFunction,ComponentPad*%
%ADD31R,3.000000X3.000000*%
%TD*%
%TA.AperFunction,ComponentPad*%
%ADD32C,3.000000*%
%TD*%
%TA.AperFunction,SMDPad,CuDef*%
%ADD33R,1.300000X0.900000*%
%TD*%
%TA.AperFunction,SMDPad,CuDef*%
%ADD34FreePoly2,180.000000*%
%TD*%
%TA.AperFunction,SMDPad,CuDef*%
%ADD35RoundRect,0.150000X-0.825000X-0.150000X0.825000X-0.150000X0.825000X0.150000X-0.825000X0.150000X0*%
%TD*%
%TA.AperFunction,SMDPad,CuDef*%
%ADD36FreePoly0,180.000000*%
%TD*%
%TA.AperFunction,SMDPad,CuDef*%
%ADD37FreePoly1,180.000000*%
%TD*%
%TA.AperFunction,SMDPad,CuDef*%
%ADD38RoundRect,0.087500X-0.087500X0.187500X-0.087500X-0.187500X0.087500X-0.187500X0.087500X0.187500X0*%
%TD*%
%TA.AperFunction,SMDPad,CuDef*%
%ADD39RoundRect,0.087500X-0.187500X0.087500X-0.187500X-0.087500X0.187500X-0.087500X0.187500X0.087500X0*%
%TD*%
%TA.AperFunction,ComponentPad*%
%ADD40O,0.850000X0.850000*%
%TD*%
%TA.AperFunction,ComponentPad*%
%ADD41R,0.850000X0.850000*%
%TD*%
%TA.AperFunction,SMDPad,CuDef*%
%ADD42R,2.000000X1.500000*%
%TD*%
%TA.AperFunction,SMDPad,CuDef*%
%ADD43R,2.000000X3.800000*%
%TD*%
%TA.AperFunction,SMDPad,CuDef*%
%ADD44R,1.200000X0.400000*%
%TD*%
%TA.AperFunction,ComponentPad*%
%ADD45R,1.700000X1.700000*%
%TD*%
%TA.AperFunction,ComponentPad*%
%ADD46C,1.700000*%
%TD*%
%TA.AperFunction,ComponentPad*%
%ADD47C,3.500000*%
%TD*%
%TA.AperFunction,ComponentPad*%
%ADD48R,1.600000X1.600000*%
%TD*%
%TA.AperFunction,ComponentPad*%
%ADD49O,1.600000X1.600000*%
%TD*%
%TA.AperFunction,ViaPad*%
%ADD50C,0.600000*%
%TD*%
%TA.AperFunction,Conductor*%
%ADD51C,0.200000*%
%TD*%
G04 APERTURE END LIST*
D10*
%TO.P,JP105,1,A*%
%TO.N,/L60*%
X152945000Y-127090000D03*
D11*
%TO.P,JP105,2,B*%
%TO.N,/L58*%
X152945000Y-125640000D03*
%TD*%
D12*
%TO.P,U108,1,BOOT*%
%TO.N,/L59*%
X142240000Y-125730000D03*
%TO.P,U108,2,NC*%
%TO.N,/L61*%
X142240000Y-127000000D03*
%TO.P,U108,3,NC*%
%TO.N,/L63*%
X142240000Y-128270000D03*
%TO.P,U108,4,VSENSE*%
%TO.N,/L65*%
X142240000Y-129540000D03*
%TO.P,U108,5,EN*%
%TO.N,/L66*%
X147640000Y-129540000D03*
%TO.P,U108,6,GND*%
%TO.N,/L64*%
X147640000Y-128270000D03*
%TO.P,U108,7,VIN*%
%TO.N,/L62*%
X147640000Y-127000000D03*
%TO.P,U108,8,PH*%
%TO.N,/L60*%
X147640000Y-125730000D03*
D13*
%TO.P,U108,9,GNDPAD*%
%TO.N,/L64*%
X144340000Y-125835000D03*
X144340000Y-127035000D03*
X144340000Y-128335000D03*
X144340000Y-129435000D03*
D14*
X144940000Y-127635000D03*
D15*
X144940000Y-127635000D03*
D13*
X145540000Y-125835000D03*
X145540000Y-127035000D03*
X145540000Y-128335000D03*
X145540000Y-129435000D03*
%TD*%
D16*
%TO.P,L101,1,1*%
%TO.N,/L58*%
X152270000Y-117475000D03*
%TO.P,L101,2,2*%
%TO.N,/L57*%
X142370000Y-117475000D03*
%TD*%
D17*
%TO.P,J118,1,Pin_1*%
%TO.N,/L1*%
X84995000Y-53500000D03*
D18*
%TO.P,J118,2,Pin_2*%
%TO.N,/L2*%
X86995000Y-53500000D03*
%TO.P,J118,3,Pin_3*%
%TO.N,/L3*%
X84995000Y-55500000D03*
%TO.P,J118,4,Pin_4*%
%TO.N,/L4*%
X86995000Y-55500000D03*
%TO.P,J118,5,Pin_5*%
%TO.N,/L5*%
X84995000Y-57500000D03*
%TO.P,J118,6,Pin_6*%
%TO.N,/L6*%
X86995000Y-57500000D03*
%TO.P,J118,7,Pin_7*%
%TO.N,/L7*%
X84995000Y-59500000D03*
%TO.P,J118,8,Pin_8*%
%TO.N,/L8*%
X86995000Y-59500000D03*
%TO.P,J118,9,Pin_9*%
%TO.N,/L9*%
X84995000Y-61500000D03*
%TO.P,J118,10,Pin_10*%
%TO.N,/L10*%
X86995000Y-61500000D03*
%TO.P,J118,11,Pin_11*%
%TO.N,/L11*%
X84995000Y-63500000D03*
%TO.P,J118,12,Pin_12*%
%TO.N,/L12*%
X86995000Y-63500000D03*
%TO.P,J118,13,Pin_13*%
%TO.N,/L13*%
X84995000Y-65500000D03*
%TO.P,J118,14,Pin_14*%
%TO.N,/L14*%
X86995000Y-65500000D03*
%TO.P,J118,15,Pin_15*%
%TO.N,/L15*%
X84995000Y-67500000D03*
%TO.P,J118,16,Pin_16*%
%TO.N,/L16*%
X86995000Y-67500000D03*
%TO.P,J118,17,Pin_17*%
%TO.N,/L17*%
X84995000Y-69500000D03*
%TO.P,J118,18,Pin_18*%
%TO.N,/L18*%
X86995000Y-69500000D03*
%TO.P,J118,19,Pin_19*%
%TO.N,/L19*%
X84995000Y-71500000D03*
%TO.P,J118,20,Pin_20*%
%TO.N,/L20*%
X86995000Y-71500000D03*
%TD*%
D19*
%TO.P,J109,MP*%
%TO.N,N/C*%
X166770000Y-114970000D03*
X166770000Y-123470000D03*
D20*
%TO.P,J109,R*%
%TO.N,/L53*%
X160020000Y-122870000D03*
%TO.P,J109,S*%
%TO.N,/L51*%
X160020000Y-115570000D03*
%TO.P,J109,T*%
%TO.N,/L55*%
X157170000Y-119220000D03*
%TD*%
D21*
%TO.P,D101,1,K*%
%TO.N,/L30*%
X152530000Y-86940000D03*
D22*
%TO.P,D101,2,A*%
%TO.N,/L29*%
X146730000Y-86940000D03*
%TD*%
D23*
%TO.P,J102,1,Pin_1*%
%TO.N,/L1*%
X106045000Y-52070000D03*
D24*
%TO.P,J102,2,Pin_2*%
%TO.N,/L2*%
X108585000Y-52070000D03*
D23*
%TO.P,J102,3,Pin_3*%
%TO.N,/L3*%
X106045000Y-54610000D03*
D24*
%TO.P,J102,4,Pin_4*%
%TO.N,/L4*%
X108585000Y-54610000D03*
D23*
%TO.P,J102,5,Pin_5*%
%TO.N,/L5*%
X106045000Y-57150000D03*
D24*
%TO.P,J102,6,Pin_6*%
%TO.N,/L6*%
X108585000Y-57150000D03*
D23*
%TO.P,J102,7,Pin_7*%
%TO.N,/L7*%
X106045000Y-59690000D03*
D24*
%TO.P,J102,8,Pin_8*%
%TO.N,/L8*%
X108585000Y-59690000D03*
D23*
%TO.P,J102,9,Pin_9*%
%TO.N,/L9*%
X106045000Y-62230000D03*
D24*
%TO.P,J102,10,Pin_10*%
%TO.N,/L10*%
X108585000Y-62230000D03*
D23*
%TO.P,J102,11,Pin_11*%
%TO.N,/L11*%
X106045000Y-64770000D03*
D24*
%TO.P,J102,12,Pin_12*%
%TO.N,/L12*%
X108585000Y-64770000D03*
D23*
%TO.P,J102,13,Pin_13*%
%TO.N,/L13*%
X106045000Y-67310000D03*
D24*
%TO.P,J102,14,Pin_14*%
%TO.N,/L14*%
X108585000Y-67310000D03*
D23*
%TO.P,J102,15,Pin_15*%
%TO.N,/L15*%
X106045000Y-69850000D03*
D24*
%TO.P,J102,16,Pin_16*%
%TO.N,/L16*%
X108585000Y-69850000D03*
D23*
%TO.P,J102,17,Pin_17*%
%TO.N,/L17*%
X106045000Y-72390000D03*
D24*
%TO.P,J102,18,Pin_18*%
%TO.N,/L18*%
X108585000Y-72390000D03*
D23*
%TO.P,J102,19,Pin_19*%
%TO.N,/L19*%
X106045000Y-74930000D03*
D24*
%TO.P,J102,20,Pin_20*%
%TO.N,/L20*%
X108585000Y-74930000D03*
D23*
%TO.P,J102,21,Pin_21*%
%TO.N,/L21*%
X106045000Y-77470000D03*
D24*
%TO.P,J102,22,Pin_22*%
%TO.N,/L22*%
X108585000Y-77470000D03*
D23*
%TO.P,J102,23,Pin_23*%
%TO.N,/L23*%
X106045000Y-80010000D03*
D24*
%TO.P,J102,24,Pin_24*%
%TO.N,/L24*%
X108585000Y-80010000D03*
D23*
%TO.P,J102,25,Pin_25*%
%TO.N,/L25*%
X106045000Y-82550000D03*
D24*
%TO.P,J102,26,Pin_26*%
%TO.N,/L26*%
X108585000Y-82550000D03*
D23*
%TO.P,J102,27,Pin_27*%
%TO.N,/L27*%
X106045000Y-85090000D03*
D24*
%TO.P,J102,28,Pin_28*%
%TO.N,/L28*%
X108585000Y-85090000D03*
D23*
%TO.P,J102,29,Pin_29*%
%TO.N,/L29*%
X106045000Y-87630000D03*
D24*
%TO.P,J102,30,Pin_30*%
%TO.N,/L30*%
X108585000Y-87630000D03*
D23*
%TO.P,J102,31,Pin_31*%
%TO.N,/L31*%
X106045000Y-90170000D03*
D24*
%TO.P,J102,32,Pin_32*%
%TO.N,/L32*%
X108585000Y-90170000D03*
D23*
%TO.P,J102,33,Pin_33*%
%TO.N,/L33*%
X106045000Y-92710000D03*
D24*
%TO.P,J102,34,Pin_34*%
%TO.N,/L34*%
X108585000Y-92710000D03*
D23*
%TO.P,J102,35,Pin_35*%
%TO.N,/L35*%
X106045000Y-95250000D03*
D24*
%TO.P,J102,36,Pin_36*%
%TO.N,/L36*%
X108585000Y-95250000D03*
D23*
%TO.P,J102,37,Pin_37*%
%TO.N,/L37*%
X106045000Y-97790000D03*
D24*
%TO.P,J102,38,Pin_38*%
%TO.N,/L38*%
X108585000Y-97790000D03*
D23*
%TO.P,J102,39,Pin_39*%
%TO.N,/L39*%
X106045000Y-100330000D03*
D24*
%TO.P,J102,40,Pin_40*%
%TO.N,/L40*%
X108585000Y-100330000D03*
D23*
%TO.P,J102,41,Pin_41*%
%TO.N,/L41*%
X106045000Y-102870000D03*
D24*
%TO.P,J102,42,Pin_42*%
%TO.N,/L42*%
X108585000Y-102870000D03*
D23*
%TO.P,J102,43,Pin_43*%
%TO.N,/L43*%
X106045000Y-105410000D03*
D24*
%TO.P,J102,44,Pin_44*%
%TO.N,/L44*%
X108585000Y-105410000D03*
D23*
%TO.P,J102,45,Pin_45*%
%TO.N,/L45*%
X106045000Y-107950000D03*
D24*
%TO.P,J102,46,Pin_46*%
%TO.N,/L46*%
X108585000Y-107950000D03*
D23*
%TO.P,J102,47,Pin_47*%
%TO.N,/L47*%
X106045000Y-110490000D03*
D24*
%TO.P,J102,48,Pin_48*%
%TO.N,/L48*%
X108585000Y-110490000D03*
D23*
%TO.P,J102,49,Pin_49*%
%TO.N,/L49*%
X106045000Y-113030000D03*
D24*
%TO.P,J102,50,Pin_50*%
%TO.N,/L50*%
X108585000Y-113030000D03*
D23*
%TO.P,J102,51,Pin_51*%
%TO.N,/L51*%
X106045000Y-115570000D03*
D24*
%TO.P,J102,52,Pin_52*%
%TO.N,/L52*%
X108585000Y-115570000D03*
D23*
%TO.P,J102,53,Pin_53*%
%TO.N,/L53*%
X106045000Y-118110000D03*
D24*
%TO.P,J102,54,Pin_54*%
%TO.N,/L54*%
X108585000Y-118110000D03*
D23*
%TO.P,J102,55,Pin_55*%
%TO.N,/L55*%
X106045000Y-120650000D03*
D24*
%TO.P,J102,56,Pin_56*%
%TO.N,/L56*%
X108585000Y-120650000D03*
D23*
%TO.P,J102,57,Pin_57*%
%TO.N,/L57*%
X106045000Y-123190000D03*
D24*
%TO.P,J102,58,Pin_58*%
%TO.N,/L58*%
X108585000Y-123190000D03*
D23*
%TO.P,J102,59,Pin_59*%
%TO.N,/L59*%
X106045000Y-125730000D03*
D24*
%TO.P,J102,60,Pin_60*%
%TO.N,/L60*%
X108585000Y-125730000D03*
D23*
%TO.P,J102,61,Pin_61*%
%TO.N,/L61*%
X106045000Y-128270000D03*
D24*
%TO.P,J102,62,Pin_62*%
%TO.N,/L62*%
X108585000Y-128270000D03*
D23*
%TO.P,J102,63,Pin_63*%
%TO.N,/L63*%
X106045000Y-130810000D03*
D24*
%TO.P,J102,64,Pin_64*%
%TO.N,/L64*%
X108585000Y-130810000D03*
D23*
%TO.P,J102,65,Pin_65*%
%TO.N,/L65*%
X106045000Y-133350000D03*
D24*
%TO.P,J102,66,Pin_66*%
%TO.N,/L66*%
X108585000Y-133350000D03*
D23*
%TO.P,J102,67,Pin_67*%
%TO.N,/L67*%
X106045000Y-135890000D03*
D24*
%TO.P,J102,68,Pin_68*%
%TO.N,/L68*%
X108585000Y-135890000D03*
D23*
%TO.P,J102,69,Pin_69*%
%TO.N,/L69*%
X106045000Y-138430000D03*
D24*
%TO.P,J102,70,Pin_70*%
%TO.N,/L70*%
X108585000Y-138430000D03*
%TD*%
D25*
%TO.P,J114,1,Pin_1*%
%TO.N,/L41*%
X84455000Y-107315000D03*
D26*
%TO.P,J114,2,Pin_2*%
%TO.N,/L42*%
X85725000Y-107315000D03*
%TO.P,J114,3,Pin_3*%
%TO.N,/L43*%
X84455000Y-108585000D03*
%TO.P,J114,4,Pin_4*%
%TO.N,/L44*%
X85725000Y-108585000D03*
%TO.P,J114,5,Pin_5*%
%TO.N,/L45*%
X84455000Y-109855000D03*
%TO.P,J114,6,Pin_6*%
%TO.N,/L46*%
X85725000Y-109855000D03*
%TO.P,J114,7,Pin_7*%
%TO.N,/L47*%
X84455000Y-111125000D03*
%TO.P,J114,8,Pin_8*%
%TO.N,/L48*%
X85725000Y-111125000D03*
%TO.P,J114,9,Pin_9*%
%TO.N,/L49*%
X84455000Y-112395000D03*
%TO.P,J114,10,Pin_10*%
%TO.N,/L50*%
X85725000Y-112395000D03*
%TO.P,J114,11,Pin_11*%
%TO.N,/L51*%
X84455000Y-113665000D03*
%TO.P,J114,12,Pin_12*%
%TO.N,/L52*%
X85725000Y-113665000D03*
%TO.P,J114,13,Pin_13*%
%TO.N,/L53*%
X84455000Y-114935000D03*
%TO.P,J114,14,Pin_14*%
%TO.N,/L54*%
X85725000Y-114935000D03*
%TO.P,J114,15,Pin_15*%
%TO.N,/L55*%
X84455000Y-116205000D03*
%TO.P,J114,16,Pin_16*%
%TO.N,/L56*%
X85725000Y-116205000D03*
%TO.P,J114,17,Pin_17*%
%TO.N,/L57*%
X84455000Y-117475000D03*
%TO.P,J114,18,Pin_18*%
%TO.N,/L58*%
X85725000Y-117475000D03*
%TO.P,J114,19,Pin_19*%
%TO.N,/L59*%
X84455000Y-118745000D03*
%TO.P,J114,20,Pin_20*%
%TO.N,/L60*%
X85725000Y-118745000D03*
%TD*%
D27*
%TO.P,Q107,1,G*%
%TO.N,/L28*%
X152818100Y-83815000D03*
%TO.P,Q107,2,S*%
%TO.N,/L26*%
X152818100Y-81915000D03*
%TO.P,Q107,3,D*%
%TO.N,/L27*%
X149818100Y-82865000D03*
%TD*%
D28*
%TO.P,D104,1,K*%
%TO.N,/L30*%
X157295000Y-86995000D03*
D29*
%TO.P,D104,2,A*%
%TO.N,/L32*%
X157295000Y-92795000D03*
%TD*%
D23*
%TO.P,J101,1,Pin_1*%
%TO.N,/L1*%
X111125000Y-52070000D03*
D24*
%TO.P,J101,2,Pin_2*%
%TO.N,/L2*%
X113665000Y-52070000D03*
D23*
%TO.P,J101,3,Pin_3*%
%TO.N,/L3*%
X111125000Y-54610000D03*
D24*
%TO.P,J101,4,Pin_4*%
%TO.N,/L4*%
X113665000Y-54610000D03*
D23*
%TO.P,J101,5,Pin_5*%
%TO.N,/L5*%
X111125000Y-57150000D03*
D24*
%TO.P,J101,6,Pin_6*%
%TO.N,/L6*%
X113665000Y-57150000D03*
D23*
%TO.P,J101,7,Pin_7*%
%TO.N,/L7*%
X111125000Y-59690000D03*
D24*
%TO.P,J101,8,Pin_8*%
%TO.N,/L8*%
X113665000Y-59690000D03*
D23*
%TO.P,J101,9,Pin_9*%
%TO.N,/L9*%
X111125000Y-62230000D03*
D24*
%TO.P,J101,10,Pin_10*%
%TO.N,/L10*%
X113665000Y-62230000D03*
D23*
%TO.P,J101,11,Pin_11*%
%TO.N,/L11*%
X111125000Y-64770000D03*
D24*
%TO.P,J101,12,Pin_12*%
%TO.N,/L12*%
X113665000Y-64770000D03*
D23*
%TO.P,J101,13,Pin_13*%
%TO.N,/L13*%
X111125000Y-67310000D03*
D24*
%TO.P,J101,14,Pin_14*%
%TO.N,/L14*%
X113665000Y-67310000D03*
D23*
%TO.P,J101,15,Pin_15*%
%TO.N,/L15*%
X111125000Y-69850000D03*
D24*
%TO.P,J101,16,Pin_16*%
%TO.N,/L16*%
X113665000Y-69850000D03*
D23*
%TO.P,J101,17,Pin_17*%
%TO.N,/L17*%
X111125000Y-72390000D03*
D24*
%TO.P,J101,18,Pin_18*%
%TO.N,/L18*%
X113665000Y-72390000D03*
D23*
%TO.P,J101,19,Pin_19*%
%TO.N,/L19*%
X111125000Y-74930000D03*
D24*
%TO.P,J101,20,Pin_20*%
%TO.N,/L20*%
X113665000Y-74930000D03*
D23*
%TO.P,J101,21,Pin_21*%
%TO.N,/L21*%
X111125000Y-77470000D03*
D24*
%TO.P,J101,22,Pin_22*%
%TO.N,/L22*%
X113665000Y-77470000D03*
D23*
%TO.P,J101,23,Pin_23*%
%TO.N,/L23*%
X111125000Y-80010000D03*
D24*
%TO.P,J101,24,Pin_24*%
%TO.N,/L24*%
X113665000Y-80010000D03*
D23*
%TO.P,J101,25,Pin_25*%
%TO.N,/L25*%
X111125000Y-82550000D03*
D24*
%TO.P,J101,26,Pin_26*%
%TO.N,/L26*%
X113665000Y-82550000D03*
D23*
%TO.P,J101,27,Pin_27*%
%TO.N,/L27*%
X111125000Y-85090000D03*
D24*
%TO.P,J101,28,Pin_28*%
%TO.N,/L28*%
X113665000Y-85090000D03*
D23*
%TO.P,J101,29,Pin_29*%
%TO.N,/L29*%
X111125000Y-87630000D03*
D24*
%TO.P,J101,30,Pin_30*%
%TO.N,/L30*%
X113665000Y-87630000D03*
D23*
%TO.P,J101,31,Pin_31*%
%TO.N,/L31*%
X111125000Y-90170000D03*
D24*
%TO.P,J101,32,Pin_32*%
%TO.N,/L32*%
X113665000Y-90170000D03*
D23*
%TO.P,J101,33,Pin_33*%
%TO.N,/L33*%
X111125000Y-92710000D03*
D24*
%TO.P,J101,34,Pin_34*%
%TO.N,/L34*%
X113665000Y-92710000D03*
D23*
%TO.P,J101,35,Pin_35*%
%TO.N,/L35*%
X111125000Y-95250000D03*
D24*
%TO.P,J101,36,Pin_36*%
%TO.N,/L36*%
X113665000Y-95250000D03*
D23*
%TO.P,J101,37,Pin_37*%
%TO.N,/L37*%
X111125000Y-97790000D03*
D24*
%TO.P,J101,38,Pin_38*%
%TO.N,/L38*%
X113665000Y-97790000D03*
D23*
%TO.P,J101,39,Pin_39*%
%TO.N,/L39*%
X111125000Y-100330000D03*
D24*
%TO.P,J101,40,Pin_40*%
%TO.N,/L40*%
X113665000Y-100330000D03*
D23*
%TO.P,J101,41,Pin_41*%
%TO.N,/L41*%
X111125000Y-102870000D03*
D24*
%TO.P,J101,42,Pin_42*%
%TO.N,/L42*%
X113665000Y-102870000D03*
D23*
%TO.P,J101,43,Pin_43*%
%TO.N,/L43*%
X111125000Y-105410000D03*
D24*
%TO.P,J101,44,Pin_44*%
%TO.N,/L44*%
X113665000Y-105410000D03*
D23*
%TO.P,J101,45,Pin_45*%
%TO.N,/L45*%
X111125000Y-107950000D03*
D24*
%TO.P,J101,46,Pin_46*%
%TO.N,/L46*%
X113665000Y-107950000D03*
D23*
%TO.P,J101,47,Pin_47*%
%TO.N,/L47*%
X111125000Y-110490000D03*
D24*
%TO.P,J101,48,Pin_48*%
%TO.N,/L48*%
X113665000Y-110490000D03*
D23*
%TO.P,J101,49,Pin_49*%
%TO.N,/L49*%
X111125000Y-113030000D03*
D24*
%TO.P,J101,50,Pin_50*%
%TO.N,/L50*%
X113665000Y-113030000D03*
D23*
%TO.P,J101,51,Pin_51*%
%TO.N,/L51*%
X111125000Y-115570000D03*
D24*
%TO.P,J101,52,Pin_52*%
%TO.N,/L52*%
X113665000Y-115570000D03*
D23*
%TO.P,J101,53,Pin_53*%
%TO.N,/L53*%
X111125000Y-118110000D03*
D24*
%TO.P,J101,54,Pin_54*%
%TO.N,/L54*%
X113665000Y-118110000D03*
D23*
%TO.P,J101,55,Pin_55*%
%TO.N,/L55*%
X111125000Y-120650000D03*
D24*
%TO.P,J101,56,Pin_56*%
%TO.N,/L56*%
X113665000Y-120650000D03*
D23*
%TO.P,J101,57,Pin_57*%
%TO.N,/L57*%
X111125000Y-123190000D03*
D24*
%TO.P,J101,58,Pin_58*%
%TO.N,/L58*%
X113665000Y-123190000D03*
D23*
%TO.P,J101,59,Pin_59*%
%TO.N,/L59*%
X111125000Y-125730000D03*
D24*
%TO.P,J101,60,Pin_60*%
%TO.N,/L60*%
X113665000Y-125730000D03*
D23*
%TO.P,J101,61,Pin_61*%
%TO.N,/L61*%
X111125000Y-128270000D03*
D24*
%TO.P,J101,62,Pin_62*%
%TO.N,/L62*%
X113665000Y-128270000D03*
D23*
%TO.P,J101,63,Pin_63*%
%TO.N,/L63*%
X111125000Y-130810000D03*
D24*
%TO.P,J101,64,Pin_64*%
%TO.N,/L64*%
X113665000Y-130810000D03*
D23*
%TO.P,J101,65,Pin_65*%
%TO.N,/L65*%
X111125000Y-133350000D03*
D24*
%TO.P,J101,66,Pin_66*%
%TO.N,/L66*%
X113665000Y-133350000D03*
D23*
%TO.P,J101,67,Pin_67*%
%TO.N,/L67*%
X111125000Y-135890000D03*
D24*
%TO.P,J101,68,Pin_68*%
%TO.N,/L68*%
X113665000Y-135890000D03*
D23*
%TO.P,J101,69,Pin_69*%
%TO.N,/L69*%
X111125000Y-138430000D03*
D24*
%TO.P,J101,70,Pin_70*%
%TO.N,/L70*%
X113665000Y-138430000D03*
%TD*%
D30*
%TO.P,Q110,1,E1*%
%TO.N,/L23*%
X157485000Y-80010000D03*
%TO.P,Q110,2,B1*%
%TO.N,/L25*%
X157485000Y-80660000D03*
%TO.P,Q110,3,C2*%
%TO.N,/L27*%
X157485000Y-81310000D03*
%TO.P,Q110,4,E2*%
%TO.N,/L28*%
X159385000Y-81310000D03*
%TO.P,Q110,5,B2*%
%TO.N,/L26*%
X159385000Y-80660000D03*
%TO.P,Q110,6,C1*%
%TO.N,/L24*%
X159385000Y-80010000D03*
%TD*%
D31*
%TO.P,J112,1,Pin_1*%
%TO.N,/L32*%
X168514500Y-92080600D03*
D32*
%TO.P,J112,2,Pin_2*%
%TO.N,/L29*%
X168514500Y-87000600D03*
%TD*%
D27*
%TO.P,Q106,1,G*%
%TO.N,/L23*%
X149833200Y-78131600D03*
%TO.P,Q106,2,S*%
%TO.N,/L25*%
X149833200Y-80031600D03*
%TO.P,Q106,3,D*%
%TO.N,/L24*%
X152833200Y-79081600D03*
%TD*%
D33*
%TO.P,U107,1,OUT*%
%TO.N,/L45*%
X146305500Y-108259400D03*
D34*
%TO.P,U107,2,GND*%
%TO.N,/L43*%
X146218000Y-106759400D03*
D33*
%TO.P,U107,3,IN*%
%TO.N,/L44*%
X146305500Y-105259400D03*
%TD*%
D23*
%TO.P,J103,1,Pin_1*%
%TO.N,/L1*%
X116205000Y-52070000D03*
D24*
%TO.P,J103,2,Pin_2*%
%TO.N,/L2*%
X118745000Y-52070000D03*
D23*
%TO.P,J103,3,Pin_3*%
%TO.N,/L3*%
X116205000Y-54610000D03*
D24*
%TO.P,J103,4,Pin_4*%
%TO.N,/L4*%
X118745000Y-54610000D03*
D23*
%TO.P,J103,5,Pin_5*%
%TO.N,/L5*%
X116205000Y-57150000D03*
D24*
%TO.P,J103,6,Pin_6*%
%TO.N,/L6*%
X118745000Y-57150000D03*
D23*
%TO.P,J103,7,Pin_7*%
%TO.N,/L7*%
X116205000Y-59690000D03*
D24*
%TO.P,J103,8,Pin_8*%
%TO.N,/L8*%
X118745000Y-59690000D03*
D23*
%TO.P,J103,9,Pin_9*%
%TO.N,/L9*%
X116205000Y-62230000D03*
D24*
%TO.P,J103,10,Pin_10*%
%TO.N,/L10*%
X118745000Y-62230000D03*
D23*
%TO.P,J103,11,Pin_11*%
%TO.N,/L11*%
X116205000Y-64770000D03*
D24*
%TO.P,J103,12,Pin_12*%
%TO.N,/L12*%
X118745000Y-64770000D03*
D23*
%TO.P,J103,13,Pin_13*%
%TO.N,/L13*%
X116205000Y-67310000D03*
D24*
%TO.P,J103,14,Pin_14*%
%TO.N,/L14*%
X118745000Y-67310000D03*
D23*
%TO.P,J103,15,Pin_15*%
%TO.N,/L15*%
X116205000Y-69850000D03*
D24*
%TO.P,J103,16,Pin_16*%
%TO.N,/L16*%
X118745000Y-69850000D03*
D23*
%TO.P,J103,17,Pin_17*%
%TO.N,/L17*%
X116205000Y-72390000D03*
D24*
%TO.P,J103,18,Pin_18*%
%TO.N,/L18*%
X118745000Y-72390000D03*
D23*
%TO.P,J103,19,Pin_19*%
%TO.N,/L19*%
X116205000Y-74930000D03*
D24*
%TO.P,J103,20,Pin_20*%
%TO.N,/L20*%
X118745000Y-74930000D03*
D23*
%TO.P,J103,21,Pin_21*%
%TO.N,/L21*%
X116205000Y-77470000D03*
D24*
%TO.P,J103,22,Pin_22*%
%TO.N,/L22*%
X118745000Y-77470000D03*
D23*
%TO.P,J103,23,Pin_23*%
%TO.N,/L23*%
X116205000Y-80010000D03*
D24*
%TO.P,J103,24,Pin_24*%
%TO.N,/L24*%
X118745000Y-80010000D03*
D23*
%TO.P,J103,25,Pin_25*%
%TO.N,/L25*%
X116205000Y-82550000D03*
D24*
%TO.P,J103,26,Pin_26*%
%TO.N,/L26*%
X118745000Y-82550000D03*
D23*
%TO.P,J103,27,Pin_27*%
%TO.N,/L27*%
X116205000Y-85090000D03*
D24*
%TO.P,J103,28,Pin_28*%
%TO.N,/L28*%
X118745000Y-85090000D03*
D23*
%TO.P,J103,29,Pin_29*%
%TO.N,/L29*%
X116205000Y-87630000D03*
D24*
%TO.P,J103,30,Pin_30*%
%TO.N,/L30*%
X118745000Y-87630000D03*
D23*
%TO.P,J103,31,Pin_31*%
%TO.N,/L31*%
X116205000Y-90170000D03*
D24*
%TO.P,J103,32,Pin_32*%
%TO.N,/L32*%
X118745000Y-90170000D03*
D23*
%TO.P,J103,33,Pin_33*%
%TO.N,/L33*%
X116205000Y-92710000D03*
D24*
%TO.P,J103,34,Pin_34*%
%TO.N,/L34*%
X118745000Y-92710000D03*
D23*
%TO.P,J103,35,Pin_35*%
%TO.N,/L35*%
X116205000Y-95250000D03*
D24*
%TO.P,J103,36,Pin_36*%
%TO.N,/L36*%
X118745000Y-95250000D03*
D23*
%TO.P,J103,37,Pin_37*%
%TO.N,/L37*%
X116205000Y-97790000D03*
D24*
%TO.P,J103,38,Pin_38*%
%TO.N,/L38*%
X118745000Y-97790000D03*
D23*
%TO.P,J103,39,Pin_39*%
%TO.N,/L39*%
X116205000Y-100330000D03*
D24*
%TO.P,J103,40,Pin_40*%
%TO.N,/L40*%
X118745000Y-100330000D03*
D23*
%TO.P,J103,41,Pin_41*%
%TO.N,/L41*%
X116205000Y-102870000D03*
D24*
%TO.P,J103,42,Pin_42*%
%TO.N,/L42*%
X118745000Y-102870000D03*
D23*
%TO.P,J103,43,Pin_43*%
%TO.N,/L43*%
X116205000Y-105410000D03*
D24*
%TO.P,J103,44,Pin_44*%
%TO.N,/L44*%
X118745000Y-105410000D03*
D23*
%TO.P,J103,45,Pin_45*%
%TO.N,/L45*%
X116205000Y-107950000D03*
D24*
%TO.P,J103,46,Pin_46*%
%TO.N,/L46*%
X118745000Y-107950000D03*
D23*
%TO.P,J103,47,Pin_47*%
%TO.N,/L47*%
X116205000Y-110490000D03*
D24*
%TO.P,J103,48,Pin_48*%
%TO.N,/L48*%
X118745000Y-110490000D03*
D23*
%TO.P,J103,49,Pin_49*%
%TO.N,/L49*%
X116205000Y-113030000D03*
D24*
%TO.P,J103,50,Pin_50*%
%TO.N,/L50*%
X118745000Y-113030000D03*
D23*
%TO.P,J103,51,Pin_51*%
%TO.N,/L51*%
X116205000Y-115570000D03*
D24*
%TO.P,J103,52,Pin_52*%
%TO.N,/L52*%
X118745000Y-115570000D03*
D23*
%TO.P,J103,53,Pin_53*%
%TO.N,/L53*%
X116205000Y-118110000D03*
D24*
%TO.P,J103,54,Pin_54*%
%TO.N,/L54*%
X118745000Y-118110000D03*
D23*
%TO.P,J103,55,Pin_55*%
%TO.N,/L55*%
X116205000Y-120650000D03*
D24*
%TO.P,J103,56,Pin_56*%
%TO.N,/L56*%
X118745000Y-120650000D03*
D23*
%TO.P,J103,57,Pin_57*%
%TO.N,/L57*%
X116205000Y-123190000D03*
D24*
%TO.P,J103,58,Pin_58*%
%TO.N,/L58*%
X118745000Y-123190000D03*
D23*
%TO.P,J103,59,Pin_59*%
%TO.N,/L59*%
X116205000Y-125730000D03*
D24*
%TO.P,J103,60,Pin_60*%
%TO.N,/L60*%
X118745000Y-125730000D03*
D23*
%TO.P,J103,61,Pin_61*%
%TO.N,/L61*%
X116205000Y-128270000D03*
D24*
%TO.P,J103,62,Pin_62*%
%TO.N,/L62*%
X118745000Y-128270000D03*
D23*
%TO.P,J103,63,Pin_63*%
%TO.N,/L63*%
X116205000Y-130810000D03*
D24*
%TO.P,J103,64,Pin_64*%
%TO.N,/L64*%
X118745000Y-130810000D03*
D23*
%TO.P,J103,65,Pin_65*%
%TO.N,/L65*%
X116205000Y-133350000D03*
D24*
%TO.P,J103,66,Pin_66*%
%TO.N,/L66*%
X118745000Y-133350000D03*
D23*
%TO.P,J103,67,Pin_67*%
%TO.N,/L67*%
X116205000Y-135890000D03*
D24*
%TO.P,J103,68,Pin_68*%
%TO.N,/L68*%
X118745000Y-135890000D03*
D23*
%TO.P,J103,69,Pin_69*%
%TO.N,/L69*%
X116205000Y-138430000D03*
D24*
%TO.P,J103,70,Pin_70*%
%TO.N,/L70*%
X118745000Y-138430000D03*
%TD*%
D27*
%TO.P,Q109,1,G*%
%TO.N,/L28*%
X147125200Y-83737100D03*
%TO.P,Q109,2,S*%
%TO.N,/L26*%
X147125200Y-81837100D03*
%TO.P,Q109,3,D*%
%TO.N,/L27*%
X144125200Y-82787100D03*
%TD*%
D35*
%TO.P,U103,1,I1*%
%TO.N,/L1*%
X147450000Y-60325000D03*
%TO.P,U103,2,I2*%
%TO.N,/L3*%
X147450000Y-61595000D03*
%TO.P,U103,3,I3*%
%TO.N,/L5*%
X147450000Y-62865000D03*
%TO.P,U103,4,I4*%
%TO.N,/L7*%
X147450000Y-64135000D03*
%TO.P,U103,5,I5*%
%TO.N,/L9*%
X147450000Y-65405000D03*
%TO.P,U103,6,I6*%
%TO.N,/L11*%
X147450000Y-66675000D03*
%TO.P,U103,7,I7*%
%TO.N,/L13*%
X147450000Y-67945000D03*
%TO.P,U103,8,GND*%
%TO.N,/L15*%
X147450000Y-69215000D03*
%TO.P,U103,9,COM*%
%TO.N,/L16*%
X152400000Y-69215000D03*
%TO.P,U103,10,O7*%
%TO.N,/L14*%
X152400000Y-67945000D03*
%TO.P,U103,11,O6*%
%TO.N,/L12*%
X152400000Y-66675000D03*
%TO.P,U103,12,O5*%
%TO.N,/L10*%
X152400000Y-65405000D03*
%TO.P,U103,13,O4*%
%TO.N,/L8*%
X152400000Y-64135000D03*
%TO.P,U103,14,O3*%
%TO.N,/L6*%
X152400000Y-62865000D03*
%TO.P,U103,15,O2*%
%TO.N,/L4*%
X152400000Y-61595000D03*
%TO.P,U103,16,O1*%
%TO.N,/L2*%
X152400000Y-60325000D03*
%TD*%
D36*
%TO.P,JP103,1,A*%
%TO.N,/L31*%
X154940000Y-105410000D03*
D37*
%TO.P,JP103,2,B*%
%TO.N,/L44*%
X153490000Y-105410000D03*
%TD*%
D35*
%TO.P,U101,1,I1*%
%TO.N,/L1*%
X147390000Y-49813200D03*
%TO.P,U101,2,I2*%
%TO.N,/L3*%
X147390000Y-51083200D03*
%TO.P,U101,3,I3*%
%TO.N,/L5*%
X147390000Y-52353200D03*
%TO.P,U101,4,I4*%
%TO.N,/L7*%
X147390000Y-53623200D03*
%TO.P,U101,5,I5*%
%TO.N,/L9*%
X147390000Y-54893200D03*
%TO.P,U101,6,I6*%
%TO.N,/L11*%
X147390000Y-56163200D03*
%TO.P,U101,7,I7*%
%TO.N,/L13*%
X147390000Y-57433200D03*
%TO.P,U101,8,GND*%
%TO.N,/L15*%
X147390000Y-58703200D03*
%TO.P,U101,9,COM*%
%TO.N,/L16*%
X152340000Y-58703200D03*
%TO.P,U101,10,O7*%
%TO.N,/L14*%
X152340000Y-57433200D03*
%TO.P,U101,11,O6*%
%TO.N,/L12*%
X152340000Y-56163200D03*
%TO.P,U101,12,O5*%
%TO.N,/L10*%
X152340000Y-54893200D03*
%TO.P,U101,13,O4*%
%TO.N,/L8*%
X152340000Y-53623200D03*
%TO.P,U101,14,O3*%
%TO.N,/L6*%
X152340000Y-52353200D03*
%TO.P,U101,15,O2*%
%TO.N,/L4*%
X152340000Y-51083200D03*
%TO.P,U101,16,O1*%
%TO.N,/L2*%
X152340000Y-49813200D03*
%TD*%
D27*
%TO.P,Q101,1,G*%
%TO.N,/L17*%
X144126700Y-71125000D03*
%TO.P,Q101,2,S*%
%TO.N,/L19*%
X144126700Y-73025000D03*
%TO.P,Q101,3,D*%
%TO.N,/L18*%
X147126700Y-72075000D03*
%TD*%
D38*
%TO.P,U106,1,VDD_IO*%
%TO.N,/L1*%
X161365600Y-63575700D03*
%TO.P,U106,2,NC*%
%TO.N,/L2*%
X160865600Y-63575700D03*
%TO.P,U106,3,NC*%
%TO.N,/L3*%
X160365600Y-63575700D03*
%TO.P,U106,4,SCL/SPC*%
%TO.N,/L4*%
X159865600Y-63575700D03*
%TO.P,U106,5,GND*%
%TO.N,/L5*%
X159365600Y-63575700D03*
D39*
%TO.P,U106,6,SDA/SDI/SDO*%
%TO.N,/L6*%
X159140600Y-64300700D03*
%TO.P,U106,7,SDO/SA0*%
%TO.N,/L7*%
X159140600Y-64800700D03*
%TO.P,U106,8,CS*%
%TO.N,/L8*%
X159140600Y-65300700D03*
D38*
%TO.P,U106,9,INT2*%
%TO.N,/L9*%
X159365600Y-66025700D03*
%TO.P,U106,10,GND*%
%TO.N,/L10*%
X159865600Y-66025700D03*
%TO.P,U106,11,INT1*%
%TO.N,/L11*%
X160365600Y-66025700D03*
%TO.P,U106,12,GND*%
%TO.N,/L12*%
X160865600Y-66025700D03*
%TO.P,U106,13,ADC3*%
%TO.N,/L13*%
X161365600Y-66025700D03*
D39*
%TO.P,U106,14,VDD*%
%TO.N,/L14*%
X161590600Y-65300700D03*
%TO.P,U106,15,ADC2*%
%TO.N,/L15*%
X161590600Y-64800700D03*
%TO.P,U106,16,ADC1*%
%TO.N,/L16*%
X161590600Y-64300700D03*
%TD*%
D27*
%TO.P,Q105,1,G*%
%TO.N,/L22*%
X152841700Y-76520000D03*
%TO.P,Q105,2,S*%
%TO.N,/L20*%
X152841700Y-74620000D03*
%TO.P,Q105,3,D*%
%TO.N,/L21*%
X149841700Y-75570000D03*
%TD*%
D24*
%TO.P,J106,70,Pin_70*%
%TO.N,/L70*%
X136946900Y-138430000D03*
D23*
%TO.P,J106,69,Pin_69*%
%TO.N,/L69*%
X134406900Y-138430000D03*
D24*
%TO.P,J106,68,Pin_68*%
%TO.N,/L68*%
X136946900Y-135890000D03*
D23*
%TO.P,J106,67,Pin_67*%
%TO.N,/L67*%
X134406900Y-135890000D03*
D24*
%TO.P,J106,66,Pin_66*%
%TO.N,/L66*%
X136946900Y-133350000D03*
D23*
%TO.P,J106,65,Pin_65*%
%TO.N,/L65*%
X134406900Y-133350000D03*
D24*
%TO.P,J106,64,Pin_64*%
%TO.N,/L64*%
X136946900Y-130810000D03*
D23*
%TO.P,J106,63,Pin_63*%
%TO.N,/L63*%
X134406900Y-130810000D03*
D24*
%TO.P,J106,62,Pin_62*%
%TO.N,/L62*%
X136946900Y-128270000D03*
D23*
%TO.P,J106,61,Pin_61*%
%TO.N,/L61*%
X134406900Y-128270000D03*
D24*
%TO.P,J106,60,Pin_60*%
%TO.N,/L60*%
X136946900Y-125730000D03*
D23*
%TO.P,J106,59,Pin_59*%
%TO.N,/L59*%
X134406900Y-125730000D03*
D24*
%TO.P,J106,58,Pin_58*%
%TO.N,/L58*%
X136946900Y-123190000D03*
D23*
%TO.P,J106,57,Pin_57*%
%TO.N,/L57*%
X134406900Y-123190000D03*
D24*
%TO.P,J106,56,Pin_56*%
%TO.N,/L56*%
X136946900Y-120650000D03*
D23*
%TO.P,J106,55,Pin_55*%
%TO.N,/L55*%
X134406900Y-120650000D03*
D24*
%TO.P,J106,54,Pin_54*%
%TO.N,/L54*%
X136946900Y-118110000D03*
D23*
%TO.P,J106,53,Pin_53*%
%TO.N,/L53*%
X134406900Y-118110000D03*
D24*
%TO.P,J106,52,Pin_52*%
%TO.N,/L52*%
X136946900Y-115570000D03*
D23*
%TO.P,J106,51,Pin_51*%
%TO.N,/L51*%
X134406900Y-115570000D03*
D24*
%TO.P,J106,50,Pin_50*%
%TO.N,/L50*%
X136946900Y-113030000D03*
D23*
%TO.P,J106,49,Pin_49*%
%TO.N,/L49*%
X134406900Y-113030000D03*
D24*
%TO.P,J106,48,Pin_48*%
%TO.N,/L48*%
X136946900Y-110490000D03*
D23*
%TO.P,J106,47,Pin_47*%
%TO.N,/L47*%
X134406900Y-110490000D03*
D24*
%TO.P,J106,46,Pin_46*%
%TO.N,/L46*%
X136946900Y-107950000D03*
D23*
%TO.P,J106,45,Pin_45*%
%TO.N,/L45*%
X134406900Y-107950000D03*
D24*
%TO.P,J106,44,Pin_44*%
%TO.N,/L44*%
X136946900Y-105410000D03*
D23*
%TO.P,J106,43,Pin_43*%
%TO.N,/L43*%
X134406900Y-105410000D03*
D24*
%TO.P,J106,42,Pin_42*%
%TO.N,/L42*%
X136946900Y-102870000D03*
D23*
%TO.P,J106,41,Pin_41*%
%TO.N,/L41*%
X134406900Y-102870000D03*
D24*
%TO.P,J106,40,Pin_40*%
%TO.N,/L40*%
X136946900Y-100330000D03*
D23*
%TO.P,J106,39,Pin_39*%
%TO.N,/L39*%
X134406900Y-100330000D03*
D24*
%TO.P,J106,38,Pin_38*%
%TO.N,/L38*%
X136946900Y-97790000D03*
D23*
%TO.P,J106,37,Pin_37*%
%TO.N,/L37*%
X134406900Y-97790000D03*
D24*
%TO.P,J106,36,Pin_36*%
%TO.N,/L36*%
X136946900Y-95250000D03*
D23*
%TO.P,J106,35,Pin_35*%
%TO.N,/L35*%
X134406900Y-95250000D03*
D24*
%TO.P,J106,34,Pin_34*%
%TO.N,/L34*%
X136946900Y-92710000D03*
D23*
%TO.P,J106,33,Pin_33*%
%TO.N,/L33*%
X134406900Y-92710000D03*
D24*
%TO.P,J106,32,Pin_32*%
%TO.N,/L32*%
X136946900Y-90170000D03*
D23*
%TO.P,J106,31,Pin_31*%
%TO.N,/L31*%
X134406900Y-90170000D03*
D24*
%TO.P,J106,30,Pin_30*%
%TO.N,/L30*%
X136946900Y-87630000D03*
D23*
%TO.P,J106,29,Pin_29*%
%TO.N,/L29*%
X134406900Y-87630000D03*
D24*
%TO.P,J106,28,Pin_28*%
%TO.N,/L28*%
X136946900Y-85090000D03*
D23*
%TO.P,J106,27,Pin_27*%
%TO.N,/L27*%
X134406900Y-85090000D03*
D24*
%TO.P,J106,26,Pin_26*%
%TO.N,/L26*%
X136946900Y-82550000D03*
D23*
%TO.P,J106,25,Pin_25*%
%TO.N,/L25*%
X134406900Y-82550000D03*
D24*
%TO.P,J106,24,Pin_24*%
%TO.N,/L24*%
X136946900Y-80010000D03*
D23*
%TO.P,J106,23,Pin_23*%
%TO.N,/L23*%
X134406900Y-80010000D03*
D24*
%TO.P,J106,22,Pin_22*%
%TO.N,/L22*%
X136946900Y-77470000D03*
D23*
%TO.P,J106,21,Pin_21*%
%TO.N,/L21*%
X134406900Y-77470000D03*
D24*
%TO.P,J106,20,Pin_20*%
%TO.N,/L20*%
X136946900Y-74930000D03*
D23*
%TO.P,J106,19,Pin_19*%
%TO.N,/L19*%
X134406900Y-74930000D03*
D24*
%TO.P,J106,18,Pin_18*%
%TO.N,/L18*%
X136946900Y-72390000D03*
D23*
%TO.P,J106,17,Pin_17*%
%TO.N,/L17*%
X134406900Y-72390000D03*
D24*
%TO.P,J106,16,Pin_16*%
%TO.N,/L16*%
X136946900Y-69850000D03*
D23*
%TO.P,J106,15,Pin_15*%
%TO.N,/L15*%
X134406900Y-69850000D03*
D24*
%TO.P,J106,14,Pin_14*%
%TO.N,/L14*%
X136946900Y-67310000D03*
D23*
%TO.P,J106,13,Pin_13*%
%TO.N,/L13*%
X134406900Y-67310000D03*
D24*
%TO.P,J106,12,Pin_12*%
%TO.N,/L12*%
X136946900Y-64770000D03*
D23*
%TO.P,J106,11,Pin_11*%
%TO.N,/L11*%
X134406900Y-64770000D03*
D24*
%TO.P,J106,10,Pin_10*%
%TO.N,/L10*%
X136946900Y-62230000D03*
D23*
%TO.P,J106,9,Pin_9*%
%TO.N,/L9*%
X134406900Y-62230000D03*
D24*
%TO.P,J106,8,Pin_8*%
%TO.N,/L8*%
X136946900Y-59690000D03*
D23*
%TO.P,J106,7,Pin_7*%
%TO.N,/L7*%
X134406900Y-59690000D03*
D24*
%TO.P,J106,6,Pin_6*%
%TO.N,/L6*%
X136946900Y-57150000D03*
D23*
%TO.P,J106,5,Pin_5*%
%TO.N,/L5*%
X134406900Y-57150000D03*
D24*
%TO.P,J106,4,Pin_4*%
%TO.N,/L4*%
X136946900Y-54610000D03*
D23*
%TO.P,J106,3,Pin_3*%
%TO.N,/L3*%
X134406900Y-54610000D03*
D24*
%TO.P,J106,2,Pin_2*%
%TO.N,/L2*%
X136946900Y-52070000D03*
D23*
%TO.P,J106,1,Pin_1*%
%TO.N,/L1*%
X134406900Y-52070000D03*
%TD*%
D40*
%TO.P,J115,20,Pin_20*%
%TO.N,/L40*%
X85725000Y-91725000D03*
%TO.P,J115,19,Pin_19*%
%TO.N,/L39*%
X84725000Y-91725000D03*
%TO.P,J115,18,Pin_18*%
%TO.N,/L38*%
X85725000Y-90725000D03*
%TO.P,J115,17,Pin_17*%
%TO.N,/L37*%
X84725000Y-90725000D03*
%TO.P,J115,16,Pin_16*%
%TO.N,/L36*%
X85725000Y-89725000D03*
%TO.P,J115,15,Pin_15*%
%TO.N,/L35*%
X84725000Y-89725000D03*
%TO.P,J115,14,Pin_14*%
%TO.N,/L34*%
X85725000Y-88725000D03*
%TO.P,J115,13,Pin_13*%
%TO.N,/L33*%
X84725000Y-88725000D03*
%TO.P,J115,12,Pin_12*%
%TO.N,/L32*%
X85725000Y-87725000D03*
%TO.P,J115,11,Pin_11*%
%TO.N,/L31*%
X84725000Y-87725000D03*
%TO.P,J115,10,Pin_10*%
%TO.N,/L30*%
X85725000Y-86725000D03*
%TO.P,J115,9,Pin_9*%
%TO.N,/L29*%
X84725000Y-86725000D03*
%TO.P,J115,8,Pin_8*%
%TO.N,/L28*%
X85725000Y-85725000D03*
%TO.P,J115,7,Pin_7*%
%TO.N,/L27*%
X84725000Y-85725000D03*
%TO.P,J115,6,Pin_6*%
%TO.N,/L26*%
X85725000Y-84725000D03*
%TO.P,J115,5,Pin_5*%
%TO.N,/L25*%
X84725000Y-84725000D03*
%TO.P,J115,4,Pin_4*%
%TO.N,/L24*%
X85725000Y-83725000D03*
%TO.P,J115,3,Pin_3*%
%TO.N,/L23*%
X84725000Y-83725000D03*
%TO.P,J115,2,Pin_2*%
%TO.N,/L22*%
X85725000Y-82725000D03*
D41*
%TO.P,J115,1,Pin_1*%
%TO.N,/L21*%
X84725000Y-82725000D03*
%TD*%
D23*
%TO.P,J110,1,Pin_1*%
%TO.N,/L1*%
X95039500Y-51990600D03*
D24*
%TO.P,J110,2,Pin_2*%
%TO.N,/L2*%
X97579500Y-51990600D03*
D23*
%TO.P,J110,3,Pin_3*%
%TO.N,/L3*%
X95039500Y-54530600D03*
D24*
%TO.P,J110,4,Pin_4*%
%TO.N,/L4*%
X97579500Y-54530600D03*
D23*
%TO.P,J110,5,Pin_5*%
%TO.N,/L5*%
X95039500Y-57070600D03*
D24*
%TO.P,J110,6,Pin_6*%
%TO.N,/L6*%
X97579500Y-57070600D03*
D23*
%TO.P,J110,7,Pin_7*%
%TO.N,/L7*%
X95039500Y-59610600D03*
D24*
%TO.P,J110,8,Pin_8*%
%TO.N,/L8*%
X97579500Y-59610600D03*
D23*
%TO.P,J110,9,Pin_9*%
%TO.N,/L9*%
X95039500Y-62150600D03*
D24*
%TO.P,J110,10,Pin_10*%
%TO.N,/L10*%
X97579500Y-62150600D03*
D23*
%TO.P,J110,11,Pin_11*%
%TO.N,/L11*%
X95039500Y-64690600D03*
D24*
%TO.P,J110,12,Pin_12*%
%TO.N,/L12*%
X97579500Y-64690600D03*
D23*
%TO.P,J110,13,Pin_13*%
%TO.N,/L13*%
X95039500Y-67230600D03*
D24*
%TO.P,J110,14,Pin_14*%
%TO.N,/L14*%
X97579500Y-67230600D03*
D23*
%TO.P,J110,15,Pin_15*%
%TO.N,/L15*%
X95039500Y-69770600D03*
D24*
%TO.P,J110,16,Pin_16*%
%TO.N,/L16*%
X97579500Y-69770600D03*
D23*
%TO.P,J110,17,Pin_17*%
%TO.N,/L17*%
X95039500Y-72310600D03*
D24*
%TO.P,J110,18,Pin_18*%
%TO.N,/L18*%
X97579500Y-72310600D03*
D23*
%TO.P,J110,19,Pin_19*%
%TO.N,/L19*%
X95039500Y-74850600D03*
D24*
%TO.P,J110,20,Pin_20*%
%TO.N,/L20*%
X97579500Y-74850600D03*
D23*
%TO.P,J110,21,Pin_21*%
%TO.N,/L21*%
X95039500Y-77390600D03*
D24*
%TO.P,J110,22,Pin_22*%
%TO.N,/L22*%
X97579500Y-77390600D03*
D23*
%TO.P,J110,23,Pin_23*%
%TO.N,/L23*%
X95039500Y-79930600D03*
D24*
%TO.P,J110,24,Pin_24*%
%TO.N,/L24*%
X97579500Y-79930600D03*
D23*
%TO.P,J110,25,Pin_25*%
%TO.N,/L25*%
X95039500Y-82470600D03*
D24*
%TO.P,J110,26,Pin_26*%
%TO.N,/L26*%
X97579500Y-82470600D03*
D23*
%TO.P,J110,27,Pin_27*%
%TO.N,/L27*%
X95039500Y-85010600D03*
D24*
%TO.P,J110,28,Pin_28*%
%TO.N,/L28*%
X97579500Y-85010600D03*
D23*
%TO.P,J110,29,Pin_29*%
%TO.N,/L29*%
X95039500Y-87550600D03*
D24*
%TO.P,J110,30,Pin_30*%
%TO.N,/L30*%
X97579500Y-87550600D03*
D23*
%TO.P,J110,31,Pin_31*%
%TO.N,/L31*%
X95039500Y-90090600D03*
D24*
%TO.P,J110,32,Pin_32*%
%TO.N,/L32*%
X97579500Y-90090600D03*
D23*
%TO.P,J110,33,Pin_33*%
%TO.N,/L33*%
X95039500Y-92630600D03*
D24*
%TO.P,J110,34,Pin_34*%
%TO.N,/L34*%
X97579500Y-92630600D03*
D23*
%TO.P,J110,35,Pin_35*%
%TO.N,/L35*%
X95039500Y-95170600D03*
D24*
%TO.P,J110,36,Pin_36*%
%TO.N,/L36*%
X97579500Y-95170600D03*
D23*
%TO.P,J110,37,Pin_37*%
%TO.N,/L37*%
X95039500Y-97710600D03*
D24*
%TO.P,J110,38,Pin_38*%
%TO.N,/L38*%
X97579500Y-97710600D03*
D23*
%TO.P,J110,39,Pin_39*%
%TO.N,/L39*%
X95039500Y-100250600D03*
D24*
%TO.P,J110,40,Pin_40*%
%TO.N,/L40*%
X97579500Y-100250600D03*
D23*
%TO.P,J110,41,Pin_41*%
%TO.N,/L41*%
X95039500Y-102790600D03*
D24*
%TO.P,J110,42,Pin_42*%
%TO.N,/L42*%
X97579500Y-102790600D03*
D23*
%TO.P,J110,43,Pin_43*%
%TO.N,/L43*%
X95039500Y-105330600D03*
D24*
%TO.P,J110,44,Pin_44*%
%TO.N,/L44*%
X97579500Y-105330600D03*
D23*
%TO.P,J110,45,Pin_45*%
%TO.N,/L45*%
X95039500Y-107870600D03*
D24*
%TO.P,J110,46,Pin_46*%
%TO.N,/L46*%
X97579500Y-107870600D03*
D23*
%TO.P,J110,47,Pin_47*%
%TO.N,/L47*%
X95039500Y-110410600D03*
D24*
%TO.P,J110,48,Pin_48*%
%TO.N,/L48*%
X97579500Y-110410600D03*
D23*
%TO.P,J110,49,Pin_49*%
%TO.N,/L49*%
X95039500Y-112950600D03*
D24*
%TO.P,J110,50,Pin_50*%
%TO.N,/L50*%
X97579500Y-112950600D03*
D23*
%TO.P,J110,51,Pin_51*%
%TO.N,/L51*%
X95039500Y-115490600D03*
D24*
%TO.P,J110,52,Pin_52*%
%TO.N,/L52*%
X97579500Y-115490600D03*
D23*
%TO.P,J110,53,Pin_53*%
%TO.N,/L53*%
X95039500Y-118030600D03*
D24*
%TO.P,J110,54,Pin_54*%
%TO.N,/L54*%
X97579500Y-118030600D03*
D23*
%TO.P,J110,55,Pin_55*%
%TO.N,/L55*%
X95039500Y-120570600D03*
D24*
%TO.P,J110,56,Pin_56*%
%TO.N,/L56*%
X97579500Y-120570600D03*
D23*
%TO.P,J110,57,Pin_57*%
%TO.N,/L57*%
X95039500Y-123110600D03*
D24*
%TO.P,J110,58,Pin_58*%
%TO.N,/L58*%
X97579500Y-123110600D03*
D23*
%TO.P,J110,59,Pin_59*%
%TO.N,/L59*%
X95039500Y-125650600D03*
D24*
%TO.P,J110,60,Pin_60*%
%TO.N,/L60*%
X97579500Y-125650600D03*
D23*
%TO.P,J110,61,Pin_61*%
%TO.N,/L61*%
X95039500Y-128190600D03*
D24*
%TO.P,J110,62,Pin_62*%
%TO.N,/L62*%
X97579500Y-128190600D03*
D23*
%TO.P,J110,63,Pin_63*%
%TO.N,/L63*%
X95039500Y-130730600D03*
D24*
%TO.P,J110,64,Pin_64*%
%TO.N,/L64*%
X97579500Y-130730600D03*
D23*
%TO.P,J110,65,Pin_65*%
%TO.N,/L65*%
X95039500Y-133270600D03*
D24*
%TO.P,J110,66,Pin_66*%
%TO.N,/L66*%
X97579500Y-133270600D03*
D23*
%TO.P,J110,67,Pin_67*%
%TO.N,/L67*%
X95039500Y-135810600D03*
D24*
%TO.P,J110,68,Pin_68*%
%TO.N,/L68*%
X97579500Y-135810600D03*
D23*
%TO.P,J110,69,Pin_69*%
%TO.N,/L69*%
X95039500Y-138350600D03*
D24*
%TO.P,J110,70,Pin_70*%
%TO.N,/L70*%
X97579500Y-138350600D03*
%TD*%
D36*
%TO.P,JP101,1,A*%
%TO.N,/L31*%
X155030000Y-100330000D03*
D37*
%TO.P,JP101,2,B*%
%TO.N,/L38*%
X153580000Y-100330000D03*
%TD*%
D23*
%TO.P,J105,1,Pin_1*%
%TO.N,/L1*%
X129537400Y-52070000D03*
D24*
%TO.P,J105,2,Pin_2*%
%TO.N,/L2*%
X132077400Y-52070000D03*
D23*
%TO.P,J105,3,Pin_3*%
%TO.N,/L3*%
X129537400Y-54610000D03*
D24*
%TO.P,J105,4,Pin_4*%
%TO.N,/L4*%
X132077400Y-54610000D03*
D23*
%TO.P,J105,5,Pin_5*%
%TO.N,/L5*%
X129537400Y-57150000D03*
D24*
%TO.P,J105,6,Pin_6*%
%TO.N,/L6*%
X132077400Y-57150000D03*
D23*
%TO.P,J105,7,Pin_7*%
%TO.N,/L7*%
X129537400Y-59690000D03*
D24*
%TO.P,J105,8,Pin_8*%
%TO.N,/L8*%
X132077400Y-59690000D03*
D23*
%TO.P,J105,9,Pin_9*%
%TO.N,/L9*%
X129537400Y-62230000D03*
D24*
%TO.P,J105,10,Pin_10*%
%TO.N,/L10*%
X132077400Y-62230000D03*
D23*
%TO.P,J105,11,Pin_11*%
%TO.N,/L11*%
X129537400Y-64770000D03*
D24*
%TO.P,J105,12,Pin_12*%
%TO.N,/L12*%
X132077400Y-64770000D03*
D23*
%TO.P,J105,13,Pin_13*%
%TO.N,/L13*%
X129537400Y-67310000D03*
D24*
%TO.P,J105,14,Pin_14*%
%TO.N,/L14*%
X132077400Y-67310000D03*
D23*
%TO.P,J105,15,Pin_15*%
%TO.N,/L15*%
X129537400Y-69850000D03*
D24*
%TO.P,J105,16,Pin_16*%
%TO.N,/L16*%
X132077400Y-69850000D03*
D23*
%TO.P,J105,17,Pin_17*%
%TO.N,/L17*%
X129537400Y-72390000D03*
D24*
%TO.P,J105,18,Pin_18*%
%TO.N,/L18*%
X132077400Y-72390000D03*
D23*
%TO.P,J105,19,Pin_19*%
%TO.N,/L19*%
X129537400Y-74930000D03*
D24*
%TO.P,J105,20,Pin_20*%
%TO.N,/L20*%
X132077400Y-74930000D03*
D23*
%TO.P,J105,21,Pin_21*%
%TO.N,/L21*%
X129537400Y-77470000D03*
D24*
%TO.P,J105,22,Pin_22*%
%TO.N,/L22*%
X132077400Y-77470000D03*
D23*
%TO.P,J105,23,Pin_23*%
%TO.N,/L23*%
X129537400Y-80010000D03*
D24*
%TO.P,J105,24,Pin_24*%
%TO.N,/L24*%
X132077400Y-80010000D03*
D23*
%TO.P,J105,25,Pin_25*%
%TO.N,/L25*%
X129537400Y-82550000D03*
D24*
%TO.P,J105,26,Pin_26*%
%TO.N,/L26*%
X132077400Y-82550000D03*
D23*
%TO.P,J105,27,Pin_27*%
%TO.N,/L27*%
X129537400Y-85090000D03*
D24*
%TO.P,J105,28,Pin_28*%
%TO.N,/L28*%
X132077400Y-85090000D03*
D23*
%TO.P,J105,29,Pin_29*%
%TO.N,/L29*%
X129537400Y-87630000D03*
D24*
%TO.P,J105,30,Pin_30*%
%TO.N,/L30*%
X132077400Y-87630000D03*
D23*
%TO.P,J105,31,Pin_31*%
%TO.N,/L31*%
X129537400Y-90170000D03*
D24*
%TO.P,J105,32,Pin_32*%
%TO.N,/L32*%
X132077400Y-90170000D03*
D23*
%TO.P,J105,33,Pin_33*%
%TO.N,/L33*%
X129537400Y-92710000D03*
D24*
%TO.P,J105,34,Pin_34*%
%TO.N,/L34*%
X132077400Y-92710000D03*
D23*
%TO.P,J105,35,Pin_35*%
%TO.N,/L35*%
X129537400Y-95250000D03*
D24*
%TO.P,J105,36,Pin_36*%
%TO.N,/L36*%
X132077400Y-95250000D03*
D23*
%TO.P,J105,37,Pin_37*%
%TO.N,/L37*%
X129537400Y-97790000D03*
D24*
%TO.P,J105,38,Pin_38*%
%TO.N,/L38*%
X132077400Y-97790000D03*
D23*
%TO.P,J105,39,Pin_39*%
%TO.N,/L39*%
X129537400Y-100330000D03*
D24*
%TO.P,J105,40,Pin_40*%
%TO.N,/L40*%
X132077400Y-100330000D03*
D23*
%TO.P,J105,41,Pin_41*%
%TO.N,/L41*%
X129537400Y-102870000D03*
D24*
%TO.P,J105,42,Pin_42*%
%TO.N,/L42*%
X132077400Y-102870000D03*
D23*
%TO.P,J105,43,Pin_43*%
%TO.N,/L43*%
X129537400Y-105410000D03*
D24*
%TO.P,J105,44,Pin_44*%
%TO.N,/L44*%
X132077400Y-105410000D03*
D23*
%TO.P,J105,45,Pin_45*%
%TO.N,/L45*%
X129537400Y-107950000D03*
D24*
%TO.P,J105,46,Pin_46*%
%TO.N,/L46*%
X132077400Y-107950000D03*
D23*
%TO.P,J105,47,Pin_47*%
%TO.N,/L47*%
X129537400Y-110490000D03*
D24*
%TO.P,J105,48,Pin_48*%
%TO.N,/L48*%
X132077400Y-110490000D03*
D23*
%TO.P,J105,49,Pin_49*%
%TO.N,/L49*%
X129537400Y-113030000D03*
D24*
%TO.P,J105,50,Pin_50*%
%TO.N,/L50*%
X132077400Y-113030000D03*
D23*
%TO.P,J105,51,Pin_51*%
%TO.N,/L51*%
X129537400Y-115570000D03*
D24*
%TO.P,J105,52,Pin_52*%
%TO.N,/L52*%
X132077400Y-115570000D03*
D23*
%TO.P,J105,53,Pin_53*%
%TO.N,/L53*%
X129537400Y-118110000D03*
D24*
%TO.P,J105,54,Pin_54*%
%TO.N,/L54*%
X132077400Y-118110000D03*
D23*
%TO.P,J105,55,Pin_55*%
%TO.N,/L55*%
X129537400Y-120650000D03*
D24*
%TO.P,J105,56,Pin_56*%
%TO.N,/L56*%
X132077400Y-120650000D03*
D23*
%TO.P,J105,57,Pin_57*%
%TO.N,/L57*%
X129537400Y-123190000D03*
D24*
%TO.P,J105,58,Pin_58*%
%TO.N,/L58*%
X132077400Y-123190000D03*
D23*
%TO.P,J105,59,Pin_59*%
%TO.N,/L59*%
X129537400Y-125730000D03*
D24*
%TO.P,J105,60,Pin_60*%
%TO.N,/L60*%
X132077400Y-125730000D03*
D23*
%TO.P,J105,61,Pin_61*%
%TO.N,/L61*%
X129537400Y-128270000D03*
D24*
%TO.P,J105,62,Pin_62*%
%TO.N,/L62*%
X132077400Y-128270000D03*
D23*
%TO.P,J105,63,Pin_63*%
%TO.N,/L63*%
X129537400Y-130810000D03*
D24*
%TO.P,J105,64,Pin_64*%
%TO.N,/L64*%
X132077400Y-130810000D03*
D23*
%TO.P,J105,65,Pin_65*%
%TO.N,/L65*%
X129537400Y-133350000D03*
D24*
%TO.P,J105,66,Pin_66*%
%TO.N,/L66*%
X132077400Y-133350000D03*
D23*
%TO.P,J105,67,Pin_67*%
%TO.N,/L67*%
X129537400Y-135890000D03*
D24*
%TO.P,J105,68,Pin_68*%
%TO.N,/L68*%
X132077400Y-135890000D03*
D23*
%TO.P,J105,69,Pin_69*%
%TO.N,/L69*%
X129537400Y-138430000D03*
D24*
%TO.P,J105,70,Pin_70*%
%TO.N,/L70*%
X132077400Y-138430000D03*
%TD*%
D42*
%TO.P,U104,1,GND*%
%TO.N,/L36*%
X141865500Y-96204400D03*
%TO.P,U104,2,VO*%
%TO.N,/L37*%
X141865500Y-98504400D03*
D43*
X148165500Y-98504400D03*
D42*
%TO.P,U104,3,VI*%
%TO.N,/L38*%
X141865500Y-100804400D03*
%TD*%
D27*
%TO.P,Q104,1,G*%
%TO.N,/L17*%
X149841700Y-71125000D03*
%TO.P,Q104,2,S*%
%TO.N,/L19*%
X149841700Y-73025000D03*
%TO.P,Q104,3,D*%
%TO.N,/L18*%
X152841700Y-72075000D03*
%TD*%
D30*
%TO.P,Q102,1,E1*%
%TO.N,/L17*%
X157485000Y-73660000D03*
%TO.P,Q102,2,B1*%
%TO.N,/L19*%
X157485000Y-74310000D03*
%TO.P,Q102,3,C2*%
%TO.N,/L21*%
X157485000Y-74960000D03*
%TO.P,Q102,4,E2*%
%TO.N,/L22*%
X159385000Y-74960000D03*
%TO.P,Q102,5,B2*%
%TO.N,/L20*%
X159385000Y-74310000D03*
%TO.P,Q102,6,C1*%
%TO.N,/L18*%
X159385000Y-73660000D03*
%TD*%
D23*
%TO.P,J104,1,Pin_1*%
%TO.N,/L1*%
X121285000Y-52070000D03*
D24*
%TO.P,J104,2,Pin_2*%
%TO.N,/L2*%
X123825000Y-52070000D03*
D23*
%TO.P,J104,3,Pin_3*%
%TO.N,/L3*%
X121285000Y-54610000D03*
D24*
%TO.P,J104,4,Pin_4*%
%TO.N,/L4*%
X123825000Y-54610000D03*
D23*
%TO.P,J104,5,Pin_5*%
%TO.N,/L5*%
X121285000Y-57150000D03*
D24*
%TO.P,J104,6,Pin_6*%
%TO.N,/L6*%
X123825000Y-57150000D03*
D23*
%TO.P,J104,7,Pin_7*%
%TO.N,/L7*%
X121285000Y-59690000D03*
D24*
%TO.P,J104,8,Pin_8*%
%TO.N,/L8*%
X123825000Y-59690000D03*
D23*
%TO.P,J104,9,Pin_9*%
%TO.N,/L9*%
X121285000Y-62230000D03*
D24*
%TO.P,J104,10,Pin_10*%
%TO.N,/L10*%
X123825000Y-62230000D03*
D23*
%TO.P,J104,11,Pin_11*%
%TO.N,/L11*%
X121285000Y-64770000D03*
D24*
%TO.P,J104,12,Pin_12*%
%TO.N,/L12*%
X123825000Y-64770000D03*
D23*
%TO.P,J104,13,Pin_13*%
%TO.N,/L13*%
X121285000Y-67310000D03*
D24*
%TO.P,J104,14,Pin_14*%
%TO.N,/L14*%
X123825000Y-67310000D03*
D23*
%TO.P,J104,15,Pin_15*%
%TO.N,/L15*%
X121285000Y-69850000D03*
D24*
%TO.P,J104,16,Pin_16*%
%TO.N,/L16*%
X123825000Y-69850000D03*
D23*
%TO.P,J104,17,Pin_17*%
%TO.N,/L17*%
X121285000Y-72390000D03*
D24*
%TO.P,J104,18,Pin_18*%
%TO.N,/L18*%
X123825000Y-72390000D03*
D23*
%TO.P,J104,19,Pin_19*%
%TO.N,/L19*%
X121285000Y-74930000D03*
D24*
%TO.P,J104,20,Pin_20*%
%TO.N,/L20*%
X123825000Y-74930000D03*
D23*
%TO.P,J104,21,Pin_21*%
%TO.N,/L21*%
X121285000Y-77470000D03*
D24*
%TO.P,J104,22,Pin_22*%
%TO.N,/L22*%
X123825000Y-77470000D03*
D23*
%TO.P,J104,23,Pin_23*%
%TO.N,/L23*%
X121285000Y-80010000D03*
D24*
%TO.P,J104,24,Pin_24*%
%TO.N,/L24*%
X123825000Y-80010000D03*
D23*
%TO.P,J104,25,Pin_25*%
%TO.N,/L25*%
X121285000Y-82550000D03*
D24*
%TO.P,J104,26,Pin_26*%
%TO.N,/L26*%
X123825000Y-82550000D03*
D23*
%TO.P,J104,27,Pin_27*%
%TO.N,/L27*%
X121285000Y-85090000D03*
D24*
%TO.P,J104,28,Pin_28*%
%TO.N,/L28*%
X123825000Y-85090000D03*
D23*
%TO.P,J104,29,Pin_29*%
%TO.N,/L29*%
X121285000Y-87630000D03*
D24*
%TO.P,J104,30,Pin_30*%
%TO.N,/L30*%
X123825000Y-87630000D03*
D23*
%TO.P,J104,31,Pin_31*%
%TO.N,/L31*%
X121285000Y-90170000D03*
D24*
%TO.P,J104,32,Pin_32*%
%TO.N,/L32*%
X123825000Y-90170000D03*
D23*
%TO.P,J104,33,Pin_33*%
%TO.N,/L33*%
X121285000Y-92710000D03*
D24*
%TO.P,J104,34,Pin_34*%
%TO.N,/L34*%
X123825000Y-92710000D03*
D23*
%TO.P,J104,35,Pin_35*%
%TO.N,/L35*%
X121285000Y-95250000D03*
D24*
%TO.P,J104,36,Pin_36*%
%TO.N,/L36*%
X123825000Y-95250000D03*
D23*
%TO.P,J104,37,Pin_37*%
%TO.N,/L37*%
X121285000Y-97790000D03*
D24*
%TO.P,J104,38,Pin_38*%
%TO.N,/L38*%
X123825000Y-97790000D03*
D23*
%TO.P,J104,39,Pin_39*%
%TO.N,/L39*%
X121285000Y-100330000D03*
D24*
%TO.P,J104,40,Pin_40*%
%TO.N,/L40*%
X123825000Y-100330000D03*
D23*
%TO.P,J104,41,Pin_41*%
%TO.N,/L41*%
X121285000Y-102870000D03*
D24*
%TO.P,J104,42,Pin_42*%
%TO.N,/L42*%
X123825000Y-102870000D03*
D23*
%TO.P,J104,43,Pin_43*%
%TO.N,/L43*%
X121285000Y-105410000D03*
D24*
%TO.P,J104,44,Pin_44*%
%TO.N,/L44*%
X123825000Y-105410000D03*
D23*
%TO.P,J104,45,Pin_45*%
%TO.N,/L45*%
X121285000Y-107950000D03*
D24*
%TO.P,J104,46,Pin_46*%
%TO.N,/L46*%
X123825000Y-107950000D03*
D23*
%TO.P,J104,47,Pin_47*%
%TO.N,/L47*%
X121285000Y-110490000D03*
D24*
%TO.P,J104,48,Pin_48*%
%TO.N,/L48*%
X123825000Y-110490000D03*
D23*
%TO.P,J104,49,Pin_49*%
%TO.N,/L49*%
X121285000Y-113030000D03*
D24*
%TO.P,J104,50,Pin_50*%
%TO.N,/L50*%
X123825000Y-113030000D03*
D23*
%TO.P,J104,51,Pin_51*%
%TO.N,/L51*%
X121285000Y-115570000D03*
D24*
%TO.P,J104,52,Pin_52*%
%TO.N,/L52*%
X123825000Y-115570000D03*
D23*
%TO.P,J104,53,Pin_53*%
%TO.N,/L53*%
X121285000Y-118110000D03*
D24*
%TO.P,J104,54,Pin_54*%
%TO.N,/L54*%
X123825000Y-118110000D03*
D23*
%TO.P,J104,55,Pin_55*%
%TO.N,/L55*%
X121285000Y-120650000D03*
D24*
%TO.P,J104,56,Pin_56*%
%TO.N,/L56*%
X123825000Y-120650000D03*
D23*
%TO.P,J104,57,Pin_57*%
%TO.N,/L57*%
X121285000Y-123190000D03*
D24*
%TO.P,J104,58,Pin_58*%
%TO.N,/L58*%
X123825000Y-123190000D03*
D23*
%TO.P,J104,59,Pin_59*%
%TO.N,/L59*%
X121285000Y-125730000D03*
D24*
%TO.P,J104,60,Pin_60*%
%TO.N,/L60*%
X123825000Y-125730000D03*
D23*
%TO.P,J104,61,Pin_61*%
%TO.N,/L61*%
X121285000Y-128270000D03*
D24*
%TO.P,J104,62,Pin_62*%
%TO.N,/L62*%
X123825000Y-128270000D03*
D23*
%TO.P,J104,63,Pin_63*%
%TO.N,/L63*%
X121285000Y-130810000D03*
D24*
%TO.P,J104,64,Pin_64*%
%TO.N,/L64*%
X123825000Y-130810000D03*
D23*
%TO.P,J104,65,Pin_65*%
%TO.N,/L65*%
X121285000Y-133350000D03*
D24*
%TO.P,J104,66,Pin_66*%
%TO.N,/L66*%
X123825000Y-133350000D03*
D23*
%TO.P,J104,67,Pin_67*%
%TO.N,/L67*%
X121285000Y-135890000D03*
D24*
%TO.P,J104,68,Pin_68*%
%TO.N,/L68*%
X123825000Y-135890000D03*
D23*
%TO.P,J104,69,Pin_69*%
%TO.N,/L69*%
X121285000Y-138430000D03*
D24*
%TO.P,J104,70,Pin_70*%
%TO.N,/L70*%
X123825000Y-138430000D03*
%TD*%
D23*
%TO.P,J111,1,Pin_1*%
%TO.N,/L1*%
X100119500Y-51990600D03*
D24*
%TO.P,J111,2,Pin_2*%
%TO.N,/L2*%
X102659500Y-51990600D03*
D23*
%TO.P,J111,3,Pin_3*%
%TO.N,/L3*%
X100119500Y-54530600D03*
D24*
%TO.P,J111,4,Pin_4*%
%TO.N,/L4*%
X102659500Y-54530600D03*
D23*
%TO.P,J111,5,Pin_5*%
%TO.N,/L5*%
X100119500Y-57070600D03*
D24*
%TO.P,J111,6,Pin_6*%
%TO.N,/L6*%
X102659500Y-57070600D03*
D23*
%TO.P,J111,7,Pin_7*%
%TO.N,/L7*%
X100119500Y-59610600D03*
D24*
%TO.P,J111,8,Pin_8*%
%TO.N,/L8*%
X102659500Y-59610600D03*
D23*
%TO.P,J111,9,Pin_9*%
%TO.N,/L9*%
X100119500Y-62150600D03*
D24*
%TO.P,J111,10,Pin_10*%
%TO.N,/L10*%
X102659500Y-62150600D03*
D23*
%TO.P,J111,11,Pin_11*%
%TO.N,/L11*%
X100119500Y-64690600D03*
D24*
%TO.P,J111,12,Pin_12*%
%TO.N,/L12*%
X102659500Y-64690600D03*
D23*
%TO.P,J111,13,Pin_13*%
%TO.N,/L13*%
X100119500Y-67230600D03*
D24*
%TO.P,J111,14,Pin_14*%
%TO.N,/L14*%
X102659500Y-67230600D03*
D23*
%TO.P,J111,15,Pin_15*%
%TO.N,/L15*%
X100119500Y-69770600D03*
D24*
%TO.P,J111,16,Pin_16*%
%TO.N,/L16*%
X102659500Y-69770600D03*
D23*
%TO.P,J111,17,Pin_17*%
%TO.N,/L17*%
X100119500Y-72310600D03*
D24*
%TO.P,J111,18,Pin_18*%
%TO.N,/L18*%
X102659500Y-72310600D03*
D23*
%TO.P,J111,19,Pin_19*%
%TO.N,/L19*%
X100119500Y-74850600D03*
D24*
%TO.P,J111,20,Pin_20*%
%TO.N,/L20*%
X102659500Y-74850600D03*
D23*
%TO.P,J111,21,Pin_21*%
%TO.N,/L21*%
X100119500Y-77390600D03*
D24*
%TO.P,J111,22,Pin_22*%
%TO.N,/L22*%
X102659500Y-77390600D03*
D23*
%TO.P,J111,23,Pin_23*%
%TO.N,/L23*%
X100119500Y-79930600D03*
D24*
%TO.P,J111,24,Pin_24*%
%TO.N,/L24*%
X102659500Y-79930600D03*
D23*
%TO.P,J111,25,Pin_25*%
%TO.N,/L25*%
X100119500Y-82470600D03*
D24*
%TO.P,J111,26,Pin_26*%
%TO.N,/L26*%
X102659500Y-82470600D03*
D23*
%TO.P,J111,27,Pin_27*%
%TO.N,/L27*%
X100119500Y-85010600D03*
D24*
%TO.P,J111,28,Pin_28*%
%TO.N,/L28*%
X102659500Y-85010600D03*
D23*
%TO.P,J111,29,Pin_29*%
%TO.N,/L29*%
X100119500Y-87550600D03*
D24*
%TO.P,J111,30,Pin_30*%
%TO.N,/L30*%
X102659500Y-87550600D03*
D23*
%TO.P,J111,31,Pin_31*%
%TO.N,/L31*%
X100119500Y-90090600D03*
D24*
%TO.P,J111,32,Pin_32*%
%TO.N,/L32*%
X102659500Y-90090600D03*
D23*
%TO.P,J111,33,Pin_33*%
%TO.N,/L33*%
X100119500Y-92630600D03*
D24*
%TO.P,J111,34,Pin_34*%
%TO.N,/L34*%
X102659500Y-92630600D03*
D23*
%TO.P,J111,35,Pin_35*%
%TO.N,/L35*%
X100119500Y-95170600D03*
D24*
%TO.P,J111,36,Pin_36*%
%TO.N,/L36*%
X102659500Y-95170600D03*
D23*
%TO.P,J111,37,Pin_37*%
%TO.N,/L37*%
X100119500Y-97710600D03*
D24*
%TO.P,J111,38,Pin_38*%
%TO.N,/L38*%
X102659500Y-97710600D03*
D23*
%TO.P,J111,39,Pin_39*%
%TO.N,/L39*%
X100119500Y-100250600D03*
D24*
%TO.P,J111,40,Pin_40*%
%TO.N,/L40*%
X102659500Y-100250600D03*
D23*
%TO.P,J111,41,Pin_41*%
%TO.N,/L41*%
X100119500Y-102790600D03*
D24*
%TO.P,J111,42,Pin_42*%
%TO.N,/L42*%
X102659500Y-102790600D03*
D23*
%TO.P,J111,43,Pin_43*%
%TO.N,/L43*%
X100119500Y-105330600D03*
D24*
%TO.P,J111,44,Pin_44*%
%TO.N,/L44*%
X102659500Y-105330600D03*
D23*
%TO.P,J111,45,Pin_45*%
%TO.N,/L45*%
X100119500Y-107870600D03*
D24*
%TO.P,J111,46,Pin_46*%
%TO.N,/L46*%
X102659500Y-107870600D03*
D23*
%TO.P,J111,47,Pin_47*%
%TO.N,/L47*%
X100119500Y-110410600D03*
D24*
%TO.P,J111,48,Pin_48*%
%TO.N,/L48*%
X102659500Y-110410600D03*
D23*
%TO.P,J111,49,Pin_49*%
%TO.N,/L49*%
X100119500Y-112950600D03*
D24*
%TO.P,J111,50,Pin_50*%
%TO.N,/L50*%
X102659500Y-112950600D03*
D23*
%TO.P,J111,51,Pin_51*%
%TO.N,/L51*%
X100119500Y-115490600D03*
D24*
%TO.P,J111,52,Pin_52*%
%TO.N,/L52*%
X102659500Y-115490600D03*
D23*
%TO.P,J111,53,Pin_53*%
%TO.N,/L53*%
X100119500Y-118030600D03*
D24*
%TO.P,J111,54,Pin_54*%
%TO.N,/L54*%
X102659500Y-118030600D03*
D23*
%TO.P,J111,55,Pin_55*%
%TO.N,/L55*%
X100119500Y-120570600D03*
D24*
%TO.P,J111,56,Pin_56*%
%TO.N,/L56*%
X102659500Y-120570600D03*
D23*
%TO.P,J111,57,Pin_57*%
%TO.N,/L57*%
X100119500Y-123110600D03*
D24*
%TO.P,J111,58,Pin_58*%
%TO.N,/L58*%
X102659500Y-123110600D03*
D23*
%TO.P,J111,59,Pin_59*%
%TO.N,/L59*%
X100119500Y-125650600D03*
D24*
%TO.P,J111,60,Pin_60*%
%TO.N,/L60*%
X102659500Y-125650600D03*
D23*
%TO.P,J111,61,Pin_61*%
%TO.N,/L61*%
X100119500Y-128190600D03*
D24*
%TO.P,J111,62,Pin_62*%
%TO.N,/L62*%
X102659500Y-128190600D03*
D23*
%TO.P,J111,63,Pin_63*%
%TO.N,/L63*%
X100119500Y-130730600D03*
D24*
%TO.P,J111,64,Pin_64*%
%TO.N,/L64*%
X102659500Y-130730600D03*
D23*
%TO.P,J111,65,Pin_65*%
%TO.N,/L65*%
X100119500Y-133270600D03*
D24*
%TO.P,J111,66,Pin_66*%
%TO.N,/L66*%
X102659500Y-133270600D03*
D23*
%TO.P,J111,67,Pin_67*%
%TO.N,/L67*%
X100119500Y-135810600D03*
D24*
%TO.P,J111,68,Pin_68*%
%TO.N,/L68*%
X102659500Y-135810600D03*
D23*
%TO.P,J111,69,Pin_69*%
%TO.N,/L69*%
X100119500Y-138350600D03*
D24*
%TO.P,J111,70,Pin_70*%
%TO.N,/L70*%
X102659500Y-138350600D03*
%TD*%
D28*
%TO.P,D102,1,K*%
%TO.N,/L29*%
X142055000Y-86995000D03*
D29*
%TO.P,D102,2,A*%
%TO.N,/L31*%
X142055000Y-92795000D03*
%TD*%
D27*
%TO.P,Q103,1,G*%
%TO.N,/L22*%
X147126700Y-76520000D03*
%TO.P,Q103,2,S*%
%TO.N,/L20*%
X147126700Y-74620000D03*
%TO.P,Q103,3,D*%
%TO.N,/L21*%
X144126700Y-75570000D03*
%TD*%
D44*
%TO.P,U102,1,I1*%
%TO.N,/L1*%
X157570600Y-52737200D03*
%TO.P,U102,2,I2*%
%TO.N,/L3*%
X157570600Y-53372200D03*
%TO.P,U102,3,I3*%
%TO.N,/L5*%
X157570600Y-54007200D03*
%TO.P,U102,4,I4*%
%TO.N,/L7*%
X157570600Y-54642200D03*
%TO.P,U102,5,I5*%
%TO.N,/L9*%
X157570600Y-55277200D03*
%TO.P,U102,6,I6*%
%TO.N,/L11*%
X157570600Y-55912200D03*
%TO.P,U102,7,I7*%
%TO.N,/L13*%
X157570600Y-56547200D03*
%TO.P,U102,8,GND*%
%TO.N,/L15*%
X157570600Y-57182200D03*
%TO.P,U102,9,COM*%
%TO.N,/L16*%
X162770600Y-57182200D03*
%TO.P,U102,10,O7*%
%TO.N,/L14*%
X162770600Y-56547200D03*
%TO.P,U102,11,O6*%
%TO.N,/L12*%
X162770600Y-55912200D03*
%TO.P,U102,12,O5*%
%TO.N,/L10*%
X162770600Y-55277200D03*
%TO.P,U102,13,O4*%
%TO.N,/L8*%
X162770600Y-54642200D03*
%TO.P,U102,14,O3*%
%TO.N,/L6*%
X162770600Y-54007200D03*
%TO.P,U102,15,O2*%
%TO.N,/L4*%
X162770600Y-53372200D03*
%TO.P,U102,16,O1*%
%TO.N,/L2*%
X162770600Y-52737200D03*
%TD*%
D36*
%TO.P,JP102,1,A*%
%TO.N,/L30*%
X157480000Y-97155000D03*
D37*
%TO.P,JP102,2,B*%
%TO.N,/L36*%
X156030000Y-97155000D03*
%TD*%
D36*
%TO.P,JP104,1,A*%
%TO.N,/L30*%
X157480000Y-107950000D03*
D37*
%TO.P,JP104,2,B*%
%TO.N,/L43*%
X156030000Y-107950000D03*
%TD*%
D21*
%TO.P,D103,1,K*%
%TO.N,/L32*%
X152575000Y-92160000D03*
D22*
%TO.P,D103,2,A*%
%TO.N,/L31*%
X146775000Y-92160000D03*
%TD*%
D45*
%TO.P,J116,1,VBUS*%
%TO.N,/L68*%
X151765000Y-133350000D03*
D46*
%TO.P,J116,2,D-*%
%TO.N,/L67*%
X149265000Y-133350000D03*
%TO.P,J116,3,D+*%
%TO.N,/L69*%
X149265000Y-135350000D03*
%TO.P,J116,4,GND*%
%TO.N,/L70*%
X151765000Y-135350000D03*
D47*
%TO.P,J116,5,Shield*%
X156535000Y-138060000D03*
X144495000Y-138060000D03*
%TD*%
D27*
%TO.P,Q108,1,G*%
%TO.N,/L23*%
X144089400Y-78165900D03*
%TO.P,Q108,2,S*%
%TO.N,/L25*%
X144089400Y-80065900D03*
%TO.P,Q108,3,D*%
%TO.N,/L24*%
X147089400Y-79115900D03*
%TD*%
D48*
%TO.P,A101,1,NC*%
%TO.N,unconnected-(A101-NC-Pad1)*%
X126365000Y-87550600D03*
D49*
%TO.P,A101,2,IOREF*%
%TO.N,/L28*%
X126365000Y-85010600D03*
%TO.P,A101,3,~{RESET}*%
%TO.N,/L26*%
X126365000Y-82470600D03*
%TO.P,A101,4,3V3*%
%TO.N,/L24*%
X126365000Y-79930600D03*
%TO.P,A101,5,+5V*%
%TO.N,/L22*%
X126365000Y-77390600D03*
%TO.P,A101,6,GND*%
%TO.N,/L20*%
X126365000Y-74850600D03*
%TO.P,A101,7,GND*%
%TO.N,/L18*%
X126365000Y-72310600D03*
%TO.P,A101,8,VIN*%
%TO.N,/L16*%
X126365000Y-69770600D03*
%TO.P,A101,9,A0*%
%TO.N,/L12*%
X126365000Y-64690600D03*
%TO.P,A101,10,A1*%
%TO.N,/L10*%
X126365000Y-62150600D03*
%TO.P,A101,11,A2*%
%TO.N,/L8*%
X126365000Y-59610600D03*
%TO.P,A101,12,A3*%
%TO.N,/L6*%
X126365000Y-57070600D03*
%TO.P,A101,13,SDA/A4*%
%TO.N,/L4*%
X126365000Y-54530600D03*
%TO.P,A101,14,SCL/A5*%
%TO.N,/L2*%
X126365000Y-51990600D03*
%TO.P,A101,15,D0/RX*%
%TO.N,/L1*%
X78105000Y-51990600D03*
%TO.P,A101,16,D1/TX*%
%TO.N,/L3*%
X78105000Y-54530600D03*
%TO.P,A101,17,D2*%
%TO.N,/L5*%
X78105000Y-57070600D03*
%TO.P,A101,18,D3*%
%TO.N,/L7*%
X78105000Y-59610600D03*
%TO.P,A101,19,D4*%
%TO.N,/L9*%
X78105000Y-62150600D03*
%TO.P,A101,20,D5*%
%TO.N,/L11*%
X78105000Y-64690600D03*
%TO.P,A101,21,D6*%
%TO.N,/L13*%
X78105000Y-67230600D03*
%TO.P,A101,22,D7*%
%TO.N,/L15*%
X78105000Y-69770600D03*
%TO.P,A101,23,D8*%
%TO.N,/L19*%
X78105000Y-73830600D03*
%TO.P,A101,24,D9*%
%TO.N,/L21*%
X78105000Y-76370600D03*
%TO.P,A101,25,D10*%
%TO.N,/L23*%
X78105000Y-78910600D03*
%TO.P,A101,26,D11*%
%TO.N,/L25*%
X78105000Y-81450600D03*
%TO.P,A101,27,D12*%
%TO.N,/L27*%
X78105000Y-83990600D03*
%TO.P,A101,28,D13*%
%TO.N,/L29*%
X78105000Y-86530600D03*
%TO.P,A101,29,GND*%
%TO.N,/L31*%
X78105000Y-89070600D03*
%TO.P,A101,30,AREF*%
%TO.N,/L33*%
X78105000Y-91610600D03*
%TO.P,A101,31,SDA/A4*%
%TO.N,/L35*%
X78105000Y-94150600D03*
%TO.P,A101,32,SCL/A5*%
%TO.N,/L37*%
X78105000Y-96690600D03*
%TD*%
D50*
%TO.N,/L8*%
X154421100Y-53623200D03*
X159056700Y-54741900D03*
X150793300Y-64071700D03*
%TO.N,/L20*%
X157646200Y-75703200D03*
%TO.N,/L57*%
X88109100Y-119476700D03*
%TO.N,/L18*%
X158314000Y-73510000D03*
%TO.N,/L4*%
X149334500Y-61593400D03*
%TO.N,/L62*%
X148931000Y-126911300D03*
%TO.N,/L5*%
X140644500Y-61488700D03*
%TO.N,/L7*%
X138356200Y-61593300D03*
%TO.N,/L24*%
X158314000Y-80154700D03*
%TO.N,/L43*%
X86332200Y-104553900D03*
%TO.N,/L11*%
X159925500Y-65123200D03*
X144952500Y-63440600D03*
X145950200Y-66402300D03*
X159269400Y-55885000D03*
%TO.N,/L26*%
X157178600Y-82314500D03*
%TO.N,/L10*%
X156653800Y-65405000D03*
X154608300Y-54893200D03*
X158721500Y-56794800D03*
X157907500Y-66337500D03*
%TO.N,/L55*%
X90193100Y-118774400D03*
%TO.N,/L47*%
X84563300Y-105415500D03*
%TO.N,/L60*%
X142600700Y-124759400D03*
%TO.N,/L12*%
X153818400Y-56171700D03*
X150872200Y-66675000D03*
X154568200Y-57688700D03*
%TO.N,/L36*%
X151942900Y-96061700D03*
%TO.N,/L1*%
X155719700Y-52563900D03*
X149396500Y-58472500D03*
%TO.N,/L25*%
X84934700Y-80909800D03*
%TO.N,/L30*%
X152219200Y-94041600D03*
%TO.N,/L2*%
X148957600Y-60325000D03*
%TO.N,/L15*%
X163009900Y-62923900D03*
X160357300Y-57236100D03*
%TO.N,/L53*%
X92069700Y-117896200D03*
%TO.N,/L13*%
X155651700Y-67019700D03*
X155651700Y-56470600D03*
X149085200Y-67520100D03*
X145627000Y-62981100D03*
%TO.N,/L16*%
X162375100Y-63423200D03*
%TO.N,/L3*%
X158672600Y-53372200D03*
X159160900Y-61896300D03*
X150851400Y-51083200D03*
%TO.N,/L6*%
X150608300Y-62462300D03*
X150668300Y-52375200D03*
%TO.N,/L34*%
X89755400Y-91016500D03*
%TO.N,/L45*%
X87927400Y-107870600D03*
%TD*%
D51*
%TO.N,/L64*%
X102659500Y-130730600D02*
X103811200Y-130730600D01*
X108585000Y-130810000D02*
X107433300Y-130810000D01*
X145540000Y-125835000D02*
X144340000Y-125835000D01*
X147640000Y-128270000D02*
X146563300Y-128270000D01*
X107433300Y-130164100D02*
X107433300Y-130810000D01*
X106919100Y-129649900D02*
X107433300Y-130164100D01*
X104891900Y-129649900D02*
X106919100Y-129649900D01*
X103811200Y-130730600D02*
X104891900Y-129649900D01*
X122673300Y-130164100D02*
X122673300Y-130810000D01*
X122128600Y-129619400D02*
X122673300Y-130164100D01*
X120483300Y-129619400D02*
X122128600Y-129619400D01*
X119896700Y-130206000D02*
X120483300Y-129619400D01*
X119896700Y-130810000D02*
X119896700Y-130206000D01*
X118745000Y-130810000D02*
X119896700Y-130810000D01*
X123825000Y-130810000D02*
X122673300Y-130810000D01*
X144940000Y-127635000D02*
X144340000Y-127035000D01*
X145540000Y-127035000D02*
X144940000Y-127635000D01*
X146498300Y-128335000D02*
X145540000Y-128335000D01*
X146563300Y-128270000D02*
X146498300Y-128335000D01*
X145540000Y-128335000D02*
X144940000Y-127735000D01*
X144340000Y-128335000D02*
X144940000Y-127735000D01*
X144940000Y-127735000D02*
X144940000Y-127635000D01*
%TO.N,/L8*%
X102237600Y-59610600D02*
X101507800Y-59610600D01*
X102237600Y-59610600D02*
X102659500Y-59610600D01*
X107433300Y-59044100D02*
X107433300Y-59690000D01*
X106919100Y-58529900D02*
X107433300Y-59044100D01*
X104891900Y-58529900D02*
X106919100Y-58529900D01*
X103811200Y-59610600D02*
X104891900Y-58529900D01*
X102659500Y-59610600D02*
X103811200Y-59610600D01*
X108585000Y-59690000D02*
X107433300Y-59690000D01*
X97579500Y-59610600D02*
X98731200Y-59610600D01*
X101507800Y-58962800D02*
X101507800Y-59610600D01*
X100965000Y-58420000D02*
X101507800Y-58962800D01*
X99275900Y-58420000D02*
X100965000Y-58420000D01*
X98731200Y-58964700D02*
X99275900Y-58420000D01*
X98731200Y-59610600D02*
X98731200Y-58964700D01*
X152340000Y-53623200D02*
X154421100Y-53623200D01*
X125056100Y-59610600D02*
X124976700Y-59690000D01*
X126365000Y-59610600D02*
X125056100Y-59610600D01*
X123825000Y-59690000D02*
X124976700Y-59690000D01*
X122673300Y-59044100D02*
X122673300Y-59690000D01*
X122128600Y-58499400D02*
X122673300Y-59044100D01*
X120489100Y-58499400D02*
X122128600Y-58499400D01*
X119896700Y-59091800D02*
X120489100Y-58499400D01*
X119896700Y-59690000D02*
X119896700Y-59091800D01*
X118745000Y-59690000D02*
X119896700Y-59690000D01*
X123825000Y-59690000D02*
X122673300Y-59690000D01*
X161769200Y-54741900D02*
X161868900Y-54642200D01*
X159056700Y-54741900D02*
X161769200Y-54741900D01*
X162770600Y-54642200D02*
X161868900Y-54642200D01*
X157590000Y-65300700D02*
X159140600Y-65300700D01*
X156424300Y-64135000D02*
X157590000Y-65300700D01*
X152400000Y-64135000D02*
X156424300Y-64135000D01*
X150793300Y-64071800D02*
X150793300Y-64071700D01*
X152336800Y-64071800D02*
X150793300Y-64071800D01*
X152400000Y-64135000D02*
X152336800Y-64071800D01*
%TO.N,/L29*%
X83803900Y-86530600D02*
X83998300Y-86725000D01*
X78105000Y-86530600D02*
X83803900Y-86530600D01*
X84725000Y-86725000D02*
X83998300Y-86725000D01*
X141506200Y-86446200D02*
X142055000Y-86995000D01*
X135590700Y-86446200D02*
X141506200Y-86446200D01*
X134406900Y-87630000D02*
X135590700Y-86446200D01*
X112276700Y-88781700D02*
X111125000Y-87630000D01*
X115053300Y-88781700D02*
X112276700Y-88781700D01*
X116205000Y-87630000D02*
X115053300Y-88781700D01*
X117356700Y-88781700D02*
X116205000Y-87630000D01*
X119844700Y-88781700D02*
X117356700Y-88781700D01*
X120996400Y-87630000D02*
X119844700Y-88781700D01*
X121285000Y-87630000D02*
X120996400Y-87630000D01*
X130728000Y-88820600D02*
X129537400Y-87630000D01*
X133162000Y-88820600D02*
X130728000Y-88820600D01*
X134352600Y-87630000D02*
X133162000Y-88820600D01*
X134406900Y-87630000D02*
X134352600Y-87630000D01*
X101292800Y-88723900D02*
X100119500Y-87550600D01*
X104951100Y-88723900D02*
X101292800Y-88723900D01*
X106045000Y-87630000D02*
X104951100Y-88723900D01*
X146675000Y-86995000D02*
X146730000Y-86940000D01*
X142055000Y-86995000D02*
X146675000Y-86995000D01*
X166406200Y-84892300D02*
X168514500Y-87000600D01*
X148777700Y-84892300D02*
X166406200Y-84892300D01*
X146730000Y-86940000D02*
X148777700Y-84892300D01*
%TO.N,/L32*%
X136946900Y-90170000D02*
X138098600Y-90170000D01*
X122673300Y-89524100D02*
X122673300Y-90170000D01*
X122128600Y-88979400D02*
X122673300Y-89524100D01*
X120494000Y-88979400D02*
X122128600Y-88979400D01*
X119896700Y-89576700D02*
X120494000Y-88979400D01*
X119896700Y-90170000D02*
X119896700Y-89576700D01*
X118745000Y-90170000D02*
X119896700Y-90170000D01*
X123825000Y-90170000D02*
X122673300Y-90170000D01*
X135795200Y-89524100D02*
X135795200Y-90170000D01*
X135288400Y-89017300D02*
X135795200Y-89524100D01*
X133578100Y-89017300D02*
X135288400Y-89017300D01*
X133229100Y-89366300D02*
X133578100Y-89017300D01*
X133229100Y-90170000D02*
X133229100Y-89366300D01*
X132077400Y-90170000D02*
X133229100Y-90170000D01*
X136946900Y-90170000D02*
X135795200Y-90170000D01*
X150585000Y-90170000D02*
X152575000Y-92160000D01*
X138098600Y-90170000D02*
X150585000Y-90170000D01*
X168514500Y-92080600D02*
X166712800Y-92080600D01*
X157295000Y-92532500D02*
X157295000Y-92795000D01*
X156922500Y-92160000D02*
X157295000Y-92532500D01*
X152575000Y-92160000D02*
X156922500Y-92160000D01*
X166260900Y-92532500D02*
X166712800Y-92080600D01*
X157295000Y-92532500D02*
X166260900Y-92532500D01*
X96388900Y-91281200D02*
X97579500Y-90090600D01*
X91751000Y-91281200D02*
X96388900Y-91281200D01*
X88194800Y-87725000D02*
X91751000Y-91281200D01*
X85725000Y-87725000D02*
X88194800Y-87725000D01*
%TO.N,/L9*%
X120710500Y-62230000D02*
X121285000Y-62230000D01*
X119511100Y-63429400D02*
X120710500Y-62230000D01*
X117404400Y-63429400D02*
X119511100Y-63429400D01*
X116205000Y-62230000D02*
X117404400Y-63429400D01*
X83367700Y-62150600D02*
X84018300Y-61500000D01*
X78105000Y-62150600D02*
X83367700Y-62150600D01*
X84995000Y-61500000D02*
X84018300Y-61500000D01*
X115019000Y-63416000D02*
X116205000Y-62230000D01*
X112311000Y-63416000D02*
X115019000Y-63416000D01*
X111125000Y-62230000D02*
X112311000Y-63416000D01*
X157570600Y-55277200D02*
X156668900Y-55277200D01*
X130689100Y-61078300D02*
X129537400Y-62230000D01*
X133255200Y-61078300D02*
X130689100Y-61078300D01*
X134406900Y-62230000D02*
X133255200Y-61078300D01*
X136523900Y-60960000D02*
X135274200Y-62209700D01*
X138140800Y-60960000D02*
X136523900Y-60960000D01*
X138260600Y-60840200D02*
X138140800Y-60960000D01*
X140446700Y-60840200D02*
X138260600Y-60840200D01*
X146393700Y-54893200D02*
X140446700Y-60840200D01*
X147390000Y-54893200D02*
X146393700Y-54893200D01*
X135253900Y-62230000D02*
X134406900Y-62230000D01*
X135274200Y-62209700D02*
X135253900Y-62230000D01*
X140158300Y-65405000D02*
X147450000Y-65405000D01*
X138527200Y-63773900D02*
X140158300Y-65405000D01*
X138525100Y-63773900D02*
X138527200Y-63773900D01*
X138251200Y-63500000D02*
X138525100Y-63773900D01*
X136564400Y-63500000D02*
X138251200Y-63500000D01*
X135274200Y-62209700D02*
X136564400Y-63500000D01*
X156441600Y-55504500D02*
X156668900Y-55277200D01*
X148001300Y-55504500D02*
X156441600Y-55504500D01*
X147390000Y-54893200D02*
X148001300Y-55504500D01*
X148056500Y-66011500D02*
X147450000Y-65405000D01*
X156931500Y-66011500D02*
X148056500Y-66011500D01*
X157207200Y-65735800D02*
X156931500Y-66011500D01*
X158156700Y-65735800D02*
X157207200Y-65735800D01*
X158280600Y-65859700D02*
X158156700Y-65735800D01*
X159199600Y-65859700D02*
X158280600Y-65859700D01*
X159365600Y-66025700D02*
X159199600Y-65859700D01*
%TO.N,/L65*%
X112276700Y-134501700D02*
X111125000Y-133350000D01*
X115053300Y-134501700D02*
X112276700Y-134501700D01*
X116205000Y-133350000D02*
X115053300Y-134501700D01*
X120998500Y-133350000D02*
X121285000Y-133350000D01*
X119846800Y-134501700D02*
X120998500Y-133350000D01*
X117356700Y-134501700D02*
X119846800Y-134501700D01*
X116205000Y-133350000D02*
X117356700Y-134501700D01*
X121523300Y-133350000D02*
X121285000Y-133350000D01*
X122699600Y-134526300D02*
X121523300Y-133350000D01*
X128361100Y-134526300D02*
X122699600Y-134526300D01*
X129537400Y-133350000D02*
X128361100Y-134526300D01*
X133220900Y-134536000D02*
X134406900Y-133350000D01*
X130723400Y-134536000D02*
X133220900Y-134536000D01*
X129537400Y-133350000D02*
X130723400Y-134536000D01*
X138623300Y-132080000D02*
X141163300Y-129540000D01*
X135676900Y-132080000D02*
X138623300Y-132080000D01*
X134406900Y-133350000D02*
X135676900Y-132080000D01*
X142240000Y-129540000D02*
X141163300Y-129540000D01*
X109973300Y-134501700D02*
X111125000Y-133350000D01*
X107196700Y-134501700D02*
X109973300Y-134501700D01*
X106045000Y-133350000D02*
X107196700Y-134501700D01*
X104938800Y-134456200D02*
X106045000Y-133350000D01*
X101305100Y-134456200D02*
X104938800Y-134456200D01*
X100119500Y-133270600D02*
X101305100Y-134456200D01*
%TO.N,/L20*%
X138408600Y-74620000D02*
X138098600Y-74930000D01*
X147126700Y-74620000D02*
X138408600Y-74620000D01*
X136946900Y-74930000D02*
X138098600Y-74930000D01*
X147126700Y-74620000D02*
X148378400Y-74620000D01*
X102237600Y-74850600D02*
X101507800Y-74850600D01*
X102237600Y-74850600D02*
X102659500Y-74850600D01*
X107433300Y-74284100D02*
X107433300Y-74930000D01*
X106919100Y-73769900D02*
X107433300Y-74284100D01*
X104891900Y-73769900D02*
X106919100Y-73769900D01*
X103811200Y-74850600D02*
X104891900Y-73769900D01*
X102659500Y-74850600D02*
X103811200Y-74850600D01*
X108585000Y-74930000D02*
X107433300Y-74930000D01*
X98155400Y-74850600D02*
X98731200Y-74850600D01*
X98155400Y-74850600D02*
X97579500Y-74850600D01*
X101507800Y-74202800D02*
X101507800Y-74850600D01*
X100965000Y-73660000D02*
X101507800Y-74202800D01*
X99275900Y-73660000D02*
X100965000Y-73660000D01*
X98731200Y-74204700D02*
X99275900Y-73660000D01*
X98731200Y-74850600D02*
X98731200Y-74204700D01*
X125056100Y-74850600D02*
X124976700Y-74930000D01*
X126365000Y-74850600D02*
X125056100Y-74850600D01*
X148378400Y-74620000D02*
X152841700Y-74620000D01*
X123825000Y-74930000D02*
X124976700Y-74930000D01*
X122673300Y-74284100D02*
X122673300Y-74930000D01*
X122128600Y-73739400D02*
X122673300Y-74284100D01*
X120488700Y-73739400D02*
X122128600Y-73739400D01*
X119896700Y-74331400D02*
X120488700Y-73739400D01*
X119896700Y-74930000D02*
X119896700Y-74331400D01*
X118745000Y-74930000D02*
X119896700Y-74930000D01*
X123825000Y-74930000D02*
X122673300Y-74930000D01*
X158292800Y-74775500D02*
X158758300Y-74310000D01*
X158292800Y-75160300D02*
X158292800Y-74775500D01*
X157749900Y-75703200D02*
X158292800Y-75160300D01*
X157646200Y-75703200D02*
X157749900Y-75703200D01*
X159385000Y-74310000D02*
X158758300Y-74310000D01*
%TO.N,/L14*%
X97579500Y-67230600D02*
X98731200Y-67230600D01*
X123825000Y-67310000D02*
X122673300Y-67310000D01*
X118745000Y-67310000D02*
X119896700Y-67310000D01*
X122673300Y-66662200D02*
X122673300Y-67310000D01*
X122130500Y-66119400D02*
X122673300Y-66662200D01*
X120441400Y-66119400D02*
X122130500Y-66119400D01*
X119896700Y-66664100D02*
X120441400Y-66119400D01*
X119896700Y-67310000D02*
X119896700Y-66664100D01*
X102237600Y-67230600D02*
X101507800Y-67230600D01*
X102237600Y-67230600D02*
X102659500Y-67230600D01*
X107433300Y-66664100D02*
X107433300Y-67310000D01*
X106919100Y-66149900D02*
X107433300Y-66664100D01*
X104891900Y-66149900D02*
X106919100Y-66149900D01*
X103811200Y-67230600D02*
X104891900Y-66149900D01*
X102659500Y-67230600D02*
X103811200Y-67230600D01*
X108585000Y-67310000D02*
X107433300Y-67310000D01*
X101507800Y-66582800D02*
X101507800Y-67230600D01*
X100965000Y-66040000D02*
X101507800Y-66582800D01*
X99275900Y-66040000D02*
X100965000Y-66040000D01*
X98731200Y-66584700D02*
X99275900Y-66040000D01*
X98731200Y-67230600D02*
X98731200Y-66584700D01*
X162420600Y-56547200D02*
X161868900Y-56547200D01*
X162420600Y-56547200D02*
X162770600Y-56547200D01*
X162770600Y-56547200D02*
X163672300Y-56547200D01*
X161871400Y-65300700D02*
X161590600Y-65300700D01*
X133229100Y-68124500D02*
X133229100Y-67310000D01*
X133567300Y-68462700D02*
X133229100Y-68124500D01*
X135235700Y-68462700D02*
X133567300Y-68462700D01*
X135795200Y-67903200D02*
X135235700Y-68462700D01*
X135795200Y-67310000D02*
X135795200Y-67903200D01*
X136946900Y-67310000D02*
X135795200Y-67310000D01*
X132077400Y-67310000D02*
X133229100Y-67310000D01*
X163672300Y-63638300D02*
X163672300Y-56547200D01*
X162009900Y-65300700D02*
X163672300Y-63638300D01*
X161871400Y-65300700D02*
X162009900Y-65300700D01*
X148444200Y-67310000D02*
X136946900Y-67310000D01*
X148851700Y-66902500D02*
X148444200Y-67310000D01*
X149601200Y-66902500D02*
X148851700Y-66902500D01*
X150643700Y-67945000D02*
X149601200Y-66902500D01*
X152400000Y-67945000D02*
X150643700Y-67945000D01*
X161362200Y-57053900D02*
X161868900Y-56547200D01*
X161362200Y-57708800D02*
X161362200Y-57053900D01*
X160768300Y-58302700D02*
X161362200Y-57708800D01*
X154130200Y-58302700D02*
X160768300Y-58302700D01*
X153260700Y-57433200D02*
X154130200Y-58302700D01*
X152340000Y-57433200D02*
X153260700Y-57433200D01*
X161871400Y-66521000D02*
X161871400Y-65300700D01*
X160447400Y-67945000D02*
X161871400Y-66521000D01*
X152400000Y-67945000D02*
X160447400Y-67945000D01*
%TO.N,/L57*%
X133216300Y-124380600D02*
X134406900Y-123190000D01*
X130728000Y-124380600D02*
X133216300Y-124380600D01*
X129537400Y-123190000D02*
X130728000Y-124380600D01*
X135676900Y-121920000D02*
X134406900Y-123190000D01*
X137377600Y-121920000D02*
X135676900Y-121920000D01*
X140618300Y-118679300D02*
X137377600Y-121920000D01*
X140618300Y-117475000D02*
X140618300Y-118679300D01*
X142370000Y-117475000D02*
X140618300Y-117475000D01*
X101309300Y-124300400D02*
X100119500Y-123110600D01*
X104934600Y-124300400D02*
X101309300Y-124300400D01*
X106045000Y-123190000D02*
X104934600Y-124300400D01*
X121523300Y-123190000D02*
X121285000Y-123190000D01*
X122713900Y-124380600D02*
X121523300Y-123190000D01*
X128346800Y-124380600D02*
X122713900Y-124380600D01*
X129537400Y-123190000D02*
X128346800Y-124380600D01*
X109973300Y-124341700D02*
X111125000Y-123190000D01*
X107196700Y-124341700D02*
X109973300Y-124341700D01*
X106045000Y-123190000D02*
X107196700Y-124341700D01*
X117356700Y-124341700D02*
X116205000Y-123190000D01*
X119846800Y-124341700D02*
X117356700Y-124341700D01*
X120998500Y-123190000D02*
X119846800Y-124341700D01*
X121285000Y-123190000D02*
X120998500Y-123190000D01*
X115053300Y-124341700D02*
X116205000Y-123190000D01*
X112276700Y-124341700D02*
X115053300Y-124341700D01*
X111125000Y-123190000D02*
X112276700Y-124341700D01*
X91743000Y-123110600D02*
X88109100Y-119476700D01*
X95039500Y-123110600D02*
X91743000Y-123110600D01*
%TO.N,/L54*%
X96427800Y-117384700D02*
X96427800Y-118030600D01*
X95803700Y-116760600D02*
X96427800Y-117384700D01*
X92468800Y-116760600D02*
X95803700Y-116760600D01*
X90643200Y-114935000D02*
X92468800Y-116760600D01*
X85725000Y-114935000D02*
X90643200Y-114935000D01*
X97579500Y-118030600D02*
X96427800Y-118030600D01*
X98731200Y-118676500D02*
X98731200Y-118030600D01*
X99238000Y-119183300D02*
X98731200Y-118676500D01*
X100948300Y-119183300D02*
X99238000Y-119183300D01*
X101507800Y-118623800D02*
X100948300Y-119183300D01*
X101507800Y-118030600D02*
X101507800Y-118623800D01*
X102659500Y-118030600D02*
X101507800Y-118030600D01*
X97579500Y-118030600D02*
X98731200Y-118030600D01*
X122673300Y-117464100D02*
X122673300Y-118110000D01*
X122128600Y-116919400D02*
X122673300Y-117464100D01*
X120489100Y-116919400D02*
X122128600Y-116919400D01*
X119896700Y-117511800D02*
X120489100Y-116919400D01*
X119896700Y-118110000D02*
X119896700Y-117511800D01*
X118745000Y-118110000D02*
X119896700Y-118110000D01*
X123825000Y-118110000D02*
X122673300Y-118110000D01*
%TO.N,/L66*%
X136946900Y-133350000D02*
X138098600Y-133350000D01*
X102659500Y-133270600D02*
X103811200Y-133270600D01*
X108585000Y-133350000D02*
X107433300Y-133350000D01*
X107433300Y-132704100D02*
X107433300Y-133350000D01*
X106919100Y-132189900D02*
X107433300Y-132704100D01*
X104891900Y-132189900D02*
X106919100Y-132189900D01*
X103811200Y-133270600D02*
X104891900Y-132189900D01*
X97579500Y-133270600D02*
X98731200Y-133270600D01*
X102659500Y-133270600D02*
X101507800Y-133270600D01*
X143830000Y-133350000D02*
X147640000Y-129540000D01*
X138098600Y-133350000D02*
X143830000Y-133350000D01*
X122673300Y-132704100D02*
X122673300Y-133350000D01*
X122128600Y-132159400D02*
X122673300Y-132704100D01*
X120488300Y-132159400D02*
X122128600Y-132159400D01*
X119896700Y-132751000D02*
X120488300Y-132159400D01*
X119896700Y-133350000D02*
X119896700Y-132751000D01*
X118745000Y-133350000D02*
X119896700Y-133350000D01*
X123825000Y-133350000D02*
X122673300Y-133350000D01*
X101507800Y-132624700D02*
X101507800Y-133270600D01*
X100963100Y-132080000D02*
X101507800Y-132624700D01*
X99323600Y-132080000D02*
X100963100Y-132080000D01*
X98731200Y-132672400D02*
X99323600Y-132080000D01*
X98731200Y-133270600D02*
X98731200Y-132672400D01*
%TO.N,/L39*%
X133210600Y-101526300D02*
X134406900Y-100330000D01*
X130733700Y-101526300D02*
X133210600Y-101526300D01*
X129537400Y-100330000D02*
X130733700Y-101526300D01*
X92523900Y-100250600D02*
X95039500Y-100250600D01*
X84725000Y-92451700D02*
X92523900Y-100250600D01*
X84725000Y-91725000D02*
X84725000Y-92451700D01*
X110213700Y-100330000D02*
X111125000Y-100330000D01*
X110213700Y-100330100D02*
X110213700Y-100330000D01*
X109062100Y-101481700D02*
X110213700Y-100330100D01*
X108107900Y-101481700D02*
X109062100Y-101481700D01*
X106956200Y-100330000D02*
X108107900Y-101481700D01*
X106045000Y-100330000D02*
X106956200Y-100330000D01*
X112282900Y-101487900D02*
X111125000Y-100330000D01*
X115047100Y-101487900D02*
X112282900Y-101487900D01*
X116205000Y-100330000D02*
X115047100Y-101487900D01*
X104812700Y-99097700D02*
X106045000Y-100330000D01*
X101532600Y-99097700D02*
X104812700Y-99097700D01*
X100379700Y-100250600D02*
X101532600Y-99097700D01*
X100119500Y-100250600D02*
X100379700Y-100250600D01*
X121523300Y-100330000D02*
X121285000Y-100330000D01*
X122713900Y-101520600D02*
X121523300Y-100330000D01*
X128346800Y-101520600D02*
X122713900Y-101520600D01*
X129537400Y-100330000D02*
X128346800Y-101520600D01*
X117395600Y-101520600D02*
X116205000Y-100330000D01*
X119812200Y-101520600D02*
X117395600Y-101520600D01*
X121002800Y-100330000D02*
X119812200Y-101520600D01*
X121285000Y-100330000D02*
X121002800Y-100330000D01*
%TO.N,/L18*%
X136946900Y-72390000D02*
X138098600Y-72390000D01*
X102659500Y-72310600D02*
X103811200Y-72310600D01*
X108585000Y-72390000D02*
X107433300Y-72390000D01*
X107433300Y-71744100D02*
X107433300Y-72390000D01*
X106919100Y-71229900D02*
X107433300Y-71744100D01*
X104891900Y-71229900D02*
X106919100Y-71229900D01*
X103811200Y-72310600D02*
X104891900Y-71229900D01*
X88313600Y-69841900D02*
X87971700Y-69500000D01*
X91975500Y-69841900D02*
X88313600Y-69841900D01*
X93282100Y-71148500D02*
X91975500Y-69841900D01*
X95913500Y-71148500D02*
X93282100Y-71148500D01*
X96427800Y-71662800D02*
X95913500Y-71148500D01*
X96427800Y-72310600D02*
X96427800Y-71662800D01*
X97579500Y-72310600D02*
X96427800Y-72310600D01*
X86995000Y-69500000D02*
X87971700Y-69500000D01*
X125056100Y-72310600D02*
X124976700Y-72390000D01*
X126365000Y-72310600D02*
X125056100Y-72310600D01*
X123825000Y-72390000D02*
X124976700Y-72390000D01*
X122673300Y-71744100D02*
X122673300Y-72390000D01*
X122128600Y-71199400D02*
X122673300Y-71744100D01*
X120494000Y-71199400D02*
X122128600Y-71199400D01*
X119896700Y-71796700D02*
X120494000Y-71199400D01*
X119896700Y-72390000D02*
X119896700Y-71796700D01*
X118745000Y-72390000D02*
X119896700Y-72390000D01*
X123825000Y-72390000D02*
X122673300Y-72390000D01*
X158608300Y-73510000D02*
X158758300Y-73660000D01*
X158314000Y-73510000D02*
X158608300Y-73510000D01*
X159385000Y-73660000D02*
X158758300Y-73660000D01*
X138413600Y-72075000D02*
X147126700Y-72075000D01*
X138098600Y-72390000D02*
X138413600Y-72075000D01*
X147126700Y-72075000D02*
X152841700Y-72075000D01*
%TO.N,/L33*%
X82092300Y-88725000D02*
X84725000Y-88725000D01*
X79206700Y-91610600D02*
X82092300Y-88725000D01*
X78105000Y-91610600D02*
X79206700Y-91610600D01*
X130728000Y-93900600D02*
X129537400Y-92710000D01*
X133061400Y-93900600D02*
X130728000Y-93900600D01*
X134252000Y-92710000D02*
X133061400Y-93900600D01*
X134406900Y-92710000D02*
X134252000Y-92710000D01*
X104775000Y-91440000D02*
X106045000Y-92710000D01*
X101310100Y-91440000D02*
X104775000Y-91440000D01*
X100119500Y-92630600D02*
X101310100Y-91440000D01*
X112276700Y-93861700D02*
X111125000Y-92710000D01*
X115053300Y-93861700D02*
X112276700Y-93861700D01*
X116205000Y-92710000D02*
X115053300Y-93861700D01*
X117356700Y-93861700D02*
X116205000Y-92710000D01*
X119844700Y-93861700D02*
X117356700Y-93861700D01*
X120996400Y-92710000D02*
X119844700Y-93861700D01*
X121285000Y-92710000D02*
X120996400Y-92710000D01*
X107196700Y-93861700D02*
X106045000Y-92710000D01*
X109973300Y-93861700D02*
X107196700Y-93861700D01*
X111125000Y-92710000D02*
X109973300Y-93861700D01*
X98929700Y-91440800D02*
X100119500Y-92630600D01*
X96973500Y-91440800D02*
X98929700Y-91440800D01*
X95783700Y-92630600D02*
X96973500Y-91440800D01*
X95039500Y-92630600D02*
X95783700Y-92630600D01*
%TO.N,/L63*%
X135676900Y-129540000D02*
X134406900Y-130810000D01*
X138144600Y-129540000D02*
X135676900Y-129540000D01*
X139414600Y-128270000D02*
X138144600Y-129540000D01*
X142240000Y-128270000D02*
X139414600Y-128270000D01*
X133216300Y-132000600D02*
X134406900Y-130810000D01*
X130728000Y-132000600D02*
X133216300Y-132000600D01*
X129537400Y-130810000D02*
X130728000Y-132000600D01*
X96230100Y-131921200D02*
X95039500Y-130730600D01*
X98666200Y-131921200D02*
X96230100Y-131921200D01*
X99856800Y-130730600D02*
X98666200Y-131921200D01*
X100119500Y-130730600D02*
X99856800Y-130730600D01*
X117391000Y-131996000D02*
X116205000Y-130810000D01*
X119810400Y-131996000D02*
X117391000Y-131996000D01*
X120996400Y-130810000D02*
X119810400Y-131996000D01*
X121285000Y-130810000D02*
X120996400Y-130810000D01*
X112310400Y-131995400D02*
X111125000Y-130810000D01*
X115019600Y-131995400D02*
X112310400Y-131995400D01*
X116205000Y-130810000D02*
X115019600Y-131995400D01*
X100560100Y-130730600D02*
X100119500Y-130730600D01*
X101749900Y-131920400D02*
X100560100Y-130730600D01*
X104046100Y-131920400D02*
X101749900Y-131920400D01*
X105156500Y-130810000D02*
X104046100Y-131920400D01*
X106045000Y-130810000D02*
X105156500Y-130810000D01*
%TO.N,/L4*%
X136946900Y-54610000D02*
X138098600Y-54610000D01*
X162770600Y-53372200D02*
X161868900Y-53372200D01*
X101507800Y-53884700D02*
X101507800Y-54530600D01*
X100963100Y-53340000D02*
X101507800Y-53884700D01*
X99274000Y-53340000D02*
X100963100Y-53340000D01*
X98731200Y-53882800D02*
X99274000Y-53340000D01*
X98731200Y-54530600D02*
X98731200Y-53882800D01*
X97579500Y-54530600D02*
X98731200Y-54530600D01*
X102659500Y-54530600D02*
X101507800Y-54530600D01*
X112513300Y-53964100D02*
X112513300Y-54610000D01*
X111968600Y-53419400D02*
X112513300Y-53964100D01*
X110279500Y-53419400D02*
X111968600Y-53419400D01*
X109736700Y-53962200D02*
X110279500Y-53419400D01*
X109736700Y-54610000D02*
X109736700Y-53962200D01*
X108585000Y-54610000D02*
X109736700Y-54610000D01*
X113665000Y-54610000D02*
X112513300Y-54610000D01*
X125056100Y-54530600D02*
X124976700Y-54610000D01*
X126365000Y-54530600D02*
X125056100Y-54530600D01*
X123825000Y-54610000D02*
X124976700Y-54610000D01*
X123825000Y-54610000D02*
X122673300Y-54610000D01*
X159579900Y-51083200D02*
X161868900Y-53372200D01*
X152340000Y-51083200D02*
X159579900Y-51083200D01*
X151704900Y-51718300D02*
X152340000Y-51083200D01*
X146310900Y-51718300D02*
X151704900Y-51718300D01*
X143419300Y-54609900D02*
X146310900Y-51718300D01*
X138098600Y-54609900D02*
X143419300Y-54609900D01*
X138098600Y-54610000D02*
X138098600Y-54609900D01*
X157883300Y-61595000D02*
X152400000Y-61595000D01*
X159045500Y-62757200D02*
X157883300Y-61595000D01*
X159375100Y-62757200D02*
X159045500Y-62757200D01*
X159865600Y-63247700D02*
X159375100Y-62757200D01*
X159865600Y-63575700D02*
X159865600Y-63247700D01*
X113665000Y-54610000D02*
X114816700Y-54610000D01*
X114816700Y-53964100D02*
X114816700Y-54610000D01*
X115341200Y-53439600D02*
X114816700Y-53964100D01*
X117996500Y-53439600D02*
X115341200Y-53439600D01*
X118745000Y-54188100D02*
X117996500Y-53439600D01*
X118745000Y-54610000D02*
X118745000Y-54188100D01*
X122673300Y-53964100D02*
X122673300Y-54610000D01*
X122128600Y-53419400D02*
X122673300Y-53964100D01*
X119513700Y-53419400D02*
X122128600Y-53419400D01*
X118745000Y-54188100D02*
X119513700Y-53419400D01*
X149469000Y-61458900D02*
X149334500Y-61593400D01*
X152263900Y-61458900D02*
X149469000Y-61458900D01*
X152400000Y-61595000D02*
X152263900Y-61458900D01*
%TO.N,/L41*%
X129546900Y-102870000D02*
X129537400Y-102870000D01*
X130737500Y-104060600D02*
X129546900Y-102870000D01*
X133162000Y-104060600D02*
X130737500Y-104060600D01*
X134352600Y-102870000D02*
X133162000Y-104060600D01*
X134406900Y-102870000D02*
X134352600Y-102870000D01*
X111125000Y-102870000D02*
X111125000Y-102885400D01*
X106956200Y-102870000D02*
X106045000Y-102870000D01*
X108107900Y-104021700D02*
X106956200Y-102870000D01*
X109988700Y-104021700D02*
X108107900Y-104021700D01*
X111125000Y-102885400D02*
X109988700Y-104021700D01*
X115019300Y-104055700D02*
X116205000Y-102870000D01*
X112295300Y-104055700D02*
X115019300Y-104055700D01*
X111125000Y-102885400D02*
X112295300Y-104055700D01*
X117404400Y-104069400D02*
X116205000Y-102870000D01*
X119499200Y-104069400D02*
X117404400Y-104069400D01*
X120698600Y-102870000D02*
X119499200Y-104069400D01*
X121285000Y-102870000D02*
X120698600Y-102870000D01*
X96229300Y-101600800D02*
X95039500Y-102790600D01*
X98489100Y-101600800D02*
X96229300Y-101600800D01*
X99678900Y-102790600D02*
X98489100Y-101600800D01*
X100119500Y-102790600D02*
X99678900Y-102790600D01*
X88979400Y-102790600D02*
X84455000Y-107315000D01*
X95039500Y-102790600D02*
X88979400Y-102790600D01*
%TO.N,/L62*%
X119896700Y-127624100D02*
X119896700Y-128270000D01*
X120441400Y-127079400D02*
X119896700Y-127624100D01*
X122130500Y-127079400D02*
X120441400Y-127079400D01*
X122673300Y-127622200D02*
X122130500Y-127079400D01*
X122673300Y-128270000D02*
X122673300Y-127622200D01*
X123825000Y-128270000D02*
X122673300Y-128270000D01*
X118745000Y-128270000D02*
X119896700Y-128270000D01*
X147640000Y-127000000D02*
X148716700Y-127000000D01*
X148805400Y-126911300D02*
X148716700Y-127000000D01*
X148931000Y-126911300D02*
X148805400Y-126911300D01*
%TO.N,/L56*%
X97579500Y-120570600D02*
X96427800Y-120570600D01*
X98731200Y-121216500D02*
X98731200Y-120570600D01*
X99275900Y-121761200D02*
X98731200Y-121216500D01*
X100965000Y-121761200D02*
X99275900Y-121761200D01*
X101507800Y-121218400D02*
X100965000Y-121761200D01*
X101507800Y-120570600D02*
X101507800Y-121218400D01*
X102659500Y-120570600D02*
X101507800Y-120570600D01*
X97579500Y-120570600D02*
X98731200Y-120570600D01*
X123825000Y-120650000D02*
X122673300Y-120650000D01*
X89516200Y-116205000D02*
X85725000Y-116205000D01*
X92610300Y-119299100D02*
X89516200Y-116205000D01*
X95802200Y-119299100D02*
X92610300Y-119299100D01*
X96427800Y-119924700D02*
X95802200Y-119299100D01*
X96427800Y-120570600D02*
X96427800Y-119924700D01*
X118745000Y-120650000D02*
X119730400Y-120650000D01*
X119730400Y-120178900D02*
X119730400Y-120650000D01*
X120449900Y-119459400D02*
X119730400Y-120178900D01*
X122130500Y-119459400D02*
X120449900Y-119459400D01*
X122673300Y-120002200D02*
X122130500Y-119459400D01*
X122673300Y-120650000D02*
X122673300Y-120002200D01*
%TO.N,/L31*%
X80552300Y-87725000D02*
X84725000Y-87725000D01*
X79206700Y-89070600D02*
X80552300Y-87725000D01*
X78105000Y-89070600D02*
X79206700Y-89070600D01*
X142690000Y-92160000D02*
X146775000Y-92160000D01*
X142055000Y-92795000D02*
X142690000Y-92160000D01*
X155030000Y-105320000D02*
X155030000Y-100330000D01*
X154940000Y-105410000D02*
X155030000Y-105320000D01*
X140700000Y-91440000D02*
X142055000Y-92795000D01*
X135676900Y-91440000D02*
X140700000Y-91440000D01*
X134406900Y-90170000D02*
X135676900Y-91440000D01*
X122475600Y-91360600D02*
X121285000Y-90170000D01*
X128292500Y-91360600D02*
X122475600Y-91360600D01*
X129483100Y-90170000D02*
X128292500Y-91360600D01*
X129537400Y-90170000D02*
X129483100Y-90170000D01*
X109936700Y-88981700D02*
X111125000Y-90170000D01*
X107233300Y-88981700D02*
X109936700Y-88981700D01*
X106045000Y-90170000D02*
X107233300Y-88981700D01*
X115053300Y-91321700D02*
X116205000Y-90170000D01*
X112276700Y-91321700D02*
X115053300Y-91321700D01*
X111125000Y-90170000D02*
X112276700Y-91321700D01*
X117356700Y-91321700D02*
X116205000Y-90170000D01*
X120133300Y-91321700D02*
X117356700Y-91321700D01*
X121285000Y-90170000D02*
X120133300Y-91321700D01*
X155030000Y-99942100D02*
X155030000Y-100330000D01*
X151751300Y-96663400D02*
X155030000Y-99942100D01*
X151278400Y-96663400D02*
X151751300Y-96663400D01*
X146775000Y-92160000D02*
X151278400Y-96663400D01*
X95943000Y-90090600D02*
X95039500Y-90090600D01*
X97131000Y-88902600D02*
X95943000Y-90090600D01*
X98931500Y-88902600D02*
X97131000Y-88902600D01*
X100119500Y-90090600D02*
X98931500Y-88902600D01*
%TO.N,/L48*%
X122673300Y-109844100D02*
X122673300Y-110490000D01*
X122128600Y-109299400D02*
X122673300Y-109844100D01*
X120489100Y-109299400D02*
X122128600Y-109299400D01*
X119896700Y-109891800D02*
X120489100Y-109299400D01*
X119896700Y-110490000D02*
X119896700Y-109891800D01*
X118745000Y-110490000D02*
X119896700Y-110490000D01*
X123825000Y-110490000D02*
X122673300Y-110490000D01*
X126167300Y-109299400D02*
X124976700Y-110490000D01*
X130382900Y-109299400D02*
X126167300Y-109299400D01*
X130925700Y-109842200D02*
X130382900Y-109299400D01*
X130925700Y-110490000D02*
X130925700Y-109842200D01*
X132077400Y-110490000D02*
X130925700Y-110490000D01*
X123825000Y-110490000D02*
X124976700Y-110490000D01*
X105043300Y-111642700D02*
X103811200Y-110410600D01*
X106873800Y-111642700D02*
X105043300Y-111642700D01*
X107433300Y-111083200D02*
X106873800Y-111642700D01*
X107433300Y-110490000D02*
X107433300Y-111083200D01*
X108585000Y-110490000D02*
X107433300Y-110490000D01*
X102659500Y-110410600D02*
X103811200Y-110410600D01*
X102659500Y-110410600D02*
X101507800Y-110410600D01*
X85725000Y-111125000D02*
X86526700Y-111125000D01*
X86996500Y-111594800D02*
X86526700Y-111125000D01*
X96817200Y-111594800D02*
X86996500Y-111594800D01*
X97579500Y-110832500D02*
X96817200Y-111594800D01*
X97579500Y-110410600D02*
X97579500Y-110832500D01*
X101507800Y-111056500D02*
X101507800Y-110410600D01*
X100963100Y-111601200D02*
X101507800Y-111056500D01*
X98348200Y-111601200D02*
X100963100Y-111601200D01*
X97579500Y-110832500D02*
X98348200Y-111601200D01*
%TO.N,/L69*%
X96219000Y-139530100D02*
X95039500Y-138350600D01*
X98940000Y-139530100D02*
X96219000Y-139530100D01*
X100119500Y-138350600D02*
X98940000Y-139530100D01*
X104957400Y-139517600D02*
X106045000Y-138430000D01*
X101286500Y-139517600D02*
X104957400Y-139517600D01*
X100119500Y-138350600D02*
X101286500Y-139517600D01*
X117356700Y-139581700D02*
X116205000Y-138430000D01*
X120133300Y-139581700D02*
X117356700Y-139581700D01*
X121285000Y-138430000D02*
X120133300Y-139581700D01*
X130706500Y-139599100D02*
X129537400Y-138430000D01*
X133237800Y-139599100D02*
X130706500Y-139599100D01*
X134406900Y-138430000D02*
X133237800Y-139599100D01*
X135676900Y-137160000D02*
X134406900Y-138430000D01*
X142325000Y-137160000D02*
X135676900Y-137160000D01*
X144135000Y-135350000D02*
X142325000Y-137160000D01*
X149265000Y-135350000D02*
X144135000Y-135350000D01*
%TO.N,/L38*%
X85725000Y-90725000D02*
X86451700Y-90725000D01*
X97579500Y-97710600D02*
X96427800Y-97710600D01*
X153580000Y-100330000D02*
X152778300Y-100330000D01*
X98731200Y-98356500D02*
X98731200Y-97710600D01*
X99238000Y-98863300D02*
X98731200Y-98356500D01*
X100948300Y-98863300D02*
X99238000Y-98863300D01*
X101507800Y-98303800D02*
X100948300Y-98863300D01*
X101507800Y-97710600D02*
X101507800Y-98303800D01*
X102659500Y-97710600D02*
X101507800Y-97710600D01*
X97579500Y-97710600D02*
X98731200Y-97710600D01*
X119896700Y-97144100D02*
X119896700Y-97790000D01*
X120441400Y-96599400D02*
X119896700Y-97144100D01*
X122130500Y-96599400D02*
X120441400Y-96599400D01*
X122673300Y-97142200D02*
X122130500Y-96599400D01*
X122673300Y-97790000D02*
X122673300Y-97142200D01*
X123825000Y-97790000D02*
X122673300Y-97790000D01*
X118745000Y-97790000D02*
X119896700Y-97790000D01*
X126167300Y-98980600D02*
X124976700Y-97790000D01*
X130382900Y-98980600D02*
X126167300Y-98980600D01*
X130925700Y-98437800D02*
X130382900Y-98980600D01*
X130925700Y-97790000D02*
X130925700Y-98437800D01*
X132077400Y-97790000D02*
X130925700Y-97790000D01*
X123825000Y-97790000D02*
X124976700Y-97790000D01*
X92077200Y-96350500D02*
X86451700Y-90725000D01*
X95713600Y-96350500D02*
X92077200Y-96350500D01*
X96427800Y-97064700D02*
X95713600Y-96350500D01*
X96427800Y-97710600D02*
X96427800Y-97064700D01*
X152303900Y-100804400D02*
X141865500Y-100804400D01*
X152778300Y-100330000D02*
X152303900Y-100804400D01*
X140563800Y-100255200D02*
X138098600Y-97790000D01*
X140563800Y-100804400D02*
X140563800Y-100255200D01*
X136946900Y-97790000D02*
X138098600Y-97790000D01*
X141865500Y-100804400D02*
X140563800Y-100804400D01*
%TO.N,/L22*%
X147126700Y-76520000D02*
X152841700Y-76520000D01*
X159385000Y-74960000D02*
X158758300Y-74960000D01*
X125056100Y-77390600D02*
X124976700Y-77470000D01*
X126365000Y-77390600D02*
X125056100Y-77390600D01*
X123825000Y-77470000D02*
X124976700Y-77470000D01*
X122673300Y-76824100D02*
X122673300Y-77470000D01*
X122128600Y-76279400D02*
X122673300Y-76824100D01*
X120439500Y-76279400D02*
X122128600Y-76279400D01*
X119896700Y-76822200D02*
X120439500Y-76279400D01*
X119896700Y-77470000D02*
X119896700Y-76822200D01*
X118745000Y-77470000D02*
X119896700Y-77470000D01*
X123825000Y-77470000D02*
X122673300Y-77470000D01*
X145393400Y-77001600D02*
X145875000Y-76520000D01*
X138567000Y-77001600D02*
X145393400Y-77001600D01*
X138098600Y-77470000D02*
X138567000Y-77001600D01*
X136946900Y-77470000D02*
X138098600Y-77470000D01*
X147126700Y-76520000D02*
X145875000Y-76520000D01*
X152841700Y-76520000D02*
X154093400Y-76520000D01*
X158758300Y-75442000D02*
X158758300Y-74960000D01*
X157680300Y-76520000D02*
X158758300Y-75442000D01*
X154093400Y-76520000D02*
X157680300Y-76520000D01*
%TO.N,/L50*%
X98731200Y-113596500D02*
X98731200Y-112950600D01*
X99238000Y-114103300D02*
X98731200Y-113596500D01*
X100948300Y-114103300D02*
X99238000Y-114103300D01*
X101507800Y-113543800D02*
X100948300Y-114103300D01*
X101507800Y-112950600D02*
X101507800Y-113543800D01*
X102659500Y-112950600D02*
X101507800Y-112950600D01*
X97579500Y-112950600D02*
X98731200Y-112950600D01*
X122673300Y-112384100D02*
X122673300Y-113030000D01*
X122128600Y-111839400D02*
X122673300Y-112384100D01*
X120489100Y-111839400D02*
X122128600Y-111839400D01*
X119896700Y-112431800D02*
X120489100Y-111839400D01*
X119896700Y-113030000D02*
X119896700Y-112431800D01*
X118745000Y-113030000D02*
X119896700Y-113030000D01*
X123825000Y-113030000D02*
X122673300Y-113030000D01*
X105081200Y-114220600D02*
X103811200Y-112950600D01*
X106890500Y-114220600D02*
X105081200Y-114220600D01*
X107433300Y-113677800D02*
X106890500Y-114220600D01*
X107433300Y-113030000D02*
X107433300Y-113677800D01*
X108585000Y-113030000D02*
X107433300Y-113030000D01*
X102659500Y-112950600D02*
X103811200Y-112950600D01*
X135795200Y-112384100D02*
X135795200Y-113030000D01*
X135288400Y-111877300D02*
X135795200Y-112384100D01*
X133578100Y-111877300D02*
X135288400Y-111877300D01*
X133229100Y-112226300D02*
X133578100Y-111877300D01*
X133229100Y-113030000D02*
X133229100Y-112226300D01*
X132077400Y-113030000D02*
X133229100Y-113030000D01*
X136946900Y-113030000D02*
X135795200Y-113030000D01*
%TO.N,/L5*%
X83588900Y-57070600D02*
X84018300Y-57500000D01*
X78105000Y-57070600D02*
X83588900Y-57070600D01*
X84995000Y-57500000D02*
X84018300Y-57500000D01*
X96191200Y-55918900D02*
X95039500Y-57070600D01*
X98056600Y-55918900D02*
X96191200Y-55918900D01*
X99208200Y-57070500D02*
X98056600Y-55918900D01*
X99208200Y-57070600D02*
X99208200Y-57070500D01*
X100119500Y-57070600D02*
X99208200Y-57070600D01*
X157570600Y-54007200D02*
X156668900Y-54007200D01*
X105156500Y-57150000D02*
X106045000Y-57150000D01*
X104046100Y-58260400D02*
X105156500Y-57150000D01*
X101749900Y-58260400D02*
X104046100Y-58260400D01*
X100560100Y-57070600D02*
X101749900Y-58260400D01*
X100119500Y-57070600D02*
X100560100Y-57070600D01*
X147390000Y-52353200D02*
X147390000Y-52675800D01*
X109939000Y-58336000D02*
X111125000Y-57150000D01*
X108019100Y-58336000D02*
X109939000Y-58336000D01*
X106833100Y-57150000D02*
X108019100Y-58336000D01*
X106045000Y-57150000D02*
X106833100Y-57150000D01*
X112276700Y-55998300D02*
X111125000Y-57150000D01*
X115053300Y-55998300D02*
X112276700Y-55998300D01*
X116205000Y-57150000D02*
X115053300Y-55998300D01*
X135795200Y-55761700D02*
X134406900Y-57150000D01*
X143372300Y-55761700D02*
X135795200Y-55761700D01*
X146458200Y-52675800D02*
X143372300Y-55761700D01*
X147390000Y-52675800D02*
X146458200Y-52675800D01*
X130695300Y-55992100D02*
X129537400Y-57150000D01*
X133249000Y-55992100D02*
X130695300Y-55992100D01*
X134406900Y-57150000D02*
X133249000Y-55992100D01*
X156310600Y-54007200D02*
X156668900Y-54007200D01*
X155301900Y-52998500D02*
X156310600Y-54007200D01*
X147712700Y-52998500D02*
X155301900Y-52998500D01*
X147390000Y-52675800D02*
X147712700Y-52998500D01*
X146963500Y-62865000D02*
X147450000Y-62865000D01*
X145908500Y-63920000D02*
X146963500Y-62865000D01*
X145324000Y-63920000D02*
X145908500Y-63920000D01*
X145201700Y-64042300D02*
X145324000Y-63920000D01*
X143198100Y-64042300D02*
X145201700Y-64042300D01*
X140644500Y-61488700D02*
X143198100Y-64042300D01*
X148064900Y-62250100D02*
X147450000Y-62865000D01*
X149969800Y-62250100D02*
X148064900Y-62250100D01*
X149969800Y-62250000D02*
X149969800Y-62250100D01*
X150359200Y-61860600D02*
X149969800Y-62250000D01*
X150857500Y-61860600D02*
X150359200Y-61860600D01*
X151245500Y-62248600D02*
X150857500Y-61860600D01*
X157733500Y-62248600D02*
X151245500Y-62248600D01*
X159060600Y-63575700D02*
X157733500Y-62248600D01*
X159365600Y-63575700D02*
X159060600Y-63575700D01*
%TO.N,/L28*%
X85725000Y-85725000D02*
X86451700Y-85725000D01*
X102659500Y-85010600D02*
X103811200Y-85010600D01*
X108585000Y-85090000D02*
X107433300Y-85090000D01*
X107433300Y-84444100D02*
X107433300Y-85090000D01*
X106919100Y-83929900D02*
X107433300Y-84444100D01*
X104891900Y-83929900D02*
X106919100Y-83929900D01*
X103811200Y-85010600D02*
X104891900Y-83929900D01*
X159385000Y-81310000D02*
X158758300Y-81310000D01*
X125056100Y-85010600D02*
X124976700Y-85090000D01*
X126365000Y-85010600D02*
X125056100Y-85010600D01*
X123825000Y-85090000D02*
X124976700Y-85090000D01*
X122673300Y-84444100D02*
X122673300Y-85090000D01*
X122128600Y-83899400D02*
X122673300Y-84444100D01*
X120439500Y-83899400D02*
X122128600Y-83899400D01*
X119896700Y-84442200D02*
X120439500Y-83899400D01*
X119896700Y-85090000D02*
X119896700Y-84442200D01*
X118745000Y-85090000D02*
X119896700Y-85090000D01*
X123825000Y-85090000D02*
X122673300Y-85090000D01*
X148454800Y-83815000D02*
X148376900Y-83737100D01*
X152818100Y-83815000D02*
X148454800Y-83815000D01*
X147125200Y-83737100D02*
X148376900Y-83737100D01*
X138749800Y-84438800D02*
X147125200Y-84438800D01*
X138098600Y-85090000D02*
X138749800Y-84438800D01*
X136946900Y-85090000D02*
X138098600Y-85090000D01*
X147125200Y-83737100D02*
X147125200Y-84438800D01*
X152818100Y-83815000D02*
X154069800Y-83815000D01*
X97579500Y-85010600D02*
X96594100Y-85010600D01*
X96594100Y-85481700D02*
X96594100Y-85010600D01*
X95864700Y-86211100D02*
X96594100Y-85481700D01*
X86937800Y-86211100D02*
X95864700Y-86211100D01*
X86451700Y-85725000D02*
X86937800Y-86211100D01*
X154069800Y-83814900D02*
X154069800Y-83815000D01*
X156559900Y-83814900D02*
X154069800Y-83814900D01*
X158758300Y-81616500D02*
X156559900Y-83814900D01*
X158758300Y-81310000D02*
X158758300Y-81616500D01*
%TO.N,/L42*%
X85725000Y-107315000D02*
X86526700Y-107315000D01*
X97579500Y-102790600D02*
X96427800Y-102790600D01*
X96427800Y-103436600D02*
X96427800Y-102790600D01*
X95754900Y-104109500D02*
X96427800Y-103436600D01*
X89732200Y-104109500D02*
X95754900Y-104109500D01*
X86526700Y-107315000D02*
X89732200Y-104109500D01*
X123825000Y-102870000D02*
X122673300Y-102870000D01*
X104890800Y-101711000D02*
X103811200Y-102790600D01*
X107426000Y-101711000D02*
X104890800Y-101711000D01*
X108585000Y-102870000D02*
X107426000Y-101711000D01*
X102659500Y-102790600D02*
X103811200Y-102790600D01*
X118745000Y-102870000D02*
X119730400Y-102870000D01*
X119730400Y-102399100D02*
X119730400Y-102870000D01*
X120450100Y-101679400D02*
X119730400Y-102399100D01*
X122130500Y-101679400D02*
X120450100Y-101679400D01*
X122673300Y-102222200D02*
X122130500Y-101679400D01*
X122673300Y-102870000D02*
X122673300Y-102222200D01*
%TO.N,/L7*%
X85971700Y-59095200D02*
X85971700Y-59500000D01*
X86566900Y-58500000D02*
X85971700Y-59095200D01*
X93928900Y-58500000D02*
X86566900Y-58500000D01*
X95039500Y-59610600D02*
X93928900Y-58500000D01*
X84995000Y-59500000D02*
X85971700Y-59500000D01*
X104944900Y-60790100D02*
X106045000Y-59690000D01*
X101299000Y-60790100D02*
X104944900Y-60790100D01*
X100119500Y-59610600D02*
X101299000Y-60790100D01*
X109973300Y-60841700D02*
X111125000Y-59690000D01*
X107196700Y-60841700D02*
X109973300Y-60841700D01*
X106045000Y-59690000D02*
X107196700Y-60841700D01*
X112276700Y-60841700D02*
X111125000Y-59690000D01*
X115053300Y-60841700D02*
X112276700Y-60841700D01*
X116205000Y-59690000D02*
X115053300Y-60841700D01*
X117356700Y-60841700D02*
X116205000Y-59690000D01*
X119844700Y-60841700D02*
X117356700Y-60841700D01*
X120996400Y-59690000D02*
X119844700Y-60841700D01*
X121285000Y-59690000D02*
X120996400Y-59690000D01*
X130689100Y-58538300D02*
X129537400Y-59690000D01*
X133255200Y-58538300D02*
X130689100Y-58538300D01*
X134406900Y-59690000D02*
X133255200Y-58538300D01*
X146215000Y-53623200D02*
X147390000Y-53623200D01*
X141461700Y-58376500D02*
X146215000Y-53623200D01*
X135720300Y-58376500D02*
X141461700Y-58376500D01*
X135720300Y-58376600D02*
X135720300Y-58376500D01*
X134406900Y-59690000D02*
X135720300Y-58376600D01*
X155234900Y-54642200D02*
X157570600Y-54642200D01*
X154878700Y-54286000D02*
X155234900Y-54642200D01*
X148052800Y-54286000D02*
X154878700Y-54286000D01*
X147390000Y-53623200D02*
X148052800Y-54286000D01*
X83907700Y-59610600D02*
X84018300Y-59500000D01*
X78105000Y-59610600D02*
X83907700Y-59610600D01*
X84995000Y-59500000D02*
X84018300Y-59500000D01*
X158070800Y-64800700D02*
X159140600Y-64800700D01*
X156740000Y-63469900D02*
X158070800Y-64800700D01*
X148115100Y-63469900D02*
X156740000Y-63469900D01*
X147450000Y-64135000D02*
X148115100Y-63469900D01*
X147263300Y-64321700D02*
X147450000Y-64135000D01*
X145490300Y-64321700D02*
X147263300Y-64321700D01*
X145368000Y-64444000D02*
X145490300Y-64321700D01*
X141206900Y-64444000D02*
X145368000Y-64444000D01*
X138356200Y-61593300D02*
X141206900Y-64444000D01*
%TO.N,/L44*%
X146305500Y-105259400D02*
X145353800Y-105259400D01*
X147407800Y-105410000D02*
X147257200Y-105259400D01*
X153490000Y-105410000D02*
X147407800Y-105410000D01*
X146305500Y-105259400D02*
X147257200Y-105259400D01*
X145203200Y-105410000D02*
X136946900Y-105410000D01*
X145353800Y-105259400D02*
X145203200Y-105410000D01*
X85725000Y-108585000D02*
X86526700Y-108585000D01*
X97579500Y-105330600D02*
X96427800Y-105330600D01*
X135795200Y-104764100D02*
X135795200Y-105410000D01*
X135288400Y-104257300D02*
X135795200Y-104764100D01*
X133578100Y-104257300D02*
X135288400Y-104257300D01*
X133229100Y-104606300D02*
X133578100Y-104257300D01*
X133229100Y-105410000D02*
X133229100Y-104606300D01*
X136946900Y-105410000D02*
X135795200Y-105410000D01*
X107433300Y-104764100D02*
X107433300Y-105410000D01*
X106919100Y-104249900D02*
X107433300Y-104764100D01*
X104891900Y-104249900D02*
X106919100Y-104249900D01*
X103811200Y-105330600D02*
X104891900Y-104249900D01*
X102659500Y-105330600D02*
X103811200Y-105330600D01*
X108585000Y-105410000D02*
X107433300Y-105410000D01*
X132653300Y-105410000D02*
X133229100Y-105410000D01*
X132653300Y-105410000D02*
X132077400Y-105410000D01*
X126129400Y-104257300D02*
X124976700Y-105410000D01*
X130366200Y-104257300D02*
X126129400Y-104257300D01*
X130925700Y-104816800D02*
X130366200Y-104257300D01*
X130925700Y-105410000D02*
X130925700Y-104816800D01*
X132077400Y-105410000D02*
X130925700Y-105410000D01*
X123825000Y-105410000D02*
X124976700Y-105410000D01*
X122673300Y-104764100D02*
X122673300Y-105410000D01*
X122128600Y-104219400D02*
X122673300Y-104764100D01*
X120489100Y-104219400D02*
X122128600Y-104219400D01*
X119896700Y-104811800D02*
X120489100Y-104219400D01*
X119896700Y-105410000D02*
X119896700Y-104811800D01*
X118745000Y-105410000D02*
X119896700Y-105410000D01*
X123825000Y-105410000D02*
X122673300Y-105410000D01*
X86526700Y-108317900D02*
X86526700Y-108585000D01*
X88244000Y-106600600D02*
X86526700Y-108317900D01*
X95803700Y-106600600D02*
X88244000Y-106600600D01*
X96427800Y-105976500D02*
X95803700Y-106600600D01*
X96427800Y-105330600D02*
X96427800Y-105976500D01*
%TO.N,/L35*%
X83632300Y-89725000D02*
X79206700Y-94150600D01*
X84725000Y-89725000D02*
X83632300Y-89725000D01*
X78105000Y-94150600D02*
X79206700Y-94150600D01*
X133219600Y-96437300D02*
X134406900Y-95250000D01*
X130724700Y-96437300D02*
X133219600Y-96437300D01*
X129537400Y-95250000D02*
X130724700Y-96437300D01*
X107235600Y-96440600D02*
X111125000Y-96440600D01*
X106045000Y-95250000D02*
X107235600Y-96440600D01*
X111125000Y-96440600D02*
X111125000Y-95250000D01*
X121523300Y-95250000D02*
X121285000Y-95250000D01*
X122713900Y-96440600D02*
X121523300Y-95250000D01*
X128346800Y-96440600D02*
X122713900Y-96440600D01*
X129537400Y-95250000D02*
X128346800Y-96440600D01*
X115014400Y-96440600D02*
X116205000Y-95250000D01*
X111125000Y-96440600D02*
X115014400Y-96440600D01*
X117356700Y-96401700D02*
X116205000Y-95250000D01*
X119846800Y-96401700D02*
X117356700Y-96401700D01*
X120998500Y-95250000D02*
X119846800Y-96401700D01*
X121285000Y-95250000D02*
X120998500Y-95250000D01*
X104775000Y-93980000D02*
X106045000Y-95250000D01*
X101595800Y-93980000D02*
X104775000Y-93980000D01*
X100405200Y-95170600D02*
X101595800Y-93980000D01*
X100119500Y-95170600D02*
X100405200Y-95170600D01*
%TO.N,/L67*%
X122436700Y-137041700D02*
X121285000Y-135890000D01*
X128385700Y-137041700D02*
X122436700Y-137041700D01*
X129537400Y-135890000D02*
X128385700Y-137041700D01*
X120133300Y-137041700D02*
X121285000Y-135890000D01*
X117356700Y-137041700D02*
X120133300Y-137041700D01*
X116205000Y-135890000D02*
X117356700Y-137041700D01*
X106455100Y-135890000D02*
X106045000Y-135890000D01*
X107652500Y-137087400D02*
X106455100Y-135890000D01*
X109927600Y-137087400D02*
X107652500Y-137087400D01*
X111125000Y-135890000D02*
X109927600Y-137087400D01*
X115018900Y-137076100D02*
X116205000Y-135890000D01*
X112311100Y-137076100D02*
X115018900Y-137076100D01*
X111125000Y-135890000D02*
X112311100Y-137076100D01*
X135676900Y-134620000D02*
X134406900Y-135890000D01*
X147995000Y-134620000D02*
X135676900Y-134620000D01*
X149265000Y-133350000D02*
X147995000Y-134620000D01*
X130689100Y-137041700D02*
X129537400Y-135890000D01*
X133255200Y-137041700D02*
X130689100Y-137041700D01*
X134406900Y-135890000D02*
X133255200Y-137041700D01*
X104559500Y-135890000D02*
X106045000Y-135890000D01*
X103456900Y-136992600D02*
X104559500Y-135890000D01*
X101301500Y-136992600D02*
X103456900Y-136992600D01*
X100119500Y-135810600D02*
X101301500Y-136992600D01*
X96224600Y-136995700D02*
X95039500Y-135810600D01*
X98934400Y-136995700D02*
X96224600Y-136995700D01*
X100119500Y-135810600D02*
X98934400Y-136995700D01*
%TO.N,/L24*%
X125056100Y-79930600D02*
X124976700Y-80010000D01*
X126365000Y-79930600D02*
X125056100Y-79930600D01*
X123825000Y-80010000D02*
X124976700Y-80010000D01*
X122673300Y-79364100D02*
X122673300Y-80010000D01*
X122128600Y-78819400D02*
X122673300Y-79364100D01*
X120439500Y-78819400D02*
X122128600Y-78819400D01*
X119896700Y-79362200D02*
X120439500Y-78819400D01*
X119896700Y-80010000D02*
X119896700Y-79362200D01*
X118745000Y-80010000D02*
X119896700Y-80010000D01*
X123825000Y-80010000D02*
X122673300Y-80010000D01*
X108585000Y-80010000D02*
X107433300Y-80010000D01*
X102659500Y-79930600D02*
X103811200Y-79930600D01*
X158613600Y-80154700D02*
X158758300Y-80010000D01*
X158314000Y-80154700D02*
X158613600Y-80154700D01*
X159385000Y-80010000D02*
X158758300Y-80010000D01*
X104884500Y-78857300D02*
X103811200Y-79930600D01*
X106873800Y-78857300D02*
X104884500Y-78857300D01*
X107433300Y-79416800D02*
X106873800Y-78857300D01*
X107433300Y-80010000D02*
X107433300Y-79416800D01*
X151547200Y-79115900D02*
X151581500Y-79081600D01*
X147089400Y-79115900D02*
X151547200Y-79115900D01*
X152833200Y-79081600D02*
X151581500Y-79081600D01*
X145622200Y-79331400D02*
X145837700Y-79115900D01*
X138777200Y-79331400D02*
X145622200Y-79331400D01*
X138098600Y-80010000D02*
X138777200Y-79331400D01*
X136946900Y-80010000D02*
X138098600Y-80010000D01*
X147089400Y-79115900D02*
X145837700Y-79115900D01*
%TO.N,/L43*%
X156030000Y-107950000D02*
X155228300Y-107950000D01*
X154037700Y-106759400D02*
X146218000Y-106759400D01*
X155228300Y-107950000D02*
X154037700Y-106759400D01*
X100560100Y-105330600D02*
X100119500Y-105330600D01*
X101755700Y-106526200D02*
X100560100Y-105330600D01*
X104928800Y-106526200D02*
X101755700Y-106526200D01*
X106045000Y-105410000D02*
X104928800Y-106526200D01*
X84455000Y-108585000D02*
X83653300Y-108585000D01*
X117395600Y-106600600D02*
X116205000Y-105410000D01*
X119807900Y-106600600D02*
X117395600Y-106600600D01*
X120998500Y-105410000D02*
X119807900Y-106600600D01*
X121285000Y-105410000D02*
X120998500Y-105410000D01*
X115019300Y-106595700D02*
X116205000Y-105410000D01*
X112295300Y-106595700D02*
X115019300Y-106595700D01*
X111125000Y-105425400D02*
X112295300Y-106595700D01*
X109960500Y-106589900D02*
X111125000Y-105425400D01*
X107224900Y-106589900D02*
X109960500Y-106589900D01*
X106045000Y-105410000D02*
X107224900Y-106589900D01*
X111125000Y-105425400D02*
X111125000Y-105410000D01*
X84868900Y-106017200D02*
X86332200Y-104553900D01*
X84321000Y-106017200D02*
X84868900Y-106017200D01*
X83653300Y-106684900D02*
X84321000Y-106017200D01*
X83653300Y-108585000D02*
X83653300Y-106684900D01*
X135756300Y-106759400D02*
X146218000Y-106759400D01*
X134406900Y-105410000D02*
X135756300Y-106759400D01*
%TO.N,/L27*%
X157485000Y-81310000D02*
X156858300Y-81310000D01*
X144125200Y-82787100D02*
X144125200Y-83012100D01*
X148419300Y-83012100D02*
X148566400Y-82865000D01*
X144125200Y-83012100D02*
X148419300Y-83012100D01*
X149818100Y-82865000D02*
X148566400Y-82865000D01*
X109954400Y-86276000D02*
X111125000Y-85105400D01*
X108019100Y-86276000D02*
X109954400Y-86276000D01*
X106833100Y-85090000D02*
X108019100Y-86276000D01*
X106045000Y-85090000D02*
X106833100Y-85090000D01*
X111125000Y-85105400D02*
X111125000Y-85090000D01*
X133220400Y-86276500D02*
X134406900Y-85090000D01*
X130723900Y-86276500D02*
X133220400Y-86276500D01*
X129537400Y-85090000D02*
X130723900Y-86276500D01*
X143317300Y-83820000D02*
X144125200Y-83012100D01*
X135676900Y-83820000D02*
X143317300Y-83820000D01*
X134406900Y-85090000D02*
X135676900Y-83820000D01*
X155303300Y-82865000D02*
X149818100Y-82865000D01*
X156858300Y-81310000D02*
X155303300Y-82865000D01*
X105156500Y-85090000D02*
X106045000Y-85090000D01*
X104046100Y-86200400D02*
X105156500Y-85090000D01*
X101749900Y-86200400D02*
X104046100Y-86200400D01*
X100560100Y-85010600D02*
X101749900Y-86200400D01*
X100119500Y-85010600D02*
X100560100Y-85010600D01*
X95865600Y-85010600D02*
X95039500Y-85010600D01*
X97017300Y-83858900D02*
X95865600Y-85010600D01*
X98967800Y-83858900D02*
X97017300Y-83858900D01*
X100119500Y-85010600D02*
X98967800Y-83858900D01*
X128373900Y-86253500D02*
X129537400Y-85090000D01*
X122686800Y-86253500D02*
X128373900Y-86253500D01*
X121523300Y-85090000D02*
X122686800Y-86253500D01*
X121285000Y-85090000D02*
X121523300Y-85090000D01*
X112295800Y-86276200D02*
X111125000Y-85105400D01*
X114963400Y-86276200D02*
X112295800Y-86276200D01*
X116149600Y-85090000D02*
X114963400Y-86276200D01*
X116205000Y-85090000D02*
X116149600Y-85090000D01*
%TO.N,/L23*%
X144715300Y-78165900D02*
X145341100Y-78165900D01*
X144715300Y-78165900D02*
X144089400Y-78165900D01*
X96191200Y-78778900D02*
X95039500Y-79930600D01*
X98056600Y-78778900D02*
X96191200Y-78778900D01*
X99208200Y-79930500D02*
X98056600Y-78778900D01*
X99208200Y-79930600D02*
X99208200Y-79930500D01*
X100119500Y-79930600D02*
X99208200Y-79930600D01*
X148547200Y-78165900D02*
X148581500Y-78131600D01*
X145341100Y-78165900D02*
X148547200Y-78165900D01*
X133216300Y-81200600D02*
X134406900Y-80010000D01*
X130728000Y-81200600D02*
X133216300Y-81200600D01*
X129537400Y-80010000D02*
X130728000Y-81200600D01*
X142287900Y-78715700D02*
X142837700Y-78165900D01*
X135701200Y-78715700D02*
X142287900Y-78715700D01*
X134406900Y-80010000D02*
X135701200Y-78715700D01*
X144089400Y-78165900D02*
X142837700Y-78165900D01*
X90696400Y-79930600D02*
X95039500Y-79930600D01*
X86016600Y-75250800D02*
X90696400Y-79930600D01*
X77646300Y-75250800D02*
X86016600Y-75250800D01*
X76961100Y-75936000D02*
X77646300Y-75250800D01*
X76961100Y-76802700D02*
X76961100Y-75936000D01*
X77967300Y-77808900D02*
X76961100Y-76802700D01*
X78105000Y-77808900D02*
X77967300Y-77808900D01*
X78105000Y-78910600D02*
X78105000Y-77808900D01*
X79206700Y-78933400D02*
X79206700Y-78910600D01*
X83998300Y-83725000D02*
X79206700Y-78933400D01*
X84725000Y-83725000D02*
X83998300Y-83725000D01*
X78105000Y-78910600D02*
X79206700Y-78910600D01*
X149207400Y-78131600D02*
X148581500Y-78131600D01*
X149207400Y-78131600D02*
X149833200Y-78131600D01*
X154979900Y-78131600D02*
X156858300Y-80010000D01*
X149833200Y-78131600D02*
X154979900Y-78131600D01*
X157485000Y-80010000D02*
X156858300Y-80010000D01*
X115014400Y-81200600D02*
X116205000Y-80010000D01*
X112315600Y-81200600D02*
X115014400Y-81200600D01*
X111125000Y-80010000D02*
X112315600Y-81200600D01*
%TO.N,/L58*%
X102659500Y-123110600D02*
X103811200Y-123110600D01*
X108585000Y-123190000D02*
X107433300Y-123190000D01*
X152945000Y-125640000D02*
X152945000Y-124838300D01*
X107433300Y-122544100D02*
X107433300Y-123190000D01*
X106919100Y-122029900D02*
X107433300Y-122544100D01*
X104891900Y-122029900D02*
X106919100Y-122029900D01*
X103811200Y-123110600D02*
X104891900Y-122029900D01*
X152270000Y-117475000D02*
X152270000Y-120476700D01*
X136946900Y-123190000D02*
X138098600Y-123190000D01*
X122673300Y-122544100D02*
X122673300Y-123190000D01*
X122128600Y-121999400D02*
X122673300Y-122544100D01*
X120489100Y-121999400D02*
X122128600Y-121999400D01*
X119896700Y-122591800D02*
X120489100Y-121999400D01*
X119896700Y-123190000D02*
X119896700Y-122591800D01*
X118745000Y-123190000D02*
X119896700Y-123190000D01*
X123825000Y-123190000D02*
X122673300Y-123190000D01*
X132077400Y-123190000D02*
X130925700Y-123190000D01*
X123825000Y-123190000D02*
X124976700Y-123190000D01*
X130925700Y-122542200D02*
X130925700Y-123190000D01*
X130382900Y-121999400D02*
X130925700Y-122542200D01*
X126167300Y-121999400D02*
X130382900Y-121999400D01*
X124976700Y-123190000D02*
X126167300Y-121999400D01*
X152270000Y-120476700D02*
X150426700Y-122320000D01*
X149556700Y-123190000D02*
X150426700Y-122320000D01*
X138098600Y-123190000D02*
X149556700Y-123190000D01*
X150426700Y-122320000D02*
X152945000Y-124838300D01*
X87051700Y-117475000D02*
X85725000Y-117475000D01*
X91417300Y-121840600D02*
X87051700Y-117475000D01*
X95805600Y-121840600D02*
X91417300Y-121840600D01*
X96427800Y-122462800D02*
X95805600Y-121840600D01*
X96427800Y-123110600D02*
X96427800Y-122462800D01*
X97579500Y-123110600D02*
X96427800Y-123110600D01*
%TO.N,/L11*%
X84995000Y-63500000D02*
X85971700Y-63500000D01*
X80397300Y-63500000D02*
X84995000Y-63500000D01*
X79206700Y-64690600D02*
X80397300Y-63500000D01*
X78105000Y-64690600D02*
X79206700Y-64690600D01*
X94848900Y-64500000D02*
X95039500Y-64690600D01*
X86566900Y-64500000D02*
X94848900Y-64500000D01*
X85971700Y-63904800D02*
X86566900Y-64500000D01*
X85971700Y-63500000D02*
X85971700Y-63904800D01*
X99479500Y-64690600D02*
X100119500Y-64690600D01*
X98327800Y-65842300D02*
X99479500Y-64690600D01*
X96191200Y-65842300D02*
X98327800Y-65842300D01*
X95039500Y-64690600D02*
X96191200Y-65842300D01*
X120710500Y-64770000D02*
X121285000Y-64770000D01*
X119511100Y-65969400D02*
X120710500Y-64770000D01*
X117404400Y-65969400D02*
X119511100Y-65969400D01*
X116205000Y-64770000D02*
X117404400Y-65969400D01*
X128355100Y-65952300D02*
X129537400Y-64770000D01*
X122705600Y-65952300D02*
X128355100Y-65952300D01*
X121523300Y-64770000D02*
X122705600Y-65952300D01*
X121285000Y-64770000D02*
X121523300Y-64770000D01*
X105156500Y-64770000D02*
X106045000Y-64770000D01*
X104046100Y-65880400D02*
X105156500Y-64770000D01*
X101749900Y-65880400D02*
X104046100Y-65880400D01*
X100560100Y-64690600D02*
X101749900Y-65880400D01*
X100119500Y-64690600D02*
X100560100Y-64690600D01*
X109939000Y-65956000D02*
X111125000Y-64770000D01*
X108019100Y-65956000D02*
X109939000Y-65956000D01*
X106833100Y-64770000D02*
X108019100Y-65956000D01*
X106045000Y-64770000D02*
X106833100Y-64770000D01*
X115019000Y-65956000D02*
X116205000Y-64770000D01*
X112311000Y-65956000D02*
X115019000Y-65956000D01*
X111125000Y-64770000D02*
X112311000Y-65956000D01*
X130689100Y-63618300D02*
X129537400Y-64770000D01*
X133255200Y-63618300D02*
X130689100Y-63618300D01*
X134406900Y-64770000D02*
X133255200Y-63618300D01*
X147177300Y-66402300D02*
X145950200Y-66402300D01*
X147450000Y-66675000D02*
X147177300Y-66402300D01*
X135676900Y-66040000D02*
X134406900Y-64770000D01*
X145587900Y-66040000D02*
X135676900Y-66040000D01*
X145950200Y-66402300D02*
X145587900Y-66040000D01*
X158499500Y-55885000D02*
X158472300Y-55912200D01*
X159269400Y-55885000D02*
X158499500Y-55885000D01*
X157570600Y-55912200D02*
X158472300Y-55912200D01*
X160365600Y-65563300D02*
X159925500Y-65123200D01*
X160365600Y-66025700D02*
X160365600Y-65563300D01*
X144952500Y-58252400D02*
X144952500Y-63440600D01*
X147041700Y-56163200D02*
X144952500Y-58252400D01*
X147390000Y-56163200D02*
X147041700Y-56163200D01*
%TO.N,/L59*%
X91360600Y-125650600D02*
X95039500Y-125650600D01*
X84455000Y-118745000D02*
X91360600Y-125650600D01*
X104963400Y-126811600D02*
X106045000Y-125730000D01*
X101280500Y-126811600D02*
X104963400Y-126811600D01*
X100119500Y-125650600D02*
X101280500Y-126811600D01*
X121285000Y-126479800D02*
X121285000Y-125730000D01*
X122273100Y-126479800D02*
X121285000Y-126479800D01*
X122723500Y-126930200D02*
X122273100Y-126479800D01*
X128337200Y-126930200D02*
X122723500Y-126930200D01*
X129537400Y-125730000D02*
X128337200Y-126930200D01*
X117410000Y-126935000D02*
X116205000Y-125730000D01*
X119793500Y-126935000D02*
X117410000Y-126935000D01*
X120248700Y-126479800D02*
X119793500Y-126935000D01*
X121285000Y-126479800D02*
X120248700Y-126479800D01*
X112282900Y-126887900D02*
X111125000Y-125730000D01*
X115047100Y-126887900D02*
X112282900Y-126887900D01*
X116205000Y-125730000D02*
X115047100Y-126887900D01*
X133220900Y-126916000D02*
X134406900Y-125730000D01*
X130723400Y-126916000D02*
X133220900Y-126916000D01*
X129537400Y-125730000D02*
X130723400Y-126916000D01*
X139989000Y-124555700D02*
X141163300Y-125730000D01*
X135581200Y-124555700D02*
X139989000Y-124555700D01*
X134406900Y-125730000D02*
X135581200Y-124555700D01*
X142240000Y-125730000D02*
X141163300Y-125730000D01*
%TO.N,/L49*%
X130728000Y-114220600D02*
X129537400Y-113030000D01*
X133216300Y-114220600D02*
X130728000Y-114220600D01*
X134406900Y-113030000D02*
X133216300Y-114220600D01*
X109934400Y-111839400D02*
X111125000Y-113030000D01*
X107289900Y-111839400D02*
X109934400Y-111839400D01*
X106099300Y-113030000D02*
X107289900Y-111839400D01*
X106045000Y-113030000D02*
X106099300Y-113030000D01*
X112282900Y-114187900D02*
X111125000Y-113030000D01*
X115047100Y-114187900D02*
X112282900Y-114187900D01*
X116205000Y-113030000D02*
X115047100Y-114187900D01*
X117395600Y-114220600D02*
X116205000Y-113030000D01*
X119350200Y-114220600D02*
X117395600Y-114220600D01*
X120540800Y-113030000D02*
X119350200Y-114220600D01*
X121285000Y-113030000D02*
X120540800Y-113030000D01*
%TO.N,/L26*%
X97579500Y-82470600D02*
X96427800Y-82470600D01*
X136946900Y-82550000D02*
X138098600Y-82550000D01*
X125056100Y-82470600D02*
X124976700Y-82550000D01*
X126365000Y-82470600D02*
X125056100Y-82470600D01*
X123825000Y-82550000D02*
X124976700Y-82550000D01*
X123825000Y-82550000D02*
X122673300Y-82550000D01*
X138811500Y-81837100D02*
X147125200Y-81837100D01*
X138098600Y-82550000D02*
X138811500Y-81837100D01*
X148454800Y-81915000D02*
X152818100Y-81915000D01*
X148376900Y-81837100D02*
X148454800Y-81915000D01*
X147125200Y-81837100D02*
X148376900Y-81837100D01*
X118745000Y-82550000D02*
X119730400Y-82550000D01*
X119730400Y-82078900D02*
X119730400Y-82550000D01*
X120449900Y-81359400D02*
X119730400Y-82078900D01*
X122128600Y-81359400D02*
X120449900Y-81359400D01*
X122673300Y-81904100D02*
X122128600Y-81359400D01*
X122673300Y-82550000D02*
X122673300Y-81904100D01*
X89391900Y-84725000D02*
X85725000Y-84725000D01*
X90432200Y-83684700D02*
X89391900Y-84725000D01*
X95857500Y-83684700D02*
X90432200Y-83684700D01*
X96083500Y-83458700D02*
X95857500Y-83684700D01*
X96085600Y-83458700D02*
X96083500Y-83458700D01*
X96427800Y-83116500D02*
X96085600Y-83458700D01*
X96427800Y-82470600D02*
X96427800Y-83116500D01*
X98731200Y-81824700D02*
X98731200Y-82470600D01*
X99275900Y-81280000D02*
X98731200Y-81824700D01*
X100965000Y-81280000D02*
X99275900Y-81280000D01*
X101507800Y-81822800D02*
X100965000Y-81280000D01*
X101507800Y-82470600D02*
X101507800Y-81822800D01*
X102659500Y-82470600D02*
X101507800Y-82470600D01*
X97579500Y-82470600D02*
X98731200Y-82470600D01*
X158312400Y-81105900D02*
X158758300Y-80660000D01*
X158312400Y-81490700D02*
X158312400Y-81105900D01*
X157488600Y-82314500D02*
X158312400Y-81490700D01*
X157178600Y-82314500D02*
X157488600Y-82314500D01*
X159385000Y-80660000D02*
X158758300Y-80660000D01*
%TO.N,/L40*%
X102659500Y-100250600D02*
X101507800Y-100250600D01*
X97579500Y-100250600D02*
X98731200Y-100250600D01*
X98731200Y-100896500D02*
X98731200Y-100250600D01*
X99275900Y-101441200D02*
X98731200Y-100896500D01*
X100965000Y-101441200D02*
X99275900Y-101441200D01*
X101507800Y-100898400D02*
X100965000Y-101441200D01*
X101507800Y-100250600D02*
X101507800Y-100898400D01*
X122673300Y-99684100D02*
X122673300Y-100330000D01*
X122128600Y-99139400D02*
X122673300Y-99684100D01*
X120494000Y-99139400D02*
X122128600Y-99139400D01*
X119896700Y-99736700D02*
X120494000Y-99139400D01*
X119896700Y-100330000D02*
X119896700Y-99736700D01*
X118745000Y-100330000D02*
X119896700Y-100330000D01*
X123825000Y-100330000D02*
X122673300Y-100330000D01*
X135795200Y-99684100D02*
X135795200Y-100330000D01*
X135250500Y-99139400D02*
X135795200Y-99684100D01*
X133555900Y-99139400D02*
X135250500Y-99139400D01*
X133229100Y-99466200D02*
X133555900Y-99139400D01*
X133229100Y-100330000D02*
X133229100Y-99466200D01*
X132077400Y-100330000D02*
X133229100Y-100330000D01*
X136946900Y-100330000D02*
X135795200Y-100330000D01*
X96427800Y-99604700D02*
X96427800Y-100250600D01*
X95803700Y-98980600D02*
X96427800Y-99604700D01*
X93707300Y-98980600D02*
X95803700Y-98980600D01*
X86451700Y-91725000D02*
X93707300Y-98980600D01*
X85725000Y-91725000D02*
X86451700Y-91725000D01*
X97579500Y-100250600D02*
X96427800Y-100250600D01*
%TO.N,/L46*%
X119896700Y-107304100D02*
X119896700Y-107950000D01*
X120403500Y-106797300D02*
X119896700Y-107304100D01*
X122168400Y-106797300D02*
X120403500Y-106797300D01*
X122673300Y-107302200D02*
X122168400Y-106797300D01*
X122673300Y-107950000D02*
X122673300Y-107302200D01*
X123825000Y-107950000D02*
X122673300Y-107950000D01*
X118745000Y-107950000D02*
X119896700Y-107950000D01*
X102659500Y-107870600D02*
X101507800Y-107870600D01*
X126129400Y-106797300D02*
X124976700Y-107950000D01*
X130366200Y-106797300D02*
X126129400Y-106797300D01*
X130925700Y-107356800D02*
X130366200Y-106797300D01*
X130925700Y-107950000D02*
X130925700Y-107356800D01*
X132077400Y-107950000D02*
X130925700Y-107950000D01*
X123825000Y-107950000D02*
X124976700Y-107950000D01*
X97579500Y-107870600D02*
X98731200Y-107870600D01*
X85725000Y-109855000D02*
X86526700Y-109855000D01*
X97579500Y-107870600D02*
X96427800Y-107870600D01*
X101507800Y-107222800D02*
X101507800Y-107870600D01*
X100965000Y-106680000D02*
X101507800Y-107222800D01*
X99275900Y-106680000D02*
X100965000Y-106680000D01*
X98731200Y-107224700D02*
X99275900Y-106680000D01*
X98731200Y-107870600D02*
X98731200Y-107224700D01*
X87154000Y-109227700D02*
X86526700Y-109855000D01*
X95716600Y-109227700D02*
X87154000Y-109227700D01*
X96427800Y-108516500D02*
X95716600Y-109227700D01*
X96427800Y-107870600D02*
X96427800Y-108516500D01*
%TO.N,/L10*%
X96427800Y-61504700D02*
X96427800Y-62150600D01*
X95906000Y-60982900D02*
X96427800Y-61504700D01*
X88488800Y-60982900D02*
X95906000Y-60982900D01*
X87971700Y-61500000D02*
X88488800Y-60982900D01*
X86995000Y-61500000D02*
X87971700Y-61500000D01*
X97579500Y-62150600D02*
X96427800Y-62150600D01*
X98731200Y-62796500D02*
X98731200Y-62150600D01*
X99275900Y-63341200D02*
X98731200Y-62796500D01*
X100965000Y-63341200D02*
X99275900Y-63341200D01*
X101507800Y-62798400D02*
X100965000Y-63341200D01*
X101507800Y-62150600D02*
X101507800Y-62798400D01*
X102659500Y-62150600D02*
X101507800Y-62150600D01*
X97579500Y-62150600D02*
X98731200Y-62150600D01*
X125056100Y-62150600D02*
X124976700Y-62230000D01*
X126365000Y-62150600D02*
X125056100Y-62150600D01*
X123825000Y-62230000D02*
X124976700Y-62230000D01*
X122673300Y-61584100D02*
X122673300Y-62230000D01*
X122128600Y-61039400D02*
X122673300Y-61584100D01*
X120494000Y-61039400D02*
X122128600Y-61039400D01*
X119896700Y-61636700D02*
X120494000Y-61039400D01*
X119896700Y-62230000D02*
X119896700Y-61636700D01*
X118745000Y-62230000D02*
X119896700Y-62230000D01*
X123825000Y-62230000D02*
X122673300Y-62230000D01*
X136946900Y-62230000D02*
X138098600Y-62230000D01*
X152400000Y-65405000D02*
X156653800Y-65405000D01*
X152340000Y-54893200D02*
X154608300Y-54893200D01*
X159339900Y-56794800D02*
X158721500Y-56794800D01*
X160857500Y-55277200D02*
X159339900Y-56794800D01*
X162770600Y-55277200D02*
X160857500Y-55277200D01*
X151766400Y-64771400D02*
X152400000Y-65405000D01*
X145608600Y-64771400D02*
X151766400Y-64771400D01*
X145534300Y-64845700D02*
X145608600Y-64771400D01*
X140714300Y-64845700D02*
X145534300Y-64845700D01*
X138098600Y-62230000D02*
X140714300Y-64845700D01*
X159865600Y-66408000D02*
X159865600Y-66025700D01*
X159636300Y-66637300D02*
X159865600Y-66408000D01*
X158207300Y-66637300D02*
X159636300Y-66637300D01*
X157907500Y-66337500D02*
X158207300Y-66637300D01*
%TO.N,/L55*%
X91989300Y-120570600D02*
X90193100Y-118774400D01*
X95039500Y-120570600D02*
X91989300Y-120570600D01*
X133217100Y-121839800D02*
X134406900Y-120650000D01*
X131167800Y-121839800D02*
X133217100Y-121839800D01*
X129978000Y-120650000D02*
X131167800Y-121839800D01*
X129537400Y-120650000D02*
X129978000Y-120650000D01*
X111125000Y-120650000D02*
X111125000Y-120665400D01*
X106455100Y-120650000D02*
X106045000Y-120650000D01*
X107645700Y-121840600D02*
X106455100Y-120650000D01*
X109949800Y-121840600D02*
X107645700Y-121840600D01*
X111125000Y-120665400D02*
X109949800Y-121840600D01*
X157170000Y-117724300D02*
X157170000Y-119220000D01*
X153919000Y-114473300D02*
X157170000Y-117724300D01*
X140795000Y-114473300D02*
X153919000Y-114473300D01*
X140506900Y-114761400D02*
X140795000Y-114473300D01*
X140506900Y-116216100D02*
X140506900Y-114761400D01*
X137343000Y-119380000D02*
X140506900Y-116216100D01*
X135676900Y-119380000D02*
X137343000Y-119380000D01*
X134406900Y-120650000D02*
X135676900Y-119380000D01*
X115019300Y-121835700D02*
X116205000Y-120650000D01*
X112295300Y-121835700D02*
X115019300Y-121835700D01*
X111125000Y-120665400D02*
X112295300Y-121835700D01*
X117404400Y-121849400D02*
X116205000Y-120650000D01*
X119499200Y-121849400D02*
X117404400Y-121849400D01*
X120698600Y-120650000D02*
X119499200Y-121849400D01*
X121285000Y-120650000D02*
X120698600Y-120650000D01*
%TO.N,/L47*%
X98967200Y-109258300D02*
X100119500Y-110410600D01*
X96478300Y-109258300D02*
X98967200Y-109258300D01*
X95326000Y-110410600D02*
X96478300Y-109258300D01*
X95039500Y-110410600D02*
X95326000Y-110410600D01*
X112285700Y-111650700D02*
X111125000Y-110490000D01*
X115059700Y-111650700D02*
X112285700Y-111650700D01*
X116205000Y-110505400D02*
X115059700Y-111650700D01*
X117380200Y-111680600D02*
X116205000Y-110505400D01*
X119831700Y-111680600D02*
X117380200Y-111680600D01*
X121022300Y-110490000D02*
X119831700Y-111680600D01*
X121285000Y-110490000D02*
X121022300Y-110490000D01*
X116205000Y-110505400D02*
X116205000Y-110490000D01*
X130728000Y-111680600D02*
X129537400Y-110490000D01*
X133162000Y-111680600D02*
X130728000Y-111680600D01*
X134352600Y-110490000D02*
X133162000Y-111680600D01*
X134406900Y-110490000D02*
X134352600Y-110490000D01*
X84354700Y-105415500D02*
X84563300Y-105415500D01*
X83236500Y-106533700D02*
X84354700Y-105415500D01*
X83236500Y-109906500D02*
X83236500Y-106533700D01*
X84455000Y-111125000D02*
X83236500Y-109906500D01*
%TO.N,/L60*%
X119896700Y-125084100D02*
X119896700Y-125730000D01*
X120441400Y-124539400D02*
X119896700Y-125084100D01*
X122130500Y-124539400D02*
X120441400Y-124539400D01*
X122673300Y-125082200D02*
X122130500Y-124539400D01*
X122673300Y-125730000D02*
X122673300Y-125082200D01*
X123825000Y-125730000D02*
X122673300Y-125730000D01*
X118745000Y-125730000D02*
X119896700Y-125730000D01*
X147640000Y-125730000D02*
X148716700Y-125730000D01*
X85725000Y-118745000D02*
X86526700Y-118745000D01*
X97579500Y-125650600D02*
X96427800Y-125650600D01*
X146669400Y-124759400D02*
X147640000Y-125730000D01*
X142600700Y-124759400D02*
X146669400Y-124759400D01*
X150076700Y-127090000D02*
X148716700Y-125730000D01*
X152945000Y-127090000D02*
X150076700Y-127090000D01*
X96427800Y-125004700D02*
X96427800Y-125650600D01*
X95803700Y-124380600D02*
X96427800Y-125004700D01*
X92162200Y-124380600D02*
X95803700Y-124380600D01*
X86526700Y-118745100D02*
X92162200Y-124380600D01*
X86526700Y-118745000D02*
X86526700Y-118745100D01*
%TO.N,/L12*%
X102659500Y-64690600D02*
X103811200Y-64690600D01*
X108585000Y-64770000D02*
X107433300Y-64770000D01*
X107433300Y-64124100D02*
X107433300Y-64770000D01*
X106919100Y-63609900D02*
X107433300Y-64124100D01*
X104891900Y-63609900D02*
X106919100Y-63609900D01*
X103811200Y-64690600D02*
X104891900Y-63609900D01*
X95885000Y-63500000D02*
X86995000Y-63500000D01*
X96427800Y-64042800D02*
X95885000Y-63500000D01*
X96427800Y-64690600D02*
X96427800Y-64042800D01*
X97579500Y-64690600D02*
X96427800Y-64690600D01*
X125056100Y-64690600D02*
X124976700Y-64770000D01*
X126365000Y-64690600D02*
X125056100Y-64690600D01*
X123825000Y-64770000D02*
X124976700Y-64770000D01*
X122673300Y-64124100D02*
X122673300Y-64770000D01*
X122128600Y-63579400D02*
X122673300Y-64124100D01*
X120439500Y-63579400D02*
X122128600Y-63579400D01*
X119896700Y-64122200D02*
X120439500Y-63579400D01*
X119896700Y-64770000D02*
X119896700Y-64122200D01*
X118745000Y-64770000D02*
X119896700Y-64770000D01*
X123825000Y-64770000D02*
X122673300Y-64770000D01*
X153809900Y-56163200D02*
X153818400Y-56171700D01*
X152340000Y-56163200D02*
X153809900Y-56163200D01*
X154726400Y-57846900D02*
X154568200Y-57688700D01*
X160599500Y-57846900D02*
X154726400Y-57846900D01*
X160959600Y-57486800D02*
X160599500Y-57846900D01*
X160959600Y-56821500D02*
X160959600Y-57486800D01*
X161868900Y-55912200D02*
X160959600Y-56821500D01*
X162770600Y-55912200D02*
X161868900Y-55912200D01*
X150872200Y-66675000D02*
X152400000Y-66675000D01*
X160865600Y-66351600D02*
X160865600Y-66025700D01*
X160171600Y-67045600D02*
X160865600Y-66351600D01*
X157446000Y-67045600D02*
X160171600Y-67045600D01*
X156815200Y-66414800D02*
X157446000Y-67045600D01*
X152660200Y-66414800D02*
X156815200Y-66414800D01*
X152400000Y-66675000D02*
X152660200Y-66414800D01*
%TO.N,/L61*%
X109973300Y-129421700D02*
X111125000Y-128270000D01*
X108107900Y-129421700D02*
X109973300Y-129421700D01*
X106956200Y-128270000D02*
X108107900Y-129421700D01*
X106045000Y-128270000D02*
X106956200Y-128270000D01*
X115053300Y-129421700D02*
X116205000Y-128270000D01*
X112276700Y-129421700D02*
X115053300Y-129421700D01*
X111125000Y-128270000D02*
X112276700Y-129421700D01*
X117356700Y-129421700D02*
X116205000Y-128270000D01*
X119848900Y-129421700D02*
X117356700Y-129421700D01*
X121000600Y-128270000D02*
X119848900Y-129421700D01*
X121285000Y-128270000D02*
X121000600Y-128270000D01*
X101284000Y-129355100D02*
X100119500Y-128190600D01*
X103454900Y-129355100D02*
X101284000Y-129355100D01*
X104540000Y-128270000D02*
X103454900Y-129355100D01*
X106045000Y-128270000D02*
X104540000Y-128270000D01*
X98928900Y-127000000D02*
X100119500Y-128190600D01*
X96230100Y-127000000D02*
X98928900Y-127000000D01*
X95039500Y-128190600D02*
X96230100Y-127000000D01*
X133216300Y-129460600D02*
X134406900Y-128270000D01*
X130728000Y-129460600D02*
X133216300Y-129460600D01*
X129537400Y-128270000D02*
X130728000Y-129460600D01*
X135676900Y-127000000D02*
X142240000Y-127000000D01*
X134406900Y-128270000D02*
X135676900Y-127000000D01*
%TO.N,/L36*%
X139053000Y-96204400D02*
X138098600Y-95250000D01*
X141865500Y-96204400D02*
X139053000Y-96204400D01*
X136946900Y-95250000D02*
X138098600Y-95250000D01*
X122673300Y-94604100D02*
X122673300Y-95250000D01*
X122128600Y-94059400D02*
X122673300Y-94604100D01*
X120494000Y-94059400D02*
X122128600Y-94059400D01*
X119896700Y-94656700D02*
X120494000Y-94059400D01*
X119896700Y-95250000D02*
X119896700Y-94656700D01*
X118745000Y-95250000D02*
X119896700Y-95250000D01*
X123825000Y-95250000D02*
X122673300Y-95250000D01*
X135795200Y-94604100D02*
X135795200Y-95250000D01*
X135288400Y-94097300D02*
X135795200Y-94604100D01*
X133578100Y-94097300D02*
X135288400Y-94097300D01*
X133229100Y-94446300D02*
X133578100Y-94097300D01*
X133229100Y-95250000D02*
X133229100Y-94446300D01*
X132077400Y-95250000D02*
X133229100Y-95250000D01*
X136946900Y-95250000D02*
X135795200Y-95250000D01*
X154135000Y-96061700D02*
X155228300Y-97155000D01*
X151942900Y-96061700D02*
X154135000Y-96061700D01*
X156030000Y-97155000D02*
X155228300Y-97155000D01*
X98731200Y-95816500D02*
X98731200Y-95170600D01*
X99271000Y-96356300D02*
X98731200Y-95816500D01*
X100917900Y-96356300D02*
X99271000Y-96356300D01*
X101507800Y-95766400D02*
X100917900Y-96356300D01*
X101507800Y-95170600D02*
X101507800Y-95766400D01*
X102659500Y-95170600D02*
X101507800Y-95170600D01*
X97579500Y-95170600D02*
X98731200Y-95170600D01*
X96427800Y-94524700D02*
X96427800Y-95170600D01*
X95803700Y-93900600D02*
X96427800Y-94524700D01*
X91169100Y-93900600D02*
X95803700Y-93900600D01*
X86993500Y-89725000D02*
X91169100Y-93900600D01*
X85725000Y-89725000D02*
X86993500Y-89725000D01*
X97579500Y-95170600D02*
X96427800Y-95170600D01*
%TO.N,/L1*%
X136663700Y-49813200D02*
X134406900Y-52070000D01*
X147390000Y-49813200D02*
X136663700Y-49813200D01*
X101271200Y-50838900D02*
X100119500Y-51990600D01*
X104813900Y-50838900D02*
X101271200Y-50838900D01*
X106045000Y-52070000D02*
X104813900Y-50838900D01*
X107209400Y-50905600D02*
X106045000Y-52070000D01*
X109960600Y-50905600D02*
X107209400Y-50905600D01*
X111125000Y-52070000D02*
X109960600Y-50905600D01*
X157570600Y-52737200D02*
X156668900Y-52737200D01*
X78105000Y-51990600D02*
X79206700Y-51990600D01*
X84995000Y-53500000D02*
X84995000Y-52523300D01*
X79739400Y-52523300D02*
X79206700Y-51990600D01*
X84995000Y-52523300D02*
X79739400Y-52523300D01*
X85527700Y-51990600D02*
X95039500Y-51990600D01*
X84995000Y-52523300D02*
X85527700Y-51990600D01*
X98967800Y-50838900D02*
X100119500Y-51990600D01*
X96191200Y-50838900D02*
X98967800Y-50838900D01*
X95039500Y-51990600D02*
X96191200Y-50838900D01*
X115053300Y-50918300D02*
X116205000Y-52070000D01*
X112276700Y-50918300D02*
X115053300Y-50918300D01*
X111125000Y-52070000D02*
X112276700Y-50918300D01*
X117356700Y-50918300D02*
X116205000Y-52070000D01*
X119222100Y-50918300D02*
X117356700Y-50918300D01*
X120373700Y-52069900D02*
X119222100Y-50918300D01*
X120373700Y-52070000D02*
X120373700Y-52069900D01*
X121285000Y-52070000D02*
X120373700Y-52070000D01*
X122483400Y-50871600D02*
X121285000Y-52070000D01*
X128339000Y-50871600D02*
X122483400Y-50871600D01*
X129537400Y-52070000D02*
X128339000Y-50871600D01*
X133223500Y-50886600D02*
X134406900Y-52070000D01*
X130720800Y-50886600D02*
X133223500Y-50886600D01*
X129537400Y-52070000D02*
X130720800Y-50886600D01*
X156495600Y-52563900D02*
X155719700Y-52563900D01*
X156668900Y-52737200D02*
X156495600Y-52563900D01*
X147544000Y-60325000D02*
X147450000Y-60325000D01*
X149396500Y-58472500D02*
X147544000Y-60325000D01*
X161365600Y-62630600D02*
X161365600Y-63575700D01*
X158327500Y-59592500D02*
X161365600Y-62630600D01*
X150516500Y-59592500D02*
X158327500Y-59592500D01*
X149396500Y-58472500D02*
X150516500Y-59592500D01*
%TO.N,/L25*%
X151713300Y-80660000D02*
X157485000Y-80660000D01*
X151084900Y-80031600D02*
X151713300Y-80660000D01*
X149833200Y-80031600D02*
X151084900Y-80031600D01*
X133216300Y-83740600D02*
X134406900Y-82550000D01*
X130728000Y-83740600D02*
X133216300Y-83740600D01*
X129537400Y-82550000D02*
X130728000Y-83740600D01*
X149833200Y-80031600D02*
X148581500Y-80031600D01*
X148547200Y-80065900D02*
X144089400Y-80065900D01*
X148581500Y-80031600D02*
X148547200Y-80065900D01*
X144089400Y-80065900D02*
X144089400Y-80767600D01*
X143641100Y-81215900D02*
X144089400Y-80767600D01*
X135741000Y-81215900D02*
X143641100Y-81215900D01*
X134406900Y-82550000D02*
X135741000Y-81215900D01*
X104789400Y-82550000D02*
X106045000Y-82550000D01*
X103704300Y-83635100D02*
X104789400Y-82550000D01*
X101284000Y-83635100D02*
X103704300Y-83635100D01*
X100119500Y-82470600D02*
X101284000Y-83635100D01*
X109934400Y-81359400D02*
X111125000Y-82550000D01*
X107235600Y-81359400D02*
X109934400Y-81359400D01*
X106045000Y-82550000D02*
X107235600Y-81359400D01*
X117404400Y-83749400D02*
X116205000Y-82550000D01*
X119511600Y-83749400D02*
X117404400Y-83749400D01*
X120711000Y-82550000D02*
X119511600Y-83749400D01*
X121285000Y-82550000D02*
X120711000Y-82550000D01*
X112282900Y-83707900D02*
X111125000Y-82550000D01*
X115047100Y-83707900D02*
X112282900Y-83707900D01*
X116205000Y-82550000D02*
X115047100Y-83707900D01*
X93478700Y-80909800D02*
X95039500Y-82470600D01*
X84934700Y-80909800D02*
X93478700Y-80909800D01*
%TO.N,/L30*%
X97579500Y-87550600D02*
X96427800Y-87550600D01*
X157480000Y-107950000D02*
X157480000Y-97155000D01*
X97579500Y-87550600D02*
X98731200Y-87550600D01*
X123825000Y-87630000D02*
X122673300Y-87630000D01*
X118745000Y-87630000D02*
X119896700Y-87630000D01*
X122673300Y-86982200D02*
X122673300Y-87630000D01*
X122130500Y-86439400D02*
X122673300Y-86982200D01*
X120441400Y-86439400D02*
X122130500Y-86439400D01*
X119896700Y-86984100D02*
X120441400Y-86439400D01*
X119896700Y-87630000D02*
X119896700Y-86984100D01*
X102237600Y-87550600D02*
X101507800Y-87550600D01*
X102237600Y-87550600D02*
X102659500Y-87550600D01*
X107433300Y-86984100D02*
X107433300Y-87630000D01*
X106919100Y-86469900D02*
X107433300Y-86984100D01*
X104891900Y-86469900D02*
X106919100Y-86469900D01*
X103811200Y-87550600D02*
X104891900Y-86469900D01*
X102659500Y-87550600D02*
X103811200Y-87550600D01*
X108585000Y-87630000D02*
X107433300Y-87630000D01*
X101507800Y-86902800D02*
X101507800Y-87550600D01*
X100965000Y-86360000D02*
X101507800Y-86902800D01*
X99275900Y-86360000D02*
X100965000Y-86360000D01*
X98731200Y-86904700D02*
X99275900Y-86360000D01*
X98731200Y-87550600D02*
X98731200Y-86904700D01*
X157480000Y-96714900D02*
X157480000Y-97155000D01*
X154806700Y-94041600D02*
X157480000Y-96714900D01*
X152219200Y-94041600D02*
X154806700Y-94041600D01*
X152585000Y-86995000D02*
X152530000Y-86940000D01*
X157295000Y-86995000D02*
X152585000Y-86995000D01*
X88294600Y-86725000D02*
X85725000Y-86725000D01*
X90307800Y-88738200D02*
X88294600Y-86725000D01*
X95880500Y-88738200D02*
X90307800Y-88738200D01*
X96427800Y-88190900D02*
X95880500Y-88738200D01*
X96427800Y-87550600D02*
X96427800Y-88190900D01*
X117593300Y-86984100D02*
X117593300Y-87630000D01*
X117086500Y-86477300D02*
X117593300Y-86984100D01*
X115376200Y-86477300D02*
X117086500Y-86477300D01*
X114816700Y-87036800D02*
X115376200Y-86477300D01*
X114816700Y-87630000D02*
X114816700Y-87036800D01*
X113665000Y-87630000D02*
X114816700Y-87630000D01*
X118745000Y-87630000D02*
X117593300Y-87630000D01*
X150373300Y-89096700D02*
X152530000Y-86940000D01*
X139565300Y-89096700D02*
X150373300Y-89096700D01*
X138098600Y-87630000D02*
X139565300Y-89096700D01*
X136946900Y-87630000D02*
X138098600Y-87630000D01*
%TO.N,/L52*%
X96427800Y-114844700D02*
X96427800Y-115490600D01*
X95803700Y-114220600D02*
X96427800Y-114844700D01*
X87082300Y-114220600D02*
X95803700Y-114220600D01*
X86526700Y-113665000D02*
X87082300Y-114220600D01*
X85725000Y-113665000D02*
X86526700Y-113665000D01*
X97579500Y-115490600D02*
X96427800Y-115490600D01*
X98731200Y-116136500D02*
X98731200Y-115490600D01*
X99238000Y-116643300D02*
X98731200Y-116136500D01*
X100948300Y-116643300D02*
X99238000Y-116643300D01*
X101507800Y-116083800D02*
X100948300Y-116643300D01*
X101507800Y-115490600D02*
X101507800Y-116083800D01*
X102659500Y-115490600D02*
X101507800Y-115490600D01*
X97579500Y-115490600D02*
X98731200Y-115490600D01*
X123825000Y-115570000D02*
X122673300Y-115570000D01*
X118745000Y-115570000D02*
X119730400Y-115570000D01*
X119730400Y-115138100D02*
X119730400Y-115570000D01*
X120489100Y-114379400D02*
X119730400Y-115138100D01*
X122128600Y-114379400D02*
X120489100Y-114379400D01*
X122673300Y-114924100D02*
X122128600Y-114379400D01*
X122673300Y-115570000D02*
X122673300Y-114924100D01*
%TO.N,/L2*%
X123825000Y-52070000D02*
X124976700Y-52070000D01*
X102659500Y-51990600D02*
X103811200Y-51990600D01*
X108585000Y-52070000D02*
X107433300Y-52070000D01*
X105081200Y-53260600D02*
X103811200Y-51990600D01*
X106888600Y-53260600D02*
X105081200Y-53260600D01*
X107433300Y-52715900D02*
X106888600Y-53260600D01*
X107433300Y-52070000D02*
X107433300Y-52715900D01*
X88328400Y-53143300D02*
X87971700Y-53500000D01*
X95868300Y-53143300D02*
X88328400Y-53143300D01*
X96427800Y-52583800D02*
X95868300Y-53143300D01*
X96427800Y-51990600D02*
X96427800Y-52583800D01*
X97579500Y-51990600D02*
X96427800Y-51990600D01*
X86995000Y-53500000D02*
X87971700Y-53500000D01*
X132077400Y-52070000D02*
X130925700Y-52070000D01*
X125056100Y-51990600D02*
X126365000Y-51990600D01*
X124976700Y-52070000D02*
X125056100Y-51990600D01*
X126365000Y-51990600D02*
X127466700Y-51990600D01*
X130381000Y-53260600D02*
X130925700Y-52715900D01*
X128736700Y-53260600D02*
X130381000Y-53260600D01*
X127466700Y-51990600D02*
X128736700Y-53260600D01*
X130925700Y-52715900D02*
X130925700Y-52070000D01*
X131266400Y-53056600D02*
X130925700Y-52715900D01*
X132720800Y-53056600D02*
X131266400Y-53056600D01*
X132886900Y-53222700D02*
X132720800Y-53056600D01*
X135235700Y-53222700D02*
X132886900Y-53222700D01*
X135795200Y-52663200D02*
X135235700Y-53222700D01*
X135795200Y-52070000D02*
X135795200Y-52663200D01*
X136371100Y-52070000D02*
X135795200Y-52070000D01*
X148957600Y-60325000D02*
X152400000Y-60325000D01*
X158944900Y-49813200D02*
X161868900Y-52737200D01*
X152340000Y-49813200D02*
X158944900Y-49813200D01*
X162770600Y-52737200D02*
X161868900Y-52737200D01*
X136371100Y-52070000D02*
X136946900Y-52070000D01*
X151705000Y-50448200D02*
X152340000Y-49813200D01*
X139720400Y-50448200D02*
X151705000Y-50448200D01*
X138098600Y-52070000D02*
X139720400Y-50448200D01*
X136946900Y-52070000D02*
X138098600Y-52070000D01*
X160865600Y-62748700D02*
X160865600Y-63575700D01*
X158441900Y-60325000D02*
X160865600Y-62748700D01*
X152400000Y-60325000D02*
X158441900Y-60325000D01*
%TO.N,/L15*%
X78105000Y-69770600D02*
X79206700Y-69770600D01*
X81477300Y-67500000D02*
X79206700Y-69770600D01*
X84995000Y-67500000D02*
X81477300Y-67500000D01*
X84995000Y-67500000D02*
X85971700Y-67500000D01*
X94568900Y-69300000D02*
X95039500Y-69770600D01*
X88369400Y-69300000D02*
X94568900Y-69300000D01*
X87546100Y-68476700D02*
X88369400Y-69300000D01*
X86582000Y-68476700D02*
X87546100Y-68476700D01*
X85971700Y-67866400D02*
X86582000Y-68476700D01*
X85971700Y-67500000D02*
X85971700Y-67866400D01*
X111125000Y-69850000D02*
X111125000Y-71035700D01*
X106455100Y-69850000D02*
X106045000Y-69850000D01*
X107640800Y-71035700D02*
X106455100Y-69850000D01*
X111125000Y-71035700D02*
X107640800Y-71035700D01*
X115019300Y-71035700D02*
X116205000Y-69850000D01*
X111125000Y-71035700D02*
X115019300Y-71035700D01*
X133216300Y-71040600D02*
X134406900Y-69850000D01*
X130728000Y-71040600D02*
X133216300Y-71040600D01*
X129537400Y-69850000D02*
X130728000Y-71040600D01*
X146923500Y-68688500D02*
X147450000Y-69215000D01*
X135629900Y-68688500D02*
X146923500Y-68688500D01*
X134468400Y-69850000D02*
X135629900Y-68688500D01*
X134406900Y-69850000D02*
X134468400Y-69850000D01*
X161928100Y-64800700D02*
X161590600Y-64800700D01*
X163009900Y-63718900D02*
X161928100Y-64800700D01*
X163009900Y-62923900D02*
X163009900Y-63718900D01*
X157570600Y-57182200D02*
X156668900Y-57182200D01*
X157821200Y-57432800D02*
X157570600Y-57182200D01*
X160160600Y-57432800D02*
X157821200Y-57432800D01*
X160357300Y-57236100D02*
X160160600Y-57432800D01*
X147913100Y-58703200D02*
X147390000Y-58703200D01*
X149818200Y-56798100D02*
X147913100Y-58703200D01*
X154558800Y-56798100D02*
X149818200Y-56798100D01*
X154942900Y-57182200D02*
X154558800Y-56798100D01*
X156668900Y-57182200D02*
X154942900Y-57182200D01*
%TO.N,/L53*%
X104775000Y-116840000D02*
X106045000Y-118110000D01*
X101364400Y-116840000D02*
X104775000Y-116840000D01*
X100173800Y-118030600D02*
X101364400Y-116840000D01*
X100119500Y-118030600D02*
X100173800Y-118030600D01*
X92204100Y-118030600D02*
X92069700Y-117896200D01*
X95039500Y-118030600D02*
X92204100Y-118030600D01*
X121523300Y-118110000D02*
X121285000Y-118110000D01*
X122713900Y-119300600D02*
X121523300Y-118110000D01*
X128346800Y-119300600D02*
X122713900Y-119300600D01*
X129537400Y-118110000D02*
X128346800Y-119300600D01*
X109973300Y-119261700D02*
X111125000Y-118110000D01*
X107196700Y-119261700D02*
X109973300Y-119261700D01*
X106045000Y-118110000D02*
X107196700Y-119261700D01*
X115053300Y-119261700D02*
X116205000Y-118110000D01*
X112276700Y-119261700D02*
X115053300Y-119261700D01*
X111125000Y-118110000D02*
X112276700Y-119261700D01*
X117356700Y-119261700D02*
X116205000Y-118110000D01*
X119389100Y-119261700D02*
X117356700Y-119261700D01*
X120540800Y-118110000D02*
X119389100Y-119261700D01*
X121285000Y-118110000D02*
X120540800Y-118110000D01*
X133220900Y-119296000D02*
X134406900Y-118110000D01*
X130723400Y-119296000D02*
X133220900Y-119296000D01*
X129537400Y-118110000D02*
X130723400Y-119296000D01*
X160020000Y-119838100D02*
X160020000Y-122870000D01*
X154239900Y-114058000D02*
X160020000Y-119838100D01*
X140327300Y-114058000D02*
X154239900Y-114058000D01*
X137545300Y-116840000D02*
X140327300Y-114058000D01*
X135676900Y-116840000D02*
X137545300Y-116840000D01*
X134406900Y-118110000D02*
X135676900Y-116840000D01*
%TO.N,/L13*%
X78105000Y-67230600D02*
X79206700Y-67230600D01*
X84995000Y-65500000D02*
X84995000Y-66476700D01*
X84995000Y-66476700D02*
X84995000Y-66523200D01*
X79914100Y-66523200D02*
X84995000Y-66523200D01*
X79206700Y-67230600D02*
X79914100Y-66523200D01*
X94332100Y-66523200D02*
X95039500Y-67230600D01*
X84995000Y-66523200D02*
X94332100Y-66523200D01*
X104944900Y-68410100D02*
X106045000Y-67310000D01*
X101299000Y-68410100D02*
X104944900Y-68410100D01*
X100119500Y-67230600D02*
X101299000Y-68410100D01*
X156592300Y-56470600D02*
X156668900Y-56547200D01*
X155651700Y-56470600D02*
X156592300Y-56470600D01*
X157570600Y-56547200D02*
X156668900Y-56547200D01*
X109973300Y-68461700D02*
X111125000Y-67310000D01*
X107196700Y-68461700D02*
X109973300Y-68461700D01*
X106045000Y-67310000D02*
X107196700Y-68461700D01*
X117356700Y-68461700D02*
X116205000Y-67310000D01*
X119844700Y-68461700D02*
X117356700Y-68461700D01*
X120996400Y-67310000D02*
X119844700Y-68461700D01*
X121285000Y-67310000D02*
X120996400Y-67310000D01*
X115053300Y-68461700D02*
X116205000Y-67310000D01*
X112276700Y-68461700D02*
X115053300Y-68461700D01*
X111125000Y-67310000D02*
X112276700Y-68461700D01*
X133255200Y-66158300D02*
X134406900Y-67310000D01*
X131600300Y-66158300D02*
X133255200Y-66158300D01*
X130448700Y-67309900D02*
X131600300Y-66158300D01*
X130448700Y-67310000D02*
X130448700Y-67309900D01*
X129537400Y-67310000D02*
X130448700Y-67310000D01*
X145627000Y-58788800D02*
X145627000Y-62981100D01*
X146982600Y-57433200D02*
X145627000Y-58788800D01*
X147390000Y-57433200D02*
X146982600Y-57433200D01*
X149078600Y-67513500D02*
X149085200Y-67520100D01*
X148647100Y-67945000D02*
X149078600Y-67513500D01*
X147450000Y-67945000D02*
X148647100Y-67945000D01*
X161365600Y-66437200D02*
X161365600Y-66025700D01*
X160324200Y-67478600D02*
X161365600Y-66437200D01*
X156110600Y-67478600D02*
X160324200Y-67478600D01*
X155651700Y-67019700D02*
X156110600Y-67478600D01*
%TO.N,/L17*%
X84995000Y-69500000D02*
X85971700Y-69500000D01*
X112282900Y-73547900D02*
X111125000Y-72390000D01*
X115047100Y-73547900D02*
X112282900Y-73547900D01*
X116205000Y-72390000D02*
X115047100Y-73547900D01*
X154323300Y-71125000D02*
X156858300Y-73660000D01*
X149841700Y-71125000D02*
X154323300Y-71125000D01*
X157485000Y-73660000D02*
X156858300Y-73660000D01*
X133246300Y-73550600D02*
X134406900Y-72390000D01*
X130698000Y-73550600D02*
X133246300Y-73550600D01*
X129537400Y-72390000D02*
X130698000Y-73550600D01*
X135671900Y-71125000D02*
X144126700Y-71125000D01*
X134406900Y-72390000D02*
X135671900Y-71125000D01*
X144126700Y-71125000D02*
X149841700Y-71125000D01*
X117395600Y-73580600D02*
X116205000Y-72390000D01*
X119831500Y-73580600D02*
X117395600Y-73580600D01*
X121022100Y-72390000D02*
X119831500Y-73580600D01*
X121285000Y-72390000D02*
X121022100Y-72390000D01*
X100676000Y-72310600D02*
X100119500Y-72310600D01*
X101845500Y-73480100D02*
X100676000Y-72310600D01*
X104111900Y-73480100D02*
X101845500Y-73480100D01*
X105202000Y-72390000D02*
X104111900Y-73480100D01*
X106045000Y-72390000D02*
X105202000Y-72390000D01*
X92460500Y-72310600D02*
X95039500Y-72310600D01*
X90649900Y-70500000D02*
X92460500Y-72310600D01*
X86566900Y-70500000D02*
X90649900Y-70500000D01*
X85971700Y-69904800D02*
X86566900Y-70500000D01*
X85971700Y-69500000D02*
X85971700Y-69904800D01*
X99833000Y-72310600D02*
X100119500Y-72310600D01*
X98661200Y-73482400D02*
X99833000Y-72310600D01*
X96211300Y-73482400D02*
X98661200Y-73482400D01*
X95039500Y-72310600D02*
X96211300Y-73482400D01*
%TO.N,/L19*%
X101292800Y-76023900D02*
X100119500Y-74850600D01*
X104951100Y-76023900D02*
X101292800Y-76023900D01*
X106045000Y-74930000D02*
X104951100Y-76023900D01*
X120710500Y-74930000D02*
X121285000Y-74930000D01*
X119511100Y-76129400D02*
X120710500Y-74930000D01*
X117404400Y-76129400D02*
X119511100Y-76129400D01*
X116205000Y-74930000D02*
X117404400Y-76129400D01*
X156658500Y-74310000D02*
X157485000Y-74310000D01*
X155373500Y-73025000D02*
X156658500Y-74310000D01*
X149841700Y-73025000D02*
X155373500Y-73025000D01*
X115019000Y-76116000D02*
X116205000Y-74930000D01*
X112311000Y-76116000D02*
X115019000Y-76116000D01*
X111125000Y-74930000D02*
X112311000Y-76116000D01*
X133216300Y-76120600D02*
X134406900Y-74930000D01*
X130728000Y-76120600D02*
X133216300Y-76120600D01*
X129537400Y-74930000D02*
X130728000Y-76120600D01*
X149841700Y-73025000D02*
X144126700Y-73025000D01*
X144126700Y-73025000D02*
X142875000Y-73025000D01*
X142319400Y-73580600D02*
X142875000Y-73025000D01*
X135756300Y-73580600D02*
X142319400Y-73580600D01*
X134406900Y-74930000D02*
X135756300Y-73580600D01*
X88956000Y-74850600D02*
X95039500Y-74850600D01*
X85971700Y-71866300D02*
X88956000Y-74850600D01*
X85971700Y-71500000D02*
X85971700Y-71866300D01*
X84995000Y-71500000D02*
X85971700Y-71500000D01*
%TO.N,/L16*%
X97579500Y-69770600D02*
X96427800Y-69770600D01*
X86995000Y-67500000D02*
X87971700Y-67500000D01*
X88970800Y-68499100D02*
X87971700Y-67500000D01*
X95804100Y-68499100D02*
X88970800Y-68499100D01*
X96427800Y-69122800D02*
X95804100Y-68499100D01*
X96427800Y-69770600D02*
X96427800Y-69122800D01*
X125056100Y-69770600D02*
X124976700Y-69850000D01*
X126365000Y-69770600D02*
X125056100Y-69770600D01*
X123825000Y-69850000D02*
X124976700Y-69850000D01*
X122673300Y-69204100D02*
X122673300Y-69850000D01*
X122128600Y-68659400D02*
X122673300Y-69204100D01*
X120494000Y-68659400D02*
X122128600Y-68659400D01*
X119896700Y-69256700D02*
X120494000Y-68659400D01*
X119896700Y-69850000D02*
X119896700Y-69256700D01*
X118745000Y-69850000D02*
X119896700Y-69850000D01*
X123825000Y-69850000D02*
X122673300Y-69850000D01*
X151765000Y-69850000D02*
X152400000Y-69215000D01*
X136946900Y-69850000D02*
X151765000Y-69850000D01*
X162347500Y-63423200D02*
X162375100Y-63423200D01*
X162347500Y-63543800D02*
X162347500Y-63423200D01*
X161590600Y-64300700D02*
X162347500Y-63543800D01*
X162770600Y-57182200D02*
X161868900Y-57182200D01*
X152401100Y-58764300D02*
X152340000Y-58703200D01*
X161868900Y-58764300D02*
X152401100Y-58764300D01*
X161868900Y-62944600D02*
X161868900Y-58764300D01*
X162347500Y-63423200D02*
X161868900Y-62944600D01*
X161868900Y-58764300D02*
X161868900Y-57182200D01*
%TO.N,/L68*%
X118745000Y-135890000D02*
X119896700Y-135890000D01*
X123825000Y-135890000D02*
X122839600Y-135890000D01*
X119896700Y-135244100D02*
X119896700Y-135890000D01*
X120441400Y-134699400D02*
X119896700Y-135244100D01*
X122084600Y-134699400D02*
X120441400Y-134699400D01*
X122839600Y-135454400D02*
X122084600Y-134699400D01*
X122839600Y-135890000D02*
X122839600Y-135454400D01*
%TO.N,/L70*%
X153825000Y-135350000D02*
X151765000Y-135350000D01*
X156535000Y-138060000D02*
X153825000Y-135350000D01*
X102659500Y-138350600D02*
X103811200Y-138350600D01*
X108585000Y-138430000D02*
X107433300Y-138430000D01*
X109736700Y-139075900D02*
X109736700Y-138430000D01*
X110259100Y-139598300D02*
X109736700Y-139075900D01*
X111992800Y-139598300D02*
X110259100Y-139598300D01*
X112513300Y-139077800D02*
X111992800Y-139598300D01*
X112513300Y-138430000D02*
X112513300Y-139077800D01*
X113665000Y-138430000D02*
X112513300Y-138430000D01*
X108585000Y-138430000D02*
X109736700Y-138430000D01*
X107433300Y-137784100D02*
X107433300Y-138430000D01*
X106919100Y-137269900D02*
X107433300Y-137784100D01*
X104891900Y-137269900D02*
X106919100Y-137269900D01*
X103811200Y-138350600D02*
X104891900Y-137269900D01*
X149055000Y-138060000D02*
X151765000Y-135350000D01*
X144495000Y-138060000D02*
X149055000Y-138060000D01*
%TO.N,/L3*%
X83048900Y-54530600D02*
X84018300Y-55500000D01*
X78105000Y-54530600D02*
X83048900Y-54530600D01*
X84995000Y-55500000D02*
X84018300Y-55500000D01*
X157570600Y-53372200D02*
X158672600Y-53372200D01*
X160365600Y-63101000D02*
X159160900Y-61896300D01*
X160365600Y-63575700D02*
X160365600Y-63101000D01*
X158224600Y-60960000D02*
X159160900Y-61896300D01*
X148085000Y-60960000D02*
X158224600Y-60960000D01*
X147450000Y-61595000D02*
X148085000Y-60960000D01*
X104789400Y-54610000D02*
X106045000Y-54610000D01*
X103704300Y-55695100D02*
X104789400Y-54610000D01*
X101284000Y-55695100D02*
X103704300Y-55695100D01*
X100119500Y-54530600D02*
X101284000Y-55695100D01*
X133706200Y-54610000D02*
X134406900Y-54610000D01*
X132554500Y-53458300D02*
X133706200Y-54610000D01*
X131600300Y-53458300D02*
X132554500Y-53458300D01*
X130448600Y-54610000D02*
X131600300Y-53458300D01*
X129537400Y-54610000D02*
X130448600Y-54610000D01*
X120844400Y-54610000D02*
X121285000Y-54610000D01*
X119654600Y-55799800D02*
X120844400Y-54610000D01*
X117394800Y-55799800D02*
X119654600Y-55799800D01*
X116205000Y-54610000D02*
X117394800Y-55799800D01*
X144539200Y-51083200D02*
X147390000Y-51083200D01*
X142400700Y-53221700D02*
X144539200Y-51083200D01*
X136055400Y-53221700D02*
X142400700Y-53221700D01*
X134667100Y-54610000D02*
X136055400Y-53221700D01*
X134406900Y-54610000D02*
X134667100Y-54610000D01*
X147390000Y-51083200D02*
X150851400Y-51083200D01*
%TO.N,/L6*%
X102659500Y-57070600D02*
X103811200Y-57070600D01*
X108585000Y-57150000D02*
X107433300Y-57150000D01*
X125056100Y-57070600D02*
X124976700Y-57150000D01*
X126365000Y-57070600D02*
X125056100Y-57070600D01*
X123825000Y-57150000D02*
X124976700Y-57150000D01*
X118745000Y-57150000D02*
X119896700Y-57150000D01*
X123825000Y-57150000D02*
X122673300Y-57150000D01*
X162770600Y-54007200D02*
X161868900Y-54007200D01*
X107433300Y-56504100D02*
X107433300Y-57150000D01*
X106919100Y-55989900D02*
X107433300Y-56504100D01*
X104891900Y-55989900D02*
X106919100Y-55989900D01*
X103811200Y-57070600D02*
X104891900Y-55989900D01*
X157704900Y-62865000D02*
X159140600Y-64300700D01*
X152400000Y-62865000D02*
X157704900Y-62865000D01*
X122673300Y-56504100D02*
X122673300Y-57150000D01*
X122128600Y-55959400D02*
X122673300Y-56504100D01*
X120489100Y-55959400D02*
X122128600Y-55959400D01*
X119896700Y-56551800D02*
X120489100Y-55959400D01*
X119896700Y-57150000D02*
X119896700Y-56551800D01*
X151011000Y-62865000D02*
X152400000Y-62865000D01*
X150608300Y-62462300D02*
X151011000Y-62865000D01*
X152738300Y-51954900D02*
X152340000Y-52353200D01*
X159816600Y-51954900D02*
X152738300Y-51954900D01*
X161868900Y-54007200D02*
X159816600Y-51954900D01*
X150690300Y-52353200D02*
X150668300Y-52375200D01*
X152340000Y-52353200D02*
X150690300Y-52353200D01*
%TO.N,/L34*%
X130925700Y-92064100D02*
X130925700Y-92710000D01*
X130418900Y-91557300D02*
X130925700Y-92064100D01*
X128708600Y-91557300D02*
X130418900Y-91557300D01*
X127555900Y-92710000D02*
X128708600Y-91557300D01*
X123825000Y-92710000D02*
X127555900Y-92710000D01*
X132077400Y-92710000D02*
X130925700Y-92710000D01*
X87463900Y-88725000D02*
X89755400Y-91016500D01*
X85725000Y-88725000D02*
X87463900Y-88725000D01*
X98731200Y-93276500D02*
X98731200Y-92630600D01*
X99275900Y-93821200D02*
X98731200Y-93276500D01*
X100914200Y-93821200D02*
X99275900Y-93821200D01*
X101507800Y-93227600D02*
X100914200Y-93821200D01*
X101507800Y-92630600D02*
X101507800Y-93227600D01*
X102659500Y-92630600D02*
X101507800Y-92630600D01*
X97579500Y-92630600D02*
X98731200Y-92630600D01*
%TO.N,/L37*%
X141865500Y-98504400D02*
X141865500Y-97521300D01*
X141865500Y-97521300D02*
X141865500Y-97452700D01*
X84725000Y-90725000D02*
X83998300Y-90725000D01*
X78105000Y-96690600D02*
X78105000Y-95588900D01*
X135560300Y-96636600D02*
X134406900Y-97790000D01*
X139049800Y-96636600D02*
X135560300Y-96636600D01*
X139865900Y-97452700D02*
X139049800Y-96636600D01*
X141865500Y-97452700D02*
X139865900Y-97452700D01*
X148165500Y-98504400D02*
X148165500Y-96469000D01*
X147181800Y-97452700D02*
X148165500Y-96469000D01*
X141865500Y-97452700D02*
X147181800Y-97452700D01*
X79134400Y-95588900D02*
X78105000Y-95588900D01*
X83998300Y-90725000D02*
X79134400Y-95588900D01*
X117356700Y-98941700D02*
X116205000Y-97790000D01*
X119844700Y-98941700D02*
X117356700Y-98941700D01*
X120996400Y-97790000D02*
X119844700Y-98941700D01*
X121285000Y-97790000D02*
X120996400Y-97790000D01*
X104775000Y-96520000D02*
X106045000Y-97790000D01*
X101412000Y-96520000D02*
X104775000Y-96520000D01*
X100221400Y-97710600D02*
X101412000Y-96520000D01*
X100119500Y-97710600D02*
X100221400Y-97710600D01*
X112276700Y-98941700D02*
X111125000Y-97790000D01*
X115053300Y-98941700D02*
X112276700Y-98941700D01*
X116205000Y-97790000D02*
X115053300Y-98941700D01*
X109973300Y-98941700D02*
X111125000Y-97790000D01*
X107196700Y-98941700D02*
X109973300Y-98941700D01*
X106045000Y-97790000D02*
X107196700Y-98941700D01*
%TO.N,/L21*%
X144126700Y-75570000D02*
X149841700Y-75570000D01*
X157485000Y-74960000D02*
X156858300Y-74960000D01*
X112282900Y-78627900D02*
X111125000Y-77470000D01*
X115047100Y-78627900D02*
X112282900Y-78627900D01*
X116205000Y-77470000D02*
X115047100Y-78627900D01*
X156248300Y-75570000D02*
X151093400Y-75570000D01*
X156858300Y-74960000D02*
X156248300Y-75570000D01*
X149841700Y-75570000D02*
X151093400Y-75570000D01*
X79206700Y-76480000D02*
X84725000Y-81998300D01*
X79206700Y-76370600D02*
X79206700Y-76480000D01*
X78105000Y-76370600D02*
X79206700Y-76370600D01*
X84725000Y-82725000D02*
X84725000Y-81998300D01*
X98928900Y-76200000D02*
X100119500Y-77390600D01*
X96230100Y-76200000D02*
X98928900Y-76200000D01*
X95039500Y-77390600D02*
X96230100Y-76200000D01*
X104789400Y-77470000D02*
X106045000Y-77470000D01*
X103704300Y-78555100D02*
X104789400Y-77470000D01*
X101284000Y-78555100D02*
X103704300Y-78555100D01*
X100119500Y-77390600D02*
X101284000Y-78555100D01*
X109934400Y-76279400D02*
X111125000Y-77470000D01*
X107235600Y-76279400D02*
X109934400Y-76279400D01*
X106045000Y-77470000D02*
X107235600Y-76279400D01*
X133216300Y-78660600D02*
X134406900Y-77470000D01*
X130728000Y-78660600D02*
X133216300Y-78660600D01*
X129537400Y-77470000D02*
X130728000Y-78660600D01*
X142325200Y-76119800D02*
X142875000Y-75570000D01*
X135757100Y-76119800D02*
X142325200Y-76119800D01*
X134406900Y-77470000D02*
X135757100Y-76119800D01*
X144126700Y-75570000D02*
X142875000Y-75570000D01*
%TO.N,/L45*%
X146212900Y-109103700D02*
X146305500Y-109011100D01*
X135560600Y-109103700D02*
X146212900Y-109103700D01*
X134406900Y-107950000D02*
X135560600Y-109103700D01*
X146305500Y-108259400D02*
X146305500Y-109011100D01*
X104963400Y-109031600D02*
X106045000Y-107950000D01*
X101280500Y-109031600D02*
X104963400Y-109031600D01*
X100119500Y-107870600D02*
X101280500Y-109031600D01*
X109973300Y-109101700D02*
X111125000Y-107950000D01*
X107196700Y-109101700D02*
X109973300Y-109101700D01*
X106045000Y-107950000D02*
X107196700Y-109101700D01*
X117395600Y-109140600D02*
X116205000Y-107950000D01*
X119831700Y-109140600D02*
X117395600Y-109140600D01*
X121022300Y-107950000D02*
X119831700Y-109140600D01*
X121285000Y-107950000D02*
X121022300Y-107950000D01*
X112276700Y-109101700D02*
X111125000Y-107950000D01*
X115053300Y-109101700D02*
X112276700Y-109101700D01*
X116205000Y-107950000D02*
X115053300Y-109101700D01*
X95039500Y-107870600D02*
X87927400Y-107870600D01*
%TO.N,/L51*%
X133216300Y-116760600D02*
X134406900Y-115570000D01*
X130728000Y-116760600D02*
X133216300Y-116760600D01*
X129537400Y-115570000D02*
X130728000Y-116760600D01*
X109988700Y-116721700D02*
X111125000Y-115585400D01*
X108107900Y-116721700D02*
X109988700Y-116721700D01*
X106956300Y-115570100D02*
X108107900Y-116721700D01*
X106956300Y-115570000D02*
X106956300Y-115570100D01*
X106045000Y-115570000D02*
X106956300Y-115570000D01*
X111125000Y-115585400D02*
X111125000Y-115570000D01*
X115019300Y-116755700D02*
X116205000Y-115570000D01*
X112295300Y-116755700D02*
X115019300Y-116755700D01*
X111125000Y-115585400D02*
X112295300Y-116755700D01*
X117404400Y-116769400D02*
X116205000Y-115570000D01*
X119499200Y-116769400D02*
X117404400Y-116769400D01*
X120698600Y-115570000D02*
X119499200Y-116769400D01*
X121285000Y-115570000D02*
X120698600Y-115570000D01*
X135676900Y-114300000D02*
X134406900Y-115570000D01*
X139461500Y-114300000D02*
X135676900Y-114300000D01*
X140105200Y-113656300D02*
X139461500Y-114300000D01*
X158106300Y-113656300D02*
X140105200Y-113656300D01*
X160020000Y-115570000D02*
X158106300Y-113656300D01*
%TD*%
M02*
