M48
; DRILL file {KiCad 8.0.0-rc2-429-g037f349585} date 2024-02-09T22:22:23+0100
; FORMAT={-:-/ absolute / inch / decimal}
; #@! TF.CreationDate,2024-02-09T22:22:23+01:00
; #@! TF.GenerationSoftware,Kicad,Pcbnew,8.0.0-rc2-429-g037f349585
; #@! TF.FileFunction,Plated,1,2,PTH
FMAT,2
INCH
; #@! TA.AperFunction,Plated,PTH,ViaDrill
T1C0.0118
; #@! TA.AperFunction,Plated,PTH,ComponentDrill
T2C0.0118
; #@! TA.AperFunction,Plated,PTH,ComponentDrill
T3C0.0197
; #@! TA.AperFunction,Plated,PTH,ComponentDrill
T4C0.0256
; #@! TA.AperFunction,Plated,PTH,ComponentDrill
T5C0.0315
; #@! TA.AperFunction,Plated,PTH,ComponentDrill
T6C0.0362
; #@! TA.AperFunction,Plated,PTH,ComponentDrill
T7C0.0394
; #@! TA.AperFunction,Plated,PTH,ComponentDrill
T8C0.0598
; #@! TA.AperFunction,Plated,PTH,ComponentDrill
T9C0.0917
%
G90
G05
T1
X3.3293Y-4.1502
X3.3439Y-3.1854
X3.3989Y-4.1163
X3.4617Y-4.2469
X3.4689Y-4.7038
X3.5337Y-3.5833
X3.5509Y-4.6762
X3.6248Y-4.6416
X5.4471Y-2.4249
X5.5372Y-2.4208
X5.6142Y-4.9118
X5.7068Y-2.4977
X5.7333Y-2.4796
X5.7461Y-2.6143
X5.8634Y-4.9965
X5.8645Y-2.375
X5.8695Y-2.6583
X5.8793Y-2.4249
X5.8818Y-2.3021
X5.9295Y-2.4591
X5.9318Y-2.062
X5.9367Y-2.5225
X5.939Y-2.0111
X5.9399Y-2.625
X5.982Y-3.782
X5.9929Y-3.7024
X6.0558Y-2.2115
X6.0796Y-2.1111
X6.0854Y-2.2712
X6.0869Y-2.1611
X6.128Y-2.2233
X6.128Y-2.6386
X6.1307Y-2.0694
X6.1675Y-2.575
X6.1881Y-3.2407
X6.2065Y-2.9804
X6.2168Y-2.6117
X6.2328Y-2.8941
X6.2328Y-3.1557
X6.247Y-2.1013
X6.2489Y-2.236
X6.2621Y-2.1552
X6.2662Y-2.4369
X6.2704Y-2.2002
X6.2963Y-2.5639
X6.3133Y-2.2534
X6.3927Y-2.497
X6.4177Y-2.4773
T2
X5.6827Y-4.9541
X5.6827Y-5.0014
X5.6827Y-5.0526
X5.6827Y-5.0959
X5.7299Y-4.9541
X5.7299Y-5.0014
X5.7299Y-5.0526
X5.7299Y-5.0959
T3
X3.3356Y-3.2569
X3.3356Y-3.2963
X3.3356Y-3.3356
X3.3356Y-3.375
X3.3356Y-3.4144
X3.3356Y-3.4537
X3.3356Y-3.4931
X3.3356Y-3.5325
X3.3356Y-3.5719
X3.3356Y-3.6112
X3.375Y-3.2569
X3.375Y-3.2963
X3.375Y-3.3356
X3.375Y-3.375
X3.375Y-3.4144
X3.375Y-3.4537
X3.375Y-3.4931
X3.375Y-3.5325
X3.375Y-3.5719
X3.375Y-3.6112
T4
X3.325Y-4.225
X3.325Y-4.275
X3.325Y-4.325
X3.325Y-4.375
X3.325Y-4.425
X3.325Y-4.475
X3.325Y-4.525
X3.325Y-4.575
X3.325Y-4.625
X3.325Y-4.675
X3.375Y-4.225
X3.375Y-4.275
X3.375Y-4.325
X3.375Y-4.375
X3.375Y-4.425
X3.375Y-4.475
X3.375Y-4.525
X3.375Y-4.575
X3.375Y-4.625
X3.375Y-4.675
T5
X3.3463Y-2.1063
X3.3463Y-2.185
X3.3463Y-2.2638
X3.3463Y-2.3425
X3.3463Y-2.4213
X3.3463Y-2.5
X3.3463Y-2.5787
X3.3463Y-2.6575
X3.3463Y-2.7362
X3.3463Y-2.815
X3.425Y-2.1063
X3.425Y-2.185
X3.425Y-2.2638
X3.425Y-2.3425
X3.425Y-2.4213
X3.425Y-2.5
X3.425Y-2.5787
X3.425Y-2.6575
X3.425Y-2.7362
X3.425Y-2.815
T6
X5.8766Y-5.25
X5.8766Y-5.3287
X5.975Y-5.25
X5.975Y-5.3287
T7
X3.075Y-2.0469
X3.075Y-2.1469
X3.075Y-2.2469
X3.075Y-2.3469
X3.075Y-2.4469
X3.075Y-2.5469
X3.075Y-2.6469
X3.075Y-2.7469
X3.075Y-2.9067
X3.075Y-3.0067
X3.075Y-3.1067
X3.075Y-3.2067
X3.075Y-3.3067
X3.075Y-3.4067
X3.075Y-3.5067
X3.075Y-3.6067
X3.075Y-3.7067
X3.075Y-3.8067
X3.7417Y-2.0469
X3.7417Y-2.1469
X3.7417Y-2.2469
X3.7417Y-2.3469
X3.7417Y-2.4469
X3.7417Y-2.5469
X3.7417Y-2.6469
X3.7417Y-2.7469
X3.7417Y-2.8469
X3.7417Y-2.9469
X3.7417Y-3.0469
X3.7417Y-3.1469
X3.7417Y-3.2469
X3.7417Y-3.3469
X3.7417Y-3.4469
X3.7417Y-3.5469
X3.7417Y-3.6469
X3.7417Y-3.7469
X3.7417Y-3.8469
X3.7417Y-3.9469
X3.7417Y-4.0469
X3.7417Y-4.1469
X3.7417Y-4.2469
X3.7417Y-4.3469
X3.7417Y-4.4469
X3.7417Y-4.5469
X3.7417Y-4.6469
X3.7417Y-4.7469
X3.7417Y-4.8469
X3.7417Y-4.9469
X3.7417Y-5.0469
X3.7417Y-5.1469
X3.7417Y-5.2469
X3.7417Y-5.3469
X3.7417Y-5.4469
X3.8417Y-2.0469
X3.8417Y-2.1469
X3.8417Y-2.2469
X3.8417Y-2.3469
X3.8417Y-2.4469
X3.8417Y-2.5469
X3.8417Y-2.6469
X3.8417Y-2.7469
X3.8417Y-2.8469
X3.8417Y-2.9469
X3.8417Y-3.0469
X3.8417Y-3.1469
X3.8417Y-3.2469
X3.8417Y-3.3469
X3.8417Y-3.4469
X3.8417Y-3.5469
X3.8417Y-3.6469
X3.8417Y-3.7469
X3.8417Y-3.8469
X3.8417Y-3.9469
X3.8417Y-4.0469
X3.8417Y-4.1469
X3.8417Y-4.2469
X3.8417Y-4.3469
X3.8417Y-4.4469
X3.8417Y-4.5469
X3.8417Y-4.6469
X3.8417Y-4.7469
X3.8417Y-4.8469
X3.8417Y-4.9469
X3.8417Y-5.0469
X3.8417Y-5.1469
X3.8417Y-5.2469
X3.8417Y-5.3469
X3.8417Y-5.4469
X3.9417Y-2.0469
X3.9417Y-2.1469
X3.9417Y-2.2469
X3.9417Y-2.3469
X3.9417Y-2.4469
X3.9417Y-2.5469
X3.9417Y-2.6469
X3.9417Y-2.7469
X3.9417Y-2.8469
X3.9417Y-2.9469
X3.9417Y-3.0469
X3.9417Y-3.1469
X3.9417Y-3.2469
X3.9417Y-3.3469
X3.9417Y-3.4469
X3.9417Y-3.5469
X3.9417Y-3.6469
X3.9417Y-3.7469
X3.9417Y-3.8469
X3.9417Y-3.9469
X3.9417Y-4.0469
X3.9417Y-4.1469
X3.9417Y-4.2469
X3.9417Y-4.3469
X3.9417Y-4.4469
X3.9417Y-4.5469
X3.9417Y-4.6469
X3.9417Y-4.7469
X3.9417Y-4.8469
X3.9417Y-4.9469
X3.9417Y-5.0469
X3.9417Y-5.1469
X3.9417Y-5.2469
X3.9417Y-5.3469
X3.9417Y-5.4469
X4.0417Y-2.0469
X4.0417Y-2.1469
X4.0417Y-2.2469
X4.0417Y-2.3469
X4.0417Y-2.4469
X4.0417Y-2.5469
X4.0417Y-2.6469
X4.0417Y-2.7469
X4.0417Y-2.8469
X4.0417Y-2.9469
X4.0417Y-3.0469
X4.0417Y-3.1469
X4.0417Y-3.2469
X4.0417Y-3.3469
X4.0417Y-3.4469
X4.0417Y-3.5469
X4.0417Y-3.6469
X4.0417Y-3.7469
X4.0417Y-3.8469
X4.0417Y-3.9469
X4.0417Y-4.0469
X4.0417Y-4.1469
X4.0417Y-4.2469
X4.0417Y-4.3469
X4.0417Y-4.4469
X4.0417Y-4.5469
X4.0417Y-4.6469
X4.0417Y-4.7469
X4.0417Y-4.8469
X4.0417Y-4.9469
X4.0417Y-5.0469
X4.0417Y-5.1469
X4.0417Y-5.2469
X4.0417Y-5.3469
X4.0417Y-5.4469
X4.175Y-2.05
X4.175Y-2.15
X4.175Y-2.25
X4.175Y-2.35
X4.175Y-2.45
X4.175Y-2.55
X4.175Y-2.65
X4.175Y-2.75
X4.175Y-2.85
X4.175Y-2.95
X4.175Y-3.05
X4.175Y-3.15
X4.175Y-3.25
X4.175Y-3.35
X4.175Y-3.45
X4.175Y-3.55
X4.175Y-3.65
X4.175Y-3.75
X4.175Y-3.85
X4.175Y-3.95
X4.175Y-4.05
X4.175Y-4.15
X4.175Y-4.25
X4.175Y-4.35
X4.175Y-4.45
X4.175Y-4.55
X4.175Y-4.65
X4.175Y-4.75
X4.175Y-4.85
X4.175Y-4.95
X4.175Y-5.05
X4.175Y-5.15
X4.175Y-5.25
X4.175Y-5.35
X4.175Y-5.45
X4.275Y-2.05
X4.275Y-2.15
X4.275Y-2.25
X4.275Y-2.35
X4.275Y-2.45
X4.275Y-2.55
X4.275Y-2.65
X4.275Y-2.75
X4.275Y-2.85
X4.275Y-2.95
X4.275Y-3.05
X4.275Y-3.15
X4.275Y-3.25
X4.275Y-3.35
X4.275Y-3.45
X4.275Y-3.55
X4.275Y-3.65
X4.275Y-3.75
X4.275Y-3.85
X4.275Y-3.95
X4.275Y-4.05
X4.275Y-4.15
X4.275Y-4.25
X4.275Y-4.35
X4.275Y-4.45
X4.275Y-4.55
X4.275Y-4.65
X4.275Y-4.75
X4.275Y-4.85
X4.275Y-4.95
X4.275Y-5.05
X4.275Y-5.15
X4.275Y-5.25
X4.275Y-5.35
X4.275Y-5.45
X4.375Y-2.05
X4.375Y-2.15
X4.375Y-2.25
X4.375Y-2.35
X4.375Y-2.45
X4.375Y-2.55
X4.375Y-2.65
X4.375Y-2.75
X4.375Y-2.85
X4.375Y-2.95
X4.375Y-3.05
X4.375Y-3.15
X4.375Y-3.25
X4.375Y-3.35
X4.375Y-3.45
X4.375Y-3.55
X4.375Y-3.65
X4.375Y-3.75
X4.375Y-3.85
X4.375Y-3.95
X4.375Y-4.05
X4.375Y-4.15
X4.375Y-4.25
X4.375Y-4.35
X4.375Y-4.45
X4.375Y-4.55
X4.375Y-4.65
X4.375Y-4.75
X4.375Y-4.85
X4.375Y-4.95
X4.375Y-5.05
X4.375Y-5.15
X4.375Y-5.25
X4.375Y-5.35
X4.375Y-5.45
X4.475Y-2.05
X4.475Y-2.15
X4.475Y-2.25
X4.475Y-2.35
X4.475Y-2.45
X4.475Y-2.55
X4.475Y-2.65
X4.475Y-2.75
X4.475Y-2.85
X4.475Y-2.95
X4.475Y-3.05
X4.475Y-3.15
X4.475Y-3.25
X4.475Y-3.35
X4.475Y-3.45
X4.475Y-3.55
X4.475Y-3.65
X4.475Y-3.75
X4.475Y-3.85
X4.475Y-3.95
X4.475Y-4.05
X4.475Y-4.15
X4.475Y-4.25
X4.475Y-4.35
X4.475Y-4.45
X4.475Y-4.55
X4.475Y-4.65
X4.475Y-4.75
X4.475Y-4.85
X4.475Y-4.95
X4.475Y-5.05
X4.475Y-5.15
X4.475Y-5.25
X4.475Y-5.35
X4.475Y-5.45
X4.575Y-2.05
X4.575Y-2.15
X4.575Y-2.25
X4.575Y-2.35
X4.575Y-2.45
X4.575Y-2.55
X4.575Y-2.65
X4.575Y-2.75
X4.575Y-2.85
X4.575Y-2.95
X4.575Y-3.05
X4.575Y-3.15
X4.575Y-3.25
X4.575Y-3.35
X4.575Y-3.45
X4.575Y-3.55
X4.575Y-3.65
X4.575Y-3.75
X4.575Y-3.85
X4.575Y-3.95
X4.575Y-4.05
X4.575Y-4.15
X4.575Y-4.25
X4.575Y-4.35
X4.575Y-4.45
X4.575Y-4.55
X4.575Y-4.65
X4.575Y-4.75
X4.575Y-4.85
X4.575Y-4.95
X4.575Y-5.05
X4.575Y-5.15
X4.575Y-5.25
X4.575Y-5.35
X4.575Y-5.45
X4.675Y-2.05
X4.675Y-2.15
X4.675Y-2.25
X4.675Y-2.35
X4.675Y-2.45
X4.675Y-2.55
X4.675Y-2.65
X4.675Y-2.75
X4.675Y-2.85
X4.675Y-2.95
X4.675Y-3.05
X4.675Y-3.15
X4.675Y-3.25
X4.675Y-3.35
X4.675Y-3.45
X4.675Y-3.55
X4.675Y-3.65
X4.675Y-3.75
X4.675Y-3.85
X4.675Y-3.95
X4.675Y-4.05
X4.675Y-4.15
X4.675Y-4.25
X4.675Y-4.35
X4.675Y-4.45
X4.675Y-4.55
X4.675Y-4.65
X4.675Y-4.75
X4.675Y-4.85
X4.675Y-4.95
X4.675Y-5.05
X4.675Y-5.15
X4.675Y-5.25
X4.675Y-5.35
X4.675Y-5.45
X4.775Y-2.05
X4.775Y-2.15
X4.775Y-2.25
X4.775Y-2.35
X4.775Y-2.45
X4.775Y-2.55
X4.775Y-2.65
X4.775Y-2.75
X4.775Y-2.85
X4.775Y-2.95
X4.775Y-3.05
X4.775Y-3.15
X4.775Y-3.25
X4.775Y-3.35
X4.775Y-3.45
X4.775Y-3.55
X4.775Y-3.65
X4.775Y-3.75
X4.775Y-3.85
X4.775Y-3.95
X4.775Y-4.05
X4.775Y-4.15
X4.775Y-4.25
X4.775Y-4.35
X4.775Y-4.45
X4.775Y-4.55
X4.775Y-4.65
X4.775Y-4.75
X4.775Y-4.85
X4.775Y-4.95
X4.775Y-5.05
X4.775Y-5.15
X4.775Y-5.25
X4.775Y-5.35
X4.775Y-5.45
X4.875Y-2.05
X4.875Y-2.15
X4.875Y-2.25
X4.875Y-2.35
X4.875Y-2.45
X4.875Y-2.55
X4.875Y-2.65
X4.875Y-2.75
X4.875Y-2.85
X4.875Y-2.95
X4.875Y-3.05
X4.875Y-3.15
X4.875Y-3.25
X4.875Y-3.35
X4.875Y-3.45
X4.875Y-3.55
X4.875Y-3.65
X4.875Y-3.75
X4.875Y-3.85
X4.875Y-3.95
X4.875Y-4.05
X4.875Y-4.15
X4.875Y-4.25
X4.875Y-4.35
X4.875Y-4.45
X4.875Y-4.55
X4.875Y-4.65
X4.875Y-4.75
X4.875Y-4.85
X4.875Y-4.95
X4.875Y-5.05
X4.875Y-5.15
X4.875Y-5.25
X4.875Y-5.35
X4.875Y-5.45
X4.975Y-2.0469
X4.975Y-2.1469
X4.975Y-2.2469
X4.975Y-2.3469
X4.975Y-2.4469
X4.975Y-2.5469
X4.975Y-2.7469
X4.975Y-2.8469
X4.975Y-2.9469
X4.975Y-3.0469
X4.975Y-3.1469
X4.975Y-3.2469
X4.975Y-3.3469
X4.975Y-3.4469
X5.0999Y-2.05
X5.0999Y-2.15
X5.0999Y-2.25
X5.0999Y-2.35
X5.0999Y-2.45
X5.0999Y-2.55
X5.0999Y-2.65
X5.0999Y-2.75
X5.0999Y-2.85
X5.0999Y-2.95
X5.0999Y-3.05
X5.0999Y-3.15
X5.0999Y-3.25
X5.0999Y-3.35
X5.0999Y-3.45
X5.0999Y-3.55
X5.0999Y-3.65
X5.0999Y-3.75
X5.0999Y-3.85
X5.0999Y-3.95
X5.0999Y-4.05
X5.0999Y-4.15
X5.0999Y-4.25
X5.0999Y-4.35
X5.0999Y-4.45
X5.0999Y-4.55
X5.0999Y-4.65
X5.0999Y-4.75
X5.0999Y-4.85
X5.0999Y-4.95
X5.0999Y-5.05
X5.0999Y-5.15
X5.0999Y-5.25
X5.0999Y-5.35
X5.0999Y-5.45
X5.1999Y-2.05
X5.1999Y-2.15
X5.1999Y-2.25
X5.1999Y-2.35
X5.1999Y-2.45
X5.1999Y-2.55
X5.1999Y-2.65
X5.1999Y-2.75
X5.1999Y-2.85
X5.1999Y-2.95
X5.1999Y-3.05
X5.1999Y-3.15
X5.1999Y-3.25
X5.1999Y-3.35
X5.1999Y-3.45
X5.1999Y-3.55
X5.1999Y-3.65
X5.1999Y-3.75
X5.1999Y-3.85
X5.1999Y-3.95
X5.1999Y-4.05
X5.1999Y-4.15
X5.1999Y-4.25
X5.1999Y-4.35
X5.1999Y-4.45
X5.1999Y-4.55
X5.1999Y-4.65
X5.1999Y-4.75
X5.1999Y-4.85
X5.1999Y-4.95
X5.1999Y-5.05
X5.1999Y-5.15
X5.1999Y-5.25
X5.1999Y-5.35
X5.1999Y-5.45
X5.2916Y-2.05
X5.2916Y-2.15
X5.2916Y-2.25
X5.2916Y-2.35
X5.2916Y-2.45
X5.2916Y-2.55
X5.2916Y-2.65
X5.2916Y-2.75
X5.2916Y-2.85
X5.2916Y-2.95
X5.2916Y-3.05
X5.2916Y-3.15
X5.2916Y-3.25
X5.2916Y-3.35
X5.2916Y-3.45
X5.2916Y-3.55
X5.2916Y-3.65
X5.2916Y-3.75
X5.2916Y-3.85
X5.2916Y-3.95
X5.2916Y-4.05
X5.2916Y-4.15
X5.2916Y-4.25
X5.2916Y-4.35
X5.2916Y-4.45
X5.2916Y-4.55
X5.2916Y-4.65
X5.2916Y-4.75
X5.2916Y-4.85
X5.2916Y-4.95
X5.2916Y-5.05
X5.2916Y-5.15
X5.2916Y-5.25
X5.2916Y-5.35
X5.2916Y-5.45
X5.3916Y-2.05
X5.3916Y-2.15
X5.3916Y-2.25
X5.3916Y-2.35
X5.3916Y-2.45
X5.3916Y-2.55
X5.3916Y-2.65
X5.3916Y-2.75
X5.3916Y-2.85
X5.3916Y-2.95
X5.3916Y-3.05
X5.3916Y-3.15
X5.3916Y-3.25
X5.3916Y-3.35
X5.3916Y-3.45
X5.3916Y-3.55
X5.3916Y-3.65
X5.3916Y-3.75
X5.3916Y-3.85
X5.3916Y-3.95
X5.3916Y-4.05
X5.3916Y-4.15
X5.3916Y-4.25
X5.3916Y-4.35
X5.3916Y-4.45
X5.3916Y-4.55
X5.3916Y-4.65
X5.3916Y-4.75
X5.3916Y-4.85
X5.3916Y-4.95
X5.3916Y-5.05
X5.3916Y-5.15
X5.3916Y-5.25
X5.3916Y-5.35
X5.3916Y-5.45
T8
X6.6344Y-3.4252
X6.6344Y-3.6252
T9
X5.6888Y-5.4354
X6.1628Y-5.4354
M30
