%TF.GenerationSoftware,KiCad,Pcbnew,8.0.0-rc2-429-g037f349585*%
%TF.CreationDate,2024-02-09T22:22:20+01:00*%
%TF.ProjectId,xDuinoRail-Protoboard,78447569-6e6f-4526-9169-6c2d50726f74,rev?*%
%TF.SameCoordinates,Original*%
%TF.FileFunction,Legend,Top*%
%TF.FilePolarity,Positive*%
%FSLAX46Y46*%
G04 Gerber Fmt 4.6, Leading zero omitted, Abs format (unit mm)*
G04 Created by KiCad (PCBNEW 8.0.0-rc2-429-g037f349585) date 2024-02-09 22:22:20*
%MOMM*%
%LPD*%
G01*
G04 APERTURE LIST*
%ADD10C,0.150000*%
%ADD11C,0.120000*%
G04 APERTURE END LIST*
D10*
X150599819Y-128150714D02*
X151314104Y-128150714D01*
X151314104Y-128150714D02*
X151456961Y-128198333D01*
X151456961Y-128198333D02*
X151552200Y-128293571D01*
X151552200Y-128293571D02*
X151599819Y-128436428D01*
X151599819Y-128436428D02*
X151599819Y-128531666D01*
X151599819Y-127674523D02*
X150599819Y-127674523D01*
X150599819Y-127674523D02*
X150599819Y-127293571D01*
X150599819Y-127293571D02*
X150647438Y-127198333D01*
X150647438Y-127198333D02*
X150695057Y-127150714D01*
X150695057Y-127150714D02*
X150790295Y-127103095D01*
X150790295Y-127103095D02*
X150933152Y-127103095D01*
X150933152Y-127103095D02*
X151028390Y-127150714D01*
X151028390Y-127150714D02*
X151076009Y-127198333D01*
X151076009Y-127198333D02*
X151123628Y-127293571D01*
X151123628Y-127293571D02*
X151123628Y-127674523D01*
X151599819Y-126150714D02*
X151599819Y-126722142D01*
X151599819Y-126436428D02*
X150599819Y-126436428D01*
X150599819Y-126436428D02*
X150742676Y-126531666D01*
X150742676Y-126531666D02*
X150837914Y-126626904D01*
X150837914Y-126626904D02*
X150885533Y-126722142D01*
X150599819Y-125531666D02*
X150599819Y-125436428D01*
X150599819Y-125436428D02*
X150647438Y-125341190D01*
X150647438Y-125341190D02*
X150695057Y-125293571D01*
X150695057Y-125293571D02*
X150790295Y-125245952D01*
X150790295Y-125245952D02*
X150980771Y-125198333D01*
X150980771Y-125198333D02*
X151218866Y-125198333D01*
X151218866Y-125198333D02*
X151409342Y-125245952D01*
X151409342Y-125245952D02*
X151504580Y-125293571D01*
X151504580Y-125293571D02*
X151552200Y-125341190D01*
X151552200Y-125341190D02*
X151599819Y-125436428D01*
X151599819Y-125436428D02*
X151599819Y-125531666D01*
X151599819Y-125531666D02*
X151552200Y-125626904D01*
X151552200Y-125626904D02*
X151504580Y-125674523D01*
X151504580Y-125674523D02*
X151409342Y-125722142D01*
X151409342Y-125722142D02*
X151218866Y-125769761D01*
X151218866Y-125769761D02*
X150980771Y-125769761D01*
X150980771Y-125769761D02*
X150790295Y-125722142D01*
X150790295Y-125722142D02*
X150695057Y-125674523D01*
X150695057Y-125674523D02*
X150647438Y-125626904D01*
X150647438Y-125626904D02*
X150599819Y-125531666D01*
X150599819Y-124293571D02*
X150599819Y-124769761D01*
X150599819Y-124769761D02*
X151076009Y-124817380D01*
X151076009Y-124817380D02*
X151028390Y-124769761D01*
X151028390Y-124769761D02*
X150980771Y-124674523D01*
X150980771Y-124674523D02*
X150980771Y-124436428D01*
X150980771Y-124436428D02*
X151028390Y-124341190D01*
X151028390Y-124341190D02*
X151076009Y-124293571D01*
X151076009Y-124293571D02*
X151171247Y-124245952D01*
X151171247Y-124245952D02*
X151409342Y-124245952D01*
X151409342Y-124245952D02*
X151504580Y-124293571D01*
X151504580Y-124293571D02*
X151552200Y-124341190D01*
X151552200Y-124341190D02*
X151599819Y-124436428D01*
X151599819Y-124436428D02*
X151599819Y-124674523D01*
X151599819Y-124674523D02*
X151552200Y-124769761D01*
X151552200Y-124769761D02*
X151504580Y-124817380D01*
X143225714Y-123589819D02*
X143225714Y-124399342D01*
X143225714Y-124399342D02*
X143273333Y-124494580D01*
X143273333Y-124494580D02*
X143320952Y-124542200D01*
X143320952Y-124542200D02*
X143416190Y-124589819D01*
X143416190Y-124589819D02*
X143606666Y-124589819D01*
X143606666Y-124589819D02*
X143701904Y-124542200D01*
X143701904Y-124542200D02*
X143749523Y-124494580D01*
X143749523Y-124494580D02*
X143797142Y-124399342D01*
X143797142Y-124399342D02*
X143797142Y-123589819D01*
X144797142Y-124589819D02*
X144225714Y-124589819D01*
X144511428Y-124589819D02*
X144511428Y-123589819D01*
X144511428Y-123589819D02*
X144416190Y-123732676D01*
X144416190Y-123732676D02*
X144320952Y-123827914D01*
X144320952Y-123827914D02*
X144225714Y-123875533D01*
X145416190Y-123589819D02*
X145511428Y-123589819D01*
X145511428Y-123589819D02*
X145606666Y-123637438D01*
X145606666Y-123637438D02*
X145654285Y-123685057D01*
X145654285Y-123685057D02*
X145701904Y-123780295D01*
X145701904Y-123780295D02*
X145749523Y-123970771D01*
X145749523Y-123970771D02*
X145749523Y-124208866D01*
X145749523Y-124208866D02*
X145701904Y-124399342D01*
X145701904Y-124399342D02*
X145654285Y-124494580D01*
X145654285Y-124494580D02*
X145606666Y-124542200D01*
X145606666Y-124542200D02*
X145511428Y-124589819D01*
X145511428Y-124589819D02*
X145416190Y-124589819D01*
X145416190Y-124589819D02*
X145320952Y-124542200D01*
X145320952Y-124542200D02*
X145273333Y-124494580D01*
X145273333Y-124494580D02*
X145225714Y-124399342D01*
X145225714Y-124399342D02*
X145178095Y-124208866D01*
X145178095Y-124208866D02*
X145178095Y-123970771D01*
X145178095Y-123970771D02*
X145225714Y-123780295D01*
X145225714Y-123780295D02*
X145273333Y-123685057D01*
X145273333Y-123685057D02*
X145320952Y-123637438D01*
X145320952Y-123637438D02*
X145416190Y-123589819D01*
X146320952Y-124018390D02*
X146225714Y-123970771D01*
X146225714Y-123970771D02*
X146178095Y-123923152D01*
X146178095Y-123923152D02*
X146130476Y-123827914D01*
X146130476Y-123827914D02*
X146130476Y-123780295D01*
X146130476Y-123780295D02*
X146178095Y-123685057D01*
X146178095Y-123685057D02*
X146225714Y-123637438D01*
X146225714Y-123637438D02*
X146320952Y-123589819D01*
X146320952Y-123589819D02*
X146511428Y-123589819D01*
X146511428Y-123589819D02*
X146606666Y-123637438D01*
X146606666Y-123637438D02*
X146654285Y-123685057D01*
X146654285Y-123685057D02*
X146701904Y-123780295D01*
X146701904Y-123780295D02*
X146701904Y-123827914D01*
X146701904Y-123827914D02*
X146654285Y-123923152D01*
X146654285Y-123923152D02*
X146606666Y-123970771D01*
X146606666Y-123970771D02*
X146511428Y-124018390D01*
X146511428Y-124018390D02*
X146320952Y-124018390D01*
X146320952Y-124018390D02*
X146225714Y-124066009D01*
X146225714Y-124066009D02*
X146178095Y-124113628D01*
X146178095Y-124113628D02*
X146130476Y-124208866D01*
X146130476Y-124208866D02*
X146130476Y-124399342D01*
X146130476Y-124399342D02*
X146178095Y-124494580D01*
X146178095Y-124494580D02*
X146225714Y-124542200D01*
X146225714Y-124542200D02*
X146320952Y-124589819D01*
X146320952Y-124589819D02*
X146511428Y-124589819D01*
X146511428Y-124589819D02*
X146606666Y-124542200D01*
X146606666Y-124542200D02*
X146654285Y-124494580D01*
X146654285Y-124494580D02*
X146701904Y-124399342D01*
X146701904Y-124399342D02*
X146701904Y-124208866D01*
X146701904Y-124208866D02*
X146654285Y-124113628D01*
X146654285Y-124113628D02*
X146606666Y-124066009D01*
X146606666Y-124066009D02*
X146511428Y-124018390D01*
X146200952Y-125329819D02*
X145724762Y-125329819D01*
X145724762Y-125329819D02*
X145724762Y-124329819D01*
X147058095Y-125329819D02*
X146486667Y-125329819D01*
X146772381Y-125329819D02*
X146772381Y-124329819D01*
X146772381Y-124329819D02*
X146677143Y-124472676D01*
X146677143Y-124472676D02*
X146581905Y-124567914D01*
X146581905Y-124567914D02*
X146486667Y-124615533D01*
X147677143Y-124329819D02*
X147772381Y-124329819D01*
X147772381Y-124329819D02*
X147867619Y-124377438D01*
X147867619Y-124377438D02*
X147915238Y-124425057D01*
X147915238Y-124425057D02*
X147962857Y-124520295D01*
X147962857Y-124520295D02*
X148010476Y-124710771D01*
X148010476Y-124710771D02*
X148010476Y-124948866D01*
X148010476Y-124948866D02*
X147962857Y-125139342D01*
X147962857Y-125139342D02*
X147915238Y-125234580D01*
X147915238Y-125234580D02*
X147867619Y-125282200D01*
X147867619Y-125282200D02*
X147772381Y-125329819D01*
X147772381Y-125329819D02*
X147677143Y-125329819D01*
X147677143Y-125329819D02*
X147581905Y-125282200D01*
X147581905Y-125282200D02*
X147534286Y-125234580D01*
X147534286Y-125234580D02*
X147486667Y-125139342D01*
X147486667Y-125139342D02*
X147439048Y-124948866D01*
X147439048Y-124948866D02*
X147439048Y-124710771D01*
X147439048Y-124710771D02*
X147486667Y-124520295D01*
X147486667Y-124520295D02*
X147534286Y-124425057D01*
X147534286Y-124425057D02*
X147581905Y-124377438D01*
X147581905Y-124377438D02*
X147677143Y-124329819D01*
X148962857Y-125329819D02*
X148391429Y-125329819D01*
X148677143Y-125329819D02*
X148677143Y-124329819D01*
X148677143Y-124329819D02*
X148581905Y-124472676D01*
X148581905Y-124472676D02*
X148486667Y-124567914D01*
X148486667Y-124567914D02*
X148391429Y-124615533D01*
X84709285Y-50894819D02*
X84709285Y-51609104D01*
X84709285Y-51609104D02*
X84661666Y-51751961D01*
X84661666Y-51751961D02*
X84566428Y-51847200D01*
X84566428Y-51847200D02*
X84423571Y-51894819D01*
X84423571Y-51894819D02*
X84328333Y-51894819D01*
X85709285Y-51894819D02*
X85137857Y-51894819D01*
X85423571Y-51894819D02*
X85423571Y-50894819D01*
X85423571Y-50894819D02*
X85328333Y-51037676D01*
X85328333Y-51037676D02*
X85233095Y-51132914D01*
X85233095Y-51132914D02*
X85137857Y-51180533D01*
X86661666Y-51894819D02*
X86090238Y-51894819D01*
X86375952Y-51894819D02*
X86375952Y-50894819D01*
X86375952Y-50894819D02*
X86280714Y-51037676D01*
X86280714Y-51037676D02*
X86185476Y-51132914D01*
X86185476Y-51132914D02*
X86090238Y-51180533D01*
X87233095Y-51323390D02*
X87137857Y-51275771D01*
X87137857Y-51275771D02*
X87090238Y-51228152D01*
X87090238Y-51228152D02*
X87042619Y-51132914D01*
X87042619Y-51132914D02*
X87042619Y-51085295D01*
X87042619Y-51085295D02*
X87090238Y-50990057D01*
X87090238Y-50990057D02*
X87137857Y-50942438D01*
X87137857Y-50942438D02*
X87233095Y-50894819D01*
X87233095Y-50894819D02*
X87423571Y-50894819D01*
X87423571Y-50894819D02*
X87518809Y-50942438D01*
X87518809Y-50942438D02*
X87566428Y-50990057D01*
X87566428Y-50990057D02*
X87614047Y-51085295D01*
X87614047Y-51085295D02*
X87614047Y-51132914D01*
X87614047Y-51132914D02*
X87566428Y-51228152D01*
X87566428Y-51228152D02*
X87518809Y-51275771D01*
X87518809Y-51275771D02*
X87423571Y-51323390D01*
X87423571Y-51323390D02*
X87233095Y-51323390D01*
X87233095Y-51323390D02*
X87137857Y-51371009D01*
X87137857Y-51371009D02*
X87090238Y-51418628D01*
X87090238Y-51418628D02*
X87042619Y-51513866D01*
X87042619Y-51513866D02*
X87042619Y-51704342D01*
X87042619Y-51704342D02*
X87090238Y-51799580D01*
X87090238Y-51799580D02*
X87137857Y-51847200D01*
X87137857Y-51847200D02*
X87233095Y-51894819D01*
X87233095Y-51894819D02*
X87423571Y-51894819D01*
X87423571Y-51894819D02*
X87518809Y-51847200D01*
X87518809Y-51847200D02*
X87566428Y-51799580D01*
X87566428Y-51799580D02*
X87614047Y-51704342D01*
X87614047Y-51704342D02*
X87614047Y-51513866D01*
X87614047Y-51513866D02*
X87566428Y-51418628D01*
X87566428Y-51418628D02*
X87518809Y-51371009D01*
X87518809Y-51371009D02*
X87423571Y-51323390D01*
X155794819Y-124005714D02*
X156509104Y-124005714D01*
X156509104Y-124005714D02*
X156651961Y-124053333D01*
X156651961Y-124053333D02*
X156747200Y-124148571D01*
X156747200Y-124148571D02*
X156794819Y-124291428D01*
X156794819Y-124291428D02*
X156794819Y-124386666D01*
X156794819Y-123005714D02*
X156794819Y-123577142D01*
X156794819Y-123291428D02*
X155794819Y-123291428D01*
X155794819Y-123291428D02*
X155937676Y-123386666D01*
X155937676Y-123386666D02*
X156032914Y-123481904D01*
X156032914Y-123481904D02*
X156080533Y-123577142D01*
X155794819Y-122386666D02*
X155794819Y-122291428D01*
X155794819Y-122291428D02*
X155842438Y-122196190D01*
X155842438Y-122196190D02*
X155890057Y-122148571D01*
X155890057Y-122148571D02*
X155985295Y-122100952D01*
X155985295Y-122100952D02*
X156175771Y-122053333D01*
X156175771Y-122053333D02*
X156413866Y-122053333D01*
X156413866Y-122053333D02*
X156604342Y-122100952D01*
X156604342Y-122100952D02*
X156699580Y-122148571D01*
X156699580Y-122148571D02*
X156747200Y-122196190D01*
X156747200Y-122196190D02*
X156794819Y-122291428D01*
X156794819Y-122291428D02*
X156794819Y-122386666D01*
X156794819Y-122386666D02*
X156747200Y-122481904D01*
X156747200Y-122481904D02*
X156699580Y-122529523D01*
X156699580Y-122529523D02*
X156604342Y-122577142D01*
X156604342Y-122577142D02*
X156413866Y-122624761D01*
X156413866Y-122624761D02*
X156175771Y-122624761D01*
X156175771Y-122624761D02*
X155985295Y-122577142D01*
X155985295Y-122577142D02*
X155890057Y-122529523D01*
X155890057Y-122529523D02*
X155842438Y-122481904D01*
X155842438Y-122481904D02*
X155794819Y-122386666D01*
X156794819Y-121577142D02*
X156794819Y-121386666D01*
X156794819Y-121386666D02*
X156747200Y-121291428D01*
X156747200Y-121291428D02*
X156699580Y-121243809D01*
X156699580Y-121243809D02*
X156556723Y-121148571D01*
X156556723Y-121148571D02*
X156366247Y-121100952D01*
X156366247Y-121100952D02*
X155985295Y-121100952D01*
X155985295Y-121100952D02*
X155890057Y-121148571D01*
X155890057Y-121148571D02*
X155842438Y-121196190D01*
X155842438Y-121196190D02*
X155794819Y-121291428D01*
X155794819Y-121291428D02*
X155794819Y-121481904D01*
X155794819Y-121481904D02*
X155842438Y-121577142D01*
X155842438Y-121577142D02*
X155890057Y-121624761D01*
X155890057Y-121624761D02*
X155985295Y-121672380D01*
X155985295Y-121672380D02*
X156223390Y-121672380D01*
X156223390Y-121672380D02*
X156318628Y-121624761D01*
X156318628Y-121624761D02*
X156366247Y-121577142D01*
X156366247Y-121577142D02*
X156413866Y-121481904D01*
X156413866Y-121481904D02*
X156413866Y-121291428D01*
X156413866Y-121291428D02*
X156366247Y-121196190D01*
X156366247Y-121196190D02*
X156318628Y-121148571D01*
X156318628Y-121148571D02*
X156223390Y-121100952D01*
X147939524Y-90394819D02*
X147939524Y-89394819D01*
X147939524Y-89394819D02*
X148177619Y-89394819D01*
X148177619Y-89394819D02*
X148320476Y-89442438D01*
X148320476Y-89442438D02*
X148415714Y-89537676D01*
X148415714Y-89537676D02*
X148463333Y-89632914D01*
X148463333Y-89632914D02*
X148510952Y-89823390D01*
X148510952Y-89823390D02*
X148510952Y-89966247D01*
X148510952Y-89966247D02*
X148463333Y-90156723D01*
X148463333Y-90156723D02*
X148415714Y-90251961D01*
X148415714Y-90251961D02*
X148320476Y-90347200D01*
X148320476Y-90347200D02*
X148177619Y-90394819D01*
X148177619Y-90394819D02*
X147939524Y-90394819D01*
X149463333Y-90394819D02*
X148891905Y-90394819D01*
X149177619Y-90394819D02*
X149177619Y-89394819D01*
X149177619Y-89394819D02*
X149082381Y-89537676D01*
X149082381Y-89537676D02*
X148987143Y-89632914D01*
X148987143Y-89632914D02*
X148891905Y-89680533D01*
X150082381Y-89394819D02*
X150177619Y-89394819D01*
X150177619Y-89394819D02*
X150272857Y-89442438D01*
X150272857Y-89442438D02*
X150320476Y-89490057D01*
X150320476Y-89490057D02*
X150368095Y-89585295D01*
X150368095Y-89585295D02*
X150415714Y-89775771D01*
X150415714Y-89775771D02*
X150415714Y-90013866D01*
X150415714Y-90013866D02*
X150368095Y-90204342D01*
X150368095Y-90204342D02*
X150320476Y-90299580D01*
X150320476Y-90299580D02*
X150272857Y-90347200D01*
X150272857Y-90347200D02*
X150177619Y-90394819D01*
X150177619Y-90394819D02*
X150082381Y-90394819D01*
X150082381Y-90394819D02*
X149987143Y-90347200D01*
X149987143Y-90347200D02*
X149939524Y-90299580D01*
X149939524Y-90299580D02*
X149891905Y-90204342D01*
X149891905Y-90204342D02*
X149844286Y-90013866D01*
X149844286Y-90013866D02*
X149844286Y-89775771D01*
X149844286Y-89775771D02*
X149891905Y-89585295D01*
X149891905Y-89585295D02*
X149939524Y-89490057D01*
X149939524Y-89490057D02*
X149987143Y-89442438D01*
X149987143Y-89442438D02*
X150082381Y-89394819D01*
X151368095Y-90394819D02*
X150796667Y-90394819D01*
X151082381Y-90394819D02*
X151082381Y-89394819D01*
X151082381Y-89394819D02*
X150987143Y-89537676D01*
X150987143Y-89537676D02*
X150891905Y-89632914D01*
X150891905Y-89632914D02*
X150796667Y-89680533D01*
X106029285Y-49194819D02*
X106029285Y-49909104D01*
X106029285Y-49909104D02*
X105981666Y-50051961D01*
X105981666Y-50051961D02*
X105886428Y-50147200D01*
X105886428Y-50147200D02*
X105743571Y-50194819D01*
X105743571Y-50194819D02*
X105648333Y-50194819D01*
X107029285Y-50194819D02*
X106457857Y-50194819D01*
X106743571Y-50194819D02*
X106743571Y-49194819D01*
X106743571Y-49194819D02*
X106648333Y-49337676D01*
X106648333Y-49337676D02*
X106553095Y-49432914D01*
X106553095Y-49432914D02*
X106457857Y-49480533D01*
X107648333Y-49194819D02*
X107743571Y-49194819D01*
X107743571Y-49194819D02*
X107838809Y-49242438D01*
X107838809Y-49242438D02*
X107886428Y-49290057D01*
X107886428Y-49290057D02*
X107934047Y-49385295D01*
X107934047Y-49385295D02*
X107981666Y-49575771D01*
X107981666Y-49575771D02*
X107981666Y-49813866D01*
X107981666Y-49813866D02*
X107934047Y-50004342D01*
X107934047Y-50004342D02*
X107886428Y-50099580D01*
X107886428Y-50099580D02*
X107838809Y-50147200D01*
X107838809Y-50147200D02*
X107743571Y-50194819D01*
X107743571Y-50194819D02*
X107648333Y-50194819D01*
X107648333Y-50194819D02*
X107553095Y-50147200D01*
X107553095Y-50147200D02*
X107505476Y-50099580D01*
X107505476Y-50099580D02*
X107457857Y-50004342D01*
X107457857Y-50004342D02*
X107410238Y-49813866D01*
X107410238Y-49813866D02*
X107410238Y-49575771D01*
X107410238Y-49575771D02*
X107457857Y-49385295D01*
X107457857Y-49385295D02*
X107505476Y-49290057D01*
X107505476Y-49290057D02*
X107553095Y-49242438D01*
X107553095Y-49242438D02*
X107648333Y-49194819D01*
X108362619Y-49290057D02*
X108410238Y-49242438D01*
X108410238Y-49242438D02*
X108505476Y-49194819D01*
X108505476Y-49194819D02*
X108743571Y-49194819D01*
X108743571Y-49194819D02*
X108838809Y-49242438D01*
X108838809Y-49242438D02*
X108886428Y-49290057D01*
X108886428Y-49290057D02*
X108934047Y-49385295D01*
X108934047Y-49385295D02*
X108934047Y-49480533D01*
X108934047Y-49480533D02*
X108886428Y-49623390D01*
X108886428Y-49623390D02*
X108315000Y-50194819D01*
X108315000Y-50194819D02*
X108934047Y-50194819D01*
X83804285Y-105074819D02*
X83804285Y-105789104D01*
X83804285Y-105789104D02*
X83756666Y-105931961D01*
X83756666Y-105931961D02*
X83661428Y-106027200D01*
X83661428Y-106027200D02*
X83518571Y-106074819D01*
X83518571Y-106074819D02*
X83423333Y-106074819D01*
X84804285Y-106074819D02*
X84232857Y-106074819D01*
X84518571Y-106074819D02*
X84518571Y-105074819D01*
X84518571Y-105074819D02*
X84423333Y-105217676D01*
X84423333Y-105217676D02*
X84328095Y-105312914D01*
X84328095Y-105312914D02*
X84232857Y-105360533D01*
X85756666Y-106074819D02*
X85185238Y-106074819D01*
X85470952Y-106074819D02*
X85470952Y-105074819D01*
X85470952Y-105074819D02*
X85375714Y-105217676D01*
X85375714Y-105217676D02*
X85280476Y-105312914D01*
X85280476Y-105312914D02*
X85185238Y-105360533D01*
X86613809Y-105408152D02*
X86613809Y-106074819D01*
X86375714Y-105027200D02*
X86137619Y-105741485D01*
X86137619Y-105741485D02*
X86756666Y-105741485D01*
X150270480Y-85915057D02*
X150175242Y-85867438D01*
X150175242Y-85867438D02*
X150080004Y-85772200D01*
X150080004Y-85772200D02*
X149937147Y-85629342D01*
X149937147Y-85629342D02*
X149841909Y-85581723D01*
X149841909Y-85581723D02*
X149746671Y-85581723D01*
X149794290Y-85819819D02*
X149699052Y-85772200D01*
X149699052Y-85772200D02*
X149603814Y-85676961D01*
X149603814Y-85676961D02*
X149556195Y-85486485D01*
X149556195Y-85486485D02*
X149556195Y-85153152D01*
X149556195Y-85153152D02*
X149603814Y-84962676D01*
X149603814Y-84962676D02*
X149699052Y-84867438D01*
X149699052Y-84867438D02*
X149794290Y-84819819D01*
X149794290Y-84819819D02*
X149984766Y-84819819D01*
X149984766Y-84819819D02*
X150080004Y-84867438D01*
X150080004Y-84867438D02*
X150175242Y-84962676D01*
X150175242Y-84962676D02*
X150222861Y-85153152D01*
X150222861Y-85153152D02*
X150222861Y-85486485D01*
X150222861Y-85486485D02*
X150175242Y-85676961D01*
X150175242Y-85676961D02*
X150080004Y-85772200D01*
X150080004Y-85772200D02*
X149984766Y-85819819D01*
X149984766Y-85819819D02*
X149794290Y-85819819D01*
X151175242Y-85819819D02*
X150603814Y-85819819D01*
X150889528Y-85819819D02*
X150889528Y-84819819D01*
X150889528Y-84819819D02*
X150794290Y-84962676D01*
X150794290Y-84962676D02*
X150699052Y-85057914D01*
X150699052Y-85057914D02*
X150603814Y-85105533D01*
X151794290Y-84819819D02*
X151889528Y-84819819D01*
X151889528Y-84819819D02*
X151984766Y-84867438D01*
X151984766Y-84867438D02*
X152032385Y-84915057D01*
X152032385Y-84915057D02*
X152080004Y-85010295D01*
X152080004Y-85010295D02*
X152127623Y-85200771D01*
X152127623Y-85200771D02*
X152127623Y-85438866D01*
X152127623Y-85438866D02*
X152080004Y-85629342D01*
X152080004Y-85629342D02*
X152032385Y-85724580D01*
X152032385Y-85724580D02*
X151984766Y-85772200D01*
X151984766Y-85772200D02*
X151889528Y-85819819D01*
X151889528Y-85819819D02*
X151794290Y-85819819D01*
X151794290Y-85819819D02*
X151699052Y-85772200D01*
X151699052Y-85772200D02*
X151651433Y-85724580D01*
X151651433Y-85724580D02*
X151603814Y-85629342D01*
X151603814Y-85629342D02*
X151556195Y-85438866D01*
X151556195Y-85438866D02*
X151556195Y-85200771D01*
X151556195Y-85200771D02*
X151603814Y-85010295D01*
X151603814Y-85010295D02*
X151651433Y-84915057D01*
X151651433Y-84915057D02*
X151699052Y-84867438D01*
X151699052Y-84867438D02*
X151794290Y-84819819D01*
X152460957Y-84819819D02*
X153127623Y-84819819D01*
X153127623Y-84819819D02*
X152699052Y-85819819D01*
X160749819Y-91585475D02*
X159749819Y-91585475D01*
X159749819Y-91585475D02*
X159749819Y-91347380D01*
X159749819Y-91347380D02*
X159797438Y-91204523D01*
X159797438Y-91204523D02*
X159892676Y-91109285D01*
X159892676Y-91109285D02*
X159987914Y-91061666D01*
X159987914Y-91061666D02*
X160178390Y-91014047D01*
X160178390Y-91014047D02*
X160321247Y-91014047D01*
X160321247Y-91014047D02*
X160511723Y-91061666D01*
X160511723Y-91061666D02*
X160606961Y-91109285D01*
X160606961Y-91109285D02*
X160702200Y-91204523D01*
X160702200Y-91204523D02*
X160749819Y-91347380D01*
X160749819Y-91347380D02*
X160749819Y-91585475D01*
X160749819Y-90061666D02*
X160749819Y-90633094D01*
X160749819Y-90347380D02*
X159749819Y-90347380D01*
X159749819Y-90347380D02*
X159892676Y-90442618D01*
X159892676Y-90442618D02*
X159987914Y-90537856D01*
X159987914Y-90537856D02*
X160035533Y-90633094D01*
X159749819Y-89442618D02*
X159749819Y-89347380D01*
X159749819Y-89347380D02*
X159797438Y-89252142D01*
X159797438Y-89252142D02*
X159845057Y-89204523D01*
X159845057Y-89204523D02*
X159940295Y-89156904D01*
X159940295Y-89156904D02*
X160130771Y-89109285D01*
X160130771Y-89109285D02*
X160368866Y-89109285D01*
X160368866Y-89109285D02*
X160559342Y-89156904D01*
X160559342Y-89156904D02*
X160654580Y-89204523D01*
X160654580Y-89204523D02*
X160702200Y-89252142D01*
X160702200Y-89252142D02*
X160749819Y-89347380D01*
X160749819Y-89347380D02*
X160749819Y-89442618D01*
X160749819Y-89442618D02*
X160702200Y-89537856D01*
X160702200Y-89537856D02*
X160654580Y-89585475D01*
X160654580Y-89585475D02*
X160559342Y-89633094D01*
X160559342Y-89633094D02*
X160368866Y-89680713D01*
X160368866Y-89680713D02*
X160130771Y-89680713D01*
X160130771Y-89680713D02*
X159940295Y-89633094D01*
X159940295Y-89633094D02*
X159845057Y-89585475D01*
X159845057Y-89585475D02*
X159797438Y-89537856D01*
X159797438Y-89537856D02*
X159749819Y-89442618D01*
X160083152Y-88252142D02*
X160749819Y-88252142D01*
X159702200Y-88490237D02*
X160416485Y-88728332D01*
X160416485Y-88728332D02*
X160416485Y-88109285D01*
X111109285Y-49194819D02*
X111109285Y-49909104D01*
X111109285Y-49909104D02*
X111061666Y-50051961D01*
X111061666Y-50051961D02*
X110966428Y-50147200D01*
X110966428Y-50147200D02*
X110823571Y-50194819D01*
X110823571Y-50194819D02*
X110728333Y-50194819D01*
X112109285Y-50194819D02*
X111537857Y-50194819D01*
X111823571Y-50194819D02*
X111823571Y-49194819D01*
X111823571Y-49194819D02*
X111728333Y-49337676D01*
X111728333Y-49337676D02*
X111633095Y-49432914D01*
X111633095Y-49432914D02*
X111537857Y-49480533D01*
X112728333Y-49194819D02*
X112823571Y-49194819D01*
X112823571Y-49194819D02*
X112918809Y-49242438D01*
X112918809Y-49242438D02*
X112966428Y-49290057D01*
X112966428Y-49290057D02*
X113014047Y-49385295D01*
X113014047Y-49385295D02*
X113061666Y-49575771D01*
X113061666Y-49575771D02*
X113061666Y-49813866D01*
X113061666Y-49813866D02*
X113014047Y-50004342D01*
X113014047Y-50004342D02*
X112966428Y-50099580D01*
X112966428Y-50099580D02*
X112918809Y-50147200D01*
X112918809Y-50147200D02*
X112823571Y-50194819D01*
X112823571Y-50194819D02*
X112728333Y-50194819D01*
X112728333Y-50194819D02*
X112633095Y-50147200D01*
X112633095Y-50147200D02*
X112585476Y-50099580D01*
X112585476Y-50099580D02*
X112537857Y-50004342D01*
X112537857Y-50004342D02*
X112490238Y-49813866D01*
X112490238Y-49813866D02*
X112490238Y-49575771D01*
X112490238Y-49575771D02*
X112537857Y-49385295D01*
X112537857Y-49385295D02*
X112585476Y-49290057D01*
X112585476Y-49290057D02*
X112633095Y-49242438D01*
X112633095Y-49242438D02*
X112728333Y-49194819D01*
X114014047Y-50194819D02*
X113442619Y-50194819D01*
X113728333Y-50194819D02*
X113728333Y-49194819D01*
X113728333Y-49194819D02*
X113633095Y-49337676D01*
X113633095Y-49337676D02*
X113537857Y-49432914D01*
X113537857Y-49432914D02*
X113442619Y-49480533D01*
X157387380Y-79210057D02*
X157292142Y-79162438D01*
X157292142Y-79162438D02*
X157196904Y-79067200D01*
X157196904Y-79067200D02*
X157054047Y-78924342D01*
X157054047Y-78924342D02*
X156958809Y-78876723D01*
X156958809Y-78876723D02*
X156863571Y-78876723D01*
X156911190Y-79114819D02*
X156815952Y-79067200D01*
X156815952Y-79067200D02*
X156720714Y-78971961D01*
X156720714Y-78971961D02*
X156673095Y-78781485D01*
X156673095Y-78781485D02*
X156673095Y-78448152D01*
X156673095Y-78448152D02*
X156720714Y-78257676D01*
X156720714Y-78257676D02*
X156815952Y-78162438D01*
X156815952Y-78162438D02*
X156911190Y-78114819D01*
X156911190Y-78114819D02*
X157101666Y-78114819D01*
X157101666Y-78114819D02*
X157196904Y-78162438D01*
X157196904Y-78162438D02*
X157292142Y-78257676D01*
X157292142Y-78257676D02*
X157339761Y-78448152D01*
X157339761Y-78448152D02*
X157339761Y-78781485D01*
X157339761Y-78781485D02*
X157292142Y-78971961D01*
X157292142Y-78971961D02*
X157196904Y-79067200D01*
X157196904Y-79067200D02*
X157101666Y-79114819D01*
X157101666Y-79114819D02*
X156911190Y-79114819D01*
X158292142Y-79114819D02*
X157720714Y-79114819D01*
X158006428Y-79114819D02*
X158006428Y-78114819D01*
X158006428Y-78114819D02*
X157911190Y-78257676D01*
X157911190Y-78257676D02*
X157815952Y-78352914D01*
X157815952Y-78352914D02*
X157720714Y-78400533D01*
X159244523Y-79114819D02*
X158673095Y-79114819D01*
X158958809Y-79114819D02*
X158958809Y-78114819D01*
X158958809Y-78114819D02*
X158863571Y-78257676D01*
X158863571Y-78257676D02*
X158768333Y-78352914D01*
X158768333Y-78352914D02*
X158673095Y-78400533D01*
X159863571Y-78114819D02*
X159958809Y-78114819D01*
X159958809Y-78114819D02*
X160054047Y-78162438D01*
X160054047Y-78162438D02*
X160101666Y-78210057D01*
X160101666Y-78210057D02*
X160149285Y-78305295D01*
X160149285Y-78305295D02*
X160196904Y-78495771D01*
X160196904Y-78495771D02*
X160196904Y-78733866D01*
X160196904Y-78733866D02*
X160149285Y-78924342D01*
X160149285Y-78924342D02*
X160101666Y-79019580D01*
X160101666Y-79019580D02*
X160054047Y-79067200D01*
X160054047Y-79067200D02*
X159958809Y-79114819D01*
X159958809Y-79114819D02*
X159863571Y-79114819D01*
X159863571Y-79114819D02*
X159768333Y-79067200D01*
X159768333Y-79067200D02*
X159720714Y-79019580D01*
X159720714Y-79019580D02*
X159673095Y-78924342D01*
X159673095Y-78924342D02*
X159625476Y-78733866D01*
X159625476Y-78733866D02*
X159625476Y-78495771D01*
X159625476Y-78495771D02*
X159673095Y-78305295D01*
X159673095Y-78305295D02*
X159720714Y-78210057D01*
X159720714Y-78210057D02*
X159768333Y-78162438D01*
X159768333Y-78162438D02*
X159863571Y-78114819D01*
X162889319Y-90826314D02*
X163603604Y-90826314D01*
X163603604Y-90826314D02*
X163746461Y-90873933D01*
X163746461Y-90873933D02*
X163841700Y-90969171D01*
X163841700Y-90969171D02*
X163889319Y-91112028D01*
X163889319Y-91112028D02*
X163889319Y-91207266D01*
X163889319Y-89826314D02*
X163889319Y-90397742D01*
X163889319Y-90112028D02*
X162889319Y-90112028D01*
X162889319Y-90112028D02*
X163032176Y-90207266D01*
X163032176Y-90207266D02*
X163127414Y-90302504D01*
X163127414Y-90302504D02*
X163175033Y-90397742D01*
X163889319Y-88873933D02*
X163889319Y-89445361D01*
X163889319Y-89159647D02*
X162889319Y-89159647D01*
X162889319Y-89159647D02*
X163032176Y-89254885D01*
X163032176Y-89254885D02*
X163127414Y-89350123D01*
X163127414Y-89350123D02*
X163175033Y-89445361D01*
X162984557Y-88492980D02*
X162936938Y-88445361D01*
X162936938Y-88445361D02*
X162889319Y-88350123D01*
X162889319Y-88350123D02*
X162889319Y-88112028D01*
X162889319Y-88112028D02*
X162936938Y-88016790D01*
X162936938Y-88016790D02*
X162984557Y-87969171D01*
X162984557Y-87969171D02*
X163079795Y-87921552D01*
X163079795Y-87921552D02*
X163175033Y-87921552D01*
X163175033Y-87921552D02*
X163317890Y-87969171D01*
X163317890Y-87969171D02*
X163889319Y-88540599D01*
X163889319Y-88540599D02*
X163889319Y-87921552D01*
X150285580Y-77131657D02*
X150190342Y-77084038D01*
X150190342Y-77084038D02*
X150095104Y-76988800D01*
X150095104Y-76988800D02*
X149952247Y-76845942D01*
X149952247Y-76845942D02*
X149857009Y-76798323D01*
X149857009Y-76798323D02*
X149761771Y-76798323D01*
X149809390Y-77036419D02*
X149714152Y-76988800D01*
X149714152Y-76988800D02*
X149618914Y-76893561D01*
X149618914Y-76893561D02*
X149571295Y-76703085D01*
X149571295Y-76703085D02*
X149571295Y-76369752D01*
X149571295Y-76369752D02*
X149618914Y-76179276D01*
X149618914Y-76179276D02*
X149714152Y-76084038D01*
X149714152Y-76084038D02*
X149809390Y-76036419D01*
X149809390Y-76036419D02*
X149999866Y-76036419D01*
X149999866Y-76036419D02*
X150095104Y-76084038D01*
X150095104Y-76084038D02*
X150190342Y-76179276D01*
X150190342Y-76179276D02*
X150237961Y-76369752D01*
X150237961Y-76369752D02*
X150237961Y-76703085D01*
X150237961Y-76703085D02*
X150190342Y-76893561D01*
X150190342Y-76893561D02*
X150095104Y-76988800D01*
X150095104Y-76988800D02*
X149999866Y-77036419D01*
X149999866Y-77036419D02*
X149809390Y-77036419D01*
X151190342Y-77036419D02*
X150618914Y-77036419D01*
X150904628Y-77036419D02*
X150904628Y-76036419D01*
X150904628Y-76036419D02*
X150809390Y-76179276D01*
X150809390Y-76179276D02*
X150714152Y-76274514D01*
X150714152Y-76274514D02*
X150618914Y-76322133D01*
X151809390Y-76036419D02*
X151904628Y-76036419D01*
X151904628Y-76036419D02*
X151999866Y-76084038D01*
X151999866Y-76084038D02*
X152047485Y-76131657D01*
X152047485Y-76131657D02*
X152095104Y-76226895D01*
X152095104Y-76226895D02*
X152142723Y-76417371D01*
X152142723Y-76417371D02*
X152142723Y-76655466D01*
X152142723Y-76655466D02*
X152095104Y-76845942D01*
X152095104Y-76845942D02*
X152047485Y-76941180D01*
X152047485Y-76941180D02*
X151999866Y-76988800D01*
X151999866Y-76988800D02*
X151904628Y-77036419D01*
X151904628Y-77036419D02*
X151809390Y-77036419D01*
X151809390Y-77036419D02*
X151714152Y-76988800D01*
X151714152Y-76988800D02*
X151666533Y-76941180D01*
X151666533Y-76941180D02*
X151618914Y-76845942D01*
X151618914Y-76845942D02*
X151571295Y-76655466D01*
X151571295Y-76655466D02*
X151571295Y-76417371D01*
X151571295Y-76417371D02*
X151618914Y-76226895D01*
X151618914Y-76226895D02*
X151666533Y-76131657D01*
X151666533Y-76131657D02*
X151714152Y-76084038D01*
X151714152Y-76084038D02*
X151809390Y-76036419D01*
X152999866Y-76036419D02*
X152809390Y-76036419D01*
X152809390Y-76036419D02*
X152714152Y-76084038D01*
X152714152Y-76084038D02*
X152666533Y-76131657D01*
X152666533Y-76131657D02*
X152571295Y-76274514D01*
X152571295Y-76274514D02*
X152523676Y-76464990D01*
X152523676Y-76464990D02*
X152523676Y-76845942D01*
X152523676Y-76845942D02*
X152571295Y-76941180D01*
X152571295Y-76941180D02*
X152618914Y-76988800D01*
X152618914Y-76988800D02*
X152714152Y-77036419D01*
X152714152Y-77036419D02*
X152904628Y-77036419D01*
X152904628Y-77036419D02*
X152999866Y-76988800D01*
X152999866Y-76988800D02*
X153047485Y-76941180D01*
X153047485Y-76941180D02*
X153095104Y-76845942D01*
X153095104Y-76845942D02*
X153095104Y-76607847D01*
X153095104Y-76607847D02*
X153047485Y-76512609D01*
X153047485Y-76512609D02*
X152999866Y-76464990D01*
X152999866Y-76464990D02*
X152904628Y-76417371D01*
X152904628Y-76417371D02*
X152714152Y-76417371D01*
X152714152Y-76417371D02*
X152618914Y-76464990D01*
X152618914Y-76464990D02*
X152571295Y-76512609D01*
X152571295Y-76512609D02*
X152523676Y-76607847D01*
X142641214Y-109714219D02*
X142641214Y-110523742D01*
X142641214Y-110523742D02*
X142688833Y-110618980D01*
X142688833Y-110618980D02*
X142736452Y-110666600D01*
X142736452Y-110666600D02*
X142831690Y-110714219D01*
X142831690Y-110714219D02*
X143022166Y-110714219D01*
X143022166Y-110714219D02*
X143117404Y-110666600D01*
X143117404Y-110666600D02*
X143165023Y-110618980D01*
X143165023Y-110618980D02*
X143212642Y-110523742D01*
X143212642Y-110523742D02*
X143212642Y-109714219D01*
X144212642Y-110714219D02*
X143641214Y-110714219D01*
X143926928Y-110714219D02*
X143926928Y-109714219D01*
X143926928Y-109714219D02*
X143831690Y-109857076D01*
X143831690Y-109857076D02*
X143736452Y-109952314D01*
X143736452Y-109952314D02*
X143641214Y-109999933D01*
X144831690Y-109714219D02*
X144926928Y-109714219D01*
X144926928Y-109714219D02*
X145022166Y-109761838D01*
X145022166Y-109761838D02*
X145069785Y-109809457D01*
X145069785Y-109809457D02*
X145117404Y-109904695D01*
X145117404Y-109904695D02*
X145165023Y-110095171D01*
X145165023Y-110095171D02*
X145165023Y-110333266D01*
X145165023Y-110333266D02*
X145117404Y-110523742D01*
X145117404Y-110523742D02*
X145069785Y-110618980D01*
X145069785Y-110618980D02*
X145022166Y-110666600D01*
X145022166Y-110666600D02*
X144926928Y-110714219D01*
X144926928Y-110714219D02*
X144831690Y-110714219D01*
X144831690Y-110714219D02*
X144736452Y-110666600D01*
X144736452Y-110666600D02*
X144688833Y-110618980D01*
X144688833Y-110618980D02*
X144641214Y-110523742D01*
X144641214Y-110523742D02*
X144593595Y-110333266D01*
X144593595Y-110333266D02*
X144593595Y-110095171D01*
X144593595Y-110095171D02*
X144641214Y-109904695D01*
X144641214Y-109904695D02*
X144688833Y-109809457D01*
X144688833Y-109809457D02*
X144736452Y-109761838D01*
X144736452Y-109761838D02*
X144831690Y-109714219D01*
X145498357Y-109714219D02*
X146165023Y-109714219D01*
X146165023Y-109714219D02*
X145736452Y-110714219D01*
X116189285Y-49194819D02*
X116189285Y-49909104D01*
X116189285Y-49909104D02*
X116141666Y-50051961D01*
X116141666Y-50051961D02*
X116046428Y-50147200D01*
X116046428Y-50147200D02*
X115903571Y-50194819D01*
X115903571Y-50194819D02*
X115808333Y-50194819D01*
X117189285Y-50194819D02*
X116617857Y-50194819D01*
X116903571Y-50194819D02*
X116903571Y-49194819D01*
X116903571Y-49194819D02*
X116808333Y-49337676D01*
X116808333Y-49337676D02*
X116713095Y-49432914D01*
X116713095Y-49432914D02*
X116617857Y-49480533D01*
X117808333Y-49194819D02*
X117903571Y-49194819D01*
X117903571Y-49194819D02*
X117998809Y-49242438D01*
X117998809Y-49242438D02*
X118046428Y-49290057D01*
X118046428Y-49290057D02*
X118094047Y-49385295D01*
X118094047Y-49385295D02*
X118141666Y-49575771D01*
X118141666Y-49575771D02*
X118141666Y-49813866D01*
X118141666Y-49813866D02*
X118094047Y-50004342D01*
X118094047Y-50004342D02*
X118046428Y-50099580D01*
X118046428Y-50099580D02*
X117998809Y-50147200D01*
X117998809Y-50147200D02*
X117903571Y-50194819D01*
X117903571Y-50194819D02*
X117808333Y-50194819D01*
X117808333Y-50194819D02*
X117713095Y-50147200D01*
X117713095Y-50147200D02*
X117665476Y-50099580D01*
X117665476Y-50099580D02*
X117617857Y-50004342D01*
X117617857Y-50004342D02*
X117570238Y-49813866D01*
X117570238Y-49813866D02*
X117570238Y-49575771D01*
X117570238Y-49575771D02*
X117617857Y-49385295D01*
X117617857Y-49385295D02*
X117665476Y-49290057D01*
X117665476Y-49290057D02*
X117713095Y-49242438D01*
X117713095Y-49242438D02*
X117808333Y-49194819D01*
X118475000Y-49194819D02*
X119094047Y-49194819D01*
X119094047Y-49194819D02*
X118760714Y-49575771D01*
X118760714Y-49575771D02*
X118903571Y-49575771D01*
X118903571Y-49575771D02*
X118998809Y-49623390D01*
X118998809Y-49623390D02*
X119046428Y-49671009D01*
X119046428Y-49671009D02*
X119094047Y-49766247D01*
X119094047Y-49766247D02*
X119094047Y-50004342D01*
X119094047Y-50004342D02*
X119046428Y-50099580D01*
X119046428Y-50099580D02*
X118998809Y-50147200D01*
X118998809Y-50147200D02*
X118903571Y-50194819D01*
X118903571Y-50194819D02*
X118617857Y-50194819D01*
X118617857Y-50194819D02*
X118522619Y-50147200D01*
X118522619Y-50147200D02*
X118475000Y-50099580D01*
X144577580Y-85837157D02*
X144482342Y-85789538D01*
X144482342Y-85789538D02*
X144387104Y-85694300D01*
X144387104Y-85694300D02*
X144244247Y-85551442D01*
X144244247Y-85551442D02*
X144149009Y-85503823D01*
X144149009Y-85503823D02*
X144053771Y-85503823D01*
X144101390Y-85741919D02*
X144006152Y-85694300D01*
X144006152Y-85694300D02*
X143910914Y-85599061D01*
X143910914Y-85599061D02*
X143863295Y-85408585D01*
X143863295Y-85408585D02*
X143863295Y-85075252D01*
X143863295Y-85075252D02*
X143910914Y-84884776D01*
X143910914Y-84884776D02*
X144006152Y-84789538D01*
X144006152Y-84789538D02*
X144101390Y-84741919D01*
X144101390Y-84741919D02*
X144291866Y-84741919D01*
X144291866Y-84741919D02*
X144387104Y-84789538D01*
X144387104Y-84789538D02*
X144482342Y-84884776D01*
X144482342Y-84884776D02*
X144529961Y-85075252D01*
X144529961Y-85075252D02*
X144529961Y-85408585D01*
X144529961Y-85408585D02*
X144482342Y-85599061D01*
X144482342Y-85599061D02*
X144387104Y-85694300D01*
X144387104Y-85694300D02*
X144291866Y-85741919D01*
X144291866Y-85741919D02*
X144101390Y-85741919D01*
X145482342Y-85741919D02*
X144910914Y-85741919D01*
X145196628Y-85741919D02*
X145196628Y-84741919D01*
X145196628Y-84741919D02*
X145101390Y-84884776D01*
X145101390Y-84884776D02*
X145006152Y-84980014D01*
X145006152Y-84980014D02*
X144910914Y-85027633D01*
X146101390Y-84741919D02*
X146196628Y-84741919D01*
X146196628Y-84741919D02*
X146291866Y-84789538D01*
X146291866Y-84789538D02*
X146339485Y-84837157D01*
X146339485Y-84837157D02*
X146387104Y-84932395D01*
X146387104Y-84932395D02*
X146434723Y-85122871D01*
X146434723Y-85122871D02*
X146434723Y-85360966D01*
X146434723Y-85360966D02*
X146387104Y-85551442D01*
X146387104Y-85551442D02*
X146339485Y-85646680D01*
X146339485Y-85646680D02*
X146291866Y-85694300D01*
X146291866Y-85694300D02*
X146196628Y-85741919D01*
X146196628Y-85741919D02*
X146101390Y-85741919D01*
X146101390Y-85741919D02*
X146006152Y-85694300D01*
X146006152Y-85694300D02*
X145958533Y-85646680D01*
X145958533Y-85646680D02*
X145910914Y-85551442D01*
X145910914Y-85551442D02*
X145863295Y-85360966D01*
X145863295Y-85360966D02*
X145863295Y-85122871D01*
X145863295Y-85122871D02*
X145910914Y-84932395D01*
X145910914Y-84932395D02*
X145958533Y-84837157D01*
X145958533Y-84837157D02*
X146006152Y-84789538D01*
X146006152Y-84789538D02*
X146101390Y-84741919D01*
X146910914Y-85741919D02*
X147101390Y-85741919D01*
X147101390Y-85741919D02*
X147196628Y-85694300D01*
X147196628Y-85694300D02*
X147244247Y-85646680D01*
X147244247Y-85646680D02*
X147339485Y-85503823D01*
X147339485Y-85503823D02*
X147387104Y-85313347D01*
X147387104Y-85313347D02*
X147387104Y-84932395D01*
X147387104Y-84932395D02*
X147339485Y-84837157D01*
X147339485Y-84837157D02*
X147291866Y-84789538D01*
X147291866Y-84789538D02*
X147196628Y-84741919D01*
X147196628Y-84741919D02*
X147006152Y-84741919D01*
X147006152Y-84741919D02*
X146910914Y-84789538D01*
X146910914Y-84789538D02*
X146863295Y-84837157D01*
X146863295Y-84837157D02*
X146815676Y-84932395D01*
X146815676Y-84932395D02*
X146815676Y-85170490D01*
X146815676Y-85170490D02*
X146863295Y-85265728D01*
X146863295Y-85265728D02*
X146910914Y-85313347D01*
X146910914Y-85313347D02*
X147006152Y-85360966D01*
X147006152Y-85360966D02*
X147196628Y-85360966D01*
X147196628Y-85360966D02*
X147291866Y-85313347D01*
X147291866Y-85313347D02*
X147339485Y-85265728D01*
X147339485Y-85265728D02*
X147387104Y-85170490D01*
X148210714Y-58324819D02*
X148210714Y-59134342D01*
X148210714Y-59134342D02*
X148258333Y-59229580D01*
X148258333Y-59229580D02*
X148305952Y-59277200D01*
X148305952Y-59277200D02*
X148401190Y-59324819D01*
X148401190Y-59324819D02*
X148591666Y-59324819D01*
X148591666Y-59324819D02*
X148686904Y-59277200D01*
X148686904Y-59277200D02*
X148734523Y-59229580D01*
X148734523Y-59229580D02*
X148782142Y-59134342D01*
X148782142Y-59134342D02*
X148782142Y-58324819D01*
X149782142Y-59324819D02*
X149210714Y-59324819D01*
X149496428Y-59324819D02*
X149496428Y-58324819D01*
X149496428Y-58324819D02*
X149401190Y-58467676D01*
X149401190Y-58467676D02*
X149305952Y-58562914D01*
X149305952Y-58562914D02*
X149210714Y-58610533D01*
X150401190Y-58324819D02*
X150496428Y-58324819D01*
X150496428Y-58324819D02*
X150591666Y-58372438D01*
X150591666Y-58372438D02*
X150639285Y-58420057D01*
X150639285Y-58420057D02*
X150686904Y-58515295D01*
X150686904Y-58515295D02*
X150734523Y-58705771D01*
X150734523Y-58705771D02*
X150734523Y-58943866D01*
X150734523Y-58943866D02*
X150686904Y-59134342D01*
X150686904Y-59134342D02*
X150639285Y-59229580D01*
X150639285Y-59229580D02*
X150591666Y-59277200D01*
X150591666Y-59277200D02*
X150496428Y-59324819D01*
X150496428Y-59324819D02*
X150401190Y-59324819D01*
X150401190Y-59324819D02*
X150305952Y-59277200D01*
X150305952Y-59277200D02*
X150258333Y-59229580D01*
X150258333Y-59229580D02*
X150210714Y-59134342D01*
X150210714Y-59134342D02*
X150163095Y-58943866D01*
X150163095Y-58943866D02*
X150163095Y-58705771D01*
X150163095Y-58705771D02*
X150210714Y-58515295D01*
X150210714Y-58515295D02*
X150258333Y-58420057D01*
X150258333Y-58420057D02*
X150305952Y-58372438D01*
X150305952Y-58372438D02*
X150401190Y-58324819D01*
X151067857Y-58324819D02*
X151686904Y-58324819D01*
X151686904Y-58324819D02*
X151353571Y-58705771D01*
X151353571Y-58705771D02*
X151496428Y-58705771D01*
X151496428Y-58705771D02*
X151591666Y-58753390D01*
X151591666Y-58753390D02*
X151639285Y-58801009D01*
X151639285Y-58801009D02*
X151686904Y-58896247D01*
X151686904Y-58896247D02*
X151686904Y-59134342D01*
X151686904Y-59134342D02*
X151639285Y-59229580D01*
X151639285Y-59229580D02*
X151591666Y-59277200D01*
X151591666Y-59277200D02*
X151496428Y-59324819D01*
X151496428Y-59324819D02*
X151210714Y-59324819D01*
X151210714Y-59324819D02*
X151115476Y-59277200D01*
X151115476Y-59277200D02*
X151067857Y-59229580D01*
X152429285Y-106664819D02*
X152429285Y-107379104D01*
X152429285Y-107379104D02*
X152381666Y-107521961D01*
X152381666Y-107521961D02*
X152286428Y-107617200D01*
X152286428Y-107617200D02*
X152143571Y-107664819D01*
X152143571Y-107664819D02*
X152048333Y-107664819D01*
X152905476Y-107664819D02*
X152905476Y-106664819D01*
X152905476Y-106664819D02*
X153286428Y-106664819D01*
X153286428Y-106664819D02*
X153381666Y-106712438D01*
X153381666Y-106712438D02*
X153429285Y-106760057D01*
X153429285Y-106760057D02*
X153476904Y-106855295D01*
X153476904Y-106855295D02*
X153476904Y-106998152D01*
X153476904Y-106998152D02*
X153429285Y-107093390D01*
X153429285Y-107093390D02*
X153381666Y-107141009D01*
X153381666Y-107141009D02*
X153286428Y-107188628D01*
X153286428Y-107188628D02*
X152905476Y-107188628D01*
X154429285Y-107664819D02*
X153857857Y-107664819D01*
X154143571Y-107664819D02*
X154143571Y-106664819D01*
X154143571Y-106664819D02*
X154048333Y-106807676D01*
X154048333Y-106807676D02*
X153953095Y-106902914D01*
X153953095Y-106902914D02*
X153857857Y-106950533D01*
X155048333Y-106664819D02*
X155143571Y-106664819D01*
X155143571Y-106664819D02*
X155238809Y-106712438D01*
X155238809Y-106712438D02*
X155286428Y-106760057D01*
X155286428Y-106760057D02*
X155334047Y-106855295D01*
X155334047Y-106855295D02*
X155381666Y-107045771D01*
X155381666Y-107045771D02*
X155381666Y-107283866D01*
X155381666Y-107283866D02*
X155334047Y-107474342D01*
X155334047Y-107474342D02*
X155286428Y-107569580D01*
X155286428Y-107569580D02*
X155238809Y-107617200D01*
X155238809Y-107617200D02*
X155143571Y-107664819D01*
X155143571Y-107664819D02*
X155048333Y-107664819D01*
X155048333Y-107664819D02*
X154953095Y-107617200D01*
X154953095Y-107617200D02*
X154905476Y-107569580D01*
X154905476Y-107569580D02*
X154857857Y-107474342D01*
X154857857Y-107474342D02*
X154810238Y-107283866D01*
X154810238Y-107283866D02*
X154810238Y-107045771D01*
X154810238Y-107045771D02*
X154857857Y-106855295D01*
X154857857Y-106855295D02*
X154905476Y-106760057D01*
X154905476Y-106760057D02*
X154953095Y-106712438D01*
X154953095Y-106712438D02*
X155048333Y-106664819D01*
X155715000Y-106664819D02*
X156334047Y-106664819D01*
X156334047Y-106664819D02*
X156000714Y-107045771D01*
X156000714Y-107045771D02*
X156143571Y-107045771D01*
X156143571Y-107045771D02*
X156238809Y-107093390D01*
X156238809Y-107093390D02*
X156286428Y-107141009D01*
X156286428Y-107141009D02*
X156334047Y-107236247D01*
X156334047Y-107236247D02*
X156334047Y-107474342D01*
X156334047Y-107474342D02*
X156286428Y-107569580D01*
X156286428Y-107569580D02*
X156238809Y-107617200D01*
X156238809Y-107617200D02*
X156143571Y-107664819D01*
X156143571Y-107664819D02*
X155857857Y-107664819D01*
X155857857Y-107664819D02*
X155762619Y-107617200D01*
X155762619Y-107617200D02*
X155715000Y-107569580D01*
X148150714Y-47813019D02*
X148150714Y-48622542D01*
X148150714Y-48622542D02*
X148198333Y-48717780D01*
X148198333Y-48717780D02*
X148245952Y-48765400D01*
X148245952Y-48765400D02*
X148341190Y-48813019D01*
X148341190Y-48813019D02*
X148531666Y-48813019D01*
X148531666Y-48813019D02*
X148626904Y-48765400D01*
X148626904Y-48765400D02*
X148674523Y-48717780D01*
X148674523Y-48717780D02*
X148722142Y-48622542D01*
X148722142Y-48622542D02*
X148722142Y-47813019D01*
X149722142Y-48813019D02*
X149150714Y-48813019D01*
X149436428Y-48813019D02*
X149436428Y-47813019D01*
X149436428Y-47813019D02*
X149341190Y-47955876D01*
X149341190Y-47955876D02*
X149245952Y-48051114D01*
X149245952Y-48051114D02*
X149150714Y-48098733D01*
X150341190Y-47813019D02*
X150436428Y-47813019D01*
X150436428Y-47813019D02*
X150531666Y-47860638D01*
X150531666Y-47860638D02*
X150579285Y-47908257D01*
X150579285Y-47908257D02*
X150626904Y-48003495D01*
X150626904Y-48003495D02*
X150674523Y-48193971D01*
X150674523Y-48193971D02*
X150674523Y-48432066D01*
X150674523Y-48432066D02*
X150626904Y-48622542D01*
X150626904Y-48622542D02*
X150579285Y-48717780D01*
X150579285Y-48717780D02*
X150531666Y-48765400D01*
X150531666Y-48765400D02*
X150436428Y-48813019D01*
X150436428Y-48813019D02*
X150341190Y-48813019D01*
X150341190Y-48813019D02*
X150245952Y-48765400D01*
X150245952Y-48765400D02*
X150198333Y-48717780D01*
X150198333Y-48717780D02*
X150150714Y-48622542D01*
X150150714Y-48622542D02*
X150103095Y-48432066D01*
X150103095Y-48432066D02*
X150103095Y-48193971D01*
X150103095Y-48193971D02*
X150150714Y-48003495D01*
X150150714Y-48003495D02*
X150198333Y-47908257D01*
X150198333Y-47908257D02*
X150245952Y-47860638D01*
X150245952Y-47860638D02*
X150341190Y-47813019D01*
X151626904Y-48813019D02*
X151055476Y-48813019D01*
X151341190Y-48813019D02*
X151341190Y-47813019D01*
X151341190Y-47813019D02*
X151245952Y-47955876D01*
X151245952Y-47955876D02*
X151150714Y-48051114D01*
X151150714Y-48051114D02*
X151055476Y-48098733D01*
X144579080Y-68263857D02*
X144483842Y-68216238D01*
X144483842Y-68216238D02*
X144388604Y-68121000D01*
X144388604Y-68121000D02*
X144245747Y-67978142D01*
X144245747Y-67978142D02*
X144150509Y-67930523D01*
X144150509Y-67930523D02*
X144055271Y-67930523D01*
X144102890Y-68168619D02*
X144007652Y-68121000D01*
X144007652Y-68121000D02*
X143912414Y-68025761D01*
X143912414Y-68025761D02*
X143864795Y-67835285D01*
X143864795Y-67835285D02*
X143864795Y-67501952D01*
X143864795Y-67501952D02*
X143912414Y-67311476D01*
X143912414Y-67311476D02*
X144007652Y-67216238D01*
X144007652Y-67216238D02*
X144102890Y-67168619D01*
X144102890Y-67168619D02*
X144293366Y-67168619D01*
X144293366Y-67168619D02*
X144388604Y-67216238D01*
X144388604Y-67216238D02*
X144483842Y-67311476D01*
X144483842Y-67311476D02*
X144531461Y-67501952D01*
X144531461Y-67501952D02*
X144531461Y-67835285D01*
X144531461Y-67835285D02*
X144483842Y-68025761D01*
X144483842Y-68025761D02*
X144388604Y-68121000D01*
X144388604Y-68121000D02*
X144293366Y-68168619D01*
X144293366Y-68168619D02*
X144102890Y-68168619D01*
X145483842Y-68168619D02*
X144912414Y-68168619D01*
X145198128Y-68168619D02*
X145198128Y-67168619D01*
X145198128Y-67168619D02*
X145102890Y-67311476D01*
X145102890Y-67311476D02*
X145007652Y-67406714D01*
X145007652Y-67406714D02*
X144912414Y-67454333D01*
X146102890Y-67168619D02*
X146198128Y-67168619D01*
X146198128Y-67168619D02*
X146293366Y-67216238D01*
X146293366Y-67216238D02*
X146340985Y-67263857D01*
X146340985Y-67263857D02*
X146388604Y-67359095D01*
X146388604Y-67359095D02*
X146436223Y-67549571D01*
X146436223Y-67549571D02*
X146436223Y-67787666D01*
X146436223Y-67787666D02*
X146388604Y-67978142D01*
X146388604Y-67978142D02*
X146340985Y-68073380D01*
X146340985Y-68073380D02*
X146293366Y-68121000D01*
X146293366Y-68121000D02*
X146198128Y-68168619D01*
X146198128Y-68168619D02*
X146102890Y-68168619D01*
X146102890Y-68168619D02*
X146007652Y-68121000D01*
X146007652Y-68121000D02*
X145960033Y-68073380D01*
X145960033Y-68073380D02*
X145912414Y-67978142D01*
X145912414Y-67978142D02*
X145864795Y-67787666D01*
X145864795Y-67787666D02*
X145864795Y-67549571D01*
X145864795Y-67549571D02*
X145912414Y-67359095D01*
X145912414Y-67359095D02*
X145960033Y-67263857D01*
X145960033Y-67263857D02*
X146007652Y-67216238D01*
X146007652Y-67216238D02*
X146102890Y-67168619D01*
X147388604Y-68168619D02*
X146817176Y-68168619D01*
X147102890Y-68168619D02*
X147102890Y-67168619D01*
X147102890Y-67168619D02*
X147007652Y-67311476D01*
X147007652Y-67311476D02*
X146912414Y-67406714D01*
X146912414Y-67406714D02*
X146817176Y-67454333D01*
X162270419Y-66514985D02*
X163079942Y-66514985D01*
X163079942Y-66514985D02*
X163175180Y-66467366D01*
X163175180Y-66467366D02*
X163222800Y-66419747D01*
X163222800Y-66419747D02*
X163270419Y-66324509D01*
X163270419Y-66324509D02*
X163270419Y-66134033D01*
X163270419Y-66134033D02*
X163222800Y-66038795D01*
X163222800Y-66038795D02*
X163175180Y-65991176D01*
X163175180Y-65991176D02*
X163079942Y-65943557D01*
X163079942Y-65943557D02*
X162270419Y-65943557D01*
X163270419Y-64943557D02*
X163270419Y-65514985D01*
X163270419Y-65229271D02*
X162270419Y-65229271D01*
X162270419Y-65229271D02*
X162413276Y-65324509D01*
X162413276Y-65324509D02*
X162508514Y-65419747D01*
X162508514Y-65419747D02*
X162556133Y-65514985D01*
X162270419Y-64324509D02*
X162270419Y-64229271D01*
X162270419Y-64229271D02*
X162318038Y-64134033D01*
X162318038Y-64134033D02*
X162365657Y-64086414D01*
X162365657Y-64086414D02*
X162460895Y-64038795D01*
X162460895Y-64038795D02*
X162651371Y-63991176D01*
X162651371Y-63991176D02*
X162889466Y-63991176D01*
X162889466Y-63991176D02*
X163079942Y-64038795D01*
X163079942Y-64038795D02*
X163175180Y-64086414D01*
X163175180Y-64086414D02*
X163222800Y-64134033D01*
X163222800Y-64134033D02*
X163270419Y-64229271D01*
X163270419Y-64229271D02*
X163270419Y-64324509D01*
X163270419Y-64324509D02*
X163222800Y-64419747D01*
X163222800Y-64419747D02*
X163175180Y-64467366D01*
X163175180Y-64467366D02*
X163079942Y-64514985D01*
X163079942Y-64514985D02*
X162889466Y-64562604D01*
X162889466Y-64562604D02*
X162651371Y-64562604D01*
X162651371Y-64562604D02*
X162460895Y-64514985D01*
X162460895Y-64514985D02*
X162365657Y-64467366D01*
X162365657Y-64467366D02*
X162318038Y-64419747D01*
X162318038Y-64419747D02*
X162270419Y-64324509D01*
X162270419Y-63134033D02*
X162270419Y-63324509D01*
X162270419Y-63324509D02*
X162318038Y-63419747D01*
X162318038Y-63419747D02*
X162365657Y-63467366D01*
X162365657Y-63467366D02*
X162508514Y-63562604D01*
X162508514Y-63562604D02*
X162698990Y-63610223D01*
X162698990Y-63610223D02*
X163079942Y-63610223D01*
X163079942Y-63610223D02*
X163175180Y-63562604D01*
X163175180Y-63562604D02*
X163222800Y-63514985D01*
X163222800Y-63514985D02*
X163270419Y-63419747D01*
X163270419Y-63419747D02*
X163270419Y-63229271D01*
X163270419Y-63229271D02*
X163222800Y-63134033D01*
X163222800Y-63134033D02*
X163175180Y-63086414D01*
X163175180Y-63086414D02*
X163079942Y-63038795D01*
X163079942Y-63038795D02*
X162841847Y-63038795D01*
X162841847Y-63038795D02*
X162746609Y-63086414D01*
X162746609Y-63086414D02*
X162698990Y-63134033D01*
X162698990Y-63134033D02*
X162651371Y-63229271D01*
X162651371Y-63229271D02*
X162651371Y-63419747D01*
X162651371Y-63419747D02*
X162698990Y-63514985D01*
X162698990Y-63514985D02*
X162746609Y-63562604D01*
X162746609Y-63562604D02*
X162841847Y-63610223D01*
X150294080Y-78620057D02*
X150198842Y-78572438D01*
X150198842Y-78572438D02*
X150103604Y-78477200D01*
X150103604Y-78477200D02*
X149960747Y-78334342D01*
X149960747Y-78334342D02*
X149865509Y-78286723D01*
X149865509Y-78286723D02*
X149770271Y-78286723D01*
X149817890Y-78524819D02*
X149722652Y-78477200D01*
X149722652Y-78477200D02*
X149627414Y-78381961D01*
X149627414Y-78381961D02*
X149579795Y-78191485D01*
X149579795Y-78191485D02*
X149579795Y-77858152D01*
X149579795Y-77858152D02*
X149627414Y-77667676D01*
X149627414Y-77667676D02*
X149722652Y-77572438D01*
X149722652Y-77572438D02*
X149817890Y-77524819D01*
X149817890Y-77524819D02*
X150008366Y-77524819D01*
X150008366Y-77524819D02*
X150103604Y-77572438D01*
X150103604Y-77572438D02*
X150198842Y-77667676D01*
X150198842Y-77667676D02*
X150246461Y-77858152D01*
X150246461Y-77858152D02*
X150246461Y-78191485D01*
X150246461Y-78191485D02*
X150198842Y-78381961D01*
X150198842Y-78381961D02*
X150103604Y-78477200D01*
X150103604Y-78477200D02*
X150008366Y-78524819D01*
X150008366Y-78524819D02*
X149817890Y-78524819D01*
X151198842Y-78524819D02*
X150627414Y-78524819D01*
X150913128Y-78524819D02*
X150913128Y-77524819D01*
X150913128Y-77524819D02*
X150817890Y-77667676D01*
X150817890Y-77667676D02*
X150722652Y-77762914D01*
X150722652Y-77762914D02*
X150627414Y-77810533D01*
X151817890Y-77524819D02*
X151913128Y-77524819D01*
X151913128Y-77524819D02*
X152008366Y-77572438D01*
X152008366Y-77572438D02*
X152055985Y-77620057D01*
X152055985Y-77620057D02*
X152103604Y-77715295D01*
X152103604Y-77715295D02*
X152151223Y-77905771D01*
X152151223Y-77905771D02*
X152151223Y-78143866D01*
X152151223Y-78143866D02*
X152103604Y-78334342D01*
X152103604Y-78334342D02*
X152055985Y-78429580D01*
X152055985Y-78429580D02*
X152008366Y-78477200D01*
X152008366Y-78477200D02*
X151913128Y-78524819D01*
X151913128Y-78524819D02*
X151817890Y-78524819D01*
X151817890Y-78524819D02*
X151722652Y-78477200D01*
X151722652Y-78477200D02*
X151675033Y-78429580D01*
X151675033Y-78429580D02*
X151627414Y-78334342D01*
X151627414Y-78334342D02*
X151579795Y-78143866D01*
X151579795Y-78143866D02*
X151579795Y-77905771D01*
X151579795Y-77905771D02*
X151627414Y-77715295D01*
X151627414Y-77715295D02*
X151675033Y-77620057D01*
X151675033Y-77620057D02*
X151722652Y-77572438D01*
X151722652Y-77572438D02*
X151817890Y-77524819D01*
X153055985Y-77524819D02*
X152579795Y-77524819D01*
X152579795Y-77524819D02*
X152532176Y-78001009D01*
X152532176Y-78001009D02*
X152579795Y-77953390D01*
X152579795Y-77953390D02*
X152675033Y-77905771D01*
X152675033Y-77905771D02*
X152913128Y-77905771D01*
X152913128Y-77905771D02*
X153008366Y-77953390D01*
X153008366Y-77953390D02*
X153055985Y-78001009D01*
X153055985Y-78001009D02*
X153103604Y-78096247D01*
X153103604Y-78096247D02*
X153103604Y-78334342D01*
X153103604Y-78334342D02*
X153055985Y-78429580D01*
X153055985Y-78429580D02*
X153008366Y-78477200D01*
X153008366Y-78477200D02*
X152913128Y-78524819D01*
X152913128Y-78524819D02*
X152675033Y-78524819D01*
X152675033Y-78524819D02*
X152579795Y-78477200D01*
X152579795Y-78477200D02*
X152532176Y-78429580D01*
X134391185Y-49194819D02*
X134391185Y-49909104D01*
X134391185Y-49909104D02*
X134343566Y-50051961D01*
X134343566Y-50051961D02*
X134248328Y-50147200D01*
X134248328Y-50147200D02*
X134105471Y-50194819D01*
X134105471Y-50194819D02*
X134010233Y-50194819D01*
X135391185Y-50194819D02*
X134819757Y-50194819D01*
X135105471Y-50194819D02*
X135105471Y-49194819D01*
X135105471Y-49194819D02*
X135010233Y-49337676D01*
X135010233Y-49337676D02*
X134914995Y-49432914D01*
X134914995Y-49432914D02*
X134819757Y-49480533D01*
X136010233Y-49194819D02*
X136105471Y-49194819D01*
X136105471Y-49194819D02*
X136200709Y-49242438D01*
X136200709Y-49242438D02*
X136248328Y-49290057D01*
X136248328Y-49290057D02*
X136295947Y-49385295D01*
X136295947Y-49385295D02*
X136343566Y-49575771D01*
X136343566Y-49575771D02*
X136343566Y-49813866D01*
X136343566Y-49813866D02*
X136295947Y-50004342D01*
X136295947Y-50004342D02*
X136248328Y-50099580D01*
X136248328Y-50099580D02*
X136200709Y-50147200D01*
X136200709Y-50147200D02*
X136105471Y-50194819D01*
X136105471Y-50194819D02*
X136010233Y-50194819D01*
X136010233Y-50194819D02*
X135914995Y-50147200D01*
X135914995Y-50147200D02*
X135867376Y-50099580D01*
X135867376Y-50099580D02*
X135819757Y-50004342D01*
X135819757Y-50004342D02*
X135772138Y-49813866D01*
X135772138Y-49813866D02*
X135772138Y-49575771D01*
X135772138Y-49575771D02*
X135819757Y-49385295D01*
X135819757Y-49385295D02*
X135867376Y-49290057D01*
X135867376Y-49290057D02*
X135914995Y-49242438D01*
X135914995Y-49242438D02*
X136010233Y-49194819D01*
X137200709Y-49194819D02*
X137010233Y-49194819D01*
X137010233Y-49194819D02*
X136914995Y-49242438D01*
X136914995Y-49242438D02*
X136867376Y-49290057D01*
X136867376Y-49290057D02*
X136772138Y-49432914D01*
X136772138Y-49432914D02*
X136724519Y-49623390D01*
X136724519Y-49623390D02*
X136724519Y-50004342D01*
X136724519Y-50004342D02*
X136772138Y-50099580D01*
X136772138Y-50099580D02*
X136819757Y-50147200D01*
X136819757Y-50147200D02*
X136914995Y-50194819D01*
X136914995Y-50194819D02*
X137105471Y-50194819D01*
X137105471Y-50194819D02*
X137200709Y-50147200D01*
X137200709Y-50147200D02*
X137248328Y-50099580D01*
X137248328Y-50099580D02*
X137295947Y-50004342D01*
X137295947Y-50004342D02*
X137295947Y-49766247D01*
X137295947Y-49766247D02*
X137248328Y-49671009D01*
X137248328Y-49671009D02*
X137200709Y-49623390D01*
X137200709Y-49623390D02*
X137105471Y-49575771D01*
X137105471Y-49575771D02*
X136914995Y-49575771D01*
X136914995Y-49575771D02*
X136819757Y-49623390D01*
X136819757Y-49623390D02*
X136772138Y-49671009D01*
X136772138Y-49671009D02*
X136724519Y-49766247D01*
X83939285Y-80619819D02*
X83939285Y-81334104D01*
X83939285Y-81334104D02*
X83891666Y-81476961D01*
X83891666Y-81476961D02*
X83796428Y-81572200D01*
X83796428Y-81572200D02*
X83653571Y-81619819D01*
X83653571Y-81619819D02*
X83558333Y-81619819D01*
X84939285Y-81619819D02*
X84367857Y-81619819D01*
X84653571Y-81619819D02*
X84653571Y-80619819D01*
X84653571Y-80619819D02*
X84558333Y-80762676D01*
X84558333Y-80762676D02*
X84463095Y-80857914D01*
X84463095Y-80857914D02*
X84367857Y-80905533D01*
X85891666Y-81619819D02*
X85320238Y-81619819D01*
X85605952Y-81619819D02*
X85605952Y-80619819D01*
X85605952Y-80619819D02*
X85510714Y-80762676D01*
X85510714Y-80762676D02*
X85415476Y-80857914D01*
X85415476Y-80857914D02*
X85320238Y-80905533D01*
X86796428Y-80619819D02*
X86320238Y-80619819D01*
X86320238Y-80619819D02*
X86272619Y-81096009D01*
X86272619Y-81096009D02*
X86320238Y-81048390D01*
X86320238Y-81048390D02*
X86415476Y-81000771D01*
X86415476Y-81000771D02*
X86653571Y-81000771D01*
X86653571Y-81000771D02*
X86748809Y-81048390D01*
X86748809Y-81048390D02*
X86796428Y-81096009D01*
X86796428Y-81096009D02*
X86844047Y-81191247D01*
X86844047Y-81191247D02*
X86844047Y-81429342D01*
X86844047Y-81429342D02*
X86796428Y-81524580D01*
X86796428Y-81524580D02*
X86748809Y-81572200D01*
X86748809Y-81572200D02*
X86653571Y-81619819D01*
X86653571Y-81619819D02*
X86415476Y-81619819D01*
X86415476Y-81619819D02*
X86320238Y-81572200D01*
X86320238Y-81572200D02*
X86272619Y-81524580D01*
X95023785Y-49115419D02*
X95023785Y-49829704D01*
X95023785Y-49829704D02*
X94976166Y-49972561D01*
X94976166Y-49972561D02*
X94880928Y-50067800D01*
X94880928Y-50067800D02*
X94738071Y-50115419D01*
X94738071Y-50115419D02*
X94642833Y-50115419D01*
X96023785Y-50115419D02*
X95452357Y-50115419D01*
X95738071Y-50115419D02*
X95738071Y-49115419D01*
X95738071Y-49115419D02*
X95642833Y-49258276D01*
X95642833Y-49258276D02*
X95547595Y-49353514D01*
X95547595Y-49353514D02*
X95452357Y-49401133D01*
X96976166Y-50115419D02*
X96404738Y-50115419D01*
X96690452Y-50115419D02*
X96690452Y-49115419D01*
X96690452Y-49115419D02*
X96595214Y-49258276D01*
X96595214Y-49258276D02*
X96499976Y-49353514D01*
X96499976Y-49353514D02*
X96404738Y-49401133D01*
X97595214Y-49115419D02*
X97690452Y-49115419D01*
X97690452Y-49115419D02*
X97785690Y-49163038D01*
X97785690Y-49163038D02*
X97833309Y-49210657D01*
X97833309Y-49210657D02*
X97880928Y-49305895D01*
X97880928Y-49305895D02*
X97928547Y-49496371D01*
X97928547Y-49496371D02*
X97928547Y-49734466D01*
X97928547Y-49734466D02*
X97880928Y-49924942D01*
X97880928Y-49924942D02*
X97833309Y-50020180D01*
X97833309Y-50020180D02*
X97785690Y-50067800D01*
X97785690Y-50067800D02*
X97690452Y-50115419D01*
X97690452Y-50115419D02*
X97595214Y-50115419D01*
X97595214Y-50115419D02*
X97499976Y-50067800D01*
X97499976Y-50067800D02*
X97452357Y-50020180D01*
X97452357Y-50020180D02*
X97404738Y-49924942D01*
X97404738Y-49924942D02*
X97357119Y-49734466D01*
X97357119Y-49734466D02*
X97357119Y-49496371D01*
X97357119Y-49496371D02*
X97404738Y-49305895D01*
X97404738Y-49305895D02*
X97452357Y-49210657D01*
X97452357Y-49210657D02*
X97499976Y-49163038D01*
X97499976Y-49163038D02*
X97595214Y-49115419D01*
X152519285Y-101584819D02*
X152519285Y-102299104D01*
X152519285Y-102299104D02*
X152471666Y-102441961D01*
X152471666Y-102441961D02*
X152376428Y-102537200D01*
X152376428Y-102537200D02*
X152233571Y-102584819D01*
X152233571Y-102584819D02*
X152138333Y-102584819D01*
X152995476Y-102584819D02*
X152995476Y-101584819D01*
X152995476Y-101584819D02*
X153376428Y-101584819D01*
X153376428Y-101584819D02*
X153471666Y-101632438D01*
X153471666Y-101632438D02*
X153519285Y-101680057D01*
X153519285Y-101680057D02*
X153566904Y-101775295D01*
X153566904Y-101775295D02*
X153566904Y-101918152D01*
X153566904Y-101918152D02*
X153519285Y-102013390D01*
X153519285Y-102013390D02*
X153471666Y-102061009D01*
X153471666Y-102061009D02*
X153376428Y-102108628D01*
X153376428Y-102108628D02*
X152995476Y-102108628D01*
X154519285Y-102584819D02*
X153947857Y-102584819D01*
X154233571Y-102584819D02*
X154233571Y-101584819D01*
X154233571Y-101584819D02*
X154138333Y-101727676D01*
X154138333Y-101727676D02*
X154043095Y-101822914D01*
X154043095Y-101822914D02*
X153947857Y-101870533D01*
X155138333Y-101584819D02*
X155233571Y-101584819D01*
X155233571Y-101584819D02*
X155328809Y-101632438D01*
X155328809Y-101632438D02*
X155376428Y-101680057D01*
X155376428Y-101680057D02*
X155424047Y-101775295D01*
X155424047Y-101775295D02*
X155471666Y-101965771D01*
X155471666Y-101965771D02*
X155471666Y-102203866D01*
X155471666Y-102203866D02*
X155424047Y-102394342D01*
X155424047Y-102394342D02*
X155376428Y-102489580D01*
X155376428Y-102489580D02*
X155328809Y-102537200D01*
X155328809Y-102537200D02*
X155233571Y-102584819D01*
X155233571Y-102584819D02*
X155138333Y-102584819D01*
X155138333Y-102584819D02*
X155043095Y-102537200D01*
X155043095Y-102537200D02*
X154995476Y-102489580D01*
X154995476Y-102489580D02*
X154947857Y-102394342D01*
X154947857Y-102394342D02*
X154900238Y-102203866D01*
X154900238Y-102203866D02*
X154900238Y-101965771D01*
X154900238Y-101965771D02*
X154947857Y-101775295D01*
X154947857Y-101775295D02*
X154995476Y-101680057D01*
X154995476Y-101680057D02*
X155043095Y-101632438D01*
X155043095Y-101632438D02*
X155138333Y-101584819D01*
X156424047Y-102584819D02*
X155852619Y-102584819D01*
X156138333Y-102584819D02*
X156138333Y-101584819D01*
X156138333Y-101584819D02*
X156043095Y-101727676D01*
X156043095Y-101727676D02*
X155947857Y-101822914D01*
X155947857Y-101822914D02*
X155852619Y-101870533D01*
X129521685Y-49194819D02*
X129521685Y-49909104D01*
X129521685Y-49909104D02*
X129474066Y-50051961D01*
X129474066Y-50051961D02*
X129378828Y-50147200D01*
X129378828Y-50147200D02*
X129235971Y-50194819D01*
X129235971Y-50194819D02*
X129140733Y-50194819D01*
X130521685Y-50194819D02*
X129950257Y-50194819D01*
X130235971Y-50194819D02*
X130235971Y-49194819D01*
X130235971Y-49194819D02*
X130140733Y-49337676D01*
X130140733Y-49337676D02*
X130045495Y-49432914D01*
X130045495Y-49432914D02*
X129950257Y-49480533D01*
X131140733Y-49194819D02*
X131235971Y-49194819D01*
X131235971Y-49194819D02*
X131331209Y-49242438D01*
X131331209Y-49242438D02*
X131378828Y-49290057D01*
X131378828Y-49290057D02*
X131426447Y-49385295D01*
X131426447Y-49385295D02*
X131474066Y-49575771D01*
X131474066Y-49575771D02*
X131474066Y-49813866D01*
X131474066Y-49813866D02*
X131426447Y-50004342D01*
X131426447Y-50004342D02*
X131378828Y-50099580D01*
X131378828Y-50099580D02*
X131331209Y-50147200D01*
X131331209Y-50147200D02*
X131235971Y-50194819D01*
X131235971Y-50194819D02*
X131140733Y-50194819D01*
X131140733Y-50194819D02*
X131045495Y-50147200D01*
X131045495Y-50147200D02*
X130997876Y-50099580D01*
X130997876Y-50099580D02*
X130950257Y-50004342D01*
X130950257Y-50004342D02*
X130902638Y-49813866D01*
X130902638Y-49813866D02*
X130902638Y-49575771D01*
X130902638Y-49575771D02*
X130950257Y-49385295D01*
X130950257Y-49385295D02*
X130997876Y-49290057D01*
X130997876Y-49290057D02*
X131045495Y-49242438D01*
X131045495Y-49242438D02*
X131140733Y-49194819D01*
X132378828Y-49194819D02*
X131902638Y-49194819D01*
X131902638Y-49194819D02*
X131855019Y-49671009D01*
X131855019Y-49671009D02*
X131902638Y-49623390D01*
X131902638Y-49623390D02*
X131997876Y-49575771D01*
X131997876Y-49575771D02*
X132235971Y-49575771D01*
X132235971Y-49575771D02*
X132331209Y-49623390D01*
X132331209Y-49623390D02*
X132378828Y-49671009D01*
X132378828Y-49671009D02*
X132426447Y-49766247D01*
X132426447Y-49766247D02*
X132426447Y-50004342D01*
X132426447Y-50004342D02*
X132378828Y-50099580D01*
X132378828Y-50099580D02*
X132331209Y-50147200D01*
X132331209Y-50147200D02*
X132235971Y-50194819D01*
X132235971Y-50194819D02*
X131997876Y-50194819D01*
X131997876Y-50194819D02*
X131902638Y-50147200D01*
X131902638Y-50147200D02*
X131855019Y-50099580D01*
X143301214Y-93459219D02*
X143301214Y-94268742D01*
X143301214Y-94268742D02*
X143348833Y-94363980D01*
X143348833Y-94363980D02*
X143396452Y-94411600D01*
X143396452Y-94411600D02*
X143491690Y-94459219D01*
X143491690Y-94459219D02*
X143682166Y-94459219D01*
X143682166Y-94459219D02*
X143777404Y-94411600D01*
X143777404Y-94411600D02*
X143825023Y-94363980D01*
X143825023Y-94363980D02*
X143872642Y-94268742D01*
X143872642Y-94268742D02*
X143872642Y-93459219D01*
X144872642Y-94459219D02*
X144301214Y-94459219D01*
X144586928Y-94459219D02*
X144586928Y-93459219D01*
X144586928Y-93459219D02*
X144491690Y-93602076D01*
X144491690Y-93602076D02*
X144396452Y-93697314D01*
X144396452Y-93697314D02*
X144301214Y-93744933D01*
X145491690Y-93459219D02*
X145586928Y-93459219D01*
X145586928Y-93459219D02*
X145682166Y-93506838D01*
X145682166Y-93506838D02*
X145729785Y-93554457D01*
X145729785Y-93554457D02*
X145777404Y-93649695D01*
X145777404Y-93649695D02*
X145825023Y-93840171D01*
X145825023Y-93840171D02*
X145825023Y-94078266D01*
X145825023Y-94078266D02*
X145777404Y-94268742D01*
X145777404Y-94268742D02*
X145729785Y-94363980D01*
X145729785Y-94363980D02*
X145682166Y-94411600D01*
X145682166Y-94411600D02*
X145586928Y-94459219D01*
X145586928Y-94459219D02*
X145491690Y-94459219D01*
X145491690Y-94459219D02*
X145396452Y-94411600D01*
X145396452Y-94411600D02*
X145348833Y-94363980D01*
X145348833Y-94363980D02*
X145301214Y-94268742D01*
X145301214Y-94268742D02*
X145253595Y-94078266D01*
X145253595Y-94078266D02*
X145253595Y-93840171D01*
X145253595Y-93840171D02*
X145301214Y-93649695D01*
X145301214Y-93649695D02*
X145348833Y-93554457D01*
X145348833Y-93554457D02*
X145396452Y-93506838D01*
X145396452Y-93506838D02*
X145491690Y-93459219D01*
X146682166Y-93792552D02*
X146682166Y-94459219D01*
X146444071Y-93411600D02*
X146205976Y-94125885D01*
X146205976Y-94125885D02*
X146825023Y-94125885D01*
X150294080Y-68263857D02*
X150198842Y-68216238D01*
X150198842Y-68216238D02*
X150103604Y-68121000D01*
X150103604Y-68121000D02*
X149960747Y-67978142D01*
X149960747Y-67978142D02*
X149865509Y-67930523D01*
X149865509Y-67930523D02*
X149770271Y-67930523D01*
X149817890Y-68168619D02*
X149722652Y-68121000D01*
X149722652Y-68121000D02*
X149627414Y-68025761D01*
X149627414Y-68025761D02*
X149579795Y-67835285D01*
X149579795Y-67835285D02*
X149579795Y-67501952D01*
X149579795Y-67501952D02*
X149627414Y-67311476D01*
X149627414Y-67311476D02*
X149722652Y-67216238D01*
X149722652Y-67216238D02*
X149817890Y-67168619D01*
X149817890Y-67168619D02*
X150008366Y-67168619D01*
X150008366Y-67168619D02*
X150103604Y-67216238D01*
X150103604Y-67216238D02*
X150198842Y-67311476D01*
X150198842Y-67311476D02*
X150246461Y-67501952D01*
X150246461Y-67501952D02*
X150246461Y-67835285D01*
X150246461Y-67835285D02*
X150198842Y-68025761D01*
X150198842Y-68025761D02*
X150103604Y-68121000D01*
X150103604Y-68121000D02*
X150008366Y-68168619D01*
X150008366Y-68168619D02*
X149817890Y-68168619D01*
X151198842Y-68168619D02*
X150627414Y-68168619D01*
X150913128Y-68168619D02*
X150913128Y-67168619D01*
X150913128Y-67168619D02*
X150817890Y-67311476D01*
X150817890Y-67311476D02*
X150722652Y-67406714D01*
X150722652Y-67406714D02*
X150627414Y-67454333D01*
X151817890Y-67168619D02*
X151913128Y-67168619D01*
X151913128Y-67168619D02*
X152008366Y-67216238D01*
X152008366Y-67216238D02*
X152055985Y-67263857D01*
X152055985Y-67263857D02*
X152103604Y-67359095D01*
X152103604Y-67359095D02*
X152151223Y-67549571D01*
X152151223Y-67549571D02*
X152151223Y-67787666D01*
X152151223Y-67787666D02*
X152103604Y-67978142D01*
X152103604Y-67978142D02*
X152055985Y-68073380D01*
X152055985Y-68073380D02*
X152008366Y-68121000D01*
X152008366Y-68121000D02*
X151913128Y-68168619D01*
X151913128Y-68168619D02*
X151817890Y-68168619D01*
X151817890Y-68168619D02*
X151722652Y-68121000D01*
X151722652Y-68121000D02*
X151675033Y-68073380D01*
X151675033Y-68073380D02*
X151627414Y-67978142D01*
X151627414Y-67978142D02*
X151579795Y-67787666D01*
X151579795Y-67787666D02*
X151579795Y-67549571D01*
X151579795Y-67549571D02*
X151627414Y-67359095D01*
X151627414Y-67359095D02*
X151675033Y-67263857D01*
X151675033Y-67263857D02*
X151722652Y-67216238D01*
X151722652Y-67216238D02*
X151817890Y-67168619D01*
X153008366Y-67501952D02*
X153008366Y-68168619D01*
X152770271Y-67121000D02*
X152532176Y-67835285D01*
X152532176Y-67835285D02*
X153151223Y-67835285D01*
X157387380Y-72860057D02*
X157292142Y-72812438D01*
X157292142Y-72812438D02*
X157196904Y-72717200D01*
X157196904Y-72717200D02*
X157054047Y-72574342D01*
X157054047Y-72574342D02*
X156958809Y-72526723D01*
X156958809Y-72526723D02*
X156863571Y-72526723D01*
X156911190Y-72764819D02*
X156815952Y-72717200D01*
X156815952Y-72717200D02*
X156720714Y-72621961D01*
X156720714Y-72621961D02*
X156673095Y-72431485D01*
X156673095Y-72431485D02*
X156673095Y-72098152D01*
X156673095Y-72098152D02*
X156720714Y-71907676D01*
X156720714Y-71907676D02*
X156815952Y-71812438D01*
X156815952Y-71812438D02*
X156911190Y-71764819D01*
X156911190Y-71764819D02*
X157101666Y-71764819D01*
X157101666Y-71764819D02*
X157196904Y-71812438D01*
X157196904Y-71812438D02*
X157292142Y-71907676D01*
X157292142Y-71907676D02*
X157339761Y-72098152D01*
X157339761Y-72098152D02*
X157339761Y-72431485D01*
X157339761Y-72431485D02*
X157292142Y-72621961D01*
X157292142Y-72621961D02*
X157196904Y-72717200D01*
X157196904Y-72717200D02*
X157101666Y-72764819D01*
X157101666Y-72764819D02*
X156911190Y-72764819D01*
X158292142Y-72764819D02*
X157720714Y-72764819D01*
X158006428Y-72764819D02*
X158006428Y-71764819D01*
X158006428Y-71764819D02*
X157911190Y-71907676D01*
X157911190Y-71907676D02*
X157815952Y-72002914D01*
X157815952Y-72002914D02*
X157720714Y-72050533D01*
X158911190Y-71764819D02*
X159006428Y-71764819D01*
X159006428Y-71764819D02*
X159101666Y-71812438D01*
X159101666Y-71812438D02*
X159149285Y-71860057D01*
X159149285Y-71860057D02*
X159196904Y-71955295D01*
X159196904Y-71955295D02*
X159244523Y-72145771D01*
X159244523Y-72145771D02*
X159244523Y-72383866D01*
X159244523Y-72383866D02*
X159196904Y-72574342D01*
X159196904Y-72574342D02*
X159149285Y-72669580D01*
X159149285Y-72669580D02*
X159101666Y-72717200D01*
X159101666Y-72717200D02*
X159006428Y-72764819D01*
X159006428Y-72764819D02*
X158911190Y-72764819D01*
X158911190Y-72764819D02*
X158815952Y-72717200D01*
X158815952Y-72717200D02*
X158768333Y-72669580D01*
X158768333Y-72669580D02*
X158720714Y-72574342D01*
X158720714Y-72574342D02*
X158673095Y-72383866D01*
X158673095Y-72383866D02*
X158673095Y-72145771D01*
X158673095Y-72145771D02*
X158720714Y-71955295D01*
X158720714Y-71955295D02*
X158768333Y-71860057D01*
X158768333Y-71860057D02*
X158815952Y-71812438D01*
X158815952Y-71812438D02*
X158911190Y-71764819D01*
X159625476Y-71860057D02*
X159673095Y-71812438D01*
X159673095Y-71812438D02*
X159768333Y-71764819D01*
X159768333Y-71764819D02*
X160006428Y-71764819D01*
X160006428Y-71764819D02*
X160101666Y-71812438D01*
X160101666Y-71812438D02*
X160149285Y-71860057D01*
X160149285Y-71860057D02*
X160196904Y-71955295D01*
X160196904Y-71955295D02*
X160196904Y-72050533D01*
X160196904Y-72050533D02*
X160149285Y-72193390D01*
X160149285Y-72193390D02*
X159577857Y-72764819D01*
X159577857Y-72764819D02*
X160196904Y-72764819D01*
X121269285Y-49194819D02*
X121269285Y-49909104D01*
X121269285Y-49909104D02*
X121221666Y-50051961D01*
X121221666Y-50051961D02*
X121126428Y-50147200D01*
X121126428Y-50147200D02*
X120983571Y-50194819D01*
X120983571Y-50194819D02*
X120888333Y-50194819D01*
X122269285Y-50194819D02*
X121697857Y-50194819D01*
X121983571Y-50194819D02*
X121983571Y-49194819D01*
X121983571Y-49194819D02*
X121888333Y-49337676D01*
X121888333Y-49337676D02*
X121793095Y-49432914D01*
X121793095Y-49432914D02*
X121697857Y-49480533D01*
X122888333Y-49194819D02*
X122983571Y-49194819D01*
X122983571Y-49194819D02*
X123078809Y-49242438D01*
X123078809Y-49242438D02*
X123126428Y-49290057D01*
X123126428Y-49290057D02*
X123174047Y-49385295D01*
X123174047Y-49385295D02*
X123221666Y-49575771D01*
X123221666Y-49575771D02*
X123221666Y-49813866D01*
X123221666Y-49813866D02*
X123174047Y-50004342D01*
X123174047Y-50004342D02*
X123126428Y-50099580D01*
X123126428Y-50099580D02*
X123078809Y-50147200D01*
X123078809Y-50147200D02*
X122983571Y-50194819D01*
X122983571Y-50194819D02*
X122888333Y-50194819D01*
X122888333Y-50194819D02*
X122793095Y-50147200D01*
X122793095Y-50147200D02*
X122745476Y-50099580D01*
X122745476Y-50099580D02*
X122697857Y-50004342D01*
X122697857Y-50004342D02*
X122650238Y-49813866D01*
X122650238Y-49813866D02*
X122650238Y-49575771D01*
X122650238Y-49575771D02*
X122697857Y-49385295D01*
X122697857Y-49385295D02*
X122745476Y-49290057D01*
X122745476Y-49290057D02*
X122793095Y-49242438D01*
X122793095Y-49242438D02*
X122888333Y-49194819D01*
X124078809Y-49528152D02*
X124078809Y-50194819D01*
X123840714Y-49147200D02*
X123602619Y-49861485D01*
X123602619Y-49861485D02*
X124221666Y-49861485D01*
X100103785Y-49115419D02*
X100103785Y-49829704D01*
X100103785Y-49829704D02*
X100056166Y-49972561D01*
X100056166Y-49972561D02*
X99960928Y-50067800D01*
X99960928Y-50067800D02*
X99818071Y-50115419D01*
X99818071Y-50115419D02*
X99722833Y-50115419D01*
X101103785Y-50115419D02*
X100532357Y-50115419D01*
X100818071Y-50115419D02*
X100818071Y-49115419D01*
X100818071Y-49115419D02*
X100722833Y-49258276D01*
X100722833Y-49258276D02*
X100627595Y-49353514D01*
X100627595Y-49353514D02*
X100532357Y-49401133D01*
X102056166Y-50115419D02*
X101484738Y-50115419D01*
X101770452Y-50115419D02*
X101770452Y-49115419D01*
X101770452Y-49115419D02*
X101675214Y-49258276D01*
X101675214Y-49258276D02*
X101579976Y-49353514D01*
X101579976Y-49353514D02*
X101484738Y-49401133D01*
X103008547Y-50115419D02*
X102437119Y-50115419D01*
X102722833Y-50115419D02*
X102722833Y-49115419D01*
X102722833Y-49115419D02*
X102627595Y-49258276D01*
X102627595Y-49258276D02*
X102532357Y-49353514D01*
X102532357Y-49353514D02*
X102437119Y-49401133D01*
X145509819Y-91585475D02*
X144509819Y-91585475D01*
X144509819Y-91585475D02*
X144509819Y-91347380D01*
X144509819Y-91347380D02*
X144557438Y-91204523D01*
X144557438Y-91204523D02*
X144652676Y-91109285D01*
X144652676Y-91109285D02*
X144747914Y-91061666D01*
X144747914Y-91061666D02*
X144938390Y-91014047D01*
X144938390Y-91014047D02*
X145081247Y-91014047D01*
X145081247Y-91014047D02*
X145271723Y-91061666D01*
X145271723Y-91061666D02*
X145366961Y-91109285D01*
X145366961Y-91109285D02*
X145462200Y-91204523D01*
X145462200Y-91204523D02*
X145509819Y-91347380D01*
X145509819Y-91347380D02*
X145509819Y-91585475D01*
X145509819Y-90061666D02*
X145509819Y-90633094D01*
X145509819Y-90347380D02*
X144509819Y-90347380D01*
X144509819Y-90347380D02*
X144652676Y-90442618D01*
X144652676Y-90442618D02*
X144747914Y-90537856D01*
X144747914Y-90537856D02*
X144795533Y-90633094D01*
X144509819Y-89442618D02*
X144509819Y-89347380D01*
X144509819Y-89347380D02*
X144557438Y-89252142D01*
X144557438Y-89252142D02*
X144605057Y-89204523D01*
X144605057Y-89204523D02*
X144700295Y-89156904D01*
X144700295Y-89156904D02*
X144890771Y-89109285D01*
X144890771Y-89109285D02*
X145128866Y-89109285D01*
X145128866Y-89109285D02*
X145319342Y-89156904D01*
X145319342Y-89156904D02*
X145414580Y-89204523D01*
X145414580Y-89204523D02*
X145462200Y-89252142D01*
X145462200Y-89252142D02*
X145509819Y-89347380D01*
X145509819Y-89347380D02*
X145509819Y-89442618D01*
X145509819Y-89442618D02*
X145462200Y-89537856D01*
X145462200Y-89537856D02*
X145414580Y-89585475D01*
X145414580Y-89585475D02*
X145319342Y-89633094D01*
X145319342Y-89633094D02*
X145128866Y-89680713D01*
X145128866Y-89680713D02*
X144890771Y-89680713D01*
X144890771Y-89680713D02*
X144700295Y-89633094D01*
X144700295Y-89633094D02*
X144605057Y-89585475D01*
X144605057Y-89585475D02*
X144557438Y-89537856D01*
X144557438Y-89537856D02*
X144509819Y-89442618D01*
X144605057Y-88728332D02*
X144557438Y-88680713D01*
X144557438Y-88680713D02*
X144509819Y-88585475D01*
X144509819Y-88585475D02*
X144509819Y-88347380D01*
X144509819Y-88347380D02*
X144557438Y-88252142D01*
X144557438Y-88252142D02*
X144605057Y-88204523D01*
X144605057Y-88204523D02*
X144700295Y-88156904D01*
X144700295Y-88156904D02*
X144795533Y-88156904D01*
X144795533Y-88156904D02*
X144938390Y-88204523D01*
X144938390Y-88204523D02*
X145509819Y-88775951D01*
X145509819Y-88775951D02*
X145509819Y-88156904D01*
X144579080Y-78620057D02*
X144483842Y-78572438D01*
X144483842Y-78572438D02*
X144388604Y-78477200D01*
X144388604Y-78477200D02*
X144245747Y-78334342D01*
X144245747Y-78334342D02*
X144150509Y-78286723D01*
X144150509Y-78286723D02*
X144055271Y-78286723D01*
X144102890Y-78524819D02*
X144007652Y-78477200D01*
X144007652Y-78477200D02*
X143912414Y-78381961D01*
X143912414Y-78381961D02*
X143864795Y-78191485D01*
X143864795Y-78191485D02*
X143864795Y-77858152D01*
X143864795Y-77858152D02*
X143912414Y-77667676D01*
X143912414Y-77667676D02*
X144007652Y-77572438D01*
X144007652Y-77572438D02*
X144102890Y-77524819D01*
X144102890Y-77524819D02*
X144293366Y-77524819D01*
X144293366Y-77524819D02*
X144388604Y-77572438D01*
X144388604Y-77572438D02*
X144483842Y-77667676D01*
X144483842Y-77667676D02*
X144531461Y-77858152D01*
X144531461Y-77858152D02*
X144531461Y-78191485D01*
X144531461Y-78191485D02*
X144483842Y-78381961D01*
X144483842Y-78381961D02*
X144388604Y-78477200D01*
X144388604Y-78477200D02*
X144293366Y-78524819D01*
X144293366Y-78524819D02*
X144102890Y-78524819D01*
X145483842Y-78524819D02*
X144912414Y-78524819D01*
X145198128Y-78524819D02*
X145198128Y-77524819D01*
X145198128Y-77524819D02*
X145102890Y-77667676D01*
X145102890Y-77667676D02*
X145007652Y-77762914D01*
X145007652Y-77762914D02*
X144912414Y-77810533D01*
X146102890Y-77524819D02*
X146198128Y-77524819D01*
X146198128Y-77524819D02*
X146293366Y-77572438D01*
X146293366Y-77572438D02*
X146340985Y-77620057D01*
X146340985Y-77620057D02*
X146388604Y-77715295D01*
X146388604Y-77715295D02*
X146436223Y-77905771D01*
X146436223Y-77905771D02*
X146436223Y-78143866D01*
X146436223Y-78143866D02*
X146388604Y-78334342D01*
X146388604Y-78334342D02*
X146340985Y-78429580D01*
X146340985Y-78429580D02*
X146293366Y-78477200D01*
X146293366Y-78477200D02*
X146198128Y-78524819D01*
X146198128Y-78524819D02*
X146102890Y-78524819D01*
X146102890Y-78524819D02*
X146007652Y-78477200D01*
X146007652Y-78477200D02*
X145960033Y-78429580D01*
X145960033Y-78429580D02*
X145912414Y-78334342D01*
X145912414Y-78334342D02*
X145864795Y-78143866D01*
X145864795Y-78143866D02*
X145864795Y-77905771D01*
X145864795Y-77905771D02*
X145912414Y-77715295D01*
X145912414Y-77715295D02*
X145960033Y-77620057D01*
X145960033Y-77620057D02*
X146007652Y-77572438D01*
X146007652Y-77572438D02*
X146102890Y-77524819D01*
X146769557Y-77524819D02*
X147388604Y-77524819D01*
X147388604Y-77524819D02*
X147055271Y-77905771D01*
X147055271Y-77905771D02*
X147198128Y-77905771D01*
X147198128Y-77905771D02*
X147293366Y-77953390D01*
X147293366Y-77953390D02*
X147340985Y-78001009D01*
X147340985Y-78001009D02*
X147388604Y-78096247D01*
X147388604Y-78096247D02*
X147388604Y-78334342D01*
X147388604Y-78334342D02*
X147340985Y-78429580D01*
X147340985Y-78429580D02*
X147293366Y-78477200D01*
X147293366Y-78477200D02*
X147198128Y-78524819D01*
X147198128Y-78524819D02*
X146912414Y-78524819D01*
X146912414Y-78524819D02*
X146817176Y-78477200D01*
X146817176Y-78477200D02*
X146769557Y-78429580D01*
X158456314Y-50914519D02*
X158456314Y-51724042D01*
X158456314Y-51724042D02*
X158503933Y-51819280D01*
X158503933Y-51819280D02*
X158551552Y-51866900D01*
X158551552Y-51866900D02*
X158646790Y-51914519D01*
X158646790Y-51914519D02*
X158837266Y-51914519D01*
X158837266Y-51914519D02*
X158932504Y-51866900D01*
X158932504Y-51866900D02*
X158980123Y-51819280D01*
X158980123Y-51819280D02*
X159027742Y-51724042D01*
X159027742Y-51724042D02*
X159027742Y-50914519D01*
X160027742Y-51914519D02*
X159456314Y-51914519D01*
X159742028Y-51914519D02*
X159742028Y-50914519D01*
X159742028Y-50914519D02*
X159646790Y-51057376D01*
X159646790Y-51057376D02*
X159551552Y-51152614D01*
X159551552Y-51152614D02*
X159456314Y-51200233D01*
X160646790Y-50914519D02*
X160742028Y-50914519D01*
X160742028Y-50914519D02*
X160837266Y-50962138D01*
X160837266Y-50962138D02*
X160884885Y-51009757D01*
X160884885Y-51009757D02*
X160932504Y-51104995D01*
X160932504Y-51104995D02*
X160980123Y-51295471D01*
X160980123Y-51295471D02*
X160980123Y-51533566D01*
X160980123Y-51533566D02*
X160932504Y-51724042D01*
X160932504Y-51724042D02*
X160884885Y-51819280D01*
X160884885Y-51819280D02*
X160837266Y-51866900D01*
X160837266Y-51866900D02*
X160742028Y-51914519D01*
X160742028Y-51914519D02*
X160646790Y-51914519D01*
X160646790Y-51914519D02*
X160551552Y-51866900D01*
X160551552Y-51866900D02*
X160503933Y-51819280D01*
X160503933Y-51819280D02*
X160456314Y-51724042D01*
X160456314Y-51724042D02*
X160408695Y-51533566D01*
X160408695Y-51533566D02*
X160408695Y-51295471D01*
X160408695Y-51295471D02*
X160456314Y-51104995D01*
X160456314Y-51104995D02*
X160503933Y-51009757D01*
X160503933Y-51009757D02*
X160551552Y-50962138D01*
X160551552Y-50962138D02*
X160646790Y-50914519D01*
X161361076Y-51009757D02*
X161408695Y-50962138D01*
X161408695Y-50962138D02*
X161503933Y-50914519D01*
X161503933Y-50914519D02*
X161742028Y-50914519D01*
X161742028Y-50914519D02*
X161837266Y-50962138D01*
X161837266Y-50962138D02*
X161884885Y-51009757D01*
X161884885Y-51009757D02*
X161932504Y-51104995D01*
X161932504Y-51104995D02*
X161932504Y-51200233D01*
X161932504Y-51200233D02*
X161884885Y-51343090D01*
X161884885Y-51343090D02*
X161313457Y-51914519D01*
X161313457Y-51914519D02*
X161932504Y-51914519D01*
X154969285Y-98409819D02*
X154969285Y-99124104D01*
X154969285Y-99124104D02*
X154921666Y-99266961D01*
X154921666Y-99266961D02*
X154826428Y-99362200D01*
X154826428Y-99362200D02*
X154683571Y-99409819D01*
X154683571Y-99409819D02*
X154588333Y-99409819D01*
X155445476Y-99409819D02*
X155445476Y-98409819D01*
X155445476Y-98409819D02*
X155826428Y-98409819D01*
X155826428Y-98409819D02*
X155921666Y-98457438D01*
X155921666Y-98457438D02*
X155969285Y-98505057D01*
X155969285Y-98505057D02*
X156016904Y-98600295D01*
X156016904Y-98600295D02*
X156016904Y-98743152D01*
X156016904Y-98743152D02*
X155969285Y-98838390D01*
X155969285Y-98838390D02*
X155921666Y-98886009D01*
X155921666Y-98886009D02*
X155826428Y-98933628D01*
X155826428Y-98933628D02*
X155445476Y-98933628D01*
X156969285Y-99409819D02*
X156397857Y-99409819D01*
X156683571Y-99409819D02*
X156683571Y-98409819D01*
X156683571Y-98409819D02*
X156588333Y-98552676D01*
X156588333Y-98552676D02*
X156493095Y-98647914D01*
X156493095Y-98647914D02*
X156397857Y-98695533D01*
X157588333Y-98409819D02*
X157683571Y-98409819D01*
X157683571Y-98409819D02*
X157778809Y-98457438D01*
X157778809Y-98457438D02*
X157826428Y-98505057D01*
X157826428Y-98505057D02*
X157874047Y-98600295D01*
X157874047Y-98600295D02*
X157921666Y-98790771D01*
X157921666Y-98790771D02*
X157921666Y-99028866D01*
X157921666Y-99028866D02*
X157874047Y-99219342D01*
X157874047Y-99219342D02*
X157826428Y-99314580D01*
X157826428Y-99314580D02*
X157778809Y-99362200D01*
X157778809Y-99362200D02*
X157683571Y-99409819D01*
X157683571Y-99409819D02*
X157588333Y-99409819D01*
X157588333Y-99409819D02*
X157493095Y-99362200D01*
X157493095Y-99362200D02*
X157445476Y-99314580D01*
X157445476Y-99314580D02*
X157397857Y-99219342D01*
X157397857Y-99219342D02*
X157350238Y-99028866D01*
X157350238Y-99028866D02*
X157350238Y-98790771D01*
X157350238Y-98790771D02*
X157397857Y-98600295D01*
X157397857Y-98600295D02*
X157445476Y-98505057D01*
X157445476Y-98505057D02*
X157493095Y-98457438D01*
X157493095Y-98457438D02*
X157588333Y-98409819D01*
X158302619Y-98505057D02*
X158350238Y-98457438D01*
X158350238Y-98457438D02*
X158445476Y-98409819D01*
X158445476Y-98409819D02*
X158683571Y-98409819D01*
X158683571Y-98409819D02*
X158778809Y-98457438D01*
X158778809Y-98457438D02*
X158826428Y-98505057D01*
X158826428Y-98505057D02*
X158874047Y-98600295D01*
X158874047Y-98600295D02*
X158874047Y-98695533D01*
X158874047Y-98695533D02*
X158826428Y-98838390D01*
X158826428Y-98838390D02*
X158255000Y-99409819D01*
X158255000Y-99409819D02*
X158874047Y-99409819D01*
X154969285Y-109204819D02*
X154969285Y-109919104D01*
X154969285Y-109919104D02*
X154921666Y-110061961D01*
X154921666Y-110061961D02*
X154826428Y-110157200D01*
X154826428Y-110157200D02*
X154683571Y-110204819D01*
X154683571Y-110204819D02*
X154588333Y-110204819D01*
X155445476Y-110204819D02*
X155445476Y-109204819D01*
X155445476Y-109204819D02*
X155826428Y-109204819D01*
X155826428Y-109204819D02*
X155921666Y-109252438D01*
X155921666Y-109252438D02*
X155969285Y-109300057D01*
X155969285Y-109300057D02*
X156016904Y-109395295D01*
X156016904Y-109395295D02*
X156016904Y-109538152D01*
X156016904Y-109538152D02*
X155969285Y-109633390D01*
X155969285Y-109633390D02*
X155921666Y-109681009D01*
X155921666Y-109681009D02*
X155826428Y-109728628D01*
X155826428Y-109728628D02*
X155445476Y-109728628D01*
X156969285Y-110204819D02*
X156397857Y-110204819D01*
X156683571Y-110204819D02*
X156683571Y-109204819D01*
X156683571Y-109204819D02*
X156588333Y-109347676D01*
X156588333Y-109347676D02*
X156493095Y-109442914D01*
X156493095Y-109442914D02*
X156397857Y-109490533D01*
X157588333Y-109204819D02*
X157683571Y-109204819D01*
X157683571Y-109204819D02*
X157778809Y-109252438D01*
X157778809Y-109252438D02*
X157826428Y-109300057D01*
X157826428Y-109300057D02*
X157874047Y-109395295D01*
X157874047Y-109395295D02*
X157921666Y-109585771D01*
X157921666Y-109585771D02*
X157921666Y-109823866D01*
X157921666Y-109823866D02*
X157874047Y-110014342D01*
X157874047Y-110014342D02*
X157826428Y-110109580D01*
X157826428Y-110109580D02*
X157778809Y-110157200D01*
X157778809Y-110157200D02*
X157683571Y-110204819D01*
X157683571Y-110204819D02*
X157588333Y-110204819D01*
X157588333Y-110204819D02*
X157493095Y-110157200D01*
X157493095Y-110157200D02*
X157445476Y-110109580D01*
X157445476Y-110109580D02*
X157397857Y-110014342D01*
X157397857Y-110014342D02*
X157350238Y-109823866D01*
X157350238Y-109823866D02*
X157350238Y-109585771D01*
X157350238Y-109585771D02*
X157397857Y-109395295D01*
X157397857Y-109395295D02*
X157445476Y-109300057D01*
X157445476Y-109300057D02*
X157493095Y-109252438D01*
X157493095Y-109252438D02*
X157588333Y-109204819D01*
X158778809Y-109538152D02*
X158778809Y-110204819D01*
X158540714Y-109157200D02*
X158302619Y-109871485D01*
X158302619Y-109871485D02*
X158921666Y-109871485D01*
X147984524Y-95614819D02*
X147984524Y-94614819D01*
X147984524Y-94614819D02*
X148222619Y-94614819D01*
X148222619Y-94614819D02*
X148365476Y-94662438D01*
X148365476Y-94662438D02*
X148460714Y-94757676D01*
X148460714Y-94757676D02*
X148508333Y-94852914D01*
X148508333Y-94852914D02*
X148555952Y-95043390D01*
X148555952Y-95043390D02*
X148555952Y-95186247D01*
X148555952Y-95186247D02*
X148508333Y-95376723D01*
X148508333Y-95376723D02*
X148460714Y-95471961D01*
X148460714Y-95471961D02*
X148365476Y-95567200D01*
X148365476Y-95567200D02*
X148222619Y-95614819D01*
X148222619Y-95614819D02*
X147984524Y-95614819D01*
X149508333Y-95614819D02*
X148936905Y-95614819D01*
X149222619Y-95614819D02*
X149222619Y-94614819D01*
X149222619Y-94614819D02*
X149127381Y-94757676D01*
X149127381Y-94757676D02*
X149032143Y-94852914D01*
X149032143Y-94852914D02*
X148936905Y-94900533D01*
X150127381Y-94614819D02*
X150222619Y-94614819D01*
X150222619Y-94614819D02*
X150317857Y-94662438D01*
X150317857Y-94662438D02*
X150365476Y-94710057D01*
X150365476Y-94710057D02*
X150413095Y-94805295D01*
X150413095Y-94805295D02*
X150460714Y-94995771D01*
X150460714Y-94995771D02*
X150460714Y-95233866D01*
X150460714Y-95233866D02*
X150413095Y-95424342D01*
X150413095Y-95424342D02*
X150365476Y-95519580D01*
X150365476Y-95519580D02*
X150317857Y-95567200D01*
X150317857Y-95567200D02*
X150222619Y-95614819D01*
X150222619Y-95614819D02*
X150127381Y-95614819D01*
X150127381Y-95614819D02*
X150032143Y-95567200D01*
X150032143Y-95567200D02*
X149984524Y-95519580D01*
X149984524Y-95519580D02*
X149936905Y-95424342D01*
X149936905Y-95424342D02*
X149889286Y-95233866D01*
X149889286Y-95233866D02*
X149889286Y-94995771D01*
X149889286Y-94995771D02*
X149936905Y-94805295D01*
X149936905Y-94805295D02*
X149984524Y-94710057D01*
X149984524Y-94710057D02*
X150032143Y-94662438D01*
X150032143Y-94662438D02*
X150127381Y-94614819D01*
X150794048Y-94614819D02*
X151413095Y-94614819D01*
X151413095Y-94614819D02*
X151079762Y-94995771D01*
X151079762Y-94995771D02*
X151222619Y-94995771D01*
X151222619Y-94995771D02*
X151317857Y-95043390D01*
X151317857Y-95043390D02*
X151365476Y-95091009D01*
X151365476Y-95091009D02*
X151413095Y-95186247D01*
X151413095Y-95186247D02*
X151413095Y-95424342D01*
X151413095Y-95424342D02*
X151365476Y-95519580D01*
X151365476Y-95519580D02*
X151317857Y-95567200D01*
X151317857Y-95567200D02*
X151222619Y-95614819D01*
X151222619Y-95614819D02*
X150936905Y-95614819D01*
X150936905Y-95614819D02*
X150841667Y-95567200D01*
X150841667Y-95567200D02*
X150794048Y-95519580D01*
X158989819Y-141395714D02*
X159704104Y-141395714D01*
X159704104Y-141395714D02*
X159846961Y-141443333D01*
X159846961Y-141443333D02*
X159942200Y-141538571D01*
X159942200Y-141538571D02*
X159989819Y-141681428D01*
X159989819Y-141681428D02*
X159989819Y-141776666D01*
X159989819Y-140395714D02*
X159989819Y-140967142D01*
X159989819Y-140681428D02*
X158989819Y-140681428D01*
X158989819Y-140681428D02*
X159132676Y-140776666D01*
X159132676Y-140776666D02*
X159227914Y-140871904D01*
X159227914Y-140871904D02*
X159275533Y-140967142D01*
X159989819Y-139443333D02*
X159989819Y-140014761D01*
X159989819Y-139729047D02*
X158989819Y-139729047D01*
X158989819Y-139729047D02*
X159132676Y-139824285D01*
X159132676Y-139824285D02*
X159227914Y-139919523D01*
X159227914Y-139919523D02*
X159275533Y-140014761D01*
X158989819Y-138586190D02*
X158989819Y-138776666D01*
X158989819Y-138776666D02*
X159037438Y-138871904D01*
X159037438Y-138871904D02*
X159085057Y-138919523D01*
X159085057Y-138919523D02*
X159227914Y-139014761D01*
X159227914Y-139014761D02*
X159418390Y-139062380D01*
X159418390Y-139062380D02*
X159799342Y-139062380D01*
X159799342Y-139062380D02*
X159894580Y-139014761D01*
X159894580Y-139014761D02*
X159942200Y-138967142D01*
X159942200Y-138967142D02*
X159989819Y-138871904D01*
X159989819Y-138871904D02*
X159989819Y-138681428D01*
X159989819Y-138681428D02*
X159942200Y-138586190D01*
X159942200Y-138586190D02*
X159894580Y-138538571D01*
X159894580Y-138538571D02*
X159799342Y-138490952D01*
X159799342Y-138490952D02*
X159561247Y-138490952D01*
X159561247Y-138490952D02*
X159466009Y-138538571D01*
X159466009Y-138538571D02*
X159418390Y-138586190D01*
X159418390Y-138586190D02*
X159370771Y-138681428D01*
X159370771Y-138681428D02*
X159370771Y-138871904D01*
X159370771Y-138871904D02*
X159418390Y-138967142D01*
X159418390Y-138967142D02*
X159466009Y-139014761D01*
X159466009Y-139014761D02*
X159561247Y-139062380D01*
X144541780Y-77165957D02*
X144446542Y-77118338D01*
X144446542Y-77118338D02*
X144351304Y-77023100D01*
X144351304Y-77023100D02*
X144208447Y-76880242D01*
X144208447Y-76880242D02*
X144113209Y-76832623D01*
X144113209Y-76832623D02*
X144017971Y-76832623D01*
X144065590Y-77070719D02*
X143970352Y-77023100D01*
X143970352Y-77023100D02*
X143875114Y-76927861D01*
X143875114Y-76927861D02*
X143827495Y-76737385D01*
X143827495Y-76737385D02*
X143827495Y-76404052D01*
X143827495Y-76404052D02*
X143875114Y-76213576D01*
X143875114Y-76213576D02*
X143970352Y-76118338D01*
X143970352Y-76118338D02*
X144065590Y-76070719D01*
X144065590Y-76070719D02*
X144256066Y-76070719D01*
X144256066Y-76070719D02*
X144351304Y-76118338D01*
X144351304Y-76118338D02*
X144446542Y-76213576D01*
X144446542Y-76213576D02*
X144494161Y-76404052D01*
X144494161Y-76404052D02*
X144494161Y-76737385D01*
X144494161Y-76737385D02*
X144446542Y-76927861D01*
X144446542Y-76927861D02*
X144351304Y-77023100D01*
X144351304Y-77023100D02*
X144256066Y-77070719D01*
X144256066Y-77070719D02*
X144065590Y-77070719D01*
X145446542Y-77070719D02*
X144875114Y-77070719D01*
X145160828Y-77070719D02*
X145160828Y-76070719D01*
X145160828Y-76070719D02*
X145065590Y-76213576D01*
X145065590Y-76213576D02*
X144970352Y-76308814D01*
X144970352Y-76308814D02*
X144875114Y-76356433D01*
X146065590Y-76070719D02*
X146160828Y-76070719D01*
X146160828Y-76070719D02*
X146256066Y-76118338D01*
X146256066Y-76118338D02*
X146303685Y-76165957D01*
X146303685Y-76165957D02*
X146351304Y-76261195D01*
X146351304Y-76261195D02*
X146398923Y-76451671D01*
X146398923Y-76451671D02*
X146398923Y-76689766D01*
X146398923Y-76689766D02*
X146351304Y-76880242D01*
X146351304Y-76880242D02*
X146303685Y-76975480D01*
X146303685Y-76975480D02*
X146256066Y-77023100D01*
X146256066Y-77023100D02*
X146160828Y-77070719D01*
X146160828Y-77070719D02*
X146065590Y-77070719D01*
X146065590Y-77070719D02*
X145970352Y-77023100D01*
X145970352Y-77023100D02*
X145922733Y-76975480D01*
X145922733Y-76975480D02*
X145875114Y-76880242D01*
X145875114Y-76880242D02*
X145827495Y-76689766D01*
X145827495Y-76689766D02*
X145827495Y-76451671D01*
X145827495Y-76451671D02*
X145875114Y-76261195D01*
X145875114Y-76261195D02*
X145922733Y-76165957D01*
X145922733Y-76165957D02*
X145970352Y-76118338D01*
X145970352Y-76118338D02*
X146065590Y-76070719D01*
X146970352Y-76499290D02*
X146875114Y-76451671D01*
X146875114Y-76451671D02*
X146827495Y-76404052D01*
X146827495Y-76404052D02*
X146779876Y-76308814D01*
X146779876Y-76308814D02*
X146779876Y-76261195D01*
X146779876Y-76261195D02*
X146827495Y-76165957D01*
X146827495Y-76165957D02*
X146875114Y-76118338D01*
X146875114Y-76118338D02*
X146970352Y-76070719D01*
X146970352Y-76070719D02*
X147160828Y-76070719D01*
X147160828Y-76070719D02*
X147256066Y-76118338D01*
X147256066Y-76118338D02*
X147303685Y-76165957D01*
X147303685Y-76165957D02*
X147351304Y-76261195D01*
X147351304Y-76261195D02*
X147351304Y-76308814D01*
X147351304Y-76308814D02*
X147303685Y-76404052D01*
X147303685Y-76404052D02*
X147256066Y-76451671D01*
X147256066Y-76451671D02*
X147160828Y-76499290D01*
X147160828Y-76499290D02*
X146970352Y-76499290D01*
X146970352Y-76499290D02*
X146875114Y-76546909D01*
X146875114Y-76546909D02*
X146827495Y-76594528D01*
X146827495Y-76594528D02*
X146779876Y-76689766D01*
X146779876Y-76689766D02*
X146779876Y-76880242D01*
X146779876Y-76880242D02*
X146827495Y-76975480D01*
X146827495Y-76975480D02*
X146875114Y-77023100D01*
X146875114Y-77023100D02*
X146970352Y-77070719D01*
X146970352Y-77070719D02*
X147160828Y-77070719D01*
X147160828Y-77070719D02*
X147256066Y-77023100D01*
X147256066Y-77023100D02*
X147303685Y-76975480D01*
X147303685Y-76975480D02*
X147351304Y-76880242D01*
X147351304Y-76880242D02*
X147351304Y-76689766D01*
X147351304Y-76689766D02*
X147303685Y-76594528D01*
X147303685Y-76594528D02*
X147256066Y-76546909D01*
X147256066Y-76546909D02*
X147160828Y-76499290D01*
D11*
%TO.C,JP105*%
X153945000Y-127765000D02*
X151945000Y-127765000D01*
X153945000Y-124965000D02*
X153945000Y-127765000D01*
X151945000Y-124965000D02*
X153945000Y-124965000D01*
X151945000Y-127765000D02*
X151945000Y-124965000D01*
D10*
%TO.C,U108*%
X142865000Y-125060000D02*
X142865000Y-125110000D01*
X142865000Y-125060000D02*
X147015000Y-125060000D01*
X142865000Y-125110000D02*
X141465000Y-125110000D01*
X142865000Y-130210000D02*
X142865000Y-130065000D01*
X142865000Y-130210000D02*
X147015000Y-130210000D01*
X147015000Y-125060000D02*
X147015000Y-125205000D01*
X147015000Y-130210000D02*
X147015000Y-130065000D01*
D11*
%TO.C,L101*%
X141020000Y-114175000D02*
X141020000Y-111175000D01*
X141020000Y-111175000D02*
X153620000Y-111175000D01*
X153620000Y-120775000D02*
X153620000Y-123775000D01*
X153620000Y-111175000D02*
X153620000Y-114175000D01*
X141020000Y-123775000D02*
X141020000Y-120775000D01*
X153620000Y-123775000D02*
X141020000Y-123775000D01*
%TO.C,J118*%
X85995000Y-54500000D02*
X85995000Y-52440000D01*
X83935000Y-72560000D02*
X88055000Y-72560000D01*
X83935000Y-53500000D02*
X83935000Y-52440000D01*
X83935000Y-54500000D02*
X85995000Y-54500000D01*
X83935000Y-54500000D02*
X83935000Y-72560000D01*
X83935000Y-52440000D02*
X84995000Y-52440000D01*
X88055000Y-52440000D02*
X88055000Y-72560000D01*
X85995000Y-52440000D02*
X88055000Y-52440000D01*
%TO.C,J109*%
X157460000Y-115110000D02*
X158810000Y-115110000D01*
X157460000Y-117960000D02*
X157460000Y-115110000D01*
X157460000Y-120480000D02*
X157460000Y-123330000D01*
X157460000Y-123330000D02*
X158810000Y-123330000D01*
X161230000Y-115110000D02*
X165510000Y-115110000D01*
X165510000Y-123330000D02*
X161230000Y-123330000D01*
X168030000Y-115110000D02*
X168220000Y-115110000D01*
X168220000Y-123330000D02*
X168030000Y-123330000D01*
%TO.C,D101*%
X154590000Y-84790000D02*
X146930000Y-84790000D01*
X154590000Y-89090000D02*
X146930000Y-89090000D01*
X154590000Y-89090000D02*
X154590000Y-84790000D01*
%TO.C,J102*%
X104715000Y-50740000D02*
X106045000Y-50740000D01*
X104715000Y-52070000D02*
X104715000Y-50740000D01*
X104715000Y-53340000D02*
X104715000Y-139760000D01*
X104715000Y-53340000D02*
X107315000Y-53340000D01*
X104715000Y-139760000D02*
X109915000Y-139760000D01*
X107315000Y-50740000D02*
X109915000Y-50740000D01*
X107315000Y-53340000D02*
X107315000Y-50740000D01*
X109915000Y-50740000D02*
X109915000Y-139760000D01*
%TO.C,J114*%
X83325000Y-106555000D02*
X84455000Y-106555000D01*
X83325000Y-107315000D02*
X83325000Y-106555000D01*
X83325000Y-108075000D02*
X83325000Y-119440000D01*
X83325000Y-108075000D02*
X83891529Y-108075000D01*
X83325000Y-119440000D02*
X84147470Y-119440000D01*
X84762530Y-119440000D02*
X85417470Y-119440000D01*
X85018471Y-108075000D02*
X85161529Y-108075000D01*
X85215000Y-106620000D02*
X85417470Y-106620000D01*
X85215000Y-106751529D02*
X85215000Y-106620000D01*
X85215000Y-108021529D02*
X85215000Y-107878471D01*
X86032530Y-106620000D02*
X86855000Y-106620000D01*
X86032530Y-119440000D02*
X86855000Y-119440000D01*
X86855000Y-106620000D02*
X86855000Y-119440000D01*
%TO.C,Q107*%
X150558100Y-81285000D02*
X150558100Y-82215000D01*
X150558100Y-81285000D02*
X152018100Y-81285000D01*
X150558100Y-84445000D02*
X150558100Y-83515000D01*
X150558100Y-84445000D02*
X153718100Y-84445000D01*
%TO.C,D104*%
X155145000Y-84935000D02*
X155145000Y-92595000D01*
X159445000Y-84935000D02*
X155145000Y-84935000D01*
X159445000Y-84935000D02*
X159445000Y-92595000D01*
%TO.C,J101*%
X109795000Y-50740000D02*
X111125000Y-50740000D01*
X109795000Y-52070000D02*
X109795000Y-50740000D01*
X109795000Y-53340000D02*
X109795000Y-139760000D01*
X109795000Y-53340000D02*
X112395000Y-53340000D01*
X109795000Y-139760000D02*
X114995000Y-139760000D01*
X112395000Y-50740000D02*
X114995000Y-50740000D01*
X112395000Y-53340000D02*
X112395000Y-50740000D01*
X114995000Y-50740000D02*
X114995000Y-139760000D01*
%TO.C,Q110*%
X157735000Y-81820000D02*
X159135000Y-81820000D01*
X159135000Y-79500000D02*
X157235000Y-79500000D01*
%TO.C,J112*%
X164704500Y-84460600D02*
X164704500Y-94620600D01*
X164704500Y-94620600D02*
X172324500Y-94620600D01*
X171054500Y-84460600D02*
X171054500Y-94620600D01*
X172324500Y-84460600D02*
X164704500Y-84460600D01*
X172324500Y-94620600D02*
X172324500Y-84460600D01*
%TO.C,Q106*%
X152093200Y-77501600D02*
X148933200Y-77501600D01*
X152093200Y-77501600D02*
X152093200Y-78431600D01*
X152093200Y-80661600D02*
X150633200Y-80661600D01*
X152093200Y-80661600D02*
X152093200Y-79731600D01*
%TO.C,U107*%
X142995500Y-104399400D02*
X145715500Y-104399400D01*
X142995500Y-105709400D02*
X142995500Y-104399400D01*
X142995500Y-109119400D02*
X142995500Y-107809400D01*
X145715500Y-104399400D02*
X145715500Y-104629400D01*
X145715500Y-109119400D02*
X142995500Y-109119400D01*
X145715500Y-109119400D02*
X145715500Y-108889400D01*
X146855500Y-108889400D02*
X145715500Y-108889400D01*
%TO.C,J103*%
X114875000Y-50740000D02*
X116205000Y-50740000D01*
X114875000Y-52070000D02*
X114875000Y-50740000D01*
X114875000Y-53340000D02*
X114875000Y-139760000D01*
X114875000Y-53340000D02*
X117475000Y-53340000D01*
X114875000Y-139760000D02*
X120075000Y-139760000D01*
X117475000Y-50740000D02*
X120075000Y-50740000D01*
X117475000Y-53340000D02*
X117475000Y-50740000D01*
X120075000Y-50740000D02*
X120075000Y-139760000D01*
%TO.C,Q109*%
X144865200Y-81207100D02*
X144865200Y-82137100D01*
X144865200Y-81207100D02*
X146325200Y-81207100D01*
X144865200Y-84367100D02*
X144865200Y-83437100D01*
X144865200Y-84367100D02*
X148025200Y-84367100D01*
%TO.C,U103*%
X149925000Y-59710000D02*
X147975000Y-59710000D01*
X149925000Y-59710000D02*
X151875000Y-59710000D01*
X149925000Y-69830000D02*
X147975000Y-69830000D01*
X149925000Y-69830000D02*
X151875000Y-69830000D01*
X147225000Y-59765000D02*
X146985000Y-59435000D01*
X147465000Y-59435000D01*
X147225000Y-59765000D01*
G36*
X147225000Y-59765000D02*
G01*
X146985000Y-59435000D01*
X147465000Y-59435000D01*
X147225000Y-59765000D01*
G37*
%TO.C,JP103*%
X152815000Y-106410000D02*
X152815000Y-104410000D01*
X155615000Y-106410000D02*
X152815000Y-106410000D01*
X152815000Y-104410000D02*
X155615000Y-104410000D01*
X155615000Y-104410000D02*
X155615000Y-106410000D01*
%TO.C,U101*%
X149865000Y-49198200D02*
X147915000Y-49198200D01*
X149865000Y-49198200D02*
X151815000Y-49198200D01*
X149865000Y-59318200D02*
X147915000Y-59318200D01*
X149865000Y-59318200D02*
X151815000Y-59318200D01*
X147165000Y-49253200D02*
X146925000Y-48923200D01*
X147405000Y-48923200D01*
X147165000Y-49253200D01*
G36*
X147165000Y-49253200D02*
G01*
X146925000Y-48923200D01*
X147405000Y-48923200D01*
X147165000Y-49253200D01*
G37*
%TO.C,Q101*%
X146386700Y-70495000D02*
X143226700Y-70495000D01*
X146386700Y-70495000D02*
X146386700Y-71425000D01*
X146386700Y-73655000D02*
X144926700Y-73655000D01*
X146386700Y-73655000D02*
X146386700Y-72725000D01*
%TO.C,U106*%
X158755600Y-63190700D02*
X158930600Y-63190700D01*
X158755600Y-63865700D02*
X158755600Y-63190700D01*
X158755600Y-65735700D02*
X158755600Y-66410700D01*
X158755600Y-66410700D02*
X158930600Y-66410700D01*
X161975600Y-63865700D02*
X161975600Y-63490700D01*
X161975600Y-65735700D02*
X161975600Y-66410700D01*
X161975600Y-66410700D02*
X161800600Y-66410700D01*
X162165600Y-63330700D02*
X161975600Y-63190700D01*
X162165600Y-63050700D01*
X162165600Y-63330700D01*
G36*
X162165600Y-63330700D02*
G01*
X161975600Y-63190700D01*
X162165600Y-63050700D01*
X162165600Y-63330700D01*
G37*
%TO.C,Q105*%
X150581700Y-73990000D02*
X150581700Y-74920000D01*
X150581700Y-73990000D02*
X152041700Y-73990000D01*
X150581700Y-77150000D02*
X150581700Y-76220000D01*
X150581700Y-77150000D02*
X153741700Y-77150000D01*
%TO.C,J106*%
X138276900Y-50740000D02*
X138276900Y-139760000D01*
X135676900Y-53340000D02*
X135676900Y-50740000D01*
X135676900Y-50740000D02*
X138276900Y-50740000D01*
X133076900Y-139760000D02*
X138276900Y-139760000D01*
X133076900Y-53340000D02*
X135676900Y-53340000D01*
X133076900Y-53340000D02*
X133076900Y-139760000D01*
X133076900Y-52070000D02*
X133076900Y-50740000D01*
X133076900Y-50740000D02*
X134406900Y-50740000D01*
%TO.C,J115*%
X86435000Y-82165000D02*
X86435000Y-92285000D01*
X86119493Y-92285000D02*
X86435000Y-92285000D01*
X86119493Y-82165000D02*
X86435000Y-82165000D01*
X85119493Y-92285000D02*
X85330507Y-92285000D01*
X84015000Y-92285000D02*
X84330507Y-92285000D01*
X84015000Y-83410000D02*
X84116724Y-83410000D01*
X84015000Y-83410000D02*
X84015000Y-92285000D01*
X84015000Y-82725000D02*
X84015000Y-82040000D01*
X84015000Y-82040000D02*
X84725000Y-82040000D01*
%TO.C,J110*%
X93709500Y-50660600D02*
X95039500Y-50660600D01*
X93709500Y-51990600D02*
X93709500Y-50660600D01*
X93709500Y-53260600D02*
X93709500Y-139680600D01*
X93709500Y-53260600D02*
X96309500Y-53260600D01*
X93709500Y-139680600D02*
X98909500Y-139680600D01*
X96309500Y-50660600D02*
X98909500Y-50660600D01*
X96309500Y-53260600D02*
X96309500Y-50660600D01*
X98909500Y-50660600D02*
X98909500Y-139680600D01*
%TO.C,JP101*%
X152905000Y-101330000D02*
X152905000Y-99330000D01*
X155705000Y-101330000D02*
X152905000Y-101330000D01*
X152905000Y-99330000D02*
X155705000Y-99330000D01*
X155705000Y-99330000D02*
X155705000Y-101330000D01*
%TO.C,J105*%
X128207400Y-50740000D02*
X129537400Y-50740000D01*
X128207400Y-52070000D02*
X128207400Y-50740000D01*
X128207400Y-53340000D02*
X128207400Y-139760000D01*
X128207400Y-53340000D02*
X130807400Y-53340000D01*
X128207400Y-139760000D02*
X133407400Y-139760000D01*
X130807400Y-50740000D02*
X133407400Y-50740000D01*
X130807400Y-53340000D02*
X130807400Y-50740000D01*
X133407400Y-50740000D02*
X133407400Y-139760000D01*
%TO.C,U104*%
X140915500Y-95094400D02*
X146925500Y-95094400D01*
X143165500Y-101914400D02*
X146925500Y-101914400D01*
X146925500Y-95094400D02*
X146925500Y-96354400D01*
X146925500Y-101914400D02*
X146925500Y-100654400D01*
%TO.C,Q104*%
X152101700Y-70495000D02*
X148941700Y-70495000D01*
X152101700Y-70495000D02*
X152101700Y-71425000D01*
X152101700Y-73655000D02*
X150641700Y-73655000D01*
X152101700Y-73655000D02*
X152101700Y-72725000D01*
%TO.C,Q102*%
X157735000Y-75470000D02*
X159135000Y-75470000D01*
X159135000Y-73150000D02*
X157235000Y-73150000D01*
%TO.C,J104*%
X119955000Y-50740000D02*
X121285000Y-50740000D01*
X119955000Y-52070000D02*
X119955000Y-50740000D01*
X119955000Y-53340000D02*
X119955000Y-139760000D01*
X119955000Y-53340000D02*
X122555000Y-53340000D01*
X119955000Y-139760000D02*
X125155000Y-139760000D01*
X122555000Y-50740000D02*
X125155000Y-50740000D01*
X122555000Y-53340000D02*
X122555000Y-50740000D01*
X125155000Y-50740000D02*
X125155000Y-139760000D01*
%TO.C,J111*%
X98789500Y-50660600D02*
X100119500Y-50660600D01*
X98789500Y-51990600D02*
X98789500Y-50660600D01*
X98789500Y-53260600D02*
X98789500Y-139680600D01*
X98789500Y-53260600D02*
X101389500Y-53260600D01*
X98789500Y-139680600D02*
X103989500Y-139680600D01*
X101389500Y-50660600D02*
X103989500Y-50660600D01*
X101389500Y-53260600D02*
X101389500Y-50660600D01*
X103989500Y-50660600D02*
X103989500Y-139680600D01*
%TO.C,D102*%
X139905000Y-84935000D02*
X139905000Y-92595000D01*
X144205000Y-84935000D02*
X139905000Y-84935000D01*
X144205000Y-84935000D02*
X144205000Y-92595000D01*
%TO.C,Q103*%
X144866700Y-73990000D02*
X144866700Y-74920000D01*
X144866700Y-73990000D02*
X146326700Y-73990000D01*
X144866700Y-77150000D02*
X144866700Y-76220000D01*
X144866700Y-77150000D02*
X148026700Y-77150000D01*
D10*
%TO.C,U102*%
X156895600Y-52234700D02*
X162170600Y-52234700D01*
X158170600Y-57634700D02*
X162170600Y-57634700D01*
D11*
%TO.C,JP102*%
X155355000Y-98155000D02*
X155355000Y-96155000D01*
X158155000Y-98155000D02*
X155355000Y-98155000D01*
X155355000Y-96155000D02*
X158155000Y-96155000D01*
X158155000Y-96155000D02*
X158155000Y-98155000D01*
%TO.C,JP104*%
X155355000Y-108950000D02*
X155355000Y-106950000D01*
X158155000Y-108950000D02*
X155355000Y-108950000D01*
X155355000Y-106950000D02*
X158155000Y-106950000D01*
X158155000Y-106950000D02*
X158155000Y-108950000D01*
%TO.C,D103*%
X154635000Y-90010000D02*
X146975000Y-90010000D01*
X154635000Y-94310000D02*
X146975000Y-94310000D01*
X154635000Y-94310000D02*
X154635000Y-90010000D01*
%TO.C,J116*%
X144355000Y-131750000D02*
X144355000Y-136010000D01*
X144355000Y-148470000D02*
X144355000Y-140110000D01*
X151265000Y-131030000D02*
X151765000Y-131530000D01*
X151765000Y-131530000D02*
X152265000Y-131030000D01*
X152265000Y-131030000D02*
X151265000Y-131030000D01*
X156675000Y-131750000D02*
X144355000Y-131750000D01*
X156675000Y-136010000D02*
X156675000Y-131750000D01*
X156675000Y-140110000D02*
X156675000Y-148470000D01*
X156675000Y-148470000D02*
X144355000Y-148470000D01*
%TO.C,Q108*%
X146349400Y-77535900D02*
X143189400Y-77535900D01*
X146349400Y-77535900D02*
X146349400Y-78465900D01*
X146349400Y-80695900D02*
X144889400Y-80695900D01*
X146349400Y-80695900D02*
X146349400Y-79765900D01*
%TD*%
M02*
