%TF.GenerationSoftware,KiCad,Pcbnew,8.0.0-rc2-429-g037f349585*%
%TF.CreationDate,2024-02-09T22:22:20+01:00*%
%TF.ProjectId,xDuinoRail-Protoboard,78447569-6e6f-4526-9169-6c2d50726f74,rev?*%
%TF.SameCoordinates,Original*%
%TF.FileFunction,Paste,Top*%
%TF.FilePolarity,Positive*%
%FSLAX46Y46*%
G04 Gerber Fmt 4.6, Leading zero omitted, Abs format (unit mm)*
G04 Created by KiCad (PCBNEW 8.0.0-rc2-429-g037f349585) date 2024-02-09 22:22:20*
%MOMM*%
%LPD*%
G01*
G04 APERTURE LIST*
G04 Aperture macros list*
%AMRoundRect*
0 Rectangle with rounded corners*
0 $1 Rounding radius*
0 $2 $3 $4 $5 $6 $7 $8 $9 X,Y pos of 4 corners*
0 Add a 4 corners polygon primitive as box body*
4,1,4,$2,$3,$4,$5,$6,$7,$8,$9,$2,$3,0*
0 Add four circle primitives for the rounded corners*
1,1,$1+$1,$2,$3*
1,1,$1+$1,$4,$5*
1,1,$1+$1,$6,$7*
1,1,$1+$1,$8,$9*
0 Add four rect primitives between the rounded corners*
20,1,$1+$1,$2,$3,$4,$5,0*
20,1,$1+$1,$4,$5,$6,$7,0*
20,1,$1+$1,$6,$7,$8,$9,0*
20,1,$1+$1,$8,$9,$2,$3,0*%
%AMOutline4P*
0 Free polygon, 4 corners , with rotation*
0 The origin of the aperture is its center*
0 number of corners: always 4*
0 $1 to $8 corner X, Y*
0 $9 Rotation angle, in degrees counterclockwise*
0 create outline with 4 corners*
4,1,4,$1,$2,$3,$4,$5,$6,$7,$8,$1,$2,$9*%
%AMFreePoly0*
4,1,9,3.862500,-0.866500,0.737500,-0.866500,0.737500,-0.450000,-0.737500,-0.450000,-0.737500,0.450000,0.737500,0.450000,0.737500,0.866500,3.862500,0.866500,3.862500,-0.866500,3.862500,-0.866500,$1*%
G04 Aperture macros list end*
%ADD10R,1.550000X0.600000*%
%ADD11R,2.600000X3.100000*%
%ADD12R,2.900000X5.400000*%
%ADD13RoundRect,0.250000X-0.750000X0.850000X-0.750000X-0.850000X0.750000X-0.850000X0.750000X0.850000X0*%
%ADD14RoundRect,0.250000X-0.700000X0.750000X-0.700000X-0.750000X0.700000X-0.750000X0.700000X0.750000X0*%
%ADD15Outline4P,-1.800000X-1.150000X1.800000X-0.550000X1.800000X0.550000X-1.800000X1.150000X180.000000*%
%ADD16Outline4P,-1.800000X-1.150000X1.800000X-0.550000X1.800000X0.550000X-1.800000X1.150000X0.000000*%
%ADD17R,1.900000X0.800000*%
%ADD18Outline4P,-1.800000X-1.150000X1.800000X-0.550000X1.800000X0.550000X-1.800000X1.150000X270.000000*%
%ADD19Outline4P,-1.800000X-1.150000X1.800000X-0.550000X1.800000X0.550000X-1.800000X1.150000X90.000000*%
%ADD20R,0.650000X0.400000*%
%ADD21R,1.300000X0.900000*%
%ADD22FreePoly0,180.000000*%
%ADD23RoundRect,0.150000X-0.825000X-0.150000X0.825000X-0.150000X0.825000X0.150000X-0.825000X0.150000X0*%
%ADD24RoundRect,0.087500X-0.087500X0.187500X-0.087500X-0.187500X0.087500X-0.187500X0.087500X0.187500X0*%
%ADD25RoundRect,0.087500X-0.187500X0.087500X-0.187500X-0.087500X0.187500X-0.087500X0.187500X0.087500X0*%
%ADD26R,2.000000X1.500000*%
%ADD27R,2.000000X3.800000*%
%ADD28R,1.200000X0.400000*%
G04 APERTURE END LIST*
D10*
%TO.C,U108*%
X142240000Y-125730000D03*
X142240000Y-127000000D03*
X142240000Y-128270000D03*
X142240000Y-129540000D03*
X147640000Y-129540000D03*
X147640000Y-128270000D03*
X147640000Y-127000000D03*
X147640000Y-125730000D03*
D11*
X144940000Y-127635000D03*
%TD*%
D12*
%TO.C,L101*%
X152270000Y-117475000D03*
X142370000Y-117475000D03*
%TD*%
D13*
%TO.C,J109*%
X166770000Y-114970000D03*
X166770000Y-123470000D03*
D14*
X160020000Y-122870000D03*
X160020000Y-115570000D03*
X157170000Y-119220000D03*
%TD*%
D15*
%TO.C,D101*%
X152530000Y-86940000D03*
D16*
X146730000Y-86940000D03*
%TD*%
D17*
%TO.C,Q107*%
X152818100Y-83815000D03*
X152818100Y-81915000D03*
X149818100Y-82865000D03*
%TD*%
D18*
%TO.C,D104*%
X157295000Y-86995000D03*
D19*
X157295000Y-92795000D03*
%TD*%
D20*
%TO.C,Q110*%
X157485000Y-80010000D03*
X157485000Y-80660000D03*
X157485000Y-81310000D03*
X159385000Y-81310000D03*
X159385000Y-80660000D03*
X159385000Y-80010000D03*
%TD*%
D17*
%TO.C,Q106*%
X149833200Y-78131600D03*
X149833200Y-80031600D03*
X152833200Y-79081600D03*
%TD*%
D21*
%TO.C,U107*%
X146305500Y-108259400D03*
D22*
X146218000Y-106759400D03*
D21*
X146305500Y-105259400D03*
%TD*%
D17*
%TO.C,Q109*%
X147125200Y-83737100D03*
X147125200Y-81837100D03*
X144125200Y-82787100D03*
%TD*%
D23*
%TO.C,U103*%
X147450000Y-60325000D03*
X147450000Y-61595000D03*
X147450000Y-62865000D03*
X147450000Y-64135000D03*
X147450000Y-65405000D03*
X147450000Y-66675000D03*
X147450000Y-67945000D03*
X147450000Y-69215000D03*
X152400000Y-69215000D03*
X152400000Y-67945000D03*
X152400000Y-66675000D03*
X152400000Y-65405000D03*
X152400000Y-64135000D03*
X152400000Y-62865000D03*
X152400000Y-61595000D03*
X152400000Y-60325000D03*
%TD*%
%TO.C,U101*%
X147390000Y-49813200D03*
X147390000Y-51083200D03*
X147390000Y-52353200D03*
X147390000Y-53623200D03*
X147390000Y-54893200D03*
X147390000Y-56163200D03*
X147390000Y-57433200D03*
X147390000Y-58703200D03*
X152340000Y-58703200D03*
X152340000Y-57433200D03*
X152340000Y-56163200D03*
X152340000Y-54893200D03*
X152340000Y-53623200D03*
X152340000Y-52353200D03*
X152340000Y-51083200D03*
X152340000Y-49813200D03*
%TD*%
D17*
%TO.C,Q101*%
X144126700Y-71125000D03*
X144126700Y-73025000D03*
X147126700Y-72075000D03*
%TD*%
D24*
%TO.C,U106*%
X161365600Y-63575700D03*
X160865600Y-63575700D03*
X160365600Y-63575700D03*
X159865600Y-63575700D03*
X159365600Y-63575700D03*
D25*
X159140600Y-64300700D03*
X159140600Y-64800700D03*
X159140600Y-65300700D03*
D24*
X159365600Y-66025700D03*
X159865600Y-66025700D03*
X160365600Y-66025700D03*
X160865600Y-66025700D03*
X161365600Y-66025700D03*
D25*
X161590600Y-65300700D03*
X161590600Y-64800700D03*
X161590600Y-64300700D03*
%TD*%
D17*
%TO.C,Q105*%
X152841700Y-76520000D03*
X152841700Y-74620000D03*
X149841700Y-75570000D03*
%TD*%
D26*
%TO.C,U104*%
X141865500Y-96204400D03*
X141865500Y-98504400D03*
D27*
X148165500Y-98504400D03*
D26*
X141865500Y-100804400D03*
%TD*%
D17*
%TO.C,Q104*%
X149841700Y-71125000D03*
X149841700Y-73025000D03*
X152841700Y-72075000D03*
%TD*%
D20*
%TO.C,Q102*%
X157485000Y-73660000D03*
X157485000Y-74310000D03*
X157485000Y-74960000D03*
X159385000Y-74960000D03*
X159385000Y-74310000D03*
X159385000Y-73660000D03*
%TD*%
D18*
%TO.C,D102*%
X142055000Y-86995000D03*
D19*
X142055000Y-92795000D03*
%TD*%
D17*
%TO.C,Q103*%
X147126700Y-76520000D03*
X147126700Y-74620000D03*
X144126700Y-75570000D03*
%TD*%
D28*
%TO.C,U102*%
X157570600Y-52737200D03*
X157570600Y-53372200D03*
X157570600Y-54007200D03*
X157570600Y-54642200D03*
X157570600Y-55277200D03*
X157570600Y-55912200D03*
X157570600Y-56547200D03*
X157570600Y-57182200D03*
X162770600Y-57182200D03*
X162770600Y-56547200D03*
X162770600Y-55912200D03*
X162770600Y-55277200D03*
X162770600Y-54642200D03*
X162770600Y-54007200D03*
X162770600Y-53372200D03*
X162770600Y-52737200D03*
%TD*%
D15*
%TO.C,D103*%
X152575000Y-92160000D03*
D16*
X146775000Y-92160000D03*
%TD*%
D17*
%TO.C,Q108*%
X144089400Y-78165900D03*
X144089400Y-80065900D03*
X147089400Y-79115900D03*
%TD*%
M02*
