%TF.GenerationSoftware,KiCad,Pcbnew,8.0.0-rc2-429-g037f349585*%
%TF.CreationDate,2024-02-09T22:22:20+01:00*%
%TF.ProjectId,xDuinoRail-Protoboard,78447569-6e6f-4526-9169-6c2d50726f74,rev?*%
%TF.SameCoordinates,Original*%
%TF.FileFunction,Soldermask,Bot*%
%TF.FilePolarity,Negative*%
%FSLAX46Y46*%
G04 Gerber Fmt 4.6, Leading zero omitted, Abs format (unit mm)*
G04 Created by KiCad (PCBNEW 8.0.0-rc2-429-g037f349585) date 2024-02-09 22:22:20*
%MOMM*%
%LPD*%
G01*
G04 APERTURE LIST*
G04 Aperture macros list*
%AMRoundRect*
0 Rectangle with rounded corners*
0 $1 Rounding radius*
0 $2 $3 $4 $5 $6 $7 $8 $9 X,Y pos of 4 corners*
0 Add a 4 corners polygon primitive as box body*
4,1,4,$2,$3,$4,$5,$6,$7,$8,$9,$2,$3,0*
0 Add four circle primitives for the rounded corners*
1,1,$1+$1,$2,$3*
1,1,$1+$1,$4,$5*
1,1,$1+$1,$6,$7*
1,1,$1+$1,$8,$9*
0 Add four rect primitives between the rounded corners*
20,1,$1+$1,$2,$3,$4,$5,0*
20,1,$1+$1,$4,$5,$6,$7,0*
20,1,$1+$1,$6,$7,$8,$9,0*
20,1,$1+$1,$8,$9,$2,$3,0*%
G04 Aperture macros list end*
%ADD10R,1.350000X1.350000*%
%ADD11O,1.350000X1.350000*%
%ADD12C,1.300000*%
%ADD13RoundRect,0.250000X-0.600000X-0.600000X0.600000X-0.600000X0.600000X0.600000X-0.600000X0.600000X0*%
%ADD14O,1.700000X1.700000*%
%ADD15R,1.000000X1.000000*%
%ADD16O,1.000000X1.000000*%
%ADD17R,3.000000X3.000000*%
%ADD18C,3.000000*%
%ADD19O,0.850000X0.850000*%
%ADD20R,0.850000X0.850000*%
%ADD21R,1.700000X1.700000*%
%ADD22C,1.700000*%
%ADD23C,3.500000*%
%ADD24R,1.600000X1.600000*%
%ADD25O,1.600000X1.600000*%
G04 APERTURE END LIST*
D10*
%TO.C,J118*%
X84995000Y-53500000D03*
D11*
X86995000Y-53500000D03*
X84995000Y-55500000D03*
X86995000Y-55500000D03*
X84995000Y-57500000D03*
X86995000Y-57500000D03*
X84995000Y-59500000D03*
X86995000Y-59500000D03*
X84995000Y-61500000D03*
X86995000Y-61500000D03*
X84995000Y-63500000D03*
X86995000Y-63500000D03*
X84995000Y-65500000D03*
X86995000Y-65500000D03*
X84995000Y-67500000D03*
X86995000Y-67500000D03*
X84995000Y-69500000D03*
X86995000Y-69500000D03*
X84995000Y-71500000D03*
X86995000Y-71500000D03*
%TD*%
D12*
%TO.C,J109*%
X167770000Y-119220000D03*
X161470000Y-119220000D03*
%TD*%
D13*
%TO.C,J102*%
X106045000Y-52070000D03*
D14*
X108585000Y-52070000D03*
D13*
X106045000Y-54610000D03*
D14*
X108585000Y-54610000D03*
D13*
X106045000Y-57150000D03*
D14*
X108585000Y-57150000D03*
D13*
X106045000Y-59690000D03*
D14*
X108585000Y-59690000D03*
D13*
X106045000Y-62230000D03*
D14*
X108585000Y-62230000D03*
D13*
X106045000Y-64770000D03*
D14*
X108585000Y-64770000D03*
D13*
X106045000Y-67310000D03*
D14*
X108585000Y-67310000D03*
D13*
X106045000Y-69850000D03*
D14*
X108585000Y-69850000D03*
D13*
X106045000Y-72390000D03*
D14*
X108585000Y-72390000D03*
D13*
X106045000Y-74930000D03*
D14*
X108585000Y-74930000D03*
D13*
X106045000Y-77470000D03*
D14*
X108585000Y-77470000D03*
D13*
X106045000Y-80010000D03*
D14*
X108585000Y-80010000D03*
D13*
X106045000Y-82550000D03*
D14*
X108585000Y-82550000D03*
D13*
X106045000Y-85090000D03*
D14*
X108585000Y-85090000D03*
D13*
X106045000Y-87630000D03*
D14*
X108585000Y-87630000D03*
D13*
X106045000Y-90170000D03*
D14*
X108585000Y-90170000D03*
D13*
X106045000Y-92710000D03*
D14*
X108585000Y-92710000D03*
D13*
X106045000Y-95250000D03*
D14*
X108585000Y-95250000D03*
D13*
X106045000Y-97790000D03*
D14*
X108585000Y-97790000D03*
D13*
X106045000Y-100330000D03*
D14*
X108585000Y-100330000D03*
D13*
X106045000Y-102870000D03*
D14*
X108585000Y-102870000D03*
D13*
X106045000Y-105410000D03*
D14*
X108585000Y-105410000D03*
D13*
X106045000Y-107950000D03*
D14*
X108585000Y-107950000D03*
D13*
X106045000Y-110490000D03*
D14*
X108585000Y-110490000D03*
D13*
X106045000Y-113030000D03*
D14*
X108585000Y-113030000D03*
D13*
X106045000Y-115570000D03*
D14*
X108585000Y-115570000D03*
D13*
X106045000Y-118110000D03*
D14*
X108585000Y-118110000D03*
D13*
X106045000Y-120650000D03*
D14*
X108585000Y-120650000D03*
D13*
X106045000Y-123190000D03*
D14*
X108585000Y-123190000D03*
D13*
X106045000Y-125730000D03*
D14*
X108585000Y-125730000D03*
D13*
X106045000Y-128270000D03*
D14*
X108585000Y-128270000D03*
D13*
X106045000Y-130810000D03*
D14*
X108585000Y-130810000D03*
D13*
X106045000Y-133350000D03*
D14*
X108585000Y-133350000D03*
D13*
X106045000Y-135890000D03*
D14*
X108585000Y-135890000D03*
D13*
X106045000Y-138430000D03*
D14*
X108585000Y-138430000D03*
%TD*%
D15*
%TO.C,J114*%
X84455000Y-107315000D03*
D16*
X85725000Y-107315000D03*
X84455000Y-108585000D03*
X85725000Y-108585000D03*
X84455000Y-109855000D03*
X85725000Y-109855000D03*
X84455000Y-111125000D03*
X85725000Y-111125000D03*
X84455000Y-112395000D03*
X85725000Y-112395000D03*
X84455000Y-113665000D03*
X85725000Y-113665000D03*
X84455000Y-114935000D03*
X85725000Y-114935000D03*
X84455000Y-116205000D03*
X85725000Y-116205000D03*
X84455000Y-117475000D03*
X85725000Y-117475000D03*
X84455000Y-118745000D03*
X85725000Y-118745000D03*
%TD*%
D13*
%TO.C,J101*%
X111125000Y-52070000D03*
D14*
X113665000Y-52070000D03*
D13*
X111125000Y-54610000D03*
D14*
X113665000Y-54610000D03*
D13*
X111125000Y-57150000D03*
D14*
X113665000Y-57150000D03*
D13*
X111125000Y-59690000D03*
D14*
X113665000Y-59690000D03*
D13*
X111125000Y-62230000D03*
D14*
X113665000Y-62230000D03*
D13*
X111125000Y-64770000D03*
D14*
X113665000Y-64770000D03*
D13*
X111125000Y-67310000D03*
D14*
X113665000Y-67310000D03*
D13*
X111125000Y-69850000D03*
D14*
X113665000Y-69850000D03*
D13*
X111125000Y-72390000D03*
D14*
X113665000Y-72390000D03*
D13*
X111125000Y-74930000D03*
D14*
X113665000Y-74930000D03*
D13*
X111125000Y-77470000D03*
D14*
X113665000Y-77470000D03*
D13*
X111125000Y-80010000D03*
D14*
X113665000Y-80010000D03*
D13*
X111125000Y-82550000D03*
D14*
X113665000Y-82550000D03*
D13*
X111125000Y-85090000D03*
D14*
X113665000Y-85090000D03*
D13*
X111125000Y-87630000D03*
D14*
X113665000Y-87630000D03*
D13*
X111125000Y-90170000D03*
D14*
X113665000Y-90170000D03*
D13*
X111125000Y-92710000D03*
D14*
X113665000Y-92710000D03*
D13*
X111125000Y-95250000D03*
D14*
X113665000Y-95250000D03*
D13*
X111125000Y-97790000D03*
D14*
X113665000Y-97790000D03*
D13*
X111125000Y-100330000D03*
D14*
X113665000Y-100330000D03*
D13*
X111125000Y-102870000D03*
D14*
X113665000Y-102870000D03*
D13*
X111125000Y-105410000D03*
D14*
X113665000Y-105410000D03*
D13*
X111125000Y-107950000D03*
D14*
X113665000Y-107950000D03*
D13*
X111125000Y-110490000D03*
D14*
X113665000Y-110490000D03*
D13*
X111125000Y-113030000D03*
D14*
X113665000Y-113030000D03*
D13*
X111125000Y-115570000D03*
D14*
X113665000Y-115570000D03*
D13*
X111125000Y-118110000D03*
D14*
X113665000Y-118110000D03*
D13*
X111125000Y-120650000D03*
D14*
X113665000Y-120650000D03*
D13*
X111125000Y-123190000D03*
D14*
X113665000Y-123190000D03*
D13*
X111125000Y-125730000D03*
D14*
X113665000Y-125730000D03*
D13*
X111125000Y-128270000D03*
D14*
X113665000Y-128270000D03*
D13*
X111125000Y-130810000D03*
D14*
X113665000Y-130810000D03*
D13*
X111125000Y-133350000D03*
D14*
X113665000Y-133350000D03*
D13*
X111125000Y-135890000D03*
D14*
X113665000Y-135890000D03*
D13*
X111125000Y-138430000D03*
D14*
X113665000Y-138430000D03*
%TD*%
D17*
%TO.C,J112*%
X168514500Y-92080600D03*
D18*
X168514500Y-87000600D03*
%TD*%
D13*
%TO.C,J103*%
X116205000Y-52070000D03*
D14*
X118745000Y-52070000D03*
D13*
X116205000Y-54610000D03*
D14*
X118745000Y-54610000D03*
D13*
X116205000Y-57150000D03*
D14*
X118745000Y-57150000D03*
D13*
X116205000Y-59690000D03*
D14*
X118745000Y-59690000D03*
D13*
X116205000Y-62230000D03*
D14*
X118745000Y-62230000D03*
D13*
X116205000Y-64770000D03*
D14*
X118745000Y-64770000D03*
D13*
X116205000Y-67310000D03*
D14*
X118745000Y-67310000D03*
D13*
X116205000Y-69850000D03*
D14*
X118745000Y-69850000D03*
D13*
X116205000Y-72390000D03*
D14*
X118745000Y-72390000D03*
D13*
X116205000Y-74930000D03*
D14*
X118745000Y-74930000D03*
D13*
X116205000Y-77470000D03*
D14*
X118745000Y-77470000D03*
D13*
X116205000Y-80010000D03*
D14*
X118745000Y-80010000D03*
D13*
X116205000Y-82550000D03*
D14*
X118745000Y-82550000D03*
D13*
X116205000Y-85090000D03*
D14*
X118745000Y-85090000D03*
D13*
X116205000Y-87630000D03*
D14*
X118745000Y-87630000D03*
D13*
X116205000Y-90170000D03*
D14*
X118745000Y-90170000D03*
D13*
X116205000Y-92710000D03*
D14*
X118745000Y-92710000D03*
D13*
X116205000Y-95250000D03*
D14*
X118745000Y-95250000D03*
D13*
X116205000Y-97790000D03*
D14*
X118745000Y-97790000D03*
D13*
X116205000Y-100330000D03*
D14*
X118745000Y-100330000D03*
D13*
X116205000Y-102870000D03*
D14*
X118745000Y-102870000D03*
D13*
X116205000Y-105410000D03*
D14*
X118745000Y-105410000D03*
D13*
X116205000Y-107950000D03*
D14*
X118745000Y-107950000D03*
D13*
X116205000Y-110490000D03*
D14*
X118745000Y-110490000D03*
D13*
X116205000Y-113030000D03*
D14*
X118745000Y-113030000D03*
D13*
X116205000Y-115570000D03*
D14*
X118745000Y-115570000D03*
D13*
X116205000Y-118110000D03*
D14*
X118745000Y-118110000D03*
D13*
X116205000Y-120650000D03*
D14*
X118745000Y-120650000D03*
D13*
X116205000Y-123190000D03*
D14*
X118745000Y-123190000D03*
D13*
X116205000Y-125730000D03*
D14*
X118745000Y-125730000D03*
D13*
X116205000Y-128270000D03*
D14*
X118745000Y-128270000D03*
D13*
X116205000Y-130810000D03*
D14*
X118745000Y-130810000D03*
D13*
X116205000Y-133350000D03*
D14*
X118745000Y-133350000D03*
D13*
X116205000Y-135890000D03*
D14*
X118745000Y-135890000D03*
D13*
X116205000Y-138430000D03*
D14*
X118745000Y-138430000D03*
%TD*%
%TO.C,J106*%
X136946900Y-138430000D03*
D13*
X134406900Y-138430000D03*
D14*
X136946900Y-135890000D03*
D13*
X134406900Y-135890000D03*
D14*
X136946900Y-133350000D03*
D13*
X134406900Y-133350000D03*
D14*
X136946900Y-130810000D03*
D13*
X134406900Y-130810000D03*
D14*
X136946900Y-128270000D03*
D13*
X134406900Y-128270000D03*
D14*
X136946900Y-125730000D03*
D13*
X134406900Y-125730000D03*
D14*
X136946900Y-123190000D03*
D13*
X134406900Y-123190000D03*
D14*
X136946900Y-120650000D03*
D13*
X134406900Y-120650000D03*
D14*
X136946900Y-118110000D03*
D13*
X134406900Y-118110000D03*
D14*
X136946900Y-115570000D03*
D13*
X134406900Y-115570000D03*
D14*
X136946900Y-113030000D03*
D13*
X134406900Y-113030000D03*
D14*
X136946900Y-110490000D03*
D13*
X134406900Y-110490000D03*
D14*
X136946900Y-107950000D03*
D13*
X134406900Y-107950000D03*
D14*
X136946900Y-105410000D03*
D13*
X134406900Y-105410000D03*
D14*
X136946900Y-102870000D03*
D13*
X134406900Y-102870000D03*
D14*
X136946900Y-100330000D03*
D13*
X134406900Y-100330000D03*
D14*
X136946900Y-97790000D03*
D13*
X134406900Y-97790000D03*
D14*
X136946900Y-95250000D03*
D13*
X134406900Y-95250000D03*
D14*
X136946900Y-92710000D03*
D13*
X134406900Y-92710000D03*
D14*
X136946900Y-90170000D03*
D13*
X134406900Y-90170000D03*
D14*
X136946900Y-87630000D03*
D13*
X134406900Y-87630000D03*
D14*
X136946900Y-85090000D03*
D13*
X134406900Y-85090000D03*
D14*
X136946900Y-82550000D03*
D13*
X134406900Y-82550000D03*
D14*
X136946900Y-80010000D03*
D13*
X134406900Y-80010000D03*
D14*
X136946900Y-77470000D03*
D13*
X134406900Y-77470000D03*
D14*
X136946900Y-74930000D03*
D13*
X134406900Y-74930000D03*
D14*
X136946900Y-72390000D03*
D13*
X134406900Y-72390000D03*
D14*
X136946900Y-69850000D03*
D13*
X134406900Y-69850000D03*
D14*
X136946900Y-67310000D03*
D13*
X134406900Y-67310000D03*
D14*
X136946900Y-64770000D03*
D13*
X134406900Y-64770000D03*
D14*
X136946900Y-62230000D03*
D13*
X134406900Y-62230000D03*
D14*
X136946900Y-59690000D03*
D13*
X134406900Y-59690000D03*
D14*
X136946900Y-57150000D03*
D13*
X134406900Y-57150000D03*
D14*
X136946900Y-54610000D03*
D13*
X134406900Y-54610000D03*
D14*
X136946900Y-52070000D03*
D13*
X134406900Y-52070000D03*
%TD*%
D19*
%TO.C,J115*%
X85725000Y-91725000D03*
X84725000Y-91725000D03*
X85725000Y-90725000D03*
X84725000Y-90725000D03*
X85725000Y-89725000D03*
X84725000Y-89725000D03*
X85725000Y-88725000D03*
X84725000Y-88725000D03*
X85725000Y-87725000D03*
X84725000Y-87725000D03*
X85725000Y-86725000D03*
X84725000Y-86725000D03*
X85725000Y-85725000D03*
X84725000Y-85725000D03*
X85725000Y-84725000D03*
X84725000Y-84725000D03*
X85725000Y-83725000D03*
X84725000Y-83725000D03*
X85725000Y-82725000D03*
D20*
X84725000Y-82725000D03*
%TD*%
D13*
%TO.C,J110*%
X95039500Y-51990600D03*
D14*
X97579500Y-51990600D03*
D13*
X95039500Y-54530600D03*
D14*
X97579500Y-54530600D03*
D13*
X95039500Y-57070600D03*
D14*
X97579500Y-57070600D03*
D13*
X95039500Y-59610600D03*
D14*
X97579500Y-59610600D03*
D13*
X95039500Y-62150600D03*
D14*
X97579500Y-62150600D03*
D13*
X95039500Y-64690600D03*
D14*
X97579500Y-64690600D03*
D13*
X95039500Y-67230600D03*
D14*
X97579500Y-67230600D03*
D13*
X95039500Y-69770600D03*
D14*
X97579500Y-69770600D03*
D13*
X95039500Y-72310600D03*
D14*
X97579500Y-72310600D03*
D13*
X95039500Y-74850600D03*
D14*
X97579500Y-74850600D03*
D13*
X95039500Y-77390600D03*
D14*
X97579500Y-77390600D03*
D13*
X95039500Y-79930600D03*
D14*
X97579500Y-79930600D03*
D13*
X95039500Y-82470600D03*
D14*
X97579500Y-82470600D03*
D13*
X95039500Y-85010600D03*
D14*
X97579500Y-85010600D03*
D13*
X95039500Y-87550600D03*
D14*
X97579500Y-87550600D03*
D13*
X95039500Y-90090600D03*
D14*
X97579500Y-90090600D03*
D13*
X95039500Y-92630600D03*
D14*
X97579500Y-92630600D03*
D13*
X95039500Y-95170600D03*
D14*
X97579500Y-95170600D03*
D13*
X95039500Y-97710600D03*
D14*
X97579500Y-97710600D03*
D13*
X95039500Y-100250600D03*
D14*
X97579500Y-100250600D03*
D13*
X95039500Y-102790600D03*
D14*
X97579500Y-102790600D03*
D13*
X95039500Y-105330600D03*
D14*
X97579500Y-105330600D03*
D13*
X95039500Y-107870600D03*
D14*
X97579500Y-107870600D03*
D13*
X95039500Y-110410600D03*
D14*
X97579500Y-110410600D03*
D13*
X95039500Y-112950600D03*
D14*
X97579500Y-112950600D03*
D13*
X95039500Y-115490600D03*
D14*
X97579500Y-115490600D03*
D13*
X95039500Y-118030600D03*
D14*
X97579500Y-118030600D03*
D13*
X95039500Y-120570600D03*
D14*
X97579500Y-120570600D03*
D13*
X95039500Y-123110600D03*
D14*
X97579500Y-123110600D03*
D13*
X95039500Y-125650600D03*
D14*
X97579500Y-125650600D03*
D13*
X95039500Y-128190600D03*
D14*
X97579500Y-128190600D03*
D13*
X95039500Y-130730600D03*
D14*
X97579500Y-130730600D03*
D13*
X95039500Y-133270600D03*
D14*
X97579500Y-133270600D03*
D13*
X95039500Y-135810600D03*
D14*
X97579500Y-135810600D03*
D13*
X95039500Y-138350600D03*
D14*
X97579500Y-138350600D03*
%TD*%
D13*
%TO.C,J105*%
X129537400Y-52070000D03*
D14*
X132077400Y-52070000D03*
D13*
X129537400Y-54610000D03*
D14*
X132077400Y-54610000D03*
D13*
X129537400Y-57150000D03*
D14*
X132077400Y-57150000D03*
D13*
X129537400Y-59690000D03*
D14*
X132077400Y-59690000D03*
D13*
X129537400Y-62230000D03*
D14*
X132077400Y-62230000D03*
D13*
X129537400Y-64770000D03*
D14*
X132077400Y-64770000D03*
D13*
X129537400Y-67310000D03*
D14*
X132077400Y-67310000D03*
D13*
X129537400Y-69850000D03*
D14*
X132077400Y-69850000D03*
D13*
X129537400Y-72390000D03*
D14*
X132077400Y-72390000D03*
D13*
X129537400Y-74930000D03*
D14*
X132077400Y-74930000D03*
D13*
X129537400Y-77470000D03*
D14*
X132077400Y-77470000D03*
D13*
X129537400Y-80010000D03*
D14*
X132077400Y-80010000D03*
D13*
X129537400Y-82550000D03*
D14*
X132077400Y-82550000D03*
D13*
X129537400Y-85090000D03*
D14*
X132077400Y-85090000D03*
D13*
X129537400Y-87630000D03*
D14*
X132077400Y-87630000D03*
D13*
X129537400Y-90170000D03*
D14*
X132077400Y-90170000D03*
D13*
X129537400Y-92710000D03*
D14*
X132077400Y-92710000D03*
D13*
X129537400Y-95250000D03*
D14*
X132077400Y-95250000D03*
D13*
X129537400Y-97790000D03*
D14*
X132077400Y-97790000D03*
D13*
X129537400Y-100330000D03*
D14*
X132077400Y-100330000D03*
D13*
X129537400Y-102870000D03*
D14*
X132077400Y-102870000D03*
D13*
X129537400Y-105410000D03*
D14*
X132077400Y-105410000D03*
D13*
X129537400Y-107950000D03*
D14*
X132077400Y-107950000D03*
D13*
X129537400Y-110490000D03*
D14*
X132077400Y-110490000D03*
D13*
X129537400Y-113030000D03*
D14*
X132077400Y-113030000D03*
D13*
X129537400Y-115570000D03*
D14*
X132077400Y-115570000D03*
D13*
X129537400Y-118110000D03*
D14*
X132077400Y-118110000D03*
D13*
X129537400Y-120650000D03*
D14*
X132077400Y-120650000D03*
D13*
X129537400Y-123190000D03*
D14*
X132077400Y-123190000D03*
D13*
X129537400Y-125730000D03*
D14*
X132077400Y-125730000D03*
D13*
X129537400Y-128270000D03*
D14*
X132077400Y-128270000D03*
D13*
X129537400Y-130810000D03*
D14*
X132077400Y-130810000D03*
D13*
X129537400Y-133350000D03*
D14*
X132077400Y-133350000D03*
D13*
X129537400Y-135890000D03*
D14*
X132077400Y-135890000D03*
D13*
X129537400Y-138430000D03*
D14*
X132077400Y-138430000D03*
%TD*%
D13*
%TO.C,J104*%
X121285000Y-52070000D03*
D14*
X123825000Y-52070000D03*
D13*
X121285000Y-54610000D03*
D14*
X123825000Y-54610000D03*
D13*
X121285000Y-57150000D03*
D14*
X123825000Y-57150000D03*
D13*
X121285000Y-59690000D03*
D14*
X123825000Y-59690000D03*
D13*
X121285000Y-62230000D03*
D14*
X123825000Y-62230000D03*
D13*
X121285000Y-64770000D03*
D14*
X123825000Y-64770000D03*
D13*
X121285000Y-67310000D03*
D14*
X123825000Y-67310000D03*
D13*
X121285000Y-69850000D03*
D14*
X123825000Y-69850000D03*
D13*
X121285000Y-72390000D03*
D14*
X123825000Y-72390000D03*
D13*
X121285000Y-74930000D03*
D14*
X123825000Y-74930000D03*
D13*
X121285000Y-77470000D03*
D14*
X123825000Y-77470000D03*
D13*
X121285000Y-80010000D03*
D14*
X123825000Y-80010000D03*
D13*
X121285000Y-82550000D03*
D14*
X123825000Y-82550000D03*
D13*
X121285000Y-85090000D03*
D14*
X123825000Y-85090000D03*
D13*
X121285000Y-87630000D03*
D14*
X123825000Y-87630000D03*
D13*
X121285000Y-90170000D03*
D14*
X123825000Y-90170000D03*
D13*
X121285000Y-92710000D03*
D14*
X123825000Y-92710000D03*
D13*
X121285000Y-95250000D03*
D14*
X123825000Y-95250000D03*
D13*
X121285000Y-97790000D03*
D14*
X123825000Y-97790000D03*
D13*
X121285000Y-100330000D03*
D14*
X123825000Y-100330000D03*
D13*
X121285000Y-102870000D03*
D14*
X123825000Y-102870000D03*
D13*
X121285000Y-105410000D03*
D14*
X123825000Y-105410000D03*
D13*
X121285000Y-107950000D03*
D14*
X123825000Y-107950000D03*
D13*
X121285000Y-110490000D03*
D14*
X123825000Y-110490000D03*
D13*
X121285000Y-113030000D03*
D14*
X123825000Y-113030000D03*
D13*
X121285000Y-115570000D03*
D14*
X123825000Y-115570000D03*
D13*
X121285000Y-118110000D03*
D14*
X123825000Y-118110000D03*
D13*
X121285000Y-120650000D03*
D14*
X123825000Y-120650000D03*
D13*
X121285000Y-123190000D03*
D14*
X123825000Y-123190000D03*
D13*
X121285000Y-125730000D03*
D14*
X123825000Y-125730000D03*
D13*
X121285000Y-128270000D03*
D14*
X123825000Y-128270000D03*
D13*
X121285000Y-130810000D03*
D14*
X123825000Y-130810000D03*
D13*
X121285000Y-133350000D03*
D14*
X123825000Y-133350000D03*
D13*
X121285000Y-135890000D03*
D14*
X123825000Y-135890000D03*
D13*
X121285000Y-138430000D03*
D14*
X123825000Y-138430000D03*
%TD*%
D13*
%TO.C,J111*%
X100119500Y-51990600D03*
D14*
X102659500Y-51990600D03*
D13*
X100119500Y-54530600D03*
D14*
X102659500Y-54530600D03*
D13*
X100119500Y-57070600D03*
D14*
X102659500Y-57070600D03*
D13*
X100119500Y-59610600D03*
D14*
X102659500Y-59610600D03*
D13*
X100119500Y-62150600D03*
D14*
X102659500Y-62150600D03*
D13*
X100119500Y-64690600D03*
D14*
X102659500Y-64690600D03*
D13*
X100119500Y-67230600D03*
D14*
X102659500Y-67230600D03*
D13*
X100119500Y-69770600D03*
D14*
X102659500Y-69770600D03*
D13*
X100119500Y-72310600D03*
D14*
X102659500Y-72310600D03*
D13*
X100119500Y-74850600D03*
D14*
X102659500Y-74850600D03*
D13*
X100119500Y-77390600D03*
D14*
X102659500Y-77390600D03*
D13*
X100119500Y-79930600D03*
D14*
X102659500Y-79930600D03*
D13*
X100119500Y-82470600D03*
D14*
X102659500Y-82470600D03*
D13*
X100119500Y-85010600D03*
D14*
X102659500Y-85010600D03*
D13*
X100119500Y-87550600D03*
D14*
X102659500Y-87550600D03*
D13*
X100119500Y-90090600D03*
D14*
X102659500Y-90090600D03*
D13*
X100119500Y-92630600D03*
D14*
X102659500Y-92630600D03*
D13*
X100119500Y-95170600D03*
D14*
X102659500Y-95170600D03*
D13*
X100119500Y-97710600D03*
D14*
X102659500Y-97710600D03*
D13*
X100119500Y-100250600D03*
D14*
X102659500Y-100250600D03*
D13*
X100119500Y-102790600D03*
D14*
X102659500Y-102790600D03*
D13*
X100119500Y-105330600D03*
D14*
X102659500Y-105330600D03*
D13*
X100119500Y-107870600D03*
D14*
X102659500Y-107870600D03*
D13*
X100119500Y-110410600D03*
D14*
X102659500Y-110410600D03*
D13*
X100119500Y-112950600D03*
D14*
X102659500Y-112950600D03*
D13*
X100119500Y-115490600D03*
D14*
X102659500Y-115490600D03*
D13*
X100119500Y-118030600D03*
D14*
X102659500Y-118030600D03*
D13*
X100119500Y-120570600D03*
D14*
X102659500Y-120570600D03*
D13*
X100119500Y-123110600D03*
D14*
X102659500Y-123110600D03*
D13*
X100119500Y-125650600D03*
D14*
X102659500Y-125650600D03*
D13*
X100119500Y-128190600D03*
D14*
X102659500Y-128190600D03*
D13*
X100119500Y-130730600D03*
D14*
X102659500Y-130730600D03*
D13*
X100119500Y-133270600D03*
D14*
X102659500Y-133270600D03*
D13*
X100119500Y-135810600D03*
D14*
X102659500Y-135810600D03*
D13*
X100119500Y-138350600D03*
D14*
X102659500Y-138350600D03*
%TD*%
D21*
%TO.C,J116*%
X151765000Y-133350000D03*
D22*
X149265000Y-133350000D03*
X149265000Y-135350000D03*
X151765000Y-135350000D03*
D23*
X156535000Y-138060000D03*
X144495000Y-138060000D03*
%TD*%
D24*
%TO.C,A101*%
X126365000Y-87550600D03*
D25*
X126365000Y-85010600D03*
X126365000Y-82470600D03*
X126365000Y-79930600D03*
X126365000Y-77390600D03*
X126365000Y-74850600D03*
X126365000Y-72310600D03*
X126365000Y-69770600D03*
X126365000Y-64690600D03*
X126365000Y-62150600D03*
X126365000Y-59610600D03*
X126365000Y-57070600D03*
X126365000Y-54530600D03*
X126365000Y-51990600D03*
X78105000Y-51990600D03*
X78105000Y-54530600D03*
X78105000Y-57070600D03*
X78105000Y-59610600D03*
X78105000Y-62150600D03*
X78105000Y-64690600D03*
X78105000Y-67230600D03*
X78105000Y-69770600D03*
X78105000Y-73830600D03*
X78105000Y-76370600D03*
X78105000Y-78910600D03*
X78105000Y-81450600D03*
X78105000Y-83990600D03*
X78105000Y-86530600D03*
X78105000Y-89070600D03*
X78105000Y-91610600D03*
X78105000Y-94150600D03*
X78105000Y-96690600D03*
%TD*%
M02*
