M48
; DRILL file {KiCad 7.99.0-4131-g55429aea6b} date 2024-01-04T13:58:48+0100
; FORMAT={-:-/ absolute / inch / decimal}
; #@! TF.CreationDate,2024-01-04T13:58:48+01:00
; #@! TF.GenerationSoftware,Kicad,Pcbnew,7.99.0-4131-g55429aea6b
; #@! TF.FileFunction,Plated,1,2,PTH
FMAT,2
INCH
; #@! TA.AperFunction,Plated,PTH,ViaDrill
T1C0.0157
; #@! TA.AperFunction,Plated,PTH,ComponentDrill
T2C0.0394
%
G90
G05
T1
X5.0193Y-3.0296
X5.0262Y-2.7871
X5.0262Y-2.8968
X5.0262Y-3.0853
X5.0271Y-2.9914
X5.1524Y-2.6731
X5.1616Y-2.7745
X5.1663Y-2.9961
X5.2771Y-2.7008
X5.2936Y-2.8718
X5.4261Y-2.7575
X5.4615Y-3.0596
X5.5027Y-2.9828
X5.5934Y-2.8233
X5.6219Y-2.9972
X5.6396Y-2.8297
X5.6574Y-2.7257
X5.7113Y-3.315
X5.7163Y-2.8508
X5.7427Y-3.1594
X5.7481Y-3.2474
X5.7781Y-3.3143
X5.945Y-3.0708
X5.9968Y-2.8217
X6.0296Y-2.8229
X6.0551Y-3.1532
X6.0896Y-3.1618
X6.1186Y-2.7903
X6.1461Y-3.2063
X6.1546Y-3.1226
X6.1913Y-2.8955
X6.2155Y-2.8686
X6.2192Y-3.0307
X6.5683Y-3.2508
T2
X5.8504Y-2.6937
X5.8504Y-3.3301
X5.9504Y-2.6937
X5.9504Y-3.3301
X6.0504Y-2.6937
X6.0504Y-3.3301
X6.1504Y-2.6937
X6.1504Y-3.3301
X6.2504Y-2.6937
X6.2504Y-3.3301
X6.3504Y-2.6937
X6.3504Y-3.3301
X6.4504Y-2.6937
X6.4504Y-3.3301
M30
