G04 #@! TF.GenerationSoftware,KiCad,Pcbnew,7.99.0-4131-g55429aea6b*
G04 #@! TF.CreationDate,2024-01-04T13:58:44+01:00*
G04 #@! TF.ProjectId,xDuinoRailShield,78447569-6e6f-4526-9169-6c536869656c,rev?*
G04 #@! TF.SameCoordinates,Original*
G04 #@! TF.FileFunction,Paste,Top*
G04 #@! TF.FilePolarity,Positive*
%FSLAX46Y46*%
G04 Gerber Fmt 4.6, Leading zero omitted, Abs format (unit mm)*
G04 Created by KiCad (PCBNEW 7.99.0-4131-g55429aea6b) date 2024-01-04 13:58:44*
%MOMM*%
%LPD*%
G01*
G04 APERTURE LIST*
G04 Aperture macros list*
%AMRoundRect*
0 Rectangle with rounded corners*
0 $1 Rounding radius*
0 $2 $3 $4 $5 $6 $7 $8 $9 X,Y pos of 4 corners*
0 Add a 4 corners polygon primitive as box body*
4,1,4,$2,$3,$4,$5,$6,$7,$8,$9,$2,$3,0*
0 Add four circle primitives for the rounded corners*
1,1,$1+$1,$2,$3*
1,1,$1+$1,$4,$5*
1,1,$1+$1,$6,$7*
1,1,$1+$1,$8,$9*
0 Add four rect primitives between the rounded corners*
20,1,$1+$1,$2,$3,$4,$5,0*
20,1,$1+$1,$4,$5,$6,$7,0*
20,1,$1+$1,$6,$7,$8,$9,0*
20,1,$1+$1,$8,$9,$2,$3,0*%
%AMFreePoly0*
4,1,9,3.862500,-0.866500,0.737500,-0.866500,0.737500,-0.450000,-0.737500,-0.450000,-0.737500,0.450000,0.737500,0.450000,0.737500,0.866500,3.862500,0.866500,3.862500,-0.866500,3.862500,-0.866500,$1*%
G04 Aperture macros list end*
%ADD10RoundRect,0.150000X-0.150000X0.587500X-0.150000X-0.587500X0.150000X-0.587500X0.150000X0.587500X0*%
%ADD11RoundRect,0.250000X-0.650000X1.000000X-0.650000X-1.000000X0.650000X-1.000000X0.650000X1.000000X0*%
%ADD12RoundRect,0.250000X-0.350000X-0.450000X0.350000X-0.450000X0.350000X0.450000X-0.350000X0.450000X0*%
%ADD13RoundRect,0.250000X-0.337500X-0.475000X0.337500X-0.475000X0.337500X0.475000X-0.337500X0.475000X0*%
%ADD14RoundRect,0.250000X0.337500X0.475000X-0.337500X0.475000X-0.337500X-0.475000X0.337500X-0.475000X0*%
%ADD15RoundRect,0.250000X0.650000X-1.000000X0.650000X1.000000X-0.650000X1.000000X-0.650000X-1.000000X0*%
%ADD16RoundRect,0.150000X0.150000X-0.587500X0.150000X0.587500X-0.150000X0.587500X-0.150000X-0.587500X0*%
%ADD17R,0.600000X1.270000*%
%ADD18R,3.300000X2.400000*%
%ADD19RoundRect,0.087500X0.087500X-0.187500X0.087500X0.187500X-0.087500X0.187500X-0.087500X-0.187500X0*%
%ADD20RoundRect,0.087500X0.187500X-0.087500X0.187500X0.087500X-0.187500X0.087500X-0.187500X-0.087500X0*%
%ADD21RoundRect,0.250000X-0.450000X0.350000X-0.450000X-0.350000X0.450000X-0.350000X0.450000X0.350000X0*%
%ADD22R,2.100000X0.750000*%
%ADD23R,0.900000X1.300000*%
%ADD24FreePoly0,270.000000*%
%ADD25RoundRect,0.137500X0.137500X-0.662500X0.137500X0.662500X-0.137500X0.662500X-0.137500X-0.662500X0*%
G04 APERTURE END LIST*
D10*
X150025700Y-71665700D03*
X148125700Y-71665700D03*
X149075700Y-73540700D03*
D11*
X136320300Y-76203400D03*
X136320300Y-80203400D03*
D12*
X139061900Y-79713600D03*
X141061900Y-79713600D03*
D13*
X138855500Y-68250000D03*
X140930500Y-68250000D03*
D14*
X144898900Y-68250000D03*
X142823900Y-68250000D03*
D12*
X144367200Y-74619500D03*
X146367200Y-74619500D03*
D15*
X132676800Y-72707000D03*
X132676800Y-68707000D03*
D12*
X163799600Y-80168900D03*
X165799600Y-80168900D03*
D16*
X142719100Y-78534700D03*
X144619100Y-78534700D03*
X143669100Y-76659700D03*
D17*
X151657100Y-78936400D03*
X152927100Y-78936400D03*
X154197100Y-78936400D03*
X155467100Y-78936400D03*
X155467100Y-73936400D03*
X154197100Y-73936400D03*
X152927100Y-73936400D03*
X151657100Y-73936400D03*
D18*
X153562100Y-76436400D03*
D11*
X136236900Y-68878000D03*
X136236900Y-72878000D03*
D19*
X144720000Y-83445000D03*
X145220000Y-83445000D03*
X145720000Y-83445000D03*
X146220000Y-83445000D03*
X146720000Y-83445000D03*
D20*
X146945000Y-82720000D03*
X146945000Y-82220000D03*
X146945000Y-81720000D03*
D19*
X146720000Y-80995000D03*
X146220000Y-80995000D03*
X145720000Y-80995000D03*
X145220000Y-80995000D03*
X144720000Y-80995000D03*
D20*
X144495000Y-81720000D03*
X144495000Y-82220000D03*
X144495000Y-82720000D03*
D21*
X149182700Y-79729200D03*
X149182700Y-81729200D03*
D22*
X125610000Y-80950000D03*
X129210000Y-80950000D03*
X125610000Y-79680000D03*
X129210000Y-79680000D03*
X125610000Y-78410000D03*
X129210000Y-78410000D03*
X125610000Y-77140000D03*
X129210000Y-77140000D03*
X125610000Y-75870000D03*
X129210000Y-75870000D03*
X125610000Y-74600000D03*
X129210000Y-74600000D03*
X125610000Y-73330000D03*
X129210000Y-73330000D03*
X125610000Y-72060000D03*
X129210000Y-72060000D03*
X125610000Y-70790000D03*
X129210000Y-70790000D03*
X125610000Y-69520000D03*
X129210000Y-69520000D03*
X125610000Y-68250000D03*
X129210000Y-68250000D03*
D23*
X142245600Y-70293900D03*
D24*
X140745600Y-70381400D03*
D23*
X139245600Y-70293900D03*
D12*
X163770000Y-82220000D03*
X165770000Y-82220000D03*
D10*
X140735900Y-75870000D03*
X138835900Y-75870000D03*
X139785900Y-77745000D03*
D16*
X144417200Y-72389900D03*
X146317200Y-72389900D03*
X145367200Y-70514900D03*
D12*
X158420000Y-80129400D03*
X160420000Y-80129400D03*
D25*
X157269700Y-78063600D03*
X158539700Y-78063600D03*
X159809700Y-78063600D03*
X161079700Y-78063600D03*
X162349700Y-78063600D03*
X163619700Y-78063600D03*
X164889700Y-78063600D03*
X166159700Y-78063600D03*
X166159700Y-71563600D03*
X164889700Y-71563600D03*
X163619700Y-71563600D03*
X162349700Y-71563600D03*
X161079700Y-71563600D03*
X159809700Y-71563600D03*
X158539700Y-71563600D03*
X157269700Y-71563600D03*
D12*
X146536800Y-77138200D03*
X148536800Y-77138200D03*
D15*
X132621200Y-80203400D03*
X132621200Y-76203400D03*
D12*
X158690000Y-82220000D03*
X160690000Y-82220000D03*
M02*
