M48
; DRILL file {KiCad 7.99.0-4131-g55429aea6b} date 2024-01-03T20:51:42+0100
; FORMAT={-:-/ absolute / inch / decimal}
; #@! TF.CreationDate,2024-01-03T20:51:42+01:00
; #@! TF.GenerationSoftware,Kicad,Pcbnew,7.99.0-4131-g55429aea6b
; #@! TF.FileFunction,Plated,1,2,PTH
FMAT,2
INCH
; #@! TA.AperFunction,Plated,PTH,ViaDrill
T1C0.0157
; #@! TA.AperFunction,Plated,PTH,ComponentDrill
T2C0.0394
%
G90
G05
T1
X5.0062Y-2.8352
X5.0262Y-2.6835
X5.0262Y-2.9816
X5.0273Y-3.0865
X5.1498Y-2.7835
X5.1506Y-3.0865
X5.1899Y-3.0801
X5.2Y-2.8161
X5.2267Y-2.9423
X5.2481Y-2.7866
X5.3126Y-3.1718
X5.3143Y-2.7175
X5.4441Y-3.2095
X5.5034Y-2.9868
X5.556Y-2.9898
X5.6002Y-2.7273
X5.6089Y-2.8947
X5.6192Y-2.9401
X5.659Y-3.2173
X5.6729Y-3.1219
X5.7185Y-3.254
X5.7283Y-3.3149
X5.7304Y-3.1454
X5.737Y-2.7916
X5.7377Y-2.8668
X5.7493Y-3.2209
X5.7604Y-2.9729
X5.7837Y-3.1665
X5.8227Y-3.0983
X5.8548Y-2.9893
X5.9017Y-3.1528
X5.93Y-3.1801
X5.9449Y-2.9254
X5.9535Y-2.8945
X6.0411Y-2.9587
X6.0697Y-2.8692
X6.0885Y-2.9633
X6.1015Y-3.2604
X6.1051Y-2.801
X6.1281Y-3.0777
X6.1293Y-3.1104
X6.1386Y-3.2419
X6.1405Y-2.8705
X6.1554Y-2.9181
X6.1859Y-2.8659
X6.2688Y-2.8734
X6.5364Y-3.1268
T2
X5.8504Y-2.6937
X5.8504Y-3.3301
X5.9504Y-2.6937
X5.9504Y-3.3301
X6.0504Y-2.6937
X6.0504Y-3.3301
X6.1504Y-2.6937
X6.1504Y-3.3301
X6.2504Y-2.6937
X6.2504Y-3.3301
X6.3504Y-2.6937
X6.3504Y-3.3301
X6.4504Y-2.6937
X6.4504Y-3.3301
M30
