G04 #@! TF.GenerationSoftware,KiCad,Pcbnew,8.0.0-rc2-192-gade987c101*
G04 #@! TF.CreationDate,2024-01-30T18:43:21+01:00*
G04 #@! TF.ProjectId,xDuinoRail-Breakout-RailcomDetect,78447569-6e6f-4526-9169-6c2d42726561,rev?*
G04 #@! TF.SameCoordinates,Original*
G04 #@! TF.FileFunction,Legend,Bot*
G04 #@! TF.FilePolarity,Positive*
%FSLAX46Y46*%
G04 Gerber Fmt 4.6, Leading zero omitted, Abs format (unit mm)*
G04 Created by KiCad (PCBNEW 8.0.0-rc2-192-gade987c101) date 2024-01-30 18:43:21*
%MOMM*%
%LPD*%
G01*
G04 APERTURE LIST*
%ADD10C,0.125000*%
%ADD11C,0.150000*%
G04 APERTURE END LIST*
D10*
X175882494Y-116051335D02*
X176215827Y-115789430D01*
X176215827Y-116051335D02*
X175882494Y-115789430D01*
X175882494Y-115598954D02*
X176382494Y-115598954D01*
X176382494Y-115598954D02*
X176382494Y-115479906D01*
X176382494Y-115479906D02*
X176358684Y-115408478D01*
X176358684Y-115408478D02*
X176311065Y-115360859D01*
X176311065Y-115360859D02*
X176263446Y-115337049D01*
X176263446Y-115337049D02*
X176168208Y-115313240D01*
X176168208Y-115313240D02*
X176096780Y-115313240D01*
X176096780Y-115313240D02*
X176001542Y-115337049D01*
X176001542Y-115337049D02*
X175953923Y-115360859D01*
X175953923Y-115360859D02*
X175906304Y-115408478D01*
X175906304Y-115408478D02*
X175882494Y-115479906D01*
X175882494Y-115479906D02*
X175882494Y-115598954D01*
X176215827Y-114884668D02*
X175882494Y-114884668D01*
X176215827Y-115098954D02*
X175953923Y-115098954D01*
X175953923Y-115098954D02*
X175906304Y-115075144D01*
X175906304Y-115075144D02*
X175882494Y-115027525D01*
X175882494Y-115027525D02*
X175882494Y-114956097D01*
X175882494Y-114956097D02*
X175906304Y-114908478D01*
X175906304Y-114908478D02*
X175930113Y-114884668D01*
X175882494Y-114646573D02*
X176215827Y-114646573D01*
X176382494Y-114646573D02*
X176358684Y-114670382D01*
X176358684Y-114670382D02*
X176334875Y-114646573D01*
X176334875Y-114646573D02*
X176358684Y-114622763D01*
X176358684Y-114622763D02*
X176382494Y-114646573D01*
X176382494Y-114646573D02*
X176334875Y-114646573D01*
X176215827Y-114408478D02*
X175882494Y-114408478D01*
X176168208Y-114408478D02*
X176192018Y-114384668D01*
X176192018Y-114384668D02*
X176215827Y-114337049D01*
X176215827Y-114337049D02*
X176215827Y-114265621D01*
X176215827Y-114265621D02*
X176192018Y-114218002D01*
X176192018Y-114218002D02*
X176144399Y-114194192D01*
X176144399Y-114194192D02*
X175882494Y-114194192D01*
X175882494Y-113884668D02*
X175906304Y-113932287D01*
X175906304Y-113932287D02*
X175930113Y-113956097D01*
X175930113Y-113956097D02*
X175977732Y-113979906D01*
X175977732Y-113979906D02*
X176120589Y-113979906D01*
X176120589Y-113979906D02*
X176168208Y-113956097D01*
X176168208Y-113956097D02*
X176192018Y-113932287D01*
X176192018Y-113932287D02*
X176215827Y-113884668D01*
X176215827Y-113884668D02*
X176215827Y-113813240D01*
X176215827Y-113813240D02*
X176192018Y-113765621D01*
X176192018Y-113765621D02*
X176168208Y-113741811D01*
X176168208Y-113741811D02*
X176120589Y-113718002D01*
X176120589Y-113718002D02*
X175977732Y-113718002D01*
X175977732Y-113718002D02*
X175930113Y-113741811D01*
X175930113Y-113741811D02*
X175906304Y-113765621D01*
X175906304Y-113765621D02*
X175882494Y-113813240D01*
X175882494Y-113813240D02*
X175882494Y-113884668D01*
X175882494Y-113218002D02*
X176120589Y-113384668D01*
X175882494Y-113503716D02*
X176382494Y-113503716D01*
X176382494Y-113503716D02*
X176382494Y-113313240D01*
X176382494Y-113313240D02*
X176358684Y-113265621D01*
X176358684Y-113265621D02*
X176334875Y-113241811D01*
X176334875Y-113241811D02*
X176287256Y-113218002D01*
X176287256Y-113218002D02*
X176215827Y-113218002D01*
X176215827Y-113218002D02*
X176168208Y-113241811D01*
X176168208Y-113241811D02*
X176144399Y-113265621D01*
X176144399Y-113265621D02*
X176120589Y-113313240D01*
X176120589Y-113313240D02*
X176120589Y-113503716D01*
X175882494Y-112789430D02*
X176144399Y-112789430D01*
X176144399Y-112789430D02*
X176192018Y-112813240D01*
X176192018Y-112813240D02*
X176215827Y-112860859D01*
X176215827Y-112860859D02*
X176215827Y-112956097D01*
X176215827Y-112956097D02*
X176192018Y-113003716D01*
X175906304Y-112789430D02*
X175882494Y-112837049D01*
X175882494Y-112837049D02*
X175882494Y-112956097D01*
X175882494Y-112956097D02*
X175906304Y-113003716D01*
X175906304Y-113003716D02*
X175953923Y-113027525D01*
X175953923Y-113027525D02*
X176001542Y-113027525D01*
X176001542Y-113027525D02*
X176049161Y-113003716D01*
X176049161Y-113003716D02*
X176072970Y-112956097D01*
X176072970Y-112956097D02*
X176072970Y-112837049D01*
X176072970Y-112837049D02*
X176096780Y-112789430D01*
X175882494Y-112551335D02*
X176215827Y-112551335D01*
X176382494Y-112551335D02*
X176358684Y-112575144D01*
X176358684Y-112575144D02*
X176334875Y-112551335D01*
X176334875Y-112551335D02*
X176358684Y-112527525D01*
X176358684Y-112527525D02*
X176382494Y-112551335D01*
X176382494Y-112551335D02*
X176334875Y-112551335D01*
X175882494Y-112241811D02*
X175906304Y-112289430D01*
X175906304Y-112289430D02*
X175953923Y-112313240D01*
X175953923Y-112313240D02*
X176382494Y-112313240D01*
X176072970Y-112051335D02*
X176072970Y-111670383D01*
X175882494Y-111146573D02*
X176120589Y-111313239D01*
X175882494Y-111432287D02*
X176382494Y-111432287D01*
X176382494Y-111432287D02*
X176382494Y-111241811D01*
X176382494Y-111241811D02*
X176358684Y-111194192D01*
X176358684Y-111194192D02*
X176334875Y-111170382D01*
X176334875Y-111170382D02*
X176287256Y-111146573D01*
X176287256Y-111146573D02*
X176215827Y-111146573D01*
X176215827Y-111146573D02*
X176168208Y-111170382D01*
X176168208Y-111170382D02*
X176144399Y-111194192D01*
X176144399Y-111194192D02*
X176120589Y-111241811D01*
X176120589Y-111241811D02*
X176120589Y-111432287D01*
X175882494Y-110718001D02*
X176144399Y-110718001D01*
X176144399Y-110718001D02*
X176192018Y-110741811D01*
X176192018Y-110741811D02*
X176215827Y-110789430D01*
X176215827Y-110789430D02*
X176215827Y-110884668D01*
X176215827Y-110884668D02*
X176192018Y-110932287D01*
X175906304Y-110718001D02*
X175882494Y-110765620D01*
X175882494Y-110765620D02*
X175882494Y-110884668D01*
X175882494Y-110884668D02*
X175906304Y-110932287D01*
X175906304Y-110932287D02*
X175953923Y-110956096D01*
X175953923Y-110956096D02*
X176001542Y-110956096D01*
X176001542Y-110956096D02*
X176049161Y-110932287D01*
X176049161Y-110932287D02*
X176072970Y-110884668D01*
X176072970Y-110884668D02*
X176072970Y-110765620D01*
X176072970Y-110765620D02*
X176096780Y-110718001D01*
X175882494Y-110479906D02*
X176215827Y-110479906D01*
X176382494Y-110479906D02*
X176358684Y-110503715D01*
X176358684Y-110503715D02*
X176334875Y-110479906D01*
X176334875Y-110479906D02*
X176358684Y-110456096D01*
X176358684Y-110456096D02*
X176382494Y-110479906D01*
X176382494Y-110479906D02*
X176334875Y-110479906D01*
X175882494Y-110170382D02*
X175906304Y-110218001D01*
X175906304Y-110218001D02*
X175953923Y-110241811D01*
X175953923Y-110241811D02*
X176382494Y-110241811D01*
X175906304Y-109765620D02*
X175882494Y-109813239D01*
X175882494Y-109813239D02*
X175882494Y-109908477D01*
X175882494Y-109908477D02*
X175906304Y-109956096D01*
X175906304Y-109956096D02*
X175930113Y-109979906D01*
X175930113Y-109979906D02*
X175977732Y-110003715D01*
X175977732Y-110003715D02*
X176120589Y-110003715D01*
X176120589Y-110003715D02*
X176168208Y-109979906D01*
X176168208Y-109979906D02*
X176192018Y-109956096D01*
X176192018Y-109956096D02*
X176215827Y-109908477D01*
X176215827Y-109908477D02*
X176215827Y-109813239D01*
X176215827Y-109813239D02*
X176192018Y-109765620D01*
X175882494Y-109479906D02*
X175906304Y-109527525D01*
X175906304Y-109527525D02*
X175930113Y-109551335D01*
X175930113Y-109551335D02*
X175977732Y-109575144D01*
X175977732Y-109575144D02*
X176120589Y-109575144D01*
X176120589Y-109575144D02*
X176168208Y-109551335D01*
X176168208Y-109551335D02*
X176192018Y-109527525D01*
X176192018Y-109527525D02*
X176215827Y-109479906D01*
X176215827Y-109479906D02*
X176215827Y-109408478D01*
X176215827Y-109408478D02*
X176192018Y-109360859D01*
X176192018Y-109360859D02*
X176168208Y-109337049D01*
X176168208Y-109337049D02*
X176120589Y-109313240D01*
X176120589Y-109313240D02*
X175977732Y-109313240D01*
X175977732Y-109313240D02*
X175930113Y-109337049D01*
X175930113Y-109337049D02*
X175906304Y-109360859D01*
X175906304Y-109360859D02*
X175882494Y-109408478D01*
X175882494Y-109408478D02*
X175882494Y-109479906D01*
X175882494Y-109098954D02*
X176215827Y-109098954D01*
X176168208Y-109098954D02*
X176192018Y-109075144D01*
X176192018Y-109075144D02*
X176215827Y-109027525D01*
X176215827Y-109027525D02*
X176215827Y-108956097D01*
X176215827Y-108956097D02*
X176192018Y-108908478D01*
X176192018Y-108908478D02*
X176144399Y-108884668D01*
X176144399Y-108884668D02*
X175882494Y-108884668D01*
X176144399Y-108884668D02*
X176192018Y-108860859D01*
X176192018Y-108860859D02*
X176215827Y-108813240D01*
X176215827Y-108813240D02*
X176215827Y-108741811D01*
X176215827Y-108741811D02*
X176192018Y-108694192D01*
X176192018Y-108694192D02*
X176144399Y-108670382D01*
X176144399Y-108670382D02*
X175882494Y-108670382D01*
X175882494Y-108432287D02*
X176382494Y-108432287D01*
X176382494Y-108432287D02*
X176382494Y-108313239D01*
X176382494Y-108313239D02*
X176358684Y-108241811D01*
X176358684Y-108241811D02*
X176311065Y-108194192D01*
X176311065Y-108194192D02*
X176263446Y-108170382D01*
X176263446Y-108170382D02*
X176168208Y-108146573D01*
X176168208Y-108146573D02*
X176096780Y-108146573D01*
X176096780Y-108146573D02*
X176001542Y-108170382D01*
X176001542Y-108170382D02*
X175953923Y-108194192D01*
X175953923Y-108194192D02*
X175906304Y-108241811D01*
X175906304Y-108241811D02*
X175882494Y-108313239D01*
X175882494Y-108313239D02*
X175882494Y-108432287D01*
X175906304Y-107741811D02*
X175882494Y-107789430D01*
X175882494Y-107789430D02*
X175882494Y-107884668D01*
X175882494Y-107884668D02*
X175906304Y-107932287D01*
X175906304Y-107932287D02*
X175953923Y-107956096D01*
X175953923Y-107956096D02*
X176144399Y-107956096D01*
X176144399Y-107956096D02*
X176192018Y-107932287D01*
X176192018Y-107932287D02*
X176215827Y-107884668D01*
X176215827Y-107884668D02*
X176215827Y-107789430D01*
X176215827Y-107789430D02*
X176192018Y-107741811D01*
X176192018Y-107741811D02*
X176144399Y-107718001D01*
X176144399Y-107718001D02*
X176096780Y-107718001D01*
X176096780Y-107718001D02*
X176049161Y-107956096D01*
X176215827Y-107575144D02*
X176215827Y-107384668D01*
X176382494Y-107503716D02*
X175953923Y-107503716D01*
X175953923Y-107503716D02*
X175906304Y-107479906D01*
X175906304Y-107479906D02*
X175882494Y-107432287D01*
X175882494Y-107432287D02*
X175882494Y-107384668D01*
X175906304Y-107027526D02*
X175882494Y-107075145D01*
X175882494Y-107075145D02*
X175882494Y-107170383D01*
X175882494Y-107170383D02*
X175906304Y-107218002D01*
X175906304Y-107218002D02*
X175953923Y-107241811D01*
X175953923Y-107241811D02*
X176144399Y-107241811D01*
X176144399Y-107241811D02*
X176192018Y-107218002D01*
X176192018Y-107218002D02*
X176215827Y-107170383D01*
X176215827Y-107170383D02*
X176215827Y-107075145D01*
X176215827Y-107075145D02*
X176192018Y-107027526D01*
X176192018Y-107027526D02*
X176144399Y-107003716D01*
X176144399Y-107003716D02*
X176096780Y-107003716D01*
X176096780Y-107003716D02*
X176049161Y-107241811D01*
X175906304Y-106575145D02*
X175882494Y-106622764D01*
X175882494Y-106622764D02*
X175882494Y-106718002D01*
X175882494Y-106718002D02*
X175906304Y-106765621D01*
X175906304Y-106765621D02*
X175930113Y-106789431D01*
X175930113Y-106789431D02*
X175977732Y-106813240D01*
X175977732Y-106813240D02*
X176120589Y-106813240D01*
X176120589Y-106813240D02*
X176168208Y-106789431D01*
X176168208Y-106789431D02*
X176192018Y-106765621D01*
X176192018Y-106765621D02*
X176215827Y-106718002D01*
X176215827Y-106718002D02*
X176215827Y-106622764D01*
X176215827Y-106622764D02*
X176192018Y-106575145D01*
X176215827Y-106432288D02*
X176215827Y-106241812D01*
X176382494Y-106360860D02*
X175953923Y-106360860D01*
X175953923Y-106360860D02*
X175906304Y-106337050D01*
X175906304Y-106337050D02*
X175882494Y-106289431D01*
X175882494Y-106289431D02*
X175882494Y-106241812D01*
X176072970Y-105694194D02*
X176072970Y-105313242D01*
X176215827Y-104741813D02*
X175882494Y-104622765D01*
X175882494Y-104622765D02*
X176215827Y-104503718D01*
X176382494Y-104218004D02*
X176382494Y-104170385D01*
X176382494Y-104170385D02*
X176358684Y-104122766D01*
X176358684Y-104122766D02*
X176334875Y-104098956D01*
X176334875Y-104098956D02*
X176287256Y-104075147D01*
X176287256Y-104075147D02*
X176192018Y-104051337D01*
X176192018Y-104051337D02*
X176072970Y-104051337D01*
X176072970Y-104051337D02*
X175977732Y-104075147D01*
X175977732Y-104075147D02*
X175930113Y-104098956D01*
X175930113Y-104098956D02*
X175906304Y-104122766D01*
X175906304Y-104122766D02*
X175882494Y-104170385D01*
X175882494Y-104170385D02*
X175882494Y-104218004D01*
X175882494Y-104218004D02*
X175906304Y-104265623D01*
X175906304Y-104265623D02*
X175930113Y-104289432D01*
X175930113Y-104289432D02*
X175977732Y-104313242D01*
X175977732Y-104313242D02*
X176072970Y-104337051D01*
X176072970Y-104337051D02*
X176192018Y-104337051D01*
X176192018Y-104337051D02*
X176287256Y-104313242D01*
X176287256Y-104313242D02*
X176334875Y-104289432D01*
X176334875Y-104289432D02*
X176358684Y-104265623D01*
X176358684Y-104265623D02*
X176382494Y-104218004D01*
X175930113Y-103837052D02*
X175906304Y-103813242D01*
X175906304Y-103813242D02*
X175882494Y-103837052D01*
X175882494Y-103837052D02*
X175906304Y-103860861D01*
X175906304Y-103860861D02*
X175930113Y-103837052D01*
X175930113Y-103837052D02*
X175882494Y-103837052D01*
X175882494Y-103337052D02*
X175882494Y-103622766D01*
X175882494Y-103479909D02*
X176382494Y-103479909D01*
X176382494Y-103479909D02*
X176311065Y-103527528D01*
X176311065Y-103527528D02*
X176263446Y-103575147D01*
X176263446Y-103575147D02*
X176239637Y-103622766D01*
X176072970Y-102741815D02*
X176072970Y-102360863D01*
X176334875Y-101765624D02*
X176358684Y-101741815D01*
X176358684Y-101741815D02*
X176382494Y-101694196D01*
X176382494Y-101694196D02*
X176382494Y-101575148D01*
X176382494Y-101575148D02*
X176358684Y-101527529D01*
X176358684Y-101527529D02*
X176334875Y-101503720D01*
X176334875Y-101503720D02*
X176287256Y-101479910D01*
X176287256Y-101479910D02*
X176239637Y-101479910D01*
X176239637Y-101479910D02*
X176168208Y-101503720D01*
X176168208Y-101503720D02*
X175882494Y-101789434D01*
X175882494Y-101789434D02*
X175882494Y-101479910D01*
X176382494Y-101170387D02*
X176382494Y-101122768D01*
X176382494Y-101122768D02*
X176358684Y-101075149D01*
X176358684Y-101075149D02*
X176334875Y-101051339D01*
X176334875Y-101051339D02*
X176287256Y-101027530D01*
X176287256Y-101027530D02*
X176192018Y-101003720D01*
X176192018Y-101003720D02*
X176072970Y-101003720D01*
X176072970Y-101003720D02*
X175977732Y-101027530D01*
X175977732Y-101027530D02*
X175930113Y-101051339D01*
X175930113Y-101051339D02*
X175906304Y-101075149D01*
X175906304Y-101075149D02*
X175882494Y-101122768D01*
X175882494Y-101122768D02*
X175882494Y-101170387D01*
X175882494Y-101170387D02*
X175906304Y-101218006D01*
X175906304Y-101218006D02*
X175930113Y-101241815D01*
X175930113Y-101241815D02*
X175977732Y-101265625D01*
X175977732Y-101265625D02*
X176072970Y-101289434D01*
X176072970Y-101289434D02*
X176192018Y-101289434D01*
X176192018Y-101289434D02*
X176287256Y-101265625D01*
X176287256Y-101265625D02*
X176334875Y-101241815D01*
X176334875Y-101241815D02*
X176358684Y-101218006D01*
X176358684Y-101218006D02*
X176382494Y-101170387D01*
X176334875Y-100813244D02*
X176358684Y-100789435D01*
X176358684Y-100789435D02*
X176382494Y-100741816D01*
X176382494Y-100741816D02*
X176382494Y-100622768D01*
X176382494Y-100622768D02*
X176358684Y-100575149D01*
X176358684Y-100575149D02*
X176334875Y-100551340D01*
X176334875Y-100551340D02*
X176287256Y-100527530D01*
X176287256Y-100527530D02*
X176239637Y-100527530D01*
X176239637Y-100527530D02*
X176168208Y-100551340D01*
X176168208Y-100551340D02*
X175882494Y-100837054D01*
X175882494Y-100837054D02*
X175882494Y-100527530D01*
X176215827Y-100098959D02*
X175882494Y-100098959D01*
X176406304Y-100218007D02*
X176049161Y-100337054D01*
X176049161Y-100337054D02*
X176049161Y-100027531D01*
X176072970Y-99837055D02*
X176072970Y-99456103D01*
X176382494Y-99122769D02*
X176382494Y-99075150D01*
X176382494Y-99075150D02*
X176358684Y-99027531D01*
X176358684Y-99027531D02*
X176334875Y-99003721D01*
X176334875Y-99003721D02*
X176287256Y-98979912D01*
X176287256Y-98979912D02*
X176192018Y-98956102D01*
X176192018Y-98956102D02*
X176072970Y-98956102D01*
X176072970Y-98956102D02*
X175977732Y-98979912D01*
X175977732Y-98979912D02*
X175930113Y-99003721D01*
X175930113Y-99003721D02*
X175906304Y-99027531D01*
X175906304Y-99027531D02*
X175882494Y-99075150D01*
X175882494Y-99075150D02*
X175882494Y-99122769D01*
X175882494Y-99122769D02*
X175906304Y-99170388D01*
X175906304Y-99170388D02*
X175930113Y-99194197D01*
X175930113Y-99194197D02*
X175977732Y-99218007D01*
X175977732Y-99218007D02*
X176072970Y-99241816D01*
X176072970Y-99241816D02*
X176192018Y-99241816D01*
X176192018Y-99241816D02*
X176287256Y-99218007D01*
X176287256Y-99218007D02*
X176334875Y-99194197D01*
X176334875Y-99194197D02*
X176358684Y-99170388D01*
X176358684Y-99170388D02*
X176382494Y-99122769D01*
X175882494Y-98479912D02*
X175882494Y-98765626D01*
X175882494Y-98622769D02*
X176382494Y-98622769D01*
X176382494Y-98622769D02*
X176311065Y-98670388D01*
X176311065Y-98670388D02*
X176263446Y-98718007D01*
X176263446Y-98718007D02*
X176239637Y-98765626D01*
X176072970Y-98265627D02*
X176072970Y-97884675D01*
X176334875Y-97670388D02*
X176358684Y-97646579D01*
X176358684Y-97646579D02*
X176382494Y-97598960D01*
X176382494Y-97598960D02*
X176382494Y-97479912D01*
X176382494Y-97479912D02*
X176358684Y-97432293D01*
X176358684Y-97432293D02*
X176334875Y-97408484D01*
X176334875Y-97408484D02*
X176287256Y-97384674D01*
X176287256Y-97384674D02*
X176239637Y-97384674D01*
X176239637Y-97384674D02*
X176168208Y-97408484D01*
X176168208Y-97408484D02*
X175882494Y-97694198D01*
X175882494Y-97694198D02*
X175882494Y-97384674D01*
X175882494Y-97146579D02*
X175882494Y-97051341D01*
X175882494Y-97051341D02*
X175906304Y-97003722D01*
X175906304Y-97003722D02*
X175930113Y-96979913D01*
X175930113Y-96979913D02*
X176001542Y-96932294D01*
X176001542Y-96932294D02*
X176096780Y-96908484D01*
X176096780Y-96908484D02*
X176287256Y-96908484D01*
X176287256Y-96908484D02*
X176334875Y-96932294D01*
X176334875Y-96932294D02*
X176358684Y-96956103D01*
X176358684Y-96956103D02*
X176382494Y-97003722D01*
X176382494Y-97003722D02*
X176382494Y-97098960D01*
X176382494Y-97098960D02*
X176358684Y-97146579D01*
X176358684Y-97146579D02*
X176334875Y-97170389D01*
X176334875Y-97170389D02*
X176287256Y-97194198D01*
X176287256Y-97194198D02*
X176168208Y-97194198D01*
X176168208Y-97194198D02*
X176120589Y-97170389D01*
X176120589Y-97170389D02*
X176096780Y-97146579D01*
X176096780Y-97146579D02*
X176072970Y-97098960D01*
X176072970Y-97098960D02*
X176072970Y-97003722D01*
X176072970Y-97003722D02*
X176096780Y-96956103D01*
X176096780Y-96956103D02*
X176120589Y-96932294D01*
X176120589Y-96932294D02*
X176168208Y-96908484D01*
X174534455Y-115837049D02*
X174510645Y-115765621D01*
X174510645Y-115765621D02*
X174486836Y-115741811D01*
X174486836Y-115741811D02*
X174439217Y-115718002D01*
X174439217Y-115718002D02*
X174367788Y-115718002D01*
X174367788Y-115718002D02*
X174320169Y-115741811D01*
X174320169Y-115741811D02*
X174296360Y-115765621D01*
X174296360Y-115765621D02*
X174272550Y-115813240D01*
X174272550Y-115813240D02*
X174272550Y-116003716D01*
X174272550Y-116003716D02*
X174772550Y-116003716D01*
X174772550Y-116003716D02*
X174772550Y-115837049D01*
X174772550Y-115837049D02*
X174748740Y-115789430D01*
X174748740Y-115789430D02*
X174724931Y-115765621D01*
X174724931Y-115765621D02*
X174677312Y-115741811D01*
X174677312Y-115741811D02*
X174629693Y-115741811D01*
X174629693Y-115741811D02*
X174582074Y-115765621D01*
X174582074Y-115765621D02*
X174558264Y-115789430D01*
X174558264Y-115789430D02*
X174534455Y-115837049D01*
X174534455Y-115837049D02*
X174534455Y-116003716D01*
X174272550Y-115503716D02*
X174605883Y-115503716D01*
X174510645Y-115503716D02*
X174558264Y-115479906D01*
X174558264Y-115479906D02*
X174582074Y-115456097D01*
X174582074Y-115456097D02*
X174605883Y-115408478D01*
X174605883Y-115408478D02*
X174605883Y-115360859D01*
X174272550Y-115122763D02*
X174296360Y-115170382D01*
X174296360Y-115170382D02*
X174320169Y-115194192D01*
X174320169Y-115194192D02*
X174367788Y-115218001D01*
X174367788Y-115218001D02*
X174510645Y-115218001D01*
X174510645Y-115218001D02*
X174558264Y-115194192D01*
X174558264Y-115194192D02*
X174582074Y-115170382D01*
X174582074Y-115170382D02*
X174605883Y-115122763D01*
X174605883Y-115122763D02*
X174605883Y-115051335D01*
X174605883Y-115051335D02*
X174582074Y-115003716D01*
X174582074Y-115003716D02*
X174558264Y-114979906D01*
X174558264Y-114979906D02*
X174510645Y-114956097D01*
X174510645Y-114956097D02*
X174367788Y-114956097D01*
X174367788Y-114956097D02*
X174320169Y-114979906D01*
X174320169Y-114979906D02*
X174296360Y-115003716D01*
X174296360Y-115003716D02*
X174272550Y-115051335D01*
X174272550Y-115051335D02*
X174272550Y-115122763D01*
X174605883Y-114527525D02*
X174272550Y-114527525D01*
X174605883Y-114741811D02*
X174343979Y-114741811D01*
X174343979Y-114741811D02*
X174296360Y-114718001D01*
X174296360Y-114718001D02*
X174272550Y-114670382D01*
X174272550Y-114670382D02*
X174272550Y-114598954D01*
X174272550Y-114598954D02*
X174296360Y-114551335D01*
X174296360Y-114551335D02*
X174320169Y-114527525D01*
X174605883Y-114075144D02*
X174201121Y-114075144D01*
X174201121Y-114075144D02*
X174153502Y-114098954D01*
X174153502Y-114098954D02*
X174129693Y-114122763D01*
X174129693Y-114122763D02*
X174105883Y-114170382D01*
X174105883Y-114170382D02*
X174105883Y-114241811D01*
X174105883Y-114241811D02*
X174129693Y-114289430D01*
X174296360Y-114075144D02*
X174272550Y-114122763D01*
X174272550Y-114122763D02*
X174272550Y-114218001D01*
X174272550Y-114218001D02*
X174296360Y-114265620D01*
X174296360Y-114265620D02*
X174320169Y-114289430D01*
X174320169Y-114289430D02*
X174367788Y-114313239D01*
X174367788Y-114313239D02*
X174510645Y-114313239D01*
X174510645Y-114313239D02*
X174558264Y-114289430D01*
X174558264Y-114289430D02*
X174582074Y-114265620D01*
X174582074Y-114265620D02*
X174605883Y-114218001D01*
X174605883Y-114218001D02*
X174605883Y-114122763D01*
X174605883Y-114122763D02*
X174582074Y-114075144D01*
X174272550Y-113837049D02*
X174772550Y-113837049D01*
X174272550Y-113622763D02*
X174534455Y-113622763D01*
X174534455Y-113622763D02*
X174582074Y-113646573D01*
X174582074Y-113646573D02*
X174605883Y-113694192D01*
X174605883Y-113694192D02*
X174605883Y-113765620D01*
X174605883Y-113765620D02*
X174582074Y-113813239D01*
X174582074Y-113813239D02*
X174558264Y-113837049D01*
X174605883Y-113456096D02*
X174605883Y-113265620D01*
X174772550Y-113384668D02*
X174343979Y-113384668D01*
X174343979Y-113384668D02*
X174296360Y-113360858D01*
X174296360Y-113360858D02*
X174272550Y-113313239D01*
X174272550Y-113313239D02*
X174272550Y-113265620D01*
X174605883Y-112789430D02*
X174605883Y-112598954D01*
X174772550Y-112718002D02*
X174343979Y-112718002D01*
X174343979Y-112718002D02*
X174296360Y-112694192D01*
X174296360Y-112694192D02*
X174272550Y-112646573D01*
X174272550Y-112646573D02*
X174272550Y-112598954D01*
X174272550Y-112360859D02*
X174296360Y-112408478D01*
X174296360Y-112408478D02*
X174320169Y-112432288D01*
X174320169Y-112432288D02*
X174367788Y-112456097D01*
X174367788Y-112456097D02*
X174510645Y-112456097D01*
X174510645Y-112456097D02*
X174558264Y-112432288D01*
X174558264Y-112432288D02*
X174582074Y-112408478D01*
X174582074Y-112408478D02*
X174605883Y-112360859D01*
X174605883Y-112360859D02*
X174605883Y-112289431D01*
X174605883Y-112289431D02*
X174582074Y-112241812D01*
X174582074Y-112241812D02*
X174558264Y-112218002D01*
X174558264Y-112218002D02*
X174510645Y-112194193D01*
X174510645Y-112194193D02*
X174367788Y-112194193D01*
X174367788Y-112194193D02*
X174320169Y-112218002D01*
X174320169Y-112218002D02*
X174296360Y-112241812D01*
X174296360Y-112241812D02*
X174272550Y-112289431D01*
X174272550Y-112289431D02*
X174272550Y-112360859D01*
X174605883Y-111646574D02*
X174272550Y-111527526D01*
X174605883Y-111408479D02*
X174272550Y-111527526D01*
X174272550Y-111527526D02*
X174153502Y-111575145D01*
X174153502Y-111575145D02*
X174129693Y-111598955D01*
X174129693Y-111598955D02*
X174105883Y-111646574D01*
X174272550Y-111146574D02*
X174296360Y-111194193D01*
X174296360Y-111194193D02*
X174320169Y-111218003D01*
X174320169Y-111218003D02*
X174367788Y-111241812D01*
X174367788Y-111241812D02*
X174510645Y-111241812D01*
X174510645Y-111241812D02*
X174558264Y-111218003D01*
X174558264Y-111218003D02*
X174582074Y-111194193D01*
X174582074Y-111194193D02*
X174605883Y-111146574D01*
X174605883Y-111146574D02*
X174605883Y-111075146D01*
X174605883Y-111075146D02*
X174582074Y-111027527D01*
X174582074Y-111027527D02*
X174558264Y-111003717D01*
X174558264Y-111003717D02*
X174510645Y-110979908D01*
X174510645Y-110979908D02*
X174367788Y-110979908D01*
X174367788Y-110979908D02*
X174320169Y-111003717D01*
X174320169Y-111003717D02*
X174296360Y-111027527D01*
X174296360Y-111027527D02*
X174272550Y-111075146D01*
X174272550Y-111075146D02*
X174272550Y-111146574D01*
X174605883Y-110551336D02*
X174272550Y-110551336D01*
X174605883Y-110765622D02*
X174343979Y-110765622D01*
X174343979Y-110765622D02*
X174296360Y-110741812D01*
X174296360Y-110741812D02*
X174272550Y-110694193D01*
X174272550Y-110694193D02*
X174272550Y-110622765D01*
X174272550Y-110622765D02*
X174296360Y-110575146D01*
X174296360Y-110575146D02*
X174320169Y-110551336D01*
X174272550Y-109932289D02*
X174772550Y-109932289D01*
X174582074Y-109932289D02*
X174605883Y-109884670D01*
X174605883Y-109884670D02*
X174605883Y-109789432D01*
X174605883Y-109789432D02*
X174582074Y-109741813D01*
X174582074Y-109741813D02*
X174558264Y-109718003D01*
X174558264Y-109718003D02*
X174510645Y-109694194D01*
X174510645Y-109694194D02*
X174367788Y-109694194D01*
X174367788Y-109694194D02*
X174320169Y-109718003D01*
X174320169Y-109718003D02*
X174296360Y-109741813D01*
X174296360Y-109741813D02*
X174272550Y-109789432D01*
X174272550Y-109789432D02*
X174272550Y-109884670D01*
X174272550Y-109884670D02*
X174296360Y-109932289D01*
X174605883Y-109527527D02*
X174272550Y-109408479D01*
X174605883Y-109289432D02*
X174272550Y-109408479D01*
X174272550Y-109408479D02*
X174153502Y-109456098D01*
X174153502Y-109456098D02*
X174129693Y-109479908D01*
X174129693Y-109479908D02*
X174105883Y-109527527D01*
X174772550Y-108622766D02*
X174772550Y-108527528D01*
X174772550Y-108527528D02*
X174748740Y-108479909D01*
X174748740Y-108479909D02*
X174701121Y-108432290D01*
X174701121Y-108432290D02*
X174605883Y-108408480D01*
X174605883Y-108408480D02*
X174439217Y-108408480D01*
X174439217Y-108408480D02*
X174343979Y-108432290D01*
X174343979Y-108432290D02*
X174296360Y-108479909D01*
X174296360Y-108479909D02*
X174272550Y-108527528D01*
X174272550Y-108527528D02*
X174272550Y-108622766D01*
X174272550Y-108622766D02*
X174296360Y-108670385D01*
X174296360Y-108670385D02*
X174343979Y-108718004D01*
X174343979Y-108718004D02*
X174439217Y-108741813D01*
X174439217Y-108741813D02*
X174605883Y-108741813D01*
X174605883Y-108741813D02*
X174701121Y-108718004D01*
X174701121Y-108718004D02*
X174748740Y-108670385D01*
X174748740Y-108670385D02*
X174772550Y-108622766D01*
X174272550Y-108122765D02*
X174296360Y-108170384D01*
X174296360Y-108170384D02*
X174343979Y-108194194D01*
X174343979Y-108194194D02*
X174772550Y-108194194D01*
X174272550Y-107932289D02*
X174605883Y-107932289D01*
X174772550Y-107932289D02*
X174748740Y-107956098D01*
X174748740Y-107956098D02*
X174724931Y-107932289D01*
X174724931Y-107932289D02*
X174748740Y-107908479D01*
X174748740Y-107908479D02*
X174772550Y-107932289D01*
X174772550Y-107932289D02*
X174724931Y-107932289D01*
X174605883Y-107741813D02*
X174272550Y-107622765D01*
X174272550Y-107622765D02*
X174605883Y-107503718D01*
X174272550Y-107313242D02*
X174605883Y-107313242D01*
X174772550Y-107313242D02*
X174748740Y-107337051D01*
X174748740Y-107337051D02*
X174724931Y-107313242D01*
X174724931Y-107313242D02*
X174748740Y-107289432D01*
X174748740Y-107289432D02*
X174772550Y-107313242D01*
X174772550Y-107313242D02*
X174724931Y-107313242D01*
X174296360Y-106884671D02*
X174272550Y-106932290D01*
X174272550Y-106932290D02*
X174272550Y-107027528D01*
X174272550Y-107027528D02*
X174296360Y-107075147D01*
X174296360Y-107075147D02*
X174343979Y-107098956D01*
X174343979Y-107098956D02*
X174534455Y-107098956D01*
X174534455Y-107098956D02*
X174582074Y-107075147D01*
X174582074Y-107075147D02*
X174605883Y-107027528D01*
X174605883Y-107027528D02*
X174605883Y-106932290D01*
X174605883Y-106932290D02*
X174582074Y-106884671D01*
X174582074Y-106884671D02*
X174534455Y-106860861D01*
X174534455Y-106860861D02*
X174486836Y-106860861D01*
X174486836Y-106860861D02*
X174439217Y-107098956D01*
X174272550Y-106646576D02*
X174605883Y-106646576D01*
X174510645Y-106646576D02*
X174558264Y-106622766D01*
X174558264Y-106622766D02*
X174582074Y-106598957D01*
X174582074Y-106598957D02*
X174605883Y-106551338D01*
X174605883Y-106551338D02*
X174605883Y-106503719D01*
X174320169Y-105670386D02*
X174296360Y-105694195D01*
X174296360Y-105694195D02*
X174272550Y-105765624D01*
X174272550Y-105765624D02*
X174272550Y-105813243D01*
X174272550Y-105813243D02*
X174296360Y-105884671D01*
X174296360Y-105884671D02*
X174343979Y-105932290D01*
X174343979Y-105932290D02*
X174391598Y-105956100D01*
X174391598Y-105956100D02*
X174486836Y-105979909D01*
X174486836Y-105979909D02*
X174558264Y-105979909D01*
X174558264Y-105979909D02*
X174653502Y-105956100D01*
X174653502Y-105956100D02*
X174701121Y-105932290D01*
X174701121Y-105932290D02*
X174748740Y-105884671D01*
X174748740Y-105884671D02*
X174772550Y-105813243D01*
X174772550Y-105813243D02*
X174772550Y-105765624D01*
X174772550Y-105765624D02*
X174748740Y-105694195D01*
X174748740Y-105694195D02*
X174724931Y-105670386D01*
X174272550Y-105456100D02*
X174772550Y-105456100D01*
X174272550Y-105241814D02*
X174534455Y-105241814D01*
X174534455Y-105241814D02*
X174582074Y-105265624D01*
X174582074Y-105265624D02*
X174605883Y-105313243D01*
X174605883Y-105313243D02*
X174605883Y-105384671D01*
X174605883Y-105384671D02*
X174582074Y-105432290D01*
X174582074Y-105432290D02*
X174558264Y-105456100D01*
X174272550Y-104789433D02*
X174534455Y-104789433D01*
X174534455Y-104789433D02*
X174582074Y-104813243D01*
X174582074Y-104813243D02*
X174605883Y-104860862D01*
X174605883Y-104860862D02*
X174605883Y-104956100D01*
X174605883Y-104956100D02*
X174582074Y-105003719D01*
X174296360Y-104789433D02*
X174272550Y-104837052D01*
X174272550Y-104837052D02*
X174272550Y-104956100D01*
X174272550Y-104956100D02*
X174296360Y-105003719D01*
X174296360Y-105003719D02*
X174343979Y-105027528D01*
X174343979Y-105027528D02*
X174391598Y-105027528D01*
X174391598Y-105027528D02*
X174439217Y-105003719D01*
X174439217Y-105003719D02*
X174463026Y-104956100D01*
X174463026Y-104956100D02*
X174463026Y-104837052D01*
X174463026Y-104837052D02*
X174486836Y-104789433D01*
X174724931Y-105003719D02*
X174796360Y-104908481D01*
X174796360Y-104908481D02*
X174724931Y-104813243D01*
X174605883Y-104622766D02*
X174605883Y-104432290D01*
X174772550Y-104551338D02*
X174343979Y-104551338D01*
X174343979Y-104551338D02*
X174296360Y-104527528D01*
X174296360Y-104527528D02*
X174272550Y-104479909D01*
X174272550Y-104479909D02*
X174272550Y-104432290D01*
X174296360Y-104075148D02*
X174272550Y-104122767D01*
X174272550Y-104122767D02*
X174272550Y-104218005D01*
X174272550Y-104218005D02*
X174296360Y-104265624D01*
X174296360Y-104265624D02*
X174343979Y-104289433D01*
X174343979Y-104289433D02*
X174534455Y-104289433D01*
X174534455Y-104289433D02*
X174582074Y-104265624D01*
X174582074Y-104265624D02*
X174605883Y-104218005D01*
X174605883Y-104218005D02*
X174605883Y-104122767D01*
X174605883Y-104122767D02*
X174582074Y-104075148D01*
X174582074Y-104075148D02*
X174534455Y-104051338D01*
X174534455Y-104051338D02*
X174486836Y-104051338D01*
X174486836Y-104051338D02*
X174439217Y-104289433D01*
X174272550Y-103765624D02*
X174296360Y-103813243D01*
X174296360Y-103813243D02*
X174343979Y-103837053D01*
X174343979Y-103837053D02*
X174772550Y-103837053D01*
X174272550Y-103360862D02*
X174534455Y-103360862D01*
X174534455Y-103360862D02*
X174582074Y-103384672D01*
X174582074Y-103384672D02*
X174605883Y-103432291D01*
X174605883Y-103432291D02*
X174605883Y-103527529D01*
X174605883Y-103527529D02*
X174582074Y-103575148D01*
X174296360Y-103360862D02*
X174272550Y-103408481D01*
X174272550Y-103408481D02*
X174272550Y-103527529D01*
X174272550Y-103527529D02*
X174296360Y-103575148D01*
X174296360Y-103575148D02*
X174343979Y-103598957D01*
X174343979Y-103598957D02*
X174391598Y-103598957D01*
X174391598Y-103598957D02*
X174439217Y-103575148D01*
X174439217Y-103575148D02*
X174463026Y-103527529D01*
X174463026Y-103527529D02*
X174463026Y-103408481D01*
X174463026Y-103408481D02*
X174486836Y-103360862D01*
X174272550Y-103122767D02*
X174605883Y-103122767D01*
X174772550Y-103122767D02*
X174748740Y-103146576D01*
X174748740Y-103146576D02*
X174724931Y-103122767D01*
X174724931Y-103122767D02*
X174748740Y-103098957D01*
X174748740Y-103098957D02*
X174772550Y-103122767D01*
X174772550Y-103122767D02*
X174724931Y-103122767D01*
X174605883Y-102884672D02*
X174272550Y-102884672D01*
X174558264Y-102884672D02*
X174582074Y-102860862D01*
X174582074Y-102860862D02*
X174605883Y-102813243D01*
X174605883Y-102813243D02*
X174605883Y-102741815D01*
X174605883Y-102741815D02*
X174582074Y-102694196D01*
X174582074Y-102694196D02*
X174534455Y-102670386D01*
X174534455Y-102670386D02*
X174272550Y-102670386D01*
X174463026Y-102432291D02*
X174463026Y-102051339D01*
X174748740Y-101551338D02*
X174772550Y-101598957D01*
X174772550Y-101598957D02*
X174772550Y-101670386D01*
X174772550Y-101670386D02*
X174748740Y-101741814D01*
X174748740Y-101741814D02*
X174701121Y-101789433D01*
X174701121Y-101789433D02*
X174653502Y-101813243D01*
X174653502Y-101813243D02*
X174558264Y-101837052D01*
X174558264Y-101837052D02*
X174486836Y-101837052D01*
X174486836Y-101837052D02*
X174391598Y-101813243D01*
X174391598Y-101813243D02*
X174343979Y-101789433D01*
X174343979Y-101789433D02*
X174296360Y-101741814D01*
X174296360Y-101741814D02*
X174272550Y-101670386D01*
X174272550Y-101670386D02*
X174272550Y-101622767D01*
X174272550Y-101622767D02*
X174296360Y-101551338D01*
X174296360Y-101551338D02*
X174320169Y-101527529D01*
X174320169Y-101527529D02*
X174486836Y-101527529D01*
X174486836Y-101527529D02*
X174486836Y-101622767D01*
X174272550Y-101313243D02*
X174605883Y-101313243D01*
X174558264Y-101313243D02*
X174582074Y-101289433D01*
X174582074Y-101289433D02*
X174605883Y-101241814D01*
X174605883Y-101241814D02*
X174605883Y-101170386D01*
X174605883Y-101170386D02*
X174582074Y-101122767D01*
X174582074Y-101122767D02*
X174534455Y-101098957D01*
X174534455Y-101098957D02*
X174272550Y-101098957D01*
X174534455Y-101098957D02*
X174582074Y-101075148D01*
X174582074Y-101075148D02*
X174605883Y-101027529D01*
X174605883Y-101027529D02*
X174605883Y-100956100D01*
X174605883Y-100956100D02*
X174582074Y-100908481D01*
X174582074Y-100908481D02*
X174534455Y-100884671D01*
X174534455Y-100884671D02*
X174272550Y-100884671D01*
X174605883Y-100432290D02*
X174272550Y-100432290D01*
X174605883Y-100646576D02*
X174343979Y-100646576D01*
X174343979Y-100646576D02*
X174296360Y-100622766D01*
X174296360Y-100622766D02*
X174272550Y-100575147D01*
X174272550Y-100575147D02*
X174272550Y-100503719D01*
X174272550Y-100503719D02*
X174296360Y-100456100D01*
X174296360Y-100456100D02*
X174320169Y-100432290D01*
X174772550Y-100622766D02*
X174748740Y-100598957D01*
X174748740Y-100598957D02*
X174724931Y-100622766D01*
X174724931Y-100622766D02*
X174748740Y-100646576D01*
X174748740Y-100646576D02*
X174772550Y-100622766D01*
X174772550Y-100622766D02*
X174724931Y-100622766D01*
X174772550Y-100432290D02*
X174748740Y-100408481D01*
X174748740Y-100408481D02*
X174724931Y-100432290D01*
X174724931Y-100432290D02*
X174748740Y-100456100D01*
X174748740Y-100456100D02*
X174772550Y-100432290D01*
X174772550Y-100432290D02*
X174724931Y-100432290D01*
X174272550Y-100194195D02*
X174605883Y-100194195D01*
X174510645Y-100194195D02*
X174558264Y-100170385D01*
X174558264Y-100170385D02*
X174582074Y-100146576D01*
X174582074Y-100146576D02*
X174605883Y-100098957D01*
X174605883Y-100098957D02*
X174605883Y-100051338D01*
X172924511Y-115837049D02*
X172900701Y-115765621D01*
X172900701Y-115765621D02*
X172876892Y-115741811D01*
X172876892Y-115741811D02*
X172829273Y-115718002D01*
X172829273Y-115718002D02*
X172757844Y-115718002D01*
X172757844Y-115718002D02*
X172710225Y-115741811D01*
X172710225Y-115741811D02*
X172686416Y-115765621D01*
X172686416Y-115765621D02*
X172662606Y-115813240D01*
X172662606Y-115813240D02*
X172662606Y-116003716D01*
X172662606Y-116003716D02*
X173162606Y-116003716D01*
X173162606Y-116003716D02*
X173162606Y-115837049D01*
X173162606Y-115837049D02*
X173138796Y-115789430D01*
X173138796Y-115789430D02*
X173114987Y-115765621D01*
X173114987Y-115765621D02*
X173067368Y-115741811D01*
X173067368Y-115741811D02*
X173019749Y-115741811D01*
X173019749Y-115741811D02*
X172972130Y-115765621D01*
X172972130Y-115765621D02*
X172948320Y-115789430D01*
X172948320Y-115789430D02*
X172924511Y-115837049D01*
X172924511Y-115837049D02*
X172924511Y-116003716D01*
X172995939Y-115289430D02*
X172662606Y-115289430D01*
X172995939Y-115503716D02*
X172734035Y-115503716D01*
X172734035Y-115503716D02*
X172686416Y-115479906D01*
X172686416Y-115479906D02*
X172662606Y-115432287D01*
X172662606Y-115432287D02*
X172662606Y-115360859D01*
X172662606Y-115360859D02*
X172686416Y-115313240D01*
X172686416Y-115313240D02*
X172710225Y-115289430D01*
X172662606Y-115051335D02*
X172995939Y-115051335D01*
X173162606Y-115051335D02*
X173138796Y-115075144D01*
X173138796Y-115075144D02*
X173114987Y-115051335D01*
X173114987Y-115051335D02*
X173138796Y-115027525D01*
X173138796Y-115027525D02*
X173162606Y-115051335D01*
X173162606Y-115051335D02*
X173114987Y-115051335D01*
X172662606Y-114741811D02*
X172686416Y-114789430D01*
X172686416Y-114789430D02*
X172734035Y-114813240D01*
X172734035Y-114813240D02*
X173162606Y-114813240D01*
X172995939Y-114622763D02*
X172995939Y-114432287D01*
X173162606Y-114551335D02*
X172734035Y-114551335D01*
X172734035Y-114551335D02*
X172686416Y-114527525D01*
X172686416Y-114527525D02*
X172662606Y-114479906D01*
X172662606Y-114479906D02*
X172662606Y-114432287D01*
X172995939Y-113670383D02*
X172662606Y-113670383D01*
X172995939Y-113884669D02*
X172734035Y-113884669D01*
X172734035Y-113884669D02*
X172686416Y-113860859D01*
X172686416Y-113860859D02*
X172662606Y-113813240D01*
X172662606Y-113813240D02*
X172662606Y-113741812D01*
X172662606Y-113741812D02*
X172686416Y-113694193D01*
X172686416Y-113694193D02*
X172710225Y-113670383D01*
X172995939Y-113432288D02*
X172495939Y-113432288D01*
X172972130Y-113432288D02*
X172995939Y-113384669D01*
X172995939Y-113384669D02*
X172995939Y-113289431D01*
X172995939Y-113289431D02*
X172972130Y-113241812D01*
X172972130Y-113241812D02*
X172948320Y-113218002D01*
X172948320Y-113218002D02*
X172900701Y-113194193D01*
X172900701Y-113194193D02*
X172757844Y-113194193D01*
X172757844Y-113194193D02*
X172710225Y-113218002D01*
X172710225Y-113218002D02*
X172686416Y-113241812D01*
X172686416Y-113241812D02*
X172662606Y-113289431D01*
X172662606Y-113289431D02*
X172662606Y-113384669D01*
X172662606Y-113384669D02*
X172686416Y-113432288D01*
X172662606Y-112908478D02*
X172686416Y-112956097D01*
X172686416Y-112956097D02*
X172710225Y-112979907D01*
X172710225Y-112979907D02*
X172757844Y-113003716D01*
X172757844Y-113003716D02*
X172900701Y-113003716D01*
X172900701Y-113003716D02*
X172948320Y-112979907D01*
X172948320Y-112979907D02*
X172972130Y-112956097D01*
X172972130Y-112956097D02*
X172995939Y-112908478D01*
X172995939Y-112908478D02*
X172995939Y-112837050D01*
X172995939Y-112837050D02*
X172972130Y-112789431D01*
X172972130Y-112789431D02*
X172948320Y-112765621D01*
X172948320Y-112765621D02*
X172900701Y-112741812D01*
X172900701Y-112741812D02*
X172757844Y-112741812D01*
X172757844Y-112741812D02*
X172710225Y-112765621D01*
X172710225Y-112765621D02*
X172686416Y-112789431D01*
X172686416Y-112789431D02*
X172662606Y-112837050D01*
X172662606Y-112837050D02*
X172662606Y-112908478D01*
X172995939Y-112527526D02*
X172662606Y-112527526D01*
X172948320Y-112527526D02*
X172972130Y-112503716D01*
X172972130Y-112503716D02*
X172995939Y-112456097D01*
X172995939Y-112456097D02*
X172995939Y-112384669D01*
X172995939Y-112384669D02*
X172972130Y-112337050D01*
X172972130Y-112337050D02*
X172924511Y-112313240D01*
X172924511Y-112313240D02*
X172662606Y-112313240D01*
X172995939Y-111765621D02*
X172995939Y-111575145D01*
X173162606Y-111694193D02*
X172734035Y-111694193D01*
X172734035Y-111694193D02*
X172686416Y-111670383D01*
X172686416Y-111670383D02*
X172662606Y-111622764D01*
X172662606Y-111622764D02*
X172662606Y-111575145D01*
X172662606Y-111408479D02*
X173162606Y-111408479D01*
X172662606Y-111194193D02*
X172924511Y-111194193D01*
X172924511Y-111194193D02*
X172972130Y-111218003D01*
X172972130Y-111218003D02*
X172995939Y-111265622D01*
X172995939Y-111265622D02*
X172995939Y-111337050D01*
X172995939Y-111337050D02*
X172972130Y-111384669D01*
X172972130Y-111384669D02*
X172948320Y-111408479D01*
X172686416Y-110765622D02*
X172662606Y-110813241D01*
X172662606Y-110813241D02*
X172662606Y-110908479D01*
X172662606Y-110908479D02*
X172686416Y-110956098D01*
X172686416Y-110956098D02*
X172734035Y-110979907D01*
X172734035Y-110979907D02*
X172924511Y-110979907D01*
X172924511Y-110979907D02*
X172972130Y-110956098D01*
X172972130Y-110956098D02*
X172995939Y-110908479D01*
X172995939Y-110908479D02*
X172995939Y-110813241D01*
X172995939Y-110813241D02*
X172972130Y-110765622D01*
X172972130Y-110765622D02*
X172924511Y-110741812D01*
X172924511Y-110741812D02*
X172876892Y-110741812D01*
X172876892Y-110741812D02*
X172829273Y-110979907D01*
X172686416Y-110170384D02*
X172662606Y-110122765D01*
X172662606Y-110122765D02*
X172662606Y-110027527D01*
X172662606Y-110027527D02*
X172686416Y-109979908D01*
X172686416Y-109979908D02*
X172734035Y-109956099D01*
X172734035Y-109956099D02*
X172757844Y-109956099D01*
X172757844Y-109956099D02*
X172805463Y-109979908D01*
X172805463Y-109979908D02*
X172829273Y-110027527D01*
X172829273Y-110027527D02*
X172829273Y-110098956D01*
X172829273Y-110098956D02*
X172853082Y-110146575D01*
X172853082Y-110146575D02*
X172900701Y-110170384D01*
X172900701Y-110170384D02*
X172924511Y-110170384D01*
X172924511Y-110170384D02*
X172972130Y-110146575D01*
X172972130Y-110146575D02*
X172995939Y-110098956D01*
X172995939Y-110098956D02*
X172995939Y-110027527D01*
X172995939Y-110027527D02*
X172972130Y-109979908D01*
X172662606Y-109741813D02*
X173162606Y-109741813D01*
X172662606Y-109527527D02*
X172924511Y-109527527D01*
X172924511Y-109527527D02*
X172972130Y-109551337D01*
X172972130Y-109551337D02*
X172995939Y-109598956D01*
X172995939Y-109598956D02*
X172995939Y-109670384D01*
X172995939Y-109670384D02*
X172972130Y-109718003D01*
X172972130Y-109718003D02*
X172948320Y-109741813D01*
X172662606Y-109218003D02*
X172686416Y-109265622D01*
X172686416Y-109265622D02*
X172710225Y-109289432D01*
X172710225Y-109289432D02*
X172757844Y-109313241D01*
X172757844Y-109313241D02*
X172900701Y-109313241D01*
X172900701Y-109313241D02*
X172948320Y-109289432D01*
X172948320Y-109289432D02*
X172972130Y-109265622D01*
X172972130Y-109265622D02*
X172995939Y-109218003D01*
X172995939Y-109218003D02*
X172995939Y-109146575D01*
X172995939Y-109146575D02*
X172972130Y-109098956D01*
X172972130Y-109098956D02*
X172948320Y-109075146D01*
X172948320Y-109075146D02*
X172900701Y-109051337D01*
X172900701Y-109051337D02*
X172757844Y-109051337D01*
X172757844Y-109051337D02*
X172710225Y-109075146D01*
X172710225Y-109075146D02*
X172686416Y-109098956D01*
X172686416Y-109098956D02*
X172662606Y-109146575D01*
X172662606Y-109146575D02*
X172662606Y-109218003D01*
X172995939Y-108622765D02*
X172662606Y-108622765D01*
X172995939Y-108837051D02*
X172734035Y-108837051D01*
X172734035Y-108837051D02*
X172686416Y-108813241D01*
X172686416Y-108813241D02*
X172662606Y-108765622D01*
X172662606Y-108765622D02*
X172662606Y-108694194D01*
X172662606Y-108694194D02*
X172686416Y-108646575D01*
X172686416Y-108646575D02*
X172710225Y-108622765D01*
X172662606Y-108313241D02*
X172686416Y-108360860D01*
X172686416Y-108360860D02*
X172734035Y-108384670D01*
X172734035Y-108384670D02*
X173162606Y-108384670D01*
X172662606Y-107908479D02*
X173162606Y-107908479D01*
X172686416Y-107908479D02*
X172662606Y-107956098D01*
X172662606Y-107956098D02*
X172662606Y-108051336D01*
X172662606Y-108051336D02*
X172686416Y-108098955D01*
X172686416Y-108098955D02*
X172710225Y-108122765D01*
X172710225Y-108122765D02*
X172757844Y-108146574D01*
X172757844Y-108146574D02*
X172900701Y-108146574D01*
X172900701Y-108146574D02*
X172948320Y-108122765D01*
X172948320Y-108122765D02*
X172972130Y-108098955D01*
X172972130Y-108098955D02*
X172995939Y-108051336D01*
X172995939Y-108051336D02*
X172995939Y-107956098D01*
X172995939Y-107956098D02*
X172972130Y-107908479D01*
X172686416Y-107479908D02*
X172662606Y-107527527D01*
X172662606Y-107527527D02*
X172662606Y-107622765D01*
X172662606Y-107622765D02*
X172686416Y-107670384D01*
X172686416Y-107670384D02*
X172734035Y-107694193D01*
X172734035Y-107694193D02*
X172924511Y-107694193D01*
X172924511Y-107694193D02*
X172972130Y-107670384D01*
X172972130Y-107670384D02*
X172995939Y-107622765D01*
X172995939Y-107622765D02*
X172995939Y-107527527D01*
X172995939Y-107527527D02*
X172972130Y-107479908D01*
X172972130Y-107479908D02*
X172924511Y-107456098D01*
X172924511Y-107456098D02*
X172876892Y-107456098D01*
X172876892Y-107456098D02*
X172829273Y-107694193D01*
X172662606Y-107241813D02*
X172995939Y-107241813D01*
X172900701Y-107241813D02*
X172948320Y-107218003D01*
X172948320Y-107218003D02*
X172972130Y-107194194D01*
X172972130Y-107194194D02*
X172995939Y-107146575D01*
X172995939Y-107146575D02*
X172995939Y-107098956D01*
X172686416Y-106956098D02*
X172662606Y-106908479D01*
X172662606Y-106908479D02*
X172662606Y-106813241D01*
X172662606Y-106813241D02*
X172686416Y-106765622D01*
X172686416Y-106765622D02*
X172734035Y-106741813D01*
X172734035Y-106741813D02*
X172757844Y-106741813D01*
X172757844Y-106741813D02*
X172805463Y-106765622D01*
X172805463Y-106765622D02*
X172829273Y-106813241D01*
X172829273Y-106813241D02*
X172829273Y-106884670D01*
X172829273Y-106884670D02*
X172853082Y-106932289D01*
X172853082Y-106932289D02*
X172900701Y-106956098D01*
X172900701Y-106956098D02*
X172924511Y-106956098D01*
X172924511Y-106956098D02*
X172972130Y-106932289D01*
X172972130Y-106932289D02*
X172995939Y-106884670D01*
X172995939Y-106884670D02*
X172995939Y-106813241D01*
X172995939Y-106813241D02*
X172972130Y-106765622D01*
X172662606Y-106075146D02*
X172686416Y-106122765D01*
X172686416Y-106122765D02*
X172710225Y-106146575D01*
X172710225Y-106146575D02*
X172757844Y-106170384D01*
X172757844Y-106170384D02*
X172900701Y-106170384D01*
X172900701Y-106170384D02*
X172948320Y-106146575D01*
X172948320Y-106146575D02*
X172972130Y-106122765D01*
X172972130Y-106122765D02*
X172995939Y-106075146D01*
X172995939Y-106075146D02*
X172995939Y-106003718D01*
X172995939Y-106003718D02*
X172972130Y-105956099D01*
X172972130Y-105956099D02*
X172948320Y-105932289D01*
X172948320Y-105932289D02*
X172900701Y-105908480D01*
X172900701Y-105908480D02*
X172757844Y-105908480D01*
X172757844Y-105908480D02*
X172710225Y-105932289D01*
X172710225Y-105932289D02*
X172686416Y-105956099D01*
X172686416Y-105956099D02*
X172662606Y-106003718D01*
X172662606Y-106003718D02*
X172662606Y-106075146D01*
X172995939Y-105765622D02*
X172995939Y-105575146D01*
X172662606Y-105694194D02*
X173091177Y-105694194D01*
X173091177Y-105694194D02*
X173138796Y-105670384D01*
X173138796Y-105670384D02*
X173162606Y-105622765D01*
X173162606Y-105622765D02*
X173162606Y-105575146D01*
X172662606Y-105027528D02*
X172995939Y-105027528D01*
X172948320Y-105027528D02*
X172972130Y-105003718D01*
X172972130Y-105003718D02*
X172995939Y-104956099D01*
X172995939Y-104956099D02*
X172995939Y-104884671D01*
X172995939Y-104884671D02*
X172972130Y-104837052D01*
X172972130Y-104837052D02*
X172924511Y-104813242D01*
X172924511Y-104813242D02*
X172662606Y-104813242D01*
X172924511Y-104813242D02*
X172972130Y-104789433D01*
X172972130Y-104789433D02*
X172995939Y-104741814D01*
X172995939Y-104741814D02*
X172995939Y-104670385D01*
X172995939Y-104670385D02*
X172972130Y-104622766D01*
X172972130Y-104622766D02*
X172924511Y-104598956D01*
X172924511Y-104598956D02*
X172662606Y-104598956D01*
X172662606Y-104360861D02*
X172995939Y-104360861D01*
X173162606Y-104360861D02*
X173138796Y-104384670D01*
X173138796Y-104384670D02*
X173114987Y-104360861D01*
X173114987Y-104360861D02*
X173138796Y-104337051D01*
X173138796Y-104337051D02*
X173162606Y-104360861D01*
X173162606Y-104360861D02*
X173114987Y-104360861D01*
X172662606Y-104051337D02*
X172686416Y-104098956D01*
X172686416Y-104098956D02*
X172734035Y-104122766D01*
X172734035Y-104122766D02*
X173162606Y-104122766D01*
X172662606Y-103789432D02*
X172686416Y-103837051D01*
X172686416Y-103837051D02*
X172734035Y-103860861D01*
X172734035Y-103860861D02*
X173162606Y-103860861D01*
X172662606Y-103598956D02*
X172995939Y-103598956D01*
X173162606Y-103598956D02*
X173138796Y-103622765D01*
X173138796Y-103622765D02*
X173114987Y-103598956D01*
X173114987Y-103598956D02*
X173138796Y-103575146D01*
X173138796Y-103575146D02*
X173162606Y-103598956D01*
X173162606Y-103598956D02*
X173114987Y-103598956D01*
X172662606Y-103289432D02*
X172686416Y-103337051D01*
X172686416Y-103337051D02*
X172710225Y-103360861D01*
X172710225Y-103360861D02*
X172757844Y-103384670D01*
X172757844Y-103384670D02*
X172900701Y-103384670D01*
X172900701Y-103384670D02*
X172948320Y-103360861D01*
X172948320Y-103360861D02*
X172972130Y-103337051D01*
X172972130Y-103337051D02*
X172995939Y-103289432D01*
X172995939Y-103289432D02*
X172995939Y-103218004D01*
X172995939Y-103218004D02*
X172972130Y-103170385D01*
X172972130Y-103170385D02*
X172948320Y-103146575D01*
X172948320Y-103146575D02*
X172900701Y-103122766D01*
X172900701Y-103122766D02*
X172757844Y-103122766D01*
X172757844Y-103122766D02*
X172710225Y-103146575D01*
X172710225Y-103146575D02*
X172686416Y-103170385D01*
X172686416Y-103170385D02*
X172662606Y-103218004D01*
X172662606Y-103218004D02*
X172662606Y-103289432D01*
X172995939Y-102908480D02*
X172662606Y-102908480D01*
X172948320Y-102908480D02*
X172972130Y-102884670D01*
X172972130Y-102884670D02*
X172995939Y-102837051D01*
X172995939Y-102837051D02*
X172995939Y-102765623D01*
X172995939Y-102765623D02*
X172972130Y-102718004D01*
X172972130Y-102718004D02*
X172924511Y-102694194D01*
X172924511Y-102694194D02*
X172662606Y-102694194D01*
X172686416Y-102479908D02*
X172662606Y-102432289D01*
X172662606Y-102432289D02*
X172662606Y-102337051D01*
X172662606Y-102337051D02*
X172686416Y-102289432D01*
X172686416Y-102289432D02*
X172734035Y-102265623D01*
X172734035Y-102265623D02*
X172757844Y-102265623D01*
X172757844Y-102265623D02*
X172805463Y-102289432D01*
X172805463Y-102289432D02*
X172829273Y-102337051D01*
X172829273Y-102337051D02*
X172829273Y-102408480D01*
X172829273Y-102408480D02*
X172853082Y-102456099D01*
X172853082Y-102456099D02*
X172900701Y-102479908D01*
X172900701Y-102479908D02*
X172924511Y-102479908D01*
X172924511Y-102479908D02*
X172972130Y-102456099D01*
X172972130Y-102456099D02*
X172995939Y-102408480D01*
X172995939Y-102408480D02*
X172995939Y-102337051D01*
X172995939Y-102337051D02*
X172972130Y-102289432D01*
X172662606Y-101598956D02*
X172686416Y-101646575D01*
X172686416Y-101646575D02*
X172710225Y-101670385D01*
X172710225Y-101670385D02*
X172757844Y-101694194D01*
X172757844Y-101694194D02*
X172900701Y-101694194D01*
X172900701Y-101694194D02*
X172948320Y-101670385D01*
X172948320Y-101670385D02*
X172972130Y-101646575D01*
X172972130Y-101646575D02*
X172995939Y-101598956D01*
X172995939Y-101598956D02*
X172995939Y-101527528D01*
X172995939Y-101527528D02*
X172972130Y-101479909D01*
X172972130Y-101479909D02*
X172948320Y-101456099D01*
X172948320Y-101456099D02*
X172900701Y-101432290D01*
X172900701Y-101432290D02*
X172757844Y-101432290D01*
X172757844Y-101432290D02*
X172710225Y-101456099D01*
X172710225Y-101456099D02*
X172686416Y-101479909D01*
X172686416Y-101479909D02*
X172662606Y-101527528D01*
X172662606Y-101527528D02*
X172662606Y-101598956D01*
X172995939Y-101289432D02*
X172995939Y-101098956D01*
X172662606Y-101218004D02*
X173091177Y-101218004D01*
X173091177Y-101218004D02*
X173138796Y-101194194D01*
X173138796Y-101194194D02*
X173162606Y-101146575D01*
X173162606Y-101146575D02*
X173162606Y-101098956D01*
X172662606Y-100551338D02*
X173162606Y-100551338D01*
X172972130Y-100551338D02*
X172995939Y-100503719D01*
X172995939Y-100503719D02*
X172995939Y-100408481D01*
X172995939Y-100408481D02*
X172972130Y-100360862D01*
X172972130Y-100360862D02*
X172948320Y-100337052D01*
X172948320Y-100337052D02*
X172900701Y-100313243D01*
X172900701Y-100313243D02*
X172757844Y-100313243D01*
X172757844Y-100313243D02*
X172710225Y-100337052D01*
X172710225Y-100337052D02*
X172686416Y-100360862D01*
X172686416Y-100360862D02*
X172662606Y-100408481D01*
X172662606Y-100408481D02*
X172662606Y-100503719D01*
X172662606Y-100503719D02*
X172686416Y-100551338D01*
X172662606Y-100098957D02*
X172995939Y-100098957D01*
X172900701Y-100098957D02*
X172948320Y-100075147D01*
X172948320Y-100075147D02*
X172972130Y-100051338D01*
X172972130Y-100051338D02*
X172995939Y-100003719D01*
X172995939Y-100003719D02*
X172995939Y-99956100D01*
X172662606Y-99718004D02*
X172686416Y-99765623D01*
X172686416Y-99765623D02*
X172710225Y-99789433D01*
X172710225Y-99789433D02*
X172757844Y-99813242D01*
X172757844Y-99813242D02*
X172900701Y-99813242D01*
X172900701Y-99813242D02*
X172948320Y-99789433D01*
X172948320Y-99789433D02*
X172972130Y-99765623D01*
X172972130Y-99765623D02*
X172995939Y-99718004D01*
X172995939Y-99718004D02*
X172995939Y-99646576D01*
X172995939Y-99646576D02*
X172972130Y-99598957D01*
X172972130Y-99598957D02*
X172948320Y-99575147D01*
X172948320Y-99575147D02*
X172900701Y-99551338D01*
X172900701Y-99551338D02*
X172757844Y-99551338D01*
X172757844Y-99551338D02*
X172710225Y-99575147D01*
X172710225Y-99575147D02*
X172686416Y-99598957D01*
X172686416Y-99598957D02*
X172662606Y-99646576D01*
X172662606Y-99646576D02*
X172662606Y-99718004D01*
X172995939Y-99408480D02*
X172995939Y-99218004D01*
X173162606Y-99337052D02*
X172734035Y-99337052D01*
X172734035Y-99337052D02*
X172686416Y-99313242D01*
X172686416Y-99313242D02*
X172662606Y-99265623D01*
X172662606Y-99265623D02*
X172662606Y-99218004D01*
X172662606Y-99051338D02*
X173162606Y-99051338D01*
X172662606Y-98837052D02*
X172924511Y-98837052D01*
X172924511Y-98837052D02*
X172972130Y-98860862D01*
X172972130Y-98860862D02*
X172995939Y-98908481D01*
X172995939Y-98908481D02*
X172995939Y-98979909D01*
X172995939Y-98979909D02*
X172972130Y-99027528D01*
X172972130Y-99027528D02*
X172948320Y-99051338D01*
X172686416Y-98408481D02*
X172662606Y-98456100D01*
X172662606Y-98456100D02*
X172662606Y-98551338D01*
X172662606Y-98551338D02*
X172686416Y-98598957D01*
X172686416Y-98598957D02*
X172734035Y-98622766D01*
X172734035Y-98622766D02*
X172924511Y-98622766D01*
X172924511Y-98622766D02*
X172972130Y-98598957D01*
X172972130Y-98598957D02*
X172995939Y-98551338D01*
X172995939Y-98551338D02*
X172995939Y-98456100D01*
X172995939Y-98456100D02*
X172972130Y-98408481D01*
X172972130Y-98408481D02*
X172924511Y-98384671D01*
X172924511Y-98384671D02*
X172876892Y-98384671D01*
X172876892Y-98384671D02*
X172829273Y-98622766D01*
X172662606Y-98170386D02*
X172995939Y-98170386D01*
X172900701Y-98170386D02*
X172948320Y-98146576D01*
X172948320Y-98146576D02*
X172972130Y-98122767D01*
X172972130Y-98122767D02*
X172995939Y-98075148D01*
X172995939Y-98075148D02*
X172995939Y-98027529D01*
X172686416Y-97884671D02*
X172662606Y-97837052D01*
X172662606Y-97837052D02*
X172662606Y-97741814D01*
X172662606Y-97741814D02*
X172686416Y-97694195D01*
X172686416Y-97694195D02*
X172734035Y-97670386D01*
X172734035Y-97670386D02*
X172757844Y-97670386D01*
X172757844Y-97670386D02*
X172805463Y-97694195D01*
X172805463Y-97694195D02*
X172829273Y-97741814D01*
X172829273Y-97741814D02*
X172829273Y-97813243D01*
X172829273Y-97813243D02*
X172853082Y-97860862D01*
X172853082Y-97860862D02*
X172900701Y-97884671D01*
X172900701Y-97884671D02*
X172924511Y-97884671D01*
X172924511Y-97884671D02*
X172972130Y-97860862D01*
X172972130Y-97860862D02*
X172995939Y-97813243D01*
X172995939Y-97813243D02*
X172995939Y-97741814D01*
X172995939Y-97741814D02*
X172972130Y-97694195D01*
X172662606Y-96860862D02*
X172924511Y-96860862D01*
X172924511Y-96860862D02*
X172972130Y-96884672D01*
X172972130Y-96884672D02*
X172995939Y-96932291D01*
X172995939Y-96932291D02*
X172995939Y-97027529D01*
X172995939Y-97027529D02*
X172972130Y-97075148D01*
X172686416Y-96860862D02*
X172662606Y-96908481D01*
X172662606Y-96908481D02*
X172662606Y-97027529D01*
X172662606Y-97027529D02*
X172686416Y-97075148D01*
X172686416Y-97075148D02*
X172734035Y-97098957D01*
X172734035Y-97098957D02*
X172781654Y-97098957D01*
X172781654Y-97098957D02*
X172829273Y-97075148D01*
X172829273Y-97075148D02*
X172853082Y-97027529D01*
X172853082Y-97027529D02*
X172853082Y-96908481D01*
X172853082Y-96908481D02*
X172876892Y-96860862D01*
X172995939Y-96622767D02*
X172662606Y-96622767D01*
X172948320Y-96622767D02*
X172972130Y-96598957D01*
X172972130Y-96598957D02*
X172995939Y-96551338D01*
X172995939Y-96551338D02*
X172995939Y-96479910D01*
X172995939Y-96479910D02*
X172972130Y-96432291D01*
X172972130Y-96432291D02*
X172924511Y-96408481D01*
X172924511Y-96408481D02*
X172662606Y-96408481D01*
X172662606Y-95956100D02*
X173162606Y-95956100D01*
X172686416Y-95956100D02*
X172662606Y-96003719D01*
X172662606Y-96003719D02*
X172662606Y-96098957D01*
X172662606Y-96098957D02*
X172686416Y-96146576D01*
X172686416Y-96146576D02*
X172710225Y-96170386D01*
X172710225Y-96170386D02*
X172757844Y-96194195D01*
X172757844Y-96194195D02*
X172900701Y-96194195D01*
X172900701Y-96194195D02*
X172948320Y-96170386D01*
X172948320Y-96170386D02*
X172972130Y-96146576D01*
X172972130Y-96146576D02*
X172995939Y-96098957D01*
X172995939Y-96098957D02*
X172995939Y-96003719D01*
X172995939Y-96003719D02*
X172972130Y-95956100D01*
X172686416Y-95360862D02*
X172662606Y-95313243D01*
X172662606Y-95313243D02*
X172662606Y-95218005D01*
X172662606Y-95218005D02*
X172686416Y-95170386D01*
X172686416Y-95170386D02*
X172734035Y-95146577D01*
X172734035Y-95146577D02*
X172757844Y-95146577D01*
X172757844Y-95146577D02*
X172805463Y-95170386D01*
X172805463Y-95170386D02*
X172829273Y-95218005D01*
X172829273Y-95218005D02*
X172829273Y-95289434D01*
X172829273Y-95289434D02*
X172853082Y-95337053D01*
X172853082Y-95337053D02*
X172900701Y-95360862D01*
X172900701Y-95360862D02*
X172924511Y-95360862D01*
X172924511Y-95360862D02*
X172972130Y-95337053D01*
X172972130Y-95337053D02*
X172995939Y-95289434D01*
X172995939Y-95289434D02*
X172995939Y-95218005D01*
X172995939Y-95218005D02*
X172972130Y-95170386D01*
X172662606Y-94932291D02*
X172995939Y-94932291D01*
X173162606Y-94932291D02*
X173138796Y-94956100D01*
X173138796Y-94956100D02*
X173114987Y-94932291D01*
X173114987Y-94932291D02*
X173138796Y-94908481D01*
X173138796Y-94908481D02*
X173162606Y-94932291D01*
X173162606Y-94932291D02*
X173114987Y-94932291D01*
X172686416Y-94718005D02*
X172662606Y-94670386D01*
X172662606Y-94670386D02*
X172662606Y-94575148D01*
X172662606Y-94575148D02*
X172686416Y-94527529D01*
X172686416Y-94527529D02*
X172734035Y-94503720D01*
X172734035Y-94503720D02*
X172757844Y-94503720D01*
X172757844Y-94503720D02*
X172805463Y-94527529D01*
X172805463Y-94527529D02*
X172829273Y-94575148D01*
X172829273Y-94575148D02*
X172829273Y-94646577D01*
X172829273Y-94646577D02*
X172853082Y-94694196D01*
X172853082Y-94694196D02*
X172900701Y-94718005D01*
X172900701Y-94718005D02*
X172924511Y-94718005D01*
X172924511Y-94718005D02*
X172972130Y-94694196D01*
X172972130Y-94694196D02*
X172995939Y-94646577D01*
X172995939Y-94646577D02*
X172995939Y-94575148D01*
X172995939Y-94575148D02*
X172972130Y-94527529D01*
X172995939Y-94360862D02*
X172995939Y-94170386D01*
X173162606Y-94289434D02*
X172734035Y-94289434D01*
X172734035Y-94289434D02*
X172686416Y-94265624D01*
X172686416Y-94265624D02*
X172662606Y-94218005D01*
X172662606Y-94218005D02*
X172662606Y-94170386D01*
X172686416Y-93813244D02*
X172662606Y-93860863D01*
X172662606Y-93860863D02*
X172662606Y-93956101D01*
X172662606Y-93956101D02*
X172686416Y-94003720D01*
X172686416Y-94003720D02*
X172734035Y-94027529D01*
X172734035Y-94027529D02*
X172924511Y-94027529D01*
X172924511Y-94027529D02*
X172972130Y-94003720D01*
X172972130Y-94003720D02*
X172995939Y-93956101D01*
X172995939Y-93956101D02*
X172995939Y-93860863D01*
X172995939Y-93860863D02*
X172972130Y-93813244D01*
X172972130Y-93813244D02*
X172924511Y-93789434D01*
X172924511Y-93789434D02*
X172876892Y-93789434D01*
X172876892Y-93789434D02*
X172829273Y-94027529D01*
X172662606Y-93575149D02*
X172995939Y-93575149D01*
X172900701Y-93575149D02*
X172948320Y-93551339D01*
X172948320Y-93551339D02*
X172972130Y-93527530D01*
X172972130Y-93527530D02*
X172995939Y-93479911D01*
X172995939Y-93479911D02*
X172995939Y-93432292D01*
X172686416Y-93289434D02*
X172662606Y-93241815D01*
X172662606Y-93241815D02*
X172662606Y-93146577D01*
X172662606Y-93146577D02*
X172686416Y-93098958D01*
X172686416Y-93098958D02*
X172734035Y-93075149D01*
X172734035Y-93075149D02*
X172757844Y-93075149D01*
X172757844Y-93075149D02*
X172805463Y-93098958D01*
X172805463Y-93098958D02*
X172829273Y-93146577D01*
X172829273Y-93146577D02*
X172829273Y-93218006D01*
X172829273Y-93218006D02*
X172853082Y-93265625D01*
X172853082Y-93265625D02*
X172900701Y-93289434D01*
X172900701Y-93289434D02*
X172924511Y-93289434D01*
X172924511Y-93289434D02*
X172972130Y-93265625D01*
X172972130Y-93265625D02*
X172995939Y-93218006D01*
X172995939Y-93218006D02*
X172995939Y-93146577D01*
X172995939Y-93146577D02*
X172972130Y-93098958D01*
X172686416Y-92289435D02*
X172662606Y-92337054D01*
X172662606Y-92337054D02*
X172662606Y-92432292D01*
X172662606Y-92432292D02*
X172686416Y-92479911D01*
X172686416Y-92479911D02*
X172734035Y-92503720D01*
X172734035Y-92503720D02*
X172924511Y-92503720D01*
X172924511Y-92503720D02*
X172972130Y-92479911D01*
X172972130Y-92479911D02*
X172995939Y-92432292D01*
X172995939Y-92432292D02*
X172995939Y-92337054D01*
X172995939Y-92337054D02*
X172972130Y-92289435D01*
X172972130Y-92289435D02*
X172924511Y-92265625D01*
X172924511Y-92265625D02*
X172876892Y-92265625D01*
X172876892Y-92265625D02*
X172829273Y-92503720D01*
X172995939Y-92051340D02*
X172662606Y-92051340D01*
X172948320Y-92051340D02*
X172972130Y-92027530D01*
X172972130Y-92027530D02*
X172995939Y-91979911D01*
X172995939Y-91979911D02*
X172995939Y-91908483D01*
X172995939Y-91908483D02*
X172972130Y-91860864D01*
X172972130Y-91860864D02*
X172924511Y-91837054D01*
X172924511Y-91837054D02*
X172662606Y-91837054D01*
X172995939Y-91384673D02*
X172591177Y-91384673D01*
X172591177Y-91384673D02*
X172543558Y-91408483D01*
X172543558Y-91408483D02*
X172519749Y-91432292D01*
X172519749Y-91432292D02*
X172495939Y-91479911D01*
X172495939Y-91479911D02*
X172495939Y-91551340D01*
X172495939Y-91551340D02*
X172519749Y-91598959D01*
X172686416Y-91384673D02*
X172662606Y-91432292D01*
X172662606Y-91432292D02*
X172662606Y-91527530D01*
X172662606Y-91527530D02*
X172686416Y-91575149D01*
X172686416Y-91575149D02*
X172710225Y-91598959D01*
X172710225Y-91598959D02*
X172757844Y-91622768D01*
X172757844Y-91622768D02*
X172900701Y-91622768D01*
X172900701Y-91622768D02*
X172948320Y-91598959D01*
X172948320Y-91598959D02*
X172972130Y-91575149D01*
X172972130Y-91575149D02*
X172995939Y-91527530D01*
X172995939Y-91527530D02*
X172995939Y-91432292D01*
X172995939Y-91432292D02*
X172972130Y-91384673D01*
X172662606Y-91146578D02*
X172995939Y-91146578D01*
X173162606Y-91146578D02*
X173138796Y-91170387D01*
X173138796Y-91170387D02*
X173114987Y-91146578D01*
X173114987Y-91146578D02*
X173138796Y-91122768D01*
X173138796Y-91122768D02*
X173162606Y-91146578D01*
X173162606Y-91146578D02*
X173114987Y-91146578D01*
X172995939Y-90908483D02*
X172662606Y-90908483D01*
X172948320Y-90908483D02*
X172972130Y-90884673D01*
X172972130Y-90884673D02*
X172995939Y-90837054D01*
X172995939Y-90837054D02*
X172995939Y-90765626D01*
X172995939Y-90765626D02*
X172972130Y-90718007D01*
X172972130Y-90718007D02*
X172924511Y-90694197D01*
X172924511Y-90694197D02*
X172662606Y-90694197D01*
X172686416Y-90265626D02*
X172662606Y-90313245D01*
X172662606Y-90313245D02*
X172662606Y-90408483D01*
X172662606Y-90408483D02*
X172686416Y-90456102D01*
X172686416Y-90456102D02*
X172734035Y-90479911D01*
X172734035Y-90479911D02*
X172924511Y-90479911D01*
X172924511Y-90479911D02*
X172972130Y-90456102D01*
X172972130Y-90456102D02*
X172995939Y-90408483D01*
X172995939Y-90408483D02*
X172995939Y-90313245D01*
X172995939Y-90313245D02*
X172972130Y-90265626D01*
X172972130Y-90265626D02*
X172924511Y-90241816D01*
X172924511Y-90241816D02*
X172876892Y-90241816D01*
X172876892Y-90241816D02*
X172829273Y-90479911D01*
X172686416Y-89837055D02*
X172662606Y-89884674D01*
X172662606Y-89884674D02*
X172662606Y-89979912D01*
X172662606Y-89979912D02*
X172686416Y-90027531D01*
X172686416Y-90027531D02*
X172734035Y-90051340D01*
X172734035Y-90051340D02*
X172924511Y-90051340D01*
X172924511Y-90051340D02*
X172972130Y-90027531D01*
X172972130Y-90027531D02*
X172995939Y-89979912D01*
X172995939Y-89979912D02*
X172995939Y-89884674D01*
X172995939Y-89884674D02*
X172972130Y-89837055D01*
X172972130Y-89837055D02*
X172924511Y-89813245D01*
X172924511Y-89813245D02*
X172876892Y-89813245D01*
X172876892Y-89813245D02*
X172829273Y-90051340D01*
X172662606Y-89598960D02*
X172995939Y-89598960D01*
X172900701Y-89598960D02*
X172948320Y-89575150D01*
X172948320Y-89575150D02*
X172972130Y-89551341D01*
X172972130Y-89551341D02*
X172995939Y-89503722D01*
X172995939Y-89503722D02*
X172995939Y-89456103D01*
X172686416Y-89313245D02*
X172662606Y-89265626D01*
X172662606Y-89265626D02*
X172662606Y-89170388D01*
X172662606Y-89170388D02*
X172686416Y-89122769D01*
X172686416Y-89122769D02*
X172734035Y-89098960D01*
X172734035Y-89098960D02*
X172757844Y-89098960D01*
X172757844Y-89098960D02*
X172805463Y-89122769D01*
X172805463Y-89122769D02*
X172829273Y-89170388D01*
X172829273Y-89170388D02*
X172829273Y-89241817D01*
X172829273Y-89241817D02*
X172853082Y-89289436D01*
X172853082Y-89289436D02*
X172900701Y-89313245D01*
X172900701Y-89313245D02*
X172924511Y-89313245D01*
X172924511Y-89313245D02*
X172972130Y-89289436D01*
X172972130Y-89289436D02*
X172995939Y-89241817D01*
X172995939Y-89241817D02*
X172995939Y-89170388D01*
X172995939Y-89170388D02*
X172972130Y-89122769D01*
X172710225Y-88884674D02*
X172686416Y-88860864D01*
X172686416Y-88860864D02*
X172662606Y-88884674D01*
X172662606Y-88884674D02*
X172686416Y-88908483D01*
X172686416Y-88908483D02*
X172710225Y-88884674D01*
X172710225Y-88884674D02*
X172662606Y-88884674D01*
X171552662Y-116051335D02*
X171052662Y-115932287D01*
X171052662Y-115932287D02*
X171409805Y-115837049D01*
X171409805Y-115837049D02*
X171052662Y-115741811D01*
X171052662Y-115741811D02*
X171552662Y-115622764D01*
X171052662Y-115432287D02*
X171385995Y-115432287D01*
X171552662Y-115432287D02*
X171528852Y-115456096D01*
X171528852Y-115456096D02*
X171505043Y-115432287D01*
X171505043Y-115432287D02*
X171528852Y-115408477D01*
X171528852Y-115408477D02*
X171552662Y-115432287D01*
X171552662Y-115432287D02*
X171505043Y-115432287D01*
X171385995Y-115265620D02*
X171385995Y-115075144D01*
X171552662Y-115194192D02*
X171124091Y-115194192D01*
X171124091Y-115194192D02*
X171076472Y-115170382D01*
X171076472Y-115170382D02*
X171052662Y-115122763D01*
X171052662Y-115122763D02*
X171052662Y-115075144D01*
X171052662Y-114908478D02*
X171552662Y-114908478D01*
X171052662Y-114694192D02*
X171314567Y-114694192D01*
X171314567Y-114694192D02*
X171362186Y-114718002D01*
X171362186Y-114718002D02*
X171385995Y-114765621D01*
X171385995Y-114765621D02*
X171385995Y-114837049D01*
X171385995Y-114837049D02*
X171362186Y-114884668D01*
X171362186Y-114884668D02*
X171338376Y-114908478D01*
X171076472Y-114098954D02*
X171052662Y-114051335D01*
X171052662Y-114051335D02*
X171052662Y-113956097D01*
X171052662Y-113956097D02*
X171076472Y-113908478D01*
X171076472Y-113908478D02*
X171124091Y-113884669D01*
X171124091Y-113884669D02*
X171147900Y-113884669D01*
X171147900Y-113884669D02*
X171195519Y-113908478D01*
X171195519Y-113908478D02*
X171219329Y-113956097D01*
X171219329Y-113956097D02*
X171219329Y-114027526D01*
X171219329Y-114027526D02*
X171243138Y-114075145D01*
X171243138Y-114075145D02*
X171290757Y-114098954D01*
X171290757Y-114098954D02*
X171314567Y-114098954D01*
X171314567Y-114098954D02*
X171362186Y-114075145D01*
X171362186Y-114075145D02*
X171385995Y-114027526D01*
X171385995Y-114027526D02*
X171385995Y-113956097D01*
X171385995Y-113956097D02*
X171362186Y-113908478D01*
X171385995Y-113670383D02*
X170885995Y-113670383D01*
X171362186Y-113670383D02*
X171385995Y-113622764D01*
X171385995Y-113622764D02*
X171385995Y-113527526D01*
X171385995Y-113527526D02*
X171362186Y-113479907D01*
X171362186Y-113479907D02*
X171338376Y-113456097D01*
X171338376Y-113456097D02*
X171290757Y-113432288D01*
X171290757Y-113432288D02*
X171147900Y-113432288D01*
X171147900Y-113432288D02*
X171100281Y-113456097D01*
X171100281Y-113456097D02*
X171076472Y-113479907D01*
X171076472Y-113479907D02*
X171052662Y-113527526D01*
X171052662Y-113527526D02*
X171052662Y-113622764D01*
X171052662Y-113622764D02*
X171076472Y-113670383D01*
X171076472Y-113027526D02*
X171052662Y-113075145D01*
X171052662Y-113075145D02*
X171052662Y-113170383D01*
X171052662Y-113170383D02*
X171076472Y-113218002D01*
X171076472Y-113218002D02*
X171124091Y-113241811D01*
X171124091Y-113241811D02*
X171314567Y-113241811D01*
X171314567Y-113241811D02*
X171362186Y-113218002D01*
X171362186Y-113218002D02*
X171385995Y-113170383D01*
X171385995Y-113170383D02*
X171385995Y-113075145D01*
X171385995Y-113075145D02*
X171362186Y-113027526D01*
X171362186Y-113027526D02*
X171314567Y-113003716D01*
X171314567Y-113003716D02*
X171266948Y-113003716D01*
X171266948Y-113003716D02*
X171219329Y-113241811D01*
X171076472Y-112575145D02*
X171052662Y-112622764D01*
X171052662Y-112622764D02*
X171052662Y-112718002D01*
X171052662Y-112718002D02*
X171076472Y-112765621D01*
X171076472Y-112765621D02*
X171100281Y-112789431D01*
X171100281Y-112789431D02*
X171147900Y-112813240D01*
X171147900Y-112813240D02*
X171290757Y-112813240D01*
X171290757Y-112813240D02*
X171338376Y-112789431D01*
X171338376Y-112789431D02*
X171362186Y-112765621D01*
X171362186Y-112765621D02*
X171385995Y-112718002D01*
X171385995Y-112718002D02*
X171385995Y-112622764D01*
X171385995Y-112622764D02*
X171362186Y-112575145D01*
X171052662Y-112360860D02*
X171385995Y-112360860D01*
X171552662Y-112360860D02*
X171528852Y-112384669D01*
X171528852Y-112384669D02*
X171505043Y-112360860D01*
X171505043Y-112360860D02*
X171528852Y-112337050D01*
X171528852Y-112337050D02*
X171552662Y-112360860D01*
X171552662Y-112360860D02*
X171505043Y-112360860D01*
X171052662Y-111908479D02*
X171314567Y-111908479D01*
X171314567Y-111908479D02*
X171362186Y-111932289D01*
X171362186Y-111932289D02*
X171385995Y-111979908D01*
X171385995Y-111979908D02*
X171385995Y-112075146D01*
X171385995Y-112075146D02*
X171362186Y-112122765D01*
X171076472Y-111908479D02*
X171052662Y-111956098D01*
X171052662Y-111956098D02*
X171052662Y-112075146D01*
X171052662Y-112075146D02*
X171076472Y-112122765D01*
X171076472Y-112122765D02*
X171124091Y-112146574D01*
X171124091Y-112146574D02*
X171171710Y-112146574D01*
X171171710Y-112146574D02*
X171219329Y-112122765D01*
X171219329Y-112122765D02*
X171243138Y-112075146D01*
X171243138Y-112075146D02*
X171243138Y-111956098D01*
X171243138Y-111956098D02*
X171266948Y-111908479D01*
X171052662Y-111598955D02*
X171076472Y-111646574D01*
X171076472Y-111646574D02*
X171124091Y-111670384D01*
X171124091Y-111670384D02*
X171552662Y-111670384D01*
X171385995Y-111098955D02*
X171385995Y-110908479D01*
X171552662Y-111027527D02*
X171124091Y-111027527D01*
X171124091Y-111027527D02*
X171076472Y-111003717D01*
X171076472Y-111003717D02*
X171052662Y-110956098D01*
X171052662Y-110956098D02*
X171052662Y-110908479D01*
X171052662Y-110741813D02*
X171552662Y-110741813D01*
X171052662Y-110527527D02*
X171314567Y-110527527D01*
X171314567Y-110527527D02*
X171362186Y-110551337D01*
X171362186Y-110551337D02*
X171385995Y-110598956D01*
X171385995Y-110598956D02*
X171385995Y-110670384D01*
X171385995Y-110670384D02*
X171362186Y-110718003D01*
X171362186Y-110718003D02*
X171338376Y-110741813D01*
X171052662Y-110075146D02*
X171314567Y-110075146D01*
X171314567Y-110075146D02*
X171362186Y-110098956D01*
X171362186Y-110098956D02*
X171385995Y-110146575D01*
X171385995Y-110146575D02*
X171385995Y-110241813D01*
X171385995Y-110241813D02*
X171362186Y-110289432D01*
X171076472Y-110075146D02*
X171052662Y-110122765D01*
X171052662Y-110122765D02*
X171052662Y-110241813D01*
X171052662Y-110241813D02*
X171076472Y-110289432D01*
X171076472Y-110289432D02*
X171124091Y-110313241D01*
X171124091Y-110313241D02*
X171171710Y-110313241D01*
X171171710Y-110313241D02*
X171219329Y-110289432D01*
X171219329Y-110289432D02*
X171243138Y-110241813D01*
X171243138Y-110241813D02*
X171243138Y-110122765D01*
X171243138Y-110122765D02*
X171266948Y-110075146D01*
X171385995Y-109837051D02*
X171052662Y-109837051D01*
X171338376Y-109837051D02*
X171362186Y-109813241D01*
X171362186Y-109813241D02*
X171385995Y-109765622D01*
X171385995Y-109765622D02*
X171385995Y-109694194D01*
X171385995Y-109694194D02*
X171362186Y-109646575D01*
X171362186Y-109646575D02*
X171314567Y-109622765D01*
X171314567Y-109622765D02*
X171052662Y-109622765D01*
X171052662Y-109384670D02*
X171552662Y-109384670D01*
X171243138Y-109337051D02*
X171052662Y-109194194D01*
X171385995Y-109194194D02*
X171195519Y-109384670D01*
X171076472Y-109003717D02*
X171052662Y-108956098D01*
X171052662Y-108956098D02*
X171052662Y-108860860D01*
X171052662Y-108860860D02*
X171076472Y-108813241D01*
X171076472Y-108813241D02*
X171124091Y-108789432D01*
X171124091Y-108789432D02*
X171147900Y-108789432D01*
X171147900Y-108789432D02*
X171195519Y-108813241D01*
X171195519Y-108813241D02*
X171219329Y-108860860D01*
X171219329Y-108860860D02*
X171219329Y-108932289D01*
X171219329Y-108932289D02*
X171243138Y-108979908D01*
X171243138Y-108979908D02*
X171290757Y-109003717D01*
X171290757Y-109003717D02*
X171314567Y-109003717D01*
X171314567Y-109003717D02*
X171362186Y-108979908D01*
X171362186Y-108979908D02*
X171385995Y-108932289D01*
X171385995Y-108932289D02*
X171385995Y-108860860D01*
X171385995Y-108860860D02*
X171362186Y-108813241D01*
X171385995Y-108265622D02*
X171385995Y-108075146D01*
X171552662Y-108194194D02*
X171124091Y-108194194D01*
X171124091Y-108194194D02*
X171076472Y-108170384D01*
X171076472Y-108170384D02*
X171052662Y-108122765D01*
X171052662Y-108122765D02*
X171052662Y-108075146D01*
X171052662Y-107837051D02*
X171076472Y-107884670D01*
X171076472Y-107884670D02*
X171100281Y-107908480D01*
X171100281Y-107908480D02*
X171147900Y-107932289D01*
X171147900Y-107932289D02*
X171290757Y-107932289D01*
X171290757Y-107932289D02*
X171338376Y-107908480D01*
X171338376Y-107908480D02*
X171362186Y-107884670D01*
X171362186Y-107884670D02*
X171385995Y-107837051D01*
X171385995Y-107837051D02*
X171385995Y-107765623D01*
X171385995Y-107765623D02*
X171362186Y-107718004D01*
X171362186Y-107718004D02*
X171338376Y-107694194D01*
X171338376Y-107694194D02*
X171290757Y-107670385D01*
X171290757Y-107670385D02*
X171147900Y-107670385D01*
X171147900Y-107670385D02*
X171100281Y-107694194D01*
X171100281Y-107694194D02*
X171076472Y-107718004D01*
X171076472Y-107718004D02*
X171052662Y-107765623D01*
X171052662Y-107765623D02*
X171052662Y-107837051D01*
X171385995Y-107146575D02*
X171385995Y-106956099D01*
X171552662Y-107075147D02*
X171124091Y-107075147D01*
X171124091Y-107075147D02*
X171076472Y-107051337D01*
X171076472Y-107051337D02*
X171052662Y-107003718D01*
X171052662Y-107003718D02*
X171052662Y-106956099D01*
X171052662Y-106789433D02*
X171552662Y-106789433D01*
X171052662Y-106575147D02*
X171314567Y-106575147D01*
X171314567Y-106575147D02*
X171362186Y-106598957D01*
X171362186Y-106598957D02*
X171385995Y-106646576D01*
X171385995Y-106646576D02*
X171385995Y-106718004D01*
X171385995Y-106718004D02*
X171362186Y-106765623D01*
X171362186Y-106765623D02*
X171338376Y-106789433D01*
X171076472Y-106146576D02*
X171052662Y-106194195D01*
X171052662Y-106194195D02*
X171052662Y-106289433D01*
X171052662Y-106289433D02*
X171076472Y-106337052D01*
X171076472Y-106337052D02*
X171124091Y-106360861D01*
X171124091Y-106360861D02*
X171314567Y-106360861D01*
X171314567Y-106360861D02*
X171362186Y-106337052D01*
X171362186Y-106337052D02*
X171385995Y-106289433D01*
X171385995Y-106289433D02*
X171385995Y-106194195D01*
X171385995Y-106194195D02*
X171362186Y-106146576D01*
X171362186Y-106146576D02*
X171314567Y-106122766D01*
X171314567Y-106122766D02*
X171266948Y-106122766D01*
X171266948Y-106122766D02*
X171219329Y-106360861D01*
X171052662Y-105527529D02*
X171552662Y-105527529D01*
X171552662Y-105527529D02*
X171552662Y-105408481D01*
X171552662Y-105408481D02*
X171528852Y-105337053D01*
X171528852Y-105337053D02*
X171481233Y-105289434D01*
X171481233Y-105289434D02*
X171433614Y-105265624D01*
X171433614Y-105265624D02*
X171338376Y-105241815D01*
X171338376Y-105241815D02*
X171266948Y-105241815D01*
X171266948Y-105241815D02*
X171171710Y-105265624D01*
X171171710Y-105265624D02*
X171124091Y-105289434D01*
X171124091Y-105289434D02*
X171076472Y-105337053D01*
X171076472Y-105337053D02*
X171052662Y-105408481D01*
X171052662Y-105408481D02*
X171052662Y-105527529D01*
X171100281Y-104741815D02*
X171076472Y-104765624D01*
X171076472Y-104765624D02*
X171052662Y-104837053D01*
X171052662Y-104837053D02*
X171052662Y-104884672D01*
X171052662Y-104884672D02*
X171076472Y-104956100D01*
X171076472Y-104956100D02*
X171124091Y-105003719D01*
X171124091Y-105003719D02*
X171171710Y-105027529D01*
X171171710Y-105027529D02*
X171266948Y-105051338D01*
X171266948Y-105051338D02*
X171338376Y-105051338D01*
X171338376Y-105051338D02*
X171433614Y-105027529D01*
X171433614Y-105027529D02*
X171481233Y-105003719D01*
X171481233Y-105003719D02*
X171528852Y-104956100D01*
X171528852Y-104956100D02*
X171552662Y-104884672D01*
X171552662Y-104884672D02*
X171552662Y-104837053D01*
X171552662Y-104837053D02*
X171528852Y-104765624D01*
X171528852Y-104765624D02*
X171505043Y-104741815D01*
X171100281Y-104241815D02*
X171076472Y-104265624D01*
X171076472Y-104265624D02*
X171052662Y-104337053D01*
X171052662Y-104337053D02*
X171052662Y-104384672D01*
X171052662Y-104384672D02*
X171076472Y-104456100D01*
X171076472Y-104456100D02*
X171124091Y-104503719D01*
X171124091Y-104503719D02*
X171171710Y-104527529D01*
X171171710Y-104527529D02*
X171266948Y-104551338D01*
X171266948Y-104551338D02*
X171338376Y-104551338D01*
X171338376Y-104551338D02*
X171433614Y-104527529D01*
X171433614Y-104527529D02*
X171481233Y-104503719D01*
X171481233Y-104503719D02*
X171528852Y-104456100D01*
X171528852Y-104456100D02*
X171552662Y-104384672D01*
X171552662Y-104384672D02*
X171552662Y-104337053D01*
X171552662Y-104337053D02*
X171528852Y-104265624D01*
X171528852Y-104265624D02*
X171505043Y-104241815D01*
X171243138Y-104027529D02*
X171243138Y-103646577D01*
X171314567Y-103408481D02*
X171314567Y-103241814D01*
X171052662Y-103170386D02*
X171052662Y-103408481D01*
X171052662Y-103408481D02*
X171552662Y-103408481D01*
X171552662Y-103408481D02*
X171552662Y-103170386D01*
X171552662Y-103003719D02*
X171052662Y-102670386D01*
X171552662Y-102670386D02*
X171052662Y-103003719D01*
X171052662Y-101884672D02*
X171552662Y-101884672D01*
X171076472Y-101884672D02*
X171052662Y-101932291D01*
X171052662Y-101932291D02*
X171052662Y-102027529D01*
X171052662Y-102027529D02*
X171076472Y-102075148D01*
X171076472Y-102075148D02*
X171100281Y-102098958D01*
X171100281Y-102098958D02*
X171147900Y-102122767D01*
X171147900Y-102122767D02*
X171290757Y-102122767D01*
X171290757Y-102122767D02*
X171338376Y-102098958D01*
X171338376Y-102098958D02*
X171362186Y-102075148D01*
X171362186Y-102075148D02*
X171385995Y-102027529D01*
X171385995Y-102027529D02*
X171385995Y-101932291D01*
X171385995Y-101932291D02*
X171362186Y-101884672D01*
X171076472Y-101456101D02*
X171052662Y-101503720D01*
X171052662Y-101503720D02*
X171052662Y-101598958D01*
X171052662Y-101598958D02*
X171076472Y-101646577D01*
X171076472Y-101646577D02*
X171124091Y-101670386D01*
X171124091Y-101670386D02*
X171314567Y-101670386D01*
X171314567Y-101670386D02*
X171362186Y-101646577D01*
X171362186Y-101646577D02*
X171385995Y-101598958D01*
X171385995Y-101598958D02*
X171385995Y-101503720D01*
X171385995Y-101503720D02*
X171362186Y-101456101D01*
X171362186Y-101456101D02*
X171314567Y-101432291D01*
X171314567Y-101432291D02*
X171266948Y-101432291D01*
X171266948Y-101432291D02*
X171219329Y-101670386D01*
X171385995Y-101265625D02*
X171052662Y-101146577D01*
X171052662Y-101146577D02*
X171385995Y-101027530D01*
X171076472Y-100646578D02*
X171052662Y-100694197D01*
X171052662Y-100694197D02*
X171052662Y-100789435D01*
X171052662Y-100789435D02*
X171076472Y-100837054D01*
X171076472Y-100837054D02*
X171124091Y-100860863D01*
X171124091Y-100860863D02*
X171314567Y-100860863D01*
X171314567Y-100860863D02*
X171362186Y-100837054D01*
X171362186Y-100837054D02*
X171385995Y-100789435D01*
X171385995Y-100789435D02*
X171385995Y-100694197D01*
X171385995Y-100694197D02*
X171362186Y-100646578D01*
X171362186Y-100646578D02*
X171314567Y-100622768D01*
X171314567Y-100622768D02*
X171266948Y-100622768D01*
X171266948Y-100622768D02*
X171219329Y-100860863D01*
X171052662Y-100337054D02*
X171076472Y-100384673D01*
X171076472Y-100384673D02*
X171124091Y-100408483D01*
X171124091Y-100408483D02*
X171552662Y-100408483D01*
X171052662Y-100075149D02*
X171076472Y-100122768D01*
X171076472Y-100122768D02*
X171100281Y-100146578D01*
X171100281Y-100146578D02*
X171147900Y-100170387D01*
X171147900Y-100170387D02*
X171290757Y-100170387D01*
X171290757Y-100170387D02*
X171338376Y-100146578D01*
X171338376Y-100146578D02*
X171362186Y-100122768D01*
X171362186Y-100122768D02*
X171385995Y-100075149D01*
X171385995Y-100075149D02*
X171385995Y-100003721D01*
X171385995Y-100003721D02*
X171362186Y-99956102D01*
X171362186Y-99956102D02*
X171338376Y-99932292D01*
X171338376Y-99932292D02*
X171290757Y-99908483D01*
X171290757Y-99908483D02*
X171147900Y-99908483D01*
X171147900Y-99908483D02*
X171100281Y-99932292D01*
X171100281Y-99932292D02*
X171076472Y-99956102D01*
X171076472Y-99956102D02*
X171052662Y-100003721D01*
X171052662Y-100003721D02*
X171052662Y-100075149D01*
X171385995Y-99694197D02*
X170885995Y-99694197D01*
X171362186Y-99694197D02*
X171385995Y-99646578D01*
X171385995Y-99646578D02*
X171385995Y-99551340D01*
X171385995Y-99551340D02*
X171362186Y-99503721D01*
X171362186Y-99503721D02*
X171338376Y-99479911D01*
X171338376Y-99479911D02*
X171290757Y-99456102D01*
X171290757Y-99456102D02*
X171147900Y-99456102D01*
X171147900Y-99456102D02*
X171100281Y-99479911D01*
X171100281Y-99479911D02*
X171076472Y-99503721D01*
X171076472Y-99503721D02*
X171052662Y-99551340D01*
X171052662Y-99551340D02*
X171052662Y-99646578D01*
X171052662Y-99646578D02*
X171076472Y-99694197D01*
X171076472Y-99051340D02*
X171052662Y-99098959D01*
X171052662Y-99098959D02*
X171052662Y-99194197D01*
X171052662Y-99194197D02*
X171076472Y-99241816D01*
X171076472Y-99241816D02*
X171124091Y-99265625D01*
X171124091Y-99265625D02*
X171314567Y-99265625D01*
X171314567Y-99265625D02*
X171362186Y-99241816D01*
X171362186Y-99241816D02*
X171385995Y-99194197D01*
X171385995Y-99194197D02*
X171385995Y-99098959D01*
X171385995Y-99098959D02*
X171362186Y-99051340D01*
X171362186Y-99051340D02*
X171314567Y-99027530D01*
X171314567Y-99027530D02*
X171266948Y-99027530D01*
X171266948Y-99027530D02*
X171219329Y-99265625D01*
X171052662Y-98813245D02*
X171385995Y-98813245D01*
X171290757Y-98813245D02*
X171338376Y-98789435D01*
X171338376Y-98789435D02*
X171362186Y-98765626D01*
X171362186Y-98765626D02*
X171385995Y-98718007D01*
X171385995Y-98718007D02*
X171385995Y-98670388D01*
X171076472Y-97908483D02*
X171052662Y-97956102D01*
X171052662Y-97956102D02*
X171052662Y-98051340D01*
X171052662Y-98051340D02*
X171076472Y-98098959D01*
X171076472Y-98098959D02*
X171100281Y-98122769D01*
X171100281Y-98122769D02*
X171147900Y-98146578D01*
X171147900Y-98146578D02*
X171290757Y-98146578D01*
X171290757Y-98146578D02*
X171338376Y-98122769D01*
X171338376Y-98122769D02*
X171362186Y-98098959D01*
X171362186Y-98098959D02*
X171385995Y-98051340D01*
X171385995Y-98051340D02*
X171385995Y-97956102D01*
X171385995Y-97956102D02*
X171362186Y-97908483D01*
X171052662Y-97622769D02*
X171076472Y-97670388D01*
X171076472Y-97670388D02*
X171100281Y-97694198D01*
X171100281Y-97694198D02*
X171147900Y-97718007D01*
X171147900Y-97718007D02*
X171290757Y-97718007D01*
X171290757Y-97718007D02*
X171338376Y-97694198D01*
X171338376Y-97694198D02*
X171362186Y-97670388D01*
X171362186Y-97670388D02*
X171385995Y-97622769D01*
X171385995Y-97622769D02*
X171385995Y-97551341D01*
X171385995Y-97551341D02*
X171362186Y-97503722D01*
X171362186Y-97503722D02*
X171338376Y-97479912D01*
X171338376Y-97479912D02*
X171290757Y-97456103D01*
X171290757Y-97456103D02*
X171147900Y-97456103D01*
X171147900Y-97456103D02*
X171100281Y-97479912D01*
X171100281Y-97479912D02*
X171076472Y-97503722D01*
X171076472Y-97503722D02*
X171052662Y-97551341D01*
X171052662Y-97551341D02*
X171052662Y-97622769D01*
X171052662Y-97241817D02*
X171385995Y-97241817D01*
X171338376Y-97241817D02*
X171362186Y-97218007D01*
X171362186Y-97218007D02*
X171385995Y-97170388D01*
X171385995Y-97170388D02*
X171385995Y-97098960D01*
X171385995Y-97098960D02*
X171362186Y-97051341D01*
X171362186Y-97051341D02*
X171314567Y-97027531D01*
X171314567Y-97027531D02*
X171052662Y-97027531D01*
X171314567Y-97027531D02*
X171362186Y-97003722D01*
X171362186Y-97003722D02*
X171385995Y-96956103D01*
X171385995Y-96956103D02*
X171385995Y-96884674D01*
X171385995Y-96884674D02*
X171362186Y-96837055D01*
X171362186Y-96837055D02*
X171314567Y-96813245D01*
X171314567Y-96813245D02*
X171052662Y-96813245D01*
X171052662Y-96575150D02*
X171385995Y-96575150D01*
X171338376Y-96575150D02*
X171362186Y-96551340D01*
X171362186Y-96551340D02*
X171385995Y-96503721D01*
X171385995Y-96503721D02*
X171385995Y-96432293D01*
X171385995Y-96432293D02*
X171362186Y-96384674D01*
X171362186Y-96384674D02*
X171314567Y-96360864D01*
X171314567Y-96360864D02*
X171052662Y-96360864D01*
X171314567Y-96360864D02*
X171362186Y-96337055D01*
X171362186Y-96337055D02*
X171385995Y-96289436D01*
X171385995Y-96289436D02*
X171385995Y-96218007D01*
X171385995Y-96218007D02*
X171362186Y-96170388D01*
X171362186Y-96170388D02*
X171314567Y-96146578D01*
X171314567Y-96146578D02*
X171052662Y-96146578D01*
X171385995Y-95694197D02*
X171052662Y-95694197D01*
X171385995Y-95908483D02*
X171124091Y-95908483D01*
X171124091Y-95908483D02*
X171076472Y-95884673D01*
X171076472Y-95884673D02*
X171052662Y-95837054D01*
X171052662Y-95837054D02*
X171052662Y-95765626D01*
X171052662Y-95765626D02*
X171076472Y-95718007D01*
X171076472Y-95718007D02*
X171100281Y-95694197D01*
X171385995Y-95456102D02*
X171052662Y-95456102D01*
X171338376Y-95456102D02*
X171362186Y-95432292D01*
X171362186Y-95432292D02*
X171385995Y-95384673D01*
X171385995Y-95384673D02*
X171385995Y-95313245D01*
X171385995Y-95313245D02*
X171362186Y-95265626D01*
X171362186Y-95265626D02*
X171314567Y-95241816D01*
X171314567Y-95241816D02*
X171052662Y-95241816D01*
X171052662Y-95003721D02*
X171385995Y-95003721D01*
X171552662Y-95003721D02*
X171528852Y-95027530D01*
X171528852Y-95027530D02*
X171505043Y-95003721D01*
X171505043Y-95003721D02*
X171528852Y-94979911D01*
X171528852Y-94979911D02*
X171552662Y-95003721D01*
X171552662Y-95003721D02*
X171505043Y-95003721D01*
X171385995Y-94837054D02*
X171385995Y-94646578D01*
X171552662Y-94765626D02*
X171124091Y-94765626D01*
X171124091Y-94765626D02*
X171076472Y-94741816D01*
X171076472Y-94741816D02*
X171052662Y-94694197D01*
X171052662Y-94694197D02*
X171052662Y-94646578D01*
X171385995Y-94527531D02*
X171052662Y-94408483D01*
X171385995Y-94289436D02*
X171052662Y-94408483D01*
X171052662Y-94408483D02*
X170933614Y-94456102D01*
X170933614Y-94456102D02*
X170909805Y-94479912D01*
X170909805Y-94479912D02*
X170885995Y-94527531D01*
X171076472Y-94075150D02*
X171052662Y-94075150D01*
X171052662Y-94075150D02*
X171005043Y-94098960D01*
X171005043Y-94098960D02*
X170981233Y-94122769D01*
X170581023Y-116075144D02*
X170581023Y-115884668D01*
X170247690Y-116003716D02*
X170676261Y-116003716D01*
X170676261Y-116003716D02*
X170723880Y-115979906D01*
X170723880Y-115979906D02*
X170747690Y-115932287D01*
X170747690Y-115932287D02*
X170747690Y-115884668D01*
X170247690Y-115646573D02*
X170271500Y-115694192D01*
X170271500Y-115694192D02*
X170295309Y-115718002D01*
X170295309Y-115718002D02*
X170342928Y-115741811D01*
X170342928Y-115741811D02*
X170485785Y-115741811D01*
X170485785Y-115741811D02*
X170533404Y-115718002D01*
X170533404Y-115718002D02*
X170557214Y-115694192D01*
X170557214Y-115694192D02*
X170581023Y-115646573D01*
X170581023Y-115646573D02*
X170581023Y-115575145D01*
X170581023Y-115575145D02*
X170557214Y-115527526D01*
X170557214Y-115527526D02*
X170533404Y-115503716D01*
X170533404Y-115503716D02*
X170485785Y-115479907D01*
X170485785Y-115479907D02*
X170342928Y-115479907D01*
X170342928Y-115479907D02*
X170295309Y-115503716D01*
X170295309Y-115503716D02*
X170271500Y-115527526D01*
X170271500Y-115527526D02*
X170247690Y-115575145D01*
X170247690Y-115575145D02*
X170247690Y-115646573D01*
X170247690Y-115265621D02*
X170581023Y-115265621D01*
X170485785Y-115265621D02*
X170533404Y-115241811D01*
X170533404Y-115241811D02*
X170557214Y-115218002D01*
X170557214Y-115218002D02*
X170581023Y-115170383D01*
X170581023Y-115170383D02*
X170581023Y-115122764D01*
X170581023Y-114646573D02*
X170581023Y-114456097D01*
X170747690Y-114575145D02*
X170319119Y-114575145D01*
X170319119Y-114575145D02*
X170271500Y-114551335D01*
X170271500Y-114551335D02*
X170247690Y-114503716D01*
X170247690Y-114503716D02*
X170247690Y-114456097D01*
X170247690Y-114289431D02*
X170747690Y-114289431D01*
X170247690Y-114075145D02*
X170509595Y-114075145D01*
X170509595Y-114075145D02*
X170557214Y-114098955D01*
X170557214Y-114098955D02*
X170581023Y-114146574D01*
X170581023Y-114146574D02*
X170581023Y-114218002D01*
X170581023Y-114218002D02*
X170557214Y-114265621D01*
X170557214Y-114265621D02*
X170533404Y-114289431D01*
X170271500Y-113646574D02*
X170247690Y-113694193D01*
X170247690Y-113694193D02*
X170247690Y-113789431D01*
X170247690Y-113789431D02*
X170271500Y-113837050D01*
X170271500Y-113837050D02*
X170319119Y-113860859D01*
X170319119Y-113860859D02*
X170509595Y-113860859D01*
X170509595Y-113860859D02*
X170557214Y-113837050D01*
X170557214Y-113837050D02*
X170581023Y-113789431D01*
X170581023Y-113789431D02*
X170581023Y-113694193D01*
X170581023Y-113694193D02*
X170557214Y-113646574D01*
X170557214Y-113646574D02*
X170509595Y-113622764D01*
X170509595Y-113622764D02*
X170461976Y-113622764D01*
X170461976Y-113622764D02*
X170414357Y-113860859D01*
X170581023Y-112813241D02*
X170176261Y-112813241D01*
X170176261Y-112813241D02*
X170128642Y-112837051D01*
X170128642Y-112837051D02*
X170104833Y-112860860D01*
X170104833Y-112860860D02*
X170081023Y-112908479D01*
X170081023Y-112908479D02*
X170081023Y-112979908D01*
X170081023Y-112979908D02*
X170104833Y-113027527D01*
X170271500Y-112813241D02*
X170247690Y-112860860D01*
X170247690Y-112860860D02*
X170247690Y-112956098D01*
X170247690Y-112956098D02*
X170271500Y-113003717D01*
X170271500Y-113003717D02*
X170295309Y-113027527D01*
X170295309Y-113027527D02*
X170342928Y-113051336D01*
X170342928Y-113051336D02*
X170485785Y-113051336D01*
X170485785Y-113051336D02*
X170533404Y-113027527D01*
X170533404Y-113027527D02*
X170557214Y-113003717D01*
X170557214Y-113003717D02*
X170581023Y-112956098D01*
X170581023Y-112956098D02*
X170581023Y-112860860D01*
X170581023Y-112860860D02*
X170557214Y-112813241D01*
X170247690Y-112575146D02*
X170581023Y-112575146D01*
X170485785Y-112575146D02*
X170533404Y-112551336D01*
X170533404Y-112551336D02*
X170557214Y-112527527D01*
X170557214Y-112527527D02*
X170581023Y-112479908D01*
X170581023Y-112479908D02*
X170581023Y-112432289D01*
X170271500Y-112075146D02*
X170247690Y-112122765D01*
X170247690Y-112122765D02*
X170247690Y-112218003D01*
X170247690Y-112218003D02*
X170271500Y-112265622D01*
X170271500Y-112265622D02*
X170319119Y-112289431D01*
X170319119Y-112289431D02*
X170509595Y-112289431D01*
X170509595Y-112289431D02*
X170557214Y-112265622D01*
X170557214Y-112265622D02*
X170581023Y-112218003D01*
X170581023Y-112218003D02*
X170581023Y-112122765D01*
X170581023Y-112122765D02*
X170557214Y-112075146D01*
X170557214Y-112075146D02*
X170509595Y-112051336D01*
X170509595Y-112051336D02*
X170461976Y-112051336D01*
X170461976Y-112051336D02*
X170414357Y-112289431D01*
X170247690Y-111622765D02*
X170509595Y-111622765D01*
X170509595Y-111622765D02*
X170557214Y-111646575D01*
X170557214Y-111646575D02*
X170581023Y-111694194D01*
X170581023Y-111694194D02*
X170581023Y-111789432D01*
X170581023Y-111789432D02*
X170557214Y-111837051D01*
X170271500Y-111622765D02*
X170247690Y-111670384D01*
X170247690Y-111670384D02*
X170247690Y-111789432D01*
X170247690Y-111789432D02*
X170271500Y-111837051D01*
X170271500Y-111837051D02*
X170319119Y-111860860D01*
X170319119Y-111860860D02*
X170366738Y-111860860D01*
X170366738Y-111860860D02*
X170414357Y-111837051D01*
X170414357Y-111837051D02*
X170438166Y-111789432D01*
X170438166Y-111789432D02*
X170438166Y-111670384D01*
X170438166Y-111670384D02*
X170461976Y-111622765D01*
X170581023Y-111456098D02*
X170581023Y-111265622D01*
X170747690Y-111384670D02*
X170319119Y-111384670D01*
X170319119Y-111384670D02*
X170271500Y-111360860D01*
X170271500Y-111360860D02*
X170247690Y-111313241D01*
X170247690Y-111313241D02*
X170247690Y-111265622D01*
X170247690Y-110718004D02*
X170581023Y-110718004D01*
X170747690Y-110718004D02*
X170723880Y-110741813D01*
X170723880Y-110741813D02*
X170700071Y-110718004D01*
X170700071Y-110718004D02*
X170723880Y-110694194D01*
X170723880Y-110694194D02*
X170747690Y-110718004D01*
X170747690Y-110718004D02*
X170700071Y-110718004D01*
X170581023Y-110479909D02*
X170247690Y-110479909D01*
X170533404Y-110479909D02*
X170557214Y-110456099D01*
X170557214Y-110456099D02*
X170581023Y-110408480D01*
X170581023Y-110408480D02*
X170581023Y-110337052D01*
X170581023Y-110337052D02*
X170557214Y-110289433D01*
X170557214Y-110289433D02*
X170509595Y-110265623D01*
X170509595Y-110265623D02*
X170247690Y-110265623D01*
X170271500Y-110051337D02*
X170247690Y-110003718D01*
X170247690Y-110003718D02*
X170247690Y-109908480D01*
X170247690Y-109908480D02*
X170271500Y-109860861D01*
X170271500Y-109860861D02*
X170319119Y-109837052D01*
X170319119Y-109837052D02*
X170342928Y-109837052D01*
X170342928Y-109837052D02*
X170390547Y-109860861D01*
X170390547Y-109860861D02*
X170414357Y-109908480D01*
X170414357Y-109908480D02*
X170414357Y-109979909D01*
X170414357Y-109979909D02*
X170438166Y-110027528D01*
X170438166Y-110027528D02*
X170485785Y-110051337D01*
X170485785Y-110051337D02*
X170509595Y-110051337D01*
X170509595Y-110051337D02*
X170557214Y-110027528D01*
X170557214Y-110027528D02*
X170581023Y-109979909D01*
X170581023Y-109979909D02*
X170581023Y-109908480D01*
X170581023Y-109908480D02*
X170557214Y-109860861D01*
X170581023Y-109622766D02*
X170081023Y-109622766D01*
X170557214Y-109622766D02*
X170581023Y-109575147D01*
X170581023Y-109575147D02*
X170581023Y-109479909D01*
X170581023Y-109479909D02*
X170557214Y-109432290D01*
X170557214Y-109432290D02*
X170533404Y-109408480D01*
X170533404Y-109408480D02*
X170485785Y-109384671D01*
X170485785Y-109384671D02*
X170342928Y-109384671D01*
X170342928Y-109384671D02*
X170295309Y-109408480D01*
X170295309Y-109408480D02*
X170271500Y-109432290D01*
X170271500Y-109432290D02*
X170247690Y-109479909D01*
X170247690Y-109479909D02*
X170247690Y-109575147D01*
X170247690Y-109575147D02*
X170271500Y-109622766D01*
X170247690Y-109170385D02*
X170581023Y-109170385D01*
X170747690Y-109170385D02*
X170723880Y-109194194D01*
X170723880Y-109194194D02*
X170700071Y-109170385D01*
X170700071Y-109170385D02*
X170723880Y-109146575D01*
X170723880Y-109146575D02*
X170747690Y-109170385D01*
X170747690Y-109170385D02*
X170700071Y-109170385D01*
X170247690Y-108932290D02*
X170581023Y-108932290D01*
X170485785Y-108932290D02*
X170533404Y-108908480D01*
X170533404Y-108908480D02*
X170557214Y-108884671D01*
X170557214Y-108884671D02*
X170581023Y-108837052D01*
X170581023Y-108837052D02*
X170581023Y-108789433D01*
X170247690Y-108408480D02*
X170509595Y-108408480D01*
X170509595Y-108408480D02*
X170557214Y-108432290D01*
X170557214Y-108432290D02*
X170581023Y-108479909D01*
X170581023Y-108479909D02*
X170581023Y-108575147D01*
X170581023Y-108575147D02*
X170557214Y-108622766D01*
X170271500Y-108408480D02*
X170247690Y-108456099D01*
X170247690Y-108456099D02*
X170247690Y-108575147D01*
X170247690Y-108575147D02*
X170271500Y-108622766D01*
X170271500Y-108622766D02*
X170319119Y-108646575D01*
X170319119Y-108646575D02*
X170366738Y-108646575D01*
X170366738Y-108646575D02*
X170414357Y-108622766D01*
X170414357Y-108622766D02*
X170438166Y-108575147D01*
X170438166Y-108575147D02*
X170438166Y-108456099D01*
X170438166Y-108456099D02*
X170461976Y-108408480D01*
X170581023Y-108241813D02*
X170581023Y-108051337D01*
X170747690Y-108170385D02*
X170319119Y-108170385D01*
X170319119Y-108170385D02*
X170271500Y-108146575D01*
X170271500Y-108146575D02*
X170247690Y-108098956D01*
X170247690Y-108098956D02*
X170247690Y-108051337D01*
X170247690Y-107884671D02*
X170581023Y-107884671D01*
X170747690Y-107884671D02*
X170723880Y-107908480D01*
X170723880Y-107908480D02*
X170700071Y-107884671D01*
X170700071Y-107884671D02*
X170723880Y-107860861D01*
X170723880Y-107860861D02*
X170747690Y-107884671D01*
X170747690Y-107884671D02*
X170700071Y-107884671D01*
X170247690Y-107575147D02*
X170271500Y-107622766D01*
X170271500Y-107622766D02*
X170295309Y-107646576D01*
X170295309Y-107646576D02*
X170342928Y-107670385D01*
X170342928Y-107670385D02*
X170485785Y-107670385D01*
X170485785Y-107670385D02*
X170533404Y-107646576D01*
X170533404Y-107646576D02*
X170557214Y-107622766D01*
X170557214Y-107622766D02*
X170581023Y-107575147D01*
X170581023Y-107575147D02*
X170581023Y-107503719D01*
X170581023Y-107503719D02*
X170557214Y-107456100D01*
X170557214Y-107456100D02*
X170533404Y-107432290D01*
X170533404Y-107432290D02*
X170485785Y-107408481D01*
X170485785Y-107408481D02*
X170342928Y-107408481D01*
X170342928Y-107408481D02*
X170295309Y-107432290D01*
X170295309Y-107432290D02*
X170271500Y-107456100D01*
X170271500Y-107456100D02*
X170247690Y-107503719D01*
X170247690Y-107503719D02*
X170247690Y-107575147D01*
X170581023Y-107194195D02*
X170247690Y-107194195D01*
X170533404Y-107194195D02*
X170557214Y-107170385D01*
X170557214Y-107170385D02*
X170581023Y-107122766D01*
X170581023Y-107122766D02*
X170581023Y-107051338D01*
X170581023Y-107051338D02*
X170557214Y-107003719D01*
X170557214Y-107003719D02*
X170509595Y-106979909D01*
X170509595Y-106979909D02*
X170247690Y-106979909D01*
X170295309Y-106741814D02*
X170271500Y-106718004D01*
X170271500Y-106718004D02*
X170247690Y-106741814D01*
X170247690Y-106741814D02*
X170271500Y-106765623D01*
X170271500Y-106765623D02*
X170295309Y-106741814D01*
X170295309Y-106741814D02*
X170247690Y-106741814D01*
D11*
X153035000Y-115570000D02*
X153035000Y-88900000D01*
X142875000Y-88900000D02*
X164465000Y-88900000D01*
X164465000Y-115570000D01*
X142875000Y-115570000D01*
X142875000Y-88900000D01*
X161651792Y-91214580D02*
X161699411Y-91262200D01*
X161699411Y-91262200D02*
X161842268Y-91309819D01*
X161842268Y-91309819D02*
X161937506Y-91309819D01*
X161937506Y-91309819D02*
X162080363Y-91262200D01*
X162080363Y-91262200D02*
X162175601Y-91166961D01*
X162175601Y-91166961D02*
X162223220Y-91071723D01*
X162223220Y-91071723D02*
X162270839Y-90881247D01*
X162270839Y-90881247D02*
X162270839Y-90738390D01*
X162270839Y-90738390D02*
X162223220Y-90547914D01*
X162223220Y-90547914D02*
X162175601Y-90452676D01*
X162175601Y-90452676D02*
X162080363Y-90357438D01*
X162080363Y-90357438D02*
X161937506Y-90309819D01*
X161937506Y-90309819D02*
X161842268Y-90309819D01*
X161842268Y-90309819D02*
X161699411Y-90357438D01*
X161699411Y-90357438D02*
X161651792Y-90405057D01*
X161223220Y-90786009D02*
X160889887Y-90786009D01*
X160747030Y-91309819D02*
X161223220Y-91309819D01*
X161223220Y-91309819D02*
X161223220Y-90309819D01*
X161223220Y-90309819D02*
X160747030Y-90309819D01*
X160318458Y-91309819D02*
X160318458Y-90309819D01*
X160318458Y-90309819D02*
X159747030Y-91309819D01*
X159747030Y-91309819D02*
X159747030Y-90309819D01*
X159413696Y-90309819D02*
X158842268Y-90309819D01*
X159127982Y-91309819D02*
X159127982Y-90309819D01*
X157937506Y-91309819D02*
X158270839Y-90833628D01*
X158508934Y-91309819D02*
X158508934Y-90309819D01*
X158508934Y-90309819D02*
X158127982Y-90309819D01*
X158127982Y-90309819D02*
X158032744Y-90357438D01*
X158032744Y-90357438D02*
X157985125Y-90405057D01*
X157985125Y-90405057D02*
X157937506Y-90500295D01*
X157937506Y-90500295D02*
X157937506Y-90643152D01*
X157937506Y-90643152D02*
X157985125Y-90738390D01*
X157985125Y-90738390D02*
X158032744Y-90786009D01*
X158032744Y-90786009D02*
X158127982Y-90833628D01*
X158127982Y-90833628D02*
X158508934Y-90833628D01*
X157556553Y-91024104D02*
X157080363Y-91024104D01*
X157651791Y-91309819D02*
X157318458Y-90309819D01*
X157318458Y-90309819D02*
X156985125Y-91309819D01*
X156175601Y-91309819D02*
X156651791Y-91309819D01*
X156651791Y-91309819D02*
X156651791Y-90309819D01*
X155842267Y-91214580D02*
X155794648Y-91262200D01*
X155794648Y-91262200D02*
X155842267Y-91309819D01*
X155842267Y-91309819D02*
X155889886Y-91262200D01*
X155889886Y-91262200D02*
X155842267Y-91214580D01*
X155842267Y-91214580D02*
X155842267Y-91309819D01*
X154842268Y-91309819D02*
X155413696Y-91309819D01*
X155127982Y-91309819D02*
X155127982Y-90309819D01*
X155127982Y-90309819D02*
X155223220Y-90452676D01*
X155223220Y-90452676D02*
X155318458Y-90547914D01*
X155318458Y-90547914D02*
X155413696Y-90595533D01*
X162366077Y-113169819D02*
X161794649Y-113169819D01*
X162080363Y-114169819D02*
X162080363Y-113169819D01*
X160889887Y-114169819D02*
X161223220Y-113693628D01*
X161461315Y-114169819D02*
X161461315Y-113169819D01*
X161461315Y-113169819D02*
X161080363Y-113169819D01*
X161080363Y-113169819D02*
X160985125Y-113217438D01*
X160985125Y-113217438D02*
X160937506Y-113265057D01*
X160937506Y-113265057D02*
X160889887Y-113360295D01*
X160889887Y-113360295D02*
X160889887Y-113503152D01*
X160889887Y-113503152D02*
X160937506Y-113598390D01*
X160937506Y-113598390D02*
X160985125Y-113646009D01*
X160985125Y-113646009D02*
X161080363Y-113693628D01*
X161080363Y-113693628D02*
X161461315Y-113693628D01*
X160508934Y-113884104D02*
X160032744Y-113884104D01*
X160604172Y-114169819D02*
X160270839Y-113169819D01*
X160270839Y-113169819D02*
X159937506Y-114169819D01*
X159032744Y-114074580D02*
X159080363Y-114122200D01*
X159080363Y-114122200D02*
X159223220Y-114169819D01*
X159223220Y-114169819D02*
X159318458Y-114169819D01*
X159318458Y-114169819D02*
X159461315Y-114122200D01*
X159461315Y-114122200D02*
X159556553Y-114026961D01*
X159556553Y-114026961D02*
X159604172Y-113931723D01*
X159604172Y-113931723D02*
X159651791Y-113741247D01*
X159651791Y-113741247D02*
X159651791Y-113598390D01*
X159651791Y-113598390D02*
X159604172Y-113407914D01*
X159604172Y-113407914D02*
X159556553Y-113312676D01*
X159556553Y-113312676D02*
X159461315Y-113217438D01*
X159461315Y-113217438D02*
X159318458Y-113169819D01*
X159318458Y-113169819D02*
X159223220Y-113169819D01*
X159223220Y-113169819D02*
X159080363Y-113217438D01*
X159080363Y-113217438D02*
X159032744Y-113265057D01*
X158604172Y-114169819D02*
X158604172Y-113169819D01*
X158032744Y-114169819D02*
X158461315Y-113598390D01*
X158032744Y-113169819D02*
X158604172Y-113741247D01*
X157604172Y-114074580D02*
X157556553Y-114122200D01*
X157556553Y-114122200D02*
X157604172Y-114169819D01*
X157604172Y-114169819D02*
X157651791Y-114122200D01*
X157651791Y-114122200D02*
X157604172Y-114074580D01*
X157604172Y-114074580D02*
X157604172Y-114169819D01*
X157175601Y-113884104D02*
X156699411Y-113884104D01*
X157270839Y-114169819D02*
X156937506Y-113169819D01*
X156937506Y-113169819D02*
X156604173Y-114169819D01*
X150856792Y-114169819D02*
X151190125Y-113693628D01*
X151428220Y-114169819D02*
X151428220Y-113169819D01*
X151428220Y-113169819D02*
X151047268Y-113169819D01*
X151047268Y-113169819D02*
X150952030Y-113217438D01*
X150952030Y-113217438D02*
X150904411Y-113265057D01*
X150904411Y-113265057D02*
X150856792Y-113360295D01*
X150856792Y-113360295D02*
X150856792Y-113503152D01*
X150856792Y-113503152D02*
X150904411Y-113598390D01*
X150904411Y-113598390D02*
X150952030Y-113646009D01*
X150952030Y-113646009D02*
X151047268Y-113693628D01*
X151047268Y-113693628D02*
X151428220Y-113693628D01*
X150475839Y-113884104D02*
X149999649Y-113884104D01*
X150571077Y-114169819D02*
X150237744Y-113169819D01*
X150237744Y-113169819D02*
X149904411Y-114169819D01*
X149571077Y-114169819D02*
X149571077Y-113169819D01*
X148618697Y-114169819D02*
X149094887Y-114169819D01*
X149094887Y-114169819D02*
X149094887Y-113169819D01*
X147713935Y-114074580D02*
X147761554Y-114122200D01*
X147761554Y-114122200D02*
X147904411Y-114169819D01*
X147904411Y-114169819D02*
X147999649Y-114169819D01*
X147999649Y-114169819D02*
X148142506Y-114122200D01*
X148142506Y-114122200D02*
X148237744Y-114026961D01*
X148237744Y-114026961D02*
X148285363Y-113931723D01*
X148285363Y-113931723D02*
X148332982Y-113741247D01*
X148332982Y-113741247D02*
X148332982Y-113598390D01*
X148332982Y-113598390D02*
X148285363Y-113407914D01*
X148285363Y-113407914D02*
X148237744Y-113312676D01*
X148237744Y-113312676D02*
X148142506Y-113217438D01*
X148142506Y-113217438D02*
X147999649Y-113169819D01*
X147999649Y-113169819D02*
X147904411Y-113169819D01*
X147904411Y-113169819D02*
X147761554Y-113217438D01*
X147761554Y-113217438D02*
X147713935Y-113265057D01*
X147094887Y-113169819D02*
X146904411Y-113169819D01*
X146904411Y-113169819D02*
X146809173Y-113217438D01*
X146809173Y-113217438D02*
X146713935Y-113312676D01*
X146713935Y-113312676D02*
X146666316Y-113503152D01*
X146666316Y-113503152D02*
X146666316Y-113836485D01*
X146666316Y-113836485D02*
X146713935Y-114026961D01*
X146713935Y-114026961D02*
X146809173Y-114122200D01*
X146809173Y-114122200D02*
X146904411Y-114169819D01*
X146904411Y-114169819D02*
X147094887Y-114169819D01*
X147094887Y-114169819D02*
X147190125Y-114122200D01*
X147190125Y-114122200D02*
X147285363Y-114026961D01*
X147285363Y-114026961D02*
X147332982Y-113836485D01*
X147332982Y-113836485D02*
X147332982Y-113503152D01*
X147332982Y-113503152D02*
X147285363Y-113312676D01*
X147285363Y-113312676D02*
X147190125Y-113217438D01*
X147190125Y-113217438D02*
X147094887Y-113169819D01*
X146237744Y-114169819D02*
X146237744Y-113169819D01*
X146237744Y-113169819D02*
X145904411Y-113884104D01*
X145904411Y-113884104D02*
X145571078Y-113169819D01*
X145571078Y-113169819D02*
X145571078Y-114169819D01*
X145094887Y-114074580D02*
X145047268Y-114122200D01*
X145047268Y-114122200D02*
X145094887Y-114169819D01*
X145094887Y-114169819D02*
X145142506Y-114122200D01*
X145142506Y-114122200D02*
X145094887Y-114074580D01*
X145094887Y-114074580D02*
X145094887Y-114169819D01*
X144666316Y-113884104D02*
X144190126Y-113884104D01*
X144761554Y-114169819D02*
X144428221Y-113169819D01*
X144428221Y-113169819D02*
X144094888Y-114169819D01*
X151428220Y-103343152D02*
X151428220Y-104009819D01*
X151428220Y-103438390D02*
X151380601Y-103390771D01*
X151380601Y-103390771D02*
X151285363Y-103343152D01*
X151285363Y-103343152D02*
X151142506Y-103343152D01*
X151142506Y-103343152D02*
X151047268Y-103390771D01*
X151047268Y-103390771D02*
X150999649Y-103486009D01*
X150999649Y-103486009D02*
X150999649Y-104009819D01*
X150094887Y-103962200D02*
X150190125Y-104009819D01*
X150190125Y-104009819D02*
X150380601Y-104009819D01*
X150380601Y-104009819D02*
X150475839Y-103962200D01*
X150475839Y-103962200D02*
X150523458Y-103914580D01*
X150523458Y-103914580D02*
X150571077Y-103819342D01*
X150571077Y-103819342D02*
X150571077Y-103533628D01*
X150571077Y-103533628D02*
X150523458Y-103438390D01*
X150523458Y-103438390D02*
X150475839Y-103390771D01*
X150475839Y-103390771D02*
X150380601Y-103343152D01*
X150380601Y-103343152D02*
X150190125Y-103343152D01*
X150190125Y-103343152D02*
X150094887Y-103390771D01*
X151428220Y-100803152D02*
X151428220Y-101469819D01*
X151428220Y-100898390D02*
X151380601Y-100850771D01*
X151380601Y-100850771D02*
X151285363Y-100803152D01*
X151285363Y-100803152D02*
X151142506Y-100803152D01*
X151142506Y-100803152D02*
X151047268Y-100850771D01*
X151047268Y-100850771D02*
X150999649Y-100946009D01*
X150999649Y-100946009D02*
X150999649Y-101469819D01*
X150094887Y-101422200D02*
X150190125Y-101469819D01*
X150190125Y-101469819D02*
X150380601Y-101469819D01*
X150380601Y-101469819D02*
X150475839Y-101422200D01*
X150475839Y-101422200D02*
X150523458Y-101374580D01*
X150523458Y-101374580D02*
X150571077Y-101279342D01*
X150571077Y-101279342D02*
X150571077Y-100993628D01*
X150571077Y-100993628D02*
X150523458Y-100898390D01*
X150523458Y-100898390D02*
X150475839Y-100850771D01*
X150475839Y-100850771D02*
X150380601Y-100803152D01*
X150380601Y-100803152D02*
X150190125Y-100803152D01*
X150190125Y-100803152D02*
X150094887Y-100850771D01*
X161651792Y-93754580D02*
X161699411Y-93802200D01*
X161699411Y-93802200D02*
X161842268Y-93849819D01*
X161842268Y-93849819D02*
X161937506Y-93849819D01*
X161937506Y-93849819D02*
X162080363Y-93802200D01*
X162080363Y-93802200D02*
X162175601Y-93706961D01*
X162175601Y-93706961D02*
X162223220Y-93611723D01*
X162223220Y-93611723D02*
X162270839Y-93421247D01*
X162270839Y-93421247D02*
X162270839Y-93278390D01*
X162270839Y-93278390D02*
X162223220Y-93087914D01*
X162223220Y-93087914D02*
X162175601Y-92992676D01*
X162175601Y-92992676D02*
X162080363Y-92897438D01*
X162080363Y-92897438D02*
X161937506Y-92849819D01*
X161937506Y-92849819D02*
X161842268Y-92849819D01*
X161842268Y-92849819D02*
X161699411Y-92897438D01*
X161699411Y-92897438D02*
X161651792Y-92945057D01*
X161223220Y-93326009D02*
X160889887Y-93326009D01*
X160747030Y-93849819D02*
X161223220Y-93849819D01*
X161223220Y-93849819D02*
X161223220Y-92849819D01*
X161223220Y-92849819D02*
X160747030Y-92849819D01*
X160318458Y-93849819D02*
X160318458Y-92849819D01*
X160318458Y-92849819D02*
X159747030Y-93849819D01*
X159747030Y-93849819D02*
X159747030Y-92849819D01*
X159413696Y-92849819D02*
X158842268Y-92849819D01*
X159127982Y-93849819D02*
X159127982Y-92849819D01*
X157937506Y-93849819D02*
X158270839Y-93373628D01*
X158508934Y-93849819D02*
X158508934Y-92849819D01*
X158508934Y-92849819D02*
X158127982Y-92849819D01*
X158127982Y-92849819D02*
X158032744Y-92897438D01*
X158032744Y-92897438D02*
X157985125Y-92945057D01*
X157985125Y-92945057D02*
X157937506Y-93040295D01*
X157937506Y-93040295D02*
X157937506Y-93183152D01*
X157937506Y-93183152D02*
X157985125Y-93278390D01*
X157985125Y-93278390D02*
X158032744Y-93326009D01*
X158032744Y-93326009D02*
X158127982Y-93373628D01*
X158127982Y-93373628D02*
X158508934Y-93373628D01*
X157556553Y-93564104D02*
X157080363Y-93564104D01*
X157651791Y-93849819D02*
X157318458Y-92849819D01*
X157318458Y-92849819D02*
X156985125Y-93849819D01*
X156175601Y-93849819D02*
X156651791Y-93849819D01*
X156651791Y-93849819D02*
X156651791Y-92849819D01*
X155842267Y-93754580D02*
X155794648Y-93802200D01*
X155794648Y-93802200D02*
X155842267Y-93849819D01*
X155842267Y-93849819D02*
X155889886Y-93802200D01*
X155889886Y-93802200D02*
X155842267Y-93754580D01*
X155842267Y-93754580D02*
X155842267Y-93849819D01*
X155175601Y-92849819D02*
X155080363Y-92849819D01*
X155080363Y-92849819D02*
X154985125Y-92897438D01*
X154985125Y-92897438D02*
X154937506Y-92945057D01*
X154937506Y-92945057D02*
X154889887Y-93040295D01*
X154889887Y-93040295D02*
X154842268Y-93230771D01*
X154842268Y-93230771D02*
X154842268Y-93468866D01*
X154842268Y-93468866D02*
X154889887Y-93659342D01*
X154889887Y-93659342D02*
X154937506Y-93754580D01*
X154937506Y-93754580D02*
X154985125Y-93802200D01*
X154985125Y-93802200D02*
X155080363Y-93849819D01*
X155080363Y-93849819D02*
X155175601Y-93849819D01*
X155175601Y-93849819D02*
X155270839Y-93802200D01*
X155270839Y-93802200D02*
X155318458Y-93754580D01*
X155318458Y-93754580D02*
X155366077Y-93659342D01*
X155366077Y-93659342D02*
X155413696Y-93468866D01*
X155413696Y-93468866D02*
X155413696Y-93230771D01*
X155413696Y-93230771D02*
X155366077Y-93040295D01*
X155366077Y-93040295D02*
X155318458Y-92945057D01*
X155318458Y-92945057D02*
X155270839Y-92897438D01*
X155270839Y-92897438D02*
X155175601Y-92849819D01*
X151428220Y-90643152D02*
X151428220Y-91309819D01*
X151428220Y-90738390D02*
X151380601Y-90690771D01*
X151380601Y-90690771D02*
X151285363Y-90643152D01*
X151285363Y-90643152D02*
X151142506Y-90643152D01*
X151142506Y-90643152D02*
X151047268Y-90690771D01*
X151047268Y-90690771D02*
X150999649Y-90786009D01*
X150999649Y-90786009D02*
X150999649Y-91309819D01*
X150094887Y-91262200D02*
X150190125Y-91309819D01*
X150190125Y-91309819D02*
X150380601Y-91309819D01*
X150380601Y-91309819D02*
X150475839Y-91262200D01*
X150475839Y-91262200D02*
X150523458Y-91214580D01*
X150523458Y-91214580D02*
X150571077Y-91119342D01*
X150571077Y-91119342D02*
X150571077Y-90833628D01*
X150571077Y-90833628D02*
X150523458Y-90738390D01*
X150523458Y-90738390D02*
X150475839Y-90690771D01*
X150475839Y-90690771D02*
X150380601Y-90643152D01*
X150380601Y-90643152D02*
X150190125Y-90643152D01*
X150190125Y-90643152D02*
X150094887Y-90690771D01*
X162366077Y-110629819D02*
X161794649Y-110629819D01*
X162080363Y-111629819D02*
X162080363Y-110629819D01*
X160889887Y-111629819D02*
X161223220Y-111153628D01*
X161461315Y-111629819D02*
X161461315Y-110629819D01*
X161461315Y-110629819D02*
X161080363Y-110629819D01*
X161080363Y-110629819D02*
X160985125Y-110677438D01*
X160985125Y-110677438D02*
X160937506Y-110725057D01*
X160937506Y-110725057D02*
X160889887Y-110820295D01*
X160889887Y-110820295D02*
X160889887Y-110963152D01*
X160889887Y-110963152D02*
X160937506Y-111058390D01*
X160937506Y-111058390D02*
X160985125Y-111106009D01*
X160985125Y-111106009D02*
X161080363Y-111153628D01*
X161080363Y-111153628D02*
X161461315Y-111153628D01*
X160508934Y-111344104D02*
X160032744Y-111344104D01*
X160604172Y-111629819D02*
X160270839Y-110629819D01*
X160270839Y-110629819D02*
X159937506Y-111629819D01*
X159032744Y-111534580D02*
X159080363Y-111582200D01*
X159080363Y-111582200D02*
X159223220Y-111629819D01*
X159223220Y-111629819D02*
X159318458Y-111629819D01*
X159318458Y-111629819D02*
X159461315Y-111582200D01*
X159461315Y-111582200D02*
X159556553Y-111486961D01*
X159556553Y-111486961D02*
X159604172Y-111391723D01*
X159604172Y-111391723D02*
X159651791Y-111201247D01*
X159651791Y-111201247D02*
X159651791Y-111058390D01*
X159651791Y-111058390D02*
X159604172Y-110867914D01*
X159604172Y-110867914D02*
X159556553Y-110772676D01*
X159556553Y-110772676D02*
X159461315Y-110677438D01*
X159461315Y-110677438D02*
X159318458Y-110629819D01*
X159318458Y-110629819D02*
X159223220Y-110629819D01*
X159223220Y-110629819D02*
X159080363Y-110677438D01*
X159080363Y-110677438D02*
X159032744Y-110725057D01*
X158604172Y-111629819D02*
X158604172Y-110629819D01*
X158032744Y-111629819D02*
X158461315Y-111058390D01*
X158032744Y-110629819D02*
X158604172Y-111201247D01*
X157604172Y-111534580D02*
X157556553Y-111582200D01*
X157556553Y-111582200D02*
X157604172Y-111629819D01*
X157604172Y-111629819D02*
X157651791Y-111582200D01*
X157651791Y-111582200D02*
X157604172Y-111534580D01*
X157604172Y-111534580D02*
X157604172Y-111629819D01*
X156794649Y-111106009D02*
X156651792Y-111153628D01*
X156651792Y-111153628D02*
X156604173Y-111201247D01*
X156604173Y-111201247D02*
X156556554Y-111296485D01*
X156556554Y-111296485D02*
X156556554Y-111439342D01*
X156556554Y-111439342D02*
X156604173Y-111534580D01*
X156604173Y-111534580D02*
X156651792Y-111582200D01*
X156651792Y-111582200D02*
X156747030Y-111629819D01*
X156747030Y-111629819D02*
X157127982Y-111629819D01*
X157127982Y-111629819D02*
X157127982Y-110629819D01*
X157127982Y-110629819D02*
X156794649Y-110629819D01*
X156794649Y-110629819D02*
X156699411Y-110677438D01*
X156699411Y-110677438D02*
X156651792Y-110725057D01*
X156651792Y-110725057D02*
X156604173Y-110820295D01*
X156604173Y-110820295D02*
X156604173Y-110915533D01*
X156604173Y-110915533D02*
X156651792Y-111010771D01*
X156651792Y-111010771D02*
X156699411Y-111058390D01*
X156699411Y-111058390D02*
X156794649Y-111106009D01*
X156794649Y-111106009D02*
X157127982Y-111106009D01*
X162318458Y-95389819D02*
X161699411Y-95389819D01*
X161699411Y-95389819D02*
X162032744Y-95770771D01*
X162032744Y-95770771D02*
X161889887Y-95770771D01*
X161889887Y-95770771D02*
X161794649Y-95818390D01*
X161794649Y-95818390D02*
X161747030Y-95866009D01*
X161747030Y-95866009D02*
X161699411Y-95961247D01*
X161699411Y-95961247D02*
X161699411Y-96199342D01*
X161699411Y-96199342D02*
X161747030Y-96294580D01*
X161747030Y-96294580D02*
X161794649Y-96342200D01*
X161794649Y-96342200D02*
X161889887Y-96389819D01*
X161889887Y-96389819D02*
X162175601Y-96389819D01*
X162175601Y-96389819D02*
X162270839Y-96342200D01*
X162270839Y-96342200D02*
X162318458Y-96294580D01*
X161366077Y-95723152D02*
X161127982Y-96389819D01*
X161127982Y-96389819D02*
X160889887Y-95723152D01*
X160604172Y-95389819D02*
X159985125Y-95389819D01*
X159985125Y-95389819D02*
X160318458Y-95770771D01*
X160318458Y-95770771D02*
X160175601Y-95770771D01*
X160175601Y-95770771D02*
X160080363Y-95818390D01*
X160080363Y-95818390D02*
X160032744Y-95866009D01*
X160032744Y-95866009D02*
X159985125Y-95961247D01*
X159985125Y-95961247D02*
X159985125Y-96199342D01*
X159985125Y-96199342D02*
X160032744Y-96294580D01*
X160032744Y-96294580D02*
X160080363Y-96342200D01*
X160080363Y-96342200D02*
X160175601Y-96389819D01*
X160175601Y-96389819D02*
X160461315Y-96389819D01*
X160461315Y-96389819D02*
X160556553Y-96342200D01*
X160556553Y-96342200D02*
X160604172Y-96294580D01*
X161699411Y-97977438D02*
X161794649Y-97929819D01*
X161794649Y-97929819D02*
X161937506Y-97929819D01*
X161937506Y-97929819D02*
X162080363Y-97977438D01*
X162080363Y-97977438D02*
X162175601Y-98072676D01*
X162175601Y-98072676D02*
X162223220Y-98167914D01*
X162223220Y-98167914D02*
X162270839Y-98358390D01*
X162270839Y-98358390D02*
X162270839Y-98501247D01*
X162270839Y-98501247D02*
X162223220Y-98691723D01*
X162223220Y-98691723D02*
X162175601Y-98786961D01*
X162175601Y-98786961D02*
X162080363Y-98882200D01*
X162080363Y-98882200D02*
X161937506Y-98929819D01*
X161937506Y-98929819D02*
X161842268Y-98929819D01*
X161842268Y-98929819D02*
X161699411Y-98882200D01*
X161699411Y-98882200D02*
X161651792Y-98834580D01*
X161651792Y-98834580D02*
X161651792Y-98501247D01*
X161651792Y-98501247D02*
X161842268Y-98501247D01*
X161223220Y-98929819D02*
X161223220Y-97929819D01*
X161223220Y-97929819D02*
X160651792Y-98929819D01*
X160651792Y-98929819D02*
X160651792Y-97929819D01*
X160175601Y-98929819D02*
X160175601Y-97929819D01*
X160175601Y-97929819D02*
X159937506Y-97929819D01*
X159937506Y-97929819D02*
X159794649Y-97977438D01*
X159794649Y-97977438D02*
X159699411Y-98072676D01*
X159699411Y-98072676D02*
X159651792Y-98167914D01*
X159651792Y-98167914D02*
X159604173Y-98358390D01*
X159604173Y-98358390D02*
X159604173Y-98501247D01*
X159604173Y-98501247D02*
X159651792Y-98691723D01*
X159651792Y-98691723D02*
X159699411Y-98786961D01*
X159699411Y-98786961D02*
X159794649Y-98882200D01*
X159794649Y-98882200D02*
X159937506Y-98929819D01*
X159937506Y-98929819D02*
X160175601Y-98929819D01*
X150856792Y-111629819D02*
X151190125Y-111153628D01*
X151428220Y-111629819D02*
X151428220Y-110629819D01*
X151428220Y-110629819D02*
X151047268Y-110629819D01*
X151047268Y-110629819D02*
X150952030Y-110677438D01*
X150952030Y-110677438D02*
X150904411Y-110725057D01*
X150904411Y-110725057D02*
X150856792Y-110820295D01*
X150856792Y-110820295D02*
X150856792Y-110963152D01*
X150856792Y-110963152D02*
X150904411Y-111058390D01*
X150904411Y-111058390D02*
X150952030Y-111106009D01*
X150952030Y-111106009D02*
X151047268Y-111153628D01*
X151047268Y-111153628D02*
X151428220Y-111153628D01*
X150475839Y-111344104D02*
X149999649Y-111344104D01*
X150571077Y-111629819D02*
X150237744Y-110629819D01*
X150237744Y-110629819D02*
X149904411Y-111629819D01*
X149571077Y-111629819D02*
X149571077Y-110629819D01*
X148618697Y-111629819D02*
X149094887Y-111629819D01*
X149094887Y-111629819D02*
X149094887Y-110629819D01*
X147713935Y-111534580D02*
X147761554Y-111582200D01*
X147761554Y-111582200D02*
X147904411Y-111629819D01*
X147904411Y-111629819D02*
X147999649Y-111629819D01*
X147999649Y-111629819D02*
X148142506Y-111582200D01*
X148142506Y-111582200D02*
X148237744Y-111486961D01*
X148237744Y-111486961D02*
X148285363Y-111391723D01*
X148285363Y-111391723D02*
X148332982Y-111201247D01*
X148332982Y-111201247D02*
X148332982Y-111058390D01*
X148332982Y-111058390D02*
X148285363Y-110867914D01*
X148285363Y-110867914D02*
X148237744Y-110772676D01*
X148237744Y-110772676D02*
X148142506Y-110677438D01*
X148142506Y-110677438D02*
X147999649Y-110629819D01*
X147999649Y-110629819D02*
X147904411Y-110629819D01*
X147904411Y-110629819D02*
X147761554Y-110677438D01*
X147761554Y-110677438D02*
X147713935Y-110725057D01*
X147094887Y-110629819D02*
X146904411Y-110629819D01*
X146904411Y-110629819D02*
X146809173Y-110677438D01*
X146809173Y-110677438D02*
X146713935Y-110772676D01*
X146713935Y-110772676D02*
X146666316Y-110963152D01*
X146666316Y-110963152D02*
X146666316Y-111296485D01*
X146666316Y-111296485D02*
X146713935Y-111486961D01*
X146713935Y-111486961D02*
X146809173Y-111582200D01*
X146809173Y-111582200D02*
X146904411Y-111629819D01*
X146904411Y-111629819D02*
X147094887Y-111629819D01*
X147094887Y-111629819D02*
X147190125Y-111582200D01*
X147190125Y-111582200D02*
X147285363Y-111486961D01*
X147285363Y-111486961D02*
X147332982Y-111296485D01*
X147332982Y-111296485D02*
X147332982Y-110963152D01*
X147332982Y-110963152D02*
X147285363Y-110772676D01*
X147285363Y-110772676D02*
X147190125Y-110677438D01*
X147190125Y-110677438D02*
X147094887Y-110629819D01*
X146237744Y-111629819D02*
X146237744Y-110629819D01*
X146237744Y-110629819D02*
X145904411Y-111344104D01*
X145904411Y-111344104D02*
X145571078Y-110629819D01*
X145571078Y-110629819D02*
X145571078Y-111629819D01*
X145094887Y-111534580D02*
X145047268Y-111582200D01*
X145047268Y-111582200D02*
X145094887Y-111629819D01*
X145094887Y-111629819D02*
X145142506Y-111582200D01*
X145142506Y-111582200D02*
X145094887Y-111534580D01*
X145094887Y-111534580D02*
X145094887Y-111629819D01*
X144285364Y-111106009D02*
X144142507Y-111153628D01*
X144142507Y-111153628D02*
X144094888Y-111201247D01*
X144094888Y-111201247D02*
X144047269Y-111296485D01*
X144047269Y-111296485D02*
X144047269Y-111439342D01*
X144047269Y-111439342D02*
X144094888Y-111534580D01*
X144094888Y-111534580D02*
X144142507Y-111582200D01*
X144142507Y-111582200D02*
X144237745Y-111629819D01*
X144237745Y-111629819D02*
X144618697Y-111629819D01*
X144618697Y-111629819D02*
X144618697Y-110629819D01*
X144618697Y-110629819D02*
X144285364Y-110629819D01*
X144285364Y-110629819D02*
X144190126Y-110677438D01*
X144190126Y-110677438D02*
X144142507Y-110725057D01*
X144142507Y-110725057D02*
X144094888Y-110820295D01*
X144094888Y-110820295D02*
X144094888Y-110915533D01*
X144094888Y-110915533D02*
X144142507Y-111010771D01*
X144142507Y-111010771D02*
X144190126Y-111058390D01*
X144190126Y-111058390D02*
X144285364Y-111106009D01*
X144285364Y-111106009D02*
X144618697Y-111106009D01*
X162223220Y-100803152D02*
X162223220Y-101469819D01*
X162223220Y-100898390D02*
X162175601Y-100850771D01*
X162175601Y-100850771D02*
X162080363Y-100803152D01*
X162080363Y-100803152D02*
X161937506Y-100803152D01*
X161937506Y-100803152D02*
X161842268Y-100850771D01*
X161842268Y-100850771D02*
X161794649Y-100946009D01*
X161794649Y-100946009D02*
X161794649Y-101469819D01*
X160889887Y-101422200D02*
X160985125Y-101469819D01*
X160985125Y-101469819D02*
X161175601Y-101469819D01*
X161175601Y-101469819D02*
X161270839Y-101422200D01*
X161270839Y-101422200D02*
X161318458Y-101374580D01*
X161318458Y-101374580D02*
X161366077Y-101279342D01*
X161366077Y-101279342D02*
X161366077Y-100993628D01*
X161366077Y-100993628D02*
X161318458Y-100898390D01*
X161318458Y-100898390D02*
X161270839Y-100850771D01*
X161270839Y-100850771D02*
X161175601Y-100803152D01*
X161175601Y-100803152D02*
X160985125Y-100803152D01*
X160985125Y-100803152D02*
X160889887Y-100850771D01*
X151428220Y-93183152D02*
X151428220Y-93849819D01*
X151428220Y-93278390D02*
X151380601Y-93230771D01*
X151380601Y-93230771D02*
X151285363Y-93183152D01*
X151285363Y-93183152D02*
X151142506Y-93183152D01*
X151142506Y-93183152D02*
X151047268Y-93230771D01*
X151047268Y-93230771D02*
X150999649Y-93326009D01*
X150999649Y-93326009D02*
X150999649Y-93849819D01*
X150094887Y-93802200D02*
X150190125Y-93849819D01*
X150190125Y-93849819D02*
X150380601Y-93849819D01*
X150380601Y-93849819D02*
X150475839Y-93802200D01*
X150475839Y-93802200D02*
X150523458Y-93754580D01*
X150523458Y-93754580D02*
X150571077Y-93659342D01*
X150571077Y-93659342D02*
X150571077Y-93373628D01*
X150571077Y-93373628D02*
X150523458Y-93278390D01*
X150523458Y-93278390D02*
X150475839Y-93230771D01*
X150475839Y-93230771D02*
X150380601Y-93183152D01*
X150380601Y-93183152D02*
X150190125Y-93183152D01*
X150190125Y-93183152D02*
X150094887Y-93230771D01*
X151428220Y-105883152D02*
X151428220Y-106549819D01*
X151428220Y-105978390D02*
X151380601Y-105930771D01*
X151380601Y-105930771D02*
X151285363Y-105883152D01*
X151285363Y-105883152D02*
X151142506Y-105883152D01*
X151142506Y-105883152D02*
X151047268Y-105930771D01*
X151047268Y-105930771D02*
X150999649Y-106026009D01*
X150999649Y-106026009D02*
X150999649Y-106549819D01*
X150094887Y-106502200D02*
X150190125Y-106549819D01*
X150190125Y-106549819D02*
X150380601Y-106549819D01*
X150380601Y-106549819D02*
X150475839Y-106502200D01*
X150475839Y-106502200D02*
X150523458Y-106454580D01*
X150523458Y-106454580D02*
X150571077Y-106359342D01*
X150571077Y-106359342D02*
X150571077Y-106073628D01*
X150571077Y-106073628D02*
X150523458Y-105978390D01*
X150523458Y-105978390D02*
X150475839Y-105930771D01*
X150475839Y-105930771D02*
X150380601Y-105883152D01*
X150380601Y-105883152D02*
X150190125Y-105883152D01*
X150190125Y-105883152D02*
X150094887Y-105930771D01*
X151428220Y-108423152D02*
X151428220Y-109089819D01*
X151428220Y-108518390D02*
X151380601Y-108470771D01*
X151380601Y-108470771D02*
X151285363Y-108423152D01*
X151285363Y-108423152D02*
X151142506Y-108423152D01*
X151142506Y-108423152D02*
X151047268Y-108470771D01*
X151047268Y-108470771D02*
X150999649Y-108566009D01*
X150999649Y-108566009D02*
X150999649Y-109089819D01*
X150094887Y-109042200D02*
X150190125Y-109089819D01*
X150190125Y-109089819D02*
X150380601Y-109089819D01*
X150380601Y-109089819D02*
X150475839Y-109042200D01*
X150475839Y-109042200D02*
X150523458Y-108994580D01*
X150523458Y-108994580D02*
X150571077Y-108899342D01*
X150571077Y-108899342D02*
X150571077Y-108613628D01*
X150571077Y-108613628D02*
X150523458Y-108518390D01*
X150523458Y-108518390D02*
X150475839Y-108470771D01*
X150475839Y-108470771D02*
X150380601Y-108423152D01*
X150380601Y-108423152D02*
X150190125Y-108423152D01*
X150190125Y-108423152D02*
X150094887Y-108470771D01*
X161699411Y-105597438D02*
X161794649Y-105549819D01*
X161794649Y-105549819D02*
X161937506Y-105549819D01*
X161937506Y-105549819D02*
X162080363Y-105597438D01*
X162080363Y-105597438D02*
X162175601Y-105692676D01*
X162175601Y-105692676D02*
X162223220Y-105787914D01*
X162223220Y-105787914D02*
X162270839Y-105978390D01*
X162270839Y-105978390D02*
X162270839Y-106121247D01*
X162270839Y-106121247D02*
X162223220Y-106311723D01*
X162223220Y-106311723D02*
X162175601Y-106406961D01*
X162175601Y-106406961D02*
X162080363Y-106502200D01*
X162080363Y-106502200D02*
X161937506Y-106549819D01*
X161937506Y-106549819D02*
X161842268Y-106549819D01*
X161842268Y-106549819D02*
X161699411Y-106502200D01*
X161699411Y-106502200D02*
X161651792Y-106454580D01*
X161651792Y-106454580D02*
X161651792Y-106121247D01*
X161651792Y-106121247D02*
X161842268Y-106121247D01*
X161223220Y-106549819D02*
X161223220Y-105549819D01*
X161223220Y-105549819D02*
X160651792Y-106549819D01*
X160651792Y-106549819D02*
X160651792Y-105549819D01*
X160175601Y-106549819D02*
X160175601Y-105549819D01*
X160175601Y-105549819D02*
X159937506Y-105549819D01*
X159937506Y-105549819D02*
X159794649Y-105597438D01*
X159794649Y-105597438D02*
X159699411Y-105692676D01*
X159699411Y-105692676D02*
X159651792Y-105787914D01*
X159651792Y-105787914D02*
X159604173Y-105978390D01*
X159604173Y-105978390D02*
X159604173Y-106121247D01*
X159604173Y-106121247D02*
X159651792Y-106311723D01*
X159651792Y-106311723D02*
X159699411Y-106406961D01*
X159699411Y-106406961D02*
X159794649Y-106502200D01*
X159794649Y-106502200D02*
X159937506Y-106549819D01*
X159937506Y-106549819D02*
X160175601Y-106549819D01*
X151428220Y-95723152D02*
X151428220Y-96389819D01*
X151428220Y-95818390D02*
X151380601Y-95770771D01*
X151380601Y-95770771D02*
X151285363Y-95723152D01*
X151285363Y-95723152D02*
X151142506Y-95723152D01*
X151142506Y-95723152D02*
X151047268Y-95770771D01*
X151047268Y-95770771D02*
X150999649Y-95866009D01*
X150999649Y-95866009D02*
X150999649Y-96389819D01*
X150094887Y-96342200D02*
X150190125Y-96389819D01*
X150190125Y-96389819D02*
X150380601Y-96389819D01*
X150380601Y-96389819D02*
X150475839Y-96342200D01*
X150475839Y-96342200D02*
X150523458Y-96294580D01*
X150523458Y-96294580D02*
X150571077Y-96199342D01*
X150571077Y-96199342D02*
X150571077Y-95913628D01*
X150571077Y-95913628D02*
X150523458Y-95818390D01*
X150523458Y-95818390D02*
X150475839Y-95770771D01*
X150475839Y-95770771D02*
X150380601Y-95723152D01*
X150380601Y-95723152D02*
X150190125Y-95723152D01*
X150190125Y-95723152D02*
X150094887Y-95770771D01*
X162223220Y-108423152D02*
X162223220Y-109089819D01*
X162223220Y-108518390D02*
X162175601Y-108470771D01*
X162175601Y-108470771D02*
X162080363Y-108423152D01*
X162080363Y-108423152D02*
X161937506Y-108423152D01*
X161937506Y-108423152D02*
X161842268Y-108470771D01*
X161842268Y-108470771D02*
X161794649Y-108566009D01*
X161794649Y-108566009D02*
X161794649Y-109089819D01*
X160889887Y-109042200D02*
X160985125Y-109089819D01*
X160985125Y-109089819D02*
X161175601Y-109089819D01*
X161175601Y-109089819D02*
X161270839Y-109042200D01*
X161270839Y-109042200D02*
X161318458Y-108994580D01*
X161318458Y-108994580D02*
X161366077Y-108899342D01*
X161366077Y-108899342D02*
X161366077Y-108613628D01*
X161366077Y-108613628D02*
X161318458Y-108518390D01*
X161318458Y-108518390D02*
X161270839Y-108470771D01*
X161270839Y-108470771D02*
X161175601Y-108423152D01*
X161175601Y-108423152D02*
X160985125Y-108423152D01*
X160985125Y-108423152D02*
X160889887Y-108470771D01*
X162223220Y-103343152D02*
X162223220Y-104009819D01*
X162223220Y-103438390D02*
X162175601Y-103390771D01*
X162175601Y-103390771D02*
X162080363Y-103343152D01*
X162080363Y-103343152D02*
X161937506Y-103343152D01*
X161937506Y-103343152D02*
X161842268Y-103390771D01*
X161842268Y-103390771D02*
X161794649Y-103486009D01*
X161794649Y-103486009D02*
X161794649Y-104009819D01*
X160889887Y-103962200D02*
X160985125Y-104009819D01*
X160985125Y-104009819D02*
X161175601Y-104009819D01*
X161175601Y-104009819D02*
X161270839Y-103962200D01*
X161270839Y-103962200D02*
X161318458Y-103914580D01*
X161318458Y-103914580D02*
X161366077Y-103819342D01*
X161366077Y-103819342D02*
X161366077Y-103533628D01*
X161366077Y-103533628D02*
X161318458Y-103438390D01*
X161318458Y-103438390D02*
X161270839Y-103390771D01*
X161270839Y-103390771D02*
X161175601Y-103343152D01*
X161175601Y-103343152D02*
X160985125Y-103343152D01*
X160985125Y-103343152D02*
X160889887Y-103390771D01*
X151428220Y-98263152D02*
X151428220Y-98929819D01*
X151428220Y-98358390D02*
X151380601Y-98310771D01*
X151380601Y-98310771D02*
X151285363Y-98263152D01*
X151285363Y-98263152D02*
X151142506Y-98263152D01*
X151142506Y-98263152D02*
X151047268Y-98310771D01*
X151047268Y-98310771D02*
X150999649Y-98406009D01*
X150999649Y-98406009D02*
X150999649Y-98929819D01*
X150094887Y-98882200D02*
X150190125Y-98929819D01*
X150190125Y-98929819D02*
X150380601Y-98929819D01*
X150380601Y-98929819D02*
X150475839Y-98882200D01*
X150475839Y-98882200D02*
X150523458Y-98834580D01*
X150523458Y-98834580D02*
X150571077Y-98739342D01*
X150571077Y-98739342D02*
X150571077Y-98453628D01*
X150571077Y-98453628D02*
X150523458Y-98358390D01*
X150523458Y-98358390D02*
X150475839Y-98310771D01*
X150475839Y-98310771D02*
X150380601Y-98263152D01*
X150380601Y-98263152D02*
X150190125Y-98263152D01*
X150190125Y-98263152D02*
X150094887Y-98310771D01*
M02*
