G04 #@! TF.GenerationSoftware,KiCad,Pcbnew,8.0.0-rc2-192-gade987c101*
G04 #@! TF.CreationDate,2024-01-30T18:43:20+01:00*
G04 #@! TF.ProjectId,xDuinoRail-Breakout-RailcomDetect,78447569-6e6f-4526-9169-6c2d42726561,rev?*
G04 #@! TF.SameCoordinates,Original*
G04 #@! TF.FileFunction,Copper,L1,Top*
G04 #@! TF.FilePolarity,Positive*
%FSLAX46Y46*%
G04 Gerber Fmt 4.6, Leading zero omitted, Abs format (unit mm)*
G04 Created by KiCad (PCBNEW 8.0.0-rc2-192-gade987c101) date 2024-01-30 18:43:20*
%MOMM*%
%LPD*%
G01*
G04 APERTURE LIST*
G04 Aperture macros list*
%AMRoundRect*
0 Rectangle with rounded corners*
0 $1 Rounding radius*
0 $2 $3 $4 $5 $6 $7 $8 $9 X,Y pos of 4 corners*
0 Add a 4 corners polygon primitive as box body*
4,1,4,$2,$3,$4,$5,$6,$7,$8,$9,$2,$3,0*
0 Add four circle primitives for the rounded corners*
1,1,$1+$1,$2,$3*
1,1,$1+$1,$4,$5*
1,1,$1+$1,$6,$7*
1,1,$1+$1,$8,$9*
0 Add four rect primitives between the rounded corners*
20,1,$1+$1,$2,$3,$4,$5,0*
20,1,$1+$1,$4,$5,$6,$7,0*
20,1,$1+$1,$6,$7,$8,$9,0*
20,1,$1+$1,$8,$9,$2,$3,0*%
%AMOutline4P*
0 Free polygon, 4 corners , with rotation*
0 The origin of the aperture is its center*
0 number of corners: always 4*
0 $1 to $8 corner X, Y*
0 $9 Rotation angle, in degrees counterclockwise*
0 create outline with 4 corners*
4,1,4,$1,$2,$3,$4,$5,$6,$7,$8,$1,$2,$9*%
G04 Aperture macros list end*
G04 #@! TA.AperFunction,SMDPad,CuDef*
%ADD10RoundRect,0.250000X0.350000X0.450000X-0.350000X0.450000X-0.350000X-0.450000X0.350000X-0.450000X0*%
G04 #@! TD*
G04 #@! TA.AperFunction,SMDPad,CuDef*
%ADD11RoundRect,0.250000X-0.350000X-0.450000X0.350000X-0.450000X0.350000X0.450000X-0.350000X0.450000X0*%
G04 #@! TD*
G04 #@! TA.AperFunction,SMDPad,CuDef*
%ADD12RoundRect,0.250000X0.450000X-0.350000X0.450000X0.350000X-0.450000X0.350000X-0.450000X-0.350000X0*%
G04 #@! TD*
G04 #@! TA.AperFunction,SMDPad,CuDef*
%ADD13Outline4P,-1.800000X-1.150000X1.800000X-0.550000X1.800000X0.550000X-1.800000X1.150000X90.000000*%
G04 #@! TD*
G04 #@! TA.AperFunction,SMDPad,CuDef*
%ADD14Outline4P,-1.800000X-1.150000X1.800000X-0.550000X1.800000X0.550000X-1.800000X1.150000X270.000000*%
G04 #@! TD*
G04 #@! TA.AperFunction,SMDPad,CuDef*
%ADD15RoundRect,0.250000X-0.450000X0.350000X-0.450000X-0.350000X0.450000X-0.350000X0.450000X0.350000X0*%
G04 #@! TD*
G04 #@! TA.AperFunction,SMDPad,CuDef*
%ADD16RoundRect,0.150000X0.150000X-0.825000X0.150000X0.825000X-0.150000X0.825000X-0.150000X-0.825000X0*%
G04 #@! TD*
G04 #@! TA.AperFunction,SMDPad,CuDef*
%ADD17RoundRect,0.250000X-0.475000X0.337500X-0.475000X-0.337500X0.475000X-0.337500X0.475000X0.337500X0*%
G04 #@! TD*
G04 #@! TA.AperFunction,SMDPad,CuDef*
%ADD18Outline4P,-1.800000X-1.150000X1.800000X-0.550000X1.800000X0.550000X-1.800000X1.150000X0.000000*%
G04 #@! TD*
G04 #@! TA.AperFunction,SMDPad,CuDef*
%ADD19Outline4P,-1.800000X-1.150000X1.800000X-0.550000X1.800000X0.550000X-1.800000X1.150000X180.000000*%
G04 #@! TD*
G04 #@! TA.AperFunction,ComponentPad*
%ADD20R,1.700000X1.700000*%
G04 #@! TD*
G04 #@! TA.AperFunction,ComponentPad*
%ADD21O,1.700000X1.700000*%
G04 #@! TD*
G04 #@! TA.AperFunction,ViaPad*
%ADD22C,0.800000*%
G04 #@! TD*
G04 #@! TA.AperFunction,Conductor*
%ADD23C,0.400000*%
G04 #@! TD*
G04 #@! TA.AperFunction,Conductor*
%ADD24C,1.000000*%
G04 #@! TD*
G04 APERTURE END LIST*
D10*
G04 #@! TO.P,R2403,1*
G04 #@! TO.N,/centrale-railcom-feedback/central_railcom-detector/RAILCOM_A1*
X160385000Y-112395000D03*
G04 #@! TO.P,R2403,2*
G04 #@! TO.N,+3V3*
X158385000Y-112395000D03*
G04 #@! TD*
D11*
G04 #@! TO.P,R2402,1*
G04 #@! TO.N,/TRACK_B0*
X152077500Y-101922500D03*
G04 #@! TO.P,R2402,2*
G04 #@! TO.N,/DCC0*
X154077500Y-101922500D03*
G04 #@! TD*
D12*
G04 #@! TO.P,R2304,1*
G04 #@! TO.N,GND*
X175647800Y-113012700D03*
G04 #@! TO.P,R2304,2*
G04 #@! TO.N,18mV*
X175647800Y-111012700D03*
G04 #@! TD*
D13*
G04 #@! TO.P,D2301,1,K*
G04 #@! TO.N,Net-(D2301-K)*
X175260000Y-97240000D03*
D14*
G04 #@! TO.P,D2301,2,A*
G04 #@! TO.N,/DCC0*
X175260000Y-91440000D03*
G04 #@! TD*
D15*
G04 #@! TO.P,R301,2*
G04 #@! TO.N,Net-(R301-Pad2)*
X163195000Y-103600000D03*
G04 #@! TO.P,R301,1*
G04 #@! TO.N,Net-(R301-Pad1)*
X163195000Y-101600000D03*
G04 #@! TD*
D10*
G04 #@! TO.P,R2406,1*
G04 #@! TO.N,/centrale-railcom-feedback/central_railcom-detector/RAILCOM_B0*
X160532200Y-109176500D03*
G04 #@! TO.P,R2406,2*
G04 #@! TO.N,+3V3*
X158532200Y-109176500D03*
G04 #@! TD*
D11*
G04 #@! TO.P,R302,1*
G04 #@! TO.N,Net-(R301-Pad2)*
X163252200Y-105410000D03*
G04 #@! TO.P,R302,2*
G04 #@! TO.N,-750mV*
X165252200Y-105410000D03*
G04 #@! TD*
D14*
G04 #@! TO.P,D2403,1,K*
G04 #@! TO.N,/DCC0*
X152400000Y-91440000D03*
D13*
G04 #@! TO.P,D2403,2,A*
G04 #@! TO.N,/TRACK_B0*
X152400000Y-97240000D03*
G04 #@! TD*
D12*
G04 #@! TO.P,R2303,1*
G04 #@! TO.N,18mV*
X175647800Y-109107700D03*
G04 #@! TO.P,R2303,2*
G04 #@! TO.N,+3V3*
X175647800Y-107107700D03*
G04 #@! TD*
D11*
G04 #@! TO.P,R2305,1*
G04 #@! TO.N,-18mV*
X171355000Y-105410000D03*
G04 #@! TO.P,R2305,2*
G04 #@! TO.N,GND*
X173355000Y-105410000D03*
G04 #@! TD*
D15*
G04 #@! TO.P,R2302,1*
G04 #@! TO.N,GND*
X170815000Y-96520000D03*
G04 #@! TO.P,R2302,2*
G04 #@! TO.N,Net-(D2302-A)*
X170815000Y-98520000D03*
G04 #@! TD*
D13*
G04 #@! TO.P,D2404,1,K*
G04 #@! TO.N,/TRACK_B0*
X147320000Y-97240000D03*
D14*
G04 #@! TO.P,D2404,2,A*
G04 #@! TO.N,/DCC0*
X147320000Y-91440000D03*
G04 #@! TD*
D13*
G04 #@! TO.P,D2401,1,K*
G04 #@! TO.N,/DCC0*
X147320000Y-112350000D03*
D14*
G04 #@! TO.P,D2401,2,A*
G04 #@! TO.N,/TRACK_A0*
X147320000Y-106550000D03*
G04 #@! TD*
D16*
G04 #@! TO.P,U2401,1*
G04 #@! TO.N,/centrale-railcom-feedback/central_railcom-detector/RAILCOM_A1*
X164465000Y-112900000D03*
G04 #@! TO.P,U2401,2*
G04 #@! TO.N,/centrale-railcom-feedback/central_railcom-detector/RAILCOM_A0*
X165735000Y-112900000D03*
G04 #@! TO.P,U2401,3,V+*
G04 #@! TO.N,+3V3*
X167005000Y-112900000D03*
G04 #@! TO.P,U2401,4,-*
G04 #@! TO.N,-18mV*
X168275000Y-112900000D03*
G04 #@! TO.P,U2401,5,+*
G04 #@! TO.N,/TRACK_A0*
X169545000Y-112900000D03*
G04 #@! TO.P,U2401,6,-*
X170815000Y-112900000D03*
G04 #@! TO.P,U2401,7,+*
G04 #@! TO.N,18mV*
X172085000Y-112900000D03*
G04 #@! TO.P,U2401,8,-*
X172085000Y-107950000D03*
G04 #@! TO.P,U2401,9,+*
G04 #@! TO.N,/TRACK_B0*
X170815000Y-107950000D03*
G04 #@! TO.P,U2401,10,-*
X169545000Y-107950000D03*
G04 #@! TO.P,U2401,11,+*
G04 #@! TO.N,-18mV*
X168275000Y-107950000D03*
G04 #@! TO.P,U2401,12,V-*
G04 #@! TO.N,-750mV*
X167005000Y-107950000D03*
G04 #@! TO.P,U2401,13*
G04 #@! TO.N,/centrale-railcom-feedback/central_railcom-detector/RAILCOM_B0*
X165735000Y-107950000D03*
G04 #@! TO.P,U2401,14*
G04 #@! TO.N,/centrale-railcom-feedback/central_railcom-detector/RAILCOM_B1*
X164465000Y-107950000D03*
G04 #@! TD*
D11*
G04 #@! TO.P,R2404,1*
G04 #@! TO.N,/centrale-railcom-feedback/central_railcom-detector/RAILCOM_A0*
X158655000Y-103505000D03*
G04 #@! TO.P,R2404,2*
G04 #@! TO.N,+3V3*
X160655000Y-103505000D03*
G04 #@! TD*
D16*
G04 #@! TO.P,U2501,1*
G04 #@! TO.N,/RAILCOM0*
X160020000Y-97660000D03*
G04 #@! TO.P,U2501,2*
G04 #@! TO.N,/centrale-railcom-feedback/central_railcom-detector/RAILCOM_B0*
X161290000Y-97660000D03*
G04 #@! TO.P,U2501,3*
G04 #@! TO.N,/centrale-railcom-feedback/central_railcom-detector/RAILCOM_B1*
X162560000Y-97660000D03*
G04 #@! TO.P,U2501,4*
G04 #@! TO.N,/RAILCOM1*
X163830000Y-97660000D03*
G04 #@! TO.P,U2501,5*
G04 #@! TO.N,/centrale-railcom-feedback/central_railcom-detector/RAILCOM_A0*
X165100000Y-97660000D03*
G04 #@! TO.P,U2501,6*
G04 #@! TO.N,/centrale-railcom-feedback/central_railcom-detector/RAILCOM_A1*
X166370000Y-97660000D03*
G04 #@! TO.P,U2501,7,GND*
G04 #@! TO.N,GND*
X167640000Y-97660000D03*
G04 #@! TO.P,U2501,8*
G04 #@! TO.N,/centrale-railcom-feedback/central_railcom-merger/RAILCOM_C0*
X167640000Y-92710000D03*
G04 #@! TO.P,U2501,9*
G04 #@! TO.N,/centrale-railcom-feedback/central_railcom-merger/RAILCOM_C1*
X166370000Y-92710000D03*
G04 #@! TO.P,U2501,10*
G04 #@! TO.N,/RAILCOM2*
X165100000Y-92710000D03*
G04 #@! TO.P,U2501,11*
G04 #@! TO.N,/centrale-railcom-feedback/central_railcom-merger/RAILCOM_D0*
X163830000Y-92710000D03*
G04 #@! TO.P,U2501,12*
G04 #@! TO.N,/centrale-railcom-feedback/central_railcom-merger/RAILCOM_D1*
X162560000Y-92710000D03*
G04 #@! TO.P,U2501,13*
G04 #@! TO.N,/RAILCOM3*
X161290000Y-92710000D03*
G04 #@! TO.P,U2501,14,VCC*
G04 #@! TO.N,+3V3*
X160020000Y-92710000D03*
G04 #@! TD*
D17*
G04 #@! TO.P,C2301,1*
G04 #@! TO.N,/DCC0*
X157480000Y-90170000D03*
G04 #@! TO.P,C2301,2*
G04 #@! TO.N,GND*
X157480000Y-92245000D03*
G04 #@! TD*
D10*
G04 #@! TO.P,R2401,1*
G04 #@! TO.N,/TRACK_A0*
X148952500Y-102144700D03*
G04 #@! TO.P,R2401,2*
G04 #@! TO.N,/DCC0*
X146952500Y-102144700D03*
G04 #@! TD*
D15*
G04 #@! TO.P,R2301,1*
G04 #@! TO.N,Net-(D2301-K)*
X170815000Y-92710000D03*
G04 #@! TO.P,R2301,2*
G04 #@! TO.N,GND*
X170815000Y-94710000D03*
G04 #@! TD*
D18*
G04 #@! TO.P,D2302,1,K*
G04 #@! TO.N,-750mV*
X166969500Y-102105000D03*
D19*
G04 #@! TO.P,D2302,2,A*
G04 #@! TO.N,Net-(D2302-A)*
X172769500Y-102105000D03*
G04 #@! TD*
D11*
G04 #@! TO.P,R303,1*
G04 #@! TO.N,Net-(R301-Pad1)*
X167062200Y-105410000D03*
G04 #@! TO.P,R303,2*
G04 #@! TO.N,-18mV*
X169062200Y-105410000D03*
G04 #@! TD*
D14*
G04 #@! TO.P,D2402,1,K*
G04 #@! TO.N,/TRACK_A0*
X152400000Y-106595000D03*
D13*
G04 #@! TO.P,D2402,2,A*
G04 #@! TO.N,/DCC0*
X152400000Y-112395000D03*
G04 #@! TD*
D20*
G04 #@! TO.P,J101,1,Pin_1*
G04 #@! TO.N,/TRACK_B0*
X140970000Y-113665000D03*
D21*
G04 #@! TO.P,J101,2,Pin_2*
G04 #@! TO.N,/RAILCOM1*
X138430000Y-113665000D03*
G04 #@! TO.P,J101,3,Pin_3*
G04 #@! TO.N,/TRACK_A0*
X140970000Y-111125000D03*
G04 #@! TO.P,J101,4,Pin_4*
G04 #@! TO.N,/RAILCOM0*
X138430000Y-111125000D03*
G04 #@! TO.P,J101,5,Pin_5*
G04 #@! TO.N,unconnected-(J101-Pin_5-Pad5)*
X140970000Y-108585000D03*
G04 #@! TO.P,J101,6,Pin_6*
G04 #@! TO.N,unconnected-(J101-Pin_6-Pad6)*
X138430000Y-108585000D03*
G04 #@! TO.P,J101,7,Pin_7*
G04 #@! TO.N,GND*
X140970000Y-106045000D03*
G04 #@! TO.P,J101,8,Pin_8*
G04 #@! TO.N,unconnected-(J101-Pin_8-Pad8)*
X138430000Y-106045000D03*
G04 #@! TO.P,J101,9,Pin_9*
G04 #@! TO.N,unconnected-(J101-Pin_9-Pad9)*
X140970000Y-103505000D03*
G04 #@! TO.P,J101,10,Pin_10*
G04 #@! TO.N,unconnected-(J101-Pin_10-Pad10)*
X138430000Y-103505000D03*
G04 #@! TO.P,J101,11,Pin_11*
G04 #@! TO.N,unconnected-(J101-Pin_11-Pad11)*
X140970000Y-100965000D03*
G04 #@! TO.P,J101,12,Pin_12*
G04 #@! TO.N,unconnected-(J101-Pin_12-Pad12)*
X138430000Y-100965000D03*
G04 #@! TO.P,J101,13,Pin_13*
G04 #@! TO.N,GND*
X140970000Y-98425000D03*
G04 #@! TO.P,J101,14,Pin_14*
G04 #@! TO.N,unconnected-(J101-Pin_14-Pad14)*
X138430000Y-98425000D03*
G04 #@! TO.P,J101,15,Pin_15*
G04 #@! TO.N,+3V3*
X140970000Y-95885000D03*
G04 #@! TO.P,J101,16,Pin_16*
G04 #@! TO.N,unconnected-(J101-Pin_16-Pad16)*
X138430000Y-95885000D03*
G04 #@! TO.P,J101,17,Pin_17*
G04 #@! TO.N,/DCC0*
X140970000Y-93345000D03*
G04 #@! TO.P,J101,18,Pin_18*
G04 #@! TO.N,unconnected-(J101-Pin_18-Pad18)*
X138430000Y-93345000D03*
G04 #@! TO.P,J101,19,Pin_19*
G04 #@! TO.N,/DCC1*
X140970000Y-90805000D03*
G04 #@! TO.P,J101,20,Pin_20*
G04 #@! TO.N,unconnected-(J101-Pin_20-Pad20)*
X138430000Y-90805000D03*
G04 #@! TD*
D10*
G04 #@! TO.P,R2405,1*
G04 #@! TO.N,/centrale-railcom-feedback/central_railcom-detector/RAILCOM_B1*
X160532200Y-106636500D03*
G04 #@! TO.P,R2405,2*
G04 #@! TO.N,+3V3*
X158532200Y-106636500D03*
G04 #@! TD*
D22*
G04 #@! TO.N,/RAILCOM0*
X158858500Y-98355500D03*
G04 #@! TO.N,GND*
X157480000Y-93440300D03*
X175647800Y-114253200D03*
X174588900Y-105410000D03*
X168563900Y-97014200D03*
G04 #@! TO.N,/RAILCOM1*
X158273000Y-100495200D03*
G04 #@! TO.N,+3V3*
X173663800Y-107391900D03*
X161208500Y-101219600D03*
X157343600Y-96388100D03*
G04 #@! TO.N,/centrale-railcom-feedback/central_railcom-detector/RAILCOM_B0*
X162842000Y-108129300D03*
X160593900Y-99837400D03*
G04 #@! TO.N,/TRACK_B0*
X152746600Y-103709200D03*
X169176700Y-110597200D03*
G04 #@! TD*
D23*
G04 #@! TO.N,/RAILCOM0*
X158858500Y-98355500D02*
X159324500Y-98355500D01*
X159324500Y-98355500D02*
X160020000Y-97660000D01*
G04 #@! TO.N,GND*
X170320800Y-97014200D02*
X170815000Y-96520000D01*
X170815000Y-94710000D02*
X170815000Y-96520000D01*
X175647800Y-113012700D02*
X175647800Y-114253200D01*
X157480000Y-93440300D02*
X157480000Y-92245000D01*
X174588900Y-105410000D02*
X173355000Y-105410000D01*
X168563900Y-97014200D02*
X170320800Y-97014200D01*
X167640000Y-97660000D02*
X168285800Y-97014200D01*
X168285800Y-97014200D02*
X168563900Y-97014200D01*
G04 #@! TO.N,/RAILCOM1*
X163830000Y-97660000D02*
X163830000Y-97173900D01*
X158056800Y-100279000D02*
X158273000Y-100495200D01*
X158056800Y-97859500D02*
X158056800Y-100279000D01*
X162906100Y-96250000D02*
X159666300Y-96250000D01*
X163830000Y-97173900D02*
X162906100Y-96250000D01*
X159666300Y-96250000D02*
X158056800Y-97859500D01*
G04 #@! TO.N,+3V3*
X160655000Y-104513700D02*
X160655000Y-103505000D01*
X160655000Y-101773100D02*
X160655000Y-103505000D01*
X161208500Y-101219600D02*
X160655000Y-101773100D01*
X175363600Y-107391900D02*
X175647800Y-107107700D01*
X156853400Y-110863400D02*
X158385000Y-112395000D01*
X158532200Y-109176500D02*
X158532200Y-106636500D01*
X156853400Y-96878300D02*
X156853400Y-110863400D01*
X173663800Y-107391900D02*
X175363600Y-107391900D01*
X167005000Y-112378900D02*
X165245500Y-110619400D01*
X165245500Y-110619400D02*
X159975100Y-110619400D01*
X160020000Y-92710000D02*
X160020000Y-93711700D01*
X167005000Y-112900000D02*
X167005000Y-112378900D01*
X158532200Y-106636500D02*
X160655000Y-104513700D01*
X160020000Y-93711700D02*
X157343600Y-96388100D01*
X159975100Y-110619400D02*
X158532200Y-109176500D01*
X157343600Y-96388100D02*
X156853400Y-96878300D01*
G04 #@! TO.N,18mV*
X173242700Y-109107700D02*
X175647800Y-109107700D01*
X173242700Y-109107700D02*
X172085000Y-110265400D01*
X175647800Y-109107700D02*
X175647800Y-111012700D01*
X172085000Y-110265400D02*
X172085000Y-112900000D01*
X172085000Y-107950000D02*
X173242700Y-109107700D01*
G04 #@! TO.N,-750mV*
X165252200Y-103822300D02*
X165252200Y-105410000D01*
X167005000Y-107950000D02*
X167005000Y-107162800D01*
X166969500Y-102105000D02*
X165252200Y-103822300D01*
X167005000Y-107162800D02*
X165252200Y-105410000D01*
D24*
G04 #@! TO.N,/DCC0*
X140970000Y-93345000D02*
X145415000Y-93345000D01*
X154251700Y-102096700D02*
X154251700Y-110498300D01*
X154077500Y-101922500D02*
X154251700Y-102096700D01*
X154279100Y-101720900D02*
X154077500Y-101922500D01*
X152400000Y-91440000D02*
X147320000Y-91440000D01*
X154279100Y-93319100D02*
X154279100Y-101720900D01*
X152400000Y-91440000D02*
X153797000Y-92836900D01*
X145415000Y-93345000D02*
X145415000Y-100607200D01*
X175260000Y-91440000D02*
X173990000Y-90170000D01*
X153797000Y-92836900D02*
X154279100Y-93319100D01*
X173990000Y-90170000D02*
X157480000Y-90170000D01*
X156463900Y-90170000D02*
X153797000Y-92836900D01*
X157480000Y-90170000D02*
X156463900Y-90170000D01*
X154251700Y-110498300D02*
X152400000Y-112350000D01*
X152400000Y-112350000D02*
X147320000Y-112350000D01*
X145415000Y-93345000D02*
X147320000Y-91440000D01*
X152400000Y-112350000D02*
X152400000Y-112395000D01*
X145415000Y-100607200D02*
X146952500Y-102144700D01*
D23*
G04 #@! TO.N,-18mV*
X168275000Y-106197200D02*
X168275000Y-107950000D01*
X168275000Y-107950000D02*
X168275000Y-112900000D01*
X171355000Y-105410000D02*
X169062200Y-105410000D01*
X169062200Y-105410000D02*
X168275000Y-106197200D01*
G04 #@! TO.N,Net-(D2301-K)*
X175260000Y-97240000D02*
X170815000Y-92795000D01*
X170815000Y-92795000D02*
X170815000Y-92710000D01*
G04 #@! TO.N,Net-(D2302-A)*
X172769500Y-102105000D02*
X170815000Y-100150500D01*
X170815000Y-100150500D02*
X170815000Y-98520000D01*
G04 #@! TO.N,/centrale-railcom-feedback/central_railcom-detector/RAILCOM_A1*
X167953600Y-91207500D02*
X168384300Y-91638200D01*
X160890000Y-112900000D02*
X160385000Y-112395000D01*
X160385000Y-112395000D02*
X159273000Y-113507000D01*
X166370000Y-95766600D02*
X166370000Y-97660000D01*
X164465000Y-112900000D02*
X160890000Y-112900000D01*
X168384300Y-93752300D02*
X166370000Y-95766600D01*
X157755500Y-113507000D02*
X156228000Y-111979500D01*
X156716200Y-91207500D02*
X167953600Y-91207500D01*
X156228000Y-91695700D02*
X156716200Y-91207500D01*
X168384300Y-91638200D02*
X168384300Y-93752300D01*
X159273000Y-113507000D02*
X157755500Y-113507000D01*
X156228000Y-111979500D02*
X156228000Y-91695700D01*
G04 #@! TO.N,/centrale-railcom-feedback/central_railcom-detector/RAILCOM_A0*
X159417200Y-95648300D02*
X157455100Y-97610400D01*
X157455100Y-97610400D02*
X157455100Y-102305100D01*
X165735000Y-112900000D02*
X165735000Y-112365200D01*
X164646000Y-111276200D02*
X158882100Y-111276200D01*
X165735000Y-112365200D02*
X164646000Y-111276200D01*
X157512700Y-109906800D02*
X157512700Y-104647300D01*
X157455100Y-102305100D02*
X158655000Y-103505000D01*
X157512700Y-104647300D02*
X158655000Y-103505000D01*
X165100000Y-97660000D02*
X165100000Y-97169300D01*
X163579000Y-95648300D02*
X159417200Y-95648300D01*
X158882100Y-111276200D02*
X157512700Y-109906800D01*
X165100000Y-97169300D02*
X163579000Y-95648300D01*
G04 #@! TO.N,/centrale-railcom-feedback/central_railcom-detector/RAILCOM_B1*
X160532200Y-106636500D02*
X160944100Y-106636500D01*
X161821800Y-105758800D02*
X162010200Y-105570400D01*
X162010200Y-105570400D02*
X162010200Y-98209800D01*
X164465000Y-107950000D02*
X164013000Y-107950000D01*
X162010200Y-98209800D02*
X162560000Y-97660000D01*
X164013000Y-107950000D02*
X161821800Y-105758800D01*
X160944100Y-106636500D02*
X161821800Y-105758800D01*
G04 #@! TO.N,/centrale-railcom-feedback/central_railcom-detector/RAILCOM_B0*
X165735000Y-107950000D02*
X165735000Y-108436100D01*
X162842000Y-108129300D02*
X162842000Y-108728300D01*
X161290000Y-99141300D02*
X160593900Y-99837400D01*
X163441000Y-109327300D02*
X162842000Y-108728300D01*
X165735000Y-108436100D02*
X164843800Y-109327300D01*
X162842000Y-108728300D02*
X160980400Y-108728300D01*
X164843800Y-109327300D02*
X163441000Y-109327300D01*
X160980400Y-108728300D02*
X160532200Y-109176500D01*
X161290000Y-97660000D02*
X161290000Y-99141300D01*
D24*
G04 #@! TO.N,/TRACK_A0*
X169545000Y-113829400D02*
X169545000Y-112900000D01*
X169545000Y-112900000D02*
X170815000Y-112900000D01*
X140970000Y-111125000D02*
X142745000Y-111125000D01*
X142745000Y-111797300D02*
X145858800Y-114911100D01*
X168463300Y-114911100D02*
X169545000Y-113829400D01*
X142745000Y-111125000D02*
X142745000Y-111797300D01*
X147320000Y-106550000D02*
X148952500Y-104917500D01*
X148952500Y-104917500D02*
X148952500Y-102144700D01*
X152400000Y-106595000D02*
X150630000Y-106595000D01*
X145858800Y-114911100D02*
X168463300Y-114911100D01*
X150630000Y-106595000D02*
X148952500Y-104917500D01*
X142745000Y-111125000D02*
X147320000Y-106550000D01*
G04 #@! TO.N,/TRACK_B0*
X169545000Y-110228900D02*
X169176700Y-110597200D01*
X152077500Y-97562500D02*
X147642500Y-97562500D01*
X152077500Y-97562500D02*
X152400000Y-97240000D01*
X152746600Y-103709200D02*
X152077500Y-103040100D01*
X169545000Y-107950000D02*
X169545000Y-110228900D01*
X152077500Y-101922500D02*
X152077500Y-97562500D01*
X147642500Y-97562500D02*
X147320000Y-97240000D01*
X169545000Y-107950000D02*
X170815000Y-107950000D01*
X152077500Y-103040100D02*
X152077500Y-101922500D01*
D23*
G04 #@! TO.N,Net-(R301-Pad1)*
X168316400Y-100523800D02*
X169199100Y-101406500D01*
X169199100Y-101406500D02*
X169199100Y-103273100D01*
X169199100Y-103273100D02*
X167062200Y-105410000D01*
X163195000Y-101600000D02*
X164271200Y-100523800D01*
X164271200Y-100523800D02*
X168316400Y-100523800D01*
G04 #@! TO.N,Net-(R301-Pad2)*
X163195000Y-103600000D02*
X163252200Y-103657200D01*
X163252200Y-103657200D02*
X163252200Y-105410000D01*
G04 #@! TD*
M02*
