G04 #@! TF.GenerationSoftware,KiCad,Pcbnew,8.0.0-rc2-192-gade987c101*
G04 #@! TF.CreationDate,2024-01-30T18:43:21+01:00*
G04 #@! TF.ProjectId,xDuinoRail-Breakout-RailcomDetect,78447569-6e6f-4526-9169-6c2d42726561,rev?*
G04 #@! TF.SameCoordinates,Original*
G04 #@! TF.FileFunction,Soldermask,Top*
G04 #@! TF.FilePolarity,Negative*
%FSLAX46Y46*%
G04 Gerber Fmt 4.6, Leading zero omitted, Abs format (unit mm)*
G04 Created by KiCad (PCBNEW 8.0.0-rc2-192-gade987c101) date 2024-01-30 18:43:21*
%MOMM*%
%LPD*%
G01*
G04 APERTURE LIST*
G04 Aperture macros list*
%AMRoundRect*
0 Rectangle with rounded corners*
0 $1 Rounding radius*
0 $2 $3 $4 $5 $6 $7 $8 $9 X,Y pos of 4 corners*
0 Add a 4 corners polygon primitive as box body*
4,1,4,$2,$3,$4,$5,$6,$7,$8,$9,$2,$3,0*
0 Add four circle primitives for the rounded corners*
1,1,$1+$1,$2,$3*
1,1,$1+$1,$4,$5*
1,1,$1+$1,$6,$7*
1,1,$1+$1,$8,$9*
0 Add four rect primitives between the rounded corners*
20,1,$1+$1,$2,$3,$4,$5,0*
20,1,$1+$1,$4,$5,$6,$7,0*
20,1,$1+$1,$6,$7,$8,$9,0*
20,1,$1+$1,$8,$9,$2,$3,0*%
%AMOutline4P*
0 Free polygon, 4 corners , with rotation*
0 The origin of the aperture is its center*
0 number of corners: always 4*
0 $1 to $8 corner X, Y*
0 $9 Rotation angle, in degrees counterclockwise*
0 create outline with 4 corners*
4,1,4,$1,$2,$3,$4,$5,$6,$7,$8,$1,$2,$9*%
G04 Aperture macros list end*
%ADD10RoundRect,0.250000X0.350000X0.450000X-0.350000X0.450000X-0.350000X-0.450000X0.350000X-0.450000X0*%
%ADD11RoundRect,0.250000X-0.350000X-0.450000X0.350000X-0.450000X0.350000X0.450000X-0.350000X0.450000X0*%
%ADD12RoundRect,0.250000X0.450000X-0.350000X0.450000X0.350000X-0.450000X0.350000X-0.450000X-0.350000X0*%
%ADD13Outline4P,-1.800000X-1.150000X1.800000X-0.550000X1.800000X0.550000X-1.800000X1.150000X90.000000*%
%ADD14Outline4P,-1.800000X-1.150000X1.800000X-0.550000X1.800000X0.550000X-1.800000X1.150000X270.000000*%
%ADD15RoundRect,0.250000X-0.450000X0.350000X-0.450000X-0.350000X0.450000X-0.350000X0.450000X0.350000X0*%
%ADD16RoundRect,0.150000X0.150000X-0.825000X0.150000X0.825000X-0.150000X0.825000X-0.150000X-0.825000X0*%
%ADD17RoundRect,0.250000X-0.475000X0.337500X-0.475000X-0.337500X0.475000X-0.337500X0.475000X0.337500X0*%
%ADD18Outline4P,-1.800000X-1.150000X1.800000X-0.550000X1.800000X0.550000X-1.800000X1.150000X0.000000*%
%ADD19Outline4P,-1.800000X-1.150000X1.800000X-0.550000X1.800000X0.550000X-1.800000X1.150000X180.000000*%
%ADD20R,1.700000X1.700000*%
%ADD21O,1.700000X1.700000*%
G04 APERTURE END LIST*
D10*
G04 #@! TO.C,R2403*
X160385000Y-112395000D03*
X158385000Y-112395000D03*
G04 #@! TD*
D11*
G04 #@! TO.C,R2402*
X152077500Y-101922500D03*
X154077500Y-101922500D03*
G04 #@! TD*
D12*
G04 #@! TO.C,R2304*
X175647800Y-113012700D03*
X175647800Y-111012700D03*
G04 #@! TD*
D13*
G04 #@! TO.C,D2301*
X175260000Y-97240000D03*
D14*
X175260000Y-91440000D03*
G04 #@! TD*
D15*
G04 #@! TO.C,R301*
X163195000Y-103600000D03*
X163195000Y-101600000D03*
G04 #@! TD*
D10*
G04 #@! TO.C,R2406*
X160532200Y-109176500D03*
X158532200Y-109176500D03*
G04 #@! TD*
D11*
G04 #@! TO.C,R302*
X163252200Y-105410000D03*
X165252200Y-105410000D03*
G04 #@! TD*
D14*
G04 #@! TO.C,D2403*
X152400000Y-91440000D03*
D13*
X152400000Y-97240000D03*
G04 #@! TD*
D12*
G04 #@! TO.C,R2303*
X175647800Y-109107700D03*
X175647800Y-107107700D03*
G04 #@! TD*
D11*
G04 #@! TO.C,R2305*
X171355000Y-105410000D03*
X173355000Y-105410000D03*
G04 #@! TD*
D15*
G04 #@! TO.C,R2302*
X170815000Y-96520000D03*
X170815000Y-98520000D03*
G04 #@! TD*
D13*
G04 #@! TO.C,D2404*
X147320000Y-97240000D03*
D14*
X147320000Y-91440000D03*
G04 #@! TD*
D13*
G04 #@! TO.C,D2401*
X147320000Y-112350000D03*
D14*
X147320000Y-106550000D03*
G04 #@! TD*
D16*
G04 #@! TO.C,U2401*
X164465000Y-112900000D03*
X165735000Y-112900000D03*
X167005000Y-112900000D03*
X168275000Y-112900000D03*
X169545000Y-112900000D03*
X170815000Y-112900000D03*
X172085000Y-112900000D03*
X172085000Y-107950000D03*
X170815000Y-107950000D03*
X169545000Y-107950000D03*
X168275000Y-107950000D03*
X167005000Y-107950000D03*
X165735000Y-107950000D03*
X164465000Y-107950000D03*
G04 #@! TD*
D11*
G04 #@! TO.C,R2404*
X158655000Y-103505000D03*
X160655000Y-103505000D03*
G04 #@! TD*
D16*
G04 #@! TO.C,U2501*
X160020000Y-97660000D03*
X161290000Y-97660000D03*
X162560000Y-97660000D03*
X163830000Y-97660000D03*
X165100000Y-97660000D03*
X166370000Y-97660000D03*
X167640000Y-97660000D03*
X167640000Y-92710000D03*
X166370000Y-92710000D03*
X165100000Y-92710000D03*
X163830000Y-92710000D03*
X162560000Y-92710000D03*
X161290000Y-92710000D03*
X160020000Y-92710000D03*
G04 #@! TD*
D17*
G04 #@! TO.C,C2301*
X157480000Y-90170000D03*
X157480000Y-92245000D03*
G04 #@! TD*
D10*
G04 #@! TO.C,R2401*
X148952500Y-102144700D03*
X146952500Y-102144700D03*
G04 #@! TD*
D15*
G04 #@! TO.C,R2301*
X170815000Y-92710000D03*
X170815000Y-94710000D03*
G04 #@! TD*
D18*
G04 #@! TO.C,D2302*
X166969500Y-102105000D03*
D19*
X172769500Y-102105000D03*
G04 #@! TD*
D11*
G04 #@! TO.C,R303*
X167062200Y-105410000D03*
X169062200Y-105410000D03*
G04 #@! TD*
D14*
G04 #@! TO.C,D2402*
X152400000Y-106595000D03*
D13*
X152400000Y-112395000D03*
G04 #@! TD*
D20*
G04 #@! TO.C,J101*
X140970000Y-113665000D03*
D21*
X138430000Y-113665000D03*
X140970000Y-111125000D03*
X138430000Y-111125000D03*
X140970000Y-108585000D03*
X138430000Y-108585000D03*
X140970000Y-106045000D03*
X138430000Y-106045000D03*
X140970000Y-103505000D03*
X138430000Y-103505000D03*
X140970000Y-100965000D03*
X138430000Y-100965000D03*
X140970000Y-98425000D03*
X138430000Y-98425000D03*
X140970000Y-95885000D03*
X138430000Y-95885000D03*
X140970000Y-93345000D03*
X138430000Y-93345000D03*
X140970000Y-90805000D03*
X138430000Y-90805000D03*
G04 #@! TD*
D10*
G04 #@! TO.C,R2405*
X160532200Y-106636500D03*
X158532200Y-106636500D03*
G04 #@! TD*
M02*
