G04 #@! TF.GenerationSoftware,KiCad,Pcbnew,8.0.0-rc2-192-gade987c101*
G04 #@! TF.CreationDate,2024-01-30T18:43:20+01:00*
G04 #@! TF.ProjectId,xDuinoRail-Breakout-RailcomDetect,78447569-6e6f-4526-9169-6c2d42726561,rev?*
G04 #@! TF.SameCoordinates,Original*
G04 #@! TF.FileFunction,Copper,L2,Bot*
G04 #@! TF.FilePolarity,Positive*
%FSLAX46Y46*%
G04 Gerber Fmt 4.6, Leading zero omitted, Abs format (unit mm)*
G04 Created by KiCad (PCBNEW 8.0.0-rc2-192-gade987c101) date 2024-01-30 18:43:20*
%MOMM*%
%LPD*%
G01*
G04 APERTURE LIST*
G04 #@! TA.AperFunction,ComponentPad*
%ADD10R,1.700000X1.700000*%
G04 #@! TD*
G04 #@! TA.AperFunction,ComponentPad*
%ADD11O,1.700000X1.700000*%
G04 #@! TD*
G04 #@! TA.AperFunction,ViaPad*
%ADD12C,0.800000*%
G04 #@! TD*
G04 #@! TA.AperFunction,Conductor*
%ADD13C,0.400000*%
G04 #@! TD*
G04 #@! TA.AperFunction,Conductor*
%ADD14C,1.000000*%
G04 #@! TD*
G04 APERTURE END LIST*
D10*
G04 #@! TO.P,J101,1,Pin_1*
G04 #@! TO.N,/TRACK_B0*
X140970000Y-113665000D03*
D11*
G04 #@! TO.P,J101,2,Pin_2*
G04 #@! TO.N,/RAILCOM1*
X138430000Y-113665000D03*
G04 #@! TO.P,J101,3,Pin_3*
G04 #@! TO.N,/TRACK_A0*
X140970000Y-111125000D03*
G04 #@! TO.P,J101,4,Pin_4*
G04 #@! TO.N,/RAILCOM0*
X138430000Y-111125000D03*
G04 #@! TO.P,J101,5,Pin_5*
G04 #@! TO.N,unconnected-(J101-Pin_5-Pad5)*
X140970000Y-108585000D03*
G04 #@! TO.P,J101,6,Pin_6*
G04 #@! TO.N,unconnected-(J101-Pin_6-Pad6)*
X138430000Y-108585000D03*
G04 #@! TO.P,J101,7,Pin_7*
G04 #@! TO.N,GND*
X140970000Y-106045000D03*
G04 #@! TO.P,J101,8,Pin_8*
G04 #@! TO.N,unconnected-(J101-Pin_8-Pad8)*
X138430000Y-106045000D03*
G04 #@! TO.P,J101,9,Pin_9*
G04 #@! TO.N,unconnected-(J101-Pin_9-Pad9)*
X140970000Y-103505000D03*
G04 #@! TO.P,J101,10,Pin_10*
G04 #@! TO.N,unconnected-(J101-Pin_10-Pad10)*
X138430000Y-103505000D03*
G04 #@! TO.P,J101,11,Pin_11*
G04 #@! TO.N,unconnected-(J101-Pin_11-Pad11)*
X140970000Y-100965000D03*
G04 #@! TO.P,J101,12,Pin_12*
G04 #@! TO.N,unconnected-(J101-Pin_12-Pad12)*
X138430000Y-100965000D03*
G04 #@! TO.P,J101,13,Pin_13*
G04 #@! TO.N,GND*
X140970000Y-98425000D03*
G04 #@! TO.P,J101,14,Pin_14*
G04 #@! TO.N,unconnected-(J101-Pin_14-Pad14)*
X138430000Y-98425000D03*
G04 #@! TO.P,J101,15,Pin_15*
G04 #@! TO.N,+3V3*
X140970000Y-95885000D03*
G04 #@! TO.P,J101,16,Pin_16*
G04 #@! TO.N,unconnected-(J101-Pin_16-Pad16)*
X138430000Y-95885000D03*
G04 #@! TO.P,J101,17,Pin_17*
G04 #@! TO.N,/DCC0*
X140970000Y-93345000D03*
G04 #@! TO.P,J101,18,Pin_18*
G04 #@! TO.N,unconnected-(J101-Pin_18-Pad18)*
X138430000Y-93345000D03*
G04 #@! TO.P,J101,19,Pin_19*
G04 #@! TO.N,/DCC1*
X140970000Y-90805000D03*
G04 #@! TO.P,J101,20,Pin_20*
G04 #@! TO.N,unconnected-(J101-Pin_20-Pad20)*
X138430000Y-90805000D03*
G04 #@! TD*
D12*
G04 #@! TO.N,/RAILCOM0*
X158858500Y-98355500D03*
G04 #@! TO.N,GND*
X157480000Y-93440300D03*
X175647800Y-114253200D03*
X174588900Y-105410000D03*
X168563900Y-97014200D03*
G04 #@! TO.N,/RAILCOM1*
X158273000Y-100495200D03*
G04 #@! TO.N,+3V3*
X173663800Y-107391900D03*
X161208500Y-101219600D03*
X157343600Y-96388100D03*
G04 #@! TO.N,/centrale-railcom-feedback/central_railcom-detector/RAILCOM_B0*
X162842000Y-108129300D03*
X160593900Y-99837400D03*
G04 #@! TO.N,/TRACK_B0*
X152746600Y-103709200D03*
X169176700Y-110597200D03*
G04 #@! TD*
D13*
G04 #@! TO.N,/RAILCOM0*
X139681700Y-110577300D02*
X140385700Y-109873300D01*
X138430000Y-111125000D02*
X139681700Y-111125000D01*
X140385700Y-109873300D02*
X141493000Y-109873300D01*
X139681700Y-111125000D02*
X139681700Y-110577300D01*
X153010800Y-98355500D02*
X158858500Y-98355500D01*
X141493000Y-109873300D02*
X153010800Y-98355500D01*
G04 #@! TO.N,/RAILCOM1*
X141534100Y-112413300D02*
X153452200Y-100495200D01*
X139681700Y-113665000D02*
X139681700Y-112648000D01*
X139916400Y-112413300D02*
X141534100Y-112413300D01*
X139681700Y-112648000D02*
X139916400Y-112413300D01*
X138430000Y-113665000D02*
X139681700Y-113665000D01*
X153452200Y-100495200D02*
X158273000Y-100495200D01*
G04 #@! TO.N,+3V3*
X161396700Y-99427800D02*
X161396700Y-101031400D01*
X140970000Y-95885000D02*
X156840500Y-95885000D01*
X157343600Y-96388100D02*
X158357000Y-96388100D01*
X158357000Y-96388100D02*
X161396700Y-99427800D01*
X167303300Y-101031400D02*
X161396700Y-101031400D01*
X156840500Y-95885000D02*
X157343600Y-96388100D01*
X161396700Y-101031400D02*
X161208500Y-101219600D01*
X173663800Y-107391900D02*
X167303300Y-101031400D01*
G04 #@! TO.N,/centrale-railcom-feedback/central_railcom-detector/RAILCOM_B0*
X160406800Y-105694100D02*
X162842000Y-108129300D01*
X160406800Y-100024500D02*
X160406800Y-105694100D01*
X160593900Y-99837400D02*
X160406800Y-100024500D01*
D14*
G04 #@! TO.N,/TRACK_B0*
X159634600Y-110597200D02*
X169176700Y-110597200D01*
X152477500Y-103709200D02*
X152746600Y-103709200D01*
X140970000Y-113665000D02*
X142521700Y-113665000D01*
X152746600Y-103709200D02*
X159634600Y-110597200D01*
X142521700Y-113665000D02*
X152477500Y-103709200D01*
G04 #@! TD*
G04 #@! TA.AperFunction,Conductor*
G04 #@! TO.N,GND*
G36*
X156437845Y-96605185D02*
G01*
X156483600Y-96657989D01*
X156488737Y-96671182D01*
X156516418Y-96756378D01*
X156516421Y-96756384D01*
X156611067Y-96920316D01*
X156730919Y-97053425D01*
X156737729Y-97060988D01*
X156890865Y-97172248D01*
X156890870Y-97172251D01*
X157063792Y-97249242D01*
X157063797Y-97249244D01*
X157248954Y-97288600D01*
X157248955Y-97288600D01*
X157438244Y-97288600D01*
X157438246Y-97288600D01*
X157623403Y-97249244D01*
X157796330Y-97172251D01*
X157820074Y-97155000D01*
X157878871Y-97112282D01*
X157944677Y-97088802D01*
X157951756Y-97088600D01*
X158015481Y-97088600D01*
X158082520Y-97108285D01*
X158103162Y-97124919D01*
X158386409Y-97408166D01*
X158419894Y-97469489D01*
X158414910Y-97539181D01*
X158373038Y-97595114D01*
X158371613Y-97596165D01*
X158323229Y-97631318D01*
X158257423Y-97654798D01*
X158250344Y-97655000D01*
X152941804Y-97655000D01*
X152806477Y-97681918D01*
X152806467Y-97681921D01*
X152678992Y-97734722D01*
X152564254Y-97811387D01*
X142372432Y-108003209D01*
X142311109Y-108036694D01*
X142241417Y-108031710D01*
X142185484Y-107989838D01*
X142172369Y-107967933D01*
X142144035Y-107907171D01*
X142144034Y-107907169D01*
X142008494Y-107713597D01*
X141841402Y-107546506D01*
X141841401Y-107546505D01*
X141655405Y-107416269D01*
X141611781Y-107361692D01*
X141604588Y-107292193D01*
X141636110Y-107229839D01*
X141655405Y-107213119D01*
X141841082Y-107083105D01*
X142008105Y-106916082D01*
X142143600Y-106722578D01*
X142243429Y-106508492D01*
X142243432Y-106508486D01*
X142300636Y-106295000D01*
X141403012Y-106295000D01*
X141435925Y-106237993D01*
X141470000Y-106110826D01*
X141470000Y-105979174D01*
X141435925Y-105852007D01*
X141403012Y-105795000D01*
X142300636Y-105795000D01*
X142300635Y-105794999D01*
X142243432Y-105581513D01*
X142243429Y-105581507D01*
X142143600Y-105367422D01*
X142143599Y-105367420D01*
X142008113Y-105173926D01*
X142008108Y-105173920D01*
X141841078Y-105006890D01*
X141655405Y-104876879D01*
X141611780Y-104822302D01*
X141604588Y-104752804D01*
X141636110Y-104690449D01*
X141655406Y-104673730D01*
X141655842Y-104673425D01*
X141841401Y-104543495D01*
X142008495Y-104376401D01*
X142144035Y-104182830D01*
X142243903Y-103968663D01*
X142305063Y-103740408D01*
X142325659Y-103505000D01*
X142305063Y-103269592D01*
X142243903Y-103041337D01*
X142144035Y-102827171D01*
X142138425Y-102819158D01*
X142008494Y-102633597D01*
X141841402Y-102466506D01*
X141841396Y-102466501D01*
X141655842Y-102336575D01*
X141612217Y-102281998D01*
X141605023Y-102212500D01*
X141636546Y-102150145D01*
X141655842Y-102133425D01*
X141841035Y-102003751D01*
X141841401Y-102003495D01*
X142008495Y-101836401D01*
X142144035Y-101642830D01*
X142243903Y-101428663D01*
X142305063Y-101200408D01*
X142325659Y-100965000D01*
X142305063Y-100729592D01*
X142243903Y-100501337D01*
X142144035Y-100287171D01*
X142138425Y-100279158D01*
X142008494Y-100093597D01*
X141841402Y-99926506D01*
X141841401Y-99926505D01*
X141655405Y-99796269D01*
X141611781Y-99741692D01*
X141604588Y-99672193D01*
X141636110Y-99609839D01*
X141655405Y-99593119D01*
X141841082Y-99463105D01*
X142008105Y-99296082D01*
X142143600Y-99102578D01*
X142243429Y-98888492D01*
X142243432Y-98888486D01*
X142300636Y-98675000D01*
X141403012Y-98675000D01*
X141435925Y-98617993D01*
X141470000Y-98490826D01*
X141470000Y-98359174D01*
X141435925Y-98232007D01*
X141403012Y-98175000D01*
X142300636Y-98175000D01*
X142300635Y-98174999D01*
X142243432Y-97961513D01*
X142243429Y-97961507D01*
X142143600Y-97747422D01*
X142143599Y-97747420D01*
X142008113Y-97553926D01*
X142008108Y-97553920D01*
X141841078Y-97386890D01*
X141655405Y-97256879D01*
X141611780Y-97202302D01*
X141604588Y-97132804D01*
X141636110Y-97070449D01*
X141655406Y-97053730D01*
X141655842Y-97053425D01*
X141841401Y-96923495D01*
X142008495Y-96756401D01*
X142091136Y-96638376D01*
X142145713Y-96594752D01*
X142192711Y-96585500D01*
X156370806Y-96585500D01*
X156437845Y-96605185D01*
G37*
G04 #@! TD.AperFunction*
G04 #@! TA.AperFunction,Conductor*
G36*
X176436121Y-88265020D02*
G01*
X176570109Y-88267409D01*
X176585528Y-88268650D01*
X176851897Y-88306948D01*
X176869184Y-88310708D01*
X177126313Y-88386209D01*
X177142887Y-88392391D01*
X177252159Y-88442293D01*
X177386659Y-88503717D01*
X177402173Y-88512188D01*
X177627628Y-88657080D01*
X177641787Y-88667679D01*
X177844317Y-88843172D01*
X177856827Y-88855682D01*
X178032320Y-89058212D01*
X178042921Y-89072374D01*
X178187808Y-89297821D01*
X178196284Y-89313345D01*
X178307608Y-89557112D01*
X178313791Y-89573688D01*
X178389290Y-89830814D01*
X178393051Y-89848102D01*
X178431348Y-90114463D01*
X178432590Y-90129898D01*
X178434980Y-90263877D01*
X178435000Y-90266089D01*
X178435000Y-114203910D01*
X178434980Y-114206122D01*
X178432590Y-114340101D01*
X178431348Y-114355536D01*
X178393051Y-114621897D01*
X178389290Y-114639185D01*
X178313791Y-114896311D01*
X178307608Y-114912887D01*
X178196284Y-115156654D01*
X178187805Y-115172183D01*
X178042922Y-115397624D01*
X178032320Y-115411787D01*
X177856827Y-115614317D01*
X177844317Y-115626827D01*
X177641787Y-115802320D01*
X177627624Y-115812922D01*
X177402183Y-115957805D01*
X177386654Y-115966284D01*
X177142887Y-116077608D01*
X177126311Y-116083791D01*
X176869185Y-116159290D01*
X176851897Y-116163051D01*
X176585536Y-116201348D01*
X176570101Y-116202590D01*
X176439818Y-116204914D01*
X176436120Y-116204980D01*
X176433910Y-116205000D01*
X138526090Y-116205000D01*
X138523879Y-116204980D01*
X138520015Y-116204911D01*
X138389898Y-116202590D01*
X138374463Y-116201348D01*
X138108102Y-116163051D01*
X138090814Y-116159290D01*
X137833688Y-116083791D01*
X137817112Y-116077608D01*
X137573345Y-115966284D01*
X137557821Y-115957808D01*
X137332374Y-115812921D01*
X137318212Y-115802320D01*
X137115682Y-115626827D01*
X137103172Y-115614317D01*
X136927679Y-115411787D01*
X136917077Y-115397624D01*
X136772188Y-115172173D01*
X136763715Y-115156654D01*
X136652391Y-114912887D01*
X136646208Y-114896311D01*
X136639229Y-114872544D01*
X136570708Y-114639184D01*
X136566948Y-114621897D01*
X136557052Y-114553068D01*
X136528650Y-114355528D01*
X136527409Y-114340109D01*
X136525020Y-114206121D01*
X136525000Y-114203910D01*
X136525000Y-113665000D01*
X137074341Y-113665000D01*
X137094936Y-113900403D01*
X137094938Y-113900413D01*
X137156094Y-114128655D01*
X137156096Y-114128659D01*
X137156097Y-114128663D01*
X137192217Y-114206122D01*
X137255965Y-114342830D01*
X137255967Y-114342834D01*
X137325502Y-114442139D01*
X137391505Y-114536401D01*
X137558599Y-114703495D01*
X137655384Y-114771265D01*
X137752165Y-114839032D01*
X137752167Y-114839033D01*
X137752170Y-114839035D01*
X137966337Y-114938903D01*
X138194592Y-115000063D01*
X138371034Y-115015500D01*
X138429999Y-115020659D01*
X138430000Y-115020659D01*
X138430001Y-115020659D01*
X138488966Y-115015500D01*
X138665408Y-115000063D01*
X138893663Y-114938903D01*
X139107830Y-114839035D01*
X139301401Y-114703495D01*
X139423329Y-114581566D01*
X139484648Y-114548084D01*
X139554340Y-114553068D01*
X139610274Y-114594939D01*
X139627189Y-114625917D01*
X139676202Y-114757328D01*
X139676206Y-114757335D01*
X139762452Y-114872544D01*
X139762455Y-114872547D01*
X139877664Y-114958793D01*
X139877671Y-114958797D01*
X140012517Y-115009091D01*
X140012516Y-115009091D01*
X140019444Y-115009835D01*
X140072127Y-115015500D01*
X141867872Y-115015499D01*
X141927483Y-115009091D01*
X142062331Y-114958796D01*
X142177546Y-114872546D01*
X142263796Y-114757331D01*
X142267960Y-114746165D01*
X142309829Y-114690234D01*
X142375293Y-114665816D01*
X142384141Y-114665500D01*
X142620242Y-114665500D01*
X142639570Y-114661655D01*
X142716888Y-114646275D01*
X142813536Y-114627051D01*
X142866865Y-114604961D01*
X142995614Y-114551632D01*
X143159482Y-114442139D01*
X143298839Y-114302782D01*
X143298839Y-114302780D01*
X143309047Y-114292573D01*
X143309048Y-114292570D01*
X152524372Y-105077247D01*
X152585691Y-105043765D01*
X152655383Y-105048749D01*
X152699730Y-105077250D01*
X158854335Y-111231855D01*
X158854364Y-111231886D01*
X158996814Y-111374336D01*
X158996818Y-111374339D01*
X159160679Y-111483828D01*
X159160692Y-111483835D01*
X159289433Y-111537161D01*
X159342759Y-111559249D01*
X159342764Y-111559251D01*
X159404555Y-111571542D01*
X159437431Y-111578081D01*
X159536056Y-111597700D01*
X159536059Y-111597700D01*
X169275243Y-111597700D01*
X169406750Y-111571541D01*
X169468535Y-111559251D01*
X169650614Y-111483832D01*
X169814482Y-111374339D01*
X169953839Y-111234982D01*
X170063332Y-111071114D01*
X170138751Y-110889035D01*
X170177200Y-110695741D01*
X170177200Y-110498659D01*
X170177200Y-110498656D01*
X170138752Y-110305370D01*
X170138751Y-110305369D01*
X170138751Y-110305365D01*
X170138749Y-110305360D01*
X170063335Y-110123292D01*
X170063328Y-110123279D01*
X169953839Y-109959418D01*
X169953836Y-109959414D01*
X169814485Y-109820063D01*
X169814481Y-109820060D01*
X169650620Y-109710571D01*
X169650607Y-109710564D01*
X169468539Y-109635150D01*
X169468529Y-109635147D01*
X169275243Y-109596700D01*
X169275241Y-109596700D01*
X160100382Y-109596700D01*
X160033343Y-109577015D01*
X160012701Y-109560381D01*
X153528079Y-103075759D01*
X153528059Y-103075737D01*
X153384385Y-102932063D01*
X153384381Y-102932060D01*
X153220520Y-102822571D01*
X153220511Y-102822566D01*
X153137283Y-102788092D01*
X153091765Y-102769238D01*
X153065100Y-102758193D01*
X153038437Y-102747149D01*
X153038433Y-102747148D01*
X152941469Y-102727861D01*
X152909359Y-102721474D01*
X152845143Y-102708700D01*
X152845141Y-102708700D01*
X152576040Y-102708700D01*
X152528718Y-102708700D01*
X152461679Y-102689015D01*
X152415924Y-102636211D01*
X152405980Y-102567053D01*
X152435005Y-102503497D01*
X152441037Y-102497019D01*
X153045569Y-101892488D01*
X153706038Y-101232019D01*
X153767361Y-101198534D01*
X153793719Y-101195700D01*
X157664844Y-101195700D01*
X157731883Y-101215385D01*
X157737729Y-101219382D01*
X157820265Y-101279348D01*
X157820270Y-101279351D01*
X157993192Y-101356342D01*
X157993197Y-101356344D01*
X158178354Y-101395700D01*
X158178355Y-101395700D01*
X158367644Y-101395700D01*
X158367646Y-101395700D01*
X158552803Y-101356344D01*
X158725730Y-101279351D01*
X158878871Y-101168088D01*
X159005533Y-101027416D01*
X159100179Y-100863484D01*
X159158674Y-100683456D01*
X159178460Y-100495200D01*
X159158674Y-100306944D01*
X159100179Y-100126916D01*
X159005533Y-99962984D01*
X158878871Y-99822312D01*
X158843026Y-99796269D01*
X158725734Y-99711051D01*
X158725729Y-99711048D01*
X158552807Y-99634057D01*
X158552802Y-99634055D01*
X158407001Y-99603065D01*
X158367646Y-99594700D01*
X158178354Y-99594700D01*
X158145897Y-99601598D01*
X157993197Y-99634055D01*
X157993192Y-99634057D01*
X157820270Y-99711048D01*
X157820265Y-99711051D01*
X157737729Y-99771018D01*
X157671923Y-99794498D01*
X157664844Y-99794700D01*
X153383204Y-99794700D01*
X153247877Y-99821618D01*
X153247867Y-99821621D01*
X153120392Y-99874422D01*
X153005654Y-99951087D01*
X142385502Y-110571239D01*
X142324179Y-110604724D01*
X142254487Y-110599740D01*
X142198554Y-110557868D01*
X142185439Y-110535962D01*
X142144037Y-110447175D01*
X142144033Y-110447167D01*
X142107242Y-110394625D01*
X142084914Y-110328419D01*
X142101924Y-110260652D01*
X142121131Y-110235824D01*
X153264638Y-99092319D01*
X153325961Y-99058834D01*
X153352319Y-99056000D01*
X158250344Y-99056000D01*
X158317383Y-99075685D01*
X158323229Y-99079682D01*
X158405765Y-99139648D01*
X158405770Y-99139651D01*
X158578692Y-99216642D01*
X158578697Y-99216644D01*
X158763854Y-99256000D01*
X158763855Y-99256000D01*
X158953144Y-99256000D01*
X158953146Y-99256000D01*
X159138303Y-99216644D01*
X159311230Y-99139651D01*
X159464371Y-99028388D01*
X159591033Y-98887716D01*
X159610863Y-98853368D01*
X159661429Y-98805154D01*
X159730036Y-98791930D01*
X159794901Y-98817898D01*
X159805931Y-98827688D01*
X159978131Y-98999888D01*
X160011616Y-99061211D01*
X160006632Y-99130903D01*
X159982600Y-99170541D01*
X159861366Y-99305185D01*
X159766721Y-99469115D01*
X159766718Y-99469122D01*
X159713128Y-99634056D01*
X159708226Y-99649144D01*
X159692949Y-99794498D01*
X159688440Y-99837400D01*
X159705621Y-100000869D01*
X159706300Y-100013830D01*
X159706300Y-105625106D01*
X159706300Y-105763094D01*
X159706300Y-105763096D01*
X159706299Y-105763096D01*
X159733218Y-105898422D01*
X159733221Y-105898432D01*
X159786022Y-106025907D01*
X159862687Y-106140645D01*
X159862688Y-106140646D01*
X161915495Y-108193452D01*
X161948980Y-108254775D01*
X161951134Y-108268169D01*
X161956325Y-108317549D01*
X161956327Y-108317560D01*
X162014818Y-108497577D01*
X162014821Y-108497584D01*
X162109467Y-108661516D01*
X162236129Y-108802188D01*
X162389265Y-108913448D01*
X162389270Y-108913451D01*
X162562192Y-108990442D01*
X162562197Y-108990444D01*
X162747354Y-109029800D01*
X162747355Y-109029800D01*
X162936644Y-109029800D01*
X162936646Y-109029800D01*
X163121803Y-108990444D01*
X163294730Y-108913451D01*
X163447871Y-108802188D01*
X163574533Y-108661516D01*
X163669179Y-108497584D01*
X163727674Y-108317556D01*
X163747460Y-108129300D01*
X163727674Y-107941044D01*
X163669179Y-107761016D01*
X163574533Y-107597084D01*
X163447871Y-107456412D01*
X163447870Y-107456411D01*
X163294734Y-107345151D01*
X163294729Y-107345148D01*
X163121807Y-107268157D01*
X163121802Y-107268155D01*
X162985490Y-107239182D01*
X162966872Y-107235224D01*
X162905391Y-107202033D01*
X162904973Y-107201616D01*
X161143619Y-105440262D01*
X161110134Y-105378939D01*
X161107300Y-105352581D01*
X161107300Y-102244100D01*
X161126985Y-102177061D01*
X161179789Y-102131306D01*
X161231300Y-102120100D01*
X161303144Y-102120100D01*
X161303146Y-102120100D01*
X161488303Y-102080744D01*
X161661230Y-102003751D01*
X161814371Y-101892488D01*
X161922024Y-101772928D01*
X161981511Y-101736279D01*
X162014174Y-101731900D01*
X166961781Y-101731900D01*
X167028820Y-101751585D01*
X167049462Y-101768219D01*
X172737295Y-107456051D01*
X172770780Y-107517374D01*
X172772934Y-107530768D01*
X172778125Y-107580149D01*
X172778127Y-107580160D01*
X172836618Y-107760177D01*
X172836621Y-107760184D01*
X172931267Y-107924116D01*
X173032633Y-108036694D01*
X173057929Y-108064788D01*
X173211065Y-108176048D01*
X173211070Y-108176051D01*
X173383992Y-108253042D01*
X173383997Y-108253044D01*
X173569154Y-108292400D01*
X173569155Y-108292400D01*
X173758444Y-108292400D01*
X173758446Y-108292400D01*
X173943603Y-108253044D01*
X174116530Y-108176051D01*
X174269671Y-108064788D01*
X174396333Y-107924116D01*
X174490979Y-107760184D01*
X174549474Y-107580156D01*
X174569260Y-107391900D01*
X174549474Y-107203644D01*
X174490979Y-107023616D01*
X174396333Y-106859684D01*
X174269671Y-106719012D01*
X174225309Y-106686781D01*
X174116534Y-106607751D01*
X174116529Y-106607748D01*
X173943607Y-106530757D01*
X173943602Y-106530755D01*
X173788671Y-106497824D01*
X173727189Y-106464632D01*
X173726771Y-106464215D01*
X167749846Y-100487288D01*
X167749845Y-100487287D01*
X167635107Y-100410622D01*
X167507632Y-100357821D01*
X167507622Y-100357818D01*
X167372296Y-100330900D01*
X167372294Y-100330900D01*
X167372293Y-100330900D01*
X162221200Y-100330900D01*
X162154161Y-100311215D01*
X162108406Y-100258411D01*
X162097200Y-100206900D01*
X162097200Y-99358806D01*
X162090276Y-99324001D01*
X162090276Y-99323998D01*
X162070281Y-99223479D01*
X162070280Y-99223472D01*
X162067451Y-99216642D01*
X162017477Y-99095992D01*
X161940812Y-98981254D01*
X158803545Y-95843987D01*
X158688807Y-95767322D01*
X158561332Y-95714521D01*
X158561322Y-95714518D01*
X158425996Y-95687600D01*
X158425994Y-95687600D01*
X158425993Y-95687600D01*
X157951756Y-95687600D01*
X157884717Y-95667915D01*
X157878871Y-95663918D01*
X157796334Y-95603951D01*
X157796329Y-95603948D01*
X157623407Y-95526957D01*
X157623402Y-95526955D01*
X157487090Y-95497982D01*
X157468472Y-95494024D01*
X157406991Y-95460833D01*
X157406781Y-95460624D01*
X157287043Y-95340886D01*
X157172311Y-95264225D01*
X157172312Y-95264225D01*
X157172307Y-95264222D01*
X157044832Y-95211421D01*
X157044822Y-95211418D01*
X156909496Y-95184500D01*
X156909494Y-95184500D01*
X156909493Y-95184500D01*
X142192711Y-95184500D01*
X142125672Y-95164815D01*
X142091136Y-95131623D01*
X142008494Y-95013597D01*
X141841402Y-94846506D01*
X141841396Y-94846501D01*
X141655842Y-94716575D01*
X141612217Y-94661998D01*
X141605023Y-94592500D01*
X141636546Y-94530145D01*
X141655842Y-94513425D01*
X141678026Y-94497891D01*
X141841401Y-94383495D01*
X142008495Y-94216401D01*
X142144035Y-94022830D01*
X142243903Y-93808663D01*
X142305063Y-93580408D01*
X142325659Y-93345000D01*
X142305063Y-93109592D01*
X142243903Y-92881337D01*
X142144035Y-92667171D01*
X142138425Y-92659158D01*
X142008494Y-92473597D01*
X141841402Y-92306506D01*
X141841396Y-92306501D01*
X141655842Y-92176575D01*
X141612217Y-92121998D01*
X141605023Y-92052500D01*
X141636546Y-91990145D01*
X141655842Y-91973425D01*
X141678026Y-91957891D01*
X141841401Y-91843495D01*
X142008495Y-91676401D01*
X142144035Y-91482830D01*
X142243903Y-91268663D01*
X142305063Y-91040408D01*
X142325659Y-90805000D01*
X142305063Y-90569592D01*
X142243903Y-90341337D01*
X142144035Y-90127171D01*
X142138425Y-90119158D01*
X142008494Y-89933597D01*
X141841402Y-89766506D01*
X141841395Y-89766501D01*
X141647834Y-89630967D01*
X141647830Y-89630965D01*
X141524984Y-89573681D01*
X141433663Y-89531097D01*
X141433659Y-89531096D01*
X141433655Y-89531094D01*
X141205413Y-89469938D01*
X141205403Y-89469936D01*
X140970001Y-89449341D01*
X140969999Y-89449341D01*
X140734596Y-89469936D01*
X140734586Y-89469938D01*
X140506344Y-89531094D01*
X140506335Y-89531098D01*
X140292171Y-89630964D01*
X140292169Y-89630965D01*
X140098597Y-89766505D01*
X139931505Y-89933597D01*
X139801575Y-90119158D01*
X139746998Y-90162783D01*
X139677500Y-90169977D01*
X139615145Y-90138454D01*
X139598425Y-90119158D01*
X139468494Y-89933597D01*
X139301402Y-89766506D01*
X139301395Y-89766501D01*
X139107834Y-89630967D01*
X139107830Y-89630965D01*
X138984984Y-89573681D01*
X138893663Y-89531097D01*
X138893659Y-89531096D01*
X138893655Y-89531094D01*
X138665413Y-89469938D01*
X138665403Y-89469936D01*
X138430001Y-89449341D01*
X138429999Y-89449341D01*
X138194596Y-89469936D01*
X138194586Y-89469938D01*
X137966344Y-89531094D01*
X137966335Y-89531098D01*
X137752171Y-89630964D01*
X137752169Y-89630965D01*
X137558597Y-89766505D01*
X137391505Y-89933597D01*
X137255965Y-90127169D01*
X137255964Y-90127171D01*
X137156098Y-90341335D01*
X137156094Y-90341344D01*
X137094938Y-90569586D01*
X137094936Y-90569596D01*
X137074341Y-90804999D01*
X137074341Y-90805000D01*
X137094936Y-91040403D01*
X137094938Y-91040413D01*
X137156094Y-91268655D01*
X137156096Y-91268659D01*
X137156097Y-91268663D01*
X137160000Y-91277032D01*
X137255965Y-91482830D01*
X137255967Y-91482834D01*
X137364281Y-91637521D01*
X137391501Y-91676396D01*
X137391506Y-91676402D01*
X137558597Y-91843493D01*
X137558603Y-91843498D01*
X137744158Y-91973425D01*
X137787783Y-92028002D01*
X137794977Y-92097500D01*
X137763454Y-92159855D01*
X137744158Y-92176575D01*
X137558597Y-92306505D01*
X137391505Y-92473597D01*
X137255965Y-92667169D01*
X137255964Y-92667171D01*
X137156098Y-92881335D01*
X137156094Y-92881344D01*
X137094938Y-93109586D01*
X137094936Y-93109596D01*
X137074341Y-93344999D01*
X137074341Y-93345000D01*
X137094936Y-93580403D01*
X137094938Y-93580413D01*
X137156094Y-93808655D01*
X137156096Y-93808659D01*
X137156097Y-93808663D01*
X137160000Y-93817032D01*
X137255965Y-94022830D01*
X137255967Y-94022834D01*
X137364281Y-94177521D01*
X137391501Y-94216396D01*
X137391506Y-94216402D01*
X137558597Y-94383493D01*
X137558603Y-94383498D01*
X137744158Y-94513425D01*
X137787783Y-94568002D01*
X137794977Y-94637500D01*
X137763454Y-94699855D01*
X137744158Y-94716575D01*
X137558597Y-94846505D01*
X137391505Y-95013597D01*
X137255965Y-95207169D01*
X137255964Y-95207171D01*
X137156098Y-95421335D01*
X137156094Y-95421344D01*
X137094938Y-95649586D01*
X137094936Y-95649596D01*
X137074341Y-95884999D01*
X137074341Y-95885000D01*
X137094936Y-96120403D01*
X137094938Y-96120413D01*
X137156094Y-96348655D01*
X137156096Y-96348659D01*
X137156097Y-96348663D01*
X137160000Y-96357032D01*
X137255965Y-96562830D01*
X137255967Y-96562834D01*
X137322596Y-96657989D01*
X137391501Y-96756396D01*
X137391506Y-96756402D01*
X137558597Y-96923493D01*
X137558603Y-96923498D01*
X137744158Y-97053425D01*
X137787783Y-97108002D01*
X137794977Y-97177500D01*
X137763454Y-97239855D01*
X137744158Y-97256575D01*
X137558597Y-97386505D01*
X137391505Y-97553597D01*
X137255965Y-97747169D01*
X137255964Y-97747171D01*
X137156098Y-97961335D01*
X137156094Y-97961344D01*
X137094938Y-98189586D01*
X137094936Y-98189596D01*
X137074341Y-98424999D01*
X137074341Y-98425000D01*
X137094936Y-98660403D01*
X137094938Y-98660413D01*
X137156094Y-98888655D01*
X137156096Y-98888659D01*
X137156097Y-98888663D01*
X137255847Y-99102578D01*
X137255965Y-99102830D01*
X137255967Y-99102834D01*
X137340444Y-99223479D01*
X137391501Y-99296396D01*
X137391506Y-99296402D01*
X137558597Y-99463493D01*
X137558603Y-99463498D01*
X137744158Y-99593425D01*
X137787783Y-99648002D01*
X137794977Y-99717500D01*
X137763454Y-99779855D01*
X137744158Y-99796575D01*
X137558597Y-99926505D01*
X137391505Y-100093597D01*
X137255965Y-100287169D01*
X137255964Y-100287171D01*
X137156098Y-100501335D01*
X137156094Y-100501344D01*
X137094938Y-100729586D01*
X137094936Y-100729596D01*
X137074341Y-100964999D01*
X137074341Y-100965000D01*
X137094936Y-101200403D01*
X137094938Y-101200413D01*
X137156094Y-101428655D01*
X137156096Y-101428659D01*
X137156097Y-101428663D01*
X137160000Y-101437032D01*
X137255965Y-101642830D01*
X137255967Y-101642834D01*
X137332116Y-101751585D01*
X137391501Y-101836396D01*
X137391506Y-101836402D01*
X137558597Y-102003493D01*
X137558603Y-102003498D01*
X137744158Y-102133425D01*
X137787783Y-102188002D01*
X137794977Y-102257500D01*
X137763454Y-102319855D01*
X137744158Y-102336575D01*
X137558597Y-102466505D01*
X137391505Y-102633597D01*
X137255965Y-102827169D01*
X137255964Y-102827171D01*
X137156098Y-103041335D01*
X137156094Y-103041344D01*
X137094938Y-103269586D01*
X137094936Y-103269596D01*
X137074341Y-103504999D01*
X137074341Y-103505000D01*
X137094936Y-103740403D01*
X137094938Y-103740413D01*
X137156094Y-103968655D01*
X137156096Y-103968659D01*
X137156097Y-103968663D01*
X137160000Y-103977032D01*
X137255965Y-104182830D01*
X137255967Y-104182834D01*
X137364281Y-104337521D01*
X137391501Y-104376396D01*
X137391506Y-104376402D01*
X137558597Y-104543493D01*
X137558603Y-104543498D01*
X137744158Y-104673425D01*
X137787783Y-104728002D01*
X137794977Y-104797500D01*
X137763454Y-104859855D01*
X137744158Y-104876575D01*
X137558597Y-105006505D01*
X137391505Y-105173597D01*
X137255965Y-105367169D01*
X137255964Y-105367171D01*
X137156098Y-105581335D01*
X137156094Y-105581344D01*
X137094938Y-105809586D01*
X137094936Y-105809596D01*
X137074341Y-106044999D01*
X137074341Y-106045000D01*
X137094936Y-106280403D01*
X137094938Y-106280413D01*
X137156094Y-106508655D01*
X137156096Y-106508659D01*
X137156097Y-106508663D01*
X137239155Y-106686781D01*
X137255965Y-106722830D01*
X137255966Y-106722832D01*
X137346166Y-106851650D01*
X137391501Y-106916396D01*
X137391506Y-106916402D01*
X137558597Y-107083493D01*
X137558603Y-107083498D01*
X137744158Y-107213425D01*
X137787783Y-107268002D01*
X137794977Y-107337500D01*
X137763454Y-107399855D01*
X137744158Y-107416575D01*
X137558597Y-107546505D01*
X137391505Y-107713597D01*
X137255965Y-107907169D01*
X137255964Y-107907171D01*
X137156098Y-108121335D01*
X137156094Y-108121344D01*
X137094938Y-108349586D01*
X137094936Y-108349596D01*
X137074341Y-108584999D01*
X137074341Y-108585000D01*
X137094936Y-108820403D01*
X137094938Y-108820413D01*
X137156094Y-109048655D01*
X137156096Y-109048659D01*
X137156097Y-109048663D01*
X137160000Y-109057032D01*
X137255965Y-109262830D01*
X137255967Y-109262834D01*
X137391501Y-109456395D01*
X137391506Y-109456402D01*
X137558597Y-109623493D01*
X137558603Y-109623498D01*
X137744158Y-109753425D01*
X137787783Y-109808002D01*
X137794977Y-109877500D01*
X137763454Y-109939855D01*
X137744158Y-109956575D01*
X137558597Y-110086505D01*
X137391505Y-110253597D01*
X137255965Y-110447169D01*
X137255964Y-110447171D01*
X137156098Y-110661335D01*
X137156094Y-110661344D01*
X137094938Y-110889586D01*
X137094936Y-110889596D01*
X137074341Y-111124999D01*
X137074341Y-111125000D01*
X137094936Y-111360403D01*
X137094938Y-111360413D01*
X137156094Y-111588655D01*
X137156096Y-111588659D01*
X137156097Y-111588663D01*
X137255965Y-111802830D01*
X137255967Y-111802834D01*
X137391501Y-111996395D01*
X137391506Y-111996402D01*
X137558597Y-112163493D01*
X137558603Y-112163498D01*
X137744158Y-112293425D01*
X137787783Y-112348002D01*
X137794977Y-112417500D01*
X137763454Y-112479855D01*
X137744158Y-112496575D01*
X137558597Y-112626505D01*
X137391505Y-112793597D01*
X137255965Y-112987169D01*
X137255964Y-112987171D01*
X137156098Y-113201335D01*
X137156094Y-113201344D01*
X137094938Y-113429586D01*
X137094936Y-113429596D01*
X137074341Y-113664999D01*
X137074341Y-113665000D01*
X136525000Y-113665000D01*
X136525000Y-90266089D01*
X136525020Y-90263878D01*
X136525020Y-90263877D01*
X136527409Y-90129889D01*
X136528650Y-90114472D01*
X136566948Y-89848099D01*
X136570709Y-89830814D01*
X136589593Y-89766501D01*
X136646210Y-89573681D01*
X136652391Y-89557112D01*
X136692203Y-89469936D01*
X136763720Y-89313334D01*
X136772185Y-89297832D01*
X136917084Y-89072364D01*
X136927670Y-89058222D01*
X137103177Y-88855676D01*
X137115676Y-88843177D01*
X137318222Y-88667670D01*
X137332364Y-88657084D01*
X137557832Y-88512185D01*
X137573334Y-88503720D01*
X137817112Y-88392390D01*
X137833681Y-88386210D01*
X138090818Y-88310707D01*
X138108099Y-88306948D01*
X138374472Y-88268650D01*
X138389889Y-88267409D01*
X138523879Y-88265020D01*
X138526090Y-88265000D01*
X176433910Y-88265000D01*
X176436121Y-88265020D01*
G37*
G04 #@! TD.AperFunction*
G04 #@! TD*
M02*
