%TF.GenerationSoftware,KiCad,Pcbnew,7.99.0-3924-g53fd1aaf5e*%
%TF.CreationDate,2023-12-12T19:58:42+01:00*%
%TF.ProjectId,xDuinoRailShield,78447569-6e6f-4526-9169-6c536869656c,rev?*%
%TF.SameCoordinates,Original*%
%TF.FileFunction,Drillmap*%
%TF.FilePolarity,Positive*%
%FSLAX45Y45*%
G04 Gerber Fmt 4.5, Leading zero omitted, Abs format (unit mm)*
G04 Created by KiCad (PCBNEW 7.99.0-3924-g53fd1aaf5e) date 2023-12-12 19:58:42*
%MOMM*%
%LPD*%
G01*
G04 APERTURE LIST*
%ADD10C,0.150000*%
%ADD11C,0.200000*%
%ADD12C,0.100000*%
%ADD13C,0.152000*%
G04 APERTURE END LIST*
D10*
X16350324Y-4311703D02*
X16196181Y-4157560D01*
X16604000Y-8984000D02*
X16604000Y-5682000D01*
X16196181Y-4157560D02*
X10254000Y-4158000D01*
X16350000Y-9238000D02*
X16604000Y-8984000D01*
X16350000Y-5428000D02*
X16350324Y-4311703D01*
X10254000Y-4158000D02*
X10254000Y-9492000D01*
X16350000Y-9492000D02*
X16350000Y-9238000D01*
X16604000Y-5682000D02*
X16350000Y-5428000D01*
X10254000Y-9492000D02*
X16350000Y-9492000D01*
D11*
D12*
X13313000Y-7115000D02*
X13343000Y-7145000D01*
X13343000Y-7115000D02*
X13313000Y-7145000D01*
X13313000Y-7235000D02*
X13343000Y-7265000D01*
X13343000Y-7235000D02*
X13313000Y-7265000D01*
X13433000Y-7115000D02*
X13463000Y-7145000D01*
X13463000Y-7115000D02*
X13433000Y-7145000D01*
X13433000Y-7235000D02*
X13463000Y-7265000D01*
X13463000Y-7235000D02*
X13433000Y-7265000D01*
X13563000Y-7115000D02*
X13593000Y-7145000D01*
X13593000Y-7115000D02*
X13563000Y-7145000D01*
X13563000Y-7235000D02*
X13593000Y-7265000D01*
X13593000Y-7235000D02*
X13563000Y-7265000D01*
X13673000Y-7115000D02*
X13703000Y-7145000D01*
X13703000Y-7115000D02*
X13673000Y-7145000D01*
X13673000Y-7235000D02*
X13703000Y-7265000D01*
X13703000Y-7235000D02*
X13673000Y-7265000D01*
X12207000Y-5775970D02*
G75*
G02*
X12167000Y-5775970I-20000J0D01*
G01*
X12167000Y-5775970D02*
G75*
G02*
X12207000Y-5775970I20000J0D01*
G01*
X12559633Y-5935354D02*
G75*
G02*
X12519633Y-5935354I-20000J0D01*
G01*
X12519633Y-5935354D02*
G75*
G02*
X12559633Y-5935354I20000J0D01*
G01*
X12684900Y-7204680D02*
G75*
G02*
X12644900Y-7204680I-20000J0D01*
G01*
X12644900Y-7204680D02*
G75*
G02*
X12684900Y-7204680I20000J0D01*
G01*
X12814000Y-7206000D02*
G75*
G02*
X12774000Y-7206000I-20000J0D01*
G01*
X12774000Y-7206000D02*
G75*
G02*
X12814000Y-7206000I20000J0D01*
G01*
X12817900Y-5319210D02*
G75*
G02*
X12777900Y-5319210I-20000J0D01*
G01*
X12777900Y-5319210D02*
G75*
G02*
X12817900Y-5319210I20000J0D01*
G01*
X12928600Y-7206670D02*
G75*
G02*
X12888600Y-7206670I-20000J0D01*
G01*
X12888600Y-7206670D02*
G75*
G02*
X12928600Y-7206670I20000J0D01*
G01*
X13665000Y-7816790D02*
G75*
G02*
X13625000Y-7816790I-20000J0D01*
G01*
X13625000Y-7816790D02*
G75*
G02*
X13665000Y-7816790I20000J0D01*
G01*
X13952600Y-6374970D02*
G75*
G02*
X13912600Y-6374970I-20000J0D01*
G01*
X13912600Y-6374970D02*
G75*
G02*
X13952600Y-6374970I20000J0D01*
G01*
X14281500Y-4867560D02*
G75*
G02*
X14241500Y-4867560I-20000J0D01*
G01*
X14241500Y-4867560D02*
G75*
G02*
X14281500Y-4867560I20000J0D01*
G01*
X14486600Y-5448280D02*
G75*
G02*
X14446600Y-5448280I-20000J0D01*
G01*
X14446600Y-5448280D02*
G75*
G02*
X14486600Y-5448280I20000J0D01*
G01*
X14976000Y-6363540D02*
G75*
G02*
X14936000Y-6363540I-20000J0D01*
G01*
X14936000Y-6363540D02*
G75*
G02*
X14976000Y-6363540I20000J0D01*
G01*
X14977000Y-5458570D02*
G75*
G02*
X14937000Y-5458570I-20000J0D01*
G01*
X14937000Y-5458570D02*
G75*
G02*
X14977000Y-5458570I20000J0D01*
G01*
X15021500Y-5092320D02*
G75*
G02*
X14981500Y-5092320I-20000J0D01*
G01*
X14981500Y-5092320D02*
G75*
G02*
X15021500Y-5092320I20000J0D01*
G01*
X15100000Y-8222000D02*
G75*
G02*
X15060000Y-8222000I-20000J0D01*
G01*
X15060000Y-8222000D02*
G75*
G02*
X15100000Y-8222000I20000J0D01*
G01*
X15208000Y-7206000D02*
G75*
G02*
X15168000Y-7206000I-20000J0D01*
G01*
X15168000Y-7206000D02*
G75*
G02*
X15208000Y-7206000I20000J0D01*
G01*
X15208000Y-8222000D02*
G75*
G02*
X15168000Y-8222000I-20000J0D01*
G01*
X15168000Y-8222000D02*
G75*
G02*
X15208000Y-8222000I20000J0D01*
G01*
X15240300Y-5775970D02*
G75*
G02*
X15200300Y-5775970I-20000J0D01*
G01*
X15200300Y-5775970D02*
G75*
G02*
X15240300Y-5775970I20000J0D01*
G01*
X15291700Y-8222000D02*
G75*
G02*
X15251700Y-8222000I-20000J0D01*
G01*
X15251700Y-8222000D02*
G75*
G02*
X15291700Y-8222000I20000J0D01*
G01*
X15354000Y-7206000D02*
G75*
G02*
X15314000Y-7206000I-20000J0D01*
G01*
X15314000Y-7206000D02*
G75*
G02*
X15354000Y-7206000I20000J0D01*
G01*
X11016000Y-5134000D02*
X11016000Y-5214000D01*
X10976000Y-5174000D02*
X11056000Y-5174000D01*
X11016000Y-5388000D02*
X11016000Y-5468000D01*
X10976000Y-5428000D02*
X11056000Y-5428000D01*
X11016000Y-5642000D02*
X11016000Y-5722000D01*
X10976000Y-5682000D02*
X11056000Y-5682000D01*
X11016000Y-5896000D02*
X11016000Y-5976000D01*
X10976000Y-5936000D02*
X11056000Y-5936000D01*
X11778000Y-5134000D02*
X11778000Y-5214000D01*
X11738000Y-5174000D02*
X11818000Y-5174000D01*
X11778000Y-5388000D02*
X11778000Y-5468000D01*
X11738000Y-5428000D02*
X11818000Y-5428000D01*
X11778000Y-5642000D02*
X11778000Y-5722000D01*
X11738000Y-5682000D02*
X11818000Y-5682000D01*
X11778000Y-5896000D02*
X11778000Y-5976000D01*
X11738000Y-5936000D02*
X11818000Y-5936000D01*
X11661356Y-4447356D02*
X11661356Y-4376644D01*
X11590644Y-4376644D01*
X11590644Y-4447356D01*
X11661356Y-4447356D01*
X11661356Y-4701356D02*
X11661356Y-4630644D01*
X11590644Y-4630644D01*
X11590644Y-4701356D01*
X11661356Y-4701356D01*
X11915356Y-4447356D02*
X11915356Y-4376644D01*
X11844644Y-4376644D01*
X11844644Y-4447356D01*
X11915356Y-4447356D01*
X11915356Y-4701356D02*
X11915356Y-4630644D01*
X11844644Y-4630644D01*
X11844644Y-4701356D01*
X11915356Y-4701356D01*
X12169356Y-4447356D02*
X12169356Y-4376644D01*
X12098644Y-4376644D01*
X12098644Y-4447356D01*
X12169356Y-4447356D01*
X12169356Y-4701356D02*
X12169356Y-4630644D01*
X12098644Y-4630644D01*
X12098644Y-4701356D01*
X12169356Y-4701356D01*
X12423356Y-4447356D02*
X12423356Y-4376644D01*
X12352644Y-4376644D01*
X12352644Y-4447356D01*
X12423356Y-4447356D01*
X12423356Y-4701356D02*
X12423356Y-4630644D01*
X12352644Y-4630644D01*
X12352644Y-4701356D01*
X12423356Y-4701356D01*
X12575356Y-9019356D02*
X12575356Y-8948644D01*
X12504644Y-8948644D01*
X12504644Y-9019356D01*
X12575356Y-9019356D01*
X12575356Y-9273356D02*
X12575356Y-9202644D01*
X12504644Y-9202644D01*
X12504644Y-9273356D01*
X12575356Y-9273356D01*
X12677356Y-4447356D02*
X12677356Y-4376644D01*
X12606644Y-4376644D01*
X12606644Y-4447356D01*
X12677356Y-4447356D01*
X12677356Y-4701356D02*
X12677356Y-4630644D01*
X12606644Y-4630644D01*
X12606644Y-4701356D01*
X12677356Y-4701356D01*
X12829356Y-9019356D02*
X12829356Y-8948644D01*
X12758644Y-8948644D01*
X12758644Y-9019356D01*
X12829356Y-9019356D01*
X12829356Y-9273356D02*
X12829356Y-9202644D01*
X12758644Y-9202644D01*
X12758644Y-9273356D01*
X12829356Y-9273356D01*
X12931356Y-4447356D02*
X12931356Y-4376644D01*
X12860644Y-4376644D01*
X12860644Y-4447356D01*
X12931356Y-4447356D01*
X12931356Y-4701356D02*
X12931356Y-4630644D01*
X12860644Y-4630644D01*
X12860644Y-4701356D01*
X12931356Y-4701356D01*
X13083356Y-9019356D02*
X13083356Y-8948644D01*
X13012644Y-8948644D01*
X13012644Y-9019356D01*
X13083356Y-9019356D01*
X13083356Y-9273356D02*
X13083356Y-9202644D01*
X13012644Y-9202644D01*
X13012644Y-9273356D01*
X13083356Y-9273356D01*
X13185356Y-4447356D02*
X13185356Y-4376644D01*
X13114644Y-4376644D01*
X13114644Y-4447356D01*
X13185356Y-4447356D01*
X13185356Y-4701356D02*
X13185356Y-4630644D01*
X13114644Y-4630644D01*
X13114644Y-4701356D01*
X13185356Y-4701356D01*
X13337356Y-9019356D02*
X13337356Y-8948644D01*
X13266644Y-8948644D01*
X13266644Y-9019356D01*
X13337356Y-9019356D01*
X13337356Y-9273356D02*
X13337356Y-9202644D01*
X13266644Y-9202644D01*
X13266644Y-9273356D01*
X13337356Y-9273356D01*
X13439356Y-4447356D02*
X13439356Y-4376644D01*
X13368644Y-4376644D01*
X13368644Y-4447356D01*
X13439356Y-4447356D01*
X13439356Y-4701356D02*
X13439356Y-4630644D01*
X13368644Y-4630644D01*
X13368644Y-4701356D01*
X13439356Y-4701356D01*
X13591356Y-9019356D02*
X13591356Y-8948644D01*
X13520644Y-8948644D01*
X13520644Y-9019356D01*
X13591356Y-9019356D01*
X13591356Y-9273356D02*
X13591356Y-9202644D01*
X13520644Y-9202644D01*
X13520644Y-9273356D01*
X13591356Y-9273356D01*
X13693356Y-4447356D02*
X13693356Y-4376644D01*
X13622644Y-4376644D01*
X13622644Y-4447356D01*
X13693356Y-4447356D01*
X13693356Y-4701356D02*
X13693356Y-4630644D01*
X13622644Y-4630644D01*
X13622644Y-4701356D01*
X13693356Y-4701356D01*
X13845356Y-9019356D02*
X13845356Y-8948644D01*
X13774644Y-8948644D01*
X13774644Y-9019356D01*
X13845356Y-9019356D01*
X13845356Y-9273356D02*
X13845356Y-9202644D01*
X13774644Y-9202644D01*
X13774644Y-9273356D01*
X13845356Y-9273356D01*
X13947356Y-4447356D02*
X13947356Y-4376644D01*
X13876644Y-4376644D01*
X13876644Y-4447356D01*
X13947356Y-4447356D01*
X13947356Y-4701356D02*
X13947356Y-4630644D01*
X13876644Y-4630644D01*
X13876644Y-4701356D01*
X13947356Y-4701356D01*
X14099356Y-9019356D02*
X14099356Y-8948644D01*
X14028644Y-8948644D01*
X14028644Y-9019356D01*
X14099356Y-9019356D01*
X14099356Y-9273356D02*
X14099356Y-9202644D01*
X14028644Y-9202644D01*
X14028644Y-9273356D01*
X14099356Y-9273356D01*
X14353356Y-4447356D02*
X14353356Y-4376644D01*
X14282644Y-4376644D01*
X14282644Y-4447356D01*
X14353356Y-4447356D01*
X14353356Y-4701356D02*
X14353356Y-4630644D01*
X14282644Y-4630644D01*
X14282644Y-4701356D01*
X14353356Y-4701356D01*
X14353356Y-9019356D02*
X14353356Y-8948644D01*
X14282644Y-8948644D01*
X14282644Y-9019356D01*
X14353356Y-9019356D01*
X14353356Y-9273356D02*
X14353356Y-9202644D01*
X14282644Y-9202644D01*
X14282644Y-9273356D01*
X14353356Y-9273356D01*
X14607356Y-4447356D02*
X14607356Y-4376644D01*
X14536644Y-4376644D01*
X14536644Y-4447356D01*
X14607356Y-4447356D01*
X14607356Y-4701356D02*
X14607356Y-4630644D01*
X14536644Y-4630644D01*
X14536644Y-4701356D01*
X14607356Y-4701356D01*
X14861356Y-4447356D02*
X14861356Y-4376644D01*
X14790644Y-4376644D01*
X14790644Y-4447356D01*
X14861356Y-4447356D01*
X14861356Y-4701356D02*
X14861356Y-4630644D01*
X14790644Y-4630644D01*
X14790644Y-4701356D01*
X14861356Y-4701356D01*
X14861356Y-9019356D02*
X14861356Y-8948644D01*
X14790644Y-8948644D01*
X14790644Y-9019356D01*
X14861356Y-9019356D01*
X14861356Y-9273356D02*
X14861356Y-9202644D01*
X14790644Y-9202644D01*
X14790644Y-9273356D01*
X14861356Y-9273356D01*
X15115356Y-4447356D02*
X15115356Y-4376644D01*
X15044644Y-4376644D01*
X15044644Y-4447356D01*
X15115356Y-4447356D01*
X15115356Y-4701356D02*
X15115356Y-4630644D01*
X15044644Y-4630644D01*
X15044644Y-4701356D01*
X15115356Y-4701356D01*
X15115356Y-9019356D02*
X15115356Y-8948644D01*
X15044644Y-8948644D01*
X15044644Y-9019356D01*
X15115356Y-9019356D01*
X15115356Y-9273356D02*
X15115356Y-9202644D01*
X15044644Y-9202644D01*
X15044644Y-9273356D01*
X15115356Y-9273356D01*
X15369356Y-4447356D02*
X15369356Y-4376644D01*
X15298644Y-4376644D01*
X15298644Y-4447356D01*
X15369356Y-4447356D01*
X15369356Y-4701356D02*
X15369356Y-4630644D01*
X15298644Y-4630644D01*
X15298644Y-4701356D01*
X15369356Y-4701356D01*
X15369356Y-9019356D02*
X15369356Y-8948644D01*
X15298644Y-8948644D01*
X15298644Y-9019356D01*
X15369356Y-9019356D01*
X15369356Y-9273356D02*
X15369356Y-9202644D01*
X15298644Y-9202644D01*
X15298644Y-9273356D01*
X15369356Y-9273356D01*
X15623356Y-4447356D02*
X15623356Y-4376644D01*
X15552644Y-4376644D01*
X15552644Y-4447356D01*
X15623356Y-4447356D01*
X15623356Y-4701356D02*
X15623356Y-4630644D01*
X15552644Y-4630644D01*
X15552644Y-4701356D01*
X15623356Y-4701356D01*
X15623356Y-9019356D02*
X15623356Y-8948644D01*
X15552644Y-8948644D01*
X15552644Y-9019356D01*
X15623356Y-9019356D01*
X15623356Y-9273356D02*
X15623356Y-9202644D01*
X15552644Y-9202644D01*
X15552644Y-9273356D01*
X15623356Y-9273356D01*
X15877356Y-4447356D02*
X15877356Y-4376644D01*
X15806644Y-4376644D01*
X15806644Y-4447356D01*
X15877356Y-4447356D01*
X15877356Y-4701356D02*
X15877356Y-4630644D01*
X15806644Y-4630644D01*
X15806644Y-4701356D01*
X15877356Y-4701356D01*
X15877356Y-9019356D02*
X15877356Y-8948644D01*
X15806644Y-8948644D01*
X15806644Y-9019356D01*
X15877356Y-9019356D01*
X15877356Y-9273356D02*
X15877356Y-9202644D01*
X15806644Y-9202644D01*
X15806644Y-9273356D01*
X15877356Y-9273356D01*
X16131356Y-4447356D02*
X16131356Y-4376644D01*
X16060644Y-4376644D01*
X16060644Y-4447356D01*
X16131356Y-4447356D01*
X16131356Y-4701356D02*
X16131356Y-4630644D01*
X16060644Y-4630644D01*
X16060644Y-4701356D01*
X16131356Y-4701356D01*
X16131356Y-9019356D02*
X16131356Y-8948644D01*
X16060644Y-8948644D01*
X16060644Y-9019356D01*
X16131356Y-9019356D01*
X16131356Y-9273356D02*
X16131356Y-9202644D01*
X16060644Y-9202644D01*
X16060644Y-9273356D01*
X16131356Y-9273356D01*
D13*
X16324080Y-7440000D02*
X16400080Y-7364000D01*
X16324080Y-7288000D01*
X16248080Y-7364000D01*
X16324080Y-7440000D01*
X16324080Y-7948000D02*
X16400080Y-7872000D01*
X16324080Y-7796000D01*
X16248080Y-7872000D01*
X16324080Y-7948000D01*
D11*
X10507277Y-9810984D02*
X10507277Y-9610984D01*
X10507277Y-9610984D02*
X10554896Y-9610984D01*
X10554896Y-9610984D02*
X10583467Y-9620508D01*
X10583467Y-9620508D02*
X10602515Y-9639555D01*
X10602515Y-9639555D02*
X10612039Y-9658603D01*
X10612039Y-9658603D02*
X10621563Y-9696698D01*
X10621563Y-9696698D02*
X10621563Y-9725270D01*
X10621563Y-9725270D02*
X10612039Y-9763365D01*
X10612039Y-9763365D02*
X10602515Y-9782412D01*
X10602515Y-9782412D02*
X10583467Y-9801460D01*
X10583467Y-9801460D02*
X10554896Y-9810984D01*
X10554896Y-9810984D02*
X10507277Y-9810984D01*
X10707277Y-9810984D02*
X10707277Y-9677650D01*
X10707277Y-9715746D02*
X10716801Y-9696698D01*
X10716801Y-9696698D02*
X10726324Y-9687174D01*
X10726324Y-9687174D02*
X10745372Y-9677650D01*
X10745372Y-9677650D02*
X10764420Y-9677650D01*
X10831086Y-9810984D02*
X10831086Y-9677650D01*
X10831086Y-9610984D02*
X10821563Y-9620508D01*
X10821563Y-9620508D02*
X10831086Y-9630031D01*
X10831086Y-9630031D02*
X10840610Y-9620508D01*
X10840610Y-9620508D02*
X10831086Y-9610984D01*
X10831086Y-9610984D02*
X10831086Y-9630031D01*
X10954896Y-9810984D02*
X10935848Y-9801460D01*
X10935848Y-9801460D02*
X10926324Y-9782412D01*
X10926324Y-9782412D02*
X10926324Y-9610984D01*
X11059658Y-9810984D02*
X11040610Y-9801460D01*
X11040610Y-9801460D02*
X11031086Y-9782412D01*
X11031086Y-9782412D02*
X11031086Y-9610984D01*
X11288229Y-9810984D02*
X11288229Y-9610984D01*
X11288229Y-9610984D02*
X11354896Y-9753841D01*
X11354896Y-9753841D02*
X11421562Y-9610984D01*
X11421562Y-9610984D02*
X11421562Y-9810984D01*
X11602515Y-9810984D02*
X11602515Y-9706222D01*
X11602515Y-9706222D02*
X11592991Y-9687174D01*
X11592991Y-9687174D02*
X11573943Y-9677650D01*
X11573943Y-9677650D02*
X11535848Y-9677650D01*
X11535848Y-9677650D02*
X11516801Y-9687174D01*
X11602515Y-9801460D02*
X11583467Y-9810984D01*
X11583467Y-9810984D02*
X11535848Y-9810984D01*
X11535848Y-9810984D02*
X11516801Y-9801460D01*
X11516801Y-9801460D02*
X11507277Y-9782412D01*
X11507277Y-9782412D02*
X11507277Y-9763365D01*
X11507277Y-9763365D02*
X11516801Y-9744317D01*
X11516801Y-9744317D02*
X11535848Y-9734793D01*
X11535848Y-9734793D02*
X11583467Y-9734793D01*
X11583467Y-9734793D02*
X11602515Y-9725270D01*
X11697753Y-9677650D02*
X11697753Y-9877650D01*
X11697753Y-9687174D02*
X11716801Y-9677650D01*
X11716801Y-9677650D02*
X11754896Y-9677650D01*
X11754896Y-9677650D02*
X11773943Y-9687174D01*
X11773943Y-9687174D02*
X11783467Y-9696698D01*
X11783467Y-9696698D02*
X11792991Y-9715746D01*
X11792991Y-9715746D02*
X11792991Y-9772889D01*
X11792991Y-9772889D02*
X11783467Y-9791936D01*
X11783467Y-9791936D02*
X11773943Y-9801460D01*
X11773943Y-9801460D02*
X11754896Y-9810984D01*
X11754896Y-9810984D02*
X11716801Y-9810984D01*
X11716801Y-9810984D02*
X11697753Y-9801460D01*
X11878705Y-9791936D02*
X11888229Y-9801460D01*
X11888229Y-9801460D02*
X11878705Y-9810984D01*
X11878705Y-9810984D02*
X11869182Y-9801460D01*
X11869182Y-9801460D02*
X11878705Y-9791936D01*
X11878705Y-9791936D02*
X11878705Y-9810984D01*
X11878705Y-9687174D02*
X11888229Y-9696698D01*
X11888229Y-9696698D02*
X11878705Y-9706222D01*
X11878705Y-9706222D02*
X11869182Y-9696698D01*
X11869182Y-9696698D02*
X11878705Y-9687174D01*
X11878705Y-9687174D02*
X11878705Y-9706222D01*
D12*
X10216500Y-10124500D02*
X10246500Y-10154500D01*
X10246500Y-10124500D02*
X10216500Y-10154500D01*
D11*
X10545372Y-10030984D02*
X10564420Y-10030984D01*
X10564420Y-10030984D02*
X10583467Y-10040508D01*
X10583467Y-10040508D02*
X10592991Y-10050031D01*
X10592991Y-10050031D02*
X10602515Y-10069079D01*
X10602515Y-10069079D02*
X10612039Y-10107174D01*
X10612039Y-10107174D02*
X10612039Y-10154793D01*
X10612039Y-10154793D02*
X10602515Y-10192889D01*
X10602515Y-10192889D02*
X10592991Y-10211936D01*
X10592991Y-10211936D02*
X10583467Y-10221460D01*
X10583467Y-10221460D02*
X10564420Y-10230984D01*
X10564420Y-10230984D02*
X10545372Y-10230984D01*
X10545372Y-10230984D02*
X10526324Y-10221460D01*
X10526324Y-10221460D02*
X10516801Y-10211936D01*
X10516801Y-10211936D02*
X10507277Y-10192889D01*
X10507277Y-10192889D02*
X10497753Y-10154793D01*
X10497753Y-10154793D02*
X10497753Y-10107174D01*
X10497753Y-10107174D02*
X10507277Y-10069079D01*
X10507277Y-10069079D02*
X10516801Y-10050031D01*
X10516801Y-10050031D02*
X10526324Y-10040508D01*
X10526324Y-10040508D02*
X10545372Y-10030984D01*
X10697753Y-10211936D02*
X10707277Y-10221460D01*
X10707277Y-10221460D02*
X10697753Y-10230984D01*
X10697753Y-10230984D02*
X10688229Y-10221460D01*
X10688229Y-10221460D02*
X10697753Y-10211936D01*
X10697753Y-10211936D02*
X10697753Y-10230984D01*
X10773944Y-10030984D02*
X10897753Y-10030984D01*
X10897753Y-10030984D02*
X10831086Y-10107174D01*
X10831086Y-10107174D02*
X10859658Y-10107174D01*
X10859658Y-10107174D02*
X10878705Y-10116698D01*
X10878705Y-10116698D02*
X10888229Y-10126222D01*
X10888229Y-10126222D02*
X10897753Y-10145270D01*
X10897753Y-10145270D02*
X10897753Y-10192889D01*
X10897753Y-10192889D02*
X10888229Y-10211936D01*
X10888229Y-10211936D02*
X10878705Y-10221460D01*
X10878705Y-10221460D02*
X10859658Y-10230984D01*
X10859658Y-10230984D02*
X10802515Y-10230984D01*
X10802515Y-10230984D02*
X10783467Y-10221460D01*
X10783467Y-10221460D02*
X10773944Y-10211936D01*
X11021563Y-10030984D02*
X11040610Y-10030984D01*
X11040610Y-10030984D02*
X11059658Y-10040508D01*
X11059658Y-10040508D02*
X11069182Y-10050031D01*
X11069182Y-10050031D02*
X11078705Y-10069079D01*
X11078705Y-10069079D02*
X11088229Y-10107174D01*
X11088229Y-10107174D02*
X11088229Y-10154793D01*
X11088229Y-10154793D02*
X11078705Y-10192889D01*
X11078705Y-10192889D02*
X11069182Y-10211936D01*
X11069182Y-10211936D02*
X11059658Y-10221460D01*
X11059658Y-10221460D02*
X11040610Y-10230984D01*
X11040610Y-10230984D02*
X11021563Y-10230984D01*
X11021563Y-10230984D02*
X11002515Y-10221460D01*
X11002515Y-10221460D02*
X10992991Y-10211936D01*
X10992991Y-10211936D02*
X10983467Y-10192889D01*
X10983467Y-10192889D02*
X10973944Y-10154793D01*
X10973944Y-10154793D02*
X10973944Y-10107174D01*
X10973944Y-10107174D02*
X10983467Y-10069079D01*
X10983467Y-10069079D02*
X10992991Y-10050031D01*
X10992991Y-10050031D02*
X11002515Y-10040508D01*
X11002515Y-10040508D02*
X11021563Y-10030984D01*
X11212039Y-10030984D02*
X11231086Y-10030984D01*
X11231086Y-10030984D02*
X11250134Y-10040508D01*
X11250134Y-10040508D02*
X11259658Y-10050031D01*
X11259658Y-10050031D02*
X11269182Y-10069079D01*
X11269182Y-10069079D02*
X11278705Y-10107174D01*
X11278705Y-10107174D02*
X11278705Y-10154793D01*
X11278705Y-10154793D02*
X11269182Y-10192889D01*
X11269182Y-10192889D02*
X11259658Y-10211936D01*
X11259658Y-10211936D02*
X11250134Y-10221460D01*
X11250134Y-10221460D02*
X11231086Y-10230984D01*
X11231086Y-10230984D02*
X11212039Y-10230984D01*
X11212039Y-10230984D02*
X11192991Y-10221460D01*
X11192991Y-10221460D02*
X11183467Y-10211936D01*
X11183467Y-10211936D02*
X11173944Y-10192889D01*
X11173944Y-10192889D02*
X11164420Y-10154793D01*
X11164420Y-10154793D02*
X11164420Y-10107174D01*
X11164420Y-10107174D02*
X11173944Y-10069079D01*
X11173944Y-10069079D02*
X11183467Y-10050031D01*
X11183467Y-10050031D02*
X11192991Y-10040508D01*
X11192991Y-10040508D02*
X11212039Y-10030984D01*
X11364420Y-10230984D02*
X11364420Y-10097650D01*
X11364420Y-10116698D02*
X11373943Y-10107174D01*
X11373943Y-10107174D02*
X11392991Y-10097650D01*
X11392991Y-10097650D02*
X11421563Y-10097650D01*
X11421563Y-10097650D02*
X11440610Y-10107174D01*
X11440610Y-10107174D02*
X11450134Y-10126222D01*
X11450134Y-10126222D02*
X11450134Y-10230984D01*
X11450134Y-10126222D02*
X11459658Y-10107174D01*
X11459658Y-10107174D02*
X11478705Y-10097650D01*
X11478705Y-10097650D02*
X11507277Y-10097650D01*
X11507277Y-10097650D02*
X11526324Y-10107174D01*
X11526324Y-10107174D02*
X11535848Y-10126222D01*
X11535848Y-10126222D02*
X11535848Y-10230984D01*
X11631086Y-10230984D02*
X11631086Y-10097650D01*
X11631086Y-10116698D02*
X11640610Y-10107174D01*
X11640610Y-10107174D02*
X11659658Y-10097650D01*
X11659658Y-10097650D02*
X11688229Y-10097650D01*
X11688229Y-10097650D02*
X11707277Y-10107174D01*
X11707277Y-10107174D02*
X11716801Y-10126222D01*
X11716801Y-10126222D02*
X11716801Y-10230984D01*
X11716801Y-10126222D02*
X11726324Y-10107174D01*
X11726324Y-10107174D02*
X11745372Y-10097650D01*
X11745372Y-10097650D02*
X11773943Y-10097650D01*
X11773943Y-10097650D02*
X11792991Y-10107174D01*
X11792991Y-10107174D02*
X11802515Y-10126222D01*
X11802515Y-10126222D02*
X11802515Y-10230984D01*
X12192991Y-10021460D02*
X12021563Y-10278603D01*
X12450134Y-10030984D02*
X12469182Y-10030984D01*
X12469182Y-10030984D02*
X12488229Y-10040508D01*
X12488229Y-10040508D02*
X12497753Y-10050031D01*
X12497753Y-10050031D02*
X12507277Y-10069079D01*
X12507277Y-10069079D02*
X12516801Y-10107174D01*
X12516801Y-10107174D02*
X12516801Y-10154793D01*
X12516801Y-10154793D02*
X12507277Y-10192889D01*
X12507277Y-10192889D02*
X12497753Y-10211936D01*
X12497753Y-10211936D02*
X12488229Y-10221460D01*
X12488229Y-10221460D02*
X12469182Y-10230984D01*
X12469182Y-10230984D02*
X12450134Y-10230984D01*
X12450134Y-10230984D02*
X12431086Y-10221460D01*
X12431086Y-10221460D02*
X12421563Y-10211936D01*
X12421563Y-10211936D02*
X12412039Y-10192889D01*
X12412039Y-10192889D02*
X12402515Y-10154793D01*
X12402515Y-10154793D02*
X12402515Y-10107174D01*
X12402515Y-10107174D02*
X12412039Y-10069079D01*
X12412039Y-10069079D02*
X12421563Y-10050031D01*
X12421563Y-10050031D02*
X12431086Y-10040508D01*
X12431086Y-10040508D02*
X12450134Y-10030984D01*
X12602515Y-10211936D02*
X12612039Y-10221460D01*
X12612039Y-10221460D02*
X12602515Y-10230984D01*
X12602515Y-10230984D02*
X12592991Y-10221460D01*
X12592991Y-10221460D02*
X12602515Y-10211936D01*
X12602515Y-10211936D02*
X12602515Y-10230984D01*
X12735848Y-10030984D02*
X12754896Y-10030984D01*
X12754896Y-10030984D02*
X12773944Y-10040508D01*
X12773944Y-10040508D02*
X12783467Y-10050031D01*
X12783467Y-10050031D02*
X12792991Y-10069079D01*
X12792991Y-10069079D02*
X12802515Y-10107174D01*
X12802515Y-10107174D02*
X12802515Y-10154793D01*
X12802515Y-10154793D02*
X12792991Y-10192889D01*
X12792991Y-10192889D02*
X12783467Y-10211936D01*
X12783467Y-10211936D02*
X12773944Y-10221460D01*
X12773944Y-10221460D02*
X12754896Y-10230984D01*
X12754896Y-10230984D02*
X12735848Y-10230984D01*
X12735848Y-10230984D02*
X12716801Y-10221460D01*
X12716801Y-10221460D02*
X12707277Y-10211936D01*
X12707277Y-10211936D02*
X12697753Y-10192889D01*
X12697753Y-10192889D02*
X12688229Y-10154793D01*
X12688229Y-10154793D02*
X12688229Y-10107174D01*
X12688229Y-10107174D02*
X12697753Y-10069079D01*
X12697753Y-10069079D02*
X12707277Y-10050031D01*
X12707277Y-10050031D02*
X12716801Y-10040508D01*
X12716801Y-10040508D02*
X12735848Y-10030984D01*
X12992991Y-10230984D02*
X12878706Y-10230984D01*
X12935848Y-10230984D02*
X12935848Y-10030984D01*
X12935848Y-10030984D02*
X12916801Y-10059555D01*
X12916801Y-10059555D02*
X12897753Y-10078603D01*
X12897753Y-10078603D02*
X12878706Y-10088127D01*
X13183467Y-10230984D02*
X13069182Y-10230984D01*
X13126325Y-10230984D02*
X13126325Y-10030984D01*
X13126325Y-10030984D02*
X13107277Y-10059555D01*
X13107277Y-10059555D02*
X13088229Y-10078603D01*
X13088229Y-10078603D02*
X13069182Y-10088127D01*
X13297753Y-10116698D02*
X13278706Y-10107174D01*
X13278706Y-10107174D02*
X13269182Y-10097650D01*
X13269182Y-10097650D02*
X13259658Y-10078603D01*
X13259658Y-10078603D02*
X13259658Y-10069079D01*
X13259658Y-10069079D02*
X13269182Y-10050031D01*
X13269182Y-10050031D02*
X13278706Y-10040508D01*
X13278706Y-10040508D02*
X13297753Y-10030984D01*
X13297753Y-10030984D02*
X13335848Y-10030984D01*
X13335848Y-10030984D02*
X13354896Y-10040508D01*
X13354896Y-10040508D02*
X13364420Y-10050031D01*
X13364420Y-10050031D02*
X13373944Y-10069079D01*
X13373944Y-10069079D02*
X13373944Y-10078603D01*
X13373944Y-10078603D02*
X13364420Y-10097650D01*
X13364420Y-10097650D02*
X13354896Y-10107174D01*
X13354896Y-10107174D02*
X13335848Y-10116698D01*
X13335848Y-10116698D02*
X13297753Y-10116698D01*
X13297753Y-10116698D02*
X13278706Y-10126222D01*
X13278706Y-10126222D02*
X13269182Y-10135746D01*
X13269182Y-10135746D02*
X13259658Y-10154793D01*
X13259658Y-10154793D02*
X13259658Y-10192889D01*
X13259658Y-10192889D02*
X13269182Y-10211936D01*
X13269182Y-10211936D02*
X13278706Y-10221460D01*
X13278706Y-10221460D02*
X13297753Y-10230984D01*
X13297753Y-10230984D02*
X13335848Y-10230984D01*
X13335848Y-10230984D02*
X13354896Y-10221460D01*
X13354896Y-10221460D02*
X13364420Y-10211936D01*
X13364420Y-10211936D02*
X13373944Y-10192889D01*
X13373944Y-10192889D02*
X13373944Y-10154793D01*
X13373944Y-10154793D02*
X13364420Y-10135746D01*
X13364420Y-10135746D02*
X13354896Y-10126222D01*
X13354896Y-10126222D02*
X13335848Y-10116698D01*
X13450134Y-10030984D02*
X13450134Y-10069079D01*
X13526325Y-10030984D02*
X13526325Y-10069079D01*
X13821563Y-10307174D02*
X13812039Y-10297650D01*
X13812039Y-10297650D02*
X13792991Y-10269079D01*
X13792991Y-10269079D02*
X13783468Y-10250031D01*
X13783468Y-10250031D02*
X13773944Y-10221460D01*
X13773944Y-10221460D02*
X13764420Y-10173841D01*
X13764420Y-10173841D02*
X13764420Y-10135746D01*
X13764420Y-10135746D02*
X13773944Y-10088127D01*
X13773944Y-10088127D02*
X13783468Y-10059555D01*
X13783468Y-10059555D02*
X13792991Y-10040508D01*
X13792991Y-10040508D02*
X13812039Y-10011936D01*
X13812039Y-10011936D02*
X13821563Y-10002412D01*
X13926325Y-10116698D02*
X13907277Y-10107174D01*
X13907277Y-10107174D02*
X13897753Y-10097650D01*
X13897753Y-10097650D02*
X13888229Y-10078603D01*
X13888229Y-10078603D02*
X13888229Y-10069079D01*
X13888229Y-10069079D02*
X13897753Y-10050031D01*
X13897753Y-10050031D02*
X13907277Y-10040508D01*
X13907277Y-10040508D02*
X13926325Y-10030984D01*
X13926325Y-10030984D02*
X13964420Y-10030984D01*
X13964420Y-10030984D02*
X13983468Y-10040508D01*
X13983468Y-10040508D02*
X13992991Y-10050031D01*
X13992991Y-10050031D02*
X14002515Y-10069079D01*
X14002515Y-10069079D02*
X14002515Y-10078603D01*
X14002515Y-10078603D02*
X13992991Y-10097650D01*
X13992991Y-10097650D02*
X13983468Y-10107174D01*
X13983468Y-10107174D02*
X13964420Y-10116698D01*
X13964420Y-10116698D02*
X13926325Y-10116698D01*
X13926325Y-10116698D02*
X13907277Y-10126222D01*
X13907277Y-10126222D02*
X13897753Y-10135746D01*
X13897753Y-10135746D02*
X13888229Y-10154793D01*
X13888229Y-10154793D02*
X13888229Y-10192889D01*
X13888229Y-10192889D02*
X13897753Y-10211936D01*
X13897753Y-10211936D02*
X13907277Y-10221460D01*
X13907277Y-10221460D02*
X13926325Y-10230984D01*
X13926325Y-10230984D02*
X13964420Y-10230984D01*
X13964420Y-10230984D02*
X13983468Y-10221460D01*
X13983468Y-10221460D02*
X13992991Y-10211936D01*
X13992991Y-10211936D02*
X14002515Y-10192889D01*
X14002515Y-10192889D02*
X14002515Y-10154793D01*
X14002515Y-10154793D02*
X13992991Y-10135746D01*
X13992991Y-10135746D02*
X13983468Y-10126222D01*
X13983468Y-10126222D02*
X13964420Y-10116698D01*
X14240610Y-10230984D02*
X14240610Y-10030984D01*
X14326325Y-10230984D02*
X14326325Y-10126222D01*
X14326325Y-10126222D02*
X14316801Y-10107174D01*
X14316801Y-10107174D02*
X14297753Y-10097650D01*
X14297753Y-10097650D02*
X14269182Y-10097650D01*
X14269182Y-10097650D02*
X14250134Y-10107174D01*
X14250134Y-10107174D02*
X14240610Y-10116698D01*
X14450134Y-10230984D02*
X14431087Y-10221460D01*
X14431087Y-10221460D02*
X14421563Y-10211936D01*
X14421563Y-10211936D02*
X14412039Y-10192889D01*
X14412039Y-10192889D02*
X14412039Y-10135746D01*
X14412039Y-10135746D02*
X14421563Y-10116698D01*
X14421563Y-10116698D02*
X14431087Y-10107174D01*
X14431087Y-10107174D02*
X14450134Y-10097650D01*
X14450134Y-10097650D02*
X14478706Y-10097650D01*
X14478706Y-10097650D02*
X14497753Y-10107174D01*
X14497753Y-10107174D02*
X14507277Y-10116698D01*
X14507277Y-10116698D02*
X14516801Y-10135746D01*
X14516801Y-10135746D02*
X14516801Y-10192889D01*
X14516801Y-10192889D02*
X14507277Y-10211936D01*
X14507277Y-10211936D02*
X14497753Y-10221460D01*
X14497753Y-10221460D02*
X14478706Y-10230984D01*
X14478706Y-10230984D02*
X14450134Y-10230984D01*
X14631087Y-10230984D02*
X14612039Y-10221460D01*
X14612039Y-10221460D02*
X14602515Y-10202412D01*
X14602515Y-10202412D02*
X14602515Y-10030984D01*
X14783468Y-10221460D02*
X14764420Y-10230984D01*
X14764420Y-10230984D02*
X14726325Y-10230984D01*
X14726325Y-10230984D02*
X14707277Y-10221460D01*
X14707277Y-10221460D02*
X14697753Y-10202412D01*
X14697753Y-10202412D02*
X14697753Y-10126222D01*
X14697753Y-10126222D02*
X14707277Y-10107174D01*
X14707277Y-10107174D02*
X14726325Y-10097650D01*
X14726325Y-10097650D02*
X14764420Y-10097650D01*
X14764420Y-10097650D02*
X14783468Y-10107174D01*
X14783468Y-10107174D02*
X14792991Y-10126222D01*
X14792991Y-10126222D02*
X14792991Y-10145270D01*
X14792991Y-10145270D02*
X14697753Y-10164317D01*
X14869182Y-10221460D02*
X14888230Y-10230984D01*
X14888230Y-10230984D02*
X14926325Y-10230984D01*
X14926325Y-10230984D02*
X14945372Y-10221460D01*
X14945372Y-10221460D02*
X14954896Y-10202412D01*
X14954896Y-10202412D02*
X14954896Y-10192889D01*
X14954896Y-10192889D02*
X14945372Y-10173841D01*
X14945372Y-10173841D02*
X14926325Y-10164317D01*
X14926325Y-10164317D02*
X14897753Y-10164317D01*
X14897753Y-10164317D02*
X14878706Y-10154793D01*
X14878706Y-10154793D02*
X14869182Y-10135746D01*
X14869182Y-10135746D02*
X14869182Y-10126222D01*
X14869182Y-10126222D02*
X14878706Y-10107174D01*
X14878706Y-10107174D02*
X14897753Y-10097650D01*
X14897753Y-10097650D02*
X14926325Y-10097650D01*
X14926325Y-10097650D02*
X14945372Y-10107174D01*
X15021563Y-10307174D02*
X15031087Y-10297650D01*
X15031087Y-10297650D02*
X15050134Y-10269079D01*
X15050134Y-10269079D02*
X15059658Y-10250031D01*
X15059658Y-10250031D02*
X15069182Y-10221460D01*
X15069182Y-10221460D02*
X15078706Y-10173841D01*
X15078706Y-10173841D02*
X15078706Y-10135746D01*
X15078706Y-10135746D02*
X15069182Y-10088127D01*
X15069182Y-10088127D02*
X15059658Y-10059555D01*
X15059658Y-10059555D02*
X15050134Y-10040508D01*
X15050134Y-10040508D02*
X15031087Y-10011936D01*
X15031087Y-10011936D02*
X15021563Y-10002412D01*
D12*
X10246500Y-10403500D02*
G75*
G02*
X10206500Y-10403500I-20000J0D01*
G01*
X10206500Y-10403500D02*
G75*
G02*
X10246500Y-10403500I20000J0D01*
G01*
D11*
X10545372Y-10294984D02*
X10564420Y-10294984D01*
X10564420Y-10294984D02*
X10583467Y-10304508D01*
X10583467Y-10304508D02*
X10592991Y-10314031D01*
X10592991Y-10314031D02*
X10602515Y-10333079D01*
X10602515Y-10333079D02*
X10612039Y-10371174D01*
X10612039Y-10371174D02*
X10612039Y-10418793D01*
X10612039Y-10418793D02*
X10602515Y-10456889D01*
X10602515Y-10456889D02*
X10592991Y-10475936D01*
X10592991Y-10475936D02*
X10583467Y-10485460D01*
X10583467Y-10485460D02*
X10564420Y-10494984D01*
X10564420Y-10494984D02*
X10545372Y-10494984D01*
X10545372Y-10494984D02*
X10526324Y-10485460D01*
X10526324Y-10485460D02*
X10516801Y-10475936D01*
X10516801Y-10475936D02*
X10507277Y-10456889D01*
X10507277Y-10456889D02*
X10497753Y-10418793D01*
X10497753Y-10418793D02*
X10497753Y-10371174D01*
X10497753Y-10371174D02*
X10507277Y-10333079D01*
X10507277Y-10333079D02*
X10516801Y-10314031D01*
X10516801Y-10314031D02*
X10526324Y-10304508D01*
X10526324Y-10304508D02*
X10545372Y-10294984D01*
X10697753Y-10475936D02*
X10707277Y-10485460D01*
X10707277Y-10485460D02*
X10697753Y-10494984D01*
X10697753Y-10494984D02*
X10688229Y-10485460D01*
X10688229Y-10485460D02*
X10697753Y-10475936D01*
X10697753Y-10475936D02*
X10697753Y-10494984D01*
X10878705Y-10361650D02*
X10878705Y-10494984D01*
X10831086Y-10285460D02*
X10783467Y-10428317D01*
X10783467Y-10428317D02*
X10907277Y-10428317D01*
X11021563Y-10294984D02*
X11040610Y-10294984D01*
X11040610Y-10294984D02*
X11059658Y-10304508D01*
X11059658Y-10304508D02*
X11069182Y-10314031D01*
X11069182Y-10314031D02*
X11078705Y-10333079D01*
X11078705Y-10333079D02*
X11088229Y-10371174D01*
X11088229Y-10371174D02*
X11088229Y-10418793D01*
X11088229Y-10418793D02*
X11078705Y-10456889D01*
X11078705Y-10456889D02*
X11069182Y-10475936D01*
X11069182Y-10475936D02*
X11059658Y-10485460D01*
X11059658Y-10485460D02*
X11040610Y-10494984D01*
X11040610Y-10494984D02*
X11021563Y-10494984D01*
X11021563Y-10494984D02*
X11002515Y-10485460D01*
X11002515Y-10485460D02*
X10992991Y-10475936D01*
X10992991Y-10475936D02*
X10983467Y-10456889D01*
X10983467Y-10456889D02*
X10973944Y-10418793D01*
X10973944Y-10418793D02*
X10973944Y-10371174D01*
X10973944Y-10371174D02*
X10983467Y-10333079D01*
X10983467Y-10333079D02*
X10992991Y-10314031D01*
X10992991Y-10314031D02*
X11002515Y-10304508D01*
X11002515Y-10304508D02*
X11021563Y-10294984D01*
X11212039Y-10294984D02*
X11231086Y-10294984D01*
X11231086Y-10294984D02*
X11250134Y-10304508D01*
X11250134Y-10304508D02*
X11259658Y-10314031D01*
X11259658Y-10314031D02*
X11269182Y-10333079D01*
X11269182Y-10333079D02*
X11278705Y-10371174D01*
X11278705Y-10371174D02*
X11278705Y-10418793D01*
X11278705Y-10418793D02*
X11269182Y-10456889D01*
X11269182Y-10456889D02*
X11259658Y-10475936D01*
X11259658Y-10475936D02*
X11250134Y-10485460D01*
X11250134Y-10485460D02*
X11231086Y-10494984D01*
X11231086Y-10494984D02*
X11212039Y-10494984D01*
X11212039Y-10494984D02*
X11192991Y-10485460D01*
X11192991Y-10485460D02*
X11183467Y-10475936D01*
X11183467Y-10475936D02*
X11173944Y-10456889D01*
X11173944Y-10456889D02*
X11164420Y-10418793D01*
X11164420Y-10418793D02*
X11164420Y-10371174D01*
X11164420Y-10371174D02*
X11173944Y-10333079D01*
X11173944Y-10333079D02*
X11183467Y-10314031D01*
X11183467Y-10314031D02*
X11192991Y-10304508D01*
X11192991Y-10304508D02*
X11212039Y-10294984D01*
X11364420Y-10494984D02*
X11364420Y-10361650D01*
X11364420Y-10380698D02*
X11373943Y-10371174D01*
X11373943Y-10371174D02*
X11392991Y-10361650D01*
X11392991Y-10361650D02*
X11421563Y-10361650D01*
X11421563Y-10361650D02*
X11440610Y-10371174D01*
X11440610Y-10371174D02*
X11450134Y-10390222D01*
X11450134Y-10390222D02*
X11450134Y-10494984D01*
X11450134Y-10390222D02*
X11459658Y-10371174D01*
X11459658Y-10371174D02*
X11478705Y-10361650D01*
X11478705Y-10361650D02*
X11507277Y-10361650D01*
X11507277Y-10361650D02*
X11526324Y-10371174D01*
X11526324Y-10371174D02*
X11535848Y-10390222D01*
X11535848Y-10390222D02*
X11535848Y-10494984D01*
X11631086Y-10494984D02*
X11631086Y-10361650D01*
X11631086Y-10380698D02*
X11640610Y-10371174D01*
X11640610Y-10371174D02*
X11659658Y-10361650D01*
X11659658Y-10361650D02*
X11688229Y-10361650D01*
X11688229Y-10361650D02*
X11707277Y-10371174D01*
X11707277Y-10371174D02*
X11716801Y-10390222D01*
X11716801Y-10390222D02*
X11716801Y-10494984D01*
X11716801Y-10390222D02*
X11726324Y-10371174D01*
X11726324Y-10371174D02*
X11745372Y-10361650D01*
X11745372Y-10361650D02*
X11773943Y-10361650D01*
X11773943Y-10361650D02*
X11792991Y-10371174D01*
X11792991Y-10371174D02*
X11802515Y-10390222D01*
X11802515Y-10390222D02*
X11802515Y-10494984D01*
X12192991Y-10285460D02*
X12021563Y-10542603D01*
X12450134Y-10294984D02*
X12469182Y-10294984D01*
X12469182Y-10294984D02*
X12488229Y-10304508D01*
X12488229Y-10304508D02*
X12497753Y-10314031D01*
X12497753Y-10314031D02*
X12507277Y-10333079D01*
X12507277Y-10333079D02*
X12516801Y-10371174D01*
X12516801Y-10371174D02*
X12516801Y-10418793D01*
X12516801Y-10418793D02*
X12507277Y-10456889D01*
X12507277Y-10456889D02*
X12497753Y-10475936D01*
X12497753Y-10475936D02*
X12488229Y-10485460D01*
X12488229Y-10485460D02*
X12469182Y-10494984D01*
X12469182Y-10494984D02*
X12450134Y-10494984D01*
X12450134Y-10494984D02*
X12431086Y-10485460D01*
X12431086Y-10485460D02*
X12421563Y-10475936D01*
X12421563Y-10475936D02*
X12412039Y-10456889D01*
X12412039Y-10456889D02*
X12402515Y-10418793D01*
X12402515Y-10418793D02*
X12402515Y-10371174D01*
X12402515Y-10371174D02*
X12412039Y-10333079D01*
X12412039Y-10333079D02*
X12421563Y-10314031D01*
X12421563Y-10314031D02*
X12431086Y-10304508D01*
X12431086Y-10304508D02*
X12450134Y-10294984D01*
X12602515Y-10475936D02*
X12612039Y-10485460D01*
X12612039Y-10485460D02*
X12602515Y-10494984D01*
X12602515Y-10494984D02*
X12592991Y-10485460D01*
X12592991Y-10485460D02*
X12602515Y-10475936D01*
X12602515Y-10475936D02*
X12602515Y-10494984D01*
X12735848Y-10294984D02*
X12754896Y-10294984D01*
X12754896Y-10294984D02*
X12773944Y-10304508D01*
X12773944Y-10304508D02*
X12783467Y-10314031D01*
X12783467Y-10314031D02*
X12792991Y-10333079D01*
X12792991Y-10333079D02*
X12802515Y-10371174D01*
X12802515Y-10371174D02*
X12802515Y-10418793D01*
X12802515Y-10418793D02*
X12792991Y-10456889D01*
X12792991Y-10456889D02*
X12783467Y-10475936D01*
X12783467Y-10475936D02*
X12773944Y-10485460D01*
X12773944Y-10485460D02*
X12754896Y-10494984D01*
X12754896Y-10494984D02*
X12735848Y-10494984D01*
X12735848Y-10494984D02*
X12716801Y-10485460D01*
X12716801Y-10485460D02*
X12707277Y-10475936D01*
X12707277Y-10475936D02*
X12697753Y-10456889D01*
X12697753Y-10456889D02*
X12688229Y-10418793D01*
X12688229Y-10418793D02*
X12688229Y-10371174D01*
X12688229Y-10371174D02*
X12697753Y-10333079D01*
X12697753Y-10333079D02*
X12707277Y-10314031D01*
X12707277Y-10314031D02*
X12716801Y-10304508D01*
X12716801Y-10304508D02*
X12735848Y-10294984D01*
X12992991Y-10494984D02*
X12878706Y-10494984D01*
X12935848Y-10494984D02*
X12935848Y-10294984D01*
X12935848Y-10294984D02*
X12916801Y-10323555D01*
X12916801Y-10323555D02*
X12897753Y-10342603D01*
X12897753Y-10342603D02*
X12878706Y-10352127D01*
X13173944Y-10294984D02*
X13078706Y-10294984D01*
X13078706Y-10294984D02*
X13069182Y-10390222D01*
X13069182Y-10390222D02*
X13078706Y-10380698D01*
X13078706Y-10380698D02*
X13097753Y-10371174D01*
X13097753Y-10371174D02*
X13145372Y-10371174D01*
X13145372Y-10371174D02*
X13164420Y-10380698D01*
X13164420Y-10380698D02*
X13173944Y-10390222D01*
X13173944Y-10390222D02*
X13183467Y-10409270D01*
X13183467Y-10409270D02*
X13183467Y-10456889D01*
X13183467Y-10456889D02*
X13173944Y-10475936D01*
X13173944Y-10475936D02*
X13164420Y-10485460D01*
X13164420Y-10485460D02*
X13145372Y-10494984D01*
X13145372Y-10494984D02*
X13097753Y-10494984D01*
X13097753Y-10494984D02*
X13078706Y-10485460D01*
X13078706Y-10485460D02*
X13069182Y-10475936D01*
X13250134Y-10294984D02*
X13383467Y-10294984D01*
X13383467Y-10294984D02*
X13297753Y-10494984D01*
X13450134Y-10294984D02*
X13450134Y-10333079D01*
X13526325Y-10294984D02*
X13526325Y-10333079D01*
X13821563Y-10571174D02*
X13812039Y-10561650D01*
X13812039Y-10561650D02*
X13792991Y-10533079D01*
X13792991Y-10533079D02*
X13783468Y-10514031D01*
X13783468Y-10514031D02*
X13773944Y-10485460D01*
X13773944Y-10485460D02*
X13764420Y-10437841D01*
X13764420Y-10437841D02*
X13764420Y-10399746D01*
X13764420Y-10399746D02*
X13773944Y-10352127D01*
X13773944Y-10352127D02*
X13783468Y-10323555D01*
X13783468Y-10323555D02*
X13792991Y-10304508D01*
X13792991Y-10304508D02*
X13812039Y-10275936D01*
X13812039Y-10275936D02*
X13821563Y-10266412D01*
X14002515Y-10494984D02*
X13888229Y-10494984D01*
X13945372Y-10494984D02*
X13945372Y-10294984D01*
X13945372Y-10294984D02*
X13926325Y-10323555D01*
X13926325Y-10323555D02*
X13907277Y-10342603D01*
X13907277Y-10342603D02*
X13888229Y-10352127D01*
X14097753Y-10494984D02*
X14135848Y-10494984D01*
X14135848Y-10494984D02*
X14154896Y-10485460D01*
X14154896Y-10485460D02*
X14164420Y-10475936D01*
X14164420Y-10475936D02*
X14183468Y-10447365D01*
X14183468Y-10447365D02*
X14192991Y-10409270D01*
X14192991Y-10409270D02*
X14192991Y-10333079D01*
X14192991Y-10333079D02*
X14183468Y-10314031D01*
X14183468Y-10314031D02*
X14173944Y-10304508D01*
X14173944Y-10304508D02*
X14154896Y-10294984D01*
X14154896Y-10294984D02*
X14116801Y-10294984D01*
X14116801Y-10294984D02*
X14097753Y-10304508D01*
X14097753Y-10304508D02*
X14088229Y-10314031D01*
X14088229Y-10314031D02*
X14078706Y-10333079D01*
X14078706Y-10333079D02*
X14078706Y-10380698D01*
X14078706Y-10380698D02*
X14088229Y-10399746D01*
X14088229Y-10399746D02*
X14097753Y-10409270D01*
X14097753Y-10409270D02*
X14116801Y-10418793D01*
X14116801Y-10418793D02*
X14154896Y-10418793D01*
X14154896Y-10418793D02*
X14173944Y-10409270D01*
X14173944Y-10409270D02*
X14183468Y-10399746D01*
X14183468Y-10399746D02*
X14192991Y-10380698D01*
X14431087Y-10494984D02*
X14431087Y-10294984D01*
X14516801Y-10494984D02*
X14516801Y-10390222D01*
X14516801Y-10390222D02*
X14507277Y-10371174D01*
X14507277Y-10371174D02*
X14488230Y-10361650D01*
X14488230Y-10361650D02*
X14459658Y-10361650D01*
X14459658Y-10361650D02*
X14440610Y-10371174D01*
X14440610Y-10371174D02*
X14431087Y-10380698D01*
X14640610Y-10494984D02*
X14621563Y-10485460D01*
X14621563Y-10485460D02*
X14612039Y-10475936D01*
X14612039Y-10475936D02*
X14602515Y-10456889D01*
X14602515Y-10456889D02*
X14602515Y-10399746D01*
X14602515Y-10399746D02*
X14612039Y-10380698D01*
X14612039Y-10380698D02*
X14621563Y-10371174D01*
X14621563Y-10371174D02*
X14640610Y-10361650D01*
X14640610Y-10361650D02*
X14669182Y-10361650D01*
X14669182Y-10361650D02*
X14688230Y-10371174D01*
X14688230Y-10371174D02*
X14697753Y-10380698D01*
X14697753Y-10380698D02*
X14707277Y-10399746D01*
X14707277Y-10399746D02*
X14707277Y-10456889D01*
X14707277Y-10456889D02*
X14697753Y-10475936D01*
X14697753Y-10475936D02*
X14688230Y-10485460D01*
X14688230Y-10485460D02*
X14669182Y-10494984D01*
X14669182Y-10494984D02*
X14640610Y-10494984D01*
X14821563Y-10494984D02*
X14802515Y-10485460D01*
X14802515Y-10485460D02*
X14792991Y-10466412D01*
X14792991Y-10466412D02*
X14792991Y-10294984D01*
X14973944Y-10485460D02*
X14954896Y-10494984D01*
X14954896Y-10494984D02*
X14916801Y-10494984D01*
X14916801Y-10494984D02*
X14897753Y-10485460D01*
X14897753Y-10485460D02*
X14888230Y-10466412D01*
X14888230Y-10466412D02*
X14888230Y-10390222D01*
X14888230Y-10390222D02*
X14897753Y-10371174D01*
X14897753Y-10371174D02*
X14916801Y-10361650D01*
X14916801Y-10361650D02*
X14954896Y-10361650D01*
X14954896Y-10361650D02*
X14973944Y-10371174D01*
X14973944Y-10371174D02*
X14983468Y-10390222D01*
X14983468Y-10390222D02*
X14983468Y-10409270D01*
X14983468Y-10409270D02*
X14888230Y-10428317D01*
X15059658Y-10485460D02*
X15078706Y-10494984D01*
X15078706Y-10494984D02*
X15116801Y-10494984D01*
X15116801Y-10494984D02*
X15135849Y-10485460D01*
X15135849Y-10485460D02*
X15145372Y-10466412D01*
X15145372Y-10466412D02*
X15145372Y-10456889D01*
X15145372Y-10456889D02*
X15135849Y-10437841D01*
X15135849Y-10437841D02*
X15116801Y-10428317D01*
X15116801Y-10428317D02*
X15088230Y-10428317D01*
X15088230Y-10428317D02*
X15069182Y-10418793D01*
X15069182Y-10418793D02*
X15059658Y-10399746D01*
X15059658Y-10399746D02*
X15059658Y-10390222D01*
X15059658Y-10390222D02*
X15069182Y-10371174D01*
X15069182Y-10371174D02*
X15088230Y-10361650D01*
X15088230Y-10361650D02*
X15116801Y-10361650D01*
X15116801Y-10361650D02*
X15135849Y-10371174D01*
X15212039Y-10571174D02*
X15221563Y-10561650D01*
X15221563Y-10561650D02*
X15240611Y-10533079D01*
X15240611Y-10533079D02*
X15250134Y-10514031D01*
X15250134Y-10514031D02*
X15259658Y-10485460D01*
X15259658Y-10485460D02*
X15269182Y-10437841D01*
X15269182Y-10437841D02*
X15269182Y-10399746D01*
X15269182Y-10399746D02*
X15259658Y-10352127D01*
X15259658Y-10352127D02*
X15250134Y-10323555D01*
X15250134Y-10323555D02*
X15240611Y-10304508D01*
X15240611Y-10304508D02*
X15221563Y-10275936D01*
X15221563Y-10275936D02*
X15212039Y-10266412D01*
D12*
X10206500Y-10627500D02*
X10206500Y-10707500D01*
X10166500Y-10667500D02*
X10246500Y-10667500D01*
D11*
X10545372Y-10558984D02*
X10564420Y-10558984D01*
X10564420Y-10558984D02*
X10583467Y-10568508D01*
X10583467Y-10568508D02*
X10592991Y-10578031D01*
X10592991Y-10578031D02*
X10602515Y-10597079D01*
X10602515Y-10597079D02*
X10612039Y-10635174D01*
X10612039Y-10635174D02*
X10612039Y-10682793D01*
X10612039Y-10682793D02*
X10602515Y-10720889D01*
X10602515Y-10720889D02*
X10592991Y-10739936D01*
X10592991Y-10739936D02*
X10583467Y-10749460D01*
X10583467Y-10749460D02*
X10564420Y-10758984D01*
X10564420Y-10758984D02*
X10545372Y-10758984D01*
X10545372Y-10758984D02*
X10526324Y-10749460D01*
X10526324Y-10749460D02*
X10516801Y-10739936D01*
X10516801Y-10739936D02*
X10507277Y-10720889D01*
X10507277Y-10720889D02*
X10497753Y-10682793D01*
X10497753Y-10682793D02*
X10497753Y-10635174D01*
X10497753Y-10635174D02*
X10507277Y-10597079D01*
X10507277Y-10597079D02*
X10516801Y-10578031D01*
X10516801Y-10578031D02*
X10526324Y-10568508D01*
X10526324Y-10568508D02*
X10545372Y-10558984D01*
X10697753Y-10739936D02*
X10707277Y-10749460D01*
X10707277Y-10749460D02*
X10697753Y-10758984D01*
X10697753Y-10758984D02*
X10688229Y-10749460D01*
X10688229Y-10749460D02*
X10697753Y-10739936D01*
X10697753Y-10739936D02*
X10697753Y-10758984D01*
X10821563Y-10644698D02*
X10802515Y-10635174D01*
X10802515Y-10635174D02*
X10792991Y-10625650D01*
X10792991Y-10625650D02*
X10783467Y-10606603D01*
X10783467Y-10606603D02*
X10783467Y-10597079D01*
X10783467Y-10597079D02*
X10792991Y-10578031D01*
X10792991Y-10578031D02*
X10802515Y-10568508D01*
X10802515Y-10568508D02*
X10821563Y-10558984D01*
X10821563Y-10558984D02*
X10859658Y-10558984D01*
X10859658Y-10558984D02*
X10878705Y-10568508D01*
X10878705Y-10568508D02*
X10888229Y-10578031D01*
X10888229Y-10578031D02*
X10897753Y-10597079D01*
X10897753Y-10597079D02*
X10897753Y-10606603D01*
X10897753Y-10606603D02*
X10888229Y-10625650D01*
X10888229Y-10625650D02*
X10878705Y-10635174D01*
X10878705Y-10635174D02*
X10859658Y-10644698D01*
X10859658Y-10644698D02*
X10821563Y-10644698D01*
X10821563Y-10644698D02*
X10802515Y-10654222D01*
X10802515Y-10654222D02*
X10792991Y-10663746D01*
X10792991Y-10663746D02*
X10783467Y-10682793D01*
X10783467Y-10682793D02*
X10783467Y-10720889D01*
X10783467Y-10720889D02*
X10792991Y-10739936D01*
X10792991Y-10739936D02*
X10802515Y-10749460D01*
X10802515Y-10749460D02*
X10821563Y-10758984D01*
X10821563Y-10758984D02*
X10859658Y-10758984D01*
X10859658Y-10758984D02*
X10878705Y-10749460D01*
X10878705Y-10749460D02*
X10888229Y-10739936D01*
X10888229Y-10739936D02*
X10897753Y-10720889D01*
X10897753Y-10720889D02*
X10897753Y-10682793D01*
X10897753Y-10682793D02*
X10888229Y-10663746D01*
X10888229Y-10663746D02*
X10878705Y-10654222D01*
X10878705Y-10654222D02*
X10859658Y-10644698D01*
X11021563Y-10558984D02*
X11040610Y-10558984D01*
X11040610Y-10558984D02*
X11059658Y-10568508D01*
X11059658Y-10568508D02*
X11069182Y-10578031D01*
X11069182Y-10578031D02*
X11078705Y-10597079D01*
X11078705Y-10597079D02*
X11088229Y-10635174D01*
X11088229Y-10635174D02*
X11088229Y-10682793D01*
X11088229Y-10682793D02*
X11078705Y-10720889D01*
X11078705Y-10720889D02*
X11069182Y-10739936D01*
X11069182Y-10739936D02*
X11059658Y-10749460D01*
X11059658Y-10749460D02*
X11040610Y-10758984D01*
X11040610Y-10758984D02*
X11021563Y-10758984D01*
X11021563Y-10758984D02*
X11002515Y-10749460D01*
X11002515Y-10749460D02*
X10992991Y-10739936D01*
X10992991Y-10739936D02*
X10983467Y-10720889D01*
X10983467Y-10720889D02*
X10973944Y-10682793D01*
X10973944Y-10682793D02*
X10973944Y-10635174D01*
X10973944Y-10635174D02*
X10983467Y-10597079D01*
X10983467Y-10597079D02*
X10992991Y-10578031D01*
X10992991Y-10578031D02*
X11002515Y-10568508D01*
X11002515Y-10568508D02*
X11021563Y-10558984D01*
X11212039Y-10558984D02*
X11231086Y-10558984D01*
X11231086Y-10558984D02*
X11250134Y-10568508D01*
X11250134Y-10568508D02*
X11259658Y-10578031D01*
X11259658Y-10578031D02*
X11269182Y-10597079D01*
X11269182Y-10597079D02*
X11278705Y-10635174D01*
X11278705Y-10635174D02*
X11278705Y-10682793D01*
X11278705Y-10682793D02*
X11269182Y-10720889D01*
X11269182Y-10720889D02*
X11259658Y-10739936D01*
X11259658Y-10739936D02*
X11250134Y-10749460D01*
X11250134Y-10749460D02*
X11231086Y-10758984D01*
X11231086Y-10758984D02*
X11212039Y-10758984D01*
X11212039Y-10758984D02*
X11192991Y-10749460D01*
X11192991Y-10749460D02*
X11183467Y-10739936D01*
X11183467Y-10739936D02*
X11173944Y-10720889D01*
X11173944Y-10720889D02*
X11164420Y-10682793D01*
X11164420Y-10682793D02*
X11164420Y-10635174D01*
X11164420Y-10635174D02*
X11173944Y-10597079D01*
X11173944Y-10597079D02*
X11183467Y-10578031D01*
X11183467Y-10578031D02*
X11192991Y-10568508D01*
X11192991Y-10568508D02*
X11212039Y-10558984D01*
X11364420Y-10758984D02*
X11364420Y-10625650D01*
X11364420Y-10644698D02*
X11373943Y-10635174D01*
X11373943Y-10635174D02*
X11392991Y-10625650D01*
X11392991Y-10625650D02*
X11421563Y-10625650D01*
X11421563Y-10625650D02*
X11440610Y-10635174D01*
X11440610Y-10635174D02*
X11450134Y-10654222D01*
X11450134Y-10654222D02*
X11450134Y-10758984D01*
X11450134Y-10654222D02*
X11459658Y-10635174D01*
X11459658Y-10635174D02*
X11478705Y-10625650D01*
X11478705Y-10625650D02*
X11507277Y-10625650D01*
X11507277Y-10625650D02*
X11526324Y-10635174D01*
X11526324Y-10635174D02*
X11535848Y-10654222D01*
X11535848Y-10654222D02*
X11535848Y-10758984D01*
X11631086Y-10758984D02*
X11631086Y-10625650D01*
X11631086Y-10644698D02*
X11640610Y-10635174D01*
X11640610Y-10635174D02*
X11659658Y-10625650D01*
X11659658Y-10625650D02*
X11688229Y-10625650D01*
X11688229Y-10625650D02*
X11707277Y-10635174D01*
X11707277Y-10635174D02*
X11716801Y-10654222D01*
X11716801Y-10654222D02*
X11716801Y-10758984D01*
X11716801Y-10654222D02*
X11726324Y-10635174D01*
X11726324Y-10635174D02*
X11745372Y-10625650D01*
X11745372Y-10625650D02*
X11773943Y-10625650D01*
X11773943Y-10625650D02*
X11792991Y-10635174D01*
X11792991Y-10635174D02*
X11802515Y-10654222D01*
X11802515Y-10654222D02*
X11802515Y-10758984D01*
X12192991Y-10549460D02*
X12021563Y-10806603D01*
X12450134Y-10558984D02*
X12469182Y-10558984D01*
X12469182Y-10558984D02*
X12488229Y-10568508D01*
X12488229Y-10568508D02*
X12497753Y-10578031D01*
X12497753Y-10578031D02*
X12507277Y-10597079D01*
X12507277Y-10597079D02*
X12516801Y-10635174D01*
X12516801Y-10635174D02*
X12516801Y-10682793D01*
X12516801Y-10682793D02*
X12507277Y-10720889D01*
X12507277Y-10720889D02*
X12497753Y-10739936D01*
X12497753Y-10739936D02*
X12488229Y-10749460D01*
X12488229Y-10749460D02*
X12469182Y-10758984D01*
X12469182Y-10758984D02*
X12450134Y-10758984D01*
X12450134Y-10758984D02*
X12431086Y-10749460D01*
X12431086Y-10749460D02*
X12421563Y-10739936D01*
X12421563Y-10739936D02*
X12412039Y-10720889D01*
X12412039Y-10720889D02*
X12402515Y-10682793D01*
X12402515Y-10682793D02*
X12402515Y-10635174D01*
X12402515Y-10635174D02*
X12412039Y-10597079D01*
X12412039Y-10597079D02*
X12421563Y-10578031D01*
X12421563Y-10578031D02*
X12431086Y-10568508D01*
X12431086Y-10568508D02*
X12450134Y-10558984D01*
X12602515Y-10739936D02*
X12612039Y-10749460D01*
X12612039Y-10749460D02*
X12602515Y-10758984D01*
X12602515Y-10758984D02*
X12592991Y-10749460D01*
X12592991Y-10749460D02*
X12602515Y-10739936D01*
X12602515Y-10739936D02*
X12602515Y-10758984D01*
X12735848Y-10558984D02*
X12754896Y-10558984D01*
X12754896Y-10558984D02*
X12773944Y-10568508D01*
X12773944Y-10568508D02*
X12783467Y-10578031D01*
X12783467Y-10578031D02*
X12792991Y-10597079D01*
X12792991Y-10597079D02*
X12802515Y-10635174D01*
X12802515Y-10635174D02*
X12802515Y-10682793D01*
X12802515Y-10682793D02*
X12792991Y-10720889D01*
X12792991Y-10720889D02*
X12783467Y-10739936D01*
X12783467Y-10739936D02*
X12773944Y-10749460D01*
X12773944Y-10749460D02*
X12754896Y-10758984D01*
X12754896Y-10758984D02*
X12735848Y-10758984D01*
X12735848Y-10758984D02*
X12716801Y-10749460D01*
X12716801Y-10749460D02*
X12707277Y-10739936D01*
X12707277Y-10739936D02*
X12697753Y-10720889D01*
X12697753Y-10720889D02*
X12688229Y-10682793D01*
X12688229Y-10682793D02*
X12688229Y-10635174D01*
X12688229Y-10635174D02*
X12697753Y-10597079D01*
X12697753Y-10597079D02*
X12707277Y-10578031D01*
X12707277Y-10578031D02*
X12716801Y-10568508D01*
X12716801Y-10568508D02*
X12735848Y-10558984D01*
X12869182Y-10558984D02*
X12992991Y-10558984D01*
X12992991Y-10558984D02*
X12926325Y-10635174D01*
X12926325Y-10635174D02*
X12954896Y-10635174D01*
X12954896Y-10635174D02*
X12973944Y-10644698D01*
X12973944Y-10644698D02*
X12983467Y-10654222D01*
X12983467Y-10654222D02*
X12992991Y-10673270D01*
X12992991Y-10673270D02*
X12992991Y-10720889D01*
X12992991Y-10720889D02*
X12983467Y-10739936D01*
X12983467Y-10739936D02*
X12973944Y-10749460D01*
X12973944Y-10749460D02*
X12954896Y-10758984D01*
X12954896Y-10758984D02*
X12897753Y-10758984D01*
X12897753Y-10758984D02*
X12878706Y-10749460D01*
X12878706Y-10749460D02*
X12869182Y-10739936D01*
X13183467Y-10758984D02*
X13069182Y-10758984D01*
X13126325Y-10758984D02*
X13126325Y-10558984D01*
X13126325Y-10558984D02*
X13107277Y-10587555D01*
X13107277Y-10587555D02*
X13088229Y-10606603D01*
X13088229Y-10606603D02*
X13069182Y-10616127D01*
X13364420Y-10558984D02*
X13269182Y-10558984D01*
X13269182Y-10558984D02*
X13259658Y-10654222D01*
X13259658Y-10654222D02*
X13269182Y-10644698D01*
X13269182Y-10644698D02*
X13288229Y-10635174D01*
X13288229Y-10635174D02*
X13335848Y-10635174D01*
X13335848Y-10635174D02*
X13354896Y-10644698D01*
X13354896Y-10644698D02*
X13364420Y-10654222D01*
X13364420Y-10654222D02*
X13373944Y-10673270D01*
X13373944Y-10673270D02*
X13373944Y-10720889D01*
X13373944Y-10720889D02*
X13364420Y-10739936D01*
X13364420Y-10739936D02*
X13354896Y-10749460D01*
X13354896Y-10749460D02*
X13335848Y-10758984D01*
X13335848Y-10758984D02*
X13288229Y-10758984D01*
X13288229Y-10758984D02*
X13269182Y-10749460D01*
X13269182Y-10749460D02*
X13259658Y-10739936D01*
X13450134Y-10558984D02*
X13450134Y-10597079D01*
X13526325Y-10558984D02*
X13526325Y-10597079D01*
X13821563Y-10835174D02*
X13812039Y-10825650D01*
X13812039Y-10825650D02*
X13792991Y-10797079D01*
X13792991Y-10797079D02*
X13783468Y-10778031D01*
X13783468Y-10778031D02*
X13773944Y-10749460D01*
X13773944Y-10749460D02*
X13764420Y-10701841D01*
X13764420Y-10701841D02*
X13764420Y-10663746D01*
X13764420Y-10663746D02*
X13773944Y-10616127D01*
X13773944Y-10616127D02*
X13783468Y-10587555D01*
X13783468Y-10587555D02*
X13792991Y-10568508D01*
X13792991Y-10568508D02*
X13812039Y-10539936D01*
X13812039Y-10539936D02*
X13821563Y-10530412D01*
X13926325Y-10644698D02*
X13907277Y-10635174D01*
X13907277Y-10635174D02*
X13897753Y-10625650D01*
X13897753Y-10625650D02*
X13888229Y-10606603D01*
X13888229Y-10606603D02*
X13888229Y-10597079D01*
X13888229Y-10597079D02*
X13897753Y-10578031D01*
X13897753Y-10578031D02*
X13907277Y-10568508D01*
X13907277Y-10568508D02*
X13926325Y-10558984D01*
X13926325Y-10558984D02*
X13964420Y-10558984D01*
X13964420Y-10558984D02*
X13983468Y-10568508D01*
X13983468Y-10568508D02*
X13992991Y-10578031D01*
X13992991Y-10578031D02*
X14002515Y-10597079D01*
X14002515Y-10597079D02*
X14002515Y-10606603D01*
X14002515Y-10606603D02*
X13992991Y-10625650D01*
X13992991Y-10625650D02*
X13983468Y-10635174D01*
X13983468Y-10635174D02*
X13964420Y-10644698D01*
X13964420Y-10644698D02*
X13926325Y-10644698D01*
X13926325Y-10644698D02*
X13907277Y-10654222D01*
X13907277Y-10654222D02*
X13897753Y-10663746D01*
X13897753Y-10663746D02*
X13888229Y-10682793D01*
X13888229Y-10682793D02*
X13888229Y-10720889D01*
X13888229Y-10720889D02*
X13897753Y-10739936D01*
X13897753Y-10739936D02*
X13907277Y-10749460D01*
X13907277Y-10749460D02*
X13926325Y-10758984D01*
X13926325Y-10758984D02*
X13964420Y-10758984D01*
X13964420Y-10758984D02*
X13983468Y-10749460D01*
X13983468Y-10749460D02*
X13992991Y-10739936D01*
X13992991Y-10739936D02*
X14002515Y-10720889D01*
X14002515Y-10720889D02*
X14002515Y-10682793D01*
X14002515Y-10682793D02*
X13992991Y-10663746D01*
X13992991Y-10663746D02*
X13983468Y-10654222D01*
X13983468Y-10654222D02*
X13964420Y-10644698D01*
X14240610Y-10758984D02*
X14240610Y-10558984D01*
X14326325Y-10758984D02*
X14326325Y-10654222D01*
X14326325Y-10654222D02*
X14316801Y-10635174D01*
X14316801Y-10635174D02*
X14297753Y-10625650D01*
X14297753Y-10625650D02*
X14269182Y-10625650D01*
X14269182Y-10625650D02*
X14250134Y-10635174D01*
X14250134Y-10635174D02*
X14240610Y-10644698D01*
X14450134Y-10758984D02*
X14431087Y-10749460D01*
X14431087Y-10749460D02*
X14421563Y-10739936D01*
X14421563Y-10739936D02*
X14412039Y-10720889D01*
X14412039Y-10720889D02*
X14412039Y-10663746D01*
X14412039Y-10663746D02*
X14421563Y-10644698D01*
X14421563Y-10644698D02*
X14431087Y-10635174D01*
X14431087Y-10635174D02*
X14450134Y-10625650D01*
X14450134Y-10625650D02*
X14478706Y-10625650D01*
X14478706Y-10625650D02*
X14497753Y-10635174D01*
X14497753Y-10635174D02*
X14507277Y-10644698D01*
X14507277Y-10644698D02*
X14516801Y-10663746D01*
X14516801Y-10663746D02*
X14516801Y-10720889D01*
X14516801Y-10720889D02*
X14507277Y-10739936D01*
X14507277Y-10739936D02*
X14497753Y-10749460D01*
X14497753Y-10749460D02*
X14478706Y-10758984D01*
X14478706Y-10758984D02*
X14450134Y-10758984D01*
X14631087Y-10758984D02*
X14612039Y-10749460D01*
X14612039Y-10749460D02*
X14602515Y-10730412D01*
X14602515Y-10730412D02*
X14602515Y-10558984D01*
X14783468Y-10749460D02*
X14764420Y-10758984D01*
X14764420Y-10758984D02*
X14726325Y-10758984D01*
X14726325Y-10758984D02*
X14707277Y-10749460D01*
X14707277Y-10749460D02*
X14697753Y-10730412D01*
X14697753Y-10730412D02*
X14697753Y-10654222D01*
X14697753Y-10654222D02*
X14707277Y-10635174D01*
X14707277Y-10635174D02*
X14726325Y-10625650D01*
X14726325Y-10625650D02*
X14764420Y-10625650D01*
X14764420Y-10625650D02*
X14783468Y-10635174D01*
X14783468Y-10635174D02*
X14792991Y-10654222D01*
X14792991Y-10654222D02*
X14792991Y-10673270D01*
X14792991Y-10673270D02*
X14697753Y-10692317D01*
X14869182Y-10749460D02*
X14888230Y-10758984D01*
X14888230Y-10758984D02*
X14926325Y-10758984D01*
X14926325Y-10758984D02*
X14945372Y-10749460D01*
X14945372Y-10749460D02*
X14954896Y-10730412D01*
X14954896Y-10730412D02*
X14954896Y-10720889D01*
X14954896Y-10720889D02*
X14945372Y-10701841D01*
X14945372Y-10701841D02*
X14926325Y-10692317D01*
X14926325Y-10692317D02*
X14897753Y-10692317D01*
X14897753Y-10692317D02*
X14878706Y-10682793D01*
X14878706Y-10682793D02*
X14869182Y-10663746D01*
X14869182Y-10663746D02*
X14869182Y-10654222D01*
X14869182Y-10654222D02*
X14878706Y-10635174D01*
X14878706Y-10635174D02*
X14897753Y-10625650D01*
X14897753Y-10625650D02*
X14926325Y-10625650D01*
X14926325Y-10625650D02*
X14945372Y-10635174D01*
X15021563Y-10835174D02*
X15031087Y-10825650D01*
X15031087Y-10825650D02*
X15050134Y-10797079D01*
X15050134Y-10797079D02*
X15059658Y-10778031D01*
X15059658Y-10778031D02*
X15069182Y-10749460D01*
X15069182Y-10749460D02*
X15078706Y-10701841D01*
X15078706Y-10701841D02*
X15078706Y-10663746D01*
X15078706Y-10663746D02*
X15069182Y-10616127D01*
X15069182Y-10616127D02*
X15059658Y-10587555D01*
X15059658Y-10587555D02*
X15050134Y-10568508D01*
X15050134Y-10568508D02*
X15031087Y-10539936D01*
X15031087Y-10539936D02*
X15021563Y-10530412D01*
D12*
X10231856Y-10966856D02*
X10231856Y-10896144D01*
X10161144Y-10896144D01*
X10161144Y-10966856D01*
X10231856Y-10966856D01*
D11*
X10612039Y-11022984D02*
X10497753Y-11022984D01*
X10554896Y-11022984D02*
X10554896Y-10822984D01*
X10554896Y-10822984D02*
X10535848Y-10851555D01*
X10535848Y-10851555D02*
X10516801Y-10870603D01*
X10516801Y-10870603D02*
X10497753Y-10880127D01*
X10697753Y-11003936D02*
X10707277Y-11013460D01*
X10707277Y-11013460D02*
X10697753Y-11022984D01*
X10697753Y-11022984D02*
X10688229Y-11013460D01*
X10688229Y-11013460D02*
X10697753Y-11003936D01*
X10697753Y-11003936D02*
X10697753Y-11022984D01*
X10831086Y-10822984D02*
X10850134Y-10822984D01*
X10850134Y-10822984D02*
X10869182Y-10832508D01*
X10869182Y-10832508D02*
X10878705Y-10842031D01*
X10878705Y-10842031D02*
X10888229Y-10861079D01*
X10888229Y-10861079D02*
X10897753Y-10899174D01*
X10897753Y-10899174D02*
X10897753Y-10946793D01*
X10897753Y-10946793D02*
X10888229Y-10984889D01*
X10888229Y-10984889D02*
X10878705Y-11003936D01*
X10878705Y-11003936D02*
X10869182Y-11013460D01*
X10869182Y-11013460D02*
X10850134Y-11022984D01*
X10850134Y-11022984D02*
X10831086Y-11022984D01*
X10831086Y-11022984D02*
X10812039Y-11013460D01*
X10812039Y-11013460D02*
X10802515Y-11003936D01*
X10802515Y-11003936D02*
X10792991Y-10984889D01*
X10792991Y-10984889D02*
X10783467Y-10946793D01*
X10783467Y-10946793D02*
X10783467Y-10899174D01*
X10783467Y-10899174D02*
X10792991Y-10861079D01*
X10792991Y-10861079D02*
X10802515Y-10842031D01*
X10802515Y-10842031D02*
X10812039Y-10832508D01*
X10812039Y-10832508D02*
X10831086Y-10822984D01*
X11021563Y-10822984D02*
X11040610Y-10822984D01*
X11040610Y-10822984D02*
X11059658Y-10832508D01*
X11059658Y-10832508D02*
X11069182Y-10842031D01*
X11069182Y-10842031D02*
X11078705Y-10861079D01*
X11078705Y-10861079D02*
X11088229Y-10899174D01*
X11088229Y-10899174D02*
X11088229Y-10946793D01*
X11088229Y-10946793D02*
X11078705Y-10984889D01*
X11078705Y-10984889D02*
X11069182Y-11003936D01*
X11069182Y-11003936D02*
X11059658Y-11013460D01*
X11059658Y-11013460D02*
X11040610Y-11022984D01*
X11040610Y-11022984D02*
X11021563Y-11022984D01*
X11021563Y-11022984D02*
X11002515Y-11013460D01*
X11002515Y-11013460D02*
X10992991Y-11003936D01*
X10992991Y-11003936D02*
X10983467Y-10984889D01*
X10983467Y-10984889D02*
X10973944Y-10946793D01*
X10973944Y-10946793D02*
X10973944Y-10899174D01*
X10973944Y-10899174D02*
X10983467Y-10861079D01*
X10983467Y-10861079D02*
X10992991Y-10842031D01*
X10992991Y-10842031D02*
X11002515Y-10832508D01*
X11002515Y-10832508D02*
X11021563Y-10822984D01*
X11212039Y-10822984D02*
X11231086Y-10822984D01*
X11231086Y-10822984D02*
X11250134Y-10832508D01*
X11250134Y-10832508D02*
X11259658Y-10842031D01*
X11259658Y-10842031D02*
X11269182Y-10861079D01*
X11269182Y-10861079D02*
X11278705Y-10899174D01*
X11278705Y-10899174D02*
X11278705Y-10946793D01*
X11278705Y-10946793D02*
X11269182Y-10984889D01*
X11269182Y-10984889D02*
X11259658Y-11003936D01*
X11259658Y-11003936D02*
X11250134Y-11013460D01*
X11250134Y-11013460D02*
X11231086Y-11022984D01*
X11231086Y-11022984D02*
X11212039Y-11022984D01*
X11212039Y-11022984D02*
X11192991Y-11013460D01*
X11192991Y-11013460D02*
X11183467Y-11003936D01*
X11183467Y-11003936D02*
X11173944Y-10984889D01*
X11173944Y-10984889D02*
X11164420Y-10946793D01*
X11164420Y-10946793D02*
X11164420Y-10899174D01*
X11164420Y-10899174D02*
X11173944Y-10861079D01*
X11173944Y-10861079D02*
X11183467Y-10842031D01*
X11183467Y-10842031D02*
X11192991Y-10832508D01*
X11192991Y-10832508D02*
X11212039Y-10822984D01*
X11364420Y-11022984D02*
X11364420Y-10889650D01*
X11364420Y-10908698D02*
X11373943Y-10899174D01*
X11373943Y-10899174D02*
X11392991Y-10889650D01*
X11392991Y-10889650D02*
X11421563Y-10889650D01*
X11421563Y-10889650D02*
X11440610Y-10899174D01*
X11440610Y-10899174D02*
X11450134Y-10918222D01*
X11450134Y-10918222D02*
X11450134Y-11022984D01*
X11450134Y-10918222D02*
X11459658Y-10899174D01*
X11459658Y-10899174D02*
X11478705Y-10889650D01*
X11478705Y-10889650D02*
X11507277Y-10889650D01*
X11507277Y-10889650D02*
X11526324Y-10899174D01*
X11526324Y-10899174D02*
X11535848Y-10918222D01*
X11535848Y-10918222D02*
X11535848Y-11022984D01*
X11631086Y-11022984D02*
X11631086Y-10889650D01*
X11631086Y-10908698D02*
X11640610Y-10899174D01*
X11640610Y-10899174D02*
X11659658Y-10889650D01*
X11659658Y-10889650D02*
X11688229Y-10889650D01*
X11688229Y-10889650D02*
X11707277Y-10899174D01*
X11707277Y-10899174D02*
X11716801Y-10918222D01*
X11716801Y-10918222D02*
X11716801Y-11022984D01*
X11716801Y-10918222D02*
X11726324Y-10899174D01*
X11726324Y-10899174D02*
X11745372Y-10889650D01*
X11745372Y-10889650D02*
X11773943Y-10889650D01*
X11773943Y-10889650D02*
X11792991Y-10899174D01*
X11792991Y-10899174D02*
X11802515Y-10918222D01*
X11802515Y-10918222D02*
X11802515Y-11022984D01*
X12192991Y-10813460D02*
X12021563Y-11070603D01*
X12450134Y-10822984D02*
X12469182Y-10822984D01*
X12469182Y-10822984D02*
X12488229Y-10832508D01*
X12488229Y-10832508D02*
X12497753Y-10842031D01*
X12497753Y-10842031D02*
X12507277Y-10861079D01*
X12507277Y-10861079D02*
X12516801Y-10899174D01*
X12516801Y-10899174D02*
X12516801Y-10946793D01*
X12516801Y-10946793D02*
X12507277Y-10984889D01*
X12507277Y-10984889D02*
X12497753Y-11003936D01*
X12497753Y-11003936D02*
X12488229Y-11013460D01*
X12488229Y-11013460D02*
X12469182Y-11022984D01*
X12469182Y-11022984D02*
X12450134Y-11022984D01*
X12450134Y-11022984D02*
X12431086Y-11013460D01*
X12431086Y-11013460D02*
X12421563Y-11003936D01*
X12421563Y-11003936D02*
X12412039Y-10984889D01*
X12412039Y-10984889D02*
X12402515Y-10946793D01*
X12402515Y-10946793D02*
X12402515Y-10899174D01*
X12402515Y-10899174D02*
X12412039Y-10861079D01*
X12412039Y-10861079D02*
X12421563Y-10842031D01*
X12421563Y-10842031D02*
X12431086Y-10832508D01*
X12431086Y-10832508D02*
X12450134Y-10822984D01*
X12602515Y-11003936D02*
X12612039Y-11013460D01*
X12612039Y-11013460D02*
X12602515Y-11022984D01*
X12602515Y-11022984D02*
X12592991Y-11013460D01*
X12592991Y-11013460D02*
X12602515Y-11003936D01*
X12602515Y-11003936D02*
X12602515Y-11022984D01*
X12735848Y-10822984D02*
X12754896Y-10822984D01*
X12754896Y-10822984D02*
X12773944Y-10832508D01*
X12773944Y-10832508D02*
X12783467Y-10842031D01*
X12783467Y-10842031D02*
X12792991Y-10861079D01*
X12792991Y-10861079D02*
X12802515Y-10899174D01*
X12802515Y-10899174D02*
X12802515Y-10946793D01*
X12802515Y-10946793D02*
X12792991Y-10984889D01*
X12792991Y-10984889D02*
X12783467Y-11003936D01*
X12783467Y-11003936D02*
X12773944Y-11013460D01*
X12773944Y-11013460D02*
X12754896Y-11022984D01*
X12754896Y-11022984D02*
X12735848Y-11022984D01*
X12735848Y-11022984D02*
X12716801Y-11013460D01*
X12716801Y-11013460D02*
X12707277Y-11003936D01*
X12707277Y-11003936D02*
X12697753Y-10984889D01*
X12697753Y-10984889D02*
X12688229Y-10946793D01*
X12688229Y-10946793D02*
X12688229Y-10899174D01*
X12688229Y-10899174D02*
X12697753Y-10861079D01*
X12697753Y-10861079D02*
X12707277Y-10842031D01*
X12707277Y-10842031D02*
X12716801Y-10832508D01*
X12716801Y-10832508D02*
X12735848Y-10822984D01*
X12869182Y-10822984D02*
X12992991Y-10822984D01*
X12992991Y-10822984D02*
X12926325Y-10899174D01*
X12926325Y-10899174D02*
X12954896Y-10899174D01*
X12954896Y-10899174D02*
X12973944Y-10908698D01*
X12973944Y-10908698D02*
X12983467Y-10918222D01*
X12983467Y-10918222D02*
X12992991Y-10937270D01*
X12992991Y-10937270D02*
X12992991Y-10984889D01*
X12992991Y-10984889D02*
X12983467Y-11003936D01*
X12983467Y-11003936D02*
X12973944Y-11013460D01*
X12973944Y-11013460D02*
X12954896Y-11022984D01*
X12954896Y-11022984D02*
X12897753Y-11022984D01*
X12897753Y-11022984D02*
X12878706Y-11013460D01*
X12878706Y-11013460D02*
X12869182Y-11003936D01*
X13088229Y-11022984D02*
X13126325Y-11022984D01*
X13126325Y-11022984D02*
X13145372Y-11013460D01*
X13145372Y-11013460D02*
X13154896Y-11003936D01*
X13154896Y-11003936D02*
X13173944Y-10975365D01*
X13173944Y-10975365D02*
X13183467Y-10937270D01*
X13183467Y-10937270D02*
X13183467Y-10861079D01*
X13183467Y-10861079D02*
X13173944Y-10842031D01*
X13173944Y-10842031D02*
X13164420Y-10832508D01*
X13164420Y-10832508D02*
X13145372Y-10822984D01*
X13145372Y-10822984D02*
X13107277Y-10822984D01*
X13107277Y-10822984D02*
X13088229Y-10832508D01*
X13088229Y-10832508D02*
X13078706Y-10842031D01*
X13078706Y-10842031D02*
X13069182Y-10861079D01*
X13069182Y-10861079D02*
X13069182Y-10908698D01*
X13069182Y-10908698D02*
X13078706Y-10927746D01*
X13078706Y-10927746D02*
X13088229Y-10937270D01*
X13088229Y-10937270D02*
X13107277Y-10946793D01*
X13107277Y-10946793D02*
X13145372Y-10946793D01*
X13145372Y-10946793D02*
X13164420Y-10937270D01*
X13164420Y-10937270D02*
X13173944Y-10927746D01*
X13173944Y-10927746D02*
X13183467Y-10908698D01*
X13354896Y-10889650D02*
X13354896Y-11022984D01*
X13307277Y-10813460D02*
X13259658Y-10956317D01*
X13259658Y-10956317D02*
X13383467Y-10956317D01*
X13450134Y-10822984D02*
X13450134Y-10861079D01*
X13526325Y-10822984D02*
X13526325Y-10861079D01*
X13821563Y-11099174D02*
X13812039Y-11089650D01*
X13812039Y-11089650D02*
X13792991Y-11061079D01*
X13792991Y-11061079D02*
X13783468Y-11042031D01*
X13783468Y-11042031D02*
X13773944Y-11013460D01*
X13773944Y-11013460D02*
X13764420Y-10965841D01*
X13764420Y-10965841D02*
X13764420Y-10927746D01*
X13764420Y-10927746D02*
X13773944Y-10880127D01*
X13773944Y-10880127D02*
X13783468Y-10851555D01*
X13783468Y-10851555D02*
X13792991Y-10832508D01*
X13792991Y-10832508D02*
X13812039Y-10803936D01*
X13812039Y-10803936D02*
X13821563Y-10794412D01*
X13983468Y-10822984D02*
X13945372Y-10822984D01*
X13945372Y-10822984D02*
X13926325Y-10832508D01*
X13926325Y-10832508D02*
X13916801Y-10842031D01*
X13916801Y-10842031D02*
X13897753Y-10870603D01*
X13897753Y-10870603D02*
X13888229Y-10908698D01*
X13888229Y-10908698D02*
X13888229Y-10984889D01*
X13888229Y-10984889D02*
X13897753Y-11003936D01*
X13897753Y-11003936D02*
X13907277Y-11013460D01*
X13907277Y-11013460D02*
X13926325Y-11022984D01*
X13926325Y-11022984D02*
X13964420Y-11022984D01*
X13964420Y-11022984D02*
X13983468Y-11013460D01*
X13983468Y-11013460D02*
X13992991Y-11003936D01*
X13992991Y-11003936D02*
X14002515Y-10984889D01*
X14002515Y-10984889D02*
X14002515Y-10937270D01*
X14002515Y-10937270D02*
X13992991Y-10918222D01*
X13992991Y-10918222D02*
X13983468Y-10908698D01*
X13983468Y-10908698D02*
X13964420Y-10899174D01*
X13964420Y-10899174D02*
X13926325Y-10899174D01*
X13926325Y-10899174D02*
X13907277Y-10908698D01*
X13907277Y-10908698D02*
X13897753Y-10918222D01*
X13897753Y-10918222D02*
X13888229Y-10937270D01*
X14173944Y-10889650D02*
X14173944Y-11022984D01*
X14126325Y-10813460D02*
X14078706Y-10956317D01*
X14078706Y-10956317D02*
X14202515Y-10956317D01*
X14431087Y-11022984D02*
X14431087Y-10822984D01*
X14516801Y-11022984D02*
X14516801Y-10918222D01*
X14516801Y-10918222D02*
X14507277Y-10899174D01*
X14507277Y-10899174D02*
X14488230Y-10889650D01*
X14488230Y-10889650D02*
X14459658Y-10889650D01*
X14459658Y-10889650D02*
X14440610Y-10899174D01*
X14440610Y-10899174D02*
X14431087Y-10908698D01*
X14640610Y-11022984D02*
X14621563Y-11013460D01*
X14621563Y-11013460D02*
X14612039Y-11003936D01*
X14612039Y-11003936D02*
X14602515Y-10984889D01*
X14602515Y-10984889D02*
X14602515Y-10927746D01*
X14602515Y-10927746D02*
X14612039Y-10908698D01*
X14612039Y-10908698D02*
X14621563Y-10899174D01*
X14621563Y-10899174D02*
X14640610Y-10889650D01*
X14640610Y-10889650D02*
X14669182Y-10889650D01*
X14669182Y-10889650D02*
X14688230Y-10899174D01*
X14688230Y-10899174D02*
X14697753Y-10908698D01*
X14697753Y-10908698D02*
X14707277Y-10927746D01*
X14707277Y-10927746D02*
X14707277Y-10984889D01*
X14707277Y-10984889D02*
X14697753Y-11003936D01*
X14697753Y-11003936D02*
X14688230Y-11013460D01*
X14688230Y-11013460D02*
X14669182Y-11022984D01*
X14669182Y-11022984D02*
X14640610Y-11022984D01*
X14821563Y-11022984D02*
X14802515Y-11013460D01*
X14802515Y-11013460D02*
X14792991Y-10994412D01*
X14792991Y-10994412D02*
X14792991Y-10822984D01*
X14973944Y-11013460D02*
X14954896Y-11022984D01*
X14954896Y-11022984D02*
X14916801Y-11022984D01*
X14916801Y-11022984D02*
X14897753Y-11013460D01*
X14897753Y-11013460D02*
X14888230Y-10994412D01*
X14888230Y-10994412D02*
X14888230Y-10918222D01*
X14888230Y-10918222D02*
X14897753Y-10899174D01*
X14897753Y-10899174D02*
X14916801Y-10889650D01*
X14916801Y-10889650D02*
X14954896Y-10889650D01*
X14954896Y-10889650D02*
X14973944Y-10899174D01*
X14973944Y-10899174D02*
X14983468Y-10918222D01*
X14983468Y-10918222D02*
X14983468Y-10937270D01*
X14983468Y-10937270D02*
X14888230Y-10956317D01*
X15059658Y-11013460D02*
X15078706Y-11022984D01*
X15078706Y-11022984D02*
X15116801Y-11022984D01*
X15116801Y-11022984D02*
X15135849Y-11013460D01*
X15135849Y-11013460D02*
X15145372Y-10994412D01*
X15145372Y-10994412D02*
X15145372Y-10984889D01*
X15145372Y-10984889D02*
X15135849Y-10965841D01*
X15135849Y-10965841D02*
X15116801Y-10956317D01*
X15116801Y-10956317D02*
X15088230Y-10956317D01*
X15088230Y-10956317D02*
X15069182Y-10946793D01*
X15069182Y-10946793D02*
X15059658Y-10927746D01*
X15059658Y-10927746D02*
X15059658Y-10918222D01*
X15059658Y-10918222D02*
X15069182Y-10899174D01*
X15069182Y-10899174D02*
X15088230Y-10889650D01*
X15088230Y-10889650D02*
X15116801Y-10889650D01*
X15116801Y-10889650D02*
X15135849Y-10899174D01*
X15212039Y-11099174D02*
X15221563Y-11089650D01*
X15221563Y-11089650D02*
X15240611Y-11061079D01*
X15240611Y-11061079D02*
X15250134Y-11042031D01*
X15250134Y-11042031D02*
X15259658Y-11013460D01*
X15259658Y-11013460D02*
X15269182Y-10965841D01*
X15269182Y-10965841D02*
X15269182Y-10927746D01*
X15269182Y-10927746D02*
X15259658Y-10880127D01*
X15259658Y-10880127D02*
X15250134Y-10851555D01*
X15250134Y-10851555D02*
X15240611Y-10832508D01*
X15240611Y-10832508D02*
X15221563Y-10803936D01*
X15221563Y-10803936D02*
X15212039Y-10794412D01*
D13*
X10170500Y-11271500D02*
X10246500Y-11195500D01*
X10170500Y-11119500D01*
X10094500Y-11195500D01*
X10170500Y-11271500D01*
D11*
X10612039Y-11286984D02*
X10497753Y-11286984D01*
X10554896Y-11286984D02*
X10554896Y-11086984D01*
X10554896Y-11086984D02*
X10535848Y-11115555D01*
X10535848Y-11115555D02*
X10516801Y-11134603D01*
X10516801Y-11134603D02*
X10497753Y-11144127D01*
X10697753Y-11267936D02*
X10707277Y-11277460D01*
X10707277Y-11277460D02*
X10697753Y-11286984D01*
X10697753Y-11286984D02*
X10688229Y-11277460D01*
X10688229Y-11277460D02*
X10697753Y-11267936D01*
X10697753Y-11267936D02*
X10697753Y-11286984D01*
X10888229Y-11086984D02*
X10792991Y-11086984D01*
X10792991Y-11086984D02*
X10783467Y-11182222D01*
X10783467Y-11182222D02*
X10792991Y-11172698D01*
X10792991Y-11172698D02*
X10812039Y-11163174D01*
X10812039Y-11163174D02*
X10859658Y-11163174D01*
X10859658Y-11163174D02*
X10878705Y-11172698D01*
X10878705Y-11172698D02*
X10888229Y-11182222D01*
X10888229Y-11182222D02*
X10897753Y-11201269D01*
X10897753Y-11201269D02*
X10897753Y-11248888D01*
X10897753Y-11248888D02*
X10888229Y-11267936D01*
X10888229Y-11267936D02*
X10878705Y-11277460D01*
X10878705Y-11277460D02*
X10859658Y-11286984D01*
X10859658Y-11286984D02*
X10812039Y-11286984D01*
X10812039Y-11286984D02*
X10792991Y-11277460D01*
X10792991Y-11277460D02*
X10783467Y-11267936D01*
X10973944Y-11106031D02*
X10983467Y-11096508D01*
X10983467Y-11096508D02*
X11002515Y-11086984D01*
X11002515Y-11086984D02*
X11050134Y-11086984D01*
X11050134Y-11086984D02*
X11069182Y-11096508D01*
X11069182Y-11096508D02*
X11078705Y-11106031D01*
X11078705Y-11106031D02*
X11088229Y-11125079D01*
X11088229Y-11125079D02*
X11088229Y-11144127D01*
X11088229Y-11144127D02*
X11078705Y-11172698D01*
X11078705Y-11172698D02*
X10964420Y-11286984D01*
X10964420Y-11286984D02*
X11088229Y-11286984D01*
X11212039Y-11086984D02*
X11231086Y-11086984D01*
X11231086Y-11086984D02*
X11250134Y-11096508D01*
X11250134Y-11096508D02*
X11259658Y-11106031D01*
X11259658Y-11106031D02*
X11269182Y-11125079D01*
X11269182Y-11125079D02*
X11278705Y-11163174D01*
X11278705Y-11163174D02*
X11278705Y-11210793D01*
X11278705Y-11210793D02*
X11269182Y-11248888D01*
X11269182Y-11248888D02*
X11259658Y-11267936D01*
X11259658Y-11267936D02*
X11250134Y-11277460D01*
X11250134Y-11277460D02*
X11231086Y-11286984D01*
X11231086Y-11286984D02*
X11212039Y-11286984D01*
X11212039Y-11286984D02*
X11192991Y-11277460D01*
X11192991Y-11277460D02*
X11183467Y-11267936D01*
X11183467Y-11267936D02*
X11173944Y-11248888D01*
X11173944Y-11248888D02*
X11164420Y-11210793D01*
X11164420Y-11210793D02*
X11164420Y-11163174D01*
X11164420Y-11163174D02*
X11173944Y-11125079D01*
X11173944Y-11125079D02*
X11183467Y-11106031D01*
X11183467Y-11106031D02*
X11192991Y-11096508D01*
X11192991Y-11096508D02*
X11212039Y-11086984D01*
X11364420Y-11286984D02*
X11364420Y-11153650D01*
X11364420Y-11172698D02*
X11373943Y-11163174D01*
X11373943Y-11163174D02*
X11392991Y-11153650D01*
X11392991Y-11153650D02*
X11421563Y-11153650D01*
X11421563Y-11153650D02*
X11440610Y-11163174D01*
X11440610Y-11163174D02*
X11450134Y-11182222D01*
X11450134Y-11182222D02*
X11450134Y-11286984D01*
X11450134Y-11182222D02*
X11459658Y-11163174D01*
X11459658Y-11163174D02*
X11478705Y-11153650D01*
X11478705Y-11153650D02*
X11507277Y-11153650D01*
X11507277Y-11153650D02*
X11526324Y-11163174D01*
X11526324Y-11163174D02*
X11535848Y-11182222D01*
X11535848Y-11182222D02*
X11535848Y-11286984D01*
X11631086Y-11286984D02*
X11631086Y-11153650D01*
X11631086Y-11172698D02*
X11640610Y-11163174D01*
X11640610Y-11163174D02*
X11659658Y-11153650D01*
X11659658Y-11153650D02*
X11688229Y-11153650D01*
X11688229Y-11153650D02*
X11707277Y-11163174D01*
X11707277Y-11163174D02*
X11716801Y-11182222D01*
X11716801Y-11182222D02*
X11716801Y-11286984D01*
X11716801Y-11182222D02*
X11726324Y-11163174D01*
X11726324Y-11163174D02*
X11745372Y-11153650D01*
X11745372Y-11153650D02*
X11773943Y-11153650D01*
X11773943Y-11153650D02*
X11792991Y-11163174D01*
X11792991Y-11163174D02*
X11802515Y-11182222D01*
X11802515Y-11182222D02*
X11802515Y-11286984D01*
X12192991Y-11077460D02*
X12021563Y-11334603D01*
X12450134Y-11086984D02*
X12469182Y-11086984D01*
X12469182Y-11086984D02*
X12488229Y-11096508D01*
X12488229Y-11096508D02*
X12497753Y-11106031D01*
X12497753Y-11106031D02*
X12507277Y-11125079D01*
X12507277Y-11125079D02*
X12516801Y-11163174D01*
X12516801Y-11163174D02*
X12516801Y-11210793D01*
X12516801Y-11210793D02*
X12507277Y-11248888D01*
X12507277Y-11248888D02*
X12497753Y-11267936D01*
X12497753Y-11267936D02*
X12488229Y-11277460D01*
X12488229Y-11277460D02*
X12469182Y-11286984D01*
X12469182Y-11286984D02*
X12450134Y-11286984D01*
X12450134Y-11286984D02*
X12431086Y-11277460D01*
X12431086Y-11277460D02*
X12421563Y-11267936D01*
X12421563Y-11267936D02*
X12412039Y-11248888D01*
X12412039Y-11248888D02*
X12402515Y-11210793D01*
X12402515Y-11210793D02*
X12402515Y-11163174D01*
X12402515Y-11163174D02*
X12412039Y-11125079D01*
X12412039Y-11125079D02*
X12421563Y-11106031D01*
X12421563Y-11106031D02*
X12431086Y-11096508D01*
X12431086Y-11096508D02*
X12450134Y-11086984D01*
X12602515Y-11267936D02*
X12612039Y-11277460D01*
X12612039Y-11277460D02*
X12602515Y-11286984D01*
X12602515Y-11286984D02*
X12592991Y-11277460D01*
X12592991Y-11277460D02*
X12602515Y-11267936D01*
X12602515Y-11267936D02*
X12602515Y-11286984D01*
X12735848Y-11086984D02*
X12754896Y-11086984D01*
X12754896Y-11086984D02*
X12773944Y-11096508D01*
X12773944Y-11096508D02*
X12783467Y-11106031D01*
X12783467Y-11106031D02*
X12792991Y-11125079D01*
X12792991Y-11125079D02*
X12802515Y-11163174D01*
X12802515Y-11163174D02*
X12802515Y-11210793D01*
X12802515Y-11210793D02*
X12792991Y-11248888D01*
X12792991Y-11248888D02*
X12783467Y-11267936D01*
X12783467Y-11267936D02*
X12773944Y-11277460D01*
X12773944Y-11277460D02*
X12754896Y-11286984D01*
X12754896Y-11286984D02*
X12735848Y-11286984D01*
X12735848Y-11286984D02*
X12716801Y-11277460D01*
X12716801Y-11277460D02*
X12707277Y-11267936D01*
X12707277Y-11267936D02*
X12697753Y-11248888D01*
X12697753Y-11248888D02*
X12688229Y-11210793D01*
X12688229Y-11210793D02*
X12688229Y-11163174D01*
X12688229Y-11163174D02*
X12697753Y-11125079D01*
X12697753Y-11125079D02*
X12707277Y-11106031D01*
X12707277Y-11106031D02*
X12716801Y-11096508D01*
X12716801Y-11096508D02*
X12735848Y-11086984D01*
X12983467Y-11086984D02*
X12888229Y-11086984D01*
X12888229Y-11086984D02*
X12878706Y-11182222D01*
X12878706Y-11182222D02*
X12888229Y-11172698D01*
X12888229Y-11172698D02*
X12907277Y-11163174D01*
X12907277Y-11163174D02*
X12954896Y-11163174D01*
X12954896Y-11163174D02*
X12973944Y-11172698D01*
X12973944Y-11172698D02*
X12983467Y-11182222D01*
X12983467Y-11182222D02*
X12992991Y-11201269D01*
X12992991Y-11201269D02*
X12992991Y-11248888D01*
X12992991Y-11248888D02*
X12983467Y-11267936D01*
X12983467Y-11267936D02*
X12973944Y-11277460D01*
X12973944Y-11277460D02*
X12954896Y-11286984D01*
X12954896Y-11286984D02*
X12907277Y-11286984D01*
X12907277Y-11286984D02*
X12888229Y-11277460D01*
X12888229Y-11277460D02*
X12878706Y-11267936D01*
X13088229Y-11286984D02*
X13126325Y-11286984D01*
X13126325Y-11286984D02*
X13145372Y-11277460D01*
X13145372Y-11277460D02*
X13154896Y-11267936D01*
X13154896Y-11267936D02*
X13173944Y-11239365D01*
X13173944Y-11239365D02*
X13183467Y-11201269D01*
X13183467Y-11201269D02*
X13183467Y-11125079D01*
X13183467Y-11125079D02*
X13173944Y-11106031D01*
X13173944Y-11106031D02*
X13164420Y-11096508D01*
X13164420Y-11096508D02*
X13145372Y-11086984D01*
X13145372Y-11086984D02*
X13107277Y-11086984D01*
X13107277Y-11086984D02*
X13088229Y-11096508D01*
X13088229Y-11096508D02*
X13078706Y-11106031D01*
X13078706Y-11106031D02*
X13069182Y-11125079D01*
X13069182Y-11125079D02*
X13069182Y-11172698D01*
X13069182Y-11172698D02*
X13078706Y-11191746D01*
X13078706Y-11191746D02*
X13088229Y-11201269D01*
X13088229Y-11201269D02*
X13107277Y-11210793D01*
X13107277Y-11210793D02*
X13145372Y-11210793D01*
X13145372Y-11210793D02*
X13164420Y-11201269D01*
X13164420Y-11201269D02*
X13173944Y-11191746D01*
X13173944Y-11191746D02*
X13183467Y-11172698D01*
X13297753Y-11172698D02*
X13278706Y-11163174D01*
X13278706Y-11163174D02*
X13269182Y-11153650D01*
X13269182Y-11153650D02*
X13259658Y-11134603D01*
X13259658Y-11134603D02*
X13259658Y-11125079D01*
X13259658Y-11125079D02*
X13269182Y-11106031D01*
X13269182Y-11106031D02*
X13278706Y-11096508D01*
X13278706Y-11096508D02*
X13297753Y-11086984D01*
X13297753Y-11086984D02*
X13335848Y-11086984D01*
X13335848Y-11086984D02*
X13354896Y-11096508D01*
X13354896Y-11096508D02*
X13364420Y-11106031D01*
X13364420Y-11106031D02*
X13373944Y-11125079D01*
X13373944Y-11125079D02*
X13373944Y-11134603D01*
X13373944Y-11134603D02*
X13364420Y-11153650D01*
X13364420Y-11153650D02*
X13354896Y-11163174D01*
X13354896Y-11163174D02*
X13335848Y-11172698D01*
X13335848Y-11172698D02*
X13297753Y-11172698D01*
X13297753Y-11172698D02*
X13278706Y-11182222D01*
X13278706Y-11182222D02*
X13269182Y-11191746D01*
X13269182Y-11191746D02*
X13259658Y-11210793D01*
X13259658Y-11210793D02*
X13259658Y-11248888D01*
X13259658Y-11248888D02*
X13269182Y-11267936D01*
X13269182Y-11267936D02*
X13278706Y-11277460D01*
X13278706Y-11277460D02*
X13297753Y-11286984D01*
X13297753Y-11286984D02*
X13335848Y-11286984D01*
X13335848Y-11286984D02*
X13354896Y-11277460D01*
X13354896Y-11277460D02*
X13364420Y-11267936D01*
X13364420Y-11267936D02*
X13373944Y-11248888D01*
X13373944Y-11248888D02*
X13373944Y-11210793D01*
X13373944Y-11210793D02*
X13364420Y-11191746D01*
X13364420Y-11191746D02*
X13354896Y-11182222D01*
X13354896Y-11182222D02*
X13335848Y-11172698D01*
X13450134Y-11086984D02*
X13450134Y-11125079D01*
X13526325Y-11086984D02*
X13526325Y-11125079D01*
X13821563Y-11363174D02*
X13812039Y-11353650D01*
X13812039Y-11353650D02*
X13792991Y-11325079D01*
X13792991Y-11325079D02*
X13783468Y-11306031D01*
X13783468Y-11306031D02*
X13773944Y-11277460D01*
X13773944Y-11277460D02*
X13764420Y-11229841D01*
X13764420Y-11229841D02*
X13764420Y-11191746D01*
X13764420Y-11191746D02*
X13773944Y-11144127D01*
X13773944Y-11144127D02*
X13783468Y-11115555D01*
X13783468Y-11115555D02*
X13792991Y-11096508D01*
X13792991Y-11096508D02*
X13812039Y-11067936D01*
X13812039Y-11067936D02*
X13821563Y-11058412D01*
X13888229Y-11106031D02*
X13897753Y-11096508D01*
X13897753Y-11096508D02*
X13916801Y-11086984D01*
X13916801Y-11086984D02*
X13964420Y-11086984D01*
X13964420Y-11086984D02*
X13983468Y-11096508D01*
X13983468Y-11096508D02*
X13992991Y-11106031D01*
X13992991Y-11106031D02*
X14002515Y-11125079D01*
X14002515Y-11125079D02*
X14002515Y-11144127D01*
X14002515Y-11144127D02*
X13992991Y-11172698D01*
X13992991Y-11172698D02*
X13878706Y-11286984D01*
X13878706Y-11286984D02*
X14002515Y-11286984D01*
X14240610Y-11286984D02*
X14240610Y-11086984D01*
X14326325Y-11286984D02*
X14326325Y-11182222D01*
X14326325Y-11182222D02*
X14316801Y-11163174D01*
X14316801Y-11163174D02*
X14297753Y-11153650D01*
X14297753Y-11153650D02*
X14269182Y-11153650D01*
X14269182Y-11153650D02*
X14250134Y-11163174D01*
X14250134Y-11163174D02*
X14240610Y-11172698D01*
X14450134Y-11286984D02*
X14431087Y-11277460D01*
X14431087Y-11277460D02*
X14421563Y-11267936D01*
X14421563Y-11267936D02*
X14412039Y-11248888D01*
X14412039Y-11248888D02*
X14412039Y-11191746D01*
X14412039Y-11191746D02*
X14421563Y-11172698D01*
X14421563Y-11172698D02*
X14431087Y-11163174D01*
X14431087Y-11163174D02*
X14450134Y-11153650D01*
X14450134Y-11153650D02*
X14478706Y-11153650D01*
X14478706Y-11153650D02*
X14497753Y-11163174D01*
X14497753Y-11163174D02*
X14507277Y-11172698D01*
X14507277Y-11172698D02*
X14516801Y-11191746D01*
X14516801Y-11191746D02*
X14516801Y-11248888D01*
X14516801Y-11248888D02*
X14507277Y-11267936D01*
X14507277Y-11267936D02*
X14497753Y-11277460D01*
X14497753Y-11277460D02*
X14478706Y-11286984D01*
X14478706Y-11286984D02*
X14450134Y-11286984D01*
X14631087Y-11286984D02*
X14612039Y-11277460D01*
X14612039Y-11277460D02*
X14602515Y-11258412D01*
X14602515Y-11258412D02*
X14602515Y-11086984D01*
X14783468Y-11277460D02*
X14764420Y-11286984D01*
X14764420Y-11286984D02*
X14726325Y-11286984D01*
X14726325Y-11286984D02*
X14707277Y-11277460D01*
X14707277Y-11277460D02*
X14697753Y-11258412D01*
X14697753Y-11258412D02*
X14697753Y-11182222D01*
X14697753Y-11182222D02*
X14707277Y-11163174D01*
X14707277Y-11163174D02*
X14726325Y-11153650D01*
X14726325Y-11153650D02*
X14764420Y-11153650D01*
X14764420Y-11153650D02*
X14783468Y-11163174D01*
X14783468Y-11163174D02*
X14792991Y-11182222D01*
X14792991Y-11182222D02*
X14792991Y-11201269D01*
X14792991Y-11201269D02*
X14697753Y-11220317D01*
X14869182Y-11277460D02*
X14888230Y-11286984D01*
X14888230Y-11286984D02*
X14926325Y-11286984D01*
X14926325Y-11286984D02*
X14945372Y-11277460D01*
X14945372Y-11277460D02*
X14954896Y-11258412D01*
X14954896Y-11258412D02*
X14954896Y-11248888D01*
X14954896Y-11248888D02*
X14945372Y-11229841D01*
X14945372Y-11229841D02*
X14926325Y-11220317D01*
X14926325Y-11220317D02*
X14897753Y-11220317D01*
X14897753Y-11220317D02*
X14878706Y-11210793D01*
X14878706Y-11210793D02*
X14869182Y-11191746D01*
X14869182Y-11191746D02*
X14869182Y-11182222D01*
X14869182Y-11182222D02*
X14878706Y-11163174D01*
X14878706Y-11163174D02*
X14897753Y-11153650D01*
X14897753Y-11153650D02*
X14926325Y-11153650D01*
X14926325Y-11153650D02*
X14945372Y-11163174D01*
X15021563Y-11363174D02*
X15031087Y-11353650D01*
X15031087Y-11353650D02*
X15050134Y-11325079D01*
X15050134Y-11325079D02*
X15059658Y-11306031D01*
X15059658Y-11306031D02*
X15069182Y-11277460D01*
X15069182Y-11277460D02*
X15078706Y-11229841D01*
X15078706Y-11229841D02*
X15078706Y-11191746D01*
X15078706Y-11191746D02*
X15069182Y-11144127D01*
X15069182Y-11144127D02*
X15059658Y-11115555D01*
X15059658Y-11115555D02*
X15050134Y-11096508D01*
X15050134Y-11096508D02*
X15031087Y-11067936D01*
X15031087Y-11067936D02*
X15021563Y-11058412D01*
M02*
