G04 #@! TF.GenerationSoftware,KiCad,Pcbnew,7.99.0-3924-g53fd1aaf5e*
G04 #@! TF.CreationDate,2023-12-12T19:58:36+01:00*
G04 #@! TF.ProjectId,xDuinoRailShield,78447569-6e6f-4526-9169-6c536869656c,rev?*
G04 #@! TF.SameCoordinates,Original*
G04 #@! TF.FileFunction,Legend,Bot*
G04 #@! TF.FilePolarity,Positive*
%FSLAX46Y46*%
G04 Gerber Fmt 4.6, Leading zero omitted, Abs format (unit mm)*
G04 Created by KiCad (PCBNEW 7.99.0-3924-g53fd1aaf5e) date 2023-12-12 19:58:36*
%MOMM*%
%LPD*%
G01*
G04 APERTURE LIST*
G04 Aperture macros list*
%AMFreePoly0*
4,1,6,1.000000,0.000000,0.500000,-0.750000,-0.500000,-0.750000,-0.500000,0.750000,0.500000,0.750000,1.000000,0.000000,1.000000,0.000000,$1*%
%AMFreePoly1*
4,1,6,0.500000,-0.750000,-0.650000,-0.750000,-0.150000,0.000000,-0.650000,0.750000,0.500000,0.750000,0.500000,-0.750000,0.500000,-0.750000,$1*%
G04 Aperture macros list end*
%ADD10C,0.150000*%
%ADD11C,0.120000*%
%ADD12R,3.000000X3.000000*%
%ADD13C,3.000000*%
%ADD14R,1.600000X1.600000*%
%ADD15O,1.600000X1.600000*%
%ADD16FreePoly0,180.000000*%
%ADD17FreePoly1,180.000000*%
G04 APERTURE END LIST*
D10*
X142204870Y-57241759D02*
X142204870Y-57956044D01*
X142204870Y-57956044D02*
X142252489Y-58098901D01*
X142252489Y-58098901D02*
X142347727Y-58194140D01*
X142347727Y-58194140D02*
X142490584Y-58241759D01*
X142490584Y-58241759D02*
X142585822Y-58241759D01*
X141728679Y-58241759D02*
X141728679Y-57241759D01*
X141728679Y-57241759D02*
X141347727Y-57241759D01*
X141347727Y-57241759D02*
X141252489Y-57289378D01*
X141252489Y-57289378D02*
X141204870Y-57336997D01*
X141204870Y-57336997D02*
X141157251Y-57432235D01*
X141157251Y-57432235D02*
X141157251Y-57575092D01*
X141157251Y-57575092D02*
X141204870Y-57670330D01*
X141204870Y-57670330D02*
X141252489Y-57717949D01*
X141252489Y-57717949D02*
X141347727Y-57765568D01*
X141347727Y-57765568D02*
X141728679Y-57765568D01*
X140966775Y-58336997D02*
X140204870Y-58336997D01*
X139395346Y-58241759D02*
X139728679Y-57765568D01*
X139966774Y-58241759D02*
X139966774Y-57241759D01*
X139966774Y-57241759D02*
X139585822Y-57241759D01*
X139585822Y-57241759D02*
X139490584Y-57289378D01*
X139490584Y-57289378D02*
X139442965Y-57336997D01*
X139442965Y-57336997D02*
X139395346Y-57432235D01*
X139395346Y-57432235D02*
X139395346Y-57575092D01*
X139395346Y-57575092D02*
X139442965Y-57670330D01*
X139442965Y-57670330D02*
X139490584Y-57717949D01*
X139490584Y-57717949D02*
X139585822Y-57765568D01*
X139585822Y-57765568D02*
X139966774Y-57765568D01*
X139014393Y-57956044D02*
X138538203Y-57956044D01*
X139109631Y-58241759D02*
X138776298Y-57241759D01*
X138776298Y-57241759D02*
X138442965Y-58241759D01*
X138109631Y-58241759D02*
X138109631Y-57241759D01*
X137157251Y-58241759D02*
X137633441Y-58241759D01*
X137633441Y-58241759D02*
X137633441Y-57241759D01*
X136252489Y-58146520D02*
X136300108Y-58194140D01*
X136300108Y-58194140D02*
X136442965Y-58241759D01*
X136442965Y-58241759D02*
X136538203Y-58241759D01*
X136538203Y-58241759D02*
X136681060Y-58194140D01*
X136681060Y-58194140D02*
X136776298Y-58098901D01*
X136776298Y-58098901D02*
X136823917Y-58003663D01*
X136823917Y-58003663D02*
X136871536Y-57813187D01*
X136871536Y-57813187D02*
X136871536Y-57670330D01*
X136871536Y-57670330D02*
X136823917Y-57479854D01*
X136823917Y-57479854D02*
X136776298Y-57384616D01*
X136776298Y-57384616D02*
X136681060Y-57289378D01*
X136681060Y-57289378D02*
X136538203Y-57241759D01*
X136538203Y-57241759D02*
X136442965Y-57241759D01*
X136442965Y-57241759D02*
X136300108Y-57289378D01*
X136300108Y-57289378D02*
X136252489Y-57336997D01*
X135633441Y-57241759D02*
X135442965Y-57241759D01*
X135442965Y-57241759D02*
X135347727Y-57289378D01*
X135347727Y-57289378D02*
X135252489Y-57384616D01*
X135252489Y-57384616D02*
X135204870Y-57575092D01*
X135204870Y-57575092D02*
X135204870Y-57908425D01*
X135204870Y-57908425D02*
X135252489Y-58098901D01*
X135252489Y-58098901D02*
X135347727Y-58194140D01*
X135347727Y-58194140D02*
X135442965Y-58241759D01*
X135442965Y-58241759D02*
X135633441Y-58241759D01*
X135633441Y-58241759D02*
X135728679Y-58194140D01*
X135728679Y-58194140D02*
X135823917Y-58098901D01*
X135823917Y-58098901D02*
X135871536Y-57908425D01*
X135871536Y-57908425D02*
X135871536Y-57575092D01*
X135871536Y-57575092D02*
X135823917Y-57384616D01*
X135823917Y-57384616D02*
X135728679Y-57289378D01*
X135728679Y-57289378D02*
X135633441Y-57241759D01*
X134776298Y-58241759D02*
X134776298Y-57241759D01*
X134776298Y-57241759D02*
X134442965Y-57956044D01*
X134442965Y-57956044D02*
X134109632Y-57241759D01*
X134109632Y-57241759D02*
X134109632Y-58241759D01*
X133204870Y-57575092D02*
X133204870Y-58241759D01*
X133442965Y-57194140D02*
X133681060Y-57908425D01*
X133681060Y-57908425D02*
X133062013Y-57908425D01*
X132490584Y-57241759D02*
X132395346Y-57241759D01*
X132395346Y-57241759D02*
X132300108Y-57289378D01*
X132300108Y-57289378D02*
X132252489Y-57336997D01*
X132252489Y-57336997D02*
X132204870Y-57432235D01*
X132204870Y-57432235D02*
X132157251Y-57622711D01*
X132157251Y-57622711D02*
X132157251Y-57860806D01*
X132157251Y-57860806D02*
X132204870Y-58051282D01*
X132204870Y-58051282D02*
X132252489Y-58146520D01*
X132252489Y-58146520D02*
X132300108Y-58194140D01*
X132300108Y-58194140D02*
X132395346Y-58241759D01*
X132395346Y-58241759D02*
X132490584Y-58241759D01*
X132490584Y-58241759D02*
X132585822Y-58194140D01*
X132585822Y-58194140D02*
X132633441Y-58146520D01*
X132633441Y-58146520D02*
X132681060Y-58051282D01*
X132681060Y-58051282D02*
X132728679Y-57860806D01*
X132728679Y-57860806D02*
X132728679Y-57622711D01*
X132728679Y-57622711D02*
X132681060Y-57432235D01*
X132681060Y-57432235D02*
X132633441Y-57336997D01*
X132633441Y-57336997D02*
X132585822Y-57289378D01*
X132585822Y-57289378D02*
X132490584Y-57241759D01*
X131204870Y-58241759D02*
X131776298Y-58241759D01*
X131490584Y-58241759D02*
X131490584Y-57241759D01*
X131490584Y-57241759D02*
X131585822Y-57384616D01*
X131585822Y-57384616D02*
X131681060Y-57479854D01*
X131681060Y-57479854D02*
X131776298Y-57527473D01*
D11*
X143669900Y-56445000D02*
X143669900Y-58445000D01*
X143669900Y-58445000D02*
X146469900Y-58445000D01*
X146469900Y-56445000D02*
X143669900Y-56445000D01*
X146469900Y-58445000D02*
X146469900Y-56445000D01*
%LPC*%
D12*
X163240800Y-73640000D03*
D13*
X163240800Y-78720000D03*
D14*
X125400000Y-89840000D03*
X125400000Y-92380000D03*
D15*
X127940000Y-89840000D03*
X127940000Y-92380000D03*
X130480000Y-89840000D03*
X130480000Y-92380000D03*
X133020000Y-89840000D03*
X133020000Y-92380000D03*
X135560000Y-89840000D03*
X135560000Y-92380000D03*
X138100000Y-89840000D03*
X138100000Y-92380000D03*
X140640000Y-89840000D03*
X140640000Y-92380000D03*
X143180000Y-89840000D03*
X143180000Y-92380000D03*
X148260000Y-89840000D03*
X148260000Y-92380000D03*
X150800000Y-89840000D03*
X150800000Y-92380000D03*
X153340000Y-89840000D03*
X153340000Y-92380000D03*
X155880000Y-89840000D03*
X155880000Y-92380000D03*
X158420000Y-89840000D03*
X158420000Y-92380000D03*
X160960000Y-89840000D03*
X160960000Y-92380000D03*
X160960000Y-44120000D03*
X160960000Y-46660000D03*
X158420000Y-44120000D03*
X158420000Y-46660000D03*
X155880000Y-44120000D03*
X155880000Y-46660000D03*
X153340000Y-44120000D03*
X153340000Y-46660000D03*
X150800000Y-44120000D03*
X150800000Y-46660000D03*
X148260000Y-44120000D03*
X148260000Y-46660000D03*
X145720000Y-44120000D03*
X145720000Y-46660000D03*
X143180000Y-44120000D03*
X143180000Y-46660000D03*
X139120000Y-44120000D03*
X139120000Y-46660000D03*
X136580000Y-44120000D03*
X136580000Y-46660000D03*
X134040000Y-44120000D03*
X134040000Y-46660000D03*
X131500000Y-44120000D03*
X131500000Y-46660000D03*
X128960000Y-44120000D03*
X128960000Y-46660000D03*
X126420000Y-44120000D03*
X126420000Y-46660000D03*
X123880000Y-44120000D03*
X123880000Y-46660000D03*
X121340000Y-44120000D03*
X121340000Y-46660000D03*
X118800000Y-44120000D03*
X118800000Y-46660000D03*
X116260000Y-44120000D03*
X116260000Y-46660000D03*
D14*
X117780000Y-59360000D03*
D15*
X117780000Y-56820000D03*
X117780000Y-54280000D03*
X117780000Y-51740000D03*
X110160000Y-51740000D03*
X110160000Y-54280000D03*
X110160000Y-56820000D03*
X110160000Y-59360000D03*
D16*
X145794900Y-57445000D03*
D17*
X144344900Y-57445000D03*
%LPD*%
M02*
