M48
; DRILL file {KiCad 7.99.0-3924-g53fd1aaf5e} date 2023-12-12T19:58:40+0100
; FORMAT={-:-/ absolute / inch / decimal}
; #@! TF.CreationDate,2023-12-12T19:58:40+01:00
; #@! TF.GenerationSoftware,Kicad,Pcbnew,7.99.0-3924-g53fd1aaf5e
; #@! TF.FileFunction,Plated,1,2,PTH
FMAT,2
INCH
; #@! TA.AperFunction,Plated,PTH,ComponentDrill
T1C0.0118
; #@! TA.AperFunction,Plated,PTH,ViaDrill
T2C0.0157
; #@! TA.AperFunction,Plated,PTH,ComponentDrill
T3C0.0315
; #@! TA.AperFunction,Plated,PTH,ComponentDrill
T4C0.0394
; #@! TA.AperFunction,Plated,PTH,ComponentDrill
T5C0.0598
%
G90
G05
T1
X5.2472Y-2.8071
X5.2472Y-2.8543
X5.2945Y-2.8071
X5.2945Y-2.8543
X5.3457Y-2.8071
X5.3457Y-2.8543
X5.389Y-2.8071
X5.389Y-2.8543
T2
X4.798Y-2.274
X4.9369Y-2.3368
X4.9862Y-2.8365
X5.037Y-2.837
X5.0385Y-2.0942
X5.0821Y-2.8373
X5.372Y-3.0775
X5.4853Y-2.5098
X5.6148Y-1.9164
X5.6955Y-2.145
X5.8882Y-2.5053
X5.8886Y-2.149
X5.9061Y-2.0049
X5.937Y-3.237
X5.9795Y-2.837
X5.9795Y-3.237
X5.9922Y-2.274
X6.0125Y-3.237
X6.037Y-2.837
T3
X4.337Y-2.037
X4.337Y-2.137
X4.337Y-2.237
X4.337Y-2.337
X4.637Y-2.037
X4.637Y-2.137
X4.637Y-2.237
X4.637Y-2.337
T4
X4.5772Y-1.737
X4.5772Y-1.837
X4.6772Y-1.737
X4.6772Y-1.837
X4.7772Y-1.737
X4.7772Y-1.837
X4.8772Y-1.737
X4.8772Y-1.837
X4.937Y-3.537
X4.937Y-3.637
X4.9772Y-1.737
X4.9772Y-1.837
X5.037Y-3.537
X5.037Y-3.637
X5.0772Y-1.737
X5.0772Y-1.837
X5.137Y-3.537
X5.137Y-3.637
X5.1772Y-1.737
X5.1772Y-1.837
X5.237Y-3.537
X5.237Y-3.637
X5.2772Y-1.737
X5.2772Y-1.837
X5.337Y-3.537
X5.337Y-3.637
X5.3772Y-1.737
X5.3772Y-1.837
X5.437Y-3.537
X5.437Y-3.637
X5.4772Y-1.737
X5.4772Y-1.837
X5.537Y-3.537
X5.537Y-3.637
X5.637Y-1.737
X5.637Y-1.837
X5.637Y-3.537
X5.637Y-3.637
X5.737Y-1.737
X5.737Y-1.837
X5.837Y-1.737
X5.837Y-1.837
X5.837Y-3.537
X5.837Y-3.637
X5.937Y-1.737
X5.937Y-1.837
X5.937Y-3.537
X5.937Y-3.637
X6.037Y-1.737
X6.037Y-1.837
X6.037Y-3.537
X6.037Y-3.637
X6.137Y-1.737
X6.137Y-1.837
X6.137Y-3.537
X6.137Y-3.637
X6.237Y-1.737
X6.237Y-1.837
X6.237Y-3.537
X6.237Y-3.637
X6.337Y-1.737
X6.337Y-1.837
X6.337Y-3.537
X6.337Y-3.637
T5
X6.4268Y-2.8992
X6.4268Y-3.0992
M30
