G04 #@! TF.GenerationSoftware,KiCad,Pcbnew,7.99.0-3924-g53fd1aaf5e*
G04 #@! TF.CreationDate,2023-12-12T19:58:36+01:00*
G04 #@! TF.ProjectId,xDuinoRailShield,78447569-6e6f-4526-9169-6c536869656c,rev?*
G04 #@! TF.SameCoordinates,Original*
G04 #@! TF.FileFunction,Soldermask,Top*
G04 #@! TF.FilePolarity,Negative*
%FSLAX46Y46*%
G04 Gerber Fmt 4.6, Leading zero omitted, Abs format (unit mm)*
G04 Created by KiCad (PCBNEW 7.99.0-3924-g53fd1aaf5e) date 2023-12-12 19:58:36*
%MOMM*%
%LPD*%
G01*
G04 APERTURE LIST*
G04 Aperture macros list*
%AMRoundRect*
0 Rectangle with rounded corners*
0 $1 Rounding radius*
0 $2 $3 $4 $5 $6 $7 $8 $9 X,Y pos of 4 corners*
0 Add a 4 corners polygon primitive as box body*
4,1,4,$2,$3,$4,$5,$6,$7,$8,$9,$2,$3,0*
0 Add four circle primitives for the rounded corners*
1,1,$1+$1,$2,$3*
1,1,$1+$1,$4,$5*
1,1,$1+$1,$6,$7*
1,1,$1+$1,$8,$9*
0 Add four rect primitives between the rounded corners*
20,1,$1+$1,$2,$3,$4,$5,0*
20,1,$1+$1,$4,$5,$6,$7,0*
20,1,$1+$1,$6,$7,$8,$9,0*
20,1,$1+$1,$8,$9,$2,$3,0*%
G04 Aperture macros list end*
%ADD10RoundRect,0.250000X0.450000X-0.350000X0.450000X0.350000X-0.450000X0.350000X-0.450000X-0.350000X0*%
%ADD11R,3.000000X3.000000*%
%ADD12C,3.000000*%
%ADD13RoundRect,0.250000X-0.450000X0.350000X-0.450000X-0.350000X0.450000X-0.350000X0.450000X0.350000X0*%
%ADD14RoundRect,0.150000X0.587500X0.150000X-0.587500X0.150000X-0.587500X-0.150000X0.587500X-0.150000X0*%
%ADD15RoundRect,0.250000X-0.350000X-0.450000X0.350000X-0.450000X0.350000X0.450000X-0.350000X0.450000X0*%
%ADD16RoundRect,0.250000X0.325000X0.450000X-0.325000X0.450000X-0.325000X-0.450000X0.325000X-0.450000X0*%
%ADD17RoundRect,0.250000X0.350000X0.450000X-0.350000X0.450000X-0.350000X-0.450000X0.350000X-0.450000X0*%
%ADD18RoundRect,0.250000X0.250000X0.475000X-0.250000X0.475000X-0.250000X-0.475000X0.250000X-0.475000X0*%
%ADD19R,3.100000X1.600000*%
%ADD20R,1.600000X1.600000*%
%ADD21O,1.600000X1.600000*%
%ADD22R,2.900000X5.400000*%
%ADD23RoundRect,0.225000X0.375000X-0.225000X0.375000X0.225000X-0.375000X0.225000X-0.375000X-0.225000X0*%
%ADD24RoundRect,0.150000X-0.150000X0.587500X-0.150000X-0.587500X0.150000X-0.587500X0.150000X0.587500X0*%
%ADD25RoundRect,0.250000X-1.000000X-0.650000X1.000000X-0.650000X1.000000X0.650000X-1.000000X0.650000X0*%
%ADD26RoundRect,0.225000X-0.375000X0.225000X-0.375000X-0.225000X0.375000X-0.225000X0.375000X0.225000X0*%
%ADD27RoundRect,0.250000X1.000000X0.650000X-1.000000X0.650000X-1.000000X-0.650000X1.000000X-0.650000X0*%
%ADD28RoundRect,0.250000X-0.650000X0.325000X-0.650000X-0.325000X0.650000X-0.325000X0.650000X0.325000X0*%
%ADD29R,0.600000X1.550000*%
%ADD30R,3.100000X2.600000*%
%ADD31RoundRect,0.150000X0.150000X-0.587500X0.150000X0.587500X-0.150000X0.587500X-0.150000X-0.587500X0*%
G04 APERTURE END LIST*
D10*
X143180000Y-81505000D03*
X143180000Y-79505000D03*
D11*
X163240800Y-73640000D03*
D12*
X163240800Y-78720000D03*
D13*
X143179900Y-51365000D03*
X143179900Y-53365000D03*
D14*
X154687600Y-56805000D03*
X154687600Y-54905000D03*
X152812600Y-55855000D03*
D15*
X158959800Y-57445000D03*
X160959800Y-57445000D03*
D16*
X160959900Y-64440000D03*
X158909900Y-64440000D03*
D17*
X150800000Y-57445000D03*
X148800000Y-57445000D03*
D18*
X133020000Y-77140000D03*
X131120000Y-77140000D03*
D19*
X134925000Y-55550000D03*
X134925000Y-53010000D03*
X126035000Y-53010000D03*
X126035000Y-55550000D03*
D20*
X125400000Y-89840000D03*
X125400000Y-92380000D03*
D21*
X127940000Y-89840000D03*
X127940000Y-92380000D03*
X130480000Y-89840000D03*
X130480000Y-92380000D03*
X133020000Y-89840000D03*
X133020000Y-92380000D03*
X135560000Y-89840000D03*
X135560000Y-92380000D03*
X138100000Y-89840000D03*
X138100000Y-92380000D03*
X140640000Y-89840000D03*
X140640000Y-92380000D03*
X143180000Y-89840000D03*
X143180000Y-92380000D03*
X148260000Y-89840000D03*
X148260000Y-92380000D03*
X150800000Y-89840000D03*
X150800000Y-92380000D03*
X153340000Y-89840000D03*
X153340000Y-92380000D03*
X155880000Y-89840000D03*
X155880000Y-92380000D03*
X158420000Y-89840000D03*
X158420000Y-92380000D03*
X160960000Y-89840000D03*
X160960000Y-92380000D03*
X160960000Y-44120000D03*
X160960000Y-46660000D03*
X158420000Y-44120000D03*
X158420000Y-46660000D03*
X155880000Y-44120000D03*
X155880000Y-46660000D03*
X153340000Y-44120000D03*
X153340000Y-46660000D03*
X150800000Y-44120000D03*
X150800000Y-46660000D03*
X148260000Y-44120000D03*
X148260000Y-46660000D03*
X145720000Y-44120000D03*
X145720000Y-46660000D03*
X143180000Y-44120000D03*
X143180000Y-46660000D03*
X139120000Y-44120000D03*
X139120000Y-46660000D03*
X136580000Y-44120000D03*
X136580000Y-46660000D03*
X134040000Y-44120000D03*
X134040000Y-46660000D03*
X131500000Y-44120000D03*
X131500000Y-46660000D03*
X128960000Y-44120000D03*
X128960000Y-46660000D03*
X126420000Y-44120000D03*
X126420000Y-46660000D03*
X123880000Y-44120000D03*
X123880000Y-46660000D03*
X121340000Y-44120000D03*
X121340000Y-46660000D03*
X118800000Y-44120000D03*
X118800000Y-46660000D03*
X116260000Y-44120000D03*
X116260000Y-46660000D03*
D13*
X105080000Y-56907500D03*
X105080000Y-54907500D03*
D22*
X118040000Y-79680000D03*
X127940000Y-79680000D03*
D23*
X140640000Y-58470000D03*
X140640000Y-55170000D03*
D20*
X117780000Y-59360000D03*
D21*
X117780000Y-56820000D03*
X117780000Y-54280000D03*
X117780000Y-51740000D03*
X110160000Y-51740000D03*
X110160000Y-54280000D03*
X110160000Y-56820000D03*
X110160000Y-59360000D03*
D13*
X121843343Y-51434853D03*
X121843343Y-53434853D03*
D24*
X160319900Y-51427500D03*
X158419900Y-51427500D03*
X159369900Y-53302500D03*
D25*
X151880000Y-69520000D03*
X155880000Y-69520000D03*
D26*
X150800000Y-61900000D03*
X150800000Y-65200000D03*
D27*
X155880000Y-74600000D03*
X151880000Y-74600000D03*
D28*
X141910000Y-71100000D03*
X141910000Y-74050000D03*
D29*
X133175000Y-74600000D03*
X134445000Y-74600000D03*
X135715000Y-74600000D03*
X136985000Y-74600000D03*
X136985000Y-69200000D03*
X135715000Y-69200000D03*
X134445000Y-69200000D03*
X133175000Y-69200000D03*
D30*
X135080000Y-71900000D03*
D15*
X153879900Y-61900000D03*
X155879900Y-61900000D03*
D16*
X160959900Y-61900000D03*
X158909900Y-61900000D03*
D17*
X138275000Y-77140000D03*
X136275000Y-77140000D03*
D27*
X155880000Y-84760000D03*
X151880000Y-84760000D03*
D25*
X151880000Y-79680000D03*
X155880000Y-79680000D03*
D31*
X145720000Y-65831600D03*
X147620000Y-65831600D03*
X146670000Y-63956600D03*
D28*
X138100000Y-82220000D03*
X138100000Y-85170000D03*
D18*
X140619221Y-52689432D03*
X138719221Y-52689432D03*
D17*
X154340000Y-51740000D03*
X152340000Y-51740000D03*
D14*
X127604643Y-60310000D03*
X129479643Y-59360000D03*
X129479643Y-61260000D03*
D25*
X123400000Y-69520000D03*
X127400000Y-69520000D03*
D17*
X146719900Y-59985000D03*
X144719900Y-59985000D03*
D10*
X133020000Y-62900000D03*
X133020000Y-60900000D03*
D28*
X144450000Y-71100000D03*
X144450000Y-74050000D03*
X146990000Y-71100000D03*
X146990000Y-74050000D03*
D10*
X138100000Y-63900000D03*
X138100000Y-61900000D03*
D15*
X153879900Y-64305000D03*
X155879900Y-64305000D03*
D24*
X149210000Y-51427500D03*
X147310000Y-51427500D03*
X148260000Y-53302500D03*
M02*
