G04 #@! TF.GenerationSoftware,KiCad,Pcbnew,7.99.0-3924-g53fd1aaf5e*
G04 #@! TF.CreationDate,2023-12-12T19:58:36+01:00*
G04 #@! TF.ProjectId,xDuinoRailShield,78447569-6e6f-4526-9169-6c536869656c,rev?*
G04 #@! TF.SameCoordinates,Original*
G04 #@! TF.FileFunction,Copper,L2,Bot*
G04 #@! TF.FilePolarity,Positive*
%FSLAX46Y46*%
G04 Gerber Fmt 4.6, Leading zero omitted, Abs format (unit mm)*
G04 Created by KiCad (PCBNEW 7.99.0-3924-g53fd1aaf5e) date 2023-12-12 19:58:36*
%MOMM*%
%LPD*%
G01*
G04 APERTURE LIST*
G04 Aperture macros list*
%AMFreePoly0*
4,1,6,1.000000,0.000000,0.500000,-0.750000,-0.500000,-0.750000,-0.500000,0.750000,0.500000,0.750000,1.000000,0.000000,1.000000,0.000000,$1*%
%AMFreePoly1*
4,1,6,0.500000,-0.750000,-0.650000,-0.750000,-0.150000,0.000000,-0.650000,0.750000,0.500000,0.750000,0.500000,-0.750000,0.500000,-0.750000,$1*%
G04 Aperture macros list end*
G04 #@! TA.AperFunction,ComponentPad*
%ADD10R,3.000000X3.000000*%
G04 #@! TD*
G04 #@! TA.AperFunction,ComponentPad*
%ADD11C,3.000000*%
G04 #@! TD*
G04 #@! TA.AperFunction,ComponentPad*
%ADD12R,1.600000X1.600000*%
G04 #@! TD*
G04 #@! TA.AperFunction,ComponentPad*
%ADD13O,1.600000X1.600000*%
G04 #@! TD*
G04 #@! TA.AperFunction,ComponentPad*
%ADD14C,0.600000*%
G04 #@! TD*
G04 #@! TA.AperFunction,SMDPad,CuDef*
%ADD15R,4.500000X2.950000*%
G04 #@! TD*
G04 #@! TA.AperFunction,SMDPad,CuDef*
%ADD16FreePoly0,180.000000*%
G04 #@! TD*
G04 #@! TA.AperFunction,SMDPad,CuDef*
%ADD17FreePoly1,180.000000*%
G04 #@! TD*
G04 #@! TA.AperFunction,ViaPad*
%ADD18C,0.600000*%
G04 #@! TD*
G04 #@! TA.AperFunction,Conductor*
%ADD19C,0.250000*%
G04 #@! TD*
G04 #@! TA.AperFunction,Conductor*
%ADD20C,1.200000*%
G04 #@! TD*
G04 APERTURE END LIST*
D10*
X163240800Y-73640000D03*
D11*
X163240800Y-78720000D03*
D12*
X125400000Y-89840000D03*
X125400000Y-92380000D03*
D13*
X127940000Y-89840000D03*
X127940000Y-92380000D03*
X130480000Y-89840000D03*
X130480000Y-92380000D03*
X133020000Y-89840000D03*
X133020000Y-92380000D03*
X135560000Y-89840000D03*
X135560000Y-92380000D03*
X138100000Y-89840000D03*
X138100000Y-92380000D03*
X140640000Y-89840000D03*
X140640000Y-92380000D03*
X143180000Y-89840000D03*
X143180000Y-92380000D03*
X148260000Y-89840000D03*
X148260000Y-92380000D03*
X150800000Y-89840000D03*
X150800000Y-92380000D03*
X153340000Y-89840000D03*
X153340000Y-92380000D03*
X155880000Y-89840000D03*
X155880000Y-92380000D03*
X158420000Y-89840000D03*
X158420000Y-92380000D03*
X160960000Y-89840000D03*
X160960000Y-92380000D03*
X160960000Y-44120000D03*
X160960000Y-46660000D03*
X158420000Y-44120000D03*
X158420000Y-46660000D03*
X155880000Y-44120000D03*
X155880000Y-46660000D03*
X153340000Y-44120000D03*
X153340000Y-46660000D03*
X150800000Y-44120000D03*
X150800000Y-46660000D03*
X148260000Y-44120000D03*
X148260000Y-46660000D03*
X145720000Y-44120000D03*
X145720000Y-46660000D03*
X143180000Y-44120000D03*
X143180000Y-46660000D03*
X139120000Y-44120000D03*
X139120000Y-46660000D03*
X136580000Y-44120000D03*
X136580000Y-46660000D03*
X134040000Y-44120000D03*
X134040000Y-46660000D03*
X131500000Y-44120000D03*
X131500000Y-46660000D03*
X128960000Y-44120000D03*
X128960000Y-46660000D03*
X126420000Y-44120000D03*
X126420000Y-46660000D03*
X123880000Y-44120000D03*
X123880000Y-46660000D03*
X121340000Y-44120000D03*
X121340000Y-46660000D03*
X118800000Y-44120000D03*
X118800000Y-46660000D03*
X116260000Y-44120000D03*
X116260000Y-46660000D03*
D12*
X117780000Y-59360000D03*
D13*
X117780000Y-56820000D03*
X117780000Y-54280000D03*
X117780000Y-51740000D03*
X110160000Y-51740000D03*
X110160000Y-54280000D03*
X110160000Y-56820000D03*
X110160000Y-59360000D03*
D14*
X133280000Y-72500000D03*
X134480000Y-72500000D03*
X135780000Y-72500000D03*
X136880000Y-72500000D03*
D15*
X135080000Y-71900000D03*
D14*
X133280000Y-71300000D03*
X134480000Y-71300000D03*
X135780000Y-71300000D03*
X136880000Y-71300000D03*
D16*
X145794900Y-57445000D03*
D17*
X144344900Y-57445000D03*
D18*
X151880000Y-72060000D03*
X153340000Y-72060000D03*
X151880000Y-82220000D03*
X125396331Y-59353540D03*
X152717000Y-82220000D03*
X139326000Y-63749700D03*
X150015000Y-50923200D03*
X129086000Y-72066700D03*
X136450000Y-78167900D03*
X126649000Y-72046800D03*
X150800000Y-82220000D03*
X127979000Y-53192100D03*
X127940000Y-72060000D03*
X142615000Y-48675600D03*
X144666000Y-54482800D03*
X121870000Y-57759700D03*
X149570000Y-54585700D03*
X152203000Y-57759700D03*
X149560000Y-63635400D03*
D19*
X110160000Y-63313100D02*
X110160000Y-59360000D01*
X135560000Y-92380000D02*
X135560000Y-89840000D01*
X135560000Y-89840000D02*
X135560000Y-88713100D01*
X135560000Y-88713100D02*
X110160000Y-63313100D01*
X144345000Y-57175700D02*
X144345000Y-57243000D01*
X144345000Y-57243000D02*
X144345000Y-57310300D01*
X144345000Y-56368100D02*
X145512000Y-56368100D01*
X144345000Y-56637300D02*
X144345000Y-56906500D01*
X152777000Y-45810300D02*
X153340000Y-45246900D01*
X144345000Y-56637300D02*
X144345000Y-56368100D01*
X144344900Y-57243100D02*
X144344900Y-57445000D01*
X144345000Y-57041200D02*
X144345000Y-57175700D01*
X152777000Y-46660000D02*
X152777000Y-45810300D01*
X144345000Y-57243000D02*
X144344900Y-57243100D01*
X153340000Y-46660000D02*
X152777000Y-46660000D01*
X153340000Y-48540100D02*
X153340000Y-46660000D01*
X145512000Y-56368100D02*
X153340000Y-48540100D01*
X144345000Y-57041100D02*
X144345000Y-56906500D01*
X153340000Y-45246900D02*
X153340000Y-44120000D01*
X144345000Y-57041100D02*
X144345000Y-57041200D01*
X133020000Y-89840000D02*
X133020000Y-92380000D01*
D20*
X143180000Y-89840000D02*
X143180000Y-92380000D01*
D19*
X155880000Y-45390000D02*
X155880000Y-44120000D01*
X144666000Y-54482800D02*
X150374000Y-48774500D01*
X154869000Y-42491800D02*
X155562000Y-43184700D01*
X155562000Y-45072000D02*
X155562000Y-43801800D01*
X152215000Y-43654000D02*
X153377000Y-42491800D01*
X142615000Y-52432200D02*
X142615000Y-48675600D01*
X155880000Y-45390000D02*
X155562000Y-45072000D01*
X152215000Y-46933900D02*
X152215000Y-43654000D01*
X153377000Y-42491800D02*
X154869000Y-42491800D01*
X155880000Y-46660000D02*
X155880000Y-45390000D01*
X150374000Y-48774500D02*
X152215000Y-46933900D01*
X155562000Y-43184700D02*
X155562000Y-43801800D01*
X144666000Y-54482800D02*
X142615000Y-52432200D01*
X117780000Y-54280000D02*
X118907000Y-54280000D01*
X118907000Y-54280000D02*
X118907000Y-54797000D01*
X118907000Y-54797000D02*
X121870000Y-57759700D01*
X146710000Y-57445000D02*
X149570000Y-54585700D01*
X145795000Y-57445000D02*
X145794900Y-57445000D01*
X145795000Y-57445000D02*
X146710000Y-57445000D01*
X151192000Y-59585100D02*
X151412000Y-59365700D01*
X149560000Y-61217200D02*
X149560000Y-63635400D01*
X151412000Y-59365700D02*
X152203000Y-58575100D01*
X152203000Y-58575100D02*
X152203000Y-57759700D01*
X151192000Y-59585100D02*
X149560000Y-61217200D01*
G04 #@! TA.AperFunction,Conductor*
G36*
X140174075Y-92187007D02*
G01*
X140140000Y-92314174D01*
X140140000Y-92445826D01*
X140174075Y-92572993D01*
X140206988Y-92630000D01*
X138533012Y-92630000D01*
X138565925Y-92572993D01*
X138600000Y-92445826D01*
X138600000Y-92314174D01*
X138565925Y-92187007D01*
X138533012Y-92130000D01*
X140206988Y-92130000D01*
X140174075Y-92187007D01*
G37*
G04 #@! TD.AperFunction*
G04 #@! TA.AperFunction,Conductor*
G36*
X138350000Y-91946988D02*
G01*
X138292993Y-91914075D01*
X138165826Y-91880000D01*
X138034174Y-91880000D01*
X137907007Y-91914075D01*
X137850000Y-91946988D01*
X137850000Y-90273012D01*
X137907007Y-90305925D01*
X138034174Y-90340000D01*
X138165826Y-90340000D01*
X138292993Y-90305925D01*
X138350000Y-90273012D01*
X138350000Y-91946988D01*
G37*
G04 #@! TD.AperFunction*
G04 #@! TA.AperFunction,Conductor*
G36*
X140890000Y-91946988D02*
G01*
X140832993Y-91914075D01*
X140705826Y-91880000D01*
X140574174Y-91880000D01*
X140447007Y-91914075D01*
X140390000Y-91946988D01*
X140390000Y-90273012D01*
X140447007Y-90305925D01*
X140574174Y-90340000D01*
X140705826Y-90340000D01*
X140832993Y-90305925D01*
X140890000Y-90273012D01*
X140890000Y-91946988D01*
G37*
G04 #@! TD.AperFunction*
G04 #@! TA.AperFunction,Conductor*
G36*
X140174075Y-89647007D02*
G01*
X140140000Y-89774174D01*
X140140000Y-89905826D01*
X140174075Y-90032993D01*
X140206988Y-90090000D01*
X138533012Y-90090000D01*
X138565925Y-90032993D01*
X138600000Y-89905826D01*
X138600000Y-89774174D01*
X138565925Y-89647007D01*
X138533012Y-89590000D01*
X140206988Y-89590000D01*
X140174075Y-89647007D01*
G37*
G04 #@! TD.AperFunction*
G04 #@! TA.AperFunction,Conductor*
G36*
X124130000Y-46226988D02*
G01*
X124072993Y-46194075D01*
X123945826Y-46160000D01*
X123814174Y-46160000D01*
X123687007Y-46194075D01*
X123630000Y-46226988D01*
X123630000Y-44553012D01*
X123687007Y-44585925D01*
X123814174Y-44620000D01*
X123945826Y-44620000D01*
X124072993Y-44585925D01*
X124130000Y-44553012D01*
X124130000Y-46226988D01*
G37*
G04 #@! TD.AperFunction*
G04 #@! TA.AperFunction,Conductor*
G36*
X161946212Y-41670781D02*
G01*
X161966861Y-41687420D01*
X163391398Y-43111957D01*
X163424883Y-43173280D01*
X163427717Y-43199674D01*
X163424506Y-54254979D01*
X163424500Y-54255065D01*
X163424500Y-54280031D01*
X163424496Y-54295022D01*
X163424508Y-54295084D01*
X163425034Y-54296308D01*
X163430837Y-54310318D01*
X163430843Y-54310349D01*
X163430849Y-54310347D01*
X163435984Y-54322753D01*
X163435991Y-54322763D01*
X163435993Y-54322765D01*
X163435994Y-54322767D01*
X163446604Y-54333377D01*
X163457214Y-54343994D01*
X163457215Y-54343994D01*
X163466771Y-54353557D01*
X163466836Y-54353609D01*
X165928181Y-56814954D01*
X165961666Y-56876277D01*
X165964500Y-56902635D01*
X165964500Y-89757364D01*
X165944815Y-89824403D01*
X165928181Y-89845045D01*
X163457233Y-92315994D01*
X163435995Y-92337231D01*
X163424500Y-92364982D01*
X163424500Y-94720500D01*
X163404815Y-94787539D01*
X163352011Y-94833294D01*
X163300500Y-94844500D01*
X102739500Y-94844500D01*
X102672461Y-94824815D01*
X102626706Y-94772011D01*
X102615500Y-94720500D01*
X102615500Y-59360001D01*
X108846502Y-59360001D01*
X108866456Y-59588081D01*
X108866457Y-59588089D01*
X108925714Y-59809238D01*
X108925718Y-59809249D01*
X108950601Y-59862610D01*
X109022477Y-60016749D01*
X109153802Y-60204300D01*
X109315700Y-60366198D01*
X109473625Y-60476779D01*
X109517249Y-60531354D01*
X109526500Y-60578352D01*
X109526500Y-63375498D01*
X109550843Y-63497877D01*
X109550845Y-63497885D01*
X109598598Y-63613172D01*
X109598603Y-63613181D01*
X109667928Y-63716932D01*
X109667931Y-63716936D01*
X134662567Y-88711571D01*
X134696052Y-88772894D01*
X134691068Y-88842586D01*
X134662568Y-88886932D01*
X134553806Y-88995695D01*
X134422476Y-89183251D01*
X134402382Y-89226345D01*
X134356209Y-89278784D01*
X134289016Y-89297936D01*
X134222135Y-89277720D01*
X134177618Y-89226345D01*
X134157523Y-89183251D01*
X134026198Y-88995700D01*
X133864300Y-88833802D01*
X133676749Y-88702477D01*
X133676745Y-88702475D01*
X133469249Y-88605718D01*
X133469238Y-88605714D01*
X133248089Y-88546457D01*
X133248081Y-88546456D01*
X133020002Y-88526502D01*
X133019998Y-88526502D01*
X132791918Y-88546456D01*
X132791910Y-88546457D01*
X132570761Y-88605714D01*
X132570750Y-88605718D01*
X132363254Y-88702475D01*
X132363252Y-88702476D01*
X132292856Y-88751767D01*
X132175700Y-88833802D01*
X132175698Y-88833803D01*
X132175695Y-88833806D01*
X132013806Y-88995695D01*
X131882476Y-89183251D01*
X131862382Y-89226345D01*
X131816209Y-89278784D01*
X131749016Y-89297936D01*
X131682135Y-89277720D01*
X131637618Y-89226345D01*
X131617523Y-89183251D01*
X131486198Y-88995700D01*
X131324300Y-88833802D01*
X131136749Y-88702477D01*
X131136745Y-88702475D01*
X130929249Y-88605718D01*
X130929238Y-88605714D01*
X130708089Y-88546457D01*
X130708081Y-88546456D01*
X130480002Y-88526502D01*
X130479998Y-88526502D01*
X130251918Y-88546456D01*
X130251910Y-88546457D01*
X130030761Y-88605714D01*
X130030750Y-88605718D01*
X129823254Y-88702475D01*
X129823252Y-88702476D01*
X129752856Y-88751767D01*
X129635700Y-88833802D01*
X129635698Y-88833803D01*
X129635695Y-88833806D01*
X129473806Y-88995695D01*
X129342476Y-89183251D01*
X129322382Y-89226345D01*
X129276209Y-89278784D01*
X129209016Y-89297936D01*
X129142135Y-89277720D01*
X129097618Y-89226345D01*
X129077523Y-89183251D01*
X128946198Y-88995700D01*
X128784300Y-88833802D01*
X128596749Y-88702477D01*
X128596745Y-88702475D01*
X128389249Y-88605718D01*
X128389238Y-88605714D01*
X128168089Y-88546457D01*
X128168081Y-88546456D01*
X127940002Y-88526502D01*
X127939998Y-88526502D01*
X127711918Y-88546456D01*
X127711910Y-88546457D01*
X127490761Y-88605714D01*
X127490750Y-88605718D01*
X127283254Y-88702475D01*
X127283252Y-88702476D01*
X127212856Y-88751767D01*
X127095700Y-88833802D01*
X127095698Y-88833803D01*
X127095695Y-88833806D01*
X126933805Y-88995696D01*
X126928429Y-89003374D01*
X126873849Y-89046995D01*
X126804350Y-89054184D01*
X126741997Y-89022658D01*
X126706587Y-88962426D01*
X126703570Y-88945510D01*
X126701989Y-88930799D01*
X126650889Y-88793796D01*
X126563261Y-88676739D01*
X126446204Y-88589111D01*
X126309203Y-88538011D01*
X126248654Y-88531500D01*
X126248638Y-88531500D01*
X124551362Y-88531500D01*
X124551345Y-88531500D01*
X124490797Y-88538011D01*
X124490795Y-88538011D01*
X124353795Y-88589111D01*
X124236739Y-88676739D01*
X124149111Y-88793795D01*
X124098011Y-88930795D01*
X124098011Y-88930797D01*
X124091500Y-88991345D01*
X124091500Y-90688654D01*
X124098011Y-90749202D01*
X124098011Y-90749204D01*
X124149111Y-90886204D01*
X124236739Y-91003261D01*
X124246722Y-91010734D01*
X124288592Y-91066668D01*
X124293576Y-91136360D01*
X124260090Y-91197682D01*
X124246722Y-91209266D01*
X124236739Y-91216738D01*
X124149111Y-91333795D01*
X124098011Y-91470795D01*
X124098011Y-91470797D01*
X124091500Y-91531345D01*
X124091500Y-93228654D01*
X124098011Y-93289202D01*
X124098011Y-93289204D01*
X124134189Y-93386198D01*
X124149111Y-93426204D01*
X124236739Y-93543261D01*
X124353796Y-93630889D01*
X124490799Y-93681989D01*
X124518050Y-93684918D01*
X124551345Y-93688499D01*
X124551362Y-93688500D01*
X126248638Y-93688500D01*
X126248654Y-93688499D01*
X126275692Y-93685591D01*
X126309201Y-93681989D01*
X126446204Y-93630889D01*
X126563261Y-93543261D01*
X126650889Y-93426204D01*
X126701989Y-93289201D01*
X126703569Y-93274500D01*
X126730304Y-93209952D01*
X126787695Y-93170102D01*
X126857521Y-93167606D01*
X126917611Y-93203257D01*
X126928428Y-93216626D01*
X126933802Y-93224300D01*
X127095700Y-93386198D01*
X127283251Y-93517523D01*
X127338445Y-93543260D01*
X127490750Y-93614281D01*
X127490752Y-93614281D01*
X127490757Y-93614284D01*
X127711913Y-93673543D01*
X127874832Y-93687796D01*
X127939998Y-93693498D01*
X127940000Y-93693498D01*
X127940002Y-93693498D01*
X127997139Y-93688499D01*
X128168087Y-93673543D01*
X128389243Y-93614284D01*
X128596749Y-93517523D01*
X128784300Y-93386198D01*
X128946198Y-93224300D01*
X129077523Y-93036749D01*
X129097618Y-92993655D01*
X129143790Y-92941215D01*
X129210983Y-92922063D01*
X129277864Y-92942278D01*
X129322382Y-92993655D01*
X129342477Y-93036749D01*
X129473802Y-93224300D01*
X129635700Y-93386198D01*
X129823251Y-93517523D01*
X129878445Y-93543260D01*
X130030750Y-93614281D01*
X130030752Y-93614281D01*
X130030757Y-93614284D01*
X130251913Y-93673543D01*
X130414832Y-93687796D01*
X130479998Y-93693498D01*
X130480000Y-93693498D01*
X130480002Y-93693498D01*
X130537139Y-93688499D01*
X130708087Y-93673543D01*
X130929243Y-93614284D01*
X131136749Y-93517523D01*
X131324300Y-93386198D01*
X131486198Y-93224300D01*
X131617523Y-93036749D01*
X131637618Y-92993655D01*
X131683790Y-92941215D01*
X131750983Y-92922063D01*
X131817864Y-92942278D01*
X131862382Y-92993655D01*
X131882477Y-93036749D01*
X132013802Y-93224300D01*
X132175700Y-93386198D01*
X132363251Y-93517523D01*
X132418445Y-93543260D01*
X132570750Y-93614281D01*
X132570752Y-93614281D01*
X132570757Y-93614284D01*
X132791913Y-93673543D01*
X132954832Y-93687796D01*
X133019998Y-93693498D01*
X133020000Y-93693498D01*
X133020002Y-93693498D01*
X133077139Y-93688499D01*
X133248087Y-93673543D01*
X133469243Y-93614284D01*
X133676749Y-93517523D01*
X133864300Y-93386198D01*
X134026198Y-93224300D01*
X134157523Y-93036749D01*
X134177618Y-92993655D01*
X134223790Y-92941215D01*
X134290983Y-92922063D01*
X134357864Y-92942278D01*
X134402382Y-92993655D01*
X134422477Y-93036749D01*
X134553802Y-93224300D01*
X134715700Y-93386198D01*
X134903251Y-93517523D01*
X134958445Y-93543260D01*
X135110750Y-93614281D01*
X135110752Y-93614281D01*
X135110757Y-93614284D01*
X135331913Y-93673543D01*
X135494832Y-93687796D01*
X135559998Y-93693498D01*
X135560000Y-93693498D01*
X135560002Y-93693498D01*
X135617139Y-93688499D01*
X135788087Y-93673543D01*
X136009243Y-93614284D01*
X136216749Y-93517523D01*
X136404300Y-93386198D01*
X136566198Y-93224300D01*
X136697523Y-93036749D01*
X136722307Y-92983598D01*
X136768479Y-92931159D01*
X136835672Y-92912007D01*
X136902553Y-92932222D01*
X136947071Y-92983599D01*
X136969864Y-93032479D01*
X136969865Y-93032481D01*
X137100342Y-93218820D01*
X137261179Y-93379657D01*
X137447517Y-93510134D01*
X137653673Y-93606265D01*
X137653682Y-93606269D01*
X137849999Y-93658872D01*
X137850000Y-93658871D01*
X137850000Y-92813012D01*
X137907007Y-92845925D01*
X138034174Y-92880000D01*
X138165826Y-92880000D01*
X138292993Y-92845925D01*
X138350000Y-92813012D01*
X138350000Y-93658872D01*
X138546317Y-93606269D01*
X138546326Y-93606265D01*
X138752482Y-93510134D01*
X138938820Y-93379657D01*
X139099657Y-93218820D01*
X139230134Y-93032481D01*
X139230135Y-93032479D01*
X139257618Y-92973543D01*
X139303790Y-92921103D01*
X139370983Y-92901951D01*
X139437864Y-92922166D01*
X139482382Y-92973543D01*
X139509864Y-93032479D01*
X139509865Y-93032481D01*
X139640342Y-93218820D01*
X139801179Y-93379657D01*
X139987517Y-93510134D01*
X140193673Y-93606265D01*
X140193682Y-93606269D01*
X140389999Y-93658872D01*
X140390000Y-93658871D01*
X140390000Y-92813012D01*
X140447007Y-92845925D01*
X140574174Y-92880000D01*
X140705826Y-92880000D01*
X140832993Y-92845925D01*
X140890000Y-92813012D01*
X140890000Y-93658872D01*
X141086317Y-93606269D01*
X141086326Y-93606265D01*
X141292482Y-93510134D01*
X141478820Y-93379657D01*
X141639657Y-93218820D01*
X141770133Y-93032483D01*
X141792927Y-92983600D01*
X141839098Y-92931160D01*
X141906292Y-92912007D01*
X141973173Y-92932221D01*
X142017691Y-92983596D01*
X142042477Y-93036749D01*
X142173802Y-93224300D01*
X142335700Y-93386198D01*
X142523251Y-93517523D01*
X142578445Y-93543260D01*
X142730750Y-93614281D01*
X142730752Y-93614281D01*
X142730757Y-93614284D01*
X142951913Y-93673543D01*
X143114832Y-93687796D01*
X143179998Y-93693498D01*
X143180000Y-93693498D01*
X143180002Y-93693498D01*
X143237139Y-93688499D01*
X143408087Y-93673543D01*
X143629243Y-93614284D01*
X143836749Y-93517523D01*
X144024300Y-93386198D01*
X144186198Y-93224300D01*
X144317523Y-93036749D01*
X144414284Y-92829243D01*
X144473543Y-92608087D01*
X144493498Y-92380001D01*
X146946502Y-92380001D01*
X146966456Y-92608081D01*
X146966457Y-92608089D01*
X147025714Y-92829238D01*
X147025718Y-92829249D01*
X147097692Y-92983597D01*
X147122477Y-93036749D01*
X147253802Y-93224300D01*
X147415700Y-93386198D01*
X147603251Y-93517523D01*
X147658445Y-93543260D01*
X147810750Y-93614281D01*
X147810752Y-93614281D01*
X147810757Y-93614284D01*
X148031913Y-93673543D01*
X148194832Y-93687796D01*
X148259998Y-93693498D01*
X148260000Y-93693498D01*
X148260002Y-93693498D01*
X148317139Y-93688499D01*
X148488087Y-93673543D01*
X148709243Y-93614284D01*
X148916749Y-93517523D01*
X149104300Y-93386198D01*
X149266198Y-93224300D01*
X149397523Y-93036749D01*
X149417618Y-92993655D01*
X149463790Y-92941215D01*
X149530983Y-92922063D01*
X149597864Y-92942278D01*
X149642382Y-92993655D01*
X149662477Y-93036749D01*
X149793802Y-93224300D01*
X149955700Y-93386198D01*
X150143251Y-93517523D01*
X150198445Y-93543260D01*
X150350750Y-93614281D01*
X150350752Y-93614281D01*
X150350757Y-93614284D01*
X150571913Y-93673543D01*
X150734832Y-93687796D01*
X150799998Y-93693498D01*
X150800000Y-93693498D01*
X150800002Y-93693498D01*
X150857139Y-93688499D01*
X151028087Y-93673543D01*
X151249243Y-93614284D01*
X151456749Y-93517523D01*
X151644300Y-93386198D01*
X151806198Y-93224300D01*
X151937523Y-93036749D01*
X151957618Y-92993655D01*
X152003790Y-92941215D01*
X152070983Y-92922063D01*
X152137864Y-92942278D01*
X152182382Y-92993655D01*
X152202477Y-93036749D01*
X152333802Y-93224300D01*
X152495700Y-93386198D01*
X152683251Y-93517523D01*
X152738445Y-93543260D01*
X152890750Y-93614281D01*
X152890752Y-93614281D01*
X152890757Y-93614284D01*
X153111913Y-93673543D01*
X153274832Y-93687796D01*
X153339998Y-93693498D01*
X153340000Y-93693498D01*
X153340002Y-93693498D01*
X153397139Y-93688499D01*
X153568087Y-93673543D01*
X153789243Y-93614284D01*
X153996749Y-93517523D01*
X154184300Y-93386198D01*
X154346198Y-93224300D01*
X154477523Y-93036749D01*
X154497618Y-92993655D01*
X154543790Y-92941215D01*
X154610983Y-92922063D01*
X154677864Y-92942278D01*
X154722382Y-92993655D01*
X154742477Y-93036749D01*
X154873802Y-93224300D01*
X155035700Y-93386198D01*
X155223251Y-93517523D01*
X155278445Y-93543260D01*
X155430750Y-93614281D01*
X155430752Y-93614281D01*
X155430757Y-93614284D01*
X155651913Y-93673543D01*
X155814832Y-93687796D01*
X155879998Y-93693498D01*
X155880000Y-93693498D01*
X155880002Y-93693498D01*
X155937139Y-93688499D01*
X156108087Y-93673543D01*
X156329243Y-93614284D01*
X156536749Y-93517523D01*
X156724300Y-93386198D01*
X156886198Y-93224300D01*
X157017523Y-93036749D01*
X157037618Y-92993655D01*
X157083790Y-92941215D01*
X157150983Y-92922063D01*
X157217864Y-92942278D01*
X157262382Y-92993655D01*
X157282477Y-93036749D01*
X157413802Y-93224300D01*
X157575700Y-93386198D01*
X157763251Y-93517523D01*
X157818445Y-93543260D01*
X157970750Y-93614281D01*
X157970752Y-93614281D01*
X157970757Y-93614284D01*
X158191913Y-93673543D01*
X158354832Y-93687796D01*
X158419998Y-93693498D01*
X158420000Y-93693498D01*
X158420002Y-93693498D01*
X158477139Y-93688499D01*
X158648087Y-93673543D01*
X158869243Y-93614284D01*
X159076749Y-93517523D01*
X159264300Y-93386198D01*
X159426198Y-93224300D01*
X159557523Y-93036749D01*
X159577618Y-92993655D01*
X159623790Y-92941215D01*
X159690983Y-92922063D01*
X159757864Y-92942278D01*
X159802382Y-92993655D01*
X159822477Y-93036749D01*
X159953802Y-93224300D01*
X160115700Y-93386198D01*
X160303251Y-93517523D01*
X160358445Y-93543260D01*
X160510750Y-93614281D01*
X160510752Y-93614281D01*
X160510757Y-93614284D01*
X160731913Y-93673543D01*
X160894832Y-93687796D01*
X160959998Y-93693498D01*
X160960000Y-93693498D01*
X160960002Y-93693498D01*
X161017139Y-93688499D01*
X161188087Y-93673543D01*
X161409243Y-93614284D01*
X161616749Y-93517523D01*
X161804300Y-93386198D01*
X161966198Y-93224300D01*
X162097523Y-93036749D01*
X162194284Y-92829243D01*
X162253543Y-92608087D01*
X162273498Y-92380000D01*
X162253543Y-92151913D01*
X162194284Y-91930757D01*
X162097523Y-91723251D01*
X161966198Y-91535700D01*
X161804300Y-91373802D01*
X161616749Y-91242477D01*
X161573655Y-91222382D01*
X161521215Y-91176210D01*
X161502063Y-91109017D01*
X161522278Y-91042136D01*
X161573655Y-90997618D01*
X161587176Y-90991313D01*
X161616749Y-90977523D01*
X161804300Y-90846198D01*
X161966198Y-90684300D01*
X162097523Y-90496749D01*
X162194284Y-90289243D01*
X162253543Y-90068087D01*
X162273498Y-89840000D01*
X162272133Y-89824403D01*
X162253543Y-89611918D01*
X162253543Y-89611913D01*
X162194284Y-89390757D01*
X162097523Y-89183251D01*
X161966198Y-88995700D01*
X161804300Y-88833802D01*
X161616749Y-88702477D01*
X161616745Y-88702475D01*
X161409249Y-88605718D01*
X161409238Y-88605714D01*
X161188089Y-88546457D01*
X161188081Y-88546456D01*
X160960002Y-88526502D01*
X160959998Y-88526502D01*
X160731918Y-88546456D01*
X160731910Y-88546457D01*
X160510761Y-88605714D01*
X160510750Y-88605718D01*
X160303254Y-88702475D01*
X160303252Y-88702476D01*
X160232856Y-88751767D01*
X160115700Y-88833802D01*
X160115698Y-88833803D01*
X160115695Y-88833806D01*
X159953806Y-88995695D01*
X159822476Y-89183251D01*
X159802382Y-89226345D01*
X159756209Y-89278784D01*
X159689016Y-89297936D01*
X159622135Y-89277720D01*
X159577618Y-89226345D01*
X159557523Y-89183251D01*
X159426198Y-88995700D01*
X159264300Y-88833802D01*
X159076749Y-88702477D01*
X159076745Y-88702475D01*
X158869249Y-88605718D01*
X158869238Y-88605714D01*
X158648089Y-88546457D01*
X158648081Y-88546456D01*
X158420002Y-88526502D01*
X158419998Y-88526502D01*
X158191918Y-88546456D01*
X158191910Y-88546457D01*
X157970761Y-88605714D01*
X157970750Y-88605718D01*
X157763254Y-88702475D01*
X157763252Y-88702476D01*
X157692856Y-88751767D01*
X157575700Y-88833802D01*
X157575698Y-88833803D01*
X157575695Y-88833806D01*
X157413806Y-88995695D01*
X157282476Y-89183251D01*
X157262382Y-89226345D01*
X157216209Y-89278784D01*
X157149016Y-89297936D01*
X157082135Y-89277720D01*
X157037618Y-89226345D01*
X157017523Y-89183251D01*
X156886198Y-88995700D01*
X156724300Y-88833802D01*
X156536749Y-88702477D01*
X156536745Y-88702475D01*
X156329249Y-88605718D01*
X156329238Y-88605714D01*
X156108089Y-88546457D01*
X156108081Y-88546456D01*
X155880002Y-88526502D01*
X155879998Y-88526502D01*
X155651918Y-88546456D01*
X155651910Y-88546457D01*
X155430761Y-88605714D01*
X155430750Y-88605718D01*
X155223254Y-88702475D01*
X155223252Y-88702476D01*
X155152856Y-88751767D01*
X155035700Y-88833802D01*
X155035698Y-88833803D01*
X155035695Y-88833806D01*
X154873806Y-88995695D01*
X154742476Y-89183251D01*
X154722382Y-89226345D01*
X154676209Y-89278784D01*
X154609016Y-89297936D01*
X154542135Y-89277720D01*
X154497618Y-89226345D01*
X154477523Y-89183251D01*
X154346198Y-88995700D01*
X154184300Y-88833802D01*
X153996749Y-88702477D01*
X153996745Y-88702475D01*
X153789249Y-88605718D01*
X153789238Y-88605714D01*
X153568089Y-88546457D01*
X153568081Y-88546456D01*
X153340002Y-88526502D01*
X153339998Y-88526502D01*
X153111918Y-88546456D01*
X153111910Y-88546457D01*
X152890761Y-88605714D01*
X152890750Y-88605718D01*
X152683254Y-88702475D01*
X152683252Y-88702476D01*
X152612856Y-88751767D01*
X152495700Y-88833802D01*
X152495698Y-88833803D01*
X152495695Y-88833806D01*
X152333806Y-88995695D01*
X152202476Y-89183251D01*
X152182382Y-89226345D01*
X152136209Y-89278784D01*
X152069016Y-89297936D01*
X152002135Y-89277720D01*
X151957618Y-89226345D01*
X151937523Y-89183251D01*
X151806198Y-88995700D01*
X151644300Y-88833802D01*
X151456749Y-88702477D01*
X151456745Y-88702475D01*
X151249249Y-88605718D01*
X151249238Y-88605714D01*
X151028089Y-88546457D01*
X151028081Y-88546456D01*
X150800002Y-88526502D01*
X150799998Y-88526502D01*
X150571918Y-88546456D01*
X150571910Y-88546457D01*
X150350761Y-88605714D01*
X150350750Y-88605718D01*
X150143254Y-88702475D01*
X150143252Y-88702476D01*
X150072856Y-88751767D01*
X149955700Y-88833802D01*
X149955698Y-88833803D01*
X149955695Y-88833806D01*
X149793806Y-88995695D01*
X149662476Y-89183251D01*
X149642382Y-89226345D01*
X149596209Y-89278784D01*
X149529016Y-89297936D01*
X149462135Y-89277720D01*
X149417618Y-89226345D01*
X149397523Y-89183251D01*
X149266198Y-88995700D01*
X149104300Y-88833802D01*
X148916749Y-88702477D01*
X148916745Y-88702475D01*
X148709249Y-88605718D01*
X148709238Y-88605714D01*
X148488089Y-88546457D01*
X148488081Y-88546456D01*
X148260002Y-88526502D01*
X148259998Y-88526502D01*
X148031918Y-88546456D01*
X148031910Y-88546457D01*
X147810761Y-88605714D01*
X147810750Y-88605718D01*
X147603254Y-88702475D01*
X147603252Y-88702476D01*
X147532856Y-88751767D01*
X147415700Y-88833802D01*
X147415698Y-88833803D01*
X147415695Y-88833806D01*
X147253806Y-88995695D01*
X147122476Y-89183252D01*
X147122475Y-89183254D01*
X147025718Y-89390750D01*
X147025714Y-89390761D01*
X146966457Y-89611910D01*
X146966456Y-89611918D01*
X146946502Y-89839998D01*
X146946502Y-89840001D01*
X146966456Y-90068081D01*
X146966457Y-90068089D01*
X147025714Y-90289238D01*
X147025718Y-90289249D01*
X147097692Y-90443597D01*
X147122477Y-90496749D01*
X147253802Y-90684300D01*
X147415700Y-90846198D01*
X147592700Y-90970135D01*
X147603251Y-90977523D01*
X147646345Y-90997618D01*
X147698784Y-91043791D01*
X147717936Y-91110984D01*
X147697720Y-91177865D01*
X147646345Y-91222382D01*
X147603251Y-91242476D01*
X147478126Y-91330090D01*
X147415700Y-91373802D01*
X147415698Y-91373803D01*
X147415695Y-91373806D01*
X147253806Y-91535695D01*
X147122476Y-91723252D01*
X147122475Y-91723254D01*
X147025718Y-91930750D01*
X147025714Y-91930761D01*
X146966457Y-92151910D01*
X146966456Y-92151918D01*
X146946502Y-92379998D01*
X146946502Y-92380001D01*
X144493498Y-92380001D01*
X144493498Y-92380000D01*
X144473543Y-92151913D01*
X144414284Y-91930757D01*
X144317523Y-91723251D01*
X144317521Y-91723249D01*
X144317521Y-91723247D01*
X144310925Y-91713827D01*
X144288597Y-91647620D01*
X144288500Y-91642704D01*
X144288500Y-90577295D01*
X144308185Y-90510256D01*
X144310926Y-90506170D01*
X144317523Y-90496749D01*
X144414284Y-90289243D01*
X144473543Y-90068087D01*
X144493498Y-89840000D01*
X144492133Y-89824403D01*
X144473543Y-89611918D01*
X144473543Y-89611913D01*
X144414284Y-89390757D01*
X144317523Y-89183251D01*
X144186198Y-88995700D01*
X144024300Y-88833802D01*
X143836749Y-88702477D01*
X143836745Y-88702475D01*
X143629249Y-88605718D01*
X143629238Y-88605714D01*
X143408089Y-88546457D01*
X143408081Y-88546456D01*
X143180002Y-88526502D01*
X143179998Y-88526502D01*
X142951918Y-88546456D01*
X142951910Y-88546457D01*
X142730761Y-88605714D01*
X142730750Y-88605718D01*
X142523254Y-88702475D01*
X142523252Y-88702476D01*
X142452856Y-88751767D01*
X142335700Y-88833802D01*
X142335698Y-88833803D01*
X142335695Y-88833806D01*
X142173806Y-88995695D01*
X142042476Y-89183252D01*
X142042474Y-89183256D01*
X142017691Y-89236402D01*
X141971518Y-89288841D01*
X141904324Y-89307992D01*
X141837444Y-89287775D01*
X141792927Y-89236399D01*
X141770133Y-89187517D01*
X141639657Y-89001179D01*
X141478820Y-88840342D01*
X141292482Y-88709865D01*
X141086328Y-88613734D01*
X140890000Y-88561127D01*
X140890000Y-89406988D01*
X140832993Y-89374075D01*
X140705826Y-89340000D01*
X140574174Y-89340000D01*
X140447007Y-89374075D01*
X140390000Y-89406988D01*
X140390000Y-88561127D01*
X140193671Y-88613734D01*
X139987517Y-88709865D01*
X139801179Y-88840342D01*
X139640342Y-89001179D01*
X139509865Y-89187517D01*
X139482382Y-89246457D01*
X139436210Y-89298896D01*
X139369016Y-89318048D01*
X139302135Y-89297832D01*
X139257618Y-89246457D01*
X139230134Y-89187517D01*
X139099657Y-89001179D01*
X138938820Y-88840342D01*
X138752482Y-88709865D01*
X138546328Y-88613734D01*
X138350000Y-88561127D01*
X138350000Y-89406988D01*
X138292993Y-89374075D01*
X138165826Y-89340000D01*
X138034174Y-89340000D01*
X137907007Y-89374075D01*
X137850000Y-89406988D01*
X137850000Y-88561127D01*
X137653671Y-88613734D01*
X137447517Y-88709865D01*
X137261179Y-88840342D01*
X137100342Y-89001179D01*
X136969865Y-89187517D01*
X136947071Y-89236401D01*
X136900898Y-89288840D01*
X136833705Y-89307992D01*
X136766824Y-89287776D01*
X136722307Y-89236401D01*
X136697523Y-89183251D01*
X136566198Y-88995700D01*
X136404300Y-88833802D01*
X136347166Y-88793796D01*
X136242483Y-88720495D01*
X136198858Y-88665918D01*
X136191990Y-88643112D01*
X136175682Y-88561127D01*
X136169155Y-88528315D01*
X136121400Y-88413025D01*
X136121399Y-88413024D01*
X136121396Y-88413018D01*
X136052072Y-88309268D01*
X136052071Y-88309267D01*
X135963833Y-88221029D01*
X126462804Y-78720000D01*
X161227607Y-78720000D01*
X161246357Y-78994130D01*
X161246358Y-78994132D01*
X161302258Y-79263141D01*
X161302263Y-79263158D01*
X161394276Y-79522056D01*
X161520689Y-79766024D01*
X161520693Y-79766030D01*
X161679140Y-79990499D01*
X161679143Y-79990502D01*
X161866689Y-80191314D01*
X162079831Y-80364718D01*
X162079833Y-80364719D01*
X162079834Y-80364720D01*
X162314601Y-80507485D01*
X162519148Y-80596331D01*
X162566623Y-80616953D01*
X162831204Y-80691085D01*
X163070520Y-80723978D01*
X163103414Y-80728500D01*
X163103415Y-80728500D01*
X163378186Y-80728500D01*
X163407533Y-80724466D01*
X163650396Y-80691085D01*
X163914977Y-80616953D01*
X164167000Y-80507484D01*
X164401769Y-80364718D01*
X164614911Y-80191314D01*
X164802457Y-79990502D01*
X164960911Y-79766023D01*
X165087323Y-79522058D01*
X165179338Y-79263153D01*
X165179339Y-79263146D01*
X165179341Y-79263141D01*
X165205291Y-79138259D01*
X165235242Y-78994130D01*
X165253993Y-78720000D01*
X165235242Y-78445870D01*
X165215941Y-78352989D01*
X165179341Y-78176858D01*
X165179336Y-78176841D01*
X165087323Y-77917943D01*
X165087323Y-77917942D01*
X164960911Y-77673977D01*
X164960910Y-77673975D01*
X164960906Y-77673969D01*
X164802459Y-77449500D01*
X164783831Y-77429555D01*
X164614911Y-77248686D01*
X164401769Y-77075282D01*
X164401767Y-77075281D01*
X164401765Y-77075279D01*
X164166998Y-76932514D01*
X163914978Y-76823047D01*
X163650402Y-76748916D01*
X163650397Y-76748915D01*
X163650396Y-76748915D01*
X163514290Y-76730207D01*
X163378186Y-76711500D01*
X163378185Y-76711500D01*
X163103415Y-76711500D01*
X163103414Y-76711500D01*
X162831204Y-76748915D01*
X162831197Y-76748916D01*
X162566621Y-76823047D01*
X162314601Y-76932514D01*
X162079834Y-77075279D01*
X161866692Y-77248683D01*
X161679140Y-77449500D01*
X161520693Y-77673969D01*
X161520689Y-77673975D01*
X161394276Y-77917943D01*
X161302263Y-78176841D01*
X161302258Y-78176858D01*
X161246358Y-78445867D01*
X161246357Y-78445869D01*
X161227607Y-78720000D01*
X126462804Y-78720000D01*
X122931458Y-75188654D01*
X161232300Y-75188654D01*
X161238811Y-75249202D01*
X161238811Y-75249204D01*
X161289911Y-75386204D01*
X161377539Y-75503261D01*
X161494596Y-75590889D01*
X161631599Y-75641989D01*
X161658850Y-75644918D01*
X161692145Y-75648499D01*
X161692162Y-75648500D01*
X164789438Y-75648500D01*
X164789454Y-75648499D01*
X164816492Y-75645591D01*
X164850001Y-75641989D01*
X164987004Y-75590889D01*
X165104061Y-75503261D01*
X165191689Y-75386204D01*
X165242789Y-75249201D01*
X165246391Y-75215692D01*
X165249299Y-75188654D01*
X165249300Y-75188637D01*
X165249300Y-72091362D01*
X165249299Y-72091345D01*
X165245957Y-72060270D01*
X165242789Y-72030799D01*
X165191689Y-71893796D01*
X165104061Y-71776739D01*
X164987004Y-71689111D01*
X164850003Y-71638011D01*
X164789454Y-71631500D01*
X164789438Y-71631500D01*
X161692162Y-71631500D01*
X161692145Y-71631500D01*
X161631597Y-71638011D01*
X161631595Y-71638011D01*
X161494595Y-71689111D01*
X161377539Y-71776739D01*
X161289911Y-71893795D01*
X161238811Y-72030795D01*
X161238811Y-72030797D01*
X161232300Y-72091345D01*
X161232300Y-75188654D01*
X122931458Y-75188654D01*
X119892804Y-72150000D01*
X132330000Y-72150000D01*
X132330000Y-73422844D01*
X132336401Y-73482372D01*
X132336403Y-73482379D01*
X132386645Y-73617086D01*
X132386649Y-73617093D01*
X132472809Y-73732187D01*
X132472812Y-73732190D01*
X132587906Y-73818350D01*
X132587913Y-73818354D01*
X132722620Y-73868596D01*
X132722627Y-73868598D01*
X132782155Y-73874999D01*
X132782172Y-73875000D01*
X134830000Y-73875000D01*
X134830000Y-72150000D01*
X135330000Y-72150000D01*
X135330000Y-73875000D01*
X137377828Y-73875000D01*
X137377844Y-73874999D01*
X137437372Y-73868598D01*
X137437379Y-73868596D01*
X137572086Y-73818354D01*
X137572093Y-73818350D01*
X137687187Y-73732190D01*
X137687190Y-73732187D01*
X137773350Y-73617093D01*
X137773354Y-73617086D01*
X137823596Y-73482379D01*
X137823598Y-73482372D01*
X137829999Y-73422844D01*
X137830000Y-73422827D01*
X137830000Y-72150000D01*
X136883552Y-72150000D01*
X137145871Y-72412319D01*
X137179356Y-72473642D01*
X137174372Y-72543334D01*
X137145871Y-72587681D01*
X136548366Y-73185186D01*
X136487043Y-73218671D01*
X136417351Y-73213687D01*
X136373004Y-73185186D01*
X136330000Y-73142182D01*
X136286995Y-73185187D01*
X136225671Y-73218671D01*
X136155980Y-73213686D01*
X136111633Y-73185186D01*
X135514128Y-72587681D01*
X135482543Y-72529837D01*
X135630000Y-72529837D01*
X135652836Y-72584968D01*
X135695032Y-72627164D01*
X135750163Y-72650000D01*
X135809837Y-72650000D01*
X135864968Y-72627164D01*
X135907164Y-72584968D01*
X135930000Y-72529837D01*
X135930000Y-72499999D01*
X136133553Y-72499999D01*
X136330000Y-72696446D01*
X136496610Y-72529837D01*
X136730000Y-72529837D01*
X136752836Y-72584968D01*
X136795032Y-72627164D01*
X136850163Y-72650000D01*
X136909837Y-72650000D01*
X136964968Y-72627164D01*
X137007164Y-72584968D01*
X137030000Y-72529837D01*
X137030000Y-72470163D01*
X137007164Y-72415032D01*
X136964968Y-72372836D01*
X136909837Y-72350000D01*
X136850163Y-72350000D01*
X136795032Y-72372836D01*
X136752836Y-72415032D01*
X136730000Y-72470163D01*
X136730000Y-72529837D01*
X136496610Y-72529837D01*
X136526446Y-72500001D01*
X136526446Y-72500000D01*
X136330000Y-72303553D01*
X136133553Y-72499999D01*
X135930000Y-72499999D01*
X135930000Y-72470163D01*
X135907164Y-72415032D01*
X135864968Y-72372836D01*
X135809837Y-72350000D01*
X135750163Y-72350000D01*
X135695032Y-72372836D01*
X135652836Y-72415032D01*
X135630000Y-72470163D01*
X135630000Y-72529837D01*
X135482543Y-72529837D01*
X135480643Y-72526358D01*
X135485627Y-72456666D01*
X135514128Y-72412319D01*
X135776447Y-72150000D01*
X135330000Y-72150000D01*
X134830000Y-72150000D01*
X132330000Y-72150000D01*
X119892804Y-72150000D01*
X119392804Y-71650000D01*
X132330000Y-71650000D01*
X134830000Y-71650000D01*
X134830000Y-69925000D01*
X135330000Y-69925000D01*
X135330000Y-71650000D01*
X135776447Y-71650000D01*
X135776447Y-71649999D01*
X135514128Y-71387680D01*
X135482543Y-71329837D01*
X135630000Y-71329837D01*
X135652836Y-71384968D01*
X135695032Y-71427164D01*
X135750163Y-71450000D01*
X135809837Y-71450000D01*
X135864968Y-71427164D01*
X135907164Y-71384968D01*
X135930000Y-71329837D01*
X135930000Y-71299999D01*
X136133553Y-71299999D01*
X136330000Y-71496446D01*
X136496610Y-71329837D01*
X136730000Y-71329837D01*
X136752836Y-71384968D01*
X136795032Y-71427164D01*
X136850163Y-71450000D01*
X136909837Y-71450000D01*
X136964968Y-71427164D01*
X137007164Y-71384968D01*
X137030000Y-71329837D01*
X137030000Y-71270163D01*
X137007164Y-71215032D01*
X136964968Y-71172836D01*
X136909837Y-71150000D01*
X136850163Y-71150000D01*
X136795032Y-71172836D01*
X136752836Y-71215032D01*
X136730000Y-71270163D01*
X136730000Y-71329837D01*
X136496610Y-71329837D01*
X136526446Y-71300001D01*
X136526446Y-71300000D01*
X136330000Y-71103553D01*
X136133553Y-71299999D01*
X135930000Y-71299999D01*
X135930000Y-71270163D01*
X135907164Y-71215032D01*
X135864968Y-71172836D01*
X135809837Y-71150000D01*
X135750163Y-71150000D01*
X135695032Y-71172836D01*
X135652836Y-71215032D01*
X135630000Y-71270163D01*
X135630000Y-71329837D01*
X135482543Y-71329837D01*
X135480643Y-71326357D01*
X135485627Y-71256665D01*
X135514128Y-71212318D01*
X135780000Y-70946447D01*
X136111633Y-70614813D01*
X136172956Y-70581328D01*
X136242647Y-70586312D01*
X136286995Y-70614813D01*
X136329999Y-70657817D01*
X136373003Y-70614813D01*
X136434326Y-70581328D01*
X136504018Y-70586312D01*
X136548366Y-70614813D01*
X137145871Y-71212318D01*
X137179356Y-71273641D01*
X137174372Y-71343333D01*
X137145871Y-71387680D01*
X136883552Y-71649999D01*
X136883553Y-71650000D01*
X137830000Y-71650000D01*
X137830000Y-70377172D01*
X137829999Y-70377155D01*
X137823598Y-70317627D01*
X137823596Y-70317620D01*
X137773354Y-70182913D01*
X137773350Y-70182906D01*
X137687190Y-70067812D01*
X137687187Y-70067809D01*
X137572093Y-69981649D01*
X137572086Y-69981645D01*
X137437379Y-69931403D01*
X137437372Y-69931401D01*
X137377844Y-69925000D01*
X135330000Y-69925000D01*
X134830000Y-69925000D01*
X132782155Y-69925000D01*
X132722627Y-69931401D01*
X132722620Y-69931403D01*
X132587913Y-69981645D01*
X132587906Y-69981649D01*
X132472812Y-70067809D01*
X132472809Y-70067812D01*
X132386649Y-70182906D01*
X132386645Y-70182913D01*
X132336403Y-70317620D01*
X132336401Y-70317627D01*
X132330000Y-70377155D01*
X132330000Y-71650000D01*
X119392804Y-71650000D01*
X111378207Y-63635403D01*
X148746384Y-63635403D01*
X148766781Y-63816441D01*
X148766782Y-63816446D01*
X148807949Y-63934093D01*
X148826957Y-63988415D01*
X148923889Y-64142681D01*
X149052719Y-64271511D01*
X149206985Y-64368443D01*
X149378953Y-64428617D01*
X149378958Y-64428618D01*
X149559996Y-64449016D01*
X149560000Y-64449016D01*
X149560004Y-64449016D01*
X149741041Y-64428618D01*
X149741044Y-64428617D01*
X149741047Y-64428617D01*
X149913015Y-64368443D01*
X150067281Y-64271511D01*
X150196111Y-64142681D01*
X150293043Y-63988415D01*
X150353217Y-63816447D01*
X150364429Y-63716936D01*
X150373616Y-63635403D01*
X150373616Y-63635396D01*
X150353218Y-63454358D01*
X150353217Y-63454353D01*
X150293043Y-63282385D01*
X150212506Y-63154211D01*
X150193500Y-63088239D01*
X150193500Y-61530952D01*
X150213185Y-61463913D01*
X150229812Y-61443277D01*
X151639836Y-60033168D01*
X151810865Y-59862604D01*
X151812012Y-59861567D01*
X151859433Y-59814169D01*
X151859534Y-59814068D01*
X151864377Y-59809238D01*
X151903519Y-59770204D01*
X151903521Y-59770200D01*
X151907212Y-59766520D01*
X151908251Y-59765376D01*
X152602165Y-59071811D01*
X152602435Y-59071569D01*
X152651474Y-59022529D01*
X152651473Y-59022529D01*
X152651499Y-59022504D01*
X152694969Y-58979057D01*
X152694972Y-58979051D01*
X152694984Y-58979040D01*
X152695060Y-58978947D01*
X152695066Y-58978937D01*
X152695071Y-58978933D01*
X152729887Y-58926826D01*
X152729888Y-58926825D01*
X152729890Y-58926826D01*
X152729901Y-58926803D01*
X152764324Y-58875317D01*
X152764326Y-58875311D01*
X152764348Y-58875279D01*
X152764377Y-58875225D01*
X152764394Y-58875183D01*
X152764400Y-58875175D01*
X152788491Y-58817012D01*
X152812108Y-58760039D01*
X152812109Y-58760032D01*
X152812119Y-58760009D01*
X152812150Y-58759906D01*
X152812153Y-58759888D01*
X152812155Y-58759885D01*
X152824501Y-58697816D01*
X152836484Y-58637654D01*
X152836484Y-58637647D01*
X152836493Y-58637562D01*
X152836499Y-58637504D01*
X152836500Y-58637493D01*
X152836500Y-58573248D01*
X152836510Y-58531269D01*
X152836515Y-58512867D01*
X152836513Y-58512860D01*
X152836515Y-58507008D01*
X152836500Y-58506681D01*
X152836500Y-58306860D01*
X152855507Y-58240888D01*
X152936039Y-58112722D01*
X152936041Y-58112719D01*
X152936042Y-58112716D01*
X152936043Y-58112715D01*
X152996217Y-57940747D01*
X152996628Y-57937098D01*
X153016616Y-57759703D01*
X153016616Y-57759696D01*
X152996218Y-57578658D01*
X152996217Y-57578653D01*
X152960559Y-57476749D01*
X152936043Y-57406685D01*
X152839111Y-57252419D01*
X152710281Y-57123589D01*
X152556015Y-57026657D01*
X152501693Y-57007649D01*
X152384046Y-56966482D01*
X152384041Y-56966481D01*
X152203004Y-56946084D01*
X152202996Y-56946084D01*
X152021958Y-56966481D01*
X152021953Y-56966482D01*
X151849982Y-57026658D01*
X151695718Y-57123589D01*
X151566889Y-57252418D01*
X151469958Y-57406682D01*
X151409782Y-57578653D01*
X151409781Y-57578658D01*
X151389384Y-57759696D01*
X151389384Y-57759703D01*
X151409781Y-57940741D01*
X151409782Y-57940746D01*
X151469958Y-58112718D01*
X151532878Y-58212853D01*
X151551879Y-58280090D01*
X151531512Y-58346925D01*
X151515544Y-58366529D01*
X150964706Y-58917090D01*
X150964608Y-58917188D01*
X150793072Y-59088255D01*
X150791625Y-59089566D01*
X150749284Y-59131910D01*
X150744051Y-59137143D01*
X150700481Y-59180596D01*
X150696996Y-59184072D01*
X150695714Y-59185482D01*
X149100683Y-60780612D01*
X149067932Y-60813363D01*
X149067914Y-60813382D01*
X149020316Y-60884621D01*
X149020317Y-60884622D01*
X148998597Y-60917128D01*
X148998585Y-60917152D01*
X148974355Y-60975656D01*
X148974352Y-60975658D01*
X148974353Y-60975659D01*
X148950843Y-61032417D01*
X148941551Y-61079137D01*
X148926498Y-61154816D01*
X148926500Y-61217219D01*
X148926500Y-63088239D01*
X148907494Y-63154211D01*
X148826958Y-63282382D01*
X148766782Y-63454353D01*
X148766781Y-63454358D01*
X148746384Y-63635396D01*
X148746384Y-63635403D01*
X111378207Y-63635403D01*
X110829819Y-63087015D01*
X110796334Y-63025692D01*
X110793500Y-62999334D01*
X110793500Y-60578352D01*
X110813185Y-60511313D01*
X110846373Y-60476779D01*
X111004300Y-60366198D01*
X111166198Y-60204300D01*
X111297523Y-60016749D01*
X111394284Y-59809243D01*
X111453543Y-59588087D01*
X111473498Y-59360000D01*
X111453543Y-59131913D01*
X111394284Y-58910757D01*
X111377740Y-58875279D01*
X111350554Y-58816977D01*
X111297523Y-58703251D01*
X111166198Y-58515700D01*
X111004300Y-58353802D01*
X110816749Y-58222477D01*
X110773655Y-58202382D01*
X110721215Y-58156210D01*
X110702063Y-58089017D01*
X110722278Y-58022136D01*
X110773655Y-57977618D01*
X110783033Y-57973245D01*
X110816749Y-57957523D01*
X111004300Y-57826198D01*
X111166198Y-57664300D01*
X111297523Y-57476749D01*
X111394284Y-57269243D01*
X111453543Y-57048087D01*
X111473498Y-56820001D01*
X116466502Y-56820001D01*
X116486456Y-57048081D01*
X116486457Y-57048089D01*
X116545714Y-57269238D01*
X116545718Y-57269249D01*
X116642475Y-57476745D01*
X116642477Y-57476749D01*
X116773802Y-57664300D01*
X116935700Y-57826198D01*
X116943370Y-57831568D01*
X116986993Y-57886144D01*
X116994185Y-57955642D01*
X116962663Y-58017997D01*
X116902433Y-58053410D01*
X116885501Y-58056430D01*
X116870797Y-58058011D01*
X116870795Y-58058011D01*
X116733795Y-58109111D01*
X116616739Y-58196739D01*
X116529111Y-58313795D01*
X116478011Y-58450795D01*
X116478011Y-58450797D01*
X116471500Y-58511345D01*
X116471500Y-60208654D01*
X116478011Y-60269202D01*
X116478011Y-60269204D01*
X116514189Y-60366198D01*
X116529111Y-60406204D01*
X116616739Y-60523261D01*
X116733796Y-60610889D01*
X116870799Y-60661989D01*
X116898050Y-60664918D01*
X116931345Y-60668499D01*
X116931362Y-60668500D01*
X118628638Y-60668500D01*
X118628654Y-60668499D01*
X118655692Y-60665591D01*
X118689201Y-60661989D01*
X118826204Y-60610889D01*
X118943261Y-60523261D01*
X119030889Y-60406204D01*
X119081989Y-60269201D01*
X119085591Y-60235692D01*
X119088499Y-60208654D01*
X119088500Y-60208637D01*
X119088500Y-58511362D01*
X119088499Y-58511345D01*
X119084334Y-58472614D01*
X119081989Y-58450799D01*
X119066143Y-58408316D01*
X119059522Y-58390564D01*
X119030889Y-58313796D01*
X118943261Y-58196739D01*
X118826204Y-58109111D01*
X118815981Y-58105298D01*
X118689203Y-58058011D01*
X118674498Y-58056430D01*
X118609947Y-58029691D01*
X118570100Y-57972298D01*
X118567607Y-57902473D01*
X118603261Y-57842385D01*
X118616624Y-57831572D01*
X118624300Y-57826198D01*
X118786198Y-57664300D01*
X118917523Y-57476749D01*
X119014284Y-57269243D01*
X119073543Y-57048087D01*
X119093498Y-56820000D01*
X119073543Y-56591913D01*
X119014284Y-56370757D01*
X119008675Y-56358729D01*
X118947671Y-56227904D01*
X118917523Y-56163251D01*
X118786198Y-55975700D01*
X118624300Y-55813802D01*
X118436749Y-55682477D01*
X118393655Y-55662382D01*
X118341215Y-55616210D01*
X118322063Y-55549017D01*
X118342278Y-55482136D01*
X118393655Y-55437618D01*
X118396882Y-55436112D01*
X118436749Y-55417523D01*
X118466140Y-55396942D01*
X118532345Y-55374614D01*
X118600113Y-55391623D01*
X118624942Y-55410830D01*
X121036152Y-57821795D01*
X121069640Y-57883117D01*
X121071695Y-57895597D01*
X121076781Y-57940741D01*
X121136957Y-58112716D01*
X121205925Y-58222477D01*
X121233889Y-58266981D01*
X121362719Y-58395811D01*
X121516985Y-58492743D01*
X121688953Y-58552917D01*
X121688958Y-58552918D01*
X121869996Y-58573316D01*
X121870000Y-58573316D01*
X121870004Y-58573316D01*
X122051041Y-58552918D01*
X122051044Y-58552917D01*
X122051047Y-58552917D01*
X122223015Y-58492743D01*
X122377281Y-58395811D01*
X122506111Y-58266981D01*
X122603043Y-58112715D01*
X122663217Y-57940747D01*
X122663628Y-57937098D01*
X122683616Y-57759703D01*
X122683616Y-57759696D01*
X122663218Y-57578658D01*
X122663217Y-57578653D01*
X122627559Y-57476749D01*
X122603043Y-57406685D01*
X122506111Y-57252419D01*
X122377281Y-57123589D01*
X122223016Y-57026657D01*
X122051041Y-56966481D01*
X122005809Y-56961385D01*
X121941395Y-56934318D01*
X121932016Y-56925851D01*
X119576823Y-54570895D01*
X119543335Y-54509573D01*
X119540500Y-54483209D01*
X119540500Y-54217605D01*
X119540499Y-54217601D01*
X119530066Y-54165149D01*
X119516155Y-54095215D01*
X119468400Y-53979925D01*
X119468399Y-53979924D01*
X119468396Y-53979918D01*
X119399071Y-53876167D01*
X119399068Y-53876163D01*
X119310836Y-53787931D01*
X119310832Y-53787928D01*
X119207081Y-53718603D01*
X119207072Y-53718598D01*
X119091785Y-53670845D01*
X119091779Y-53670843D01*
X118976869Y-53647986D01*
X118914958Y-53615601D01*
X118899491Y-53597499D01*
X118786198Y-53435700D01*
X118624300Y-53273802D01*
X118436749Y-53142477D01*
X118393655Y-53122382D01*
X118341215Y-53076210D01*
X118322063Y-53009017D01*
X118342278Y-52942136D01*
X118393655Y-52897618D01*
X118396882Y-52896112D01*
X118436749Y-52877523D01*
X118624300Y-52746198D01*
X118786198Y-52584300D01*
X118917523Y-52396749D01*
X119014284Y-52189243D01*
X119073543Y-51968087D01*
X119093498Y-51740000D01*
X119073543Y-51511913D01*
X119014284Y-51290757D01*
X118917523Y-51083251D01*
X118786198Y-50895700D01*
X118624300Y-50733802D01*
X118436749Y-50602477D01*
X118436745Y-50602475D01*
X118229249Y-50505718D01*
X118229238Y-50505714D01*
X118008089Y-50446457D01*
X118008081Y-50446456D01*
X117780002Y-50426502D01*
X117779998Y-50426502D01*
X117551918Y-50446456D01*
X117551910Y-50446457D01*
X117330761Y-50505714D01*
X117330750Y-50505718D01*
X117123254Y-50602475D01*
X117123252Y-50602476D01*
X117123251Y-50602477D01*
X116935700Y-50733802D01*
X116935698Y-50733803D01*
X116935695Y-50733806D01*
X116773806Y-50895695D01*
X116642476Y-51083252D01*
X116642475Y-51083254D01*
X116545718Y-51290750D01*
X116545714Y-51290761D01*
X116486457Y-51511910D01*
X116486456Y-51511918D01*
X116466502Y-51739998D01*
X116466502Y-51740001D01*
X116486456Y-51968081D01*
X116486457Y-51968089D01*
X116545714Y-52189238D01*
X116545718Y-52189249D01*
X116627147Y-52363873D01*
X116642477Y-52396749D01*
X116773802Y-52584300D01*
X116935700Y-52746198D01*
X117112697Y-52870133D01*
X117123251Y-52877523D01*
X117166345Y-52897618D01*
X117218784Y-52943791D01*
X117237936Y-53010984D01*
X117217720Y-53077865D01*
X117166345Y-53122382D01*
X117123251Y-53142476D01*
X116998126Y-53230090D01*
X116935700Y-53273802D01*
X116935698Y-53273803D01*
X116935695Y-53273806D01*
X116773806Y-53435695D01*
X116773803Y-53435698D01*
X116773802Y-53435700D01*
X116691767Y-53552856D01*
X116642476Y-53623252D01*
X116642475Y-53623254D01*
X116545718Y-53830750D01*
X116545714Y-53830761D01*
X116486457Y-54051910D01*
X116486456Y-54051918D01*
X116466502Y-54279998D01*
X116466502Y-54280000D01*
X116486456Y-54508081D01*
X116486457Y-54508089D01*
X116545714Y-54729238D01*
X116545718Y-54729249D01*
X116563204Y-54766747D01*
X116642477Y-54936749D01*
X116773802Y-55124300D01*
X116935700Y-55286198D01*
X117123248Y-55417521D01*
X117123251Y-55417523D01*
X117166345Y-55437618D01*
X117218784Y-55483791D01*
X117237936Y-55550984D01*
X117217720Y-55617865D01*
X117166345Y-55662382D01*
X117123251Y-55682476D01*
X117014044Y-55758945D01*
X116935700Y-55813802D01*
X116935698Y-55813803D01*
X116935695Y-55813806D01*
X116773806Y-55975695D01*
X116642476Y-56163252D01*
X116642475Y-56163254D01*
X116545718Y-56370750D01*
X116545714Y-56370761D01*
X116486457Y-56591910D01*
X116486456Y-56591918D01*
X116466502Y-56819998D01*
X116466502Y-56820001D01*
X111473498Y-56820001D01*
X111473498Y-56820000D01*
X111453543Y-56591913D01*
X111394284Y-56370757D01*
X111388675Y-56358729D01*
X111327671Y-56227904D01*
X111297523Y-56163251D01*
X111166198Y-55975700D01*
X111004300Y-55813802D01*
X110816749Y-55682477D01*
X110773655Y-55662382D01*
X110721215Y-55616210D01*
X110702063Y-55549017D01*
X110722278Y-55482136D01*
X110773655Y-55437618D01*
X110776882Y-55436112D01*
X110816749Y-55417523D01*
X111004300Y-55286198D01*
X111166198Y-55124300D01*
X111297523Y-54936749D01*
X111394284Y-54729243D01*
X111453543Y-54508087D01*
X111473498Y-54280000D01*
X111471316Y-54255065D01*
X111453543Y-54051918D01*
X111453543Y-54051913D01*
X111394284Y-53830757D01*
X111297523Y-53623251D01*
X111166198Y-53435700D01*
X111004300Y-53273802D01*
X110816749Y-53142477D01*
X110763596Y-53117691D01*
X110711158Y-53071519D01*
X110692007Y-53004325D01*
X110712223Y-52937444D01*
X110763600Y-52892927D01*
X110812483Y-52870133D01*
X110998820Y-52739657D01*
X111159657Y-52578820D01*
X111290134Y-52392482D01*
X111386265Y-52186326D01*
X111386269Y-52186317D01*
X111438872Y-51990000D01*
X110475686Y-51990000D01*
X110480080Y-51985606D01*
X110532741Y-51894394D01*
X110560000Y-51792661D01*
X110560000Y-51687339D01*
X110532741Y-51585606D01*
X110480080Y-51494394D01*
X110475686Y-51490000D01*
X111438872Y-51490000D01*
X111438872Y-51489999D01*
X111386269Y-51293682D01*
X111386265Y-51293673D01*
X111290134Y-51087517D01*
X111159657Y-50901179D01*
X110998820Y-50740342D01*
X110812482Y-50609865D01*
X110606328Y-50513734D01*
X110410000Y-50461127D01*
X110410000Y-51424314D01*
X110405606Y-51419920D01*
X110314394Y-51367259D01*
X110212661Y-51340000D01*
X110107339Y-51340000D01*
X110005606Y-51367259D01*
X109914394Y-51419920D01*
X109910000Y-51424314D01*
X109910000Y-50461127D01*
X109713671Y-50513734D01*
X109507517Y-50609865D01*
X109321179Y-50740342D01*
X109160342Y-50901179D01*
X109029865Y-51087517D01*
X108933734Y-51293673D01*
X108933730Y-51293682D01*
X108881127Y-51489999D01*
X108881128Y-51490000D01*
X109844314Y-51490000D01*
X109839920Y-51494394D01*
X109787259Y-51585606D01*
X109760000Y-51687339D01*
X109760000Y-51792661D01*
X109787259Y-51894394D01*
X109839920Y-51985606D01*
X109844314Y-51990000D01*
X108881128Y-51990000D01*
X108933730Y-52186317D01*
X108933734Y-52186326D01*
X109029865Y-52392482D01*
X109160342Y-52578820D01*
X109321179Y-52739657D01*
X109507517Y-52870133D01*
X109556399Y-52892927D01*
X109608839Y-52939099D01*
X109627992Y-53006292D01*
X109607777Y-53073174D01*
X109556402Y-53117691D01*
X109503256Y-53142474D01*
X109503252Y-53142476D01*
X109432856Y-53191767D01*
X109315700Y-53273802D01*
X109315698Y-53273803D01*
X109315695Y-53273806D01*
X109153806Y-53435695D01*
X109153803Y-53435698D01*
X109153802Y-53435700D01*
X109071767Y-53552856D01*
X109022476Y-53623252D01*
X109022475Y-53623254D01*
X108925718Y-53830750D01*
X108925714Y-53830761D01*
X108866457Y-54051910D01*
X108866456Y-54051918D01*
X108846502Y-54279998D01*
X108846502Y-54280000D01*
X108866456Y-54508081D01*
X108866457Y-54508089D01*
X108925714Y-54729238D01*
X108925718Y-54729249D01*
X108943204Y-54766747D01*
X109022477Y-54936749D01*
X109153802Y-55124300D01*
X109315700Y-55286198D01*
X109503248Y-55417521D01*
X109503251Y-55417523D01*
X109546345Y-55437618D01*
X109598784Y-55483791D01*
X109617936Y-55550984D01*
X109597720Y-55617865D01*
X109546345Y-55662382D01*
X109503251Y-55682476D01*
X109394044Y-55758945D01*
X109315700Y-55813802D01*
X109315698Y-55813803D01*
X109315695Y-55813806D01*
X109153806Y-55975695D01*
X109022476Y-56163252D01*
X109022475Y-56163254D01*
X108925718Y-56370750D01*
X108925714Y-56370761D01*
X108866457Y-56591910D01*
X108866456Y-56591918D01*
X108846502Y-56819998D01*
X108846502Y-56820001D01*
X108866456Y-57048081D01*
X108866457Y-57048089D01*
X108925714Y-57269238D01*
X108925718Y-57269249D01*
X109022475Y-57476745D01*
X109022477Y-57476749D01*
X109153802Y-57664300D01*
X109315700Y-57826198D01*
X109500565Y-57955642D01*
X109503251Y-57957523D01*
X109546345Y-57977618D01*
X109598784Y-58023791D01*
X109617936Y-58090984D01*
X109597720Y-58157865D01*
X109546345Y-58202382D01*
X109503251Y-58222476D01*
X109420971Y-58280090D01*
X109315700Y-58353802D01*
X109315698Y-58353803D01*
X109315695Y-58353806D01*
X109153806Y-58515695D01*
X109153803Y-58515698D01*
X109153802Y-58515700D01*
X109113459Y-58573316D01*
X109022476Y-58703252D01*
X109022475Y-58703254D01*
X108925718Y-58910750D01*
X108925714Y-58910761D01*
X108866457Y-59131910D01*
X108866456Y-59131918D01*
X108846502Y-59359998D01*
X108846502Y-59360001D01*
X102615500Y-59360001D01*
X102615500Y-46660001D01*
X114946502Y-46660001D01*
X114966456Y-46888081D01*
X114966457Y-46888089D01*
X115025714Y-47109238D01*
X115025718Y-47109249D01*
X115097692Y-47263597D01*
X115122477Y-47316749D01*
X115253802Y-47504300D01*
X115415700Y-47666198D01*
X115603251Y-47797523D01*
X115728091Y-47855736D01*
X115810750Y-47894281D01*
X115810752Y-47894281D01*
X115810757Y-47894284D01*
X116031913Y-47953543D01*
X116194832Y-47967796D01*
X116259998Y-47973498D01*
X116260000Y-47973498D01*
X116260002Y-47973498D01*
X116317021Y-47968509D01*
X116488087Y-47953543D01*
X116709243Y-47894284D01*
X116916749Y-47797523D01*
X117104300Y-47666198D01*
X117266198Y-47504300D01*
X117397523Y-47316749D01*
X117417618Y-47273655D01*
X117463790Y-47221215D01*
X117530983Y-47202063D01*
X117597864Y-47222278D01*
X117642382Y-47273655D01*
X117662477Y-47316749D01*
X117793802Y-47504300D01*
X117955700Y-47666198D01*
X118143251Y-47797523D01*
X118268091Y-47855736D01*
X118350750Y-47894281D01*
X118350752Y-47894281D01*
X118350757Y-47894284D01*
X118571913Y-47953543D01*
X118734832Y-47967796D01*
X118799998Y-47973498D01*
X118800000Y-47973498D01*
X118800002Y-47973498D01*
X118857021Y-47968509D01*
X119028087Y-47953543D01*
X119249243Y-47894284D01*
X119456749Y-47797523D01*
X119644300Y-47666198D01*
X119806198Y-47504300D01*
X119937523Y-47316749D01*
X119957618Y-47273655D01*
X120003790Y-47221215D01*
X120070983Y-47202063D01*
X120137864Y-47222278D01*
X120182382Y-47273655D01*
X120202477Y-47316749D01*
X120333802Y-47504300D01*
X120495700Y-47666198D01*
X120683251Y-47797523D01*
X120808091Y-47855736D01*
X120890750Y-47894281D01*
X120890752Y-47894281D01*
X120890757Y-47894284D01*
X121111913Y-47953543D01*
X121274832Y-47967796D01*
X121339998Y-47973498D01*
X121340000Y-47973498D01*
X121340002Y-47973498D01*
X121397021Y-47968509D01*
X121568087Y-47953543D01*
X121789243Y-47894284D01*
X121996749Y-47797523D01*
X122184300Y-47666198D01*
X122346198Y-47504300D01*
X122477523Y-47316749D01*
X122502307Y-47263598D01*
X122548479Y-47211159D01*
X122615672Y-47192007D01*
X122682553Y-47212222D01*
X122727071Y-47263599D01*
X122749864Y-47312479D01*
X122749865Y-47312481D01*
X122880342Y-47498820D01*
X123041179Y-47659657D01*
X123227517Y-47790134D01*
X123433673Y-47886265D01*
X123433682Y-47886269D01*
X123629999Y-47938872D01*
X123630000Y-47938871D01*
X123630000Y-47093012D01*
X123687007Y-47125925D01*
X123814174Y-47160000D01*
X123945826Y-47160000D01*
X124072993Y-47125925D01*
X124130000Y-47093012D01*
X124130000Y-47938872D01*
X124326317Y-47886269D01*
X124326326Y-47886265D01*
X124532482Y-47790134D01*
X124718820Y-47659657D01*
X124879657Y-47498820D01*
X125010133Y-47312483D01*
X125032927Y-47263600D01*
X125079098Y-47211160D01*
X125146292Y-47192007D01*
X125213173Y-47212221D01*
X125257691Y-47263596D01*
X125282477Y-47316749D01*
X125413802Y-47504300D01*
X125575700Y-47666198D01*
X125763251Y-47797523D01*
X125888091Y-47855736D01*
X125970750Y-47894281D01*
X125970752Y-47894281D01*
X125970757Y-47894284D01*
X126191913Y-47953543D01*
X126354832Y-47967796D01*
X126419998Y-47973498D01*
X126420000Y-47973498D01*
X126420002Y-47973498D01*
X126477021Y-47968509D01*
X126648087Y-47953543D01*
X126869243Y-47894284D01*
X127076749Y-47797523D01*
X127264300Y-47666198D01*
X127426198Y-47504300D01*
X127557523Y-47316749D01*
X127577618Y-47273655D01*
X127623790Y-47221215D01*
X127690983Y-47202063D01*
X127757864Y-47222278D01*
X127802382Y-47273655D01*
X127822477Y-47316749D01*
X127953802Y-47504300D01*
X128115700Y-47666198D01*
X128303251Y-47797523D01*
X128428091Y-47855736D01*
X128510750Y-47894281D01*
X128510752Y-47894281D01*
X128510757Y-47894284D01*
X128731913Y-47953543D01*
X128894832Y-47967796D01*
X128959998Y-47973498D01*
X128960000Y-47973498D01*
X128960002Y-47973498D01*
X129017021Y-47968509D01*
X129188087Y-47953543D01*
X129409243Y-47894284D01*
X129616749Y-47797523D01*
X129804300Y-47666198D01*
X129966198Y-47504300D01*
X130097523Y-47316749D01*
X130117618Y-47273655D01*
X130163790Y-47221215D01*
X130230983Y-47202063D01*
X130297864Y-47222278D01*
X130342382Y-47273655D01*
X130362477Y-47316749D01*
X130493802Y-47504300D01*
X130655700Y-47666198D01*
X130843251Y-47797523D01*
X130968091Y-47855736D01*
X131050750Y-47894281D01*
X131050752Y-47894281D01*
X131050757Y-47894284D01*
X131271913Y-47953543D01*
X131434832Y-47967796D01*
X131499998Y-47973498D01*
X131500000Y-47973498D01*
X131500002Y-47973498D01*
X131557021Y-47968509D01*
X131728087Y-47953543D01*
X131949243Y-47894284D01*
X132156749Y-47797523D01*
X132344300Y-47666198D01*
X132506198Y-47504300D01*
X132637523Y-47316749D01*
X132657618Y-47273655D01*
X132703790Y-47221215D01*
X132770983Y-47202063D01*
X132837864Y-47222278D01*
X132882382Y-47273655D01*
X132902477Y-47316749D01*
X133033802Y-47504300D01*
X133195700Y-47666198D01*
X133383251Y-47797523D01*
X133508091Y-47855736D01*
X133590750Y-47894281D01*
X133590752Y-47894281D01*
X133590757Y-47894284D01*
X133811913Y-47953543D01*
X133974832Y-47967796D01*
X134039998Y-47973498D01*
X134040000Y-47973498D01*
X134040002Y-47973498D01*
X134097021Y-47968509D01*
X134268087Y-47953543D01*
X134489243Y-47894284D01*
X134696749Y-47797523D01*
X134884300Y-47666198D01*
X135046198Y-47504300D01*
X135177523Y-47316749D01*
X135197618Y-47273655D01*
X135243790Y-47221215D01*
X135310983Y-47202063D01*
X135377864Y-47222278D01*
X135422382Y-47273655D01*
X135442477Y-47316749D01*
X135573802Y-47504300D01*
X135735700Y-47666198D01*
X135923251Y-47797523D01*
X136048091Y-47855736D01*
X136130750Y-47894281D01*
X136130752Y-47894281D01*
X136130757Y-47894284D01*
X136351913Y-47953543D01*
X136514832Y-47967796D01*
X136579998Y-47973498D01*
X136580000Y-47973498D01*
X136580002Y-47973498D01*
X136637021Y-47968509D01*
X136808087Y-47953543D01*
X137029243Y-47894284D01*
X137236749Y-47797523D01*
X137424300Y-47666198D01*
X137586198Y-47504300D01*
X137717523Y-47316749D01*
X137737618Y-47273655D01*
X137783790Y-47221215D01*
X137850983Y-47202063D01*
X137917864Y-47222278D01*
X137962382Y-47273655D01*
X137982477Y-47316749D01*
X138113802Y-47504300D01*
X138275700Y-47666198D01*
X138463251Y-47797523D01*
X138588091Y-47855736D01*
X138670750Y-47894281D01*
X138670752Y-47894281D01*
X138670757Y-47894284D01*
X138891913Y-47953543D01*
X139054832Y-47967796D01*
X139119998Y-47973498D01*
X139120000Y-47973498D01*
X139120002Y-47973498D01*
X139177021Y-47968509D01*
X139348087Y-47953543D01*
X139569243Y-47894284D01*
X139776749Y-47797523D01*
X139964300Y-47666198D01*
X140126198Y-47504300D01*
X140257523Y-47316749D01*
X140354284Y-47109243D01*
X140413543Y-46888087D01*
X140433498Y-46660000D01*
X140413543Y-46431913D01*
X140354284Y-46210757D01*
X140257523Y-46003251D01*
X140126198Y-45815700D01*
X139964300Y-45653802D01*
X139776749Y-45522477D01*
X139733655Y-45502382D01*
X139681215Y-45456210D01*
X139662063Y-45389017D01*
X139682278Y-45322136D01*
X139733655Y-45277618D01*
X139747176Y-45271313D01*
X139776749Y-45257523D01*
X139964300Y-45126198D01*
X140126198Y-44964300D01*
X140257523Y-44776749D01*
X140354284Y-44569243D01*
X140413543Y-44348087D01*
X140433498Y-44120000D01*
X140413543Y-43891913D01*
X140354284Y-43670757D01*
X140257523Y-43463251D01*
X140126198Y-43275700D01*
X139964300Y-43113802D01*
X139776749Y-42982477D01*
X139776745Y-42982475D01*
X139569249Y-42885718D01*
X139569238Y-42885714D01*
X139348089Y-42826457D01*
X139348081Y-42826456D01*
X139120002Y-42806502D01*
X139119998Y-42806502D01*
X138891918Y-42826456D01*
X138891910Y-42826457D01*
X138670761Y-42885714D01*
X138670750Y-42885718D01*
X138463254Y-42982475D01*
X138463252Y-42982476D01*
X138463251Y-42982477D01*
X138275700Y-43113802D01*
X138275698Y-43113803D01*
X138275695Y-43113806D01*
X138113806Y-43275695D01*
X137982476Y-43463251D01*
X137962382Y-43506345D01*
X137916209Y-43558784D01*
X137849016Y-43577936D01*
X137782135Y-43557720D01*
X137737618Y-43506345D01*
X137717523Y-43463251D01*
X137586198Y-43275700D01*
X137424300Y-43113802D01*
X137236749Y-42982477D01*
X137236745Y-42982475D01*
X137029249Y-42885718D01*
X137029238Y-42885714D01*
X136808089Y-42826457D01*
X136808081Y-42826456D01*
X136580002Y-42806502D01*
X136579998Y-42806502D01*
X136351918Y-42826456D01*
X136351910Y-42826457D01*
X136130761Y-42885714D01*
X136130750Y-42885718D01*
X135923254Y-42982475D01*
X135923252Y-42982476D01*
X135923251Y-42982477D01*
X135735700Y-43113802D01*
X135735698Y-43113803D01*
X135735695Y-43113806D01*
X135573806Y-43275695D01*
X135442476Y-43463251D01*
X135422382Y-43506345D01*
X135376209Y-43558784D01*
X135309016Y-43577936D01*
X135242135Y-43557720D01*
X135197618Y-43506345D01*
X135177523Y-43463251D01*
X135046198Y-43275700D01*
X134884300Y-43113802D01*
X134696749Y-42982477D01*
X134696745Y-42982475D01*
X134489249Y-42885718D01*
X134489238Y-42885714D01*
X134268089Y-42826457D01*
X134268081Y-42826456D01*
X134040002Y-42806502D01*
X134039998Y-42806502D01*
X133811918Y-42826456D01*
X133811910Y-42826457D01*
X133590761Y-42885714D01*
X133590750Y-42885718D01*
X133383254Y-42982475D01*
X133383252Y-42982476D01*
X133383251Y-42982477D01*
X133195700Y-43113802D01*
X133195698Y-43113803D01*
X133195695Y-43113806D01*
X133033806Y-43275695D01*
X132902476Y-43463251D01*
X132882382Y-43506345D01*
X132836209Y-43558784D01*
X132769016Y-43577936D01*
X132702135Y-43557720D01*
X132657618Y-43506345D01*
X132637523Y-43463251D01*
X132506198Y-43275700D01*
X132344300Y-43113802D01*
X132156749Y-42982477D01*
X132156745Y-42982475D01*
X131949249Y-42885718D01*
X131949238Y-42885714D01*
X131728089Y-42826457D01*
X131728081Y-42826456D01*
X131500002Y-42806502D01*
X131499998Y-42806502D01*
X131271918Y-42826456D01*
X131271910Y-42826457D01*
X131050761Y-42885714D01*
X131050750Y-42885718D01*
X130843254Y-42982475D01*
X130843252Y-42982476D01*
X130843251Y-42982477D01*
X130655700Y-43113802D01*
X130655698Y-43113803D01*
X130655695Y-43113806D01*
X130493806Y-43275695D01*
X130362476Y-43463251D01*
X130342382Y-43506345D01*
X130296209Y-43558784D01*
X130229016Y-43577936D01*
X130162135Y-43557720D01*
X130117618Y-43506345D01*
X130097523Y-43463251D01*
X129966198Y-43275700D01*
X129804300Y-43113802D01*
X129616749Y-42982477D01*
X129616745Y-42982475D01*
X129409249Y-42885718D01*
X129409238Y-42885714D01*
X129188089Y-42826457D01*
X129188081Y-42826456D01*
X128960002Y-42806502D01*
X128959998Y-42806502D01*
X128731918Y-42826456D01*
X128731910Y-42826457D01*
X128510761Y-42885714D01*
X128510750Y-42885718D01*
X128303254Y-42982475D01*
X128303252Y-42982476D01*
X128303251Y-42982477D01*
X128115700Y-43113802D01*
X128115698Y-43113803D01*
X128115695Y-43113806D01*
X127953806Y-43275695D01*
X127822476Y-43463251D01*
X127802382Y-43506345D01*
X127756209Y-43558784D01*
X127689016Y-43577936D01*
X127622135Y-43557720D01*
X127577618Y-43506345D01*
X127557523Y-43463251D01*
X127426198Y-43275700D01*
X127264300Y-43113802D01*
X127076749Y-42982477D01*
X127076745Y-42982475D01*
X126869249Y-42885718D01*
X126869238Y-42885714D01*
X126648089Y-42826457D01*
X126648081Y-42826456D01*
X126420002Y-42806502D01*
X126419998Y-42806502D01*
X126191918Y-42826456D01*
X126191910Y-42826457D01*
X125970761Y-42885714D01*
X125970750Y-42885718D01*
X125763254Y-42982475D01*
X125763252Y-42982476D01*
X125763251Y-42982477D01*
X125575700Y-43113802D01*
X125575698Y-43113803D01*
X125575695Y-43113806D01*
X125413806Y-43275695D01*
X125413803Y-43275698D01*
X125413802Y-43275700D01*
X125331767Y-43392856D01*
X125282476Y-43463252D01*
X125282474Y-43463256D01*
X125257691Y-43516402D01*
X125211518Y-43568841D01*
X125144324Y-43587992D01*
X125077444Y-43567775D01*
X125032927Y-43516399D01*
X125010133Y-43467517D01*
X124879657Y-43281179D01*
X124718820Y-43120342D01*
X124532482Y-42989865D01*
X124326328Y-42893734D01*
X124130000Y-42841127D01*
X124130000Y-43686988D01*
X124072993Y-43654075D01*
X123945826Y-43620000D01*
X123814174Y-43620000D01*
X123687007Y-43654075D01*
X123630000Y-43686988D01*
X123630000Y-42841127D01*
X123433671Y-42893734D01*
X123227517Y-42989865D01*
X123041179Y-43120342D01*
X122880342Y-43281179D01*
X122749865Y-43467517D01*
X122727071Y-43516401D01*
X122680898Y-43568840D01*
X122613705Y-43587992D01*
X122546824Y-43567776D01*
X122502307Y-43516401D01*
X122477523Y-43463251D01*
X122346198Y-43275700D01*
X122184300Y-43113802D01*
X121996749Y-42982477D01*
X121996745Y-42982475D01*
X121789249Y-42885718D01*
X121789238Y-42885714D01*
X121568089Y-42826457D01*
X121568081Y-42826456D01*
X121340002Y-42806502D01*
X121339998Y-42806502D01*
X121111918Y-42826456D01*
X121111910Y-42826457D01*
X120890761Y-42885714D01*
X120890750Y-42885718D01*
X120683254Y-42982475D01*
X120683252Y-42982476D01*
X120683251Y-42982477D01*
X120495700Y-43113802D01*
X120495698Y-43113803D01*
X120495695Y-43113806D01*
X120333806Y-43275695D01*
X120202476Y-43463251D01*
X120182382Y-43506345D01*
X120136209Y-43558784D01*
X120069016Y-43577936D01*
X120002135Y-43557720D01*
X119957618Y-43506345D01*
X119937523Y-43463251D01*
X119806198Y-43275700D01*
X119644300Y-43113802D01*
X119456749Y-42982477D01*
X119456745Y-42982475D01*
X119249249Y-42885718D01*
X119249238Y-42885714D01*
X119028089Y-42826457D01*
X119028081Y-42826456D01*
X118800002Y-42806502D01*
X118799998Y-42806502D01*
X118571918Y-42826456D01*
X118571910Y-42826457D01*
X118350761Y-42885714D01*
X118350750Y-42885718D01*
X118143254Y-42982475D01*
X118143252Y-42982476D01*
X118143251Y-42982477D01*
X117955700Y-43113802D01*
X117955698Y-43113803D01*
X117955695Y-43113806D01*
X117793806Y-43275695D01*
X117662476Y-43463251D01*
X117642382Y-43506345D01*
X117596209Y-43558784D01*
X117529016Y-43577936D01*
X117462135Y-43557720D01*
X117417618Y-43506345D01*
X117397523Y-43463251D01*
X117266198Y-43275700D01*
X117104300Y-43113802D01*
X116916749Y-42982477D01*
X116916745Y-42982475D01*
X116709249Y-42885718D01*
X116709238Y-42885714D01*
X116488089Y-42826457D01*
X116488081Y-42826456D01*
X116260002Y-42806502D01*
X116259998Y-42806502D01*
X116031918Y-42826456D01*
X116031910Y-42826457D01*
X115810761Y-42885714D01*
X115810750Y-42885718D01*
X115603254Y-42982475D01*
X115603252Y-42982476D01*
X115603251Y-42982477D01*
X115415700Y-43113802D01*
X115415698Y-43113803D01*
X115415695Y-43113806D01*
X115253806Y-43275695D01*
X115253803Y-43275698D01*
X115253802Y-43275700D01*
X115171767Y-43392856D01*
X115122476Y-43463252D01*
X115122475Y-43463254D01*
X115025718Y-43670750D01*
X115025714Y-43670761D01*
X114966457Y-43891910D01*
X114966456Y-43891918D01*
X114946502Y-44119998D01*
X114946502Y-44120001D01*
X114966456Y-44348081D01*
X114966457Y-44348089D01*
X115025714Y-44569238D01*
X115025718Y-44569249D01*
X115097692Y-44723597D01*
X115122477Y-44776749D01*
X115253802Y-44964300D01*
X115415700Y-45126198D01*
X115592700Y-45250135D01*
X115603251Y-45257523D01*
X115646345Y-45277618D01*
X115698784Y-45323791D01*
X115717936Y-45390984D01*
X115697720Y-45457865D01*
X115646345Y-45502382D01*
X115603251Y-45522476D01*
X115540508Y-45566410D01*
X115415700Y-45653802D01*
X115415698Y-45653803D01*
X115415695Y-45653806D01*
X115253806Y-45815695D01*
X115122476Y-46003252D01*
X115122475Y-46003254D01*
X115025718Y-46210750D01*
X115025714Y-46210761D01*
X114966457Y-46431910D01*
X114966456Y-46431918D01*
X114946502Y-46659998D01*
X114946502Y-46660001D01*
X102615500Y-46660001D01*
X102615500Y-41779484D01*
X102635185Y-41712445D01*
X102687989Y-41666690D01*
X102739487Y-41655484D01*
X153126236Y-41651750D01*
X153193276Y-41671430D01*
X153239035Y-41724230D01*
X153248983Y-41793388D01*
X153219963Y-41856946D01*
X153173705Y-41890307D01*
X153132245Y-41907484D01*
X153132239Y-41907487D01*
X153076892Y-41930413D01*
X153020477Y-41968116D01*
X153020470Y-41968121D01*
X152973139Y-41999747D01*
X152926604Y-42046290D01*
X152926599Y-42046295D01*
X152881364Y-42091531D01*
X152881282Y-42091619D01*
X151839478Y-43133603D01*
X151778158Y-43167093D01*
X151708465Y-43162115D01*
X151664108Y-43133610D01*
X151644304Y-43113806D01*
X151644300Y-43113802D01*
X151456749Y-42982477D01*
X151456745Y-42982475D01*
X151249249Y-42885718D01*
X151249238Y-42885714D01*
X151028089Y-42826457D01*
X151028081Y-42826456D01*
X150800002Y-42806502D01*
X150799998Y-42806502D01*
X150571918Y-42826456D01*
X150571910Y-42826457D01*
X150350761Y-42885714D01*
X150350750Y-42885718D01*
X150143254Y-42982475D01*
X150143252Y-42982476D01*
X150143251Y-42982477D01*
X149955700Y-43113802D01*
X149955698Y-43113803D01*
X149955695Y-43113806D01*
X149793806Y-43275695D01*
X149662476Y-43463251D01*
X149642382Y-43506345D01*
X149596209Y-43558784D01*
X149529016Y-43577936D01*
X149462135Y-43557720D01*
X149417618Y-43506345D01*
X149397523Y-43463251D01*
X149266198Y-43275700D01*
X149104300Y-43113802D01*
X148916749Y-42982477D01*
X148916745Y-42982475D01*
X148709249Y-42885718D01*
X148709238Y-42885714D01*
X148488089Y-42826457D01*
X148488081Y-42826456D01*
X148260002Y-42806502D01*
X148259998Y-42806502D01*
X148031918Y-42826456D01*
X148031910Y-42826457D01*
X147810761Y-42885714D01*
X147810750Y-42885718D01*
X147603254Y-42982475D01*
X147603252Y-42982476D01*
X147603251Y-42982477D01*
X147415700Y-43113802D01*
X147415698Y-43113803D01*
X147415695Y-43113806D01*
X147253806Y-43275695D01*
X147122476Y-43463251D01*
X147102382Y-43506345D01*
X147056209Y-43558784D01*
X146989016Y-43577936D01*
X146922135Y-43557720D01*
X146877618Y-43506345D01*
X146857523Y-43463251D01*
X146726198Y-43275700D01*
X146564300Y-43113802D01*
X146376749Y-42982477D01*
X146376745Y-42982475D01*
X146169249Y-42885718D01*
X146169238Y-42885714D01*
X145948089Y-42826457D01*
X145948081Y-42826456D01*
X145720002Y-42806502D01*
X145719998Y-42806502D01*
X145491918Y-42826456D01*
X145491910Y-42826457D01*
X145270761Y-42885714D01*
X145270750Y-42885718D01*
X145063254Y-42982475D01*
X145063252Y-42982476D01*
X145063251Y-42982477D01*
X144875700Y-43113802D01*
X144875698Y-43113803D01*
X144875695Y-43113806D01*
X144713806Y-43275695D01*
X144582476Y-43463251D01*
X144562382Y-43506345D01*
X144516209Y-43558784D01*
X144449016Y-43577936D01*
X144382135Y-43557720D01*
X144337618Y-43506345D01*
X144317523Y-43463251D01*
X144186198Y-43275700D01*
X144024300Y-43113802D01*
X143836749Y-42982477D01*
X143836745Y-42982475D01*
X143629249Y-42885718D01*
X143629238Y-42885714D01*
X143408089Y-42826457D01*
X143408081Y-42826456D01*
X143180002Y-42806502D01*
X143179998Y-42806502D01*
X142951918Y-42826456D01*
X142951910Y-42826457D01*
X142730761Y-42885714D01*
X142730750Y-42885718D01*
X142523254Y-42982475D01*
X142523252Y-42982476D01*
X142523251Y-42982477D01*
X142335700Y-43113802D01*
X142335698Y-43113803D01*
X142335695Y-43113806D01*
X142173806Y-43275695D01*
X142173803Y-43275698D01*
X142173802Y-43275700D01*
X142091767Y-43392856D01*
X142042476Y-43463252D01*
X142042475Y-43463254D01*
X141945718Y-43670750D01*
X141945714Y-43670761D01*
X141886457Y-43891910D01*
X141886456Y-43891918D01*
X141866502Y-44119998D01*
X141866502Y-44120001D01*
X141886456Y-44348081D01*
X141886457Y-44348089D01*
X141945714Y-44569238D01*
X141945718Y-44569249D01*
X142017692Y-44723597D01*
X142042477Y-44776749D01*
X142173802Y-44964300D01*
X142335700Y-45126198D01*
X142512700Y-45250135D01*
X142523251Y-45257523D01*
X142566345Y-45277618D01*
X142618784Y-45323791D01*
X142637936Y-45390984D01*
X142617720Y-45457865D01*
X142566345Y-45502382D01*
X142523251Y-45522476D01*
X142460508Y-45566410D01*
X142335700Y-45653802D01*
X142335698Y-45653803D01*
X142335695Y-45653806D01*
X142173806Y-45815695D01*
X142042476Y-46003252D01*
X142042475Y-46003254D01*
X141945718Y-46210750D01*
X141945714Y-46210761D01*
X141886457Y-46431910D01*
X141886456Y-46431918D01*
X141866502Y-46659998D01*
X141866502Y-46660001D01*
X141886456Y-46888081D01*
X141886457Y-46888089D01*
X141945714Y-47109238D01*
X141945718Y-47109249D01*
X142017692Y-47263597D01*
X142042477Y-47316749D01*
X142173802Y-47504300D01*
X142335700Y-47666198D01*
X142376177Y-47694540D01*
X142419801Y-47749116D01*
X142426995Y-47818614D01*
X142395472Y-47880969D01*
X142346008Y-47913155D01*
X142261988Y-47942555D01*
X142261984Y-47942556D01*
X142107718Y-48039489D01*
X141978889Y-48168318D01*
X141881958Y-48322582D01*
X141821782Y-48494553D01*
X141821781Y-48494558D01*
X141801384Y-48675596D01*
X141801384Y-48675603D01*
X141821781Y-48856641D01*
X141821782Y-48856646D01*
X141881958Y-49028619D01*
X141881960Y-49028622D01*
X141962493Y-49156788D01*
X141981500Y-49222760D01*
X141981500Y-52363873D01*
X141981493Y-52364019D01*
X141981500Y-52432260D01*
X141981500Y-52494624D01*
X141993556Y-52555204D01*
X141993558Y-52555216D01*
X142005845Y-52616987D01*
X142005861Y-52617041D01*
X142030157Y-52675679D01*
X142030159Y-52675691D01*
X142030162Y-52675691D01*
X142053603Y-52732282D01*
X142053628Y-52732329D01*
X142090234Y-52787101D01*
X142090238Y-52787114D01*
X142090241Y-52787113D01*
X142122928Y-52836034D01*
X142122965Y-52836078D01*
X142169138Y-52882242D01*
X142169137Y-52882242D01*
X142169147Y-52882251D01*
X142215433Y-52928538D01*
X142215536Y-52928631D01*
X143552135Y-54264970D01*
X143832152Y-54544932D01*
X143865643Y-54606252D01*
X143867699Y-54618737D01*
X143872781Y-54663841D01*
X143932957Y-54835816D01*
X143997615Y-54938717D01*
X144029889Y-54990081D01*
X144158719Y-55118911D01*
X144312985Y-55215843D01*
X144484953Y-55276017D01*
X144484958Y-55276018D01*
X144665996Y-55296416D01*
X144666000Y-55296416D01*
X144666004Y-55296416D01*
X144847041Y-55276018D01*
X144847044Y-55276017D01*
X144847047Y-55276017D01*
X145019015Y-55215843D01*
X145173281Y-55118911D01*
X145302111Y-54990081D01*
X145399043Y-54835815D01*
X145459217Y-54663847D01*
X145464311Y-54618629D01*
X145491376Y-54554219D01*
X145499834Y-54544849D01*
X150824562Y-49219841D01*
X152353227Y-47691508D01*
X152414553Y-47658031D01*
X152484244Y-47663023D01*
X152512017Y-47677623D01*
X152614119Y-47749116D01*
X152653624Y-47776778D01*
X152697249Y-47831355D01*
X152706500Y-47878352D01*
X152706500Y-48226333D01*
X152686815Y-48293372D01*
X152670181Y-48314014D01*
X145285915Y-55698281D01*
X145224592Y-55731766D01*
X145198234Y-55734600D01*
X144282601Y-55734600D01*
X144160222Y-55758943D01*
X144160214Y-55758945D01*
X144044927Y-55806698D01*
X144044918Y-55806703D01*
X143941167Y-55876028D01*
X143941163Y-55876031D01*
X143852931Y-55964263D01*
X143852928Y-55964267D01*
X143783603Y-56068018D01*
X143783600Y-56068025D01*
X143751957Y-56144416D01*
X143708115Y-56198819D01*
X143672333Y-56215939D01*
X143631583Y-56227904D01*
X143631580Y-56227906D01*
X143508630Y-56306921D01*
X143412917Y-56417379D01*
X143412914Y-56417385D01*
X143352200Y-56550326D01*
X143352199Y-56550331D01*
X143331400Y-56694999D01*
X143331400Y-58195002D01*
X143336626Y-58268077D01*
X143336627Y-58268083D01*
X143377802Y-58408313D01*
X143377802Y-58408314D01*
X143456821Y-58531269D01*
X143456822Y-58531270D01*
X143456823Y-58531271D01*
X143567281Y-58626984D01*
X143633755Y-58657342D01*
X143700226Y-58687699D01*
X143700229Y-58687699D01*
X143700230Y-58687700D01*
X143844900Y-58708500D01*
X143844903Y-58708500D01*
X144994896Y-58708500D01*
X144994900Y-58708500D01*
X144994904Y-58708499D01*
X144994921Y-58708499D01*
X145076497Y-58701975D01*
X145076497Y-58701974D01*
X145076509Y-58701974D01*
X145104290Y-58693306D01*
X145158863Y-58688941D01*
X145294900Y-58708500D01*
X145294903Y-58708500D01*
X146294900Y-58708500D01*
X146367979Y-58703273D01*
X146367981Y-58703272D01*
X146367983Y-58703272D01*
X146508213Y-58662097D01*
X146508214Y-58662097D01*
X146546244Y-58637657D01*
X146631171Y-58583077D01*
X146726884Y-58472619D01*
X146787600Y-58339670D01*
X146808400Y-58195000D01*
X146808400Y-58172337D01*
X146828085Y-58105298D01*
X146880889Y-58059543D01*
X146891698Y-58055495D01*
X146893234Y-58054823D01*
X146895455Y-58053877D01*
X146954474Y-58029429D01*
X146954490Y-58029428D01*
X146954489Y-58029424D01*
X146972090Y-58022136D01*
X147009251Y-58006749D01*
X147010036Y-58006434D01*
X147010628Y-58006030D01*
X147059693Y-57973245D01*
X147113570Y-57937256D01*
X147113810Y-57937098D01*
X147113814Y-57937096D01*
X147114195Y-57936708D01*
X147154654Y-57896248D01*
X147154666Y-57896241D01*
X147154664Y-57896239D01*
X147644341Y-57406682D01*
X149631961Y-55419548D01*
X149693288Y-55386072D01*
X149705749Y-55384021D01*
X149751041Y-55378918D01*
X149751044Y-55378917D01*
X149751047Y-55378917D01*
X149923015Y-55318743D01*
X150077281Y-55221811D01*
X150206111Y-55092981D01*
X150303043Y-54938715D01*
X150363217Y-54766747D01*
X150367443Y-54729243D01*
X150383616Y-54585703D01*
X150383616Y-54585696D01*
X150363218Y-54404658D01*
X150363217Y-54404653D01*
X150341993Y-54343998D01*
X150303043Y-54232685D01*
X150206111Y-54078419D01*
X150077281Y-53949589D01*
X149960431Y-53876167D01*
X149923017Y-53852658D01*
X149923016Y-53852657D01*
X149923015Y-53852657D01*
X149860408Y-53830750D01*
X149751046Y-53792482D01*
X149751041Y-53792481D01*
X149570004Y-53772084D01*
X149569996Y-53772084D01*
X149388958Y-53792481D01*
X149388950Y-53792483D01*
X149278084Y-53831277D01*
X149208305Y-53834838D01*
X149147678Y-53800109D01*
X149115451Y-53738116D01*
X149121856Y-53668540D01*
X149149447Y-53626556D01*
X153832072Y-48943933D01*
X153901401Y-48840175D01*
X153949155Y-48724885D01*
X153958959Y-48675600D01*
X153973499Y-48602498D01*
X153973500Y-48602495D01*
X153973500Y-47878352D01*
X153993185Y-47811313D01*
X154026373Y-47776779D01*
X154184300Y-47666198D01*
X154346198Y-47504300D01*
X154477523Y-47316749D01*
X154497618Y-47273655D01*
X154543790Y-47221215D01*
X154610983Y-47202063D01*
X154677864Y-47222278D01*
X154722382Y-47273655D01*
X154742477Y-47316749D01*
X154873802Y-47504300D01*
X155035700Y-47666198D01*
X155223251Y-47797523D01*
X155348091Y-47855736D01*
X155430750Y-47894281D01*
X155430752Y-47894281D01*
X155430757Y-47894284D01*
X155651913Y-47953543D01*
X155814832Y-47967796D01*
X155879998Y-47973498D01*
X155880000Y-47973498D01*
X155880002Y-47973498D01*
X155937021Y-47968509D01*
X156108087Y-47953543D01*
X156329243Y-47894284D01*
X156536749Y-47797523D01*
X156724300Y-47666198D01*
X156886198Y-47504300D01*
X157017523Y-47316749D01*
X157037618Y-47273655D01*
X157083790Y-47221215D01*
X157150983Y-47202063D01*
X157217864Y-47222278D01*
X157262382Y-47273655D01*
X157282477Y-47316749D01*
X157413802Y-47504300D01*
X157575700Y-47666198D01*
X157763251Y-47797523D01*
X157888091Y-47855736D01*
X157970750Y-47894281D01*
X157970752Y-47894281D01*
X157970757Y-47894284D01*
X158191913Y-47953543D01*
X158354832Y-47967796D01*
X158419998Y-47973498D01*
X158420000Y-47973498D01*
X158420002Y-47973498D01*
X158477021Y-47968509D01*
X158648087Y-47953543D01*
X158869243Y-47894284D01*
X159076749Y-47797523D01*
X159264300Y-47666198D01*
X159426198Y-47504300D01*
X159557523Y-47316749D01*
X159577618Y-47273655D01*
X159623790Y-47221215D01*
X159690983Y-47202063D01*
X159757864Y-47222278D01*
X159802382Y-47273655D01*
X159822477Y-47316749D01*
X159953802Y-47504300D01*
X160115700Y-47666198D01*
X160303251Y-47797523D01*
X160428091Y-47855736D01*
X160510750Y-47894281D01*
X160510752Y-47894281D01*
X160510757Y-47894284D01*
X160731913Y-47953543D01*
X160894832Y-47967796D01*
X160959998Y-47973498D01*
X160960000Y-47973498D01*
X160960002Y-47973498D01*
X161017021Y-47968509D01*
X161188087Y-47953543D01*
X161409243Y-47894284D01*
X161616749Y-47797523D01*
X161804300Y-47666198D01*
X161966198Y-47504300D01*
X162097523Y-47316749D01*
X162194284Y-47109243D01*
X162253543Y-46888087D01*
X162273498Y-46660000D01*
X162253543Y-46431913D01*
X162194284Y-46210757D01*
X162097523Y-46003251D01*
X161966198Y-45815700D01*
X161804300Y-45653802D01*
X161616749Y-45522477D01*
X161573655Y-45502382D01*
X161521215Y-45456210D01*
X161502063Y-45389017D01*
X161522278Y-45322136D01*
X161573655Y-45277618D01*
X161587176Y-45271313D01*
X161616749Y-45257523D01*
X161804300Y-45126198D01*
X161966198Y-44964300D01*
X162097523Y-44776749D01*
X162194284Y-44569243D01*
X162253543Y-44348087D01*
X162273498Y-44120000D01*
X162253543Y-43891913D01*
X162194284Y-43670757D01*
X162097523Y-43463251D01*
X161966198Y-43275700D01*
X161804300Y-43113802D01*
X161616749Y-42982477D01*
X161616745Y-42982475D01*
X161409249Y-42885718D01*
X161409238Y-42885714D01*
X161188089Y-42826457D01*
X161188081Y-42826456D01*
X160960002Y-42806502D01*
X160959998Y-42806502D01*
X160731918Y-42826456D01*
X160731910Y-42826457D01*
X160510761Y-42885714D01*
X160510750Y-42885718D01*
X160303254Y-42982475D01*
X160303252Y-42982476D01*
X160303251Y-42982477D01*
X160115700Y-43113802D01*
X160115698Y-43113803D01*
X160115695Y-43113806D01*
X159953806Y-43275695D01*
X159822476Y-43463251D01*
X159802382Y-43506345D01*
X159756209Y-43558784D01*
X159689016Y-43577936D01*
X159622135Y-43557720D01*
X159577618Y-43506345D01*
X159557523Y-43463251D01*
X159426198Y-43275700D01*
X159264300Y-43113802D01*
X159076749Y-42982477D01*
X159076745Y-42982475D01*
X158869249Y-42885718D01*
X158869238Y-42885714D01*
X158648089Y-42826457D01*
X158648081Y-42826456D01*
X158420002Y-42806502D01*
X158419998Y-42806502D01*
X158191918Y-42826456D01*
X158191910Y-42826457D01*
X157970761Y-42885714D01*
X157970750Y-42885718D01*
X157763254Y-42982475D01*
X157763252Y-42982476D01*
X157763251Y-42982477D01*
X157575700Y-43113802D01*
X157575698Y-43113803D01*
X157575695Y-43113806D01*
X157413806Y-43275695D01*
X157282476Y-43463251D01*
X157262382Y-43506345D01*
X157216209Y-43558784D01*
X157149016Y-43577936D01*
X157082135Y-43557720D01*
X157037618Y-43506345D01*
X157017523Y-43463251D01*
X156886198Y-43275700D01*
X156724300Y-43113802D01*
X156536749Y-42982477D01*
X156536745Y-42982475D01*
X156329249Y-42885718D01*
X156329237Y-42885714D01*
X156124475Y-42830848D01*
X156064815Y-42794483D01*
X156056228Y-42783497D01*
X156054523Y-42781419D01*
X156054474Y-42781360D01*
X156054074Y-42780871D01*
X156054071Y-42780867D01*
X156054067Y-42780863D01*
X156054047Y-42780838D01*
X156054042Y-42780831D01*
X156054035Y-42780824D01*
X156054031Y-42780819D01*
X156005646Y-42732441D01*
X156005646Y-42732440D01*
X156005638Y-42732434D01*
X155961554Y-42688349D01*
X155961472Y-42688274D01*
X155314279Y-42041175D01*
X155314279Y-42041174D01*
X155314272Y-42041168D01*
X155272831Y-41999727D01*
X155272800Y-41999701D01*
X155218463Y-41963400D01*
X155218434Y-41963381D01*
X155218398Y-41963357D01*
X155169200Y-41930483D01*
X155169066Y-41930393D01*
X155169049Y-41930384D01*
X155154036Y-41924166D01*
X155112560Y-41906990D01*
X155090581Y-41897886D01*
X155071936Y-41890163D01*
X155017532Y-41846321D01*
X154995468Y-41780027D01*
X155012748Y-41712328D01*
X155063885Y-41664718D01*
X155119376Y-41651602D01*
X161879173Y-41651101D01*
X161946212Y-41670781D01*
G37*
G04 #@! TD.AperFunction*
M02*
