%TF.GenerationSoftware,KiCad,Pcbnew,8.0.0-rc2-358-gd9abaa23a4*%
%TF.CreationDate,2024-02-08T22:48:53+01:00*%
%TF.ProjectId,xDuinoRail-Backplane-Arduino,78447569-6e6f-4526-9169-6c2d4261636b,rev?*%
%TF.SameCoordinates,Original*%
%TF.FileFunction,Drillmap*%
%TF.FilePolarity,Positive*%
%FSLAX45Y45*%
G04 Gerber Fmt 4.5, Leading zero omitted, Abs format (unit mm)*
G04 Created by KiCad (PCBNEW 8.0.0-rc2-358-gd9abaa23a4) date 2024-02-08 22:48:53*
%MOMM*%
%LPD*%
G01*
G04 APERTURE LIST*
%ADD10C,0.100000*%
%ADD11C,0.200000*%
%ADD12C,0.152000*%
G04 APERTURE END LIST*
D10*
X12828625Y-6025710D02*
X22828625Y-6025710D01*
X22828625Y-11025710D01*
X12828625Y-11025710D01*
X12828625Y-6025710D01*
D11*
D10*
X14248740Y-9677220D02*
X14288740Y-9717220D01*
X14288740Y-9677220D02*
X14248740Y-9717220D01*
X14635820Y-7283340D02*
X14675820Y-7323340D01*
X14675820Y-7283340D02*
X14635820Y-7323340D01*
X14661540Y-9554290D02*
X14701540Y-9594290D01*
X14701540Y-9554290D02*
X14661540Y-9594290D01*
X15165510Y-7738070D02*
X15205510Y-7778070D01*
X15205510Y-7738070D02*
X15165510Y-7778070D01*
X15307110Y-7526530D02*
X15347110Y-7566530D01*
X15347110Y-7526530D02*
X15307110Y-7566530D01*
X15322700Y-9025170D02*
X15362700Y-9065170D01*
X15362700Y-9025170D02*
X15322700Y-9065170D01*
X16013690Y-6351060D02*
X16053690Y-6391060D01*
X16053690Y-6351060D02*
X16013690Y-6391060D01*
X16234480Y-10912350D02*
X16274480Y-10952350D01*
X16274480Y-10912350D02*
X16234480Y-10952350D01*
X16768510Y-6350970D02*
X16808510Y-6390970D01*
X16808510Y-6350970D02*
X16768510Y-6390970D01*
X17372910Y-10709760D02*
X17412910Y-10749760D01*
X17412910Y-10709760D02*
X17372910Y-10749760D01*
X18230760Y-8351700D02*
X18270760Y-8391700D01*
X18270760Y-8351700D02*
X18230760Y-8391700D01*
X18866140Y-8171500D02*
X18906140Y-8211500D01*
X18906140Y-8171500D02*
X18866140Y-8211500D01*
X18882440Y-9176620D02*
X18922440Y-9216620D01*
X18922440Y-9176620D02*
X18882440Y-9216620D01*
X18932320Y-8433740D02*
X18972320Y-8473740D01*
X18972320Y-8433740D02*
X18932320Y-8473740D01*
X19041820Y-8794680D02*
X19081820Y-8834680D01*
X19081820Y-8794680D02*
X19041820Y-8834680D01*
X19053030Y-7967100D02*
X19093030Y-8007100D01*
X19093030Y-7967100D02*
X19053030Y-8007100D01*
X19260500Y-10227580D02*
X19300500Y-10267580D01*
X19300500Y-10227580D02*
X19260500Y-10267580D01*
X20038560Y-9526570D02*
X20078560Y-9566570D01*
X20078560Y-9526570D02*
X20038560Y-9566570D01*
X20053900Y-8947900D02*
X20093900Y-8987900D01*
X20093900Y-8947900D02*
X20053900Y-8987900D01*
X20207400Y-9204710D02*
X20247400Y-9244710D01*
X20247400Y-9204710D02*
X20207400Y-9244710D01*
X20212960Y-9467170D02*
X20252960Y-9507170D01*
X20252960Y-9467170D02*
X20212960Y-9507170D01*
X20264810Y-9053310D02*
X20304810Y-9093310D01*
X20304810Y-9053310D02*
X20264810Y-9093310D01*
X20734070Y-7645460D02*
X20774070Y-7685460D01*
X20774070Y-7645460D02*
X20734070Y-7685460D01*
X20805880Y-10329290D02*
X20845880Y-10369290D01*
X20845880Y-10329290D02*
X20805880Y-10369290D01*
X20914880Y-8327290D02*
X20954880Y-8367290D01*
X20954880Y-8327290D02*
X20914880Y-8367290D01*
X21191280Y-10398820D02*
X21231280Y-10438820D01*
X21231280Y-10398820D02*
X21191280Y-10438820D01*
X22330170Y-8298780D02*
X22370170Y-8338780D01*
X22370170Y-8298780D02*
X22330170Y-8338780D01*
X13893000Y-6286500D02*
G75*
G02*
X13793000Y-6286500I-50000J0D01*
G01*
X13793000Y-6286500D02*
G75*
G02*
X13893000Y-6286500I50000J0D01*
G01*
X13893000Y-6540500D02*
G75*
G02*
X13793000Y-6540500I-50000J0D01*
G01*
X13793000Y-6540500D02*
G75*
G02*
X13893000Y-6540500I50000J0D01*
G01*
X13893000Y-6794500D02*
G75*
G02*
X13793000Y-6794500I-50000J0D01*
G01*
X13793000Y-6794500D02*
G75*
G02*
X13893000Y-6794500I50000J0D01*
G01*
X13893000Y-7048500D02*
G75*
G02*
X13793000Y-7048500I-50000J0D01*
G01*
X13793000Y-7048500D02*
G75*
G02*
X13893000Y-7048500I50000J0D01*
G01*
X13893000Y-7302500D02*
G75*
G02*
X13793000Y-7302500I-50000J0D01*
G01*
X13793000Y-7302500D02*
G75*
G02*
X13893000Y-7302500I50000J0D01*
G01*
X13893000Y-7556500D02*
G75*
G02*
X13793000Y-7556500I-50000J0D01*
G01*
X13793000Y-7556500D02*
G75*
G02*
X13893000Y-7556500I50000J0D01*
G01*
X13893000Y-7810500D02*
G75*
G02*
X13793000Y-7810500I-50000J0D01*
G01*
X13793000Y-7810500D02*
G75*
G02*
X13893000Y-7810500I50000J0D01*
G01*
X13893000Y-8064500D02*
G75*
G02*
X13793000Y-8064500I-50000J0D01*
G01*
X13793000Y-8064500D02*
G75*
G02*
X13893000Y-8064500I50000J0D01*
G01*
X13893000Y-8318500D02*
G75*
G02*
X13793000Y-8318500I-50000J0D01*
G01*
X13793000Y-8318500D02*
G75*
G02*
X13893000Y-8318500I50000J0D01*
G01*
X13893000Y-8572500D02*
G75*
G02*
X13793000Y-8572500I-50000J0D01*
G01*
X13793000Y-8572500D02*
G75*
G02*
X13893000Y-8572500I50000J0D01*
G01*
X13893000Y-8826500D02*
G75*
G02*
X13793000Y-8826500I-50000J0D01*
G01*
X13793000Y-8826500D02*
G75*
G02*
X13893000Y-8826500I50000J0D01*
G01*
X13893000Y-9080500D02*
G75*
G02*
X13793000Y-9080500I-50000J0D01*
G01*
X13793000Y-9080500D02*
G75*
G02*
X13893000Y-9080500I50000J0D01*
G01*
X13893000Y-9334500D02*
G75*
G02*
X13793000Y-9334500I-50000J0D01*
G01*
X13793000Y-9334500D02*
G75*
G02*
X13893000Y-9334500I50000J0D01*
G01*
X13893000Y-9588500D02*
G75*
G02*
X13793000Y-9588500I-50000J0D01*
G01*
X13793000Y-9588500D02*
G75*
G02*
X13893000Y-9588500I50000J0D01*
G01*
X13893000Y-9842500D02*
G75*
G02*
X13793000Y-9842500I-50000J0D01*
G01*
X13793000Y-9842500D02*
G75*
G02*
X13893000Y-9842500I50000J0D01*
G01*
X13893000Y-10096500D02*
G75*
G02*
X13793000Y-10096500I-50000J0D01*
G01*
X13793000Y-10096500D02*
G75*
G02*
X13893000Y-10096500I50000J0D01*
G01*
X13893000Y-10350500D02*
G75*
G02*
X13793000Y-10350500I-50000J0D01*
G01*
X13793000Y-10350500D02*
G75*
G02*
X13893000Y-10350500I50000J0D01*
G01*
X13893000Y-10604500D02*
G75*
G02*
X13793000Y-10604500I-50000J0D01*
G01*
X13793000Y-10604500D02*
G75*
G02*
X13893000Y-10604500I50000J0D01*
G01*
X14147000Y-6286500D02*
G75*
G02*
X14047000Y-6286500I-50000J0D01*
G01*
X14047000Y-6286500D02*
G75*
G02*
X14147000Y-6286500I50000J0D01*
G01*
X14147000Y-6540500D02*
G75*
G02*
X14047000Y-6540500I-50000J0D01*
G01*
X14047000Y-6540500D02*
G75*
G02*
X14147000Y-6540500I50000J0D01*
G01*
X14147000Y-6794500D02*
G75*
G02*
X14047000Y-6794500I-50000J0D01*
G01*
X14047000Y-6794500D02*
G75*
G02*
X14147000Y-6794500I50000J0D01*
G01*
X14147000Y-7048500D02*
G75*
G02*
X14047000Y-7048500I-50000J0D01*
G01*
X14047000Y-7048500D02*
G75*
G02*
X14147000Y-7048500I50000J0D01*
G01*
X14147000Y-7302500D02*
G75*
G02*
X14047000Y-7302500I-50000J0D01*
G01*
X14047000Y-7302500D02*
G75*
G02*
X14147000Y-7302500I50000J0D01*
G01*
X14147000Y-7556500D02*
G75*
G02*
X14047000Y-7556500I-50000J0D01*
G01*
X14047000Y-7556500D02*
G75*
G02*
X14147000Y-7556500I50000J0D01*
G01*
X14147000Y-7810500D02*
G75*
G02*
X14047000Y-7810500I-50000J0D01*
G01*
X14047000Y-7810500D02*
G75*
G02*
X14147000Y-7810500I50000J0D01*
G01*
X14147000Y-8064500D02*
G75*
G02*
X14047000Y-8064500I-50000J0D01*
G01*
X14047000Y-8064500D02*
G75*
G02*
X14147000Y-8064500I50000J0D01*
G01*
X14147000Y-8318500D02*
G75*
G02*
X14047000Y-8318500I-50000J0D01*
G01*
X14047000Y-8318500D02*
G75*
G02*
X14147000Y-8318500I50000J0D01*
G01*
X14147000Y-8572500D02*
G75*
G02*
X14047000Y-8572500I-50000J0D01*
G01*
X14047000Y-8572500D02*
G75*
G02*
X14147000Y-8572500I50000J0D01*
G01*
X14147000Y-8826500D02*
G75*
G02*
X14047000Y-8826500I-50000J0D01*
G01*
X14047000Y-8826500D02*
G75*
G02*
X14147000Y-8826500I50000J0D01*
G01*
X14147000Y-9080500D02*
G75*
G02*
X14047000Y-9080500I-50000J0D01*
G01*
X14047000Y-9080500D02*
G75*
G02*
X14147000Y-9080500I50000J0D01*
G01*
X14147000Y-9334500D02*
G75*
G02*
X14047000Y-9334500I-50000J0D01*
G01*
X14047000Y-9334500D02*
G75*
G02*
X14147000Y-9334500I50000J0D01*
G01*
X14147000Y-9588500D02*
G75*
G02*
X14047000Y-9588500I-50000J0D01*
G01*
X14047000Y-9588500D02*
G75*
G02*
X14147000Y-9588500I50000J0D01*
G01*
X14147000Y-9842500D02*
G75*
G02*
X14047000Y-9842500I-50000J0D01*
G01*
X14047000Y-9842500D02*
G75*
G02*
X14147000Y-9842500I50000J0D01*
G01*
X14147000Y-10096500D02*
G75*
G02*
X14047000Y-10096500I-50000J0D01*
G01*
X14047000Y-10096500D02*
G75*
G02*
X14147000Y-10096500I50000J0D01*
G01*
X14147000Y-10350500D02*
G75*
G02*
X14047000Y-10350500I-50000J0D01*
G01*
X14047000Y-10350500D02*
G75*
G02*
X14147000Y-10350500I50000J0D01*
G01*
X14147000Y-10604500D02*
G75*
G02*
X14047000Y-10604500I-50000J0D01*
G01*
X14047000Y-10604500D02*
G75*
G02*
X14147000Y-10604500I50000J0D01*
G01*
X14972500Y-7264000D02*
G75*
G02*
X14872500Y-7264000I-50000J0D01*
G01*
X14872500Y-7264000D02*
G75*
G02*
X14972500Y-7264000I50000J0D01*
G01*
X14972500Y-7518000D02*
G75*
G02*
X14872500Y-7518000I-50000J0D01*
G01*
X14872500Y-7518000D02*
G75*
G02*
X14972500Y-7518000I50000J0D01*
G01*
X14972500Y-7772000D02*
G75*
G02*
X14872500Y-7772000I-50000J0D01*
G01*
X14872500Y-7772000D02*
G75*
G02*
X14972500Y-7772000I50000J0D01*
G01*
X14972500Y-8026000D02*
G75*
G02*
X14872500Y-8026000I-50000J0D01*
G01*
X14872500Y-8026000D02*
G75*
G02*
X14972500Y-8026000I50000J0D01*
G01*
X14972500Y-8280000D02*
G75*
G02*
X14872500Y-8280000I-50000J0D01*
G01*
X14872500Y-8280000D02*
G75*
G02*
X14972500Y-8280000I50000J0D01*
G01*
X14972500Y-8534000D02*
G75*
G02*
X14872500Y-8534000I-50000J0D01*
G01*
X14872500Y-8534000D02*
G75*
G02*
X14972500Y-8534000I50000J0D01*
G01*
X14972500Y-8788000D02*
G75*
G02*
X14872500Y-8788000I-50000J0D01*
G01*
X14872500Y-8788000D02*
G75*
G02*
X14972500Y-8788000I50000J0D01*
G01*
X14972500Y-9042000D02*
G75*
G02*
X14872500Y-9042000I-50000J0D01*
G01*
X14872500Y-9042000D02*
G75*
G02*
X14972500Y-9042000I50000J0D01*
G01*
X14972500Y-9550000D02*
G75*
G02*
X14872500Y-9550000I-50000J0D01*
G01*
X14872500Y-9550000D02*
G75*
G02*
X14972500Y-9550000I50000J0D01*
G01*
X14972500Y-9804000D02*
G75*
G02*
X14872500Y-9804000I-50000J0D01*
G01*
X14872500Y-9804000D02*
G75*
G02*
X14972500Y-9804000I50000J0D01*
G01*
X14972500Y-10058000D02*
G75*
G02*
X14872500Y-10058000I-50000J0D01*
G01*
X14872500Y-10058000D02*
G75*
G02*
X14972500Y-10058000I50000J0D01*
G01*
X14972500Y-10312000D02*
G75*
G02*
X14872500Y-10312000I-50000J0D01*
G01*
X14872500Y-10312000D02*
G75*
G02*
X14972500Y-10312000I50000J0D01*
G01*
X14972500Y-10566000D02*
G75*
G02*
X14872500Y-10566000I-50000J0D01*
G01*
X14872500Y-10566000D02*
G75*
G02*
X14972500Y-10566000I50000J0D01*
G01*
X14972500Y-10820000D02*
G75*
G02*
X14872500Y-10820000I-50000J0D01*
G01*
X14872500Y-10820000D02*
G75*
G02*
X14972500Y-10820000I50000J0D01*
G01*
X15663330Y-6286500D02*
G75*
G02*
X15563330Y-6286500I-50000J0D01*
G01*
X15563330Y-6286500D02*
G75*
G02*
X15663330Y-6286500I50000J0D01*
G01*
X15663330Y-6540500D02*
G75*
G02*
X15563330Y-6540500I-50000J0D01*
G01*
X15563330Y-6540500D02*
G75*
G02*
X15663330Y-6540500I50000J0D01*
G01*
X15663330Y-6794500D02*
G75*
G02*
X15563330Y-6794500I-50000J0D01*
G01*
X15563330Y-6794500D02*
G75*
G02*
X15663330Y-6794500I50000J0D01*
G01*
X15663330Y-7048500D02*
G75*
G02*
X15563330Y-7048500I-50000J0D01*
G01*
X15563330Y-7048500D02*
G75*
G02*
X15663330Y-7048500I50000J0D01*
G01*
X15663330Y-7302500D02*
G75*
G02*
X15563330Y-7302500I-50000J0D01*
G01*
X15563330Y-7302500D02*
G75*
G02*
X15663330Y-7302500I50000J0D01*
G01*
X15663330Y-7556500D02*
G75*
G02*
X15563330Y-7556500I-50000J0D01*
G01*
X15563330Y-7556500D02*
G75*
G02*
X15663330Y-7556500I50000J0D01*
G01*
X15663330Y-7810500D02*
G75*
G02*
X15563330Y-7810500I-50000J0D01*
G01*
X15563330Y-7810500D02*
G75*
G02*
X15663330Y-7810500I50000J0D01*
G01*
X15663330Y-8064500D02*
G75*
G02*
X15563330Y-8064500I-50000J0D01*
G01*
X15563330Y-8064500D02*
G75*
G02*
X15663330Y-8064500I50000J0D01*
G01*
X15663330Y-8318500D02*
G75*
G02*
X15563330Y-8318500I-50000J0D01*
G01*
X15563330Y-8318500D02*
G75*
G02*
X15663330Y-8318500I50000J0D01*
G01*
X15663330Y-8572500D02*
G75*
G02*
X15563330Y-8572500I-50000J0D01*
G01*
X15563330Y-8572500D02*
G75*
G02*
X15663330Y-8572500I50000J0D01*
G01*
X15663330Y-8826500D02*
G75*
G02*
X15563330Y-8826500I-50000J0D01*
G01*
X15563330Y-8826500D02*
G75*
G02*
X15663330Y-8826500I50000J0D01*
G01*
X15663330Y-9080500D02*
G75*
G02*
X15563330Y-9080500I-50000J0D01*
G01*
X15563330Y-9080500D02*
G75*
G02*
X15663330Y-9080500I50000J0D01*
G01*
X15663330Y-9334500D02*
G75*
G02*
X15563330Y-9334500I-50000J0D01*
G01*
X15563330Y-9334500D02*
G75*
G02*
X15663330Y-9334500I50000J0D01*
G01*
X15663330Y-9588500D02*
G75*
G02*
X15563330Y-9588500I-50000J0D01*
G01*
X15563330Y-9588500D02*
G75*
G02*
X15663330Y-9588500I50000J0D01*
G01*
X15663330Y-9842500D02*
G75*
G02*
X15563330Y-9842500I-50000J0D01*
G01*
X15563330Y-9842500D02*
G75*
G02*
X15663330Y-9842500I50000J0D01*
G01*
X15663330Y-10096500D02*
G75*
G02*
X15563330Y-10096500I-50000J0D01*
G01*
X15563330Y-10096500D02*
G75*
G02*
X15663330Y-10096500I50000J0D01*
G01*
X15663330Y-10350500D02*
G75*
G02*
X15563330Y-10350500I-50000J0D01*
G01*
X15563330Y-10350500D02*
G75*
G02*
X15663330Y-10350500I50000J0D01*
G01*
X15663330Y-10604500D02*
G75*
G02*
X15563330Y-10604500I-50000J0D01*
G01*
X15563330Y-10604500D02*
G75*
G02*
X15663330Y-10604500I50000J0D01*
G01*
X15917330Y-6286500D02*
G75*
G02*
X15817330Y-6286500I-50000J0D01*
G01*
X15817330Y-6286500D02*
G75*
G02*
X15917330Y-6286500I50000J0D01*
G01*
X15917330Y-6540500D02*
G75*
G02*
X15817330Y-6540500I-50000J0D01*
G01*
X15817330Y-6540500D02*
G75*
G02*
X15917330Y-6540500I50000J0D01*
G01*
X15917330Y-6794500D02*
G75*
G02*
X15817330Y-6794500I-50000J0D01*
G01*
X15817330Y-6794500D02*
G75*
G02*
X15917330Y-6794500I50000J0D01*
G01*
X15917330Y-7048500D02*
G75*
G02*
X15817330Y-7048500I-50000J0D01*
G01*
X15817330Y-7048500D02*
G75*
G02*
X15917330Y-7048500I50000J0D01*
G01*
X15917330Y-7302500D02*
G75*
G02*
X15817330Y-7302500I-50000J0D01*
G01*
X15817330Y-7302500D02*
G75*
G02*
X15917330Y-7302500I50000J0D01*
G01*
X15917330Y-7556500D02*
G75*
G02*
X15817330Y-7556500I-50000J0D01*
G01*
X15817330Y-7556500D02*
G75*
G02*
X15917330Y-7556500I50000J0D01*
G01*
X15917330Y-7810500D02*
G75*
G02*
X15817330Y-7810500I-50000J0D01*
G01*
X15817330Y-7810500D02*
G75*
G02*
X15917330Y-7810500I50000J0D01*
G01*
X15917330Y-8064500D02*
G75*
G02*
X15817330Y-8064500I-50000J0D01*
G01*
X15817330Y-8064500D02*
G75*
G02*
X15917330Y-8064500I50000J0D01*
G01*
X15917330Y-8318500D02*
G75*
G02*
X15817330Y-8318500I-50000J0D01*
G01*
X15817330Y-8318500D02*
G75*
G02*
X15917330Y-8318500I50000J0D01*
G01*
X15917330Y-8572500D02*
G75*
G02*
X15817330Y-8572500I-50000J0D01*
G01*
X15817330Y-8572500D02*
G75*
G02*
X15917330Y-8572500I50000J0D01*
G01*
X15917330Y-8826500D02*
G75*
G02*
X15817330Y-8826500I-50000J0D01*
G01*
X15817330Y-8826500D02*
G75*
G02*
X15917330Y-8826500I50000J0D01*
G01*
X15917330Y-9080500D02*
G75*
G02*
X15817330Y-9080500I-50000J0D01*
G01*
X15817330Y-9080500D02*
G75*
G02*
X15917330Y-9080500I50000J0D01*
G01*
X15917330Y-9334500D02*
G75*
G02*
X15817330Y-9334500I-50000J0D01*
G01*
X15817330Y-9334500D02*
G75*
G02*
X15917330Y-9334500I50000J0D01*
G01*
X15917330Y-9588500D02*
G75*
G02*
X15817330Y-9588500I-50000J0D01*
G01*
X15817330Y-9588500D02*
G75*
G02*
X15917330Y-9588500I50000J0D01*
G01*
X15917330Y-9842500D02*
G75*
G02*
X15817330Y-9842500I-50000J0D01*
G01*
X15817330Y-9842500D02*
G75*
G02*
X15917330Y-9842500I50000J0D01*
G01*
X15917330Y-10096500D02*
G75*
G02*
X15817330Y-10096500I-50000J0D01*
G01*
X15817330Y-10096500D02*
G75*
G02*
X15917330Y-10096500I50000J0D01*
G01*
X15917330Y-10350500D02*
G75*
G02*
X15817330Y-10350500I-50000J0D01*
G01*
X15817330Y-10350500D02*
G75*
G02*
X15917330Y-10350500I50000J0D01*
G01*
X15917330Y-10604500D02*
G75*
G02*
X15817330Y-10604500I-50000J0D01*
G01*
X15817330Y-10604500D02*
G75*
G02*
X15917330Y-10604500I50000J0D01*
G01*
X16378330Y-6286500D02*
G75*
G02*
X16278330Y-6286500I-50000J0D01*
G01*
X16278330Y-6286500D02*
G75*
G02*
X16378330Y-6286500I50000J0D01*
G01*
X16378330Y-6540500D02*
G75*
G02*
X16278330Y-6540500I-50000J0D01*
G01*
X16278330Y-6540500D02*
G75*
G02*
X16378330Y-6540500I50000J0D01*
G01*
X16378330Y-6794500D02*
G75*
G02*
X16278330Y-6794500I-50000J0D01*
G01*
X16278330Y-6794500D02*
G75*
G02*
X16378330Y-6794500I50000J0D01*
G01*
X16378330Y-7048500D02*
G75*
G02*
X16278330Y-7048500I-50000J0D01*
G01*
X16278330Y-7048500D02*
G75*
G02*
X16378330Y-7048500I50000J0D01*
G01*
X16378330Y-7302500D02*
G75*
G02*
X16278330Y-7302500I-50000J0D01*
G01*
X16278330Y-7302500D02*
G75*
G02*
X16378330Y-7302500I50000J0D01*
G01*
X16378330Y-7556500D02*
G75*
G02*
X16278330Y-7556500I-50000J0D01*
G01*
X16278330Y-7556500D02*
G75*
G02*
X16378330Y-7556500I50000J0D01*
G01*
X16378330Y-7810500D02*
G75*
G02*
X16278330Y-7810500I-50000J0D01*
G01*
X16278330Y-7810500D02*
G75*
G02*
X16378330Y-7810500I50000J0D01*
G01*
X16378330Y-8064500D02*
G75*
G02*
X16278330Y-8064500I-50000J0D01*
G01*
X16278330Y-8064500D02*
G75*
G02*
X16378330Y-8064500I50000J0D01*
G01*
X16378330Y-8318500D02*
G75*
G02*
X16278330Y-8318500I-50000J0D01*
G01*
X16278330Y-8318500D02*
G75*
G02*
X16378330Y-8318500I50000J0D01*
G01*
X16378330Y-8572500D02*
G75*
G02*
X16278330Y-8572500I-50000J0D01*
G01*
X16278330Y-8572500D02*
G75*
G02*
X16378330Y-8572500I50000J0D01*
G01*
X16378330Y-8826500D02*
G75*
G02*
X16278330Y-8826500I-50000J0D01*
G01*
X16278330Y-8826500D02*
G75*
G02*
X16378330Y-8826500I50000J0D01*
G01*
X16378330Y-9080500D02*
G75*
G02*
X16278330Y-9080500I-50000J0D01*
G01*
X16278330Y-9080500D02*
G75*
G02*
X16378330Y-9080500I50000J0D01*
G01*
X16378330Y-9334500D02*
G75*
G02*
X16278330Y-9334500I-50000J0D01*
G01*
X16278330Y-9334500D02*
G75*
G02*
X16378330Y-9334500I50000J0D01*
G01*
X16378330Y-9588500D02*
G75*
G02*
X16278330Y-9588500I-50000J0D01*
G01*
X16278330Y-9588500D02*
G75*
G02*
X16378330Y-9588500I50000J0D01*
G01*
X16378330Y-9842500D02*
G75*
G02*
X16278330Y-9842500I-50000J0D01*
G01*
X16278330Y-9842500D02*
G75*
G02*
X16378330Y-9842500I50000J0D01*
G01*
X16378330Y-10096500D02*
G75*
G02*
X16278330Y-10096500I-50000J0D01*
G01*
X16278330Y-10096500D02*
G75*
G02*
X16378330Y-10096500I50000J0D01*
G01*
X16378330Y-10350500D02*
G75*
G02*
X16278330Y-10350500I-50000J0D01*
G01*
X16278330Y-10350500D02*
G75*
G02*
X16378330Y-10350500I50000J0D01*
G01*
X16378330Y-10604500D02*
G75*
G02*
X16278330Y-10604500I-50000J0D01*
G01*
X16278330Y-10604500D02*
G75*
G02*
X16378330Y-10604500I50000J0D01*
G01*
X16632330Y-6286500D02*
G75*
G02*
X16532330Y-6286500I-50000J0D01*
G01*
X16532330Y-6286500D02*
G75*
G02*
X16632330Y-6286500I50000J0D01*
G01*
X16632330Y-6540500D02*
G75*
G02*
X16532330Y-6540500I-50000J0D01*
G01*
X16532330Y-6540500D02*
G75*
G02*
X16632330Y-6540500I50000J0D01*
G01*
X16632330Y-6794500D02*
G75*
G02*
X16532330Y-6794500I-50000J0D01*
G01*
X16532330Y-6794500D02*
G75*
G02*
X16632330Y-6794500I50000J0D01*
G01*
X16632330Y-7048500D02*
G75*
G02*
X16532330Y-7048500I-50000J0D01*
G01*
X16532330Y-7048500D02*
G75*
G02*
X16632330Y-7048500I50000J0D01*
G01*
X16632330Y-7302500D02*
G75*
G02*
X16532330Y-7302500I-50000J0D01*
G01*
X16532330Y-7302500D02*
G75*
G02*
X16632330Y-7302500I50000J0D01*
G01*
X16632330Y-7556500D02*
G75*
G02*
X16532330Y-7556500I-50000J0D01*
G01*
X16532330Y-7556500D02*
G75*
G02*
X16632330Y-7556500I50000J0D01*
G01*
X16632330Y-7810500D02*
G75*
G02*
X16532330Y-7810500I-50000J0D01*
G01*
X16532330Y-7810500D02*
G75*
G02*
X16632330Y-7810500I50000J0D01*
G01*
X16632330Y-8064500D02*
G75*
G02*
X16532330Y-8064500I-50000J0D01*
G01*
X16532330Y-8064500D02*
G75*
G02*
X16632330Y-8064500I50000J0D01*
G01*
X16632330Y-8318500D02*
G75*
G02*
X16532330Y-8318500I-50000J0D01*
G01*
X16532330Y-8318500D02*
G75*
G02*
X16632330Y-8318500I50000J0D01*
G01*
X16632330Y-8572500D02*
G75*
G02*
X16532330Y-8572500I-50000J0D01*
G01*
X16532330Y-8572500D02*
G75*
G02*
X16632330Y-8572500I50000J0D01*
G01*
X16632330Y-8826500D02*
G75*
G02*
X16532330Y-8826500I-50000J0D01*
G01*
X16532330Y-8826500D02*
G75*
G02*
X16632330Y-8826500I50000J0D01*
G01*
X16632330Y-9080500D02*
G75*
G02*
X16532330Y-9080500I-50000J0D01*
G01*
X16532330Y-9080500D02*
G75*
G02*
X16632330Y-9080500I50000J0D01*
G01*
X16632330Y-9334500D02*
G75*
G02*
X16532330Y-9334500I-50000J0D01*
G01*
X16532330Y-9334500D02*
G75*
G02*
X16632330Y-9334500I50000J0D01*
G01*
X16632330Y-9588500D02*
G75*
G02*
X16532330Y-9588500I-50000J0D01*
G01*
X16532330Y-9588500D02*
G75*
G02*
X16632330Y-9588500I50000J0D01*
G01*
X16632330Y-9842500D02*
G75*
G02*
X16532330Y-9842500I-50000J0D01*
G01*
X16532330Y-9842500D02*
G75*
G02*
X16632330Y-9842500I50000J0D01*
G01*
X16632330Y-10096500D02*
G75*
G02*
X16532330Y-10096500I-50000J0D01*
G01*
X16532330Y-10096500D02*
G75*
G02*
X16632330Y-10096500I50000J0D01*
G01*
X16632330Y-10350500D02*
G75*
G02*
X16532330Y-10350500I-50000J0D01*
G01*
X16532330Y-10350500D02*
G75*
G02*
X16632330Y-10350500I50000J0D01*
G01*
X16632330Y-10604500D02*
G75*
G02*
X16532330Y-10604500I-50000J0D01*
G01*
X16532330Y-10604500D02*
G75*
G02*
X16632330Y-10604500I50000J0D01*
G01*
X17093330Y-6286500D02*
G75*
G02*
X16993330Y-6286500I-50000J0D01*
G01*
X16993330Y-6286500D02*
G75*
G02*
X17093330Y-6286500I50000J0D01*
G01*
X17093330Y-6540500D02*
G75*
G02*
X16993330Y-6540500I-50000J0D01*
G01*
X16993330Y-6540500D02*
G75*
G02*
X17093330Y-6540500I50000J0D01*
G01*
X17093330Y-6794500D02*
G75*
G02*
X16993330Y-6794500I-50000J0D01*
G01*
X16993330Y-6794500D02*
G75*
G02*
X17093330Y-6794500I50000J0D01*
G01*
X17093330Y-7048500D02*
G75*
G02*
X16993330Y-7048500I-50000J0D01*
G01*
X16993330Y-7048500D02*
G75*
G02*
X17093330Y-7048500I50000J0D01*
G01*
X17093330Y-7302500D02*
G75*
G02*
X16993330Y-7302500I-50000J0D01*
G01*
X16993330Y-7302500D02*
G75*
G02*
X17093330Y-7302500I50000J0D01*
G01*
X17093330Y-7556500D02*
G75*
G02*
X16993330Y-7556500I-50000J0D01*
G01*
X16993330Y-7556500D02*
G75*
G02*
X17093330Y-7556500I50000J0D01*
G01*
X17093330Y-7810500D02*
G75*
G02*
X16993330Y-7810500I-50000J0D01*
G01*
X16993330Y-7810500D02*
G75*
G02*
X17093330Y-7810500I50000J0D01*
G01*
X17093330Y-8064500D02*
G75*
G02*
X16993330Y-8064500I-50000J0D01*
G01*
X16993330Y-8064500D02*
G75*
G02*
X17093330Y-8064500I50000J0D01*
G01*
X17093330Y-8318500D02*
G75*
G02*
X16993330Y-8318500I-50000J0D01*
G01*
X16993330Y-8318500D02*
G75*
G02*
X17093330Y-8318500I50000J0D01*
G01*
X17093330Y-8572500D02*
G75*
G02*
X16993330Y-8572500I-50000J0D01*
G01*
X16993330Y-8572500D02*
G75*
G02*
X17093330Y-8572500I50000J0D01*
G01*
X17093330Y-8826500D02*
G75*
G02*
X16993330Y-8826500I-50000J0D01*
G01*
X16993330Y-8826500D02*
G75*
G02*
X17093330Y-8826500I50000J0D01*
G01*
X17093330Y-9080500D02*
G75*
G02*
X16993330Y-9080500I-50000J0D01*
G01*
X16993330Y-9080500D02*
G75*
G02*
X17093330Y-9080500I50000J0D01*
G01*
X17093330Y-9334500D02*
G75*
G02*
X16993330Y-9334500I-50000J0D01*
G01*
X16993330Y-9334500D02*
G75*
G02*
X17093330Y-9334500I50000J0D01*
G01*
X17093330Y-9588500D02*
G75*
G02*
X16993330Y-9588500I-50000J0D01*
G01*
X16993330Y-9588500D02*
G75*
G02*
X17093330Y-9588500I50000J0D01*
G01*
X17093330Y-9842500D02*
G75*
G02*
X16993330Y-9842500I-50000J0D01*
G01*
X16993330Y-9842500D02*
G75*
G02*
X17093330Y-9842500I50000J0D01*
G01*
X17093330Y-10096500D02*
G75*
G02*
X16993330Y-10096500I-50000J0D01*
G01*
X16993330Y-10096500D02*
G75*
G02*
X17093330Y-10096500I50000J0D01*
G01*
X17093330Y-10350500D02*
G75*
G02*
X16993330Y-10350500I-50000J0D01*
G01*
X16993330Y-10350500D02*
G75*
G02*
X17093330Y-10350500I50000J0D01*
G01*
X17093330Y-10604500D02*
G75*
G02*
X16993330Y-10604500I-50000J0D01*
G01*
X16993330Y-10604500D02*
G75*
G02*
X17093330Y-10604500I50000J0D01*
G01*
X17347330Y-6286500D02*
G75*
G02*
X17247330Y-6286500I-50000J0D01*
G01*
X17247330Y-6286500D02*
G75*
G02*
X17347330Y-6286500I50000J0D01*
G01*
X17347330Y-6540500D02*
G75*
G02*
X17247330Y-6540500I-50000J0D01*
G01*
X17247330Y-6540500D02*
G75*
G02*
X17347330Y-6540500I50000J0D01*
G01*
X17347330Y-6794500D02*
G75*
G02*
X17247330Y-6794500I-50000J0D01*
G01*
X17247330Y-6794500D02*
G75*
G02*
X17347330Y-6794500I50000J0D01*
G01*
X17347330Y-7048500D02*
G75*
G02*
X17247330Y-7048500I-50000J0D01*
G01*
X17247330Y-7048500D02*
G75*
G02*
X17347330Y-7048500I50000J0D01*
G01*
X17347330Y-7302500D02*
G75*
G02*
X17247330Y-7302500I-50000J0D01*
G01*
X17247330Y-7302500D02*
G75*
G02*
X17347330Y-7302500I50000J0D01*
G01*
X17347330Y-7556500D02*
G75*
G02*
X17247330Y-7556500I-50000J0D01*
G01*
X17247330Y-7556500D02*
G75*
G02*
X17347330Y-7556500I50000J0D01*
G01*
X17347330Y-7810500D02*
G75*
G02*
X17247330Y-7810500I-50000J0D01*
G01*
X17247330Y-7810500D02*
G75*
G02*
X17347330Y-7810500I50000J0D01*
G01*
X17347330Y-8064500D02*
G75*
G02*
X17247330Y-8064500I-50000J0D01*
G01*
X17247330Y-8064500D02*
G75*
G02*
X17347330Y-8064500I50000J0D01*
G01*
X17347330Y-8318500D02*
G75*
G02*
X17247330Y-8318500I-50000J0D01*
G01*
X17247330Y-8318500D02*
G75*
G02*
X17347330Y-8318500I50000J0D01*
G01*
X17347330Y-8572500D02*
G75*
G02*
X17247330Y-8572500I-50000J0D01*
G01*
X17247330Y-8572500D02*
G75*
G02*
X17347330Y-8572500I50000J0D01*
G01*
X17347330Y-8826500D02*
G75*
G02*
X17247330Y-8826500I-50000J0D01*
G01*
X17247330Y-8826500D02*
G75*
G02*
X17347330Y-8826500I50000J0D01*
G01*
X17347330Y-9080500D02*
G75*
G02*
X17247330Y-9080500I-50000J0D01*
G01*
X17247330Y-9080500D02*
G75*
G02*
X17347330Y-9080500I50000J0D01*
G01*
X17347330Y-9334500D02*
G75*
G02*
X17247330Y-9334500I-50000J0D01*
G01*
X17247330Y-9334500D02*
G75*
G02*
X17347330Y-9334500I50000J0D01*
G01*
X17347330Y-9588500D02*
G75*
G02*
X17247330Y-9588500I-50000J0D01*
G01*
X17247330Y-9588500D02*
G75*
G02*
X17347330Y-9588500I50000J0D01*
G01*
X17347330Y-9842500D02*
G75*
G02*
X17247330Y-9842500I-50000J0D01*
G01*
X17247330Y-9842500D02*
G75*
G02*
X17347330Y-9842500I50000J0D01*
G01*
X17347330Y-10096500D02*
G75*
G02*
X17247330Y-10096500I-50000J0D01*
G01*
X17247330Y-10096500D02*
G75*
G02*
X17347330Y-10096500I50000J0D01*
G01*
X17347330Y-10350500D02*
G75*
G02*
X17247330Y-10350500I-50000J0D01*
G01*
X17247330Y-10350500D02*
G75*
G02*
X17347330Y-10350500I50000J0D01*
G01*
X17347330Y-10604500D02*
G75*
G02*
X17247330Y-10604500I-50000J0D01*
G01*
X17247330Y-10604500D02*
G75*
G02*
X17347330Y-10604500I50000J0D01*
G01*
X17808330Y-6286500D02*
G75*
G02*
X17708330Y-6286500I-50000J0D01*
G01*
X17708330Y-6286500D02*
G75*
G02*
X17808330Y-6286500I50000J0D01*
G01*
X17808330Y-6540500D02*
G75*
G02*
X17708330Y-6540500I-50000J0D01*
G01*
X17708330Y-6540500D02*
G75*
G02*
X17808330Y-6540500I50000J0D01*
G01*
X17808330Y-6794500D02*
G75*
G02*
X17708330Y-6794500I-50000J0D01*
G01*
X17708330Y-6794500D02*
G75*
G02*
X17808330Y-6794500I50000J0D01*
G01*
X17808330Y-7048500D02*
G75*
G02*
X17708330Y-7048500I-50000J0D01*
G01*
X17708330Y-7048500D02*
G75*
G02*
X17808330Y-7048500I50000J0D01*
G01*
X17808330Y-7302500D02*
G75*
G02*
X17708330Y-7302500I-50000J0D01*
G01*
X17708330Y-7302500D02*
G75*
G02*
X17808330Y-7302500I50000J0D01*
G01*
X17808330Y-7556500D02*
G75*
G02*
X17708330Y-7556500I-50000J0D01*
G01*
X17708330Y-7556500D02*
G75*
G02*
X17808330Y-7556500I50000J0D01*
G01*
X17808330Y-7810500D02*
G75*
G02*
X17708330Y-7810500I-50000J0D01*
G01*
X17708330Y-7810500D02*
G75*
G02*
X17808330Y-7810500I50000J0D01*
G01*
X17808330Y-8064500D02*
G75*
G02*
X17708330Y-8064500I-50000J0D01*
G01*
X17708330Y-8064500D02*
G75*
G02*
X17808330Y-8064500I50000J0D01*
G01*
X17808330Y-8318500D02*
G75*
G02*
X17708330Y-8318500I-50000J0D01*
G01*
X17708330Y-8318500D02*
G75*
G02*
X17808330Y-8318500I50000J0D01*
G01*
X17808330Y-8572500D02*
G75*
G02*
X17708330Y-8572500I-50000J0D01*
G01*
X17708330Y-8572500D02*
G75*
G02*
X17808330Y-8572500I50000J0D01*
G01*
X17808330Y-8826500D02*
G75*
G02*
X17708330Y-8826500I-50000J0D01*
G01*
X17708330Y-8826500D02*
G75*
G02*
X17808330Y-8826500I50000J0D01*
G01*
X17808330Y-9080500D02*
G75*
G02*
X17708330Y-9080500I-50000J0D01*
G01*
X17708330Y-9080500D02*
G75*
G02*
X17808330Y-9080500I50000J0D01*
G01*
X17808330Y-9334500D02*
G75*
G02*
X17708330Y-9334500I-50000J0D01*
G01*
X17708330Y-9334500D02*
G75*
G02*
X17808330Y-9334500I50000J0D01*
G01*
X17808330Y-9588500D02*
G75*
G02*
X17708330Y-9588500I-50000J0D01*
G01*
X17708330Y-9588500D02*
G75*
G02*
X17808330Y-9588500I50000J0D01*
G01*
X17808330Y-9842500D02*
G75*
G02*
X17708330Y-9842500I-50000J0D01*
G01*
X17708330Y-9842500D02*
G75*
G02*
X17808330Y-9842500I50000J0D01*
G01*
X17808330Y-10096500D02*
G75*
G02*
X17708330Y-10096500I-50000J0D01*
G01*
X17708330Y-10096500D02*
G75*
G02*
X17808330Y-10096500I50000J0D01*
G01*
X17808330Y-10350500D02*
G75*
G02*
X17708330Y-10350500I-50000J0D01*
G01*
X17708330Y-10350500D02*
G75*
G02*
X17808330Y-10350500I50000J0D01*
G01*
X17808330Y-10604500D02*
G75*
G02*
X17708330Y-10604500I-50000J0D01*
G01*
X17708330Y-10604500D02*
G75*
G02*
X17808330Y-10604500I50000J0D01*
G01*
X18062330Y-6286500D02*
G75*
G02*
X17962330Y-6286500I-50000J0D01*
G01*
X17962330Y-6286500D02*
G75*
G02*
X18062330Y-6286500I50000J0D01*
G01*
X18062330Y-6540500D02*
G75*
G02*
X17962330Y-6540500I-50000J0D01*
G01*
X17962330Y-6540500D02*
G75*
G02*
X18062330Y-6540500I50000J0D01*
G01*
X18062330Y-6794500D02*
G75*
G02*
X17962330Y-6794500I-50000J0D01*
G01*
X17962330Y-6794500D02*
G75*
G02*
X18062330Y-6794500I50000J0D01*
G01*
X18062330Y-7048500D02*
G75*
G02*
X17962330Y-7048500I-50000J0D01*
G01*
X17962330Y-7048500D02*
G75*
G02*
X18062330Y-7048500I50000J0D01*
G01*
X18062330Y-7302500D02*
G75*
G02*
X17962330Y-7302500I-50000J0D01*
G01*
X17962330Y-7302500D02*
G75*
G02*
X18062330Y-7302500I50000J0D01*
G01*
X18062330Y-7556500D02*
G75*
G02*
X17962330Y-7556500I-50000J0D01*
G01*
X17962330Y-7556500D02*
G75*
G02*
X18062330Y-7556500I50000J0D01*
G01*
X18062330Y-7810500D02*
G75*
G02*
X17962330Y-7810500I-50000J0D01*
G01*
X17962330Y-7810500D02*
G75*
G02*
X18062330Y-7810500I50000J0D01*
G01*
X18062330Y-8064500D02*
G75*
G02*
X17962330Y-8064500I-50000J0D01*
G01*
X17962330Y-8064500D02*
G75*
G02*
X18062330Y-8064500I50000J0D01*
G01*
X18062330Y-8318500D02*
G75*
G02*
X17962330Y-8318500I-50000J0D01*
G01*
X17962330Y-8318500D02*
G75*
G02*
X18062330Y-8318500I50000J0D01*
G01*
X18062330Y-8572500D02*
G75*
G02*
X17962330Y-8572500I-50000J0D01*
G01*
X17962330Y-8572500D02*
G75*
G02*
X18062330Y-8572500I50000J0D01*
G01*
X18062330Y-8826500D02*
G75*
G02*
X17962330Y-8826500I-50000J0D01*
G01*
X17962330Y-8826500D02*
G75*
G02*
X18062330Y-8826500I50000J0D01*
G01*
X18062330Y-9080500D02*
G75*
G02*
X17962330Y-9080500I-50000J0D01*
G01*
X17962330Y-9080500D02*
G75*
G02*
X18062330Y-9080500I50000J0D01*
G01*
X18062330Y-9334500D02*
G75*
G02*
X17962330Y-9334500I-50000J0D01*
G01*
X17962330Y-9334500D02*
G75*
G02*
X18062330Y-9334500I50000J0D01*
G01*
X18062330Y-9588500D02*
G75*
G02*
X17962330Y-9588500I-50000J0D01*
G01*
X17962330Y-9588500D02*
G75*
G02*
X18062330Y-9588500I50000J0D01*
G01*
X18062330Y-9842500D02*
G75*
G02*
X17962330Y-9842500I-50000J0D01*
G01*
X17962330Y-9842500D02*
G75*
G02*
X18062330Y-9842500I50000J0D01*
G01*
X18062330Y-10096500D02*
G75*
G02*
X17962330Y-10096500I-50000J0D01*
G01*
X17962330Y-10096500D02*
G75*
G02*
X18062330Y-10096500I50000J0D01*
G01*
X18062330Y-10350500D02*
G75*
G02*
X17962330Y-10350500I-50000J0D01*
G01*
X17962330Y-10350500D02*
G75*
G02*
X18062330Y-10350500I50000J0D01*
G01*
X18062330Y-10604500D02*
G75*
G02*
X17962330Y-10604500I-50000J0D01*
G01*
X17962330Y-10604500D02*
G75*
G02*
X18062330Y-10604500I50000J0D01*
G01*
X18523330Y-6286500D02*
G75*
G02*
X18423330Y-6286500I-50000J0D01*
G01*
X18423330Y-6286500D02*
G75*
G02*
X18523330Y-6286500I50000J0D01*
G01*
X18523330Y-6540500D02*
G75*
G02*
X18423330Y-6540500I-50000J0D01*
G01*
X18423330Y-6540500D02*
G75*
G02*
X18523330Y-6540500I50000J0D01*
G01*
X18523330Y-6794500D02*
G75*
G02*
X18423330Y-6794500I-50000J0D01*
G01*
X18423330Y-6794500D02*
G75*
G02*
X18523330Y-6794500I50000J0D01*
G01*
X18523330Y-7048500D02*
G75*
G02*
X18423330Y-7048500I-50000J0D01*
G01*
X18423330Y-7048500D02*
G75*
G02*
X18523330Y-7048500I50000J0D01*
G01*
X18523330Y-7302500D02*
G75*
G02*
X18423330Y-7302500I-50000J0D01*
G01*
X18423330Y-7302500D02*
G75*
G02*
X18523330Y-7302500I50000J0D01*
G01*
X18523330Y-7556500D02*
G75*
G02*
X18423330Y-7556500I-50000J0D01*
G01*
X18423330Y-7556500D02*
G75*
G02*
X18523330Y-7556500I50000J0D01*
G01*
X18523330Y-7810500D02*
G75*
G02*
X18423330Y-7810500I-50000J0D01*
G01*
X18423330Y-7810500D02*
G75*
G02*
X18523330Y-7810500I50000J0D01*
G01*
X18523330Y-8064500D02*
G75*
G02*
X18423330Y-8064500I-50000J0D01*
G01*
X18423330Y-8064500D02*
G75*
G02*
X18523330Y-8064500I50000J0D01*
G01*
X18523330Y-8318500D02*
G75*
G02*
X18423330Y-8318500I-50000J0D01*
G01*
X18423330Y-8318500D02*
G75*
G02*
X18523330Y-8318500I50000J0D01*
G01*
X18523330Y-8572500D02*
G75*
G02*
X18423330Y-8572500I-50000J0D01*
G01*
X18423330Y-8572500D02*
G75*
G02*
X18523330Y-8572500I50000J0D01*
G01*
X18523330Y-8826500D02*
G75*
G02*
X18423330Y-8826500I-50000J0D01*
G01*
X18423330Y-8826500D02*
G75*
G02*
X18523330Y-8826500I50000J0D01*
G01*
X18523330Y-9080500D02*
G75*
G02*
X18423330Y-9080500I-50000J0D01*
G01*
X18423330Y-9080500D02*
G75*
G02*
X18523330Y-9080500I50000J0D01*
G01*
X18523330Y-9334500D02*
G75*
G02*
X18423330Y-9334500I-50000J0D01*
G01*
X18423330Y-9334500D02*
G75*
G02*
X18523330Y-9334500I50000J0D01*
G01*
X18523330Y-9588500D02*
G75*
G02*
X18423330Y-9588500I-50000J0D01*
G01*
X18423330Y-9588500D02*
G75*
G02*
X18523330Y-9588500I50000J0D01*
G01*
X18523330Y-9842500D02*
G75*
G02*
X18423330Y-9842500I-50000J0D01*
G01*
X18423330Y-9842500D02*
G75*
G02*
X18523330Y-9842500I50000J0D01*
G01*
X18523330Y-10096500D02*
G75*
G02*
X18423330Y-10096500I-50000J0D01*
G01*
X18423330Y-10096500D02*
G75*
G02*
X18523330Y-10096500I50000J0D01*
G01*
X18523330Y-10350500D02*
G75*
G02*
X18423330Y-10350500I-50000J0D01*
G01*
X18423330Y-10350500D02*
G75*
G02*
X18523330Y-10350500I50000J0D01*
G01*
X18523330Y-10604500D02*
G75*
G02*
X18423330Y-10604500I-50000J0D01*
G01*
X18423330Y-10604500D02*
G75*
G02*
X18523330Y-10604500I50000J0D01*
G01*
X18777330Y-6286500D02*
G75*
G02*
X18677330Y-6286500I-50000J0D01*
G01*
X18677330Y-6286500D02*
G75*
G02*
X18777330Y-6286500I50000J0D01*
G01*
X18777330Y-6540500D02*
G75*
G02*
X18677330Y-6540500I-50000J0D01*
G01*
X18677330Y-6540500D02*
G75*
G02*
X18777330Y-6540500I50000J0D01*
G01*
X18777330Y-6794500D02*
G75*
G02*
X18677330Y-6794500I-50000J0D01*
G01*
X18677330Y-6794500D02*
G75*
G02*
X18777330Y-6794500I50000J0D01*
G01*
X18777330Y-7048500D02*
G75*
G02*
X18677330Y-7048500I-50000J0D01*
G01*
X18677330Y-7048500D02*
G75*
G02*
X18777330Y-7048500I50000J0D01*
G01*
X18777330Y-7302500D02*
G75*
G02*
X18677330Y-7302500I-50000J0D01*
G01*
X18677330Y-7302500D02*
G75*
G02*
X18777330Y-7302500I50000J0D01*
G01*
X18777330Y-7556500D02*
G75*
G02*
X18677330Y-7556500I-50000J0D01*
G01*
X18677330Y-7556500D02*
G75*
G02*
X18777330Y-7556500I50000J0D01*
G01*
X18777330Y-7810500D02*
G75*
G02*
X18677330Y-7810500I-50000J0D01*
G01*
X18677330Y-7810500D02*
G75*
G02*
X18777330Y-7810500I50000J0D01*
G01*
X18777330Y-8064500D02*
G75*
G02*
X18677330Y-8064500I-50000J0D01*
G01*
X18677330Y-8064500D02*
G75*
G02*
X18777330Y-8064500I50000J0D01*
G01*
X18777330Y-8318500D02*
G75*
G02*
X18677330Y-8318500I-50000J0D01*
G01*
X18677330Y-8318500D02*
G75*
G02*
X18777330Y-8318500I50000J0D01*
G01*
X18777330Y-8572500D02*
G75*
G02*
X18677330Y-8572500I-50000J0D01*
G01*
X18677330Y-8572500D02*
G75*
G02*
X18777330Y-8572500I50000J0D01*
G01*
X18777330Y-8826500D02*
G75*
G02*
X18677330Y-8826500I-50000J0D01*
G01*
X18677330Y-8826500D02*
G75*
G02*
X18777330Y-8826500I50000J0D01*
G01*
X18777330Y-9080500D02*
G75*
G02*
X18677330Y-9080500I-50000J0D01*
G01*
X18677330Y-9080500D02*
G75*
G02*
X18777330Y-9080500I50000J0D01*
G01*
X18777330Y-9334500D02*
G75*
G02*
X18677330Y-9334500I-50000J0D01*
G01*
X18677330Y-9334500D02*
G75*
G02*
X18777330Y-9334500I50000J0D01*
G01*
X18777330Y-9588500D02*
G75*
G02*
X18677330Y-9588500I-50000J0D01*
G01*
X18677330Y-9588500D02*
G75*
G02*
X18777330Y-9588500I50000J0D01*
G01*
X18777330Y-9842500D02*
G75*
G02*
X18677330Y-9842500I-50000J0D01*
G01*
X18677330Y-9842500D02*
G75*
G02*
X18777330Y-9842500I50000J0D01*
G01*
X18777330Y-10096500D02*
G75*
G02*
X18677330Y-10096500I-50000J0D01*
G01*
X18677330Y-10096500D02*
G75*
G02*
X18777330Y-10096500I50000J0D01*
G01*
X18777330Y-10350500D02*
G75*
G02*
X18677330Y-10350500I-50000J0D01*
G01*
X18677330Y-10350500D02*
G75*
G02*
X18777330Y-10350500I50000J0D01*
G01*
X18777330Y-10604500D02*
G75*
G02*
X18677330Y-10604500I-50000J0D01*
G01*
X18677330Y-10604500D02*
G75*
G02*
X18777330Y-10604500I50000J0D01*
G01*
X19798500Y-6350000D02*
G75*
G02*
X19698500Y-6350000I-50000J0D01*
G01*
X19698500Y-6350000D02*
G75*
G02*
X19798500Y-6350000I50000J0D01*
G01*
X19798500Y-6604000D02*
G75*
G02*
X19698500Y-6604000I-50000J0D01*
G01*
X19698500Y-6604000D02*
G75*
G02*
X19798500Y-6604000I50000J0D01*
G01*
X19798500Y-6858000D02*
G75*
G02*
X19698500Y-6858000I-50000J0D01*
G01*
X19698500Y-6858000D02*
G75*
G02*
X19798500Y-6858000I50000J0D01*
G01*
X19798500Y-7112000D02*
G75*
G02*
X19698500Y-7112000I-50000J0D01*
G01*
X19698500Y-7112000D02*
G75*
G02*
X19798500Y-7112000I50000J0D01*
G01*
X19798500Y-7366000D02*
G75*
G02*
X19698500Y-7366000I-50000J0D01*
G01*
X19698500Y-7366000D02*
G75*
G02*
X19798500Y-7366000I50000J0D01*
G01*
X19798500Y-7620000D02*
G75*
G02*
X19698500Y-7620000I-50000J0D01*
G01*
X19698500Y-7620000D02*
G75*
G02*
X19798500Y-7620000I50000J0D01*
G01*
X19798500Y-7874000D02*
G75*
G02*
X19698500Y-7874000I-50000J0D01*
G01*
X19698500Y-7874000D02*
G75*
G02*
X19798500Y-7874000I50000J0D01*
G01*
X19798500Y-8128000D02*
G75*
G02*
X19698500Y-8128000I-50000J0D01*
G01*
X19698500Y-8128000D02*
G75*
G02*
X19798500Y-8128000I50000J0D01*
G01*
X19798500Y-8382000D02*
G75*
G02*
X19698500Y-8382000I-50000J0D01*
G01*
X19698500Y-8382000D02*
G75*
G02*
X19798500Y-8382000I50000J0D01*
G01*
X19798500Y-8636000D02*
G75*
G02*
X19698500Y-8636000I-50000J0D01*
G01*
X19698500Y-8636000D02*
G75*
G02*
X19798500Y-8636000I50000J0D01*
G01*
X19798500Y-9042000D02*
G75*
G02*
X19698500Y-9042000I-50000J0D01*
G01*
X19698500Y-9042000D02*
G75*
G02*
X19798500Y-9042000I50000J0D01*
G01*
X19798500Y-9296000D02*
G75*
G02*
X19698500Y-9296000I-50000J0D01*
G01*
X19698500Y-9296000D02*
G75*
G02*
X19798500Y-9296000I50000J0D01*
G01*
X19798500Y-9550000D02*
G75*
G02*
X19698500Y-9550000I-50000J0D01*
G01*
X19698500Y-9550000D02*
G75*
G02*
X19798500Y-9550000I50000J0D01*
G01*
X19798500Y-9804000D02*
G75*
G02*
X19698500Y-9804000I-50000J0D01*
G01*
X19698500Y-9804000D02*
G75*
G02*
X19798500Y-9804000I50000J0D01*
G01*
X19798500Y-10058000D02*
G75*
G02*
X19698500Y-10058000I-50000J0D01*
G01*
X19698500Y-10058000D02*
G75*
G02*
X19798500Y-10058000I50000J0D01*
G01*
X19798500Y-10312000D02*
G75*
G02*
X19698500Y-10312000I-50000J0D01*
G01*
X19698500Y-10312000D02*
G75*
G02*
X19798500Y-10312000I50000J0D01*
G01*
X19798500Y-10566000D02*
G75*
G02*
X19698500Y-10566000I-50000J0D01*
G01*
X19698500Y-10566000D02*
G75*
G02*
X19798500Y-10566000I50000J0D01*
G01*
X19798500Y-10820000D02*
G75*
G02*
X19698500Y-10820000I-50000J0D01*
G01*
X19698500Y-10820000D02*
G75*
G02*
X19798500Y-10820000I50000J0D01*
G01*
X21068500Y-6216960D02*
G75*
G02*
X20968500Y-6216960I-50000J0D01*
G01*
X20968500Y-6216960D02*
G75*
G02*
X21068500Y-6216960I50000J0D01*
G01*
X21068500Y-7833460D02*
G75*
G02*
X20968500Y-7833460I-50000J0D01*
G01*
X20968500Y-7833460D02*
G75*
G02*
X21068500Y-7833460I50000J0D01*
G01*
X21068500Y-9264960D02*
G75*
G02*
X20968500Y-9264960I-50000J0D01*
G01*
X20968500Y-9264960D02*
G75*
G02*
X21068500Y-9264960I50000J0D01*
G01*
X21068500Y-10881460D02*
G75*
G02*
X20968500Y-10881460I-50000J0D01*
G01*
X20968500Y-10881460D02*
G75*
G02*
X21068500Y-10881460I50000J0D01*
G01*
X21322500Y-6216960D02*
G75*
G02*
X21222500Y-6216960I-50000J0D01*
G01*
X21222500Y-6216960D02*
G75*
G02*
X21322500Y-6216960I50000J0D01*
G01*
X21322500Y-7833460D02*
G75*
G02*
X21222500Y-7833460I-50000J0D01*
G01*
X21222500Y-7833460D02*
G75*
G02*
X21322500Y-7833460I50000J0D01*
G01*
X21322500Y-9264960D02*
G75*
G02*
X21222500Y-9264960I-50000J0D01*
G01*
X21222500Y-9264960D02*
G75*
G02*
X21322500Y-9264960I50000J0D01*
G01*
X21322500Y-10881460D02*
G75*
G02*
X21222500Y-10881460I-50000J0D01*
G01*
X21222500Y-10881460D02*
G75*
G02*
X21322500Y-10881460I50000J0D01*
G01*
X21576500Y-6216960D02*
G75*
G02*
X21476500Y-6216960I-50000J0D01*
G01*
X21476500Y-6216960D02*
G75*
G02*
X21576500Y-6216960I50000J0D01*
G01*
X21576500Y-7833460D02*
G75*
G02*
X21476500Y-7833460I-50000J0D01*
G01*
X21476500Y-7833460D02*
G75*
G02*
X21576500Y-7833460I50000J0D01*
G01*
X21576500Y-9264960D02*
G75*
G02*
X21476500Y-9264960I-50000J0D01*
G01*
X21476500Y-9264960D02*
G75*
G02*
X21576500Y-9264960I50000J0D01*
G01*
X21576500Y-10881460D02*
G75*
G02*
X21476500Y-10881460I-50000J0D01*
G01*
X21476500Y-10881460D02*
G75*
G02*
X21576500Y-10881460I50000J0D01*
G01*
X21830500Y-6216960D02*
G75*
G02*
X21730500Y-6216960I-50000J0D01*
G01*
X21730500Y-6216960D02*
G75*
G02*
X21830500Y-6216960I50000J0D01*
G01*
X21830500Y-7833460D02*
G75*
G02*
X21730500Y-7833460I-50000J0D01*
G01*
X21730500Y-7833460D02*
G75*
G02*
X21830500Y-7833460I50000J0D01*
G01*
X21830500Y-9264960D02*
G75*
G02*
X21730500Y-9264960I-50000J0D01*
G01*
X21730500Y-9264960D02*
G75*
G02*
X21830500Y-9264960I50000J0D01*
G01*
X21830500Y-10881460D02*
G75*
G02*
X21730500Y-10881460I-50000J0D01*
G01*
X21730500Y-10881460D02*
G75*
G02*
X21830500Y-10881460I50000J0D01*
G01*
X22084500Y-6216960D02*
G75*
G02*
X21984500Y-6216960I-50000J0D01*
G01*
X21984500Y-6216960D02*
G75*
G02*
X22084500Y-6216960I50000J0D01*
G01*
X22084500Y-7833460D02*
G75*
G02*
X21984500Y-7833460I-50000J0D01*
G01*
X21984500Y-7833460D02*
G75*
G02*
X22084500Y-7833460I50000J0D01*
G01*
X22084500Y-9264960D02*
G75*
G02*
X21984500Y-9264960I-50000J0D01*
G01*
X21984500Y-9264960D02*
G75*
G02*
X22084500Y-9264960I50000J0D01*
G01*
X22084500Y-10881460D02*
G75*
G02*
X21984500Y-10881460I-50000J0D01*
G01*
X21984500Y-10881460D02*
G75*
G02*
X22084500Y-10881460I50000J0D01*
G01*
X22338500Y-6216960D02*
G75*
G02*
X22238500Y-6216960I-50000J0D01*
G01*
X22238500Y-6216960D02*
G75*
G02*
X22338500Y-6216960I50000J0D01*
G01*
X22338500Y-7833460D02*
G75*
G02*
X22238500Y-7833460I-50000J0D01*
G01*
X22238500Y-7833460D02*
G75*
G02*
X22338500Y-7833460I50000J0D01*
G01*
X22338500Y-9264960D02*
G75*
G02*
X22238500Y-9264960I-50000J0D01*
G01*
X22238500Y-9264960D02*
G75*
G02*
X22338500Y-9264960I50000J0D01*
G01*
X22338500Y-10881460D02*
G75*
G02*
X22238500Y-10881460I-50000J0D01*
G01*
X22238500Y-10881460D02*
G75*
G02*
X22338500Y-10881460I50000J0D01*
G01*
X22592500Y-6216960D02*
G75*
G02*
X22492500Y-6216960I-50000J0D01*
G01*
X22492500Y-6216960D02*
G75*
G02*
X22592500Y-6216960I50000J0D01*
G01*
X22592500Y-7833460D02*
G75*
G02*
X22492500Y-7833460I-50000J0D01*
G01*
X22492500Y-7833460D02*
G75*
G02*
X22592500Y-7833460I50000J0D01*
G01*
X22592500Y-9264960D02*
G75*
G02*
X22492500Y-9264960I-50000J0D01*
G01*
X22492500Y-9264960D02*
G75*
G02*
X22592500Y-9264960I50000J0D01*
G01*
X22592500Y-10881460D02*
G75*
G02*
X22492500Y-10881460I-50000J0D01*
G01*
X22492500Y-10881460D02*
G75*
G02*
X22592500Y-10881460I50000J0D01*
G01*
D12*
X13081000Y-6655000D02*
X13081000Y-6807000D01*
X13005000Y-6731000D02*
X13157000Y-6731000D01*
X13081000Y-7163000D02*
X13081000Y-7315000D01*
X13005000Y-7239000D02*
X13157000Y-7239000D01*
X13081000Y-8274250D02*
X13081000Y-8426250D01*
X13005000Y-8350250D02*
X13157000Y-8350250D01*
X13081000Y-8782250D02*
X13081000Y-8934250D01*
X13005000Y-8858250D02*
X13157000Y-8858250D01*
X13081000Y-9957000D02*
X13081000Y-10109000D01*
X13005000Y-10033000D02*
X13157000Y-10033000D01*
X13081000Y-10465000D02*
X13081000Y-10617000D01*
X13005000Y-10541000D02*
X13157000Y-10541000D01*
D11*
X13084402Y-11342194D02*
X13084402Y-11142194D01*
X13084402Y-11142194D02*
X13132021Y-11142194D01*
X13132021Y-11142194D02*
X13160592Y-11151718D01*
X13160592Y-11151718D02*
X13179640Y-11170765D01*
X13179640Y-11170765D02*
X13189164Y-11189813D01*
X13189164Y-11189813D02*
X13198687Y-11227908D01*
X13198687Y-11227908D02*
X13198687Y-11256479D01*
X13198687Y-11256479D02*
X13189164Y-11294575D01*
X13189164Y-11294575D02*
X13179640Y-11313622D01*
X13179640Y-11313622D02*
X13160592Y-11332670D01*
X13160592Y-11332670D02*
X13132021Y-11342194D01*
X13132021Y-11342194D02*
X13084402Y-11342194D01*
X13284402Y-11342194D02*
X13284402Y-11208860D01*
X13284402Y-11246956D02*
X13293926Y-11227908D01*
X13293926Y-11227908D02*
X13303449Y-11218384D01*
X13303449Y-11218384D02*
X13322497Y-11208860D01*
X13322497Y-11208860D02*
X13341545Y-11208860D01*
X13408211Y-11342194D02*
X13408211Y-11208860D01*
X13408211Y-11142194D02*
X13398687Y-11151718D01*
X13398687Y-11151718D02*
X13408211Y-11161241D01*
X13408211Y-11161241D02*
X13417735Y-11151718D01*
X13417735Y-11151718D02*
X13408211Y-11142194D01*
X13408211Y-11142194D02*
X13408211Y-11161241D01*
X13532021Y-11342194D02*
X13512973Y-11332670D01*
X13512973Y-11332670D02*
X13503449Y-11313622D01*
X13503449Y-11313622D02*
X13503449Y-11142194D01*
X13636783Y-11342194D02*
X13617735Y-11332670D01*
X13617735Y-11332670D02*
X13608211Y-11313622D01*
X13608211Y-11313622D02*
X13608211Y-11142194D01*
X13865354Y-11342194D02*
X13865354Y-11142194D01*
X13865354Y-11142194D02*
X13932021Y-11285051D01*
X13932021Y-11285051D02*
X13998687Y-11142194D01*
X13998687Y-11142194D02*
X13998687Y-11342194D01*
X14179640Y-11342194D02*
X14179640Y-11237432D01*
X14179640Y-11237432D02*
X14170116Y-11218384D01*
X14170116Y-11218384D02*
X14151068Y-11208860D01*
X14151068Y-11208860D02*
X14112973Y-11208860D01*
X14112973Y-11208860D02*
X14093926Y-11218384D01*
X14179640Y-11332670D02*
X14160592Y-11342194D01*
X14160592Y-11342194D02*
X14112973Y-11342194D01*
X14112973Y-11342194D02*
X14093926Y-11332670D01*
X14093926Y-11332670D02*
X14084402Y-11313622D01*
X14084402Y-11313622D02*
X14084402Y-11294575D01*
X14084402Y-11294575D02*
X14093926Y-11275527D01*
X14093926Y-11275527D02*
X14112973Y-11266003D01*
X14112973Y-11266003D02*
X14160592Y-11266003D01*
X14160592Y-11266003D02*
X14179640Y-11256479D01*
X14274878Y-11208860D02*
X14274878Y-11408860D01*
X14274878Y-11218384D02*
X14293926Y-11208860D01*
X14293926Y-11208860D02*
X14332021Y-11208860D01*
X14332021Y-11208860D02*
X14351068Y-11218384D01*
X14351068Y-11218384D02*
X14360592Y-11227908D01*
X14360592Y-11227908D02*
X14370116Y-11246956D01*
X14370116Y-11246956D02*
X14370116Y-11304098D01*
X14370116Y-11304098D02*
X14360592Y-11323146D01*
X14360592Y-11323146D02*
X14351068Y-11332670D01*
X14351068Y-11332670D02*
X14332021Y-11342194D01*
X14332021Y-11342194D02*
X14293926Y-11342194D01*
X14293926Y-11342194D02*
X14274878Y-11332670D01*
X14455830Y-11323146D02*
X14465354Y-11332670D01*
X14465354Y-11332670D02*
X14455830Y-11342194D01*
X14455830Y-11342194D02*
X14446307Y-11332670D01*
X14446307Y-11332670D02*
X14455830Y-11323146D01*
X14455830Y-11323146D02*
X14455830Y-11342194D01*
X14455830Y-11218384D02*
X14465354Y-11227908D01*
X14465354Y-11227908D02*
X14455830Y-11237432D01*
X14455830Y-11237432D02*
X14446307Y-11227908D01*
X14446307Y-11227908D02*
X14455830Y-11218384D01*
X14455830Y-11218384D02*
X14455830Y-11237432D01*
D10*
X12783625Y-11650710D02*
X12823625Y-11690710D01*
X12823625Y-11650710D02*
X12783625Y-11690710D01*
D11*
X13122497Y-11562194D02*
X13141545Y-11562194D01*
X13141545Y-11562194D02*
X13160592Y-11571718D01*
X13160592Y-11571718D02*
X13170116Y-11581241D01*
X13170116Y-11581241D02*
X13179640Y-11600289D01*
X13179640Y-11600289D02*
X13189164Y-11638384D01*
X13189164Y-11638384D02*
X13189164Y-11686003D01*
X13189164Y-11686003D02*
X13179640Y-11724098D01*
X13179640Y-11724098D02*
X13170116Y-11743146D01*
X13170116Y-11743146D02*
X13160592Y-11752670D01*
X13160592Y-11752670D02*
X13141545Y-11762194D01*
X13141545Y-11762194D02*
X13122497Y-11762194D01*
X13122497Y-11762194D02*
X13103449Y-11752670D01*
X13103449Y-11752670D02*
X13093926Y-11743146D01*
X13093926Y-11743146D02*
X13084402Y-11724098D01*
X13084402Y-11724098D02*
X13074878Y-11686003D01*
X13074878Y-11686003D02*
X13074878Y-11638384D01*
X13074878Y-11638384D02*
X13084402Y-11600289D01*
X13084402Y-11600289D02*
X13093926Y-11581241D01*
X13093926Y-11581241D02*
X13103449Y-11571718D01*
X13103449Y-11571718D02*
X13122497Y-11562194D01*
X13274878Y-11743146D02*
X13284402Y-11752670D01*
X13284402Y-11752670D02*
X13274878Y-11762194D01*
X13274878Y-11762194D02*
X13265354Y-11752670D01*
X13265354Y-11752670D02*
X13274878Y-11743146D01*
X13274878Y-11743146D02*
X13274878Y-11762194D01*
X13455830Y-11628860D02*
X13455830Y-11762194D01*
X13408211Y-11552670D02*
X13360592Y-11695527D01*
X13360592Y-11695527D02*
X13484402Y-11695527D01*
X13598687Y-11562194D02*
X13617735Y-11562194D01*
X13617735Y-11562194D02*
X13636783Y-11571718D01*
X13636783Y-11571718D02*
X13646307Y-11581241D01*
X13646307Y-11581241D02*
X13655830Y-11600289D01*
X13655830Y-11600289D02*
X13665354Y-11638384D01*
X13665354Y-11638384D02*
X13665354Y-11686003D01*
X13665354Y-11686003D02*
X13655830Y-11724098D01*
X13655830Y-11724098D02*
X13646307Y-11743146D01*
X13646307Y-11743146D02*
X13636783Y-11752670D01*
X13636783Y-11752670D02*
X13617735Y-11762194D01*
X13617735Y-11762194D02*
X13598687Y-11762194D01*
X13598687Y-11762194D02*
X13579640Y-11752670D01*
X13579640Y-11752670D02*
X13570116Y-11743146D01*
X13570116Y-11743146D02*
X13560592Y-11724098D01*
X13560592Y-11724098D02*
X13551068Y-11686003D01*
X13551068Y-11686003D02*
X13551068Y-11638384D01*
X13551068Y-11638384D02*
X13560592Y-11600289D01*
X13560592Y-11600289D02*
X13570116Y-11581241D01*
X13570116Y-11581241D02*
X13579640Y-11571718D01*
X13579640Y-11571718D02*
X13598687Y-11562194D01*
X13789164Y-11562194D02*
X13808211Y-11562194D01*
X13808211Y-11562194D02*
X13827259Y-11571718D01*
X13827259Y-11571718D02*
X13836783Y-11581241D01*
X13836783Y-11581241D02*
X13846307Y-11600289D01*
X13846307Y-11600289D02*
X13855830Y-11638384D01*
X13855830Y-11638384D02*
X13855830Y-11686003D01*
X13855830Y-11686003D02*
X13846307Y-11724098D01*
X13846307Y-11724098D02*
X13836783Y-11743146D01*
X13836783Y-11743146D02*
X13827259Y-11752670D01*
X13827259Y-11752670D02*
X13808211Y-11762194D01*
X13808211Y-11762194D02*
X13789164Y-11762194D01*
X13789164Y-11762194D02*
X13770116Y-11752670D01*
X13770116Y-11752670D02*
X13760592Y-11743146D01*
X13760592Y-11743146D02*
X13751068Y-11724098D01*
X13751068Y-11724098D02*
X13741545Y-11686003D01*
X13741545Y-11686003D02*
X13741545Y-11638384D01*
X13741545Y-11638384D02*
X13751068Y-11600289D01*
X13751068Y-11600289D02*
X13760592Y-11581241D01*
X13760592Y-11581241D02*
X13770116Y-11571718D01*
X13770116Y-11571718D02*
X13789164Y-11562194D01*
X13941545Y-11762194D02*
X13941545Y-11628860D01*
X13941545Y-11647908D02*
X13951068Y-11638384D01*
X13951068Y-11638384D02*
X13970116Y-11628860D01*
X13970116Y-11628860D02*
X13998688Y-11628860D01*
X13998688Y-11628860D02*
X14017735Y-11638384D01*
X14017735Y-11638384D02*
X14027259Y-11657432D01*
X14027259Y-11657432D02*
X14027259Y-11762194D01*
X14027259Y-11657432D02*
X14036783Y-11638384D01*
X14036783Y-11638384D02*
X14055830Y-11628860D01*
X14055830Y-11628860D02*
X14084402Y-11628860D01*
X14084402Y-11628860D02*
X14103449Y-11638384D01*
X14103449Y-11638384D02*
X14112973Y-11657432D01*
X14112973Y-11657432D02*
X14112973Y-11762194D01*
X14208211Y-11762194D02*
X14208211Y-11628860D01*
X14208211Y-11647908D02*
X14217735Y-11638384D01*
X14217735Y-11638384D02*
X14236783Y-11628860D01*
X14236783Y-11628860D02*
X14265354Y-11628860D01*
X14265354Y-11628860D02*
X14284402Y-11638384D01*
X14284402Y-11638384D02*
X14293926Y-11657432D01*
X14293926Y-11657432D02*
X14293926Y-11762194D01*
X14293926Y-11657432D02*
X14303449Y-11638384D01*
X14303449Y-11638384D02*
X14322497Y-11628860D01*
X14322497Y-11628860D02*
X14351068Y-11628860D01*
X14351068Y-11628860D02*
X14370116Y-11638384D01*
X14370116Y-11638384D02*
X14379640Y-11657432D01*
X14379640Y-11657432D02*
X14379640Y-11762194D01*
X14770116Y-11552670D02*
X14598688Y-11809813D01*
X15027259Y-11562194D02*
X15046307Y-11562194D01*
X15046307Y-11562194D02*
X15065354Y-11571718D01*
X15065354Y-11571718D02*
X15074878Y-11581241D01*
X15074878Y-11581241D02*
X15084402Y-11600289D01*
X15084402Y-11600289D02*
X15093926Y-11638384D01*
X15093926Y-11638384D02*
X15093926Y-11686003D01*
X15093926Y-11686003D02*
X15084402Y-11724098D01*
X15084402Y-11724098D02*
X15074878Y-11743146D01*
X15074878Y-11743146D02*
X15065354Y-11752670D01*
X15065354Y-11752670D02*
X15046307Y-11762194D01*
X15046307Y-11762194D02*
X15027259Y-11762194D01*
X15027259Y-11762194D02*
X15008211Y-11752670D01*
X15008211Y-11752670D02*
X14998688Y-11743146D01*
X14998688Y-11743146D02*
X14989164Y-11724098D01*
X14989164Y-11724098D02*
X14979640Y-11686003D01*
X14979640Y-11686003D02*
X14979640Y-11638384D01*
X14979640Y-11638384D02*
X14989164Y-11600289D01*
X14989164Y-11600289D02*
X14998688Y-11581241D01*
X14998688Y-11581241D02*
X15008211Y-11571718D01*
X15008211Y-11571718D02*
X15027259Y-11562194D01*
X15179640Y-11743146D02*
X15189164Y-11752670D01*
X15189164Y-11752670D02*
X15179640Y-11762194D01*
X15179640Y-11762194D02*
X15170116Y-11752670D01*
X15170116Y-11752670D02*
X15179640Y-11743146D01*
X15179640Y-11743146D02*
X15179640Y-11762194D01*
X15312973Y-11562194D02*
X15332021Y-11562194D01*
X15332021Y-11562194D02*
X15351069Y-11571718D01*
X15351069Y-11571718D02*
X15360592Y-11581241D01*
X15360592Y-11581241D02*
X15370116Y-11600289D01*
X15370116Y-11600289D02*
X15379640Y-11638384D01*
X15379640Y-11638384D02*
X15379640Y-11686003D01*
X15379640Y-11686003D02*
X15370116Y-11724098D01*
X15370116Y-11724098D02*
X15360592Y-11743146D01*
X15360592Y-11743146D02*
X15351069Y-11752670D01*
X15351069Y-11752670D02*
X15332021Y-11762194D01*
X15332021Y-11762194D02*
X15312973Y-11762194D01*
X15312973Y-11762194D02*
X15293926Y-11752670D01*
X15293926Y-11752670D02*
X15284402Y-11743146D01*
X15284402Y-11743146D02*
X15274878Y-11724098D01*
X15274878Y-11724098D02*
X15265354Y-11686003D01*
X15265354Y-11686003D02*
X15265354Y-11638384D01*
X15265354Y-11638384D02*
X15274878Y-11600289D01*
X15274878Y-11600289D02*
X15284402Y-11581241D01*
X15284402Y-11581241D02*
X15293926Y-11571718D01*
X15293926Y-11571718D02*
X15312973Y-11562194D01*
X15570116Y-11762194D02*
X15455831Y-11762194D01*
X15512973Y-11762194D02*
X15512973Y-11562194D01*
X15512973Y-11562194D02*
X15493926Y-11590765D01*
X15493926Y-11590765D02*
X15474878Y-11609813D01*
X15474878Y-11609813D02*
X15455831Y-11619337D01*
X15751069Y-11562194D02*
X15655831Y-11562194D01*
X15655831Y-11562194D02*
X15646307Y-11657432D01*
X15646307Y-11657432D02*
X15655831Y-11647908D01*
X15655831Y-11647908D02*
X15674878Y-11638384D01*
X15674878Y-11638384D02*
X15722497Y-11638384D01*
X15722497Y-11638384D02*
X15741545Y-11647908D01*
X15741545Y-11647908D02*
X15751069Y-11657432D01*
X15751069Y-11657432D02*
X15760592Y-11676479D01*
X15760592Y-11676479D02*
X15760592Y-11724098D01*
X15760592Y-11724098D02*
X15751069Y-11743146D01*
X15751069Y-11743146D02*
X15741545Y-11752670D01*
X15741545Y-11752670D02*
X15722497Y-11762194D01*
X15722497Y-11762194D02*
X15674878Y-11762194D01*
X15674878Y-11762194D02*
X15655831Y-11752670D01*
X15655831Y-11752670D02*
X15646307Y-11743146D01*
X15827259Y-11562194D02*
X15960592Y-11562194D01*
X15960592Y-11562194D02*
X15874878Y-11762194D01*
X16027259Y-11562194D02*
X16027259Y-11600289D01*
X16103450Y-11562194D02*
X16103450Y-11600289D01*
X16398688Y-11838384D02*
X16389164Y-11828860D01*
X16389164Y-11828860D02*
X16370116Y-11800289D01*
X16370116Y-11800289D02*
X16360593Y-11781241D01*
X16360593Y-11781241D02*
X16351069Y-11752670D01*
X16351069Y-11752670D02*
X16341545Y-11705051D01*
X16341545Y-11705051D02*
X16341545Y-11666956D01*
X16341545Y-11666956D02*
X16351069Y-11619337D01*
X16351069Y-11619337D02*
X16360593Y-11590765D01*
X16360593Y-11590765D02*
X16370116Y-11571718D01*
X16370116Y-11571718D02*
X16389164Y-11543146D01*
X16389164Y-11543146D02*
X16398688Y-11533622D01*
X16465354Y-11581241D02*
X16474878Y-11571718D01*
X16474878Y-11571718D02*
X16493926Y-11562194D01*
X16493926Y-11562194D02*
X16541545Y-11562194D01*
X16541545Y-11562194D02*
X16560593Y-11571718D01*
X16560593Y-11571718D02*
X16570116Y-11581241D01*
X16570116Y-11581241D02*
X16579640Y-11600289D01*
X16579640Y-11600289D02*
X16579640Y-11619337D01*
X16579640Y-11619337D02*
X16570116Y-11647908D01*
X16570116Y-11647908D02*
X16455831Y-11762194D01*
X16455831Y-11762194D02*
X16579640Y-11762194D01*
X16646307Y-11562194D02*
X16779640Y-11562194D01*
X16779640Y-11562194D02*
X16693926Y-11762194D01*
X17008212Y-11762194D02*
X17008212Y-11562194D01*
X17093926Y-11762194D02*
X17093926Y-11657432D01*
X17093926Y-11657432D02*
X17084402Y-11638384D01*
X17084402Y-11638384D02*
X17065355Y-11628860D01*
X17065355Y-11628860D02*
X17036783Y-11628860D01*
X17036783Y-11628860D02*
X17017736Y-11638384D01*
X17017736Y-11638384D02*
X17008212Y-11647908D01*
X17217736Y-11762194D02*
X17198688Y-11752670D01*
X17198688Y-11752670D02*
X17189164Y-11743146D01*
X17189164Y-11743146D02*
X17179640Y-11724098D01*
X17179640Y-11724098D02*
X17179640Y-11666956D01*
X17179640Y-11666956D02*
X17189164Y-11647908D01*
X17189164Y-11647908D02*
X17198688Y-11638384D01*
X17198688Y-11638384D02*
X17217736Y-11628860D01*
X17217736Y-11628860D02*
X17246307Y-11628860D01*
X17246307Y-11628860D02*
X17265355Y-11638384D01*
X17265355Y-11638384D02*
X17274878Y-11647908D01*
X17274878Y-11647908D02*
X17284402Y-11666956D01*
X17284402Y-11666956D02*
X17284402Y-11724098D01*
X17284402Y-11724098D02*
X17274878Y-11743146D01*
X17274878Y-11743146D02*
X17265355Y-11752670D01*
X17265355Y-11752670D02*
X17246307Y-11762194D01*
X17246307Y-11762194D02*
X17217736Y-11762194D01*
X17398688Y-11762194D02*
X17379640Y-11752670D01*
X17379640Y-11752670D02*
X17370117Y-11733622D01*
X17370117Y-11733622D02*
X17370117Y-11562194D01*
X17551069Y-11752670D02*
X17532021Y-11762194D01*
X17532021Y-11762194D02*
X17493926Y-11762194D01*
X17493926Y-11762194D02*
X17474878Y-11752670D01*
X17474878Y-11752670D02*
X17465355Y-11733622D01*
X17465355Y-11733622D02*
X17465355Y-11657432D01*
X17465355Y-11657432D02*
X17474878Y-11638384D01*
X17474878Y-11638384D02*
X17493926Y-11628860D01*
X17493926Y-11628860D02*
X17532021Y-11628860D01*
X17532021Y-11628860D02*
X17551069Y-11638384D01*
X17551069Y-11638384D02*
X17560593Y-11657432D01*
X17560593Y-11657432D02*
X17560593Y-11676479D01*
X17560593Y-11676479D02*
X17465355Y-11695527D01*
X17636783Y-11752670D02*
X17655831Y-11762194D01*
X17655831Y-11762194D02*
X17693926Y-11762194D01*
X17693926Y-11762194D02*
X17712974Y-11752670D01*
X17712974Y-11752670D02*
X17722498Y-11733622D01*
X17722498Y-11733622D02*
X17722498Y-11724098D01*
X17722498Y-11724098D02*
X17712974Y-11705051D01*
X17712974Y-11705051D02*
X17693926Y-11695527D01*
X17693926Y-11695527D02*
X17665355Y-11695527D01*
X17665355Y-11695527D02*
X17646307Y-11686003D01*
X17646307Y-11686003D02*
X17636783Y-11666956D01*
X17636783Y-11666956D02*
X17636783Y-11657432D01*
X17636783Y-11657432D02*
X17646307Y-11638384D01*
X17646307Y-11638384D02*
X17665355Y-11628860D01*
X17665355Y-11628860D02*
X17693926Y-11628860D01*
X17693926Y-11628860D02*
X17712974Y-11638384D01*
X17789164Y-11838384D02*
X17798688Y-11828860D01*
X17798688Y-11828860D02*
X17817736Y-11800289D01*
X17817736Y-11800289D02*
X17827259Y-11781241D01*
X17827259Y-11781241D02*
X17836783Y-11752670D01*
X17836783Y-11752670D02*
X17846307Y-11705051D01*
X17846307Y-11705051D02*
X17846307Y-11666956D01*
X17846307Y-11666956D02*
X17836783Y-11619337D01*
X17836783Y-11619337D02*
X17827259Y-11590765D01*
X17827259Y-11590765D02*
X17817736Y-11571718D01*
X17817736Y-11571718D02*
X17798688Y-11543146D01*
X17798688Y-11543146D02*
X17789164Y-11533622D01*
D10*
X12823625Y-11934710D02*
G75*
G02*
X12723625Y-11934710I-50000J0D01*
G01*
X12723625Y-11934710D02*
G75*
G02*
X12823625Y-11934710I50000J0D01*
G01*
D11*
X13189164Y-12026194D02*
X13074878Y-12026194D01*
X13132021Y-12026194D02*
X13132021Y-11826194D01*
X13132021Y-11826194D02*
X13112973Y-11854765D01*
X13112973Y-11854765D02*
X13093926Y-11873813D01*
X13093926Y-11873813D02*
X13074878Y-11883337D01*
X13274878Y-12007146D02*
X13284402Y-12016670D01*
X13284402Y-12016670D02*
X13274878Y-12026194D01*
X13274878Y-12026194D02*
X13265354Y-12016670D01*
X13265354Y-12016670D02*
X13274878Y-12007146D01*
X13274878Y-12007146D02*
X13274878Y-12026194D01*
X13408211Y-11826194D02*
X13427259Y-11826194D01*
X13427259Y-11826194D02*
X13446307Y-11835718D01*
X13446307Y-11835718D02*
X13455830Y-11845241D01*
X13455830Y-11845241D02*
X13465354Y-11864289D01*
X13465354Y-11864289D02*
X13474878Y-11902384D01*
X13474878Y-11902384D02*
X13474878Y-11950003D01*
X13474878Y-11950003D02*
X13465354Y-11988098D01*
X13465354Y-11988098D02*
X13455830Y-12007146D01*
X13455830Y-12007146D02*
X13446307Y-12016670D01*
X13446307Y-12016670D02*
X13427259Y-12026194D01*
X13427259Y-12026194D02*
X13408211Y-12026194D01*
X13408211Y-12026194D02*
X13389164Y-12016670D01*
X13389164Y-12016670D02*
X13379640Y-12007146D01*
X13379640Y-12007146D02*
X13370116Y-11988098D01*
X13370116Y-11988098D02*
X13360592Y-11950003D01*
X13360592Y-11950003D02*
X13360592Y-11902384D01*
X13360592Y-11902384D02*
X13370116Y-11864289D01*
X13370116Y-11864289D02*
X13379640Y-11845241D01*
X13379640Y-11845241D02*
X13389164Y-11835718D01*
X13389164Y-11835718D02*
X13408211Y-11826194D01*
X13598687Y-11826194D02*
X13617735Y-11826194D01*
X13617735Y-11826194D02*
X13636783Y-11835718D01*
X13636783Y-11835718D02*
X13646307Y-11845241D01*
X13646307Y-11845241D02*
X13655830Y-11864289D01*
X13655830Y-11864289D02*
X13665354Y-11902384D01*
X13665354Y-11902384D02*
X13665354Y-11950003D01*
X13665354Y-11950003D02*
X13655830Y-11988098D01*
X13655830Y-11988098D02*
X13646307Y-12007146D01*
X13646307Y-12007146D02*
X13636783Y-12016670D01*
X13636783Y-12016670D02*
X13617735Y-12026194D01*
X13617735Y-12026194D02*
X13598687Y-12026194D01*
X13598687Y-12026194D02*
X13579640Y-12016670D01*
X13579640Y-12016670D02*
X13570116Y-12007146D01*
X13570116Y-12007146D02*
X13560592Y-11988098D01*
X13560592Y-11988098D02*
X13551068Y-11950003D01*
X13551068Y-11950003D02*
X13551068Y-11902384D01*
X13551068Y-11902384D02*
X13560592Y-11864289D01*
X13560592Y-11864289D02*
X13570116Y-11845241D01*
X13570116Y-11845241D02*
X13579640Y-11835718D01*
X13579640Y-11835718D02*
X13598687Y-11826194D01*
X13789164Y-11826194D02*
X13808211Y-11826194D01*
X13808211Y-11826194D02*
X13827259Y-11835718D01*
X13827259Y-11835718D02*
X13836783Y-11845241D01*
X13836783Y-11845241D02*
X13846307Y-11864289D01*
X13846307Y-11864289D02*
X13855830Y-11902384D01*
X13855830Y-11902384D02*
X13855830Y-11950003D01*
X13855830Y-11950003D02*
X13846307Y-11988098D01*
X13846307Y-11988098D02*
X13836783Y-12007146D01*
X13836783Y-12007146D02*
X13827259Y-12016670D01*
X13827259Y-12016670D02*
X13808211Y-12026194D01*
X13808211Y-12026194D02*
X13789164Y-12026194D01*
X13789164Y-12026194D02*
X13770116Y-12016670D01*
X13770116Y-12016670D02*
X13760592Y-12007146D01*
X13760592Y-12007146D02*
X13751068Y-11988098D01*
X13751068Y-11988098D02*
X13741545Y-11950003D01*
X13741545Y-11950003D02*
X13741545Y-11902384D01*
X13741545Y-11902384D02*
X13751068Y-11864289D01*
X13751068Y-11864289D02*
X13760592Y-11845241D01*
X13760592Y-11845241D02*
X13770116Y-11835718D01*
X13770116Y-11835718D02*
X13789164Y-11826194D01*
X13941545Y-12026194D02*
X13941545Y-11892860D01*
X13941545Y-11911908D02*
X13951068Y-11902384D01*
X13951068Y-11902384D02*
X13970116Y-11892860D01*
X13970116Y-11892860D02*
X13998688Y-11892860D01*
X13998688Y-11892860D02*
X14017735Y-11902384D01*
X14017735Y-11902384D02*
X14027259Y-11921432D01*
X14027259Y-11921432D02*
X14027259Y-12026194D01*
X14027259Y-11921432D02*
X14036783Y-11902384D01*
X14036783Y-11902384D02*
X14055830Y-11892860D01*
X14055830Y-11892860D02*
X14084402Y-11892860D01*
X14084402Y-11892860D02*
X14103449Y-11902384D01*
X14103449Y-11902384D02*
X14112973Y-11921432D01*
X14112973Y-11921432D02*
X14112973Y-12026194D01*
X14208211Y-12026194D02*
X14208211Y-11892860D01*
X14208211Y-11911908D02*
X14217735Y-11902384D01*
X14217735Y-11902384D02*
X14236783Y-11892860D01*
X14236783Y-11892860D02*
X14265354Y-11892860D01*
X14265354Y-11892860D02*
X14284402Y-11902384D01*
X14284402Y-11902384D02*
X14293926Y-11921432D01*
X14293926Y-11921432D02*
X14293926Y-12026194D01*
X14293926Y-11921432D02*
X14303449Y-11902384D01*
X14303449Y-11902384D02*
X14322497Y-11892860D01*
X14322497Y-11892860D02*
X14351068Y-11892860D01*
X14351068Y-11892860D02*
X14370116Y-11902384D01*
X14370116Y-11902384D02*
X14379640Y-11921432D01*
X14379640Y-11921432D02*
X14379640Y-12026194D01*
X14770116Y-11816670D02*
X14598688Y-12073813D01*
X15027259Y-11826194D02*
X15046307Y-11826194D01*
X15046307Y-11826194D02*
X15065354Y-11835718D01*
X15065354Y-11835718D02*
X15074878Y-11845241D01*
X15074878Y-11845241D02*
X15084402Y-11864289D01*
X15084402Y-11864289D02*
X15093926Y-11902384D01*
X15093926Y-11902384D02*
X15093926Y-11950003D01*
X15093926Y-11950003D02*
X15084402Y-11988098D01*
X15084402Y-11988098D02*
X15074878Y-12007146D01*
X15074878Y-12007146D02*
X15065354Y-12016670D01*
X15065354Y-12016670D02*
X15046307Y-12026194D01*
X15046307Y-12026194D02*
X15027259Y-12026194D01*
X15027259Y-12026194D02*
X15008211Y-12016670D01*
X15008211Y-12016670D02*
X14998688Y-12007146D01*
X14998688Y-12007146D02*
X14989164Y-11988098D01*
X14989164Y-11988098D02*
X14979640Y-11950003D01*
X14979640Y-11950003D02*
X14979640Y-11902384D01*
X14979640Y-11902384D02*
X14989164Y-11864289D01*
X14989164Y-11864289D02*
X14998688Y-11845241D01*
X14998688Y-11845241D02*
X15008211Y-11835718D01*
X15008211Y-11835718D02*
X15027259Y-11826194D01*
X15179640Y-12007146D02*
X15189164Y-12016670D01*
X15189164Y-12016670D02*
X15179640Y-12026194D01*
X15179640Y-12026194D02*
X15170116Y-12016670D01*
X15170116Y-12016670D02*
X15179640Y-12007146D01*
X15179640Y-12007146D02*
X15179640Y-12026194D01*
X15312973Y-11826194D02*
X15332021Y-11826194D01*
X15332021Y-11826194D02*
X15351069Y-11835718D01*
X15351069Y-11835718D02*
X15360592Y-11845241D01*
X15360592Y-11845241D02*
X15370116Y-11864289D01*
X15370116Y-11864289D02*
X15379640Y-11902384D01*
X15379640Y-11902384D02*
X15379640Y-11950003D01*
X15379640Y-11950003D02*
X15370116Y-11988098D01*
X15370116Y-11988098D02*
X15360592Y-12007146D01*
X15360592Y-12007146D02*
X15351069Y-12016670D01*
X15351069Y-12016670D02*
X15332021Y-12026194D01*
X15332021Y-12026194D02*
X15312973Y-12026194D01*
X15312973Y-12026194D02*
X15293926Y-12016670D01*
X15293926Y-12016670D02*
X15284402Y-12007146D01*
X15284402Y-12007146D02*
X15274878Y-11988098D01*
X15274878Y-11988098D02*
X15265354Y-11950003D01*
X15265354Y-11950003D02*
X15265354Y-11902384D01*
X15265354Y-11902384D02*
X15274878Y-11864289D01*
X15274878Y-11864289D02*
X15284402Y-11845241D01*
X15284402Y-11845241D02*
X15293926Y-11835718D01*
X15293926Y-11835718D02*
X15312973Y-11826194D01*
X15446307Y-11826194D02*
X15570116Y-11826194D01*
X15570116Y-11826194D02*
X15503450Y-11902384D01*
X15503450Y-11902384D02*
X15532021Y-11902384D01*
X15532021Y-11902384D02*
X15551069Y-11911908D01*
X15551069Y-11911908D02*
X15560592Y-11921432D01*
X15560592Y-11921432D02*
X15570116Y-11940479D01*
X15570116Y-11940479D02*
X15570116Y-11988098D01*
X15570116Y-11988098D02*
X15560592Y-12007146D01*
X15560592Y-12007146D02*
X15551069Y-12016670D01*
X15551069Y-12016670D02*
X15532021Y-12026194D01*
X15532021Y-12026194D02*
X15474878Y-12026194D01*
X15474878Y-12026194D02*
X15455831Y-12016670D01*
X15455831Y-12016670D02*
X15446307Y-12007146D01*
X15665354Y-12026194D02*
X15703450Y-12026194D01*
X15703450Y-12026194D02*
X15722497Y-12016670D01*
X15722497Y-12016670D02*
X15732021Y-12007146D01*
X15732021Y-12007146D02*
X15751069Y-11978575D01*
X15751069Y-11978575D02*
X15760592Y-11940479D01*
X15760592Y-11940479D02*
X15760592Y-11864289D01*
X15760592Y-11864289D02*
X15751069Y-11845241D01*
X15751069Y-11845241D02*
X15741545Y-11835718D01*
X15741545Y-11835718D02*
X15722497Y-11826194D01*
X15722497Y-11826194D02*
X15684402Y-11826194D01*
X15684402Y-11826194D02*
X15665354Y-11835718D01*
X15665354Y-11835718D02*
X15655831Y-11845241D01*
X15655831Y-11845241D02*
X15646307Y-11864289D01*
X15646307Y-11864289D02*
X15646307Y-11911908D01*
X15646307Y-11911908D02*
X15655831Y-11930956D01*
X15655831Y-11930956D02*
X15665354Y-11940479D01*
X15665354Y-11940479D02*
X15684402Y-11950003D01*
X15684402Y-11950003D02*
X15722497Y-11950003D01*
X15722497Y-11950003D02*
X15741545Y-11940479D01*
X15741545Y-11940479D02*
X15751069Y-11930956D01*
X15751069Y-11930956D02*
X15760592Y-11911908D01*
X15932021Y-11892860D02*
X15932021Y-12026194D01*
X15884402Y-11816670D02*
X15836783Y-11959527D01*
X15836783Y-11959527D02*
X15960592Y-11959527D01*
X16027259Y-11826194D02*
X16027259Y-11864289D01*
X16103450Y-11826194D02*
X16103450Y-11864289D01*
X16398688Y-12102384D02*
X16389164Y-12092860D01*
X16389164Y-12092860D02*
X16370116Y-12064289D01*
X16370116Y-12064289D02*
X16360593Y-12045241D01*
X16360593Y-12045241D02*
X16351069Y-12016670D01*
X16351069Y-12016670D02*
X16341545Y-11969051D01*
X16341545Y-11969051D02*
X16341545Y-11930956D01*
X16341545Y-11930956D02*
X16351069Y-11883337D01*
X16351069Y-11883337D02*
X16360593Y-11854765D01*
X16360593Y-11854765D02*
X16370116Y-11835718D01*
X16370116Y-11835718D02*
X16389164Y-11807146D01*
X16389164Y-11807146D02*
X16398688Y-11797622D01*
X16465354Y-11845241D02*
X16474878Y-11835718D01*
X16474878Y-11835718D02*
X16493926Y-11826194D01*
X16493926Y-11826194D02*
X16541545Y-11826194D01*
X16541545Y-11826194D02*
X16560593Y-11835718D01*
X16560593Y-11835718D02*
X16570116Y-11845241D01*
X16570116Y-11845241D02*
X16579640Y-11864289D01*
X16579640Y-11864289D02*
X16579640Y-11883337D01*
X16579640Y-11883337D02*
X16570116Y-11911908D01*
X16570116Y-11911908D02*
X16455831Y-12026194D01*
X16455831Y-12026194D02*
X16579640Y-12026194D01*
X16646307Y-11826194D02*
X16779640Y-11826194D01*
X16779640Y-11826194D02*
X16693926Y-12026194D01*
X16941545Y-11826194D02*
X16903450Y-11826194D01*
X16903450Y-11826194D02*
X16884402Y-11835718D01*
X16884402Y-11835718D02*
X16874878Y-11845241D01*
X16874878Y-11845241D02*
X16855831Y-11873813D01*
X16855831Y-11873813D02*
X16846307Y-11911908D01*
X16846307Y-11911908D02*
X16846307Y-11988098D01*
X16846307Y-11988098D02*
X16855831Y-12007146D01*
X16855831Y-12007146D02*
X16865355Y-12016670D01*
X16865355Y-12016670D02*
X16884402Y-12026194D01*
X16884402Y-12026194D02*
X16922497Y-12026194D01*
X16922497Y-12026194D02*
X16941545Y-12016670D01*
X16941545Y-12016670D02*
X16951069Y-12007146D01*
X16951069Y-12007146D02*
X16960593Y-11988098D01*
X16960593Y-11988098D02*
X16960593Y-11940479D01*
X16960593Y-11940479D02*
X16951069Y-11921432D01*
X16951069Y-11921432D02*
X16941545Y-11911908D01*
X16941545Y-11911908D02*
X16922497Y-11902384D01*
X16922497Y-11902384D02*
X16884402Y-11902384D01*
X16884402Y-11902384D02*
X16865355Y-11911908D01*
X16865355Y-11911908D02*
X16855831Y-11921432D01*
X16855831Y-11921432D02*
X16846307Y-11940479D01*
X17198688Y-12026194D02*
X17198688Y-11826194D01*
X17284402Y-12026194D02*
X17284402Y-11921432D01*
X17284402Y-11921432D02*
X17274878Y-11902384D01*
X17274878Y-11902384D02*
X17255831Y-11892860D01*
X17255831Y-11892860D02*
X17227259Y-11892860D01*
X17227259Y-11892860D02*
X17208212Y-11902384D01*
X17208212Y-11902384D02*
X17198688Y-11911908D01*
X17408212Y-12026194D02*
X17389164Y-12016670D01*
X17389164Y-12016670D02*
X17379640Y-12007146D01*
X17379640Y-12007146D02*
X17370117Y-11988098D01*
X17370117Y-11988098D02*
X17370117Y-11930956D01*
X17370117Y-11930956D02*
X17379640Y-11911908D01*
X17379640Y-11911908D02*
X17389164Y-11902384D01*
X17389164Y-11902384D02*
X17408212Y-11892860D01*
X17408212Y-11892860D02*
X17436783Y-11892860D01*
X17436783Y-11892860D02*
X17455831Y-11902384D01*
X17455831Y-11902384D02*
X17465355Y-11911908D01*
X17465355Y-11911908D02*
X17474878Y-11930956D01*
X17474878Y-11930956D02*
X17474878Y-11988098D01*
X17474878Y-11988098D02*
X17465355Y-12007146D01*
X17465355Y-12007146D02*
X17455831Y-12016670D01*
X17455831Y-12016670D02*
X17436783Y-12026194D01*
X17436783Y-12026194D02*
X17408212Y-12026194D01*
X17589164Y-12026194D02*
X17570117Y-12016670D01*
X17570117Y-12016670D02*
X17560593Y-11997622D01*
X17560593Y-11997622D02*
X17560593Y-11826194D01*
X17741545Y-12016670D02*
X17722498Y-12026194D01*
X17722498Y-12026194D02*
X17684402Y-12026194D01*
X17684402Y-12026194D02*
X17665355Y-12016670D01*
X17665355Y-12016670D02*
X17655831Y-11997622D01*
X17655831Y-11997622D02*
X17655831Y-11921432D01*
X17655831Y-11921432D02*
X17665355Y-11902384D01*
X17665355Y-11902384D02*
X17684402Y-11892860D01*
X17684402Y-11892860D02*
X17722498Y-11892860D01*
X17722498Y-11892860D02*
X17741545Y-11902384D01*
X17741545Y-11902384D02*
X17751069Y-11921432D01*
X17751069Y-11921432D02*
X17751069Y-11940479D01*
X17751069Y-11940479D02*
X17655831Y-11959527D01*
X17827259Y-12016670D02*
X17846307Y-12026194D01*
X17846307Y-12026194D02*
X17884402Y-12026194D01*
X17884402Y-12026194D02*
X17903450Y-12016670D01*
X17903450Y-12016670D02*
X17912974Y-11997622D01*
X17912974Y-11997622D02*
X17912974Y-11988098D01*
X17912974Y-11988098D02*
X17903450Y-11969051D01*
X17903450Y-11969051D02*
X17884402Y-11959527D01*
X17884402Y-11959527D02*
X17855831Y-11959527D01*
X17855831Y-11959527D02*
X17836783Y-11950003D01*
X17836783Y-11950003D02*
X17827259Y-11930956D01*
X17827259Y-11930956D02*
X17827259Y-11921432D01*
X17827259Y-11921432D02*
X17836783Y-11902384D01*
X17836783Y-11902384D02*
X17855831Y-11892860D01*
X17855831Y-11892860D02*
X17884402Y-11892860D01*
X17884402Y-11892860D02*
X17903450Y-11902384D01*
X17979640Y-12102384D02*
X17989164Y-12092860D01*
X17989164Y-12092860D02*
X18008212Y-12064289D01*
X18008212Y-12064289D02*
X18017736Y-12045241D01*
X18017736Y-12045241D02*
X18027259Y-12016670D01*
X18027259Y-12016670D02*
X18036783Y-11969051D01*
X18036783Y-11969051D02*
X18036783Y-11930956D01*
X18036783Y-11930956D02*
X18027259Y-11883337D01*
X18027259Y-11883337D02*
X18017736Y-11854765D01*
X18017736Y-11854765D02*
X18008212Y-11835718D01*
X18008212Y-11835718D02*
X17989164Y-11807146D01*
X17989164Y-11807146D02*
X17979640Y-11797622D01*
D12*
X12747625Y-12122710D02*
X12747625Y-12274710D01*
X12671625Y-12198710D02*
X12823625Y-12198710D01*
D11*
X13189164Y-12290194D02*
X13074878Y-12290194D01*
X13132021Y-12290194D02*
X13132021Y-12090194D01*
X13132021Y-12090194D02*
X13112973Y-12118765D01*
X13112973Y-12118765D02*
X13093926Y-12137813D01*
X13093926Y-12137813D02*
X13074878Y-12147337D01*
X13274878Y-12271146D02*
X13284402Y-12280670D01*
X13284402Y-12280670D02*
X13274878Y-12290194D01*
X13274878Y-12290194D02*
X13265354Y-12280670D01*
X13265354Y-12280670D02*
X13274878Y-12271146D01*
X13274878Y-12271146D02*
X13274878Y-12290194D01*
X13465354Y-12090194D02*
X13370116Y-12090194D01*
X13370116Y-12090194D02*
X13360592Y-12185432D01*
X13360592Y-12185432D02*
X13370116Y-12175908D01*
X13370116Y-12175908D02*
X13389164Y-12166384D01*
X13389164Y-12166384D02*
X13436783Y-12166384D01*
X13436783Y-12166384D02*
X13455830Y-12175908D01*
X13455830Y-12175908D02*
X13465354Y-12185432D01*
X13465354Y-12185432D02*
X13474878Y-12204479D01*
X13474878Y-12204479D02*
X13474878Y-12252098D01*
X13474878Y-12252098D02*
X13465354Y-12271146D01*
X13465354Y-12271146D02*
X13455830Y-12280670D01*
X13455830Y-12280670D02*
X13436783Y-12290194D01*
X13436783Y-12290194D02*
X13389164Y-12290194D01*
X13389164Y-12290194D02*
X13370116Y-12280670D01*
X13370116Y-12280670D02*
X13360592Y-12271146D01*
X13551068Y-12109241D02*
X13560592Y-12099718D01*
X13560592Y-12099718D02*
X13579640Y-12090194D01*
X13579640Y-12090194D02*
X13627259Y-12090194D01*
X13627259Y-12090194D02*
X13646307Y-12099718D01*
X13646307Y-12099718D02*
X13655830Y-12109241D01*
X13655830Y-12109241D02*
X13665354Y-12128289D01*
X13665354Y-12128289D02*
X13665354Y-12147337D01*
X13665354Y-12147337D02*
X13655830Y-12175908D01*
X13655830Y-12175908D02*
X13541545Y-12290194D01*
X13541545Y-12290194D02*
X13665354Y-12290194D01*
X13789164Y-12090194D02*
X13808211Y-12090194D01*
X13808211Y-12090194D02*
X13827259Y-12099718D01*
X13827259Y-12099718D02*
X13836783Y-12109241D01*
X13836783Y-12109241D02*
X13846307Y-12128289D01*
X13846307Y-12128289D02*
X13855830Y-12166384D01*
X13855830Y-12166384D02*
X13855830Y-12214003D01*
X13855830Y-12214003D02*
X13846307Y-12252098D01*
X13846307Y-12252098D02*
X13836783Y-12271146D01*
X13836783Y-12271146D02*
X13827259Y-12280670D01*
X13827259Y-12280670D02*
X13808211Y-12290194D01*
X13808211Y-12290194D02*
X13789164Y-12290194D01*
X13789164Y-12290194D02*
X13770116Y-12280670D01*
X13770116Y-12280670D02*
X13760592Y-12271146D01*
X13760592Y-12271146D02*
X13751068Y-12252098D01*
X13751068Y-12252098D02*
X13741545Y-12214003D01*
X13741545Y-12214003D02*
X13741545Y-12166384D01*
X13741545Y-12166384D02*
X13751068Y-12128289D01*
X13751068Y-12128289D02*
X13760592Y-12109241D01*
X13760592Y-12109241D02*
X13770116Y-12099718D01*
X13770116Y-12099718D02*
X13789164Y-12090194D01*
X13941545Y-12290194D02*
X13941545Y-12156860D01*
X13941545Y-12175908D02*
X13951068Y-12166384D01*
X13951068Y-12166384D02*
X13970116Y-12156860D01*
X13970116Y-12156860D02*
X13998688Y-12156860D01*
X13998688Y-12156860D02*
X14017735Y-12166384D01*
X14017735Y-12166384D02*
X14027259Y-12185432D01*
X14027259Y-12185432D02*
X14027259Y-12290194D01*
X14027259Y-12185432D02*
X14036783Y-12166384D01*
X14036783Y-12166384D02*
X14055830Y-12156860D01*
X14055830Y-12156860D02*
X14084402Y-12156860D01*
X14084402Y-12156860D02*
X14103449Y-12166384D01*
X14103449Y-12166384D02*
X14112973Y-12185432D01*
X14112973Y-12185432D02*
X14112973Y-12290194D01*
X14208211Y-12290194D02*
X14208211Y-12156860D01*
X14208211Y-12175908D02*
X14217735Y-12166384D01*
X14217735Y-12166384D02*
X14236783Y-12156860D01*
X14236783Y-12156860D02*
X14265354Y-12156860D01*
X14265354Y-12156860D02*
X14284402Y-12166384D01*
X14284402Y-12166384D02*
X14293926Y-12185432D01*
X14293926Y-12185432D02*
X14293926Y-12290194D01*
X14293926Y-12185432D02*
X14303449Y-12166384D01*
X14303449Y-12166384D02*
X14322497Y-12156860D01*
X14322497Y-12156860D02*
X14351068Y-12156860D01*
X14351068Y-12156860D02*
X14370116Y-12166384D01*
X14370116Y-12166384D02*
X14379640Y-12185432D01*
X14379640Y-12185432D02*
X14379640Y-12290194D01*
X14770116Y-12080670D02*
X14598688Y-12337813D01*
X15027259Y-12090194D02*
X15046307Y-12090194D01*
X15046307Y-12090194D02*
X15065354Y-12099718D01*
X15065354Y-12099718D02*
X15074878Y-12109241D01*
X15074878Y-12109241D02*
X15084402Y-12128289D01*
X15084402Y-12128289D02*
X15093926Y-12166384D01*
X15093926Y-12166384D02*
X15093926Y-12214003D01*
X15093926Y-12214003D02*
X15084402Y-12252098D01*
X15084402Y-12252098D02*
X15074878Y-12271146D01*
X15074878Y-12271146D02*
X15065354Y-12280670D01*
X15065354Y-12280670D02*
X15046307Y-12290194D01*
X15046307Y-12290194D02*
X15027259Y-12290194D01*
X15027259Y-12290194D02*
X15008211Y-12280670D01*
X15008211Y-12280670D02*
X14998688Y-12271146D01*
X14998688Y-12271146D02*
X14989164Y-12252098D01*
X14989164Y-12252098D02*
X14979640Y-12214003D01*
X14979640Y-12214003D02*
X14979640Y-12166384D01*
X14979640Y-12166384D02*
X14989164Y-12128289D01*
X14989164Y-12128289D02*
X14998688Y-12109241D01*
X14998688Y-12109241D02*
X15008211Y-12099718D01*
X15008211Y-12099718D02*
X15027259Y-12090194D01*
X15179640Y-12271146D02*
X15189164Y-12280670D01*
X15189164Y-12280670D02*
X15179640Y-12290194D01*
X15179640Y-12290194D02*
X15170116Y-12280670D01*
X15170116Y-12280670D02*
X15179640Y-12271146D01*
X15179640Y-12271146D02*
X15179640Y-12290194D01*
X15312973Y-12090194D02*
X15332021Y-12090194D01*
X15332021Y-12090194D02*
X15351069Y-12099718D01*
X15351069Y-12099718D02*
X15360592Y-12109241D01*
X15360592Y-12109241D02*
X15370116Y-12128289D01*
X15370116Y-12128289D02*
X15379640Y-12166384D01*
X15379640Y-12166384D02*
X15379640Y-12214003D01*
X15379640Y-12214003D02*
X15370116Y-12252098D01*
X15370116Y-12252098D02*
X15360592Y-12271146D01*
X15360592Y-12271146D02*
X15351069Y-12280670D01*
X15351069Y-12280670D02*
X15332021Y-12290194D01*
X15332021Y-12290194D02*
X15312973Y-12290194D01*
X15312973Y-12290194D02*
X15293926Y-12280670D01*
X15293926Y-12280670D02*
X15284402Y-12271146D01*
X15284402Y-12271146D02*
X15274878Y-12252098D01*
X15274878Y-12252098D02*
X15265354Y-12214003D01*
X15265354Y-12214003D02*
X15265354Y-12166384D01*
X15265354Y-12166384D02*
X15274878Y-12128289D01*
X15274878Y-12128289D02*
X15284402Y-12109241D01*
X15284402Y-12109241D02*
X15293926Y-12099718D01*
X15293926Y-12099718D02*
X15312973Y-12090194D01*
X15560592Y-12090194D02*
X15465354Y-12090194D01*
X15465354Y-12090194D02*
X15455831Y-12185432D01*
X15455831Y-12185432D02*
X15465354Y-12175908D01*
X15465354Y-12175908D02*
X15484402Y-12166384D01*
X15484402Y-12166384D02*
X15532021Y-12166384D01*
X15532021Y-12166384D02*
X15551069Y-12175908D01*
X15551069Y-12175908D02*
X15560592Y-12185432D01*
X15560592Y-12185432D02*
X15570116Y-12204479D01*
X15570116Y-12204479D02*
X15570116Y-12252098D01*
X15570116Y-12252098D02*
X15560592Y-12271146D01*
X15560592Y-12271146D02*
X15551069Y-12280670D01*
X15551069Y-12280670D02*
X15532021Y-12290194D01*
X15532021Y-12290194D02*
X15484402Y-12290194D01*
X15484402Y-12290194D02*
X15465354Y-12280670D01*
X15465354Y-12280670D02*
X15455831Y-12271146D01*
X15665354Y-12290194D02*
X15703450Y-12290194D01*
X15703450Y-12290194D02*
X15722497Y-12280670D01*
X15722497Y-12280670D02*
X15732021Y-12271146D01*
X15732021Y-12271146D02*
X15751069Y-12242575D01*
X15751069Y-12242575D02*
X15760592Y-12204479D01*
X15760592Y-12204479D02*
X15760592Y-12128289D01*
X15760592Y-12128289D02*
X15751069Y-12109241D01*
X15751069Y-12109241D02*
X15741545Y-12099718D01*
X15741545Y-12099718D02*
X15722497Y-12090194D01*
X15722497Y-12090194D02*
X15684402Y-12090194D01*
X15684402Y-12090194D02*
X15665354Y-12099718D01*
X15665354Y-12099718D02*
X15655831Y-12109241D01*
X15655831Y-12109241D02*
X15646307Y-12128289D01*
X15646307Y-12128289D02*
X15646307Y-12175908D01*
X15646307Y-12175908D02*
X15655831Y-12194956D01*
X15655831Y-12194956D02*
X15665354Y-12204479D01*
X15665354Y-12204479D02*
X15684402Y-12214003D01*
X15684402Y-12214003D02*
X15722497Y-12214003D01*
X15722497Y-12214003D02*
X15741545Y-12204479D01*
X15741545Y-12204479D02*
X15751069Y-12194956D01*
X15751069Y-12194956D02*
X15760592Y-12175908D01*
X15874878Y-12175908D02*
X15855831Y-12166384D01*
X15855831Y-12166384D02*
X15846307Y-12156860D01*
X15846307Y-12156860D02*
X15836783Y-12137813D01*
X15836783Y-12137813D02*
X15836783Y-12128289D01*
X15836783Y-12128289D02*
X15846307Y-12109241D01*
X15846307Y-12109241D02*
X15855831Y-12099718D01*
X15855831Y-12099718D02*
X15874878Y-12090194D01*
X15874878Y-12090194D02*
X15912973Y-12090194D01*
X15912973Y-12090194D02*
X15932021Y-12099718D01*
X15932021Y-12099718D02*
X15941545Y-12109241D01*
X15941545Y-12109241D02*
X15951069Y-12128289D01*
X15951069Y-12128289D02*
X15951069Y-12137813D01*
X15951069Y-12137813D02*
X15941545Y-12156860D01*
X15941545Y-12156860D02*
X15932021Y-12166384D01*
X15932021Y-12166384D02*
X15912973Y-12175908D01*
X15912973Y-12175908D02*
X15874878Y-12175908D01*
X15874878Y-12175908D02*
X15855831Y-12185432D01*
X15855831Y-12185432D02*
X15846307Y-12194956D01*
X15846307Y-12194956D02*
X15836783Y-12214003D01*
X15836783Y-12214003D02*
X15836783Y-12252098D01*
X15836783Y-12252098D02*
X15846307Y-12271146D01*
X15846307Y-12271146D02*
X15855831Y-12280670D01*
X15855831Y-12280670D02*
X15874878Y-12290194D01*
X15874878Y-12290194D02*
X15912973Y-12290194D01*
X15912973Y-12290194D02*
X15932021Y-12280670D01*
X15932021Y-12280670D02*
X15941545Y-12271146D01*
X15941545Y-12271146D02*
X15951069Y-12252098D01*
X15951069Y-12252098D02*
X15951069Y-12214003D01*
X15951069Y-12214003D02*
X15941545Y-12194956D01*
X15941545Y-12194956D02*
X15932021Y-12185432D01*
X15932021Y-12185432D02*
X15912973Y-12175908D01*
X16027259Y-12090194D02*
X16027259Y-12128289D01*
X16103450Y-12090194D02*
X16103450Y-12128289D01*
X16398688Y-12366384D02*
X16389164Y-12356860D01*
X16389164Y-12356860D02*
X16370116Y-12328289D01*
X16370116Y-12328289D02*
X16360593Y-12309241D01*
X16360593Y-12309241D02*
X16351069Y-12280670D01*
X16351069Y-12280670D02*
X16341545Y-12233051D01*
X16341545Y-12233051D02*
X16341545Y-12194956D01*
X16341545Y-12194956D02*
X16351069Y-12147337D01*
X16351069Y-12147337D02*
X16360593Y-12118765D01*
X16360593Y-12118765D02*
X16370116Y-12099718D01*
X16370116Y-12099718D02*
X16389164Y-12071146D01*
X16389164Y-12071146D02*
X16398688Y-12061622D01*
X16560593Y-12090194D02*
X16522497Y-12090194D01*
X16522497Y-12090194D02*
X16503450Y-12099718D01*
X16503450Y-12099718D02*
X16493926Y-12109241D01*
X16493926Y-12109241D02*
X16474878Y-12137813D01*
X16474878Y-12137813D02*
X16465354Y-12175908D01*
X16465354Y-12175908D02*
X16465354Y-12252098D01*
X16465354Y-12252098D02*
X16474878Y-12271146D01*
X16474878Y-12271146D02*
X16484402Y-12280670D01*
X16484402Y-12280670D02*
X16503450Y-12290194D01*
X16503450Y-12290194D02*
X16541545Y-12290194D01*
X16541545Y-12290194D02*
X16560593Y-12280670D01*
X16560593Y-12280670D02*
X16570116Y-12271146D01*
X16570116Y-12271146D02*
X16579640Y-12252098D01*
X16579640Y-12252098D02*
X16579640Y-12204479D01*
X16579640Y-12204479D02*
X16570116Y-12185432D01*
X16570116Y-12185432D02*
X16560593Y-12175908D01*
X16560593Y-12175908D02*
X16541545Y-12166384D01*
X16541545Y-12166384D02*
X16503450Y-12166384D01*
X16503450Y-12166384D02*
X16484402Y-12175908D01*
X16484402Y-12175908D02*
X16474878Y-12185432D01*
X16474878Y-12185432D02*
X16465354Y-12204479D01*
X16817736Y-12290194D02*
X16817736Y-12090194D01*
X16903450Y-12290194D02*
X16903450Y-12185432D01*
X16903450Y-12185432D02*
X16893926Y-12166384D01*
X16893926Y-12166384D02*
X16874878Y-12156860D01*
X16874878Y-12156860D02*
X16846307Y-12156860D01*
X16846307Y-12156860D02*
X16827259Y-12166384D01*
X16827259Y-12166384D02*
X16817736Y-12175908D01*
X17027259Y-12290194D02*
X17008212Y-12280670D01*
X17008212Y-12280670D02*
X16998688Y-12271146D01*
X16998688Y-12271146D02*
X16989164Y-12252098D01*
X16989164Y-12252098D02*
X16989164Y-12194956D01*
X16989164Y-12194956D02*
X16998688Y-12175908D01*
X16998688Y-12175908D02*
X17008212Y-12166384D01*
X17008212Y-12166384D02*
X17027259Y-12156860D01*
X17027259Y-12156860D02*
X17055831Y-12156860D01*
X17055831Y-12156860D02*
X17074878Y-12166384D01*
X17074878Y-12166384D02*
X17084402Y-12175908D01*
X17084402Y-12175908D02*
X17093926Y-12194956D01*
X17093926Y-12194956D02*
X17093926Y-12252098D01*
X17093926Y-12252098D02*
X17084402Y-12271146D01*
X17084402Y-12271146D02*
X17074878Y-12280670D01*
X17074878Y-12280670D02*
X17055831Y-12290194D01*
X17055831Y-12290194D02*
X17027259Y-12290194D01*
X17208212Y-12290194D02*
X17189164Y-12280670D01*
X17189164Y-12280670D02*
X17179640Y-12261622D01*
X17179640Y-12261622D02*
X17179640Y-12090194D01*
X17360593Y-12280670D02*
X17341545Y-12290194D01*
X17341545Y-12290194D02*
X17303450Y-12290194D01*
X17303450Y-12290194D02*
X17284402Y-12280670D01*
X17284402Y-12280670D02*
X17274878Y-12261622D01*
X17274878Y-12261622D02*
X17274878Y-12185432D01*
X17274878Y-12185432D02*
X17284402Y-12166384D01*
X17284402Y-12166384D02*
X17303450Y-12156860D01*
X17303450Y-12156860D02*
X17341545Y-12156860D01*
X17341545Y-12156860D02*
X17360593Y-12166384D01*
X17360593Y-12166384D02*
X17370117Y-12185432D01*
X17370117Y-12185432D02*
X17370117Y-12204479D01*
X17370117Y-12204479D02*
X17274878Y-12223527D01*
X17446307Y-12280670D02*
X17465355Y-12290194D01*
X17465355Y-12290194D02*
X17503450Y-12290194D01*
X17503450Y-12290194D02*
X17522498Y-12280670D01*
X17522498Y-12280670D02*
X17532021Y-12261622D01*
X17532021Y-12261622D02*
X17532021Y-12252098D01*
X17532021Y-12252098D02*
X17522498Y-12233051D01*
X17522498Y-12233051D02*
X17503450Y-12223527D01*
X17503450Y-12223527D02*
X17474878Y-12223527D01*
X17474878Y-12223527D02*
X17455831Y-12214003D01*
X17455831Y-12214003D02*
X17446307Y-12194956D01*
X17446307Y-12194956D02*
X17446307Y-12185432D01*
X17446307Y-12185432D02*
X17455831Y-12166384D01*
X17455831Y-12166384D02*
X17474878Y-12156860D01*
X17474878Y-12156860D02*
X17503450Y-12156860D01*
X17503450Y-12156860D02*
X17522498Y-12166384D01*
X17598688Y-12366384D02*
X17608212Y-12356860D01*
X17608212Y-12356860D02*
X17627259Y-12328289D01*
X17627259Y-12328289D02*
X17636783Y-12309241D01*
X17636783Y-12309241D02*
X17646307Y-12280670D01*
X17646307Y-12280670D02*
X17655831Y-12233051D01*
X17655831Y-12233051D02*
X17655831Y-12194956D01*
X17655831Y-12194956D02*
X17646307Y-12147337D01*
X17646307Y-12147337D02*
X17636783Y-12118765D01*
X17636783Y-12118765D02*
X17627259Y-12099718D01*
X17627259Y-12099718D02*
X17608212Y-12071146D01*
X17608212Y-12071146D02*
X17598688Y-12061622D01*
M02*
