%TF.GenerationSoftware,KiCad,Pcbnew,8.0.0-rc2-358-gd9abaa23a4*%
%TF.CreationDate,2024-02-08T22:48:49+01:00*%
%TF.ProjectId,xDuinoRail-Backplane-Arduino,78447569-6e6f-4526-9169-6c2d4261636b,rev?*%
%TF.SameCoordinates,Original*%
%TF.FileFunction,Soldermask,Top*%
%TF.FilePolarity,Negative*%
%FSLAX46Y46*%
G04 Gerber Fmt 4.6, Leading zero omitted, Abs format (unit mm)*
G04 Created by KiCad (PCBNEW 8.0.0-rc2-358-gd9abaa23a4) date 2024-02-08 22:48:49*
%MOMM*%
%LPD*%
G01*
G04 APERTURE LIST*
G04 Aperture macros list*
%AMRoundRect*
0 Rectangle with rounded corners*
0 $1 Rounding radius*
0 $2 $3 $4 $5 $6 $7 $8 $9 X,Y pos of 4 corners*
0 Add a 4 corners polygon primitive as box body*
4,1,4,$2,$3,$4,$5,$6,$7,$8,$9,$2,$3,0*
0 Add four circle primitives for the rounded corners*
1,1,$1+$1,$2,$3*
1,1,$1+$1,$4,$5*
1,1,$1+$1,$6,$7*
1,1,$1+$1,$8,$9*
0 Add four rect primitives between the rounded corners*
20,1,$1+$1,$2,$3,$4,$5,0*
20,1,$1+$1,$4,$5,$6,$7,0*
20,1,$1+$1,$6,$7,$8,$9,0*
20,1,$1+$1,$8,$9,$2,$3,0*%
G04 Aperture macros list end*
%ADD10R,3.000000X3.000000*%
%ADD11C,3.000000*%
%ADD12R,1.700000X1.700000*%
%ADD13O,1.700000X1.700000*%
%ADD14RoundRect,1.000000X0.000000X0.375000X0.000000X-0.375000X0.000000X-0.375000X0.000000X0.375000X0*%
%ADD15R,1.600000X1.600000*%
%ADD16O,1.600000X1.600000*%
G04 APERTURE END LIST*
D10*
%TO.C,J110*%
X130810000Y-100330000D03*
D11*
X130810000Y-105410000D03*
%TD*%
D12*
%TO.C,J101*%
X138430000Y-106045000D03*
D13*
X140970000Y-106045000D03*
X138430000Y-103505000D03*
X140970000Y-103505000D03*
X138430000Y-100965000D03*
X140970000Y-100965000D03*
X138430000Y-98425000D03*
X140970000Y-98425000D03*
X138430000Y-95885000D03*
X140970000Y-95885000D03*
X138430000Y-93345000D03*
X140970000Y-93345000D03*
X138430000Y-90805000D03*
X140970000Y-90805000D03*
X138430000Y-88265000D03*
X140970000Y-88265000D03*
X138430000Y-85725000D03*
X140970000Y-85725000D03*
X138430000Y-83185000D03*
X140970000Y-83185000D03*
X138430000Y-80645000D03*
X140970000Y-80645000D03*
X138430000Y-78105000D03*
X140970000Y-78105000D03*
X138430000Y-75565000D03*
X140970000Y-75565000D03*
X138430000Y-73025000D03*
X140970000Y-73025000D03*
X138430000Y-70485000D03*
X140970000Y-70485000D03*
X138430000Y-67945000D03*
X140970000Y-67945000D03*
X138430000Y-65405000D03*
X140970000Y-65405000D03*
X138430000Y-62865000D03*
X140970000Y-62865000D03*
%TD*%
D14*
%TO.C,U101*%
X225425000Y-92649600D03*
X222885000Y-92649600D03*
X220345000Y-92649600D03*
X217805000Y-92649600D03*
X215265000Y-92649600D03*
X212725000Y-92649600D03*
X210185000Y-92649600D03*
X210185000Y-108814600D03*
X212725000Y-108814600D03*
X215265000Y-108814600D03*
X217805000Y-108814600D03*
X220345000Y-108814600D03*
X222885000Y-108814600D03*
X225425000Y-108814600D03*
%TD*%
D12*
%TO.C,J106*%
X156133300Y-106045000D03*
D13*
X158673300Y-106045000D03*
X156133300Y-103505000D03*
X158673300Y-103505000D03*
X156133300Y-100965000D03*
X158673300Y-100965000D03*
X156133300Y-98425000D03*
X158673300Y-98425000D03*
X156133300Y-95885000D03*
X158673300Y-95885000D03*
X156133300Y-93345000D03*
X158673300Y-93345000D03*
X156133300Y-90805000D03*
X158673300Y-90805000D03*
X156133300Y-88265000D03*
X158673300Y-88265000D03*
X156133300Y-85725000D03*
X158673300Y-85725000D03*
X156133300Y-83185000D03*
X158673300Y-83185000D03*
X156133300Y-80645000D03*
X158673300Y-80645000D03*
X156133300Y-78105000D03*
X158673300Y-78105000D03*
X156133300Y-75565000D03*
X158673300Y-75565000D03*
X156133300Y-73025000D03*
X158673300Y-73025000D03*
X156133300Y-70485000D03*
X158673300Y-70485000D03*
X156133300Y-67945000D03*
X158673300Y-67945000D03*
X156133300Y-65405000D03*
X158673300Y-65405000D03*
X156133300Y-62865000D03*
X158673300Y-62865000D03*
%TD*%
D12*
%TO.C,J105*%
X163283300Y-106045000D03*
D13*
X165823300Y-106045000D03*
X163283300Y-103505000D03*
X165823300Y-103505000D03*
X163283300Y-100965000D03*
X165823300Y-100965000D03*
X163283300Y-98425000D03*
X165823300Y-98425000D03*
X163283300Y-95885000D03*
X165823300Y-95885000D03*
X163283300Y-93345000D03*
X165823300Y-93345000D03*
X163283300Y-90805000D03*
X165823300Y-90805000D03*
X163283300Y-88265000D03*
X165823300Y-88265000D03*
X163283300Y-85725000D03*
X165823300Y-85725000D03*
X163283300Y-83185000D03*
X165823300Y-83185000D03*
X163283300Y-80645000D03*
X165823300Y-80645000D03*
X163283300Y-78105000D03*
X165823300Y-78105000D03*
X163283300Y-75565000D03*
X165823300Y-75565000D03*
X163283300Y-73025000D03*
X165823300Y-73025000D03*
X163283300Y-70485000D03*
X165823300Y-70485000D03*
X163283300Y-67945000D03*
X165823300Y-67945000D03*
X163283300Y-65405000D03*
X165823300Y-65405000D03*
X163283300Y-62865000D03*
X165823300Y-62865000D03*
%TD*%
D10*
%TO.C,J108*%
X130810000Y-67310000D03*
D11*
X130810000Y-72390000D03*
%TD*%
D12*
%TO.C,J104*%
X170433300Y-106045000D03*
D13*
X172973300Y-106045000D03*
X170433300Y-103505000D03*
X172973300Y-103505000D03*
X170433300Y-100965000D03*
X172973300Y-100965000D03*
X170433300Y-98425000D03*
X172973300Y-98425000D03*
X170433300Y-95885000D03*
X172973300Y-95885000D03*
X170433300Y-93345000D03*
X172973300Y-93345000D03*
X170433300Y-90805000D03*
X172973300Y-90805000D03*
X170433300Y-88265000D03*
X172973300Y-88265000D03*
X170433300Y-85725000D03*
X172973300Y-85725000D03*
X170433300Y-83185000D03*
X172973300Y-83185000D03*
X170433300Y-80645000D03*
X172973300Y-80645000D03*
X170433300Y-78105000D03*
X172973300Y-78105000D03*
X170433300Y-75565000D03*
X172973300Y-75565000D03*
X170433300Y-73025000D03*
X172973300Y-73025000D03*
X170433300Y-70485000D03*
X172973300Y-70485000D03*
X170433300Y-67945000D03*
X172973300Y-67945000D03*
X170433300Y-65405000D03*
X172973300Y-65405000D03*
X170433300Y-62865000D03*
X172973300Y-62865000D03*
%TD*%
D12*
%TO.C,J102*%
X184733300Y-106045000D03*
D13*
X187273300Y-106045000D03*
X184733300Y-103505000D03*
X187273300Y-103505000D03*
X184733300Y-100965000D03*
X187273300Y-100965000D03*
X184733300Y-98425000D03*
X187273300Y-98425000D03*
X184733300Y-95885000D03*
X187273300Y-95885000D03*
X184733300Y-93345000D03*
X187273300Y-93345000D03*
X184733300Y-90805000D03*
X187273300Y-90805000D03*
X184733300Y-88265000D03*
X187273300Y-88265000D03*
X184733300Y-85725000D03*
X187273300Y-85725000D03*
X184733300Y-83185000D03*
X187273300Y-83185000D03*
X184733300Y-80645000D03*
X187273300Y-80645000D03*
X184733300Y-78105000D03*
X187273300Y-78105000D03*
X184733300Y-75565000D03*
X187273300Y-75565000D03*
X184733300Y-73025000D03*
X187273300Y-73025000D03*
X184733300Y-70485000D03*
X187273300Y-70485000D03*
X184733300Y-67945000D03*
X187273300Y-67945000D03*
X184733300Y-65405000D03*
X187273300Y-65405000D03*
X184733300Y-62865000D03*
X187273300Y-62865000D03*
%TD*%
D12*
%TO.C,J103*%
X177583300Y-106045000D03*
D13*
X180123300Y-106045000D03*
X177583300Y-103505000D03*
X180123300Y-103505000D03*
X177583300Y-100965000D03*
X180123300Y-100965000D03*
X177583300Y-98425000D03*
X180123300Y-98425000D03*
X177583300Y-95885000D03*
X180123300Y-95885000D03*
X177583300Y-93345000D03*
X180123300Y-93345000D03*
X177583300Y-90805000D03*
X180123300Y-90805000D03*
X177583300Y-88265000D03*
X180123300Y-88265000D03*
X177583300Y-85725000D03*
X180123300Y-85725000D03*
X177583300Y-83185000D03*
X180123300Y-83185000D03*
X177583300Y-80645000D03*
X180123300Y-80645000D03*
X177583300Y-78105000D03*
X180123300Y-78105000D03*
X177583300Y-75565000D03*
X180123300Y-75565000D03*
X177583300Y-73025000D03*
X180123300Y-73025000D03*
X177583300Y-70485000D03*
X180123300Y-70485000D03*
X177583300Y-67945000D03*
X180123300Y-67945000D03*
X177583300Y-65405000D03*
X180123300Y-65405000D03*
X177583300Y-62865000D03*
X180123300Y-62865000D03*
%TD*%
D14*
%TO.C,U102*%
X225425000Y-62169600D03*
X222885000Y-62169600D03*
X220345000Y-62169600D03*
X217805000Y-62169600D03*
X215265000Y-62169600D03*
X212725000Y-62169600D03*
X210185000Y-62169600D03*
X210185000Y-78334600D03*
X212725000Y-78334600D03*
X215265000Y-78334600D03*
X217805000Y-78334600D03*
X220345000Y-78334600D03*
X222885000Y-78334600D03*
X225425000Y-78334600D03*
%TD*%
D10*
%TO.C,J109*%
X130810000Y-83502500D03*
D11*
X130810000Y-88582500D03*
%TD*%
D15*
%TO.C,A101*%
X149225000Y-72640000D03*
D16*
X149225000Y-75180000D03*
X149225000Y-77720000D03*
X149225000Y-80260000D03*
X149225000Y-82800000D03*
X149225000Y-85340000D03*
X149225000Y-87880000D03*
X149225000Y-90420000D03*
X149225000Y-95500000D03*
X149225000Y-98040000D03*
X149225000Y-100580000D03*
X149225000Y-103120000D03*
X149225000Y-105660000D03*
X149225000Y-108200000D03*
X197485000Y-108200000D03*
X197485000Y-105660000D03*
X197485000Y-103120000D03*
X197485000Y-100580000D03*
X197485000Y-98040000D03*
X197485000Y-95500000D03*
X197485000Y-92960000D03*
X197485000Y-90420000D03*
X197485000Y-86360000D03*
X197485000Y-83820000D03*
X197485000Y-81280000D03*
X197485000Y-78740000D03*
X197485000Y-76200000D03*
X197485000Y-73660000D03*
X197485000Y-71120000D03*
X197485000Y-68580000D03*
X197485000Y-66040000D03*
X197485000Y-63500000D03*
%TD*%
M02*
