%TF.GenerationSoftware,KiCad,Pcbnew,8.0.0-rc2-358-gd9abaa23a4*%
%TF.CreationDate,2024-02-08T22:48:53+01:00*%
%TF.ProjectId,xDuinoRail-Backplane-Arduino,78447569-6e6f-4526-9169-6c2d4261636b,rev?*%
%TF.SameCoordinates,Original*%
%TF.FileFunction,Drillmap*%
%TF.FilePolarity,Positive*%
%FSLAX45Y45*%
G04 Gerber Fmt 4.5, Leading zero omitted, Abs format (unit mm)*
G04 Created by KiCad (PCBNEW 8.0.0-rc2-358-gd9abaa23a4) date 2024-02-08 22:48:53*
%MOMM*%
%LPD*%
G01*
G04 APERTURE LIST*
%ADD10C,0.100000*%
%ADD11C,0.200000*%
G04 APERTURE END LIST*
D10*
X12828625Y-6025710D02*
X22828625Y-6025710D01*
X22828625Y-11025710D01*
X12828625Y-11025710D01*
X12828625Y-6025710D01*
D11*
X13084402Y-11342194D02*
X13084402Y-11142194D01*
X13084402Y-11142194D02*
X13132021Y-11142194D01*
X13132021Y-11142194D02*
X13160592Y-11151718D01*
X13160592Y-11151718D02*
X13179640Y-11170765D01*
X13179640Y-11170765D02*
X13189164Y-11189813D01*
X13189164Y-11189813D02*
X13198687Y-11227908D01*
X13198687Y-11227908D02*
X13198687Y-11256479D01*
X13198687Y-11256479D02*
X13189164Y-11294575D01*
X13189164Y-11294575D02*
X13179640Y-11313622D01*
X13179640Y-11313622D02*
X13160592Y-11332670D01*
X13160592Y-11332670D02*
X13132021Y-11342194D01*
X13132021Y-11342194D02*
X13084402Y-11342194D01*
X13284402Y-11342194D02*
X13284402Y-11208860D01*
X13284402Y-11246956D02*
X13293926Y-11227908D01*
X13293926Y-11227908D02*
X13303449Y-11218384D01*
X13303449Y-11218384D02*
X13322497Y-11208860D01*
X13322497Y-11208860D02*
X13341545Y-11208860D01*
X13408211Y-11342194D02*
X13408211Y-11208860D01*
X13408211Y-11142194D02*
X13398687Y-11151718D01*
X13398687Y-11151718D02*
X13408211Y-11161241D01*
X13408211Y-11161241D02*
X13417735Y-11151718D01*
X13417735Y-11151718D02*
X13408211Y-11142194D01*
X13408211Y-11142194D02*
X13408211Y-11161241D01*
X13532021Y-11342194D02*
X13512973Y-11332670D01*
X13512973Y-11332670D02*
X13503449Y-11313622D01*
X13503449Y-11313622D02*
X13503449Y-11142194D01*
X13636783Y-11342194D02*
X13617735Y-11332670D01*
X13617735Y-11332670D02*
X13608211Y-11313622D01*
X13608211Y-11313622D02*
X13608211Y-11142194D01*
X13865354Y-11342194D02*
X13865354Y-11142194D01*
X13865354Y-11142194D02*
X13932021Y-11285051D01*
X13932021Y-11285051D02*
X13998687Y-11142194D01*
X13998687Y-11142194D02*
X13998687Y-11342194D01*
X14179640Y-11342194D02*
X14179640Y-11237432D01*
X14179640Y-11237432D02*
X14170116Y-11218384D01*
X14170116Y-11218384D02*
X14151068Y-11208860D01*
X14151068Y-11208860D02*
X14112973Y-11208860D01*
X14112973Y-11208860D02*
X14093926Y-11218384D01*
X14179640Y-11332670D02*
X14160592Y-11342194D01*
X14160592Y-11342194D02*
X14112973Y-11342194D01*
X14112973Y-11342194D02*
X14093926Y-11332670D01*
X14093926Y-11332670D02*
X14084402Y-11313622D01*
X14084402Y-11313622D02*
X14084402Y-11294575D01*
X14084402Y-11294575D02*
X14093926Y-11275527D01*
X14093926Y-11275527D02*
X14112973Y-11266003D01*
X14112973Y-11266003D02*
X14160592Y-11266003D01*
X14160592Y-11266003D02*
X14179640Y-11256479D01*
X14274878Y-11208860D02*
X14274878Y-11408860D01*
X14274878Y-11218384D02*
X14293926Y-11208860D01*
X14293926Y-11208860D02*
X14332021Y-11208860D01*
X14332021Y-11208860D02*
X14351068Y-11218384D01*
X14351068Y-11218384D02*
X14360592Y-11227908D01*
X14360592Y-11227908D02*
X14370116Y-11246956D01*
X14370116Y-11246956D02*
X14370116Y-11304098D01*
X14370116Y-11304098D02*
X14360592Y-11323146D01*
X14360592Y-11323146D02*
X14351068Y-11332670D01*
X14351068Y-11332670D02*
X14332021Y-11342194D01*
X14332021Y-11342194D02*
X14293926Y-11342194D01*
X14293926Y-11342194D02*
X14274878Y-11332670D01*
X14455830Y-11323146D02*
X14465354Y-11332670D01*
X14465354Y-11332670D02*
X14455830Y-11342194D01*
X14455830Y-11342194D02*
X14446307Y-11332670D01*
X14446307Y-11332670D02*
X14455830Y-11323146D01*
X14455830Y-11323146D02*
X14455830Y-11342194D01*
X14455830Y-11218384D02*
X14465354Y-11227908D01*
X14465354Y-11227908D02*
X14455830Y-11237432D01*
X14455830Y-11237432D02*
X14446307Y-11227908D01*
X14446307Y-11227908D02*
X14455830Y-11218384D01*
X14455830Y-11218384D02*
X14455830Y-11237432D01*
M02*
