%TF.GenerationSoftware,KiCad,Pcbnew,8.0.0-rc2-358-gd9abaa23a4*%
%TF.CreationDate,2024-02-08T22:48:49+01:00*%
%TF.ProjectId,xDuinoRail-Backplane-Arduino,78447569-6e6f-4526-9169-6c2d4261636b,rev?*%
%TF.SameCoordinates,Original*%
%TF.FileFunction,Legend,Top*%
%TF.FilePolarity,Positive*%
%FSLAX46Y46*%
G04 Gerber Fmt 4.6, Leading zero omitted, Abs format (unit mm)*
G04 Created by KiCad (PCBNEW 8.0.0-rc2-358-gd9abaa23a4) date 2024-02-08 22:48:49*
%MOMM*%
%LPD*%
G01*
G04 APERTURE LIST*
%ADD10C,0.200000*%
%ADD11C,0.150000*%
%ADD12C,0.120000*%
%ADD13C,0.127000*%
G04 APERTURE END LIST*
D10*
X129393720Y-63941028D02*
X129393720Y-62441028D01*
X129393720Y-62441028D02*
X129750863Y-62441028D01*
X129750863Y-62441028D02*
X129965149Y-62512457D01*
X129965149Y-62512457D02*
X130108006Y-62655314D01*
X130108006Y-62655314D02*
X130179435Y-62798171D01*
X130179435Y-62798171D02*
X130250863Y-63083885D01*
X130250863Y-63083885D02*
X130250863Y-63298171D01*
X130250863Y-63298171D02*
X130179435Y-63583885D01*
X130179435Y-63583885D02*
X130108006Y-63726742D01*
X130108006Y-63726742D02*
X129965149Y-63869600D01*
X129965149Y-63869600D02*
X129750863Y-63941028D01*
X129750863Y-63941028D02*
X129393720Y-63941028D01*
X131750863Y-63798171D02*
X131679435Y-63869600D01*
X131679435Y-63869600D02*
X131465149Y-63941028D01*
X131465149Y-63941028D02*
X131322292Y-63941028D01*
X131322292Y-63941028D02*
X131108006Y-63869600D01*
X131108006Y-63869600D02*
X130965149Y-63726742D01*
X130965149Y-63726742D02*
X130893720Y-63583885D01*
X130893720Y-63583885D02*
X130822292Y-63298171D01*
X130822292Y-63298171D02*
X130822292Y-63083885D01*
X130822292Y-63083885D02*
X130893720Y-62798171D01*
X130893720Y-62798171D02*
X130965149Y-62655314D01*
X130965149Y-62655314D02*
X131108006Y-62512457D01*
X131108006Y-62512457D02*
X131322292Y-62441028D01*
X131322292Y-62441028D02*
X131465149Y-62441028D01*
X131465149Y-62441028D02*
X131679435Y-62512457D01*
X131679435Y-62512457D02*
X131750863Y-62583885D01*
X133250863Y-63798171D02*
X133179435Y-63869600D01*
X133179435Y-63869600D02*
X132965149Y-63941028D01*
X132965149Y-63941028D02*
X132822292Y-63941028D01*
X132822292Y-63941028D02*
X132608006Y-63869600D01*
X132608006Y-63869600D02*
X132465149Y-63726742D01*
X132465149Y-63726742D02*
X132393720Y-63583885D01*
X132393720Y-63583885D02*
X132322292Y-63298171D01*
X132322292Y-63298171D02*
X132322292Y-63083885D01*
X132322292Y-63083885D02*
X132393720Y-62798171D01*
X132393720Y-62798171D02*
X132465149Y-62655314D01*
X132465149Y-62655314D02*
X132608006Y-62512457D01*
X132608006Y-62512457D02*
X132822292Y-62441028D01*
X132822292Y-62441028D02*
X132965149Y-62441028D01*
X132965149Y-62441028D02*
X133179435Y-62512457D01*
X133179435Y-62512457D02*
X133250863Y-62583885D01*
X128544435Y-94826028D02*
X129401578Y-94826028D01*
X128973006Y-96326028D02*
X128973006Y-94826028D01*
X129901577Y-96326028D02*
X129901577Y-95326028D01*
X129901577Y-95611742D02*
X129973006Y-95468885D01*
X129973006Y-95468885D02*
X130044435Y-95397457D01*
X130044435Y-95397457D02*
X130187292Y-95326028D01*
X130187292Y-95326028D02*
X130330149Y-95326028D01*
X131473006Y-96326028D02*
X131473006Y-95540314D01*
X131473006Y-95540314D02*
X131401577Y-95397457D01*
X131401577Y-95397457D02*
X131258720Y-95326028D01*
X131258720Y-95326028D02*
X130973006Y-95326028D01*
X130973006Y-95326028D02*
X130830148Y-95397457D01*
X131473006Y-96254600D02*
X131330148Y-96326028D01*
X131330148Y-96326028D02*
X130973006Y-96326028D01*
X130973006Y-96326028D02*
X130830148Y-96254600D01*
X130830148Y-96254600D02*
X130758720Y-96111742D01*
X130758720Y-96111742D02*
X130758720Y-95968885D01*
X130758720Y-95968885D02*
X130830148Y-95826028D01*
X130830148Y-95826028D02*
X130973006Y-95754600D01*
X130973006Y-95754600D02*
X131330148Y-95754600D01*
X131330148Y-95754600D02*
X131473006Y-95683171D01*
X132830149Y-96254600D02*
X132687291Y-96326028D01*
X132687291Y-96326028D02*
X132401577Y-96326028D01*
X132401577Y-96326028D02*
X132258720Y-96254600D01*
X132258720Y-96254600D02*
X132187291Y-96183171D01*
X132187291Y-96183171D02*
X132115863Y-96040314D01*
X132115863Y-96040314D02*
X132115863Y-95611742D01*
X132115863Y-95611742D02*
X132187291Y-95468885D01*
X132187291Y-95468885D02*
X132258720Y-95397457D01*
X132258720Y-95397457D02*
X132401577Y-95326028D01*
X132401577Y-95326028D02*
X132687291Y-95326028D01*
X132687291Y-95326028D02*
X132830149Y-95397457D01*
X133473005Y-96326028D02*
X133473005Y-94826028D01*
X133615863Y-95754600D02*
X134044434Y-96326028D01*
X134044434Y-95326028D02*
X133473005Y-95897457D01*
X136330148Y-95540314D02*
X136544434Y-95611742D01*
X136544434Y-95611742D02*
X136615863Y-95683171D01*
X136615863Y-95683171D02*
X136687291Y-95826028D01*
X136687291Y-95826028D02*
X136687291Y-96040314D01*
X136687291Y-96040314D02*
X136615863Y-96183171D01*
X136615863Y-96183171D02*
X136544434Y-96254600D01*
X136544434Y-96254600D02*
X136401577Y-96326028D01*
X136401577Y-96326028D02*
X135830148Y-96326028D01*
X135830148Y-96326028D02*
X135830148Y-94826028D01*
X135830148Y-94826028D02*
X136330148Y-94826028D01*
X136330148Y-94826028D02*
X136473006Y-94897457D01*
X136473006Y-94897457D02*
X136544434Y-94968885D01*
X136544434Y-94968885D02*
X136615863Y-95111742D01*
X136615863Y-95111742D02*
X136615863Y-95254600D01*
X136615863Y-95254600D02*
X136544434Y-95397457D01*
X136544434Y-95397457D02*
X136473006Y-95468885D01*
X136473006Y-95468885D02*
X136330148Y-95540314D01*
X136330148Y-95540314D02*
X135830148Y-95540314D01*
X128544435Y-78316028D02*
X129401578Y-78316028D01*
X128973006Y-79816028D02*
X128973006Y-78316028D01*
X129901577Y-79816028D02*
X129901577Y-78816028D01*
X129901577Y-79101742D02*
X129973006Y-78958885D01*
X129973006Y-78958885D02*
X130044435Y-78887457D01*
X130044435Y-78887457D02*
X130187292Y-78816028D01*
X130187292Y-78816028D02*
X130330149Y-78816028D01*
X131473006Y-79816028D02*
X131473006Y-79030314D01*
X131473006Y-79030314D02*
X131401577Y-78887457D01*
X131401577Y-78887457D02*
X131258720Y-78816028D01*
X131258720Y-78816028D02*
X130973006Y-78816028D01*
X130973006Y-78816028D02*
X130830148Y-78887457D01*
X131473006Y-79744600D02*
X131330148Y-79816028D01*
X131330148Y-79816028D02*
X130973006Y-79816028D01*
X130973006Y-79816028D02*
X130830148Y-79744600D01*
X130830148Y-79744600D02*
X130758720Y-79601742D01*
X130758720Y-79601742D02*
X130758720Y-79458885D01*
X130758720Y-79458885D02*
X130830148Y-79316028D01*
X130830148Y-79316028D02*
X130973006Y-79244600D01*
X130973006Y-79244600D02*
X131330148Y-79244600D01*
X131330148Y-79244600D02*
X131473006Y-79173171D01*
X132830149Y-79744600D02*
X132687291Y-79816028D01*
X132687291Y-79816028D02*
X132401577Y-79816028D01*
X132401577Y-79816028D02*
X132258720Y-79744600D01*
X132258720Y-79744600D02*
X132187291Y-79673171D01*
X132187291Y-79673171D02*
X132115863Y-79530314D01*
X132115863Y-79530314D02*
X132115863Y-79101742D01*
X132115863Y-79101742D02*
X132187291Y-78958885D01*
X132187291Y-78958885D02*
X132258720Y-78887457D01*
X132258720Y-78887457D02*
X132401577Y-78816028D01*
X132401577Y-78816028D02*
X132687291Y-78816028D01*
X132687291Y-78816028D02*
X132830149Y-78887457D01*
X133473005Y-79816028D02*
X133473005Y-78316028D01*
X133615863Y-79244600D02*
X134044434Y-79816028D01*
X134044434Y-78816028D02*
X133473005Y-79387457D01*
X135758720Y-79387457D02*
X136473006Y-79387457D01*
X135615863Y-79816028D02*
X136115863Y-78316028D01*
X136115863Y-78316028D02*
X136615863Y-79816028D01*
X209880063Y-88878128D02*
X210880063Y-90378128D01*
X210880063Y-88878128D02*
X209880063Y-90378128D01*
X211451491Y-90378128D02*
X211451491Y-88878128D01*
X212094349Y-89949557D02*
X212808635Y-89949557D01*
X211951492Y-90378128D02*
X212451492Y-88878128D01*
X212451492Y-88878128D02*
X212951492Y-90378128D01*
X213737206Y-88878128D02*
X214022920Y-88878128D01*
X214022920Y-88878128D02*
X214165777Y-88949557D01*
X214165777Y-88949557D02*
X214308634Y-89092414D01*
X214308634Y-89092414D02*
X214380063Y-89378128D01*
X214380063Y-89378128D02*
X214380063Y-89878128D01*
X214380063Y-89878128D02*
X214308634Y-90163842D01*
X214308634Y-90163842D02*
X214165777Y-90306700D01*
X214165777Y-90306700D02*
X214022920Y-90378128D01*
X214022920Y-90378128D02*
X213737206Y-90378128D01*
X213737206Y-90378128D02*
X213594349Y-90306700D01*
X213594349Y-90306700D02*
X213451491Y-90163842D01*
X213451491Y-90163842D02*
X213380063Y-89878128D01*
X213380063Y-89878128D02*
X213380063Y-89378128D01*
X213380063Y-89378128D02*
X213451491Y-89092414D01*
X213451491Y-89092414D02*
X213594349Y-88949557D01*
X213594349Y-88949557D02*
X213737206Y-88878128D01*
X215022920Y-89806700D02*
X216165778Y-89806700D01*
X216880063Y-90378128D02*
X216880063Y-88878128D01*
X216880063Y-88878128D02*
X217237206Y-88878128D01*
X217237206Y-88878128D02*
X217451492Y-88949557D01*
X217451492Y-88949557D02*
X217594349Y-89092414D01*
X217594349Y-89092414D02*
X217665778Y-89235271D01*
X217665778Y-89235271D02*
X217737206Y-89520985D01*
X217737206Y-89520985D02*
X217737206Y-89735271D01*
X217737206Y-89735271D02*
X217665778Y-90020985D01*
X217665778Y-90020985D02*
X217594349Y-90163842D01*
X217594349Y-90163842D02*
X217451492Y-90306700D01*
X217451492Y-90306700D02*
X217237206Y-90378128D01*
X217237206Y-90378128D02*
X216880063Y-90378128D01*
X218951492Y-90306700D02*
X218808635Y-90378128D01*
X218808635Y-90378128D02*
X218522921Y-90378128D01*
X218522921Y-90378128D02*
X218380063Y-90306700D01*
X218380063Y-90306700D02*
X218308635Y-90163842D01*
X218308635Y-90163842D02*
X218308635Y-89592414D01*
X218308635Y-89592414D02*
X218380063Y-89449557D01*
X218380063Y-89449557D02*
X218522921Y-89378128D01*
X218522921Y-89378128D02*
X218808635Y-89378128D01*
X218808635Y-89378128D02*
X218951492Y-89449557D01*
X218951492Y-89449557D02*
X219022921Y-89592414D01*
X219022921Y-89592414D02*
X219022921Y-89735271D01*
X219022921Y-89735271D02*
X218308635Y-89878128D01*
X220308635Y-90306700D02*
X220165777Y-90378128D01*
X220165777Y-90378128D02*
X219880063Y-90378128D01*
X219880063Y-90378128D02*
X219737206Y-90306700D01*
X219737206Y-90306700D02*
X219665777Y-90235271D01*
X219665777Y-90235271D02*
X219594349Y-90092414D01*
X219594349Y-90092414D02*
X219594349Y-89663842D01*
X219594349Y-89663842D02*
X219665777Y-89520985D01*
X219665777Y-89520985D02*
X219737206Y-89449557D01*
X219737206Y-89449557D02*
X219880063Y-89378128D01*
X219880063Y-89378128D02*
X220165777Y-89378128D01*
X220165777Y-89378128D02*
X220308635Y-89449557D01*
X221165777Y-90378128D02*
X221022920Y-90306700D01*
X221022920Y-90306700D02*
X220951491Y-90235271D01*
X220951491Y-90235271D02*
X220880063Y-90092414D01*
X220880063Y-90092414D02*
X220880063Y-89663842D01*
X220880063Y-89663842D02*
X220951491Y-89520985D01*
X220951491Y-89520985D02*
X221022920Y-89449557D01*
X221022920Y-89449557D02*
X221165777Y-89378128D01*
X221165777Y-89378128D02*
X221380063Y-89378128D01*
X221380063Y-89378128D02*
X221522920Y-89449557D01*
X221522920Y-89449557D02*
X221594349Y-89520985D01*
X221594349Y-89520985D02*
X221665777Y-89663842D01*
X221665777Y-89663842D02*
X221665777Y-90092414D01*
X221665777Y-90092414D02*
X221594349Y-90235271D01*
X221594349Y-90235271D02*
X221522920Y-90306700D01*
X221522920Y-90306700D02*
X221380063Y-90378128D01*
X221380063Y-90378128D02*
X221165777Y-90378128D01*
X222951492Y-90378128D02*
X222951492Y-88878128D01*
X222951492Y-90306700D02*
X222808634Y-90378128D01*
X222808634Y-90378128D02*
X222522920Y-90378128D01*
X222522920Y-90378128D02*
X222380063Y-90306700D01*
X222380063Y-90306700D02*
X222308634Y-90235271D01*
X222308634Y-90235271D02*
X222237206Y-90092414D01*
X222237206Y-90092414D02*
X222237206Y-89663842D01*
X222237206Y-89663842D02*
X222308634Y-89520985D01*
X222308634Y-89520985D02*
X222380063Y-89449557D01*
X222380063Y-89449557D02*
X222522920Y-89378128D01*
X222522920Y-89378128D02*
X222808634Y-89378128D01*
X222808634Y-89378128D02*
X222951492Y-89449557D01*
X224237206Y-90306700D02*
X224094349Y-90378128D01*
X224094349Y-90378128D02*
X223808635Y-90378128D01*
X223808635Y-90378128D02*
X223665777Y-90306700D01*
X223665777Y-90306700D02*
X223594349Y-90163842D01*
X223594349Y-90163842D02*
X223594349Y-89592414D01*
X223594349Y-89592414D02*
X223665777Y-89449557D01*
X223665777Y-89449557D02*
X223808635Y-89378128D01*
X223808635Y-89378128D02*
X224094349Y-89378128D01*
X224094349Y-89378128D02*
X224237206Y-89449557D01*
X224237206Y-89449557D02*
X224308635Y-89592414D01*
X224308635Y-89592414D02*
X224308635Y-89735271D01*
X224308635Y-89735271D02*
X223594349Y-89878128D01*
X224951491Y-90378128D02*
X224951491Y-89378128D01*
X224951491Y-89663842D02*
X225022920Y-89520985D01*
X225022920Y-89520985D02*
X225094349Y-89449557D01*
X225094349Y-89449557D02*
X225237206Y-89378128D01*
X225237206Y-89378128D02*
X225380063Y-89378128D01*
X209880063Y-80623128D02*
X210880063Y-82123128D01*
X210880063Y-80623128D02*
X209880063Y-82123128D01*
X211451491Y-82123128D02*
X211451491Y-80623128D01*
X212094349Y-81694557D02*
X212808635Y-81694557D01*
X211951492Y-82123128D02*
X212451492Y-80623128D01*
X212451492Y-80623128D02*
X212951492Y-82123128D01*
X213737206Y-80623128D02*
X214022920Y-80623128D01*
X214022920Y-80623128D02*
X214165777Y-80694557D01*
X214165777Y-80694557D02*
X214308634Y-80837414D01*
X214308634Y-80837414D02*
X214380063Y-81123128D01*
X214380063Y-81123128D02*
X214380063Y-81623128D01*
X214380063Y-81623128D02*
X214308634Y-81908842D01*
X214308634Y-81908842D02*
X214165777Y-82051700D01*
X214165777Y-82051700D02*
X214022920Y-82123128D01*
X214022920Y-82123128D02*
X213737206Y-82123128D01*
X213737206Y-82123128D02*
X213594349Y-82051700D01*
X213594349Y-82051700D02*
X213451491Y-81908842D01*
X213451491Y-81908842D02*
X213380063Y-81623128D01*
X213380063Y-81623128D02*
X213380063Y-81123128D01*
X213380063Y-81123128D02*
X213451491Y-80837414D01*
X213451491Y-80837414D02*
X213594349Y-80694557D01*
X213594349Y-80694557D02*
X213737206Y-80623128D01*
X215022920Y-81551700D02*
X216165778Y-81551700D01*
X217737206Y-81980271D02*
X217665778Y-82051700D01*
X217665778Y-82051700D02*
X217451492Y-82123128D01*
X217451492Y-82123128D02*
X217308635Y-82123128D01*
X217308635Y-82123128D02*
X217094349Y-82051700D01*
X217094349Y-82051700D02*
X216951492Y-81908842D01*
X216951492Y-81908842D02*
X216880063Y-81765985D01*
X216880063Y-81765985D02*
X216808635Y-81480271D01*
X216808635Y-81480271D02*
X216808635Y-81265985D01*
X216808635Y-81265985D02*
X216880063Y-80980271D01*
X216880063Y-80980271D02*
X216951492Y-80837414D01*
X216951492Y-80837414D02*
X217094349Y-80694557D01*
X217094349Y-80694557D02*
X217308635Y-80623128D01*
X217308635Y-80623128D02*
X217451492Y-80623128D01*
X217451492Y-80623128D02*
X217665778Y-80694557D01*
X217665778Y-80694557D02*
X217737206Y-80765985D01*
X218951492Y-82051700D02*
X218808635Y-82123128D01*
X218808635Y-82123128D02*
X218522921Y-82123128D01*
X218522921Y-82123128D02*
X218380063Y-82051700D01*
X218380063Y-82051700D02*
X218308635Y-81908842D01*
X218308635Y-81908842D02*
X218308635Y-81337414D01*
X218308635Y-81337414D02*
X218380063Y-81194557D01*
X218380063Y-81194557D02*
X218522921Y-81123128D01*
X218522921Y-81123128D02*
X218808635Y-81123128D01*
X218808635Y-81123128D02*
X218951492Y-81194557D01*
X218951492Y-81194557D02*
X219022921Y-81337414D01*
X219022921Y-81337414D02*
X219022921Y-81480271D01*
X219022921Y-81480271D02*
X218308635Y-81623128D01*
X219665777Y-81123128D02*
X219665777Y-82123128D01*
X219665777Y-81265985D02*
X219737206Y-81194557D01*
X219737206Y-81194557D02*
X219880063Y-81123128D01*
X219880063Y-81123128D02*
X220094349Y-81123128D01*
X220094349Y-81123128D02*
X220237206Y-81194557D01*
X220237206Y-81194557D02*
X220308635Y-81337414D01*
X220308635Y-81337414D02*
X220308635Y-82123128D01*
X220808635Y-81123128D02*
X221380063Y-81123128D01*
X221022920Y-80623128D02*
X221022920Y-81908842D01*
X221022920Y-81908842D02*
X221094349Y-82051700D01*
X221094349Y-82051700D02*
X221237206Y-82123128D01*
X221237206Y-82123128D02*
X221380063Y-82123128D01*
X221880063Y-82123128D02*
X221880063Y-81123128D01*
X221880063Y-81408842D02*
X221951492Y-81265985D01*
X221951492Y-81265985D02*
X222022921Y-81194557D01*
X222022921Y-81194557D02*
X222165778Y-81123128D01*
X222165778Y-81123128D02*
X222308635Y-81123128D01*
X223451492Y-82123128D02*
X223451492Y-81337414D01*
X223451492Y-81337414D02*
X223380063Y-81194557D01*
X223380063Y-81194557D02*
X223237206Y-81123128D01*
X223237206Y-81123128D02*
X222951492Y-81123128D01*
X222951492Y-81123128D02*
X222808634Y-81194557D01*
X223451492Y-82051700D02*
X223308634Y-82123128D01*
X223308634Y-82123128D02*
X222951492Y-82123128D01*
X222951492Y-82123128D02*
X222808634Y-82051700D01*
X222808634Y-82051700D02*
X222737206Y-81908842D01*
X222737206Y-81908842D02*
X222737206Y-81765985D01*
X222737206Y-81765985D02*
X222808634Y-81623128D01*
X222808634Y-81623128D02*
X222951492Y-81551700D01*
X222951492Y-81551700D02*
X223308634Y-81551700D01*
X223308634Y-81551700D02*
X223451492Y-81480271D01*
X224380063Y-82123128D02*
X224237206Y-82051700D01*
X224237206Y-82051700D02*
X224165777Y-81908842D01*
X224165777Y-81908842D02*
X224165777Y-80623128D01*
D11*
X135344819Y-104155714D02*
X136059104Y-104155714D01*
X136059104Y-104155714D02*
X136201961Y-104203333D01*
X136201961Y-104203333D02*
X136297200Y-104298571D01*
X136297200Y-104298571D02*
X136344819Y-104441428D01*
X136344819Y-104441428D02*
X136344819Y-104536666D01*
X136344819Y-103155714D02*
X136344819Y-103727142D01*
X136344819Y-103441428D02*
X135344819Y-103441428D01*
X135344819Y-103441428D02*
X135487676Y-103536666D01*
X135487676Y-103536666D02*
X135582914Y-103631904D01*
X135582914Y-103631904D02*
X135630533Y-103727142D01*
X136344819Y-102203333D02*
X136344819Y-102774761D01*
X136344819Y-102489047D02*
X135344819Y-102489047D01*
X135344819Y-102489047D02*
X135487676Y-102584285D01*
X135487676Y-102584285D02*
X135582914Y-102679523D01*
X135582914Y-102679523D02*
X135630533Y-102774761D01*
X135344819Y-101584285D02*
X135344819Y-101489047D01*
X135344819Y-101489047D02*
X135392438Y-101393809D01*
X135392438Y-101393809D02*
X135440057Y-101346190D01*
X135440057Y-101346190D02*
X135535295Y-101298571D01*
X135535295Y-101298571D02*
X135725771Y-101250952D01*
X135725771Y-101250952D02*
X135963866Y-101250952D01*
X135963866Y-101250952D02*
X136154342Y-101298571D01*
X136154342Y-101298571D02*
X136249580Y-101346190D01*
X136249580Y-101346190D02*
X136297200Y-101393809D01*
X136297200Y-101393809D02*
X136344819Y-101489047D01*
X136344819Y-101489047D02*
X136344819Y-101584285D01*
X136344819Y-101584285D02*
X136297200Y-101679523D01*
X136297200Y-101679523D02*
X136249580Y-101727142D01*
X136249580Y-101727142D02*
X136154342Y-101774761D01*
X136154342Y-101774761D02*
X135963866Y-101822380D01*
X135963866Y-101822380D02*
X135725771Y-101822380D01*
X135725771Y-101822380D02*
X135535295Y-101774761D01*
X135535295Y-101774761D02*
X135440057Y-101727142D01*
X135440057Y-101727142D02*
X135392438Y-101679523D01*
X135392438Y-101679523D02*
X135344819Y-101584285D01*
X138414285Y-108269819D02*
X138414285Y-108984104D01*
X138414285Y-108984104D02*
X138366666Y-109126961D01*
X138366666Y-109126961D02*
X138271428Y-109222200D01*
X138271428Y-109222200D02*
X138128571Y-109269819D01*
X138128571Y-109269819D02*
X138033333Y-109269819D01*
X139414285Y-109269819D02*
X138842857Y-109269819D01*
X139128571Y-109269819D02*
X139128571Y-108269819D01*
X139128571Y-108269819D02*
X139033333Y-108412676D01*
X139033333Y-108412676D02*
X138938095Y-108507914D01*
X138938095Y-108507914D02*
X138842857Y-108555533D01*
X140033333Y-108269819D02*
X140128571Y-108269819D01*
X140128571Y-108269819D02*
X140223809Y-108317438D01*
X140223809Y-108317438D02*
X140271428Y-108365057D01*
X140271428Y-108365057D02*
X140319047Y-108460295D01*
X140319047Y-108460295D02*
X140366666Y-108650771D01*
X140366666Y-108650771D02*
X140366666Y-108888866D01*
X140366666Y-108888866D02*
X140319047Y-109079342D01*
X140319047Y-109079342D02*
X140271428Y-109174580D01*
X140271428Y-109174580D02*
X140223809Y-109222200D01*
X140223809Y-109222200D02*
X140128571Y-109269819D01*
X140128571Y-109269819D02*
X140033333Y-109269819D01*
X140033333Y-109269819D02*
X139938095Y-109222200D01*
X139938095Y-109222200D02*
X139890476Y-109174580D01*
X139890476Y-109174580D02*
X139842857Y-109079342D01*
X139842857Y-109079342D02*
X139795238Y-108888866D01*
X139795238Y-108888866D02*
X139795238Y-108650771D01*
X139795238Y-108650771D02*
X139842857Y-108460295D01*
X139842857Y-108460295D02*
X139890476Y-108365057D01*
X139890476Y-108365057D02*
X139938095Y-108317438D01*
X139938095Y-108317438D02*
X140033333Y-108269819D01*
X141319047Y-109269819D02*
X140747619Y-109269819D01*
X141033333Y-109269819D02*
X141033333Y-108269819D01*
X141033333Y-108269819D02*
X140938095Y-108412676D01*
X140938095Y-108412676D02*
X140842857Y-108507914D01*
X140842857Y-108507914D02*
X140747619Y-108555533D01*
X228701533Y-102349100D02*
X229268200Y-102349100D01*
X229268200Y-102349100D02*
X229334866Y-102315767D01*
X229334866Y-102315767D02*
X229368200Y-102282433D01*
X229368200Y-102282433D02*
X229401533Y-102215767D01*
X229401533Y-102215767D02*
X229401533Y-102082433D01*
X229401533Y-102082433D02*
X229368200Y-102015767D01*
X229368200Y-102015767D02*
X229334866Y-101982433D01*
X229334866Y-101982433D02*
X229268200Y-101949100D01*
X229268200Y-101949100D02*
X228701533Y-101949100D01*
X229401533Y-101249100D02*
X229401533Y-101649100D01*
X229401533Y-101449100D02*
X228701533Y-101449100D01*
X228701533Y-101449100D02*
X228801533Y-101515767D01*
X228801533Y-101515767D02*
X228868200Y-101582434D01*
X228868200Y-101582434D02*
X228901533Y-101649100D01*
X228701533Y-100815767D02*
X228701533Y-100749100D01*
X228701533Y-100749100D02*
X228734866Y-100682433D01*
X228734866Y-100682433D02*
X228768200Y-100649100D01*
X228768200Y-100649100D02*
X228834866Y-100615767D01*
X228834866Y-100615767D02*
X228968200Y-100582433D01*
X228968200Y-100582433D02*
X229134866Y-100582433D01*
X229134866Y-100582433D02*
X229268200Y-100615767D01*
X229268200Y-100615767D02*
X229334866Y-100649100D01*
X229334866Y-100649100D02*
X229368200Y-100682433D01*
X229368200Y-100682433D02*
X229401533Y-100749100D01*
X229401533Y-100749100D02*
X229401533Y-100815767D01*
X229401533Y-100815767D02*
X229368200Y-100882433D01*
X229368200Y-100882433D02*
X229334866Y-100915767D01*
X229334866Y-100915767D02*
X229268200Y-100949100D01*
X229268200Y-100949100D02*
X229134866Y-100982433D01*
X229134866Y-100982433D02*
X228968200Y-100982433D01*
X228968200Y-100982433D02*
X228834866Y-100949100D01*
X228834866Y-100949100D02*
X228768200Y-100915767D01*
X228768200Y-100915767D02*
X228734866Y-100882433D01*
X228734866Y-100882433D02*
X228701533Y-100815767D01*
X229401533Y-99915766D02*
X229401533Y-100315766D01*
X229401533Y-100115766D02*
X228701533Y-100115766D01*
X228701533Y-100115766D02*
X228801533Y-100182433D01*
X228801533Y-100182433D02*
X228868200Y-100249100D01*
X228868200Y-100249100D02*
X228901533Y-100315766D01*
X156117585Y-108269819D02*
X156117585Y-108984104D01*
X156117585Y-108984104D02*
X156069966Y-109126961D01*
X156069966Y-109126961D02*
X155974728Y-109222200D01*
X155974728Y-109222200D02*
X155831871Y-109269819D01*
X155831871Y-109269819D02*
X155736633Y-109269819D01*
X157117585Y-109269819D02*
X156546157Y-109269819D01*
X156831871Y-109269819D02*
X156831871Y-108269819D01*
X156831871Y-108269819D02*
X156736633Y-108412676D01*
X156736633Y-108412676D02*
X156641395Y-108507914D01*
X156641395Y-108507914D02*
X156546157Y-108555533D01*
X157736633Y-108269819D02*
X157831871Y-108269819D01*
X157831871Y-108269819D02*
X157927109Y-108317438D01*
X157927109Y-108317438D02*
X157974728Y-108365057D01*
X157974728Y-108365057D02*
X158022347Y-108460295D01*
X158022347Y-108460295D02*
X158069966Y-108650771D01*
X158069966Y-108650771D02*
X158069966Y-108888866D01*
X158069966Y-108888866D02*
X158022347Y-109079342D01*
X158022347Y-109079342D02*
X157974728Y-109174580D01*
X157974728Y-109174580D02*
X157927109Y-109222200D01*
X157927109Y-109222200D02*
X157831871Y-109269819D01*
X157831871Y-109269819D02*
X157736633Y-109269819D01*
X157736633Y-109269819D02*
X157641395Y-109222200D01*
X157641395Y-109222200D02*
X157593776Y-109174580D01*
X157593776Y-109174580D02*
X157546157Y-109079342D01*
X157546157Y-109079342D02*
X157498538Y-108888866D01*
X157498538Y-108888866D02*
X157498538Y-108650771D01*
X157498538Y-108650771D02*
X157546157Y-108460295D01*
X157546157Y-108460295D02*
X157593776Y-108365057D01*
X157593776Y-108365057D02*
X157641395Y-108317438D01*
X157641395Y-108317438D02*
X157736633Y-108269819D01*
X158927109Y-108269819D02*
X158736633Y-108269819D01*
X158736633Y-108269819D02*
X158641395Y-108317438D01*
X158641395Y-108317438D02*
X158593776Y-108365057D01*
X158593776Y-108365057D02*
X158498538Y-108507914D01*
X158498538Y-108507914D02*
X158450919Y-108698390D01*
X158450919Y-108698390D02*
X158450919Y-109079342D01*
X158450919Y-109079342D02*
X158498538Y-109174580D01*
X158498538Y-109174580D02*
X158546157Y-109222200D01*
X158546157Y-109222200D02*
X158641395Y-109269819D01*
X158641395Y-109269819D02*
X158831871Y-109269819D01*
X158831871Y-109269819D02*
X158927109Y-109222200D01*
X158927109Y-109222200D02*
X158974728Y-109174580D01*
X158974728Y-109174580D02*
X159022347Y-109079342D01*
X159022347Y-109079342D02*
X159022347Y-108841247D01*
X159022347Y-108841247D02*
X158974728Y-108746009D01*
X158974728Y-108746009D02*
X158927109Y-108698390D01*
X158927109Y-108698390D02*
X158831871Y-108650771D01*
X158831871Y-108650771D02*
X158641395Y-108650771D01*
X158641395Y-108650771D02*
X158546157Y-108698390D01*
X158546157Y-108698390D02*
X158498538Y-108746009D01*
X158498538Y-108746009D02*
X158450919Y-108841247D01*
X163267585Y-108269819D02*
X163267585Y-108984104D01*
X163267585Y-108984104D02*
X163219966Y-109126961D01*
X163219966Y-109126961D02*
X163124728Y-109222200D01*
X163124728Y-109222200D02*
X162981871Y-109269819D01*
X162981871Y-109269819D02*
X162886633Y-109269819D01*
X164267585Y-109269819D02*
X163696157Y-109269819D01*
X163981871Y-109269819D02*
X163981871Y-108269819D01*
X163981871Y-108269819D02*
X163886633Y-108412676D01*
X163886633Y-108412676D02*
X163791395Y-108507914D01*
X163791395Y-108507914D02*
X163696157Y-108555533D01*
X164886633Y-108269819D02*
X164981871Y-108269819D01*
X164981871Y-108269819D02*
X165077109Y-108317438D01*
X165077109Y-108317438D02*
X165124728Y-108365057D01*
X165124728Y-108365057D02*
X165172347Y-108460295D01*
X165172347Y-108460295D02*
X165219966Y-108650771D01*
X165219966Y-108650771D02*
X165219966Y-108888866D01*
X165219966Y-108888866D02*
X165172347Y-109079342D01*
X165172347Y-109079342D02*
X165124728Y-109174580D01*
X165124728Y-109174580D02*
X165077109Y-109222200D01*
X165077109Y-109222200D02*
X164981871Y-109269819D01*
X164981871Y-109269819D02*
X164886633Y-109269819D01*
X164886633Y-109269819D02*
X164791395Y-109222200D01*
X164791395Y-109222200D02*
X164743776Y-109174580D01*
X164743776Y-109174580D02*
X164696157Y-109079342D01*
X164696157Y-109079342D02*
X164648538Y-108888866D01*
X164648538Y-108888866D02*
X164648538Y-108650771D01*
X164648538Y-108650771D02*
X164696157Y-108460295D01*
X164696157Y-108460295D02*
X164743776Y-108365057D01*
X164743776Y-108365057D02*
X164791395Y-108317438D01*
X164791395Y-108317438D02*
X164886633Y-108269819D01*
X166124728Y-108269819D02*
X165648538Y-108269819D01*
X165648538Y-108269819D02*
X165600919Y-108746009D01*
X165600919Y-108746009D02*
X165648538Y-108698390D01*
X165648538Y-108698390D02*
X165743776Y-108650771D01*
X165743776Y-108650771D02*
X165981871Y-108650771D01*
X165981871Y-108650771D02*
X166077109Y-108698390D01*
X166077109Y-108698390D02*
X166124728Y-108746009D01*
X166124728Y-108746009D02*
X166172347Y-108841247D01*
X166172347Y-108841247D02*
X166172347Y-109079342D01*
X166172347Y-109079342D02*
X166124728Y-109174580D01*
X166124728Y-109174580D02*
X166077109Y-109222200D01*
X166077109Y-109222200D02*
X165981871Y-109269819D01*
X165981871Y-109269819D02*
X165743776Y-109269819D01*
X165743776Y-109269819D02*
X165648538Y-109222200D01*
X165648538Y-109222200D02*
X165600919Y-109174580D01*
X135344819Y-71135714D02*
X136059104Y-71135714D01*
X136059104Y-71135714D02*
X136201961Y-71183333D01*
X136201961Y-71183333D02*
X136297200Y-71278571D01*
X136297200Y-71278571D02*
X136344819Y-71421428D01*
X136344819Y-71421428D02*
X136344819Y-71516666D01*
X136344819Y-70135714D02*
X136344819Y-70707142D01*
X136344819Y-70421428D02*
X135344819Y-70421428D01*
X135344819Y-70421428D02*
X135487676Y-70516666D01*
X135487676Y-70516666D02*
X135582914Y-70611904D01*
X135582914Y-70611904D02*
X135630533Y-70707142D01*
X135344819Y-69516666D02*
X135344819Y-69421428D01*
X135344819Y-69421428D02*
X135392438Y-69326190D01*
X135392438Y-69326190D02*
X135440057Y-69278571D01*
X135440057Y-69278571D02*
X135535295Y-69230952D01*
X135535295Y-69230952D02*
X135725771Y-69183333D01*
X135725771Y-69183333D02*
X135963866Y-69183333D01*
X135963866Y-69183333D02*
X136154342Y-69230952D01*
X136154342Y-69230952D02*
X136249580Y-69278571D01*
X136249580Y-69278571D02*
X136297200Y-69326190D01*
X136297200Y-69326190D02*
X136344819Y-69421428D01*
X136344819Y-69421428D02*
X136344819Y-69516666D01*
X136344819Y-69516666D02*
X136297200Y-69611904D01*
X136297200Y-69611904D02*
X136249580Y-69659523D01*
X136249580Y-69659523D02*
X136154342Y-69707142D01*
X136154342Y-69707142D02*
X135963866Y-69754761D01*
X135963866Y-69754761D02*
X135725771Y-69754761D01*
X135725771Y-69754761D02*
X135535295Y-69707142D01*
X135535295Y-69707142D02*
X135440057Y-69659523D01*
X135440057Y-69659523D02*
X135392438Y-69611904D01*
X135392438Y-69611904D02*
X135344819Y-69516666D01*
X135773390Y-68611904D02*
X135725771Y-68707142D01*
X135725771Y-68707142D02*
X135678152Y-68754761D01*
X135678152Y-68754761D02*
X135582914Y-68802380D01*
X135582914Y-68802380D02*
X135535295Y-68802380D01*
X135535295Y-68802380D02*
X135440057Y-68754761D01*
X135440057Y-68754761D02*
X135392438Y-68707142D01*
X135392438Y-68707142D02*
X135344819Y-68611904D01*
X135344819Y-68611904D02*
X135344819Y-68421428D01*
X135344819Y-68421428D02*
X135392438Y-68326190D01*
X135392438Y-68326190D02*
X135440057Y-68278571D01*
X135440057Y-68278571D02*
X135535295Y-68230952D01*
X135535295Y-68230952D02*
X135582914Y-68230952D01*
X135582914Y-68230952D02*
X135678152Y-68278571D01*
X135678152Y-68278571D02*
X135725771Y-68326190D01*
X135725771Y-68326190D02*
X135773390Y-68421428D01*
X135773390Y-68421428D02*
X135773390Y-68611904D01*
X135773390Y-68611904D02*
X135821009Y-68707142D01*
X135821009Y-68707142D02*
X135868628Y-68754761D01*
X135868628Y-68754761D02*
X135963866Y-68802380D01*
X135963866Y-68802380D02*
X136154342Y-68802380D01*
X136154342Y-68802380D02*
X136249580Y-68754761D01*
X136249580Y-68754761D02*
X136297200Y-68707142D01*
X136297200Y-68707142D02*
X136344819Y-68611904D01*
X136344819Y-68611904D02*
X136344819Y-68421428D01*
X136344819Y-68421428D02*
X136297200Y-68326190D01*
X136297200Y-68326190D02*
X136249580Y-68278571D01*
X136249580Y-68278571D02*
X136154342Y-68230952D01*
X136154342Y-68230952D02*
X135963866Y-68230952D01*
X135963866Y-68230952D02*
X135868628Y-68278571D01*
X135868628Y-68278571D02*
X135821009Y-68326190D01*
X135821009Y-68326190D02*
X135773390Y-68421428D01*
X170417585Y-108269819D02*
X170417585Y-108984104D01*
X170417585Y-108984104D02*
X170369966Y-109126961D01*
X170369966Y-109126961D02*
X170274728Y-109222200D01*
X170274728Y-109222200D02*
X170131871Y-109269819D01*
X170131871Y-109269819D02*
X170036633Y-109269819D01*
X171417585Y-109269819D02*
X170846157Y-109269819D01*
X171131871Y-109269819D02*
X171131871Y-108269819D01*
X171131871Y-108269819D02*
X171036633Y-108412676D01*
X171036633Y-108412676D02*
X170941395Y-108507914D01*
X170941395Y-108507914D02*
X170846157Y-108555533D01*
X172036633Y-108269819D02*
X172131871Y-108269819D01*
X172131871Y-108269819D02*
X172227109Y-108317438D01*
X172227109Y-108317438D02*
X172274728Y-108365057D01*
X172274728Y-108365057D02*
X172322347Y-108460295D01*
X172322347Y-108460295D02*
X172369966Y-108650771D01*
X172369966Y-108650771D02*
X172369966Y-108888866D01*
X172369966Y-108888866D02*
X172322347Y-109079342D01*
X172322347Y-109079342D02*
X172274728Y-109174580D01*
X172274728Y-109174580D02*
X172227109Y-109222200D01*
X172227109Y-109222200D02*
X172131871Y-109269819D01*
X172131871Y-109269819D02*
X172036633Y-109269819D01*
X172036633Y-109269819D02*
X171941395Y-109222200D01*
X171941395Y-109222200D02*
X171893776Y-109174580D01*
X171893776Y-109174580D02*
X171846157Y-109079342D01*
X171846157Y-109079342D02*
X171798538Y-108888866D01*
X171798538Y-108888866D02*
X171798538Y-108650771D01*
X171798538Y-108650771D02*
X171846157Y-108460295D01*
X171846157Y-108460295D02*
X171893776Y-108365057D01*
X171893776Y-108365057D02*
X171941395Y-108317438D01*
X171941395Y-108317438D02*
X172036633Y-108269819D01*
X173227109Y-108603152D02*
X173227109Y-109269819D01*
X172989014Y-108222200D02*
X172750919Y-108936485D01*
X172750919Y-108936485D02*
X173369966Y-108936485D01*
X184717585Y-108269819D02*
X184717585Y-108984104D01*
X184717585Y-108984104D02*
X184669966Y-109126961D01*
X184669966Y-109126961D02*
X184574728Y-109222200D01*
X184574728Y-109222200D02*
X184431871Y-109269819D01*
X184431871Y-109269819D02*
X184336633Y-109269819D01*
X185717585Y-109269819D02*
X185146157Y-109269819D01*
X185431871Y-109269819D02*
X185431871Y-108269819D01*
X185431871Y-108269819D02*
X185336633Y-108412676D01*
X185336633Y-108412676D02*
X185241395Y-108507914D01*
X185241395Y-108507914D02*
X185146157Y-108555533D01*
X186336633Y-108269819D02*
X186431871Y-108269819D01*
X186431871Y-108269819D02*
X186527109Y-108317438D01*
X186527109Y-108317438D02*
X186574728Y-108365057D01*
X186574728Y-108365057D02*
X186622347Y-108460295D01*
X186622347Y-108460295D02*
X186669966Y-108650771D01*
X186669966Y-108650771D02*
X186669966Y-108888866D01*
X186669966Y-108888866D02*
X186622347Y-109079342D01*
X186622347Y-109079342D02*
X186574728Y-109174580D01*
X186574728Y-109174580D02*
X186527109Y-109222200D01*
X186527109Y-109222200D02*
X186431871Y-109269819D01*
X186431871Y-109269819D02*
X186336633Y-109269819D01*
X186336633Y-109269819D02*
X186241395Y-109222200D01*
X186241395Y-109222200D02*
X186193776Y-109174580D01*
X186193776Y-109174580D02*
X186146157Y-109079342D01*
X186146157Y-109079342D02*
X186098538Y-108888866D01*
X186098538Y-108888866D02*
X186098538Y-108650771D01*
X186098538Y-108650771D02*
X186146157Y-108460295D01*
X186146157Y-108460295D02*
X186193776Y-108365057D01*
X186193776Y-108365057D02*
X186241395Y-108317438D01*
X186241395Y-108317438D02*
X186336633Y-108269819D01*
X187050919Y-108365057D02*
X187098538Y-108317438D01*
X187098538Y-108317438D02*
X187193776Y-108269819D01*
X187193776Y-108269819D02*
X187431871Y-108269819D01*
X187431871Y-108269819D02*
X187527109Y-108317438D01*
X187527109Y-108317438D02*
X187574728Y-108365057D01*
X187574728Y-108365057D02*
X187622347Y-108460295D01*
X187622347Y-108460295D02*
X187622347Y-108555533D01*
X187622347Y-108555533D02*
X187574728Y-108698390D01*
X187574728Y-108698390D02*
X187003300Y-109269819D01*
X187003300Y-109269819D02*
X187622347Y-109269819D01*
X177567585Y-108269819D02*
X177567585Y-108984104D01*
X177567585Y-108984104D02*
X177519966Y-109126961D01*
X177519966Y-109126961D02*
X177424728Y-109222200D01*
X177424728Y-109222200D02*
X177281871Y-109269819D01*
X177281871Y-109269819D02*
X177186633Y-109269819D01*
X178567585Y-109269819D02*
X177996157Y-109269819D01*
X178281871Y-109269819D02*
X178281871Y-108269819D01*
X178281871Y-108269819D02*
X178186633Y-108412676D01*
X178186633Y-108412676D02*
X178091395Y-108507914D01*
X178091395Y-108507914D02*
X177996157Y-108555533D01*
X179186633Y-108269819D02*
X179281871Y-108269819D01*
X179281871Y-108269819D02*
X179377109Y-108317438D01*
X179377109Y-108317438D02*
X179424728Y-108365057D01*
X179424728Y-108365057D02*
X179472347Y-108460295D01*
X179472347Y-108460295D02*
X179519966Y-108650771D01*
X179519966Y-108650771D02*
X179519966Y-108888866D01*
X179519966Y-108888866D02*
X179472347Y-109079342D01*
X179472347Y-109079342D02*
X179424728Y-109174580D01*
X179424728Y-109174580D02*
X179377109Y-109222200D01*
X179377109Y-109222200D02*
X179281871Y-109269819D01*
X179281871Y-109269819D02*
X179186633Y-109269819D01*
X179186633Y-109269819D02*
X179091395Y-109222200D01*
X179091395Y-109222200D02*
X179043776Y-109174580D01*
X179043776Y-109174580D02*
X178996157Y-109079342D01*
X178996157Y-109079342D02*
X178948538Y-108888866D01*
X178948538Y-108888866D02*
X178948538Y-108650771D01*
X178948538Y-108650771D02*
X178996157Y-108460295D01*
X178996157Y-108460295D02*
X179043776Y-108365057D01*
X179043776Y-108365057D02*
X179091395Y-108317438D01*
X179091395Y-108317438D02*
X179186633Y-108269819D01*
X179853300Y-108269819D02*
X180472347Y-108269819D01*
X180472347Y-108269819D02*
X180139014Y-108650771D01*
X180139014Y-108650771D02*
X180281871Y-108650771D01*
X180281871Y-108650771D02*
X180377109Y-108698390D01*
X180377109Y-108698390D02*
X180424728Y-108746009D01*
X180424728Y-108746009D02*
X180472347Y-108841247D01*
X180472347Y-108841247D02*
X180472347Y-109079342D01*
X180472347Y-109079342D02*
X180424728Y-109174580D01*
X180424728Y-109174580D02*
X180377109Y-109222200D01*
X180377109Y-109222200D02*
X180281871Y-109269819D01*
X180281871Y-109269819D02*
X179996157Y-109269819D01*
X179996157Y-109269819D02*
X179900919Y-109222200D01*
X179900919Y-109222200D02*
X179853300Y-109174580D01*
X228701533Y-71869100D02*
X229268200Y-71869100D01*
X229268200Y-71869100D02*
X229334866Y-71835767D01*
X229334866Y-71835767D02*
X229368200Y-71802433D01*
X229368200Y-71802433D02*
X229401533Y-71735767D01*
X229401533Y-71735767D02*
X229401533Y-71602433D01*
X229401533Y-71602433D02*
X229368200Y-71535767D01*
X229368200Y-71535767D02*
X229334866Y-71502433D01*
X229334866Y-71502433D02*
X229268200Y-71469100D01*
X229268200Y-71469100D02*
X228701533Y-71469100D01*
X229401533Y-70769100D02*
X229401533Y-71169100D01*
X229401533Y-70969100D02*
X228701533Y-70969100D01*
X228701533Y-70969100D02*
X228801533Y-71035767D01*
X228801533Y-71035767D02*
X228868200Y-71102434D01*
X228868200Y-71102434D02*
X228901533Y-71169100D01*
X228701533Y-70335767D02*
X228701533Y-70269100D01*
X228701533Y-70269100D02*
X228734866Y-70202433D01*
X228734866Y-70202433D02*
X228768200Y-70169100D01*
X228768200Y-70169100D02*
X228834866Y-70135767D01*
X228834866Y-70135767D02*
X228968200Y-70102433D01*
X228968200Y-70102433D02*
X229134866Y-70102433D01*
X229134866Y-70102433D02*
X229268200Y-70135767D01*
X229268200Y-70135767D02*
X229334866Y-70169100D01*
X229334866Y-70169100D02*
X229368200Y-70202433D01*
X229368200Y-70202433D02*
X229401533Y-70269100D01*
X229401533Y-70269100D02*
X229401533Y-70335767D01*
X229401533Y-70335767D02*
X229368200Y-70402433D01*
X229368200Y-70402433D02*
X229334866Y-70435767D01*
X229334866Y-70435767D02*
X229268200Y-70469100D01*
X229268200Y-70469100D02*
X229134866Y-70502433D01*
X229134866Y-70502433D02*
X228968200Y-70502433D01*
X228968200Y-70502433D02*
X228834866Y-70469100D01*
X228834866Y-70469100D02*
X228768200Y-70435767D01*
X228768200Y-70435767D02*
X228734866Y-70402433D01*
X228734866Y-70402433D02*
X228701533Y-70335767D01*
X228768200Y-69835766D02*
X228734866Y-69802433D01*
X228734866Y-69802433D02*
X228701533Y-69735766D01*
X228701533Y-69735766D02*
X228701533Y-69569100D01*
X228701533Y-69569100D02*
X228734866Y-69502433D01*
X228734866Y-69502433D02*
X228768200Y-69469100D01*
X228768200Y-69469100D02*
X228834866Y-69435766D01*
X228834866Y-69435766D02*
X228901533Y-69435766D01*
X228901533Y-69435766D02*
X229001533Y-69469100D01*
X229001533Y-69469100D02*
X229401533Y-69869100D01*
X229401533Y-69869100D02*
X229401533Y-69435766D01*
X135344819Y-87328214D02*
X136059104Y-87328214D01*
X136059104Y-87328214D02*
X136201961Y-87375833D01*
X136201961Y-87375833D02*
X136297200Y-87471071D01*
X136297200Y-87471071D02*
X136344819Y-87613928D01*
X136344819Y-87613928D02*
X136344819Y-87709166D01*
X136344819Y-86328214D02*
X136344819Y-86899642D01*
X136344819Y-86613928D02*
X135344819Y-86613928D01*
X135344819Y-86613928D02*
X135487676Y-86709166D01*
X135487676Y-86709166D02*
X135582914Y-86804404D01*
X135582914Y-86804404D02*
X135630533Y-86899642D01*
X135344819Y-85709166D02*
X135344819Y-85613928D01*
X135344819Y-85613928D02*
X135392438Y-85518690D01*
X135392438Y-85518690D02*
X135440057Y-85471071D01*
X135440057Y-85471071D02*
X135535295Y-85423452D01*
X135535295Y-85423452D02*
X135725771Y-85375833D01*
X135725771Y-85375833D02*
X135963866Y-85375833D01*
X135963866Y-85375833D02*
X136154342Y-85423452D01*
X136154342Y-85423452D02*
X136249580Y-85471071D01*
X136249580Y-85471071D02*
X136297200Y-85518690D01*
X136297200Y-85518690D02*
X136344819Y-85613928D01*
X136344819Y-85613928D02*
X136344819Y-85709166D01*
X136344819Y-85709166D02*
X136297200Y-85804404D01*
X136297200Y-85804404D02*
X136249580Y-85852023D01*
X136249580Y-85852023D02*
X136154342Y-85899642D01*
X136154342Y-85899642D02*
X135963866Y-85947261D01*
X135963866Y-85947261D02*
X135725771Y-85947261D01*
X135725771Y-85947261D02*
X135535295Y-85899642D01*
X135535295Y-85899642D02*
X135440057Y-85852023D01*
X135440057Y-85852023D02*
X135392438Y-85804404D01*
X135392438Y-85804404D02*
X135344819Y-85709166D01*
X136344819Y-84899642D02*
X136344819Y-84709166D01*
X136344819Y-84709166D02*
X136297200Y-84613928D01*
X136297200Y-84613928D02*
X136249580Y-84566309D01*
X136249580Y-84566309D02*
X136106723Y-84471071D01*
X136106723Y-84471071D02*
X135916247Y-84423452D01*
X135916247Y-84423452D02*
X135535295Y-84423452D01*
X135535295Y-84423452D02*
X135440057Y-84471071D01*
X135440057Y-84471071D02*
X135392438Y-84518690D01*
X135392438Y-84518690D02*
X135344819Y-84613928D01*
X135344819Y-84613928D02*
X135344819Y-84804404D01*
X135344819Y-84804404D02*
X135392438Y-84899642D01*
X135392438Y-84899642D02*
X135440057Y-84947261D01*
X135440057Y-84947261D02*
X135535295Y-84994880D01*
X135535295Y-84994880D02*
X135773390Y-84994880D01*
X135773390Y-84994880D02*
X135868628Y-84947261D01*
X135868628Y-84947261D02*
X135916247Y-84899642D01*
X135916247Y-84899642D02*
X135963866Y-84804404D01*
X135963866Y-84804404D02*
X135963866Y-84613928D01*
X135963866Y-84613928D02*
X135916247Y-84518690D01*
X135916247Y-84518690D02*
X135868628Y-84471071D01*
X135868628Y-84471071D02*
X135773390Y-84423452D01*
D12*
%TO.C,J110*%
X127000000Y-97790000D02*
X127000000Y-107950000D01*
X127000000Y-107950000D02*
X134620000Y-107950000D01*
X128270000Y-107950000D02*
X128270000Y-97790000D01*
X134620000Y-97790000D02*
X127000000Y-97790000D01*
X134620000Y-107950000D02*
X134620000Y-97790000D01*
%TO.C,J101*%
X137100000Y-104775000D02*
X137100000Y-61535000D01*
X137100000Y-107375000D02*
X137100000Y-106045000D01*
X138430000Y-107375000D02*
X137100000Y-107375000D01*
X139700000Y-104775000D02*
X137100000Y-104775000D01*
X139700000Y-107375000D02*
X139700000Y-104775000D01*
X142300000Y-61535000D02*
X137100000Y-61535000D01*
X142300000Y-107375000D02*
X139700000Y-107375000D01*
X142300000Y-107375000D02*
X142300000Y-61535000D01*
D13*
%TO.C,U101*%
X207305000Y-91814600D02*
X207305000Y-109614600D01*
X207305000Y-109614600D02*
X228305000Y-109614600D01*
X222377000Y-96210600D02*
X229730000Y-96210600D01*
X222377000Y-105209600D02*
X222377000Y-96210600D01*
X227633500Y-91814600D02*
X207305000Y-91814600D01*
X228305000Y-92486141D02*
X227633500Y-91814600D01*
X228305000Y-109614600D02*
X228305000Y-92486141D01*
X229729000Y-96214600D02*
X229729000Y-105209600D01*
X229729000Y-105209600D02*
X222377000Y-105209600D01*
D12*
%TO.C,J106*%
X154803300Y-104775000D02*
X154803300Y-61535000D01*
X154803300Y-107375000D02*
X154803300Y-106045000D01*
X156133300Y-107375000D02*
X154803300Y-107375000D01*
X157403300Y-104775000D02*
X154803300Y-104775000D01*
X157403300Y-107375000D02*
X157403300Y-104775000D01*
X160003300Y-61535000D02*
X154803300Y-61535000D01*
X160003300Y-107375000D02*
X157403300Y-107375000D01*
X160003300Y-107375000D02*
X160003300Y-61535000D01*
%TO.C,J105*%
X161953300Y-104775000D02*
X161953300Y-61535000D01*
X161953300Y-107375000D02*
X161953300Y-106045000D01*
X163283300Y-107375000D02*
X161953300Y-107375000D01*
X164553300Y-104775000D02*
X161953300Y-104775000D01*
X164553300Y-107375000D02*
X164553300Y-104775000D01*
X167153300Y-61535000D02*
X161953300Y-61535000D01*
X167153300Y-107375000D02*
X164553300Y-107375000D01*
X167153300Y-107375000D02*
X167153300Y-61535000D01*
%TO.C,J108*%
X127000000Y-64770000D02*
X127000000Y-74930000D01*
X127000000Y-74930000D02*
X134620000Y-74930000D01*
X128270000Y-74930000D02*
X128270000Y-64770000D01*
X134620000Y-64770000D02*
X127000000Y-64770000D01*
X134620000Y-74930000D02*
X134620000Y-64770000D01*
%TO.C,J104*%
X169103300Y-104775000D02*
X169103300Y-61535000D01*
X169103300Y-107375000D02*
X169103300Y-106045000D01*
X170433300Y-107375000D02*
X169103300Y-107375000D01*
X171703300Y-104775000D02*
X169103300Y-104775000D01*
X171703300Y-107375000D02*
X171703300Y-104775000D01*
X174303300Y-61535000D02*
X169103300Y-61535000D01*
X174303300Y-107375000D02*
X171703300Y-107375000D01*
X174303300Y-107375000D02*
X174303300Y-61535000D01*
%TO.C,J102*%
X183403300Y-104775000D02*
X183403300Y-61535000D01*
X183403300Y-107375000D02*
X183403300Y-106045000D01*
X184733300Y-107375000D02*
X183403300Y-107375000D01*
X186003300Y-104775000D02*
X183403300Y-104775000D01*
X186003300Y-107375000D02*
X186003300Y-104775000D01*
X188603300Y-61535000D02*
X183403300Y-61535000D01*
X188603300Y-107375000D02*
X186003300Y-107375000D01*
X188603300Y-107375000D02*
X188603300Y-61535000D01*
%TO.C,J103*%
X176253300Y-104775000D02*
X176253300Y-61535000D01*
X176253300Y-107375000D02*
X176253300Y-106045000D01*
X177583300Y-107375000D02*
X176253300Y-107375000D01*
X178853300Y-104775000D02*
X176253300Y-104775000D01*
X178853300Y-107375000D02*
X178853300Y-104775000D01*
X181453300Y-61535000D02*
X176253300Y-61535000D01*
X181453300Y-107375000D02*
X178853300Y-107375000D01*
X181453300Y-107375000D02*
X181453300Y-61535000D01*
D13*
%TO.C,U102*%
X207305000Y-61334600D02*
X207305000Y-79134600D01*
X207305000Y-79134600D02*
X228305000Y-79134600D01*
X222377000Y-65730600D02*
X229730000Y-65730600D01*
X222377000Y-74729600D02*
X222377000Y-65730600D01*
X227633500Y-61334600D02*
X207305000Y-61334600D01*
X228305000Y-62006141D02*
X227633500Y-61334600D01*
X228305000Y-79134600D02*
X228305000Y-62006141D01*
X229729000Y-65734600D02*
X229729000Y-74729600D01*
X229729000Y-74729600D02*
X222377000Y-74729600D01*
D12*
%TO.C,J109*%
X127000000Y-80962500D02*
X127000000Y-91122500D01*
X127000000Y-91122500D02*
X134620000Y-91122500D01*
X128270000Y-91122500D02*
X128270000Y-80962500D01*
X134620000Y-80962500D02*
X127000000Y-80962500D01*
X134620000Y-91122500D02*
X134620000Y-80962500D01*
%TD*%
M02*
