M48
; DRILL file {KiCad 8.0.0-rc2-358-gd9abaa23a4} date 2024-02-08T22:48:52+0100
; FORMAT={-:-/ absolute / inch / decimal}
; #@! TF.CreationDate,2024-02-08T22:48:52+01:00
; #@! TF.GenerationSoftware,Kicad,Pcbnew,8.0.0-rc2-358-gd9abaa23a4
; #@! TF.FileFunction,Plated,1,2,PTH
FMAT,2
INCH
; #@! TA.AperFunction,Plated,PTH,ViaDrill
T1C0.0157
; #@! TA.AperFunction,Plated,PTH,ComponentDrill
T2C0.0394
; #@! TA.AperFunction,Plated,PTH,ComponentDrill
T3C0.0598
%
G90
G05
T1
X5.6176Y-3.8178
X5.77Y-2.8753
X5.7801Y-3.7694
X5.9785Y-3.0544
X6.0343Y-2.9711
X6.0404Y-3.5611
X6.3125Y-2.5083
X6.3994Y-4.3041
X6.6096Y-2.5083
X6.8476Y-4.2243
X7.1853Y-3.2959
X7.4355Y-3.225
X7.4419Y-3.6207
X7.4615Y-3.3282
X7.5047Y-3.4703
X7.5091Y-3.1445
X7.5907Y-4.0345
X7.8971Y-3.7585
X7.9031Y-3.5307
X7.9635Y-3.6318
X7.9657Y-3.7351
X7.9861Y-3.5722
X8.1709Y-3.0179
X8.1992Y-4.0745
X8.2421Y-3.2863
X8.3509Y-4.1019
X8.7993Y-3.2751
T2
X5.45Y-2.475
X5.45Y-2.575
X5.45Y-2.675
X5.45Y-2.775
X5.45Y-2.875
X5.45Y-2.975
X5.45Y-3.075
X5.45Y-3.175
X5.45Y-3.275
X5.45Y-3.375
X5.45Y-3.475
X5.45Y-3.575
X5.45Y-3.675
X5.45Y-3.775
X5.45Y-3.875
X5.45Y-3.975
X5.45Y-4.075
X5.45Y-4.175
X5.55Y-2.475
X5.55Y-2.575
X5.55Y-2.675
X5.55Y-2.775
X5.55Y-2.875
X5.55Y-2.975
X5.55Y-3.075
X5.55Y-3.175
X5.55Y-3.275
X5.55Y-3.375
X5.55Y-3.475
X5.55Y-3.575
X5.55Y-3.675
X5.55Y-3.775
X5.55Y-3.875
X5.55Y-3.975
X5.55Y-4.075
X5.55Y-4.175
X5.875Y-2.8598
X5.875Y-2.9598
X5.875Y-3.0598
X5.875Y-3.1598
X5.875Y-3.2598
X5.875Y-3.3598
X5.875Y-3.4598
X5.875Y-3.5598
X5.875Y-3.7598
X5.875Y-3.8598
X5.875Y-3.9598
X5.875Y-4.0598
X5.875Y-4.1598
X5.875Y-4.2598
X6.147Y-2.475
X6.147Y-2.575
X6.147Y-2.675
X6.147Y-2.775
X6.147Y-2.875
X6.147Y-2.975
X6.147Y-3.075
X6.147Y-3.175
X6.147Y-3.275
X6.147Y-3.375
X6.147Y-3.475
X6.147Y-3.575
X6.147Y-3.675
X6.147Y-3.775
X6.147Y-3.875
X6.147Y-3.975
X6.147Y-4.075
X6.147Y-4.175
X6.247Y-2.475
X6.247Y-2.575
X6.247Y-2.675
X6.247Y-2.775
X6.247Y-2.875
X6.247Y-2.975
X6.247Y-3.075
X6.247Y-3.175
X6.247Y-3.275
X6.247Y-3.375
X6.247Y-3.475
X6.247Y-3.575
X6.247Y-3.675
X6.247Y-3.775
X6.247Y-3.875
X6.247Y-3.975
X6.247Y-4.075
X6.247Y-4.175
X6.4285Y-2.475
X6.4285Y-2.575
X6.4285Y-2.675
X6.4285Y-2.775
X6.4285Y-2.875
X6.4285Y-2.975
X6.4285Y-3.075
X6.4285Y-3.175
X6.4285Y-3.275
X6.4285Y-3.375
X6.4285Y-3.475
X6.4285Y-3.575
X6.4285Y-3.675
X6.4285Y-3.775
X6.4285Y-3.875
X6.4285Y-3.975
X6.4285Y-4.075
X6.4285Y-4.175
X6.5285Y-2.475
X6.5285Y-2.575
X6.5285Y-2.675
X6.5285Y-2.775
X6.5285Y-2.875
X6.5285Y-2.975
X6.5285Y-3.075
X6.5285Y-3.175
X6.5285Y-3.275
X6.5285Y-3.375
X6.5285Y-3.475
X6.5285Y-3.575
X6.5285Y-3.675
X6.5285Y-3.775
X6.5285Y-3.875
X6.5285Y-3.975
X6.5285Y-4.075
X6.5285Y-4.175
X6.71Y-2.475
X6.71Y-2.575
X6.71Y-2.675
X6.71Y-2.775
X6.71Y-2.875
X6.71Y-2.975
X6.71Y-3.075
X6.71Y-3.175
X6.71Y-3.275
X6.71Y-3.375
X6.71Y-3.475
X6.71Y-3.575
X6.71Y-3.675
X6.71Y-3.775
X6.71Y-3.875
X6.71Y-3.975
X6.71Y-4.075
X6.71Y-4.175
X6.81Y-2.475
X6.81Y-2.575
X6.81Y-2.675
X6.81Y-2.775
X6.81Y-2.875
X6.81Y-2.975
X6.81Y-3.075
X6.81Y-3.175
X6.81Y-3.275
X6.81Y-3.375
X6.81Y-3.475
X6.81Y-3.575
X6.81Y-3.675
X6.81Y-3.775
X6.81Y-3.875
X6.81Y-3.975
X6.81Y-4.075
X6.81Y-4.175
X6.9915Y-2.475
X6.9915Y-2.575
X6.9915Y-2.675
X6.9915Y-2.775
X6.9915Y-2.875
X6.9915Y-2.975
X6.9915Y-3.075
X6.9915Y-3.175
X6.9915Y-3.275
X6.9915Y-3.375
X6.9915Y-3.475
X6.9915Y-3.575
X6.9915Y-3.675
X6.9915Y-3.775
X6.9915Y-3.875
X6.9915Y-3.975
X6.9915Y-4.075
X6.9915Y-4.175
X7.0915Y-2.475
X7.0915Y-2.575
X7.0915Y-2.675
X7.0915Y-2.775
X7.0915Y-2.875
X7.0915Y-2.975
X7.0915Y-3.075
X7.0915Y-3.175
X7.0915Y-3.275
X7.0915Y-3.375
X7.0915Y-3.475
X7.0915Y-3.575
X7.0915Y-3.675
X7.0915Y-3.775
X7.0915Y-3.875
X7.0915Y-3.975
X7.0915Y-4.075
X7.0915Y-4.175
X7.273Y-2.475
X7.273Y-2.575
X7.273Y-2.675
X7.273Y-2.775
X7.273Y-2.875
X7.273Y-2.975
X7.273Y-3.075
X7.273Y-3.175
X7.273Y-3.275
X7.273Y-3.375
X7.273Y-3.475
X7.273Y-3.575
X7.273Y-3.675
X7.273Y-3.775
X7.273Y-3.875
X7.273Y-3.975
X7.273Y-4.075
X7.273Y-4.175
X7.373Y-2.475
X7.373Y-2.575
X7.373Y-2.675
X7.373Y-2.775
X7.373Y-2.875
X7.373Y-2.975
X7.373Y-3.075
X7.373Y-3.175
X7.373Y-3.275
X7.373Y-3.375
X7.373Y-3.475
X7.373Y-3.575
X7.373Y-3.675
X7.373Y-3.775
X7.373Y-3.875
X7.373Y-3.975
X7.373Y-4.075
X7.373Y-4.175
X7.775Y-2.5
X7.775Y-2.6
X7.775Y-2.7
X7.775Y-2.8
X7.775Y-2.9
X7.775Y-3.0
X7.775Y-3.1
X7.775Y-3.2
X7.775Y-3.3
X7.775Y-3.4
X7.775Y-3.5598
X7.775Y-3.6598
X7.775Y-3.7598
X7.775Y-3.8598
X7.775Y-3.9598
X7.775Y-4.0598
X7.775Y-4.1598
X7.775Y-4.2598
X8.275Y-2.4476
X8.275Y-3.084
X8.275Y-3.6476
X8.275Y-4.284
X8.375Y-2.4476
X8.375Y-3.084
X8.375Y-3.6476
X8.375Y-4.284
X8.475Y-2.4476
X8.475Y-3.084
X8.475Y-3.6476
X8.475Y-4.284
X8.575Y-2.4476
X8.575Y-3.084
X8.575Y-3.6476
X8.575Y-4.284
X8.675Y-2.4476
X8.675Y-3.084
X8.675Y-3.6476
X8.675Y-4.284
X8.775Y-2.4476
X8.775Y-3.084
X8.775Y-3.6476
X8.775Y-4.284
X8.875Y-2.4476
X8.875Y-3.084
X8.875Y-3.6476
X8.875Y-4.284
T3
X5.15Y-2.65
X5.15Y-2.85
X5.15Y-3.2875
X5.15Y-3.4875
X5.15Y-3.95
X5.15Y-4.15
M30
