%TF.GenerationSoftware,KiCad,Pcbnew,8.0.0-rc2-358-gd9abaa23a4*%
%TF.CreationDate,2024-02-08T22:48:49+01:00*%
%TF.ProjectId,xDuinoRail-Backplane-Arduino,78447569-6e6f-4526-9169-6c2d4261636b,rev?*%
%TF.SameCoordinates,Original*%
%TF.FileFunction,Legend,Bot*%
%TF.FilePolarity,Positive*%
%FSLAX46Y46*%
G04 Gerber Fmt 4.6, Leading zero omitted, Abs format (unit mm)*
G04 Created by KiCad (PCBNEW 8.0.0-rc2-358-gd9abaa23a4) date 2024-02-08 22:48:49*
%MOMM*%
%LPD*%
G01*
G04 APERTURE LIST*
%ADD10C,0.150000*%
%ADD11C,0.120000*%
G04 APERTURE END LIST*
D10*
X145584104Y-72243333D02*
X145584104Y-72719523D01*
X145869819Y-72148095D02*
X144869819Y-72481428D01*
X144869819Y-72481428D02*
X145869819Y-72814761D01*
X145869819Y-73671904D02*
X145869819Y-73100476D01*
X145869819Y-73386190D02*
X144869819Y-73386190D01*
X144869819Y-73386190D02*
X145012676Y-73290952D01*
X145012676Y-73290952D02*
X145107914Y-73195714D01*
X145107914Y-73195714D02*
X145155533Y-73100476D01*
X144869819Y-74290952D02*
X144869819Y-74386190D01*
X144869819Y-74386190D02*
X144917438Y-74481428D01*
X144917438Y-74481428D02*
X144965057Y-74529047D01*
X144965057Y-74529047D02*
X145060295Y-74576666D01*
X145060295Y-74576666D02*
X145250771Y-74624285D01*
X145250771Y-74624285D02*
X145488866Y-74624285D01*
X145488866Y-74624285D02*
X145679342Y-74576666D01*
X145679342Y-74576666D02*
X145774580Y-74529047D01*
X145774580Y-74529047D02*
X145822200Y-74481428D01*
X145822200Y-74481428D02*
X145869819Y-74386190D01*
X145869819Y-74386190D02*
X145869819Y-74290952D01*
X145869819Y-74290952D02*
X145822200Y-74195714D01*
X145822200Y-74195714D02*
X145774580Y-74148095D01*
X145774580Y-74148095D02*
X145679342Y-74100476D01*
X145679342Y-74100476D02*
X145488866Y-74052857D01*
X145488866Y-74052857D02*
X145250771Y-74052857D01*
X145250771Y-74052857D02*
X145060295Y-74100476D01*
X145060295Y-74100476D02*
X144965057Y-74148095D01*
X144965057Y-74148095D02*
X144917438Y-74195714D01*
X144917438Y-74195714D02*
X144869819Y-74290952D01*
X145869819Y-75576666D02*
X145869819Y-75005238D01*
X145869819Y-75290952D02*
X144869819Y-75290952D01*
X144869819Y-75290952D02*
X145012676Y-75195714D01*
X145012676Y-75195714D02*
X145107914Y-75100476D01*
X145107914Y-75100476D02*
X145155533Y-75005238D01*
D11*
%TO.C,A101*%
X146555000Y-44570000D02*
X146555000Y-110870000D01*
X146555000Y-110870000D02*
X149225000Y-110870000D01*
X149225000Y-110870000D02*
X151765000Y-113410000D01*
X149735000Y-42670000D02*
X149735000Y-44570000D01*
X149735000Y-44570000D02*
X146555000Y-44570000D01*
X151765000Y-113410000D02*
X184535000Y-113410000D01*
X158875000Y-42670000D02*
X149735000Y-42670000D01*
X158875000Y-44570000D02*
X158875000Y-42670000D01*
X178945000Y-38220000D02*
X178945000Y-44570000D01*
X178945000Y-44570000D02*
X158875000Y-44570000D01*
X184535000Y-113410000D02*
X187075000Y-110870000D01*
X187075000Y-110870000D02*
X198505000Y-110870000D01*
X190625000Y-38220000D02*
X178945000Y-38220000D01*
X190625000Y-44570000D02*
X190625000Y-38220000D01*
X198505000Y-110870000D02*
X200155000Y-109220000D01*
X200155000Y-44570000D02*
X190625000Y-44570000D01*
X200155000Y-109220000D02*
X200155000Y-44570000D01*
%TD*%
M02*
