%TF.GenerationSoftware,KiCad,Pcbnew,8.0.0-rc2-358-gd9abaa23a4*%
%TF.CreationDate,2024-02-08T22:48:48+01:00*%
%TF.ProjectId,xDuinoRail-Backplane-Arduino,78447569-6e6f-4526-9169-6c2d4261636b,rev?*%
%TF.SameCoordinates,Original*%
%TF.FileFunction,Copper,L1,Top*%
%TF.FilePolarity,Positive*%
%FSLAX46Y46*%
G04 Gerber Fmt 4.6, Leading zero omitted, Abs format (unit mm)*
G04 Created by KiCad (PCBNEW 8.0.0-rc2-358-gd9abaa23a4) date 2024-02-08 22:48:48*
%MOMM*%
%LPD*%
G01*
G04 APERTURE LIST*
G04 Aperture macros list*
%AMRoundRect*
0 Rectangle with rounded corners*
0 $1 Rounding radius*
0 $2 $3 $4 $5 $6 $7 $8 $9 X,Y pos of 4 corners*
0 Add a 4 corners polygon primitive as box body*
4,1,4,$2,$3,$4,$5,$6,$7,$8,$9,$2,$3,0*
0 Add four circle primitives for the rounded corners*
1,1,$1+$1,$2,$3*
1,1,$1+$1,$4,$5*
1,1,$1+$1,$6,$7*
1,1,$1+$1,$8,$9*
0 Add four rect primitives between the rounded corners*
20,1,$1+$1,$2,$3,$4,$5,0*
20,1,$1+$1,$4,$5,$6,$7,0*
20,1,$1+$1,$6,$7,$8,$9,0*
20,1,$1+$1,$8,$9,$2,$3,0*%
G04 Aperture macros list end*
%TA.AperFunction,ComponentPad*%
%ADD10R,3.000000X3.000000*%
%TD*%
%TA.AperFunction,ComponentPad*%
%ADD11C,3.000000*%
%TD*%
%TA.AperFunction,ComponentPad*%
%ADD12R,1.700000X1.700000*%
%TD*%
%TA.AperFunction,ComponentPad*%
%ADD13O,1.700000X1.700000*%
%TD*%
%TA.AperFunction,ComponentPad*%
%ADD14RoundRect,1.000000X0.000000X0.375000X0.000000X-0.375000X0.000000X-0.375000X0.000000X0.375000X0*%
%TD*%
%TA.AperFunction,ComponentPad*%
%ADD15R,1.600000X1.600000*%
%TD*%
%TA.AperFunction,ComponentPad*%
%ADD16O,1.600000X1.600000*%
%TD*%
%TA.AperFunction,ViaPad*%
%ADD17C,0.800000*%
%TD*%
%TA.AperFunction,Conductor*%
%ADD18C,0.400000*%
%TD*%
G04 APERTURE END LIST*
D10*
%TO.P,J110,1,Pin_1*%
%TO.N,/DCC1*%
X130810000Y-100330000D03*
D11*
%TO.P,J110,2,Pin_2*%
%TO.N,/TRACK1*%
X130810000Y-105410000D03*
%TD*%
D12*
%TO.P,J101,1,Pin_1*%
%TO.N,/TRACK1*%
X138430000Y-106045000D03*
D13*
%TO.P,J101,2,Pin_2*%
%TO.N,/RAILCOM1*%
X140970000Y-106045000D03*
%TO.P,J101,3,Pin_3*%
%TO.N,/TRACK0*%
X138430000Y-103505000D03*
%TO.P,J101,4,Pin_4*%
%TO.N,/RAILCOM0*%
X140970000Y-103505000D03*
%TO.P,J101,5,Pin_5*%
%TO.N,+5V*%
X138430000Y-100965000D03*
%TO.P,J101,6,Pin_6*%
%TO.N,/USB.DP*%
X140970000Y-100965000D03*
%TO.P,J101,7,Pin_7*%
%TO.N,GND*%
X138430000Y-98425000D03*
%TO.P,J101,8,Pin_8*%
%TO.N,/USB.DM*%
X140970000Y-98425000D03*
%TO.P,J101,9,Pin_9*%
%TO.N,VCC*%
X138430000Y-95885000D03*
%TO.P,J101,10,Pin_10*%
%TO.N,/SENSE*%
X140970000Y-95885000D03*
%TO.P,J101,11,Pin_11*%
%TO.N,GND*%
X138430000Y-93345000D03*
%TO.P,J101,12,Pin_12*%
%TO.N,/BRAKE*%
X140970000Y-93345000D03*
%TO.P,J101,13,Pin_13*%
%TO.N,+3V3*%
X138430000Y-90805000D03*
%TO.P,J101,14,Pin_14*%
%TO.N,/DIR*%
X140970000Y-90805000D03*
%TO.P,J101,15,Pin_15*%
%TO.N,GND*%
X138430000Y-88265000D03*
%TO.P,J101,16,Pin_16*%
%TO.N,/PWM*%
X140970000Y-88265000D03*
%TO.P,J101,17,Pin_17*%
%TO.N,/DCC1*%
X138430000Y-85725000D03*
%TO.P,J101,18,Pin_18*%
%TO.N,/RAILCOM*%
X140970000Y-85725000D03*
%TO.P,J101,19,Pin_19*%
%TO.N,/DCC0*%
X138430000Y-83185000D03*
%TO.P,J101,20,Pin_20*%
%TO.N,/DECODER*%
X140970000Y-83185000D03*
%TO.P,J101,21,Pin_21*%
%TO.N,+U*%
X138430000Y-80645000D03*
%TO.P,J101,22,Pin_22*%
%TO.N,/MOTOR0*%
X140970000Y-80645000D03*
%TO.P,J101,23,Pin_23*%
%TO.N,GND*%
X138430000Y-78105000D03*
%TO.P,J101,24,Pin_24*%
%TO.N,/MOTOR1*%
X140970000Y-78105000D03*
%TO.P,J101,25,Pin_25*%
%TO.N,/AMP_MOTOR0*%
X138430000Y-75565000D03*
%TO.P,J101,26,Pin_26*%
%TO.N,/BACK_EMF0*%
X140970000Y-75565000D03*
%TO.P,J101,27,Pin_27*%
%TO.N,/AMP_MOTOR1*%
X138430000Y-73025000D03*
%TO.P,J101,28,Pin_28*%
%TO.N,/BACK_EMF1*%
X140970000Y-73025000D03*
%TO.P,J101,29,Pin_29*%
%TO.N,/AMP_FUNC0_F*%
X138430000Y-70485000D03*
%TO.P,J101,30,Pin_30*%
%TO.N,/FUNC0_F*%
X140970000Y-70485000D03*
%TO.P,J101,31,Pin_31*%
%TO.N,/SPEAKER0*%
X138430000Y-67945000D03*
%TO.P,J101,32,Pin_32*%
%TO.N,/PCM*%
X140970000Y-67945000D03*
%TO.P,J101,33,Pin_33*%
%TO.N,/SPEAKER1*%
X138430000Y-65405000D03*
%TO.P,J101,34,Pin_34*%
%TO.N,/I2C.SCL*%
X140970000Y-65405000D03*
%TO.P,J101,35,Pin_35*%
%TO.N,+U*%
X138430000Y-62865000D03*
%TO.P,J101,36,Pin_36*%
%TO.N,/I2C.SDA*%
X140970000Y-62865000D03*
%TD*%
D14*
%TO.P,U101,1,A0*%
%TO.N,/PCM*%
X225425000Y-92649600D03*
%TO.P,U101,2,A1*%
%TO.N,/BACK_EMF0*%
X222885000Y-92649600D03*
%TO.P,U101,3,A2*%
%TO.N,/DECODER*%
X220345000Y-92649600D03*
%TO.P,U101,4,A3*%
%TO.N,/BACK_EMF1*%
X217805000Y-92649600D03*
%TO.P,U101,5,A4_SDA*%
%TO.N,/I2C.SDA*%
X215265000Y-92649600D03*
%TO.P,U101,6,A5_SCL*%
%TO.N,/I2C.SCL*%
X212725000Y-92649600D03*
%TO.P,U101,7,A6_TX*%
%TO.N,/FUNC0_B*%
X210185000Y-92649600D03*
%TO.P,U101,8,A7_RX*%
%TO.N,/FUNC0_F*%
X210185000Y-108814600D03*
%TO.P,U101,9,A8_SCK*%
%TO.N,/RAILCOM*%
X212725000Y-108814600D03*
%TO.P,U101,10,A9_MISO*%
%TO.N,/MOTOR1*%
X215265000Y-108814600D03*
%TO.P,U101,11,A10_MOSI*%
%TO.N,/MOTOR0*%
X217805000Y-108814600D03*
%TO.P,U101,12,3V3*%
%TO.N,+5V*%
X220345000Y-108814600D03*
%TO.P,U101,13,GND*%
%TO.N,GND*%
X222885000Y-108814600D03*
%TO.P,U101,14,5V*%
%TO.N,+3V3*%
X225425000Y-108814600D03*
%TD*%
D12*
%TO.P,J106,1,Pin_1*%
%TO.N,/TRACK1*%
X156133300Y-106045000D03*
D13*
%TO.P,J106,2,Pin_2*%
%TO.N,/RAILCOM1*%
X158673300Y-106045000D03*
%TO.P,J106,3,Pin_3*%
%TO.N,/TRACK0*%
X156133300Y-103505000D03*
%TO.P,J106,4,Pin_4*%
%TO.N,/RAILCOM0*%
X158673300Y-103505000D03*
%TO.P,J106,5,Pin_5*%
%TO.N,+5V*%
X156133300Y-100965000D03*
%TO.P,J106,6,Pin_6*%
%TO.N,/USB.DP*%
X158673300Y-100965000D03*
%TO.P,J106,7,Pin_7*%
%TO.N,GND*%
X156133300Y-98425000D03*
%TO.P,J106,8,Pin_8*%
%TO.N,/USB.DM*%
X158673300Y-98425000D03*
%TO.P,J106,9,Pin_9*%
%TO.N,VCC*%
X156133300Y-95885000D03*
%TO.P,J106,10,Pin_10*%
%TO.N,/SENSE*%
X158673300Y-95885000D03*
%TO.P,J106,11,Pin_11*%
%TO.N,GND*%
X156133300Y-93345000D03*
%TO.P,J106,12,Pin_12*%
%TO.N,/BRAKE*%
X158673300Y-93345000D03*
%TO.P,J106,13,Pin_13*%
%TO.N,+3V3*%
X156133300Y-90805000D03*
%TO.P,J106,14,Pin_14*%
%TO.N,/DIR*%
X158673300Y-90805000D03*
%TO.P,J106,15,Pin_15*%
%TO.N,GND*%
X156133300Y-88265000D03*
%TO.P,J106,16,Pin_16*%
%TO.N,/PWM*%
X158673300Y-88265000D03*
%TO.P,J106,17,Pin_17*%
%TO.N,/DCC1*%
X156133300Y-85725000D03*
%TO.P,J106,18,Pin_18*%
%TO.N,/RAILCOM*%
X158673300Y-85725000D03*
%TO.P,J106,19,Pin_19*%
%TO.N,/DCC0*%
X156133300Y-83185000D03*
%TO.P,J106,20,Pin_20*%
%TO.N,/DECODER*%
X158673300Y-83185000D03*
%TO.P,J106,21,Pin_21*%
%TO.N,+U*%
X156133300Y-80645000D03*
%TO.P,J106,22,Pin_22*%
%TO.N,/MOTOR0*%
X158673300Y-80645000D03*
%TO.P,J106,23,Pin_23*%
%TO.N,GND*%
X156133300Y-78105000D03*
%TO.P,J106,24,Pin_24*%
%TO.N,/MOTOR1*%
X158673300Y-78105000D03*
%TO.P,J106,25,Pin_25*%
%TO.N,/AMP_MOTOR0*%
X156133300Y-75565000D03*
%TO.P,J106,26,Pin_26*%
%TO.N,/BACK_EMF0*%
X158673300Y-75565000D03*
%TO.P,J106,27,Pin_27*%
%TO.N,/AMP_MOTOR1*%
X156133300Y-73025000D03*
%TO.P,J106,28,Pin_28*%
%TO.N,/BACK_EMF1*%
X158673300Y-73025000D03*
%TO.P,J106,29,Pin_29*%
%TO.N,/AMP_FUNC0_F*%
X156133300Y-70485000D03*
%TO.P,J106,30,Pin_30*%
%TO.N,/FUNC0_F*%
X158673300Y-70485000D03*
%TO.P,J106,31,Pin_31*%
%TO.N,/SPEAKER0*%
X156133300Y-67945000D03*
%TO.P,J106,32,Pin_32*%
%TO.N,/PCM*%
X158673300Y-67945000D03*
%TO.P,J106,33,Pin_33*%
%TO.N,/SPEAKER1*%
X156133300Y-65405000D03*
%TO.P,J106,34,Pin_34*%
%TO.N,/I2C.SCL*%
X158673300Y-65405000D03*
%TO.P,J106,35,Pin_35*%
%TO.N,+U*%
X156133300Y-62865000D03*
%TO.P,J106,36,Pin_36*%
%TO.N,/I2C.SDA*%
X158673300Y-62865000D03*
%TD*%
D12*
%TO.P,J105,1,Pin_1*%
%TO.N,/TRACK1*%
X163283300Y-106045000D03*
D13*
%TO.P,J105,2,Pin_2*%
%TO.N,/RAILCOM1*%
X165823300Y-106045000D03*
%TO.P,J105,3,Pin_3*%
%TO.N,/TRACK0*%
X163283300Y-103505000D03*
%TO.P,J105,4,Pin_4*%
%TO.N,/RAILCOM0*%
X165823300Y-103505000D03*
%TO.P,J105,5,Pin_5*%
%TO.N,+5V*%
X163283300Y-100965000D03*
%TO.P,J105,6,Pin_6*%
%TO.N,/USB.DP*%
X165823300Y-100965000D03*
%TO.P,J105,7,Pin_7*%
%TO.N,GND*%
X163283300Y-98425000D03*
%TO.P,J105,8,Pin_8*%
%TO.N,/USB.DM*%
X165823300Y-98425000D03*
%TO.P,J105,9,Pin_9*%
%TO.N,VCC*%
X163283300Y-95885000D03*
%TO.P,J105,10,Pin_10*%
%TO.N,/SENSE*%
X165823300Y-95885000D03*
%TO.P,J105,11,Pin_11*%
%TO.N,GND*%
X163283300Y-93345000D03*
%TO.P,J105,12,Pin_12*%
%TO.N,/BRAKE*%
X165823300Y-93345000D03*
%TO.P,J105,13,Pin_13*%
%TO.N,+3V3*%
X163283300Y-90805000D03*
%TO.P,J105,14,Pin_14*%
%TO.N,/DIR*%
X165823300Y-90805000D03*
%TO.P,J105,15,Pin_15*%
%TO.N,GND*%
X163283300Y-88265000D03*
%TO.P,J105,16,Pin_16*%
%TO.N,/PWM*%
X165823300Y-88265000D03*
%TO.P,J105,17,Pin_17*%
%TO.N,/DCC1*%
X163283300Y-85725000D03*
%TO.P,J105,18,Pin_18*%
%TO.N,/RAILCOM*%
X165823300Y-85725000D03*
%TO.P,J105,19,Pin_19*%
%TO.N,/DCC0*%
X163283300Y-83185000D03*
%TO.P,J105,20,Pin_20*%
%TO.N,/DECODER*%
X165823300Y-83185000D03*
%TO.P,J105,21,Pin_21*%
%TO.N,+U*%
X163283300Y-80645000D03*
%TO.P,J105,22,Pin_22*%
%TO.N,/MOTOR0*%
X165823300Y-80645000D03*
%TO.P,J105,23,Pin_23*%
%TO.N,GND*%
X163283300Y-78105000D03*
%TO.P,J105,24,Pin_24*%
%TO.N,/MOTOR1*%
X165823300Y-78105000D03*
%TO.P,J105,25,Pin_25*%
%TO.N,/AMP_MOTOR0*%
X163283300Y-75565000D03*
%TO.P,J105,26,Pin_26*%
%TO.N,/BACK_EMF0*%
X165823300Y-75565000D03*
%TO.P,J105,27,Pin_27*%
%TO.N,/AMP_MOTOR1*%
X163283300Y-73025000D03*
%TO.P,J105,28,Pin_28*%
%TO.N,/BACK_EMF1*%
X165823300Y-73025000D03*
%TO.P,J105,29,Pin_29*%
%TO.N,/AMP_FUNC0_F*%
X163283300Y-70485000D03*
%TO.P,J105,30,Pin_30*%
%TO.N,/FUNC0_F*%
X165823300Y-70485000D03*
%TO.P,J105,31,Pin_31*%
%TO.N,/SPEAKER0*%
X163283300Y-67945000D03*
%TO.P,J105,32,Pin_32*%
%TO.N,/PCM*%
X165823300Y-67945000D03*
%TO.P,J105,33,Pin_33*%
%TO.N,/SPEAKER1*%
X163283300Y-65405000D03*
%TO.P,J105,34,Pin_34*%
%TO.N,/I2C.SCL*%
X165823300Y-65405000D03*
%TO.P,J105,35,Pin_35*%
%TO.N,+U*%
X163283300Y-62865000D03*
%TO.P,J105,36,Pin_36*%
%TO.N,/I2C.SDA*%
X165823300Y-62865000D03*
%TD*%
D10*
%TO.P,J108,1,Pin_1*%
%TO.N,/DCC1*%
X130810000Y-67310000D03*
D11*
%TO.P,J108,2,Pin_2*%
%TO.N,/DCC0*%
X130810000Y-72390000D03*
%TD*%
D12*
%TO.P,J104,1,Pin_1*%
%TO.N,/TRACK1*%
X170433300Y-106045000D03*
D13*
%TO.P,J104,2,Pin_2*%
%TO.N,/RAILCOM1*%
X172973300Y-106045000D03*
%TO.P,J104,3,Pin_3*%
%TO.N,/TRACK0*%
X170433300Y-103505000D03*
%TO.P,J104,4,Pin_4*%
%TO.N,/RAILCOM0*%
X172973300Y-103505000D03*
%TO.P,J104,5,Pin_5*%
%TO.N,+5V*%
X170433300Y-100965000D03*
%TO.P,J104,6,Pin_6*%
%TO.N,/USB.DP*%
X172973300Y-100965000D03*
%TO.P,J104,7,Pin_7*%
%TO.N,GND*%
X170433300Y-98425000D03*
%TO.P,J104,8,Pin_8*%
%TO.N,/USB.DM*%
X172973300Y-98425000D03*
%TO.P,J104,9,Pin_9*%
%TO.N,VCC*%
X170433300Y-95885000D03*
%TO.P,J104,10,Pin_10*%
%TO.N,/SENSE*%
X172973300Y-95885000D03*
%TO.P,J104,11,Pin_11*%
%TO.N,GND*%
X170433300Y-93345000D03*
%TO.P,J104,12,Pin_12*%
%TO.N,/BRAKE*%
X172973300Y-93345000D03*
%TO.P,J104,13,Pin_13*%
%TO.N,+3V3*%
X170433300Y-90805000D03*
%TO.P,J104,14,Pin_14*%
%TO.N,/DIR*%
X172973300Y-90805000D03*
%TO.P,J104,15,Pin_15*%
%TO.N,GND*%
X170433300Y-88265000D03*
%TO.P,J104,16,Pin_16*%
%TO.N,/PWM*%
X172973300Y-88265000D03*
%TO.P,J104,17,Pin_17*%
%TO.N,/DCC1*%
X170433300Y-85725000D03*
%TO.P,J104,18,Pin_18*%
%TO.N,/RAILCOM*%
X172973300Y-85725000D03*
%TO.P,J104,19,Pin_19*%
%TO.N,/DCC0*%
X170433300Y-83185000D03*
%TO.P,J104,20,Pin_20*%
%TO.N,/DECODER*%
X172973300Y-83185000D03*
%TO.P,J104,21,Pin_21*%
%TO.N,+U*%
X170433300Y-80645000D03*
%TO.P,J104,22,Pin_22*%
%TO.N,/MOTOR0*%
X172973300Y-80645000D03*
%TO.P,J104,23,Pin_23*%
%TO.N,GND*%
X170433300Y-78105000D03*
%TO.P,J104,24,Pin_24*%
%TO.N,/MOTOR1*%
X172973300Y-78105000D03*
%TO.P,J104,25,Pin_25*%
%TO.N,/AMP_MOTOR0*%
X170433300Y-75565000D03*
%TO.P,J104,26,Pin_26*%
%TO.N,/BACK_EMF0*%
X172973300Y-75565000D03*
%TO.P,J104,27,Pin_27*%
%TO.N,/AMP_MOTOR1*%
X170433300Y-73025000D03*
%TO.P,J104,28,Pin_28*%
%TO.N,/BACK_EMF1*%
X172973300Y-73025000D03*
%TO.P,J104,29,Pin_29*%
%TO.N,/AMP_FUNC0_F*%
X170433300Y-70485000D03*
%TO.P,J104,30,Pin_30*%
%TO.N,/FUNC0_F*%
X172973300Y-70485000D03*
%TO.P,J104,31,Pin_31*%
%TO.N,/SPEAKER0*%
X170433300Y-67945000D03*
%TO.P,J104,32,Pin_32*%
%TO.N,/PCM*%
X172973300Y-67945000D03*
%TO.P,J104,33,Pin_33*%
%TO.N,/SPEAKER1*%
X170433300Y-65405000D03*
%TO.P,J104,34,Pin_34*%
%TO.N,/I2C.SCL*%
X172973300Y-65405000D03*
%TO.P,J104,35,Pin_35*%
%TO.N,+U*%
X170433300Y-62865000D03*
%TO.P,J104,36,Pin_36*%
%TO.N,/I2C.SDA*%
X172973300Y-62865000D03*
%TD*%
D12*
%TO.P,J102,1,Pin_1*%
%TO.N,/TRACK1*%
X184733300Y-106045000D03*
D13*
%TO.P,J102,2,Pin_2*%
%TO.N,/RAILCOM1*%
X187273300Y-106045000D03*
%TO.P,J102,3,Pin_3*%
%TO.N,/TRACK0*%
X184733300Y-103505000D03*
%TO.P,J102,4,Pin_4*%
%TO.N,/RAILCOM0*%
X187273300Y-103505000D03*
%TO.P,J102,5,Pin_5*%
%TO.N,+5V*%
X184733300Y-100965000D03*
%TO.P,J102,6,Pin_6*%
%TO.N,/USB.DP*%
X187273300Y-100965000D03*
%TO.P,J102,7,Pin_7*%
%TO.N,GND*%
X184733300Y-98425000D03*
%TO.P,J102,8,Pin_8*%
%TO.N,/USB.DM*%
X187273300Y-98425000D03*
%TO.P,J102,9,Pin_9*%
%TO.N,VCC*%
X184733300Y-95885000D03*
%TO.P,J102,10,Pin_10*%
%TO.N,/SENSE*%
X187273300Y-95885000D03*
%TO.P,J102,11,Pin_11*%
%TO.N,GND*%
X184733300Y-93345000D03*
%TO.P,J102,12,Pin_12*%
%TO.N,/BRAKE*%
X187273300Y-93345000D03*
%TO.P,J102,13,Pin_13*%
%TO.N,+3V3*%
X184733300Y-90805000D03*
%TO.P,J102,14,Pin_14*%
%TO.N,/DIR*%
X187273300Y-90805000D03*
%TO.P,J102,15,Pin_15*%
%TO.N,GND*%
X184733300Y-88265000D03*
%TO.P,J102,16,Pin_16*%
%TO.N,/PWM*%
X187273300Y-88265000D03*
%TO.P,J102,17,Pin_17*%
%TO.N,/DCC1*%
X184733300Y-85725000D03*
%TO.P,J102,18,Pin_18*%
%TO.N,/RAILCOM*%
X187273300Y-85725000D03*
%TO.P,J102,19,Pin_19*%
%TO.N,/DCC0*%
X184733300Y-83185000D03*
%TO.P,J102,20,Pin_20*%
%TO.N,/DECODER*%
X187273300Y-83185000D03*
%TO.P,J102,21,Pin_21*%
%TO.N,+U*%
X184733300Y-80645000D03*
%TO.P,J102,22,Pin_22*%
%TO.N,/MOTOR0*%
X187273300Y-80645000D03*
%TO.P,J102,23,Pin_23*%
%TO.N,GND*%
X184733300Y-78105000D03*
%TO.P,J102,24,Pin_24*%
%TO.N,/MOTOR1*%
X187273300Y-78105000D03*
%TO.P,J102,25,Pin_25*%
%TO.N,/AMP_MOTOR0*%
X184733300Y-75565000D03*
%TO.P,J102,26,Pin_26*%
%TO.N,/BACK_EMF0*%
X187273300Y-75565000D03*
%TO.P,J102,27,Pin_27*%
%TO.N,/AMP_MOTOR1*%
X184733300Y-73025000D03*
%TO.P,J102,28,Pin_28*%
%TO.N,/BACK_EMF1*%
X187273300Y-73025000D03*
%TO.P,J102,29,Pin_29*%
%TO.N,/AMP_FUNC0_F*%
X184733300Y-70485000D03*
%TO.P,J102,30,Pin_30*%
%TO.N,/FUNC0_F*%
X187273300Y-70485000D03*
%TO.P,J102,31,Pin_31*%
%TO.N,/SPEAKER0*%
X184733300Y-67945000D03*
%TO.P,J102,32,Pin_32*%
%TO.N,/PCM*%
X187273300Y-67945000D03*
%TO.P,J102,33,Pin_33*%
%TO.N,/SPEAKER1*%
X184733300Y-65405000D03*
%TO.P,J102,34,Pin_34*%
%TO.N,/I2C.SCL*%
X187273300Y-65405000D03*
%TO.P,J102,35,Pin_35*%
%TO.N,+U*%
X184733300Y-62865000D03*
%TO.P,J102,36,Pin_36*%
%TO.N,/I2C.SDA*%
X187273300Y-62865000D03*
%TD*%
D12*
%TO.P,J103,1,Pin_1*%
%TO.N,/TRACK1*%
X177583300Y-106045000D03*
D13*
%TO.P,J103,2,Pin_2*%
%TO.N,/RAILCOM1*%
X180123300Y-106045000D03*
%TO.P,J103,3,Pin_3*%
%TO.N,/TRACK0*%
X177583300Y-103505000D03*
%TO.P,J103,4,Pin_4*%
%TO.N,/RAILCOM0*%
X180123300Y-103505000D03*
%TO.P,J103,5,Pin_5*%
%TO.N,+5V*%
X177583300Y-100965000D03*
%TO.P,J103,6,Pin_6*%
%TO.N,/USB.DP*%
X180123300Y-100965000D03*
%TO.P,J103,7,Pin_7*%
%TO.N,GND*%
X177583300Y-98425000D03*
%TO.P,J103,8,Pin_8*%
%TO.N,/USB.DM*%
X180123300Y-98425000D03*
%TO.P,J103,9,Pin_9*%
%TO.N,VCC*%
X177583300Y-95885000D03*
%TO.P,J103,10,Pin_10*%
%TO.N,/SENSE*%
X180123300Y-95885000D03*
%TO.P,J103,11,Pin_11*%
%TO.N,GND*%
X177583300Y-93345000D03*
%TO.P,J103,12,Pin_12*%
%TO.N,/BRAKE*%
X180123300Y-93345000D03*
%TO.P,J103,13,Pin_13*%
%TO.N,+3V3*%
X177583300Y-90805000D03*
%TO.P,J103,14,Pin_14*%
%TO.N,/DIR*%
X180123300Y-90805000D03*
%TO.P,J103,15,Pin_15*%
%TO.N,GND*%
X177583300Y-88265000D03*
%TO.P,J103,16,Pin_16*%
%TO.N,/PWM*%
X180123300Y-88265000D03*
%TO.P,J103,17,Pin_17*%
%TO.N,/DCC1*%
X177583300Y-85725000D03*
%TO.P,J103,18,Pin_18*%
%TO.N,/RAILCOM*%
X180123300Y-85725000D03*
%TO.P,J103,19,Pin_19*%
%TO.N,/DCC0*%
X177583300Y-83185000D03*
%TO.P,J103,20,Pin_20*%
%TO.N,/DECODER*%
X180123300Y-83185000D03*
%TO.P,J103,21,Pin_21*%
%TO.N,+U*%
X177583300Y-80645000D03*
%TO.P,J103,22,Pin_22*%
%TO.N,/MOTOR0*%
X180123300Y-80645000D03*
%TO.P,J103,23,Pin_23*%
%TO.N,GND*%
X177583300Y-78105000D03*
%TO.P,J103,24,Pin_24*%
%TO.N,/MOTOR1*%
X180123300Y-78105000D03*
%TO.P,J103,25,Pin_25*%
%TO.N,/AMP_MOTOR0*%
X177583300Y-75565000D03*
%TO.P,J103,26,Pin_26*%
%TO.N,/BACK_EMF0*%
X180123300Y-75565000D03*
%TO.P,J103,27,Pin_27*%
%TO.N,/AMP_MOTOR1*%
X177583300Y-73025000D03*
%TO.P,J103,28,Pin_28*%
%TO.N,/BACK_EMF1*%
X180123300Y-73025000D03*
%TO.P,J103,29,Pin_29*%
%TO.N,/AMP_FUNC0_F*%
X177583300Y-70485000D03*
%TO.P,J103,30,Pin_30*%
%TO.N,/FUNC0_F*%
X180123300Y-70485000D03*
%TO.P,J103,31,Pin_31*%
%TO.N,/SPEAKER0*%
X177583300Y-67945000D03*
%TO.P,J103,32,Pin_32*%
%TO.N,/PCM*%
X180123300Y-67945000D03*
%TO.P,J103,33,Pin_33*%
%TO.N,/SPEAKER1*%
X177583300Y-65405000D03*
%TO.P,J103,34,Pin_34*%
%TO.N,/I2C.SCL*%
X180123300Y-65405000D03*
%TO.P,J103,35,Pin_35*%
%TO.N,+U*%
X177583300Y-62865000D03*
%TO.P,J103,36,Pin_36*%
%TO.N,/I2C.SDA*%
X180123300Y-62865000D03*
%TD*%
D14*
%TO.P,U102,1,A0*%
%TO.N,unconnected-(U102-A0-Pad1)*%
X225425000Y-62169600D03*
%TO.P,U102,2,A1*%
%TO.N,/SENSE*%
X222885000Y-62169600D03*
%TO.P,U102,3,A2*%
%TO.N,unconnected-(U102-A2-Pad3)*%
X220345000Y-62169600D03*
%TO.P,U102,4,A3*%
%TO.N,/PWM*%
X217805000Y-62169600D03*
%TO.P,U102,5,A4_SDA*%
%TO.N,/I2C.SDA*%
X215265000Y-62169600D03*
%TO.P,U102,6,A5_SCL*%
%TO.N,/I2C.SCL*%
X212725000Y-62169600D03*
%TO.P,U102,7,A6_TX*%
%TO.N,/RAILCOM0*%
X210185000Y-62169600D03*
%TO.P,U102,8,A7_RX*%
%TO.N,/RAILCOM1*%
X210185000Y-78334600D03*
%TO.P,U102,9,A8_SCK*%
%TO.N,/DIR*%
X212725000Y-78334600D03*
%TO.P,U102,10,A9_MISO*%
%TO.N,/BRAKE*%
X215265000Y-78334600D03*
%TO.P,U102,11,A10_MOSI*%
%TO.N,unconnected-(U102-A10_MOSI-Pad11)*%
X217805000Y-78334600D03*
%TO.P,U102,12,3V3*%
%TO.N,+5V*%
X220345000Y-78334600D03*
%TO.P,U102,13,GND*%
%TO.N,GND*%
X222885000Y-78334600D03*
%TO.P,U102,14,5V*%
%TO.N,+3V3*%
X225425000Y-78334600D03*
%TD*%
D10*
%TO.P,J109,1,Pin_1*%
%TO.N,/DCC1*%
X130810000Y-83502500D03*
D11*
%TO.P,J109,2,Pin_2*%
%TO.N,/TRACK0*%
X130810000Y-88582500D03*
%TD*%
D15*
%TO.P,A101,1,NC*%
%TO.N,unconnected-(A101-NC-Pad1)*%
X149225000Y-72640000D03*
D16*
%TO.P,A101,2,IOREF*%
%TO.N,unconnected-(A101-IOREF-Pad2)*%
X149225000Y-75180000D03*
%TO.P,A101,3,~{RESET}*%
%TO.N,unconnected-(A101-~{RESET}-Pad3)*%
X149225000Y-77720000D03*
%TO.P,A101,4,3V3*%
%TO.N,+3V3*%
X149225000Y-80260000D03*
%TO.P,A101,5,+5V*%
%TO.N,+5V*%
X149225000Y-82800000D03*
%TO.P,A101,6,GND*%
%TO.N,GND*%
X149225000Y-85340000D03*
%TO.P,A101,7,GND*%
X149225000Y-87880000D03*
%TO.P,A101,8,VIN*%
%TO.N,VCC*%
X149225000Y-90420000D03*
%TO.P,A101,9,A0*%
%TO.N,/SENSE*%
X149225000Y-95500000D03*
%TO.P,A101,10,A1*%
%TO.N,/BACK_EMF0*%
X149225000Y-98040000D03*
%TO.P,A101,11,A2*%
%TO.N,/BACK_EMF1*%
X149225000Y-100580000D03*
%TO.P,A101,12,A3*%
%TO.N,/DECODER*%
X149225000Y-103120000D03*
%TO.P,A101,13,SDA/A4*%
%TO.N,/I2C.SCL*%
X149225000Y-105660000D03*
%TO.P,A101,14,SCL/A5*%
%TO.N,/I2C.SDA*%
X149225000Y-108200000D03*
%TO.P,A101,15,D0/RX*%
%TO.N,unconnected-(A101-D0{slash}RX-Pad15)*%
X197485000Y-108200000D03*
%TO.P,A101,16,D1/TX*%
%TO.N,unconnected-(A101-D1{slash}TX-Pad16)*%
X197485000Y-105660000D03*
%TO.P,A101,17,D2*%
%TO.N,unconnected-(A101-D2-Pad17)*%
X197485000Y-103120000D03*
%TO.P,A101,18,D3*%
%TO.N,/PWM*%
X197485000Y-100580000D03*
%TO.P,A101,19,D4*%
%TO.N,/MOTOR0*%
X197485000Y-98040000D03*
%TO.P,A101,20,D5*%
%TO.N,/MOTOR1*%
X197485000Y-95500000D03*
%TO.P,A101,21,D6*%
%TO.N,/RAILCOM1*%
X197485000Y-92960000D03*
%TO.P,A101,22,D7*%
%TO.N,/RAILCOM0*%
X197485000Y-90420000D03*
%TO.P,A101,23,D8*%
%TO.N,unconnected-(A101-D8-Pad23)*%
X197485000Y-86360000D03*
%TO.P,A101,24,D9*%
%TO.N,/BRAKE*%
X197485000Y-83820000D03*
%TO.P,A101,25,D10*%
%TO.N,/RAILCOM*%
X197485000Y-81280000D03*
%TO.P,A101,26,D11*%
%TO.N,unconnected-(A101-D11-Pad26)*%
X197485000Y-78740000D03*
%TO.P,A101,27,D12*%
%TO.N,/DIR*%
X197485000Y-76200000D03*
%TO.P,A101,28,D13*%
%TO.N,unconnected-(A101-D13-Pad28)*%
X197485000Y-73660000D03*
%TO.P,A101,29,GND*%
%TO.N,GND*%
X197485000Y-71120000D03*
%TO.P,A101,30,AREF*%
%TO.N,unconnected-(A101-AREF-Pad30)*%
X197485000Y-68580000D03*
%TO.P,A101,31,SDA/A4*%
%TO.N,unconnected-(A101-SDA{slash}A4-Pad31)*%
X197485000Y-66040000D03*
%TO.P,A101,32,SCL/A5*%
%TO.N,unconnected-(A101-SCL{slash}A5-Pad32)*%
X197485000Y-63500000D03*
%TD*%
D17*
%TO.N,/MOTOR1*%
X200739000Y-89679000D03*
%TO.N,/DIR*%
X153427000Y-90451700D03*
%TO.N,/I2C.SDA*%
X192805000Y-102475800D03*
X202274000Y-92247100D03*
%TO.N,/RAILCOM0*%
X189523200Y-84537400D03*
%TO.N,/RAILCOM*%
X200585600Y-95465700D03*
X190618200Y-88146800D03*
%TO.N,/MOTOR0*%
X182507600Y-83717000D03*
%TO.N,/DECODER*%
X202329600Y-94871700D03*
X142687400Y-96972200D03*
X146815400Y-95742900D03*
X173929100Y-107297600D03*
%TO.N,/I2C.SCL*%
X190730300Y-79871000D03*
%TO.N,/RAILCOM1*%
X162544800Y-109323500D03*
%TO.N,/BACK_EMF1*%
X209348800Y-83472900D03*
%TO.N,+U*%
X151855100Y-77580700D03*
%TO.N,/FUNC0_F*%
X202848100Y-90733100D03*
X188861400Y-81915000D03*
X208258800Y-103492900D03*
%TO.N,/AMP_MOTOR0*%
X146558200Y-73033400D03*
X153271100Y-75465300D03*
%TO.N,/SPEAKER1*%
X167885100Y-63709700D03*
X160336900Y-63710600D03*
%TO.N,/PCM*%
X223501700Y-83187800D03*
%TO.N,+5V*%
X212112800Y-104188200D03*
%TO.N,+3V3*%
X189024400Y-91966200D03*
X207540700Y-76654600D03*
%TD*%
D18*
%TO.N,/MOTOR1*%
X172329200Y-79375000D02*
X168345000Y-79375000D01*
X178871600Y-78105000D02*
X178871600Y-78652600D01*
X188525000Y-79135100D02*
X188525000Y-78105000D01*
X157421600Y-77586300D02*
X157421600Y-78105000D01*
X166449200Y-78105000D02*
X167075000Y-78105000D01*
X172973300Y-78105000D02*
X173599200Y-78105000D01*
X151053400Y-77248800D02*
X151523200Y-76779000D01*
X161195000Y-79375000D02*
X159925000Y-78105000D01*
X152988700Y-76779000D02*
X153044700Y-76835000D01*
X165823300Y-78105000D02*
X166449200Y-78105000D01*
X158673300Y-78105000D02*
X159925000Y-78105000D01*
X175495000Y-79375000D02*
X174225000Y-78105000D01*
X143038400Y-78921700D02*
X149722800Y-78921700D01*
X173599200Y-78105000D02*
X174225000Y-78105000D01*
X142221700Y-78105000D02*
X143038400Y-78921700D01*
X173599200Y-78105000D02*
X172329200Y-79375000D01*
X158673300Y-78105000D02*
X157421600Y-78105000D01*
X198621700Y-87561700D02*
X196951600Y-87561700D01*
X187273300Y-78105000D02*
X188525000Y-78105000D01*
X178149200Y-79375000D02*
X175495000Y-79375000D01*
X168345000Y-79375000D02*
X167075000Y-78105000D01*
X165179200Y-79375000D02*
X161195000Y-79375000D01*
X151523200Y-76779000D02*
X152988700Y-76779000D01*
X180123300Y-78105000D02*
X178871600Y-78105000D01*
X156670300Y-76835000D02*
X157421600Y-77586300D01*
X200739000Y-89679000D02*
X198621700Y-87561700D01*
X178871600Y-78652600D02*
X178149200Y-79375000D01*
X151053400Y-77591100D02*
X151053400Y-77248800D01*
X153044700Y-76835000D02*
X156670300Y-76835000D01*
X166449200Y-78105000D02*
X165179200Y-79375000D01*
X149722800Y-78921700D02*
X151053400Y-77591100D01*
X196951600Y-87561700D02*
X188525000Y-79135100D01*
X140970000Y-78105000D02*
X142221700Y-78105000D01*
%TO.N,/DIR*%
X172973300Y-90805000D02*
X174225000Y-90805000D01*
X144670100Y-92251200D02*
X143223900Y-90805000D01*
X197485000Y-76200000D02*
X205890500Y-76200000D01*
X205890500Y-76200000D02*
X207166900Y-77476400D01*
X150504500Y-92251200D02*
X144670100Y-92251200D01*
X178871600Y-90805000D02*
X178871600Y-91352600D01*
X168345000Y-89535000D02*
X167075000Y-90805000D01*
X208266300Y-77476400D02*
X209188600Y-76554100D01*
X153427000Y-90451700D02*
X152304000Y-90451700D01*
X165823300Y-90805000D02*
X164571600Y-90805000D01*
X180123300Y-90805000D02*
X178871600Y-90805000D01*
X158673300Y-90805000D02*
X159925000Y-90805000D01*
X143223900Y-90805000D02*
X140970000Y-90805000D01*
X164571600Y-90257400D02*
X163849200Y-89535000D01*
X161195000Y-89535000D02*
X159925000Y-90805000D01*
X207166900Y-77476400D02*
X208266300Y-77476400D01*
X178149200Y-92075000D02*
X175495000Y-92075000D01*
X175495000Y-92075000D02*
X174225000Y-90805000D01*
X166449200Y-90805000D02*
X167075000Y-90805000D01*
X170999200Y-89535000D02*
X168345000Y-89535000D01*
X172973300Y-90805000D02*
X171721600Y-90805000D01*
X178871600Y-91352600D02*
X178149200Y-92075000D01*
X171721600Y-90805000D02*
X171721600Y-90257400D01*
X166449200Y-90805000D02*
X165823300Y-90805000D01*
X210944500Y-76554100D02*
X212725000Y-78334600D01*
X163849200Y-89535000D02*
X161195000Y-89535000D01*
X209188600Y-76554100D02*
X210944500Y-76554100D01*
X164571600Y-90805000D02*
X164571600Y-90257400D01*
X171721600Y-90257400D02*
X170999200Y-89535000D01*
X152304000Y-90451700D02*
X150504500Y-92251200D01*
%TO.N,/BRAKE*%
X168345000Y-92075000D02*
X170970300Y-92075000D01*
X165197500Y-93345000D02*
X165823300Y-93345000D01*
X140970000Y-93345000D02*
X142221700Y-93345000D01*
X142221700Y-93345000D02*
X142406500Y-93529800D01*
X197485000Y-83820000D02*
X198686700Y-83820000D01*
X199141300Y-84274600D02*
X209680800Y-84274600D01*
X215265000Y-78690400D02*
X215265000Y-78334600D01*
X178148600Y-94615000D02*
X175495000Y-94615000D01*
X152716300Y-93529800D02*
X154171100Y-92075000D01*
X172973300Y-93345000D02*
X174225000Y-93345000D01*
X170970300Y-92075000D02*
X171721600Y-92826300D01*
X164571600Y-93899000D02*
X163855600Y-94615000D01*
X180123300Y-93345000D02*
X178871600Y-93345000D01*
X161616200Y-94615000D02*
X160346200Y-93345000D01*
X154171100Y-92075000D02*
X156670300Y-92075000D01*
X167075000Y-93345000D02*
X168345000Y-92075000D01*
X156670300Y-92075000D02*
X157421600Y-92826300D01*
X164571600Y-93345000D02*
X164571600Y-93899000D01*
X160346200Y-93345000D02*
X159925000Y-93345000D01*
X209680800Y-84274600D02*
X215265000Y-78690400D01*
X157421600Y-92826300D02*
X157421600Y-93345000D01*
X165823300Y-93345000D02*
X167075000Y-93345000D01*
X163855600Y-94615000D02*
X161616200Y-94615000D01*
X171721600Y-92826300D02*
X171721600Y-93345000D01*
X158673300Y-93345000D02*
X157421600Y-93345000D01*
X178871600Y-93892000D02*
X178148600Y-94615000D01*
X198686700Y-83820000D02*
X199141300Y-84274600D01*
X158673300Y-93345000D02*
X159925000Y-93345000D01*
X165197500Y-93345000D02*
X164571600Y-93345000D01*
X142406500Y-93529800D02*
X152716300Y-93529800D01*
X178871600Y-93345000D02*
X178871600Y-93892000D01*
X172973300Y-93345000D02*
X171721600Y-93345000D01*
X175495000Y-94615000D02*
X174225000Y-93345000D01*
%TO.N,/PWM*%
X178871600Y-88265000D02*
X178871600Y-88746900D01*
X152050600Y-89535000D02*
X149963800Y-91621800D01*
X187253500Y-89535000D02*
X182645000Y-89535000D01*
X156670300Y-89535000D02*
X152050600Y-89535000D01*
X178101800Y-89516700D02*
X175476700Y-89516700D01*
X158673300Y-88265000D02*
X157421600Y-88265000D01*
X149963800Y-91621800D02*
X145578500Y-91621800D01*
X197485000Y-100580000D02*
X197485000Y-99378300D01*
X197109400Y-99378300D02*
X196283300Y-98552200D01*
X182645000Y-89535000D02*
X181375000Y-88265000D01*
X140970000Y-88265000D02*
X142221700Y-88265000D01*
X187273300Y-89365800D02*
X187273300Y-89515200D01*
X180123300Y-88265000D02*
X181375000Y-88265000D01*
X145578500Y-91621800D02*
X142221700Y-88265000D01*
X187273300Y-89515200D02*
X187253500Y-89535000D01*
X196283300Y-98015000D02*
X187783500Y-89515200D01*
X197485000Y-99378300D02*
X197109400Y-99378300D01*
X157421600Y-88265000D02*
X157421600Y-88783700D01*
X175476700Y-89516700D02*
X174225000Y-88265000D01*
X180123300Y-88265000D02*
X178871600Y-88265000D01*
X187783500Y-89515200D02*
X187273300Y-89515200D01*
X157421600Y-88783700D02*
X156670300Y-89535000D01*
X187273300Y-88265000D02*
X187273300Y-89365800D01*
X178871600Y-88746900D02*
X178101800Y-89516700D01*
X172973300Y-88265000D02*
X174225000Y-88265000D01*
X196283300Y-98552200D02*
X196283300Y-98015000D01*
%TO.N,/I2C.SDA*%
X173599200Y-62865000D02*
X174225000Y-62865000D01*
X169612900Y-64135000D02*
X168342900Y-62865000D01*
X158673300Y-62865000D02*
X159299200Y-62865000D01*
X168342900Y-62865000D02*
X167075000Y-62865000D01*
X204475900Y-94449000D02*
X202274000Y-92247100D01*
X165823300Y-62865000D02*
X166449200Y-62865000D01*
X143491700Y-64135000D02*
X142221700Y-62865000D01*
X173599200Y-62865000D02*
X172329200Y-64135000D01*
X160775900Y-62865000D02*
X159925000Y-62865000D01*
X213465600Y-94449000D02*
X204475900Y-94449000D01*
X187903300Y-66675000D02*
X186707200Y-66675000D01*
X159299200Y-62865000D02*
X158029200Y-64135000D01*
X166449200Y-62865000D02*
X165180700Y-64133500D01*
X227449500Y-80465100D02*
X227449500Y-77125700D01*
X159299200Y-62865000D02*
X159925000Y-62865000D01*
X187273300Y-62865000D02*
X187273300Y-64116700D01*
X172973300Y-62865000D02*
X173599200Y-62865000D01*
X175495000Y-64135000D02*
X174225000Y-62865000D01*
X186707200Y-66675000D02*
X186003300Y-65971100D01*
X181375000Y-62865000D02*
X182626700Y-64116700D01*
X180123300Y-62865000D02*
X180749200Y-62865000D01*
X186003300Y-65971100D02*
X186003300Y-64868000D01*
X215265000Y-62169600D02*
X215265000Y-67308500D01*
X227449500Y-77125700D02*
X217632300Y-67308500D01*
X166449200Y-62865000D02*
X167075000Y-62865000D01*
X187080800Y-108200000D02*
X192805000Y-102475800D01*
X158029200Y-64135000D02*
X143491700Y-64135000D01*
X165180700Y-64133500D02*
X162044400Y-64133500D01*
X180749200Y-62865000D02*
X179479200Y-64135000D01*
X188536800Y-67308500D02*
X187903300Y-66675000D01*
X172329200Y-64135000D02*
X169612900Y-64135000D01*
X217632300Y-67308500D02*
X215265000Y-67308500D01*
X215265000Y-92649600D02*
X227449500Y-80465100D01*
X186754600Y-64116700D02*
X187273300Y-64116700D01*
X180749200Y-62865000D02*
X181375000Y-62865000D01*
X162044400Y-64133500D02*
X160775900Y-62865000D01*
X186003300Y-64868000D02*
X186754600Y-64116700D01*
X215265000Y-67308500D02*
X188536800Y-67308500D01*
X149225000Y-108200000D02*
X187080800Y-108200000D01*
X215265000Y-92649600D02*
X213465600Y-94449000D01*
X185252000Y-64116700D02*
X186003300Y-64868000D01*
X182626700Y-64116700D02*
X185252000Y-64116700D01*
X179479200Y-64135000D02*
X175495000Y-64135000D01*
X140970000Y-62865000D02*
X142221700Y-62865000D01*
%TO.N,/RAILCOM0*%
X197485000Y-90420000D02*
X195405800Y-90420000D01*
X195405800Y-90420000D02*
X189523200Y-84537400D01*
%TO.N,/BACK_EMF0*%
X187255000Y-76835000D02*
X186003300Y-76835000D01*
X172973300Y-75565000D02*
X172973300Y-76816700D01*
X187273300Y-75565000D02*
X187273300Y-76816700D01*
X150692500Y-76396200D02*
X152811900Y-74276800D01*
X186711600Y-84455000D02*
X188189200Y-84455000D01*
X178138600Y-76816700D02*
X178871600Y-76083700D01*
X195355900Y-91621700D02*
X197885900Y-91621700D01*
X140970000Y-75565000D02*
X142221700Y-75565000D01*
X186003300Y-76835000D02*
X186003300Y-83746700D01*
X188189200Y-84455000D02*
X195355900Y-91621700D01*
X180123300Y-75565000D02*
X181375000Y-75565000D01*
X201985700Y-95721500D02*
X219813100Y-95721500D01*
X186003300Y-83746700D02*
X186711600Y-84455000D01*
X161195000Y-76835000D02*
X159925000Y-75565000D01*
X165179200Y-76835000D02*
X161195000Y-76835000D01*
X158673300Y-75565000D02*
X157421600Y-75565000D01*
X166449200Y-75565000D02*
X165179200Y-76835000D01*
X182645000Y-76835000D02*
X181375000Y-75565000D01*
X178871600Y-76083700D02*
X178871600Y-75565000D01*
X159299200Y-75565000D02*
X159925000Y-75565000D01*
X172973300Y-76816700D02*
X178138600Y-76816700D01*
X142221700Y-75565000D02*
X143052900Y-76396200D01*
X219813100Y-95721500D02*
X222885000Y-92649600D01*
X180123300Y-75565000D02*
X178871600Y-75565000D01*
X143052900Y-76396200D02*
X150692500Y-76396200D01*
X156668600Y-74276800D02*
X157421600Y-75029800D01*
X157421600Y-75029800D02*
X157421600Y-75565000D01*
X197885900Y-91621700D02*
X201985700Y-95721500D01*
X152811900Y-74276800D02*
X156668600Y-74276800D01*
X186003300Y-76835000D02*
X182645000Y-76835000D01*
X165823300Y-75565000D02*
X166449200Y-75565000D01*
X187273300Y-76816700D02*
X187255000Y-76835000D01*
X168326700Y-76816700D02*
X172973300Y-76816700D01*
X167075000Y-75565000D02*
X168326700Y-76816700D01*
X159299200Y-75565000D02*
X158673300Y-75565000D01*
X166449200Y-75565000D02*
X167075000Y-75565000D01*
%TO.N,/RAILCOM*%
X188525000Y-85725000D02*
X188525000Y-86053600D01*
X187273300Y-85725000D02*
X188525000Y-85725000D01*
X199349900Y-94230000D02*
X200585600Y-95465700D01*
X155614800Y-84473300D02*
X153533400Y-86554700D01*
X158673300Y-85725000D02*
X157421600Y-84473300D01*
X190618200Y-88146800D02*
X196701400Y-94230000D01*
X140970000Y-85725000D02*
X142221700Y-85725000D01*
X188525000Y-86053600D02*
X190618200Y-88146800D01*
X142302900Y-85725000D02*
X142221700Y-85725000D01*
X153533400Y-86554700D02*
X143132600Y-86554700D01*
X157421600Y-84473300D02*
X155614800Y-84473300D01*
X143132600Y-86554700D02*
X142302900Y-85725000D01*
X196701400Y-94230000D02*
X199349900Y-94230000D01*
%TO.N,/MOTOR0*%
X168345000Y-81915000D02*
X167075000Y-80645000D01*
X153611700Y-81915100D02*
X153226700Y-81530100D01*
X180123300Y-80645000D02*
X178871600Y-80645000D01*
X197111500Y-96838300D02*
X197485000Y-96838300D01*
X191976100Y-91182200D02*
X191976100Y-91702900D01*
X159299200Y-80645000D02*
X159925000Y-80645000D01*
X187790400Y-86996500D02*
X191976100Y-91182200D01*
X182507600Y-83717000D02*
X183263900Y-84473300D01*
X165823300Y-80645000D02*
X166449200Y-80645000D01*
X166449200Y-80645000D02*
X167075000Y-80645000D01*
X140970000Y-80645000D02*
X142221700Y-80645000D01*
X173599200Y-80645000D02*
X172329200Y-81915000D01*
X159299200Y-80645000D02*
X158737400Y-80645000D01*
X186003300Y-86291100D02*
X186708700Y-86996500D01*
X158737400Y-80645000D02*
X157467300Y-81915100D01*
X157467300Y-81915100D02*
X153611700Y-81915100D01*
X165179200Y-81915000D02*
X161195000Y-81915000D01*
X178149200Y-81915000D02*
X175495000Y-81915000D01*
X191976100Y-91702900D02*
X197111500Y-96838300D01*
X143106800Y-81530100D02*
X142221700Y-80645000D01*
X153226700Y-81530100D02*
X143106800Y-81530100D01*
X161195000Y-81915000D02*
X159925000Y-80645000D01*
X207150900Y-98040000D02*
X197485000Y-98040000D01*
X183263900Y-84473300D02*
X185258700Y-84473300D01*
X197485000Y-98040000D02*
X197485000Y-96838300D01*
X185258700Y-84473300D02*
X186003300Y-85217900D01*
X217805000Y-108814600D02*
X217805000Y-108694100D01*
X178871600Y-80645000D02*
X178871600Y-81192600D01*
X172329200Y-81915000D02*
X168345000Y-81915000D01*
X172973300Y-80645000D02*
X173599200Y-80645000D01*
X166449200Y-80645000D02*
X165179200Y-81915000D01*
X178871600Y-81192600D02*
X178149200Y-81915000D01*
X217805000Y-108694100D02*
X207150900Y-98040000D01*
X158673300Y-80645000D02*
X158737400Y-80645000D01*
X186003300Y-85217900D02*
X186003300Y-86291100D01*
X186708700Y-86996500D02*
X187790400Y-86996500D01*
X175495000Y-81915000D02*
X174225000Y-80645000D01*
X173599200Y-80645000D02*
X174225000Y-80645000D01*
%TO.N,/DECODER*%
X158673300Y-83185000D02*
X159925000Y-83185000D01*
X178871600Y-83185000D02*
X178871600Y-83732600D01*
X173929100Y-107297600D02*
X150022100Y-107297600D01*
X137900600Y-97155000D02*
X142504600Y-97155000D01*
X141642000Y-104775100D02*
X137860400Y-104775100D01*
X137120800Y-104035500D02*
X137120800Y-97934800D01*
X195308700Y-88996100D02*
X197797400Y-88996100D01*
X178149200Y-84455000D02*
X175495000Y-84455000D01*
X172973300Y-83185000D02*
X173599200Y-83185000D01*
X173599200Y-83185000D02*
X174225000Y-83185000D01*
X202750200Y-95050700D02*
X202450400Y-94750900D01*
X165197500Y-84436700D02*
X161176700Y-84436700D01*
X166449200Y-83185000D02*
X165197500Y-84436700D01*
X149670300Y-106945800D02*
X143812700Y-106945800D01*
X173599200Y-83185000D02*
X172329200Y-84455000D01*
X188525000Y-83185000D02*
X189497600Y-83185000D01*
X161176700Y-84436700D02*
X159925000Y-83185000D01*
X166449200Y-83185000D02*
X167075000Y-83185000D01*
X142504600Y-97155000D02*
X142687400Y-96972200D01*
X178871600Y-83732600D02*
X178149200Y-84455000D01*
X137120800Y-97934800D02*
X137900600Y-97155000D01*
X202450400Y-94750900D02*
X202329600Y-94871700D01*
X150022100Y-107297600D02*
X149670300Y-106945800D01*
X145586100Y-96972200D02*
X146815400Y-95742900D01*
X189497600Y-83185000D02*
X195308700Y-88996100D01*
X202450400Y-93649100D02*
X202450400Y-94750900D01*
X220345000Y-92649600D02*
X217943900Y-95050700D01*
X165823300Y-83185000D02*
X166449200Y-83185000D01*
X197797400Y-88996100D02*
X202450400Y-93649100D01*
X142687400Y-96972200D02*
X145586100Y-96972200D01*
X168345000Y-84455000D02*
X167075000Y-83185000D01*
X175495000Y-84455000D02*
X174225000Y-83185000D01*
X137860400Y-104775100D02*
X137120800Y-104035500D01*
X172329200Y-84455000D02*
X168345000Y-84455000D01*
X217943900Y-95050700D02*
X202750200Y-95050700D01*
X180123300Y-83185000D02*
X178871600Y-83185000D01*
X187273300Y-83185000D02*
X188525000Y-83185000D01*
X143812700Y-106945800D02*
X141642000Y-104775100D01*
%TO.N,/SENSE*%
X157421600Y-95366300D02*
X157421600Y-95885000D01*
X161195000Y-97155000D02*
X159925000Y-95885000D01*
X156670300Y-94615000D02*
X157421600Y-95366300D01*
X165823300Y-95885000D02*
X164553300Y-97155000D01*
X149225000Y-95500000D02*
X150426700Y-95500000D01*
X148624200Y-95500000D02*
X149225000Y-95500000D01*
X147464500Y-94941200D02*
X143165500Y-94941200D01*
X158673300Y-95885000D02*
X159925000Y-95885000D01*
X148624200Y-95500000D02*
X148023300Y-95500000D01*
X140970000Y-95885000D02*
X142221700Y-95885000D01*
X164553300Y-97155000D02*
X161195000Y-97155000D01*
X148023300Y-95500000D02*
X147464500Y-94941200D01*
X143165500Y-94941200D02*
X142221700Y-95885000D01*
X158673300Y-95885000D02*
X157421600Y-95885000D01*
X151311700Y-94615000D02*
X156670300Y-94615000D01*
X150426700Y-95500000D02*
X151311700Y-94615000D01*
%TO.N,/I2C.SCL*%
X197899300Y-82618300D02*
X198686700Y-81830900D01*
X210124600Y-64770000D02*
X189160000Y-64770000D01*
X198686700Y-81830900D02*
X198686700Y-80753500D01*
X197122000Y-85158300D02*
X196283300Y-84319600D01*
X197943400Y-80010200D02*
X190869500Y-80010200D01*
X198686700Y-80753500D02*
X197943400Y-80010200D01*
X187273300Y-65405000D02*
X188525000Y-65405000D01*
X196283300Y-84319600D02*
X196283300Y-83221700D01*
X196886700Y-82618300D02*
X197899300Y-82618300D01*
X212725000Y-62169600D02*
X210124600Y-64770000D01*
X205233700Y-85158300D02*
X197122000Y-85158300D01*
X196283300Y-83221700D02*
X196886700Y-82618300D01*
X190869500Y-80010200D02*
X190730300Y-79871000D01*
X212725000Y-92649600D02*
X205233700Y-85158300D01*
X189160000Y-64770000D02*
X188525000Y-65405000D01*
%TO.N,/RAILCOM1*%
X158673300Y-106045000D02*
X161015200Y-106045000D01*
X144376500Y-109451500D02*
X162416800Y-109451500D01*
X162266900Y-104793300D02*
X164332600Y-104793300D01*
X140970000Y-106045000D02*
X144376500Y-109451500D01*
X168165200Y-106045000D02*
X169416900Y-104793300D01*
X165823300Y-106045000D02*
X168165200Y-106045000D01*
X171482600Y-104793300D02*
X171721600Y-105032300D01*
X169416900Y-104793300D02*
X171482600Y-104793300D01*
X161015200Y-106045000D02*
X162266900Y-104793300D01*
X178636900Y-104793300D02*
X176494000Y-104793300D01*
X165823300Y-106045000D02*
X164571600Y-106045000D01*
X171721600Y-105032300D02*
X171721600Y-106045000D01*
X180123300Y-106045000D02*
X178871600Y-106045000D01*
X164571600Y-105032300D02*
X164571600Y-106045000D01*
X164332600Y-104793300D02*
X164571600Y-105032300D01*
X175242300Y-106045000D02*
X172973300Y-106045000D01*
X162416800Y-109451500D02*
X162544800Y-109323500D01*
X178871600Y-105028000D02*
X178636900Y-104793300D01*
X172973300Y-106045000D02*
X171721600Y-106045000D01*
X176494000Y-104793300D02*
X175242300Y-106045000D01*
X178871600Y-106045000D02*
X178871600Y-105028000D01*
%TO.N,/BACK_EMF1*%
X192970000Y-77470000D02*
X188525000Y-73025000D01*
X178871600Y-72477400D02*
X178149200Y-71755000D01*
X209348800Y-83472900D02*
X203345900Y-77470000D01*
X203345900Y-77470000D02*
X192970000Y-77470000D01*
X187273300Y-73025000D02*
X188525000Y-73025000D01*
X175495000Y-71755000D02*
X174225000Y-73025000D01*
X180123300Y-73025000D02*
X178871600Y-73025000D01*
X172973300Y-73025000D02*
X174225000Y-73025000D01*
X178871600Y-73025000D02*
X178871600Y-72477400D01*
X178149200Y-71755000D02*
X175495000Y-71755000D01*
%TO.N,/TRACK1*%
X130175000Y-106045000D02*
X129540000Y-105410000D01*
X138430000Y-106045000D02*
X130175000Y-106045000D01*
%TO.N,/USB.DM*%
X178149200Y-99695000D02*
X175495000Y-99695000D01*
X158673300Y-98425000D02*
X158823300Y-98425000D01*
X182645000Y-97155000D02*
X181375000Y-98425000D01*
X150871800Y-96827900D02*
X151183900Y-97140000D01*
X172973300Y-98425000D02*
X173599200Y-98425000D01*
X157538300Y-97140000D02*
X158823300Y-98425000D01*
X172329200Y-99695000D02*
X168345000Y-99695000D01*
X166449200Y-98425000D02*
X165179200Y-99695000D01*
X185299200Y-97155000D02*
X182645000Y-97155000D01*
X151183900Y-97140000D02*
X157538300Y-97140000D01*
X142221700Y-98425000D02*
X145112400Y-98425000D01*
X180123300Y-98425000D02*
X178871600Y-98425000D01*
X175495000Y-99695000D02*
X174225000Y-98425000D01*
X159299200Y-98425000D02*
X159925000Y-98425000D01*
X166449200Y-98425000D02*
X167075000Y-98425000D01*
X165179200Y-99695000D02*
X161195000Y-99695000D01*
X173599200Y-98425000D02*
X172329200Y-99695000D01*
X145112400Y-98425000D02*
X146709500Y-96827900D01*
X187273300Y-98425000D02*
X186021600Y-98425000D01*
X165823300Y-98425000D02*
X166449200Y-98425000D01*
X168345000Y-99695000D02*
X167075000Y-98425000D01*
X178871600Y-98425000D02*
X178871600Y-98972600D01*
X161195000Y-99695000D02*
X159925000Y-98425000D01*
X186021600Y-97877400D02*
X185299200Y-97155000D01*
X180123300Y-98425000D02*
X181375000Y-98425000D01*
X146709500Y-96827900D02*
X150871800Y-96827900D01*
X186021600Y-98425000D02*
X186021600Y-97877400D01*
X159299200Y-98425000D02*
X158823300Y-98425000D01*
X173599200Y-98425000D02*
X174225000Y-98425000D01*
X178871600Y-98972600D02*
X178149200Y-99695000D01*
X140970000Y-98425000D02*
X142221700Y-98425000D01*
%TO.N,GND*%
X131130800Y-75882500D02*
X134305800Y-79057500D01*
X134305800Y-79057500D02*
X140020800Y-79057500D01*
%TO.N,/DCC0*%
X177583300Y-83185000D02*
X177741400Y-83185000D01*
X138430000Y-83185000D02*
X139681700Y-83185000D01*
X142609300Y-84455000D02*
X140433000Y-84455000D01*
X140433000Y-84455000D02*
X139681700Y-83703700D01*
X152120200Y-83185000D02*
X151291400Y-84013800D01*
X156133300Y-83185000D02*
X152120200Y-83185000D01*
X179011300Y-81915100D02*
X182211700Y-81915100D01*
X151291400Y-84013800D02*
X143050500Y-84013800D01*
X139681700Y-83703700D02*
X139681700Y-83185000D01*
X182211700Y-81915100D02*
X183481600Y-83185000D01*
X143050500Y-84013800D02*
X142609300Y-84455000D01*
X177741400Y-83185000D02*
X179011300Y-81915100D01*
X184733300Y-83185000D02*
X183481600Y-83185000D01*
%TO.N,/DCC1*%
X175061600Y-86995000D02*
X172436300Y-86995000D01*
X150976400Y-89093400D02*
X144741300Y-89093400D01*
X156133300Y-85725000D02*
X157385000Y-85725000D01*
X183481600Y-85725000D02*
X182211600Y-86995000D01*
X171031600Y-85725000D02*
X170433300Y-85725000D01*
X171031600Y-85725000D02*
X171685000Y-85725000D01*
X139681700Y-86243700D02*
X139681700Y-85725000D01*
X157385000Y-86917300D02*
X155691800Y-86917300D01*
X131441700Y-96526600D02*
X129540000Y-98428300D01*
X169181600Y-85725000D02*
X167911600Y-86995000D01*
X151146200Y-88923600D02*
X150976400Y-89093400D01*
X144741300Y-89093400D02*
X142642900Y-86995000D01*
X167911600Y-86995000D02*
X165286300Y-86995000D01*
X176331600Y-85725000D02*
X175061600Y-86995000D01*
X133031000Y-83502500D02*
X133032500Y-83504000D01*
X162031600Y-85725000D02*
X160761600Y-86995000D01*
X155691800Y-86917300D02*
X153685500Y-88923600D01*
X129540000Y-100330000D02*
X129540000Y-98428300D01*
X157462700Y-86995000D02*
X157385000Y-86917300D01*
X131130800Y-83502500D02*
X132881700Y-83502500D01*
X184733300Y-85725000D02*
X183481600Y-85725000D01*
X133031000Y-83502500D02*
X133032500Y-83502500D01*
X140433000Y-86995000D02*
X139681700Y-86243700D01*
X157385000Y-86917300D02*
X157385000Y-85725000D01*
X165286300Y-86995000D02*
X164535000Y-86243700D01*
X160761600Y-86995000D02*
X157462700Y-86995000D01*
X138430000Y-85725000D02*
X139681700Y-85725000D01*
X177583300Y-85725000D02*
X176331600Y-85725000D01*
X134937500Y-81597500D02*
X133032500Y-83502500D01*
X133032500Y-83504000D02*
X133032500Y-92399100D01*
X153685500Y-88923600D02*
X151146200Y-88923600D01*
X164535000Y-86243700D02*
X164535000Y-85725000D01*
X170433300Y-85725000D02*
X169181600Y-85725000D01*
X132881700Y-83502500D02*
X133031000Y-83502500D01*
X177601600Y-86995000D02*
X176331600Y-85725000D01*
X171685000Y-86243700D02*
X171685000Y-85725000D01*
X163283300Y-85725000D02*
X164535000Y-85725000D01*
X163283300Y-85725000D02*
X162031600Y-85725000D01*
X142642900Y-86995000D02*
X140433000Y-86995000D01*
X182211600Y-86995000D02*
X177601600Y-86995000D01*
X140020800Y-81597500D02*
X134937500Y-81597500D01*
X172436300Y-86995000D02*
X171685000Y-86243700D01*
%TO.N,/TRACK0*%
X178181600Y-103505000D02*
X178835000Y-103505000D01*
X157385000Y-104023700D02*
X157385000Y-103505000D01*
X181893400Y-103505000D02*
X181893400Y-103504900D01*
X164535000Y-104023700D02*
X164535000Y-103505000D01*
X163881600Y-103505000D02*
X164535000Y-103505000D01*
X171031600Y-103505000D02*
X171685000Y-103505000D01*
X156731600Y-103505000D02*
X156133300Y-103505000D01*
X156731600Y-103505000D02*
X157385000Y-103505000D01*
X162031600Y-103505000D02*
X160761600Y-104775000D01*
X184733300Y-103505000D02*
X183481600Y-103505000D01*
X156133300Y-103505000D02*
X154881600Y-103505000D01*
X139681800Y-103505000D02*
X139681700Y-103505000D01*
X176331600Y-103505000D02*
X175061600Y-104775000D01*
X183481600Y-103505000D02*
X181893400Y-103505000D01*
X177583300Y-103505000D02*
X176331600Y-103505000D01*
X181893400Y-103504900D02*
X180641800Y-102253300D01*
X171685000Y-104023700D02*
X171685000Y-103505000D01*
X140451500Y-102253300D02*
X139681800Y-103023000D01*
X179604800Y-102253300D02*
X178835000Y-103023100D01*
X175061600Y-104775000D02*
X172436300Y-104775000D01*
X167911600Y-104775000D02*
X165286300Y-104775000D01*
X178835000Y-103023100D02*
X178835000Y-103505000D01*
X143556900Y-104321700D02*
X141488500Y-102253300D01*
X141488500Y-102253300D02*
X140451500Y-102253300D01*
X165286300Y-104775000D02*
X164535000Y-104023700D01*
X160761600Y-104775000D02*
X158136300Y-104775000D01*
X139681800Y-103023000D02*
X139681800Y-103505000D01*
X163283300Y-103505000D02*
X162031600Y-103505000D01*
X180641800Y-102253300D02*
X179604800Y-102253300D01*
X172436300Y-104775000D02*
X171685000Y-104023700D01*
X158136300Y-104775000D02*
X157385000Y-104023700D01*
X169181600Y-103505000D02*
X167911600Y-104775000D01*
X170433300Y-103505000D02*
X169181600Y-103505000D01*
X138430000Y-103505000D02*
X139681700Y-103505000D01*
X171031600Y-103505000D02*
X170433300Y-103505000D01*
X178181600Y-103505000D02*
X177583300Y-103505000D01*
X154881600Y-103505000D02*
X154064900Y-104321700D01*
X154064900Y-104321700D02*
X143556900Y-104321700D01*
X163881600Y-103505000D02*
X163283300Y-103505000D01*
%TO.N,/USB.DP*%
X158673300Y-100965000D02*
X159925000Y-100965000D01*
X180123300Y-100965000D02*
X178871600Y-100965000D01*
X165179200Y-102235000D02*
X161195000Y-102235000D01*
X172973300Y-100965000D02*
X173599200Y-100965000D01*
X173599200Y-100965000D02*
X174225000Y-100965000D01*
X165823300Y-100965000D02*
X166449200Y-100965000D01*
X173599200Y-100965000D02*
X172329200Y-102235000D01*
X178871600Y-101512600D02*
X178149200Y-102235000D01*
X178149200Y-102235000D02*
X175495000Y-102235000D01*
X178871600Y-100965000D02*
X178871600Y-101512600D01*
X161195000Y-102235000D02*
X159925000Y-100965000D01*
X166449200Y-100965000D02*
X165179200Y-102235000D01*
X175495000Y-102235000D02*
X174225000Y-100965000D01*
X172329200Y-102235000D02*
X168345000Y-102235000D01*
X166449200Y-100965000D02*
X167075000Y-100965000D01*
X168345000Y-102235000D02*
X167075000Y-100965000D01*
%TO.N,+U*%
X156133300Y-80645000D02*
X154881600Y-80645000D01*
X138430000Y-62865000D02*
X139681700Y-62865000D01*
X156133300Y-62865000D02*
X154881600Y-62865000D01*
X179011400Y-79375000D02*
X182211600Y-79375000D01*
X139681700Y-62865000D02*
X139681700Y-62317400D01*
X153567500Y-61550900D02*
X154881600Y-62865000D01*
X182211600Y-79375000D02*
X183481600Y-80645000D01*
X177741400Y-80645000D02*
X179011400Y-79375000D01*
X139681700Y-62317400D02*
X140448200Y-61550900D01*
X151855100Y-77580700D02*
X154881600Y-80607200D01*
X154881600Y-80607200D02*
X154881600Y-80645000D01*
X184733300Y-80645000D02*
X183481600Y-80645000D01*
X177583300Y-80645000D02*
X177741400Y-80645000D01*
X140448200Y-61550900D02*
X153567500Y-61550900D01*
%TO.N,/AMP_FUNC0_F*%
X175670900Y-70485000D02*
X177583300Y-70485000D01*
X172436300Y-71755000D02*
X174400900Y-71755000D01*
X164535000Y-71003700D02*
X164535000Y-70485000D01*
X163881600Y-70485000D02*
X164535000Y-70485000D01*
X170433300Y-70485000D02*
X169181600Y-70485000D01*
X167911600Y-71755000D02*
X165286300Y-71755000D01*
X163283300Y-70485000D02*
X162031600Y-70485000D01*
X179569200Y-69215000D02*
X182211600Y-69215000D01*
X174400900Y-71755000D02*
X175670900Y-70485000D01*
X158136300Y-71755000D02*
X157385000Y-71003700D01*
X169181600Y-70485000D02*
X167911600Y-71755000D01*
X160761600Y-71755000D02*
X158136300Y-71755000D01*
X171031600Y-70485000D02*
X170433300Y-70485000D01*
X171685000Y-70485000D02*
X171685000Y-71003700D01*
X171031600Y-70485000D02*
X171685000Y-70485000D01*
X171685000Y-71003700D02*
X172436300Y-71755000D01*
X157385000Y-71003700D02*
X157385000Y-70485000D01*
X177583300Y-70485000D02*
X178835000Y-70485000D01*
X163881600Y-70485000D02*
X163283300Y-70485000D01*
X182211600Y-69215000D02*
X183481600Y-70485000D01*
X156133300Y-70485000D02*
X157385000Y-70485000D01*
X165286300Y-71755000D02*
X164535000Y-71003700D01*
X162031600Y-70485000D02*
X160761600Y-71755000D01*
X178835000Y-70485000D02*
X178835000Y-69949200D01*
X178835000Y-69949200D02*
X179569200Y-69215000D01*
X184733300Y-70485000D02*
X183481600Y-70485000D01*
%TO.N,/FUNC0_F*%
X188861400Y-81915000D02*
X190415800Y-81915000D01*
X190415800Y-81915000D02*
X196834000Y-88333200D01*
X165823300Y-70485000D02*
X164553300Y-69215000D01*
X210185000Y-108814600D02*
X208258800Y-106888400D01*
X198259600Y-88333200D02*
X200659500Y-90733100D01*
X161195000Y-69215000D02*
X159925000Y-70485000D01*
X158673300Y-70485000D02*
X159925000Y-70485000D01*
X164553300Y-69215000D02*
X161195000Y-69215000D01*
X208258800Y-106888400D02*
X208258800Y-103492900D01*
X196834000Y-88333200D02*
X198259600Y-88333200D01*
X200659500Y-90733100D02*
X202848100Y-90733100D01*
%TO.N,/AMP_MOTOR1*%
X172436300Y-74295000D02*
X171685000Y-73543700D01*
X158136300Y-74295000D02*
X157385000Y-73543700D01*
X164535000Y-73543700D02*
X164535000Y-73025000D01*
X178853300Y-74295000D02*
X182211600Y-74295000D01*
X163283300Y-73025000D02*
X164535000Y-73025000D01*
X144862600Y-71755000D02*
X140433000Y-71755000D01*
X163283300Y-73025000D02*
X162031600Y-73025000D01*
X156731600Y-73025000D02*
X157385000Y-73025000D01*
X140433000Y-71755000D02*
X139681700Y-72506300D01*
X156133300Y-73025000D02*
X154881600Y-73025000D01*
X138430000Y-73025000D02*
X139681700Y-73025000D01*
X177583300Y-73025000D02*
X176331600Y-73025000D01*
X139681700Y-72506300D02*
X139681700Y-73025000D01*
X165286300Y-74295000D02*
X164535000Y-73543700D01*
X175061600Y-74295000D02*
X172436300Y-74295000D01*
X169181600Y-73025000D02*
X167911600Y-74295000D01*
X184733300Y-73025000D02*
X183481600Y-73025000D01*
X171031600Y-73025000D02*
X170433300Y-73025000D01*
X162031600Y-73025000D02*
X160761600Y-74295000D01*
X171031600Y-73025000D02*
X171685000Y-73025000D01*
X154881600Y-73025000D02*
X153294900Y-71438300D01*
X167911600Y-74295000D02*
X165286300Y-74295000D01*
X177583300Y-73025000D02*
X178853300Y-74295000D01*
X182211600Y-74295000D02*
X183481600Y-73025000D01*
X153294900Y-71438300D02*
X145179300Y-71438300D01*
X160761600Y-74295000D02*
X158136300Y-74295000D01*
X176331600Y-73025000D02*
X175061600Y-74295000D01*
X145179300Y-71438300D02*
X144862600Y-71755000D01*
X156731600Y-73025000D02*
X156133300Y-73025000D01*
X171685000Y-73543700D02*
X171685000Y-73025000D01*
X170433300Y-73025000D02*
X169181600Y-73025000D01*
X157385000Y-73543700D02*
X157385000Y-73025000D01*
%TO.N,/AMP_MOTOR0*%
X140433000Y-74295000D02*
X139681700Y-75046300D01*
X154781900Y-75465300D02*
X153271100Y-75465300D01*
X156133300Y-75565000D02*
X154881600Y-75565000D01*
X145296600Y-74295000D02*
X140433000Y-74295000D01*
X139681700Y-75046300D02*
X139681700Y-75565000D01*
X154881600Y-75565000D02*
X154781900Y-75465300D01*
X138430000Y-75565000D02*
X139681700Y-75565000D01*
X146558200Y-73033400D02*
X145296600Y-74295000D01*
%TO.N,/SPEAKER1*%
X178835000Y-65923700D02*
X178835000Y-65405000D01*
X156133300Y-65405000D02*
X154881600Y-65405000D01*
X182211600Y-66675000D02*
X179586300Y-66675000D01*
X162031300Y-65405000D02*
X163283300Y-65405000D01*
X172436300Y-66675000D02*
X171685000Y-65923700D01*
X170433300Y-65405000D02*
X171685000Y-65405000D01*
X169181600Y-65405000D02*
X169181600Y-65006200D01*
X184733300Y-65405000D02*
X183481600Y-65405000D01*
X153611600Y-66675000D02*
X140433000Y-66675000D01*
X175061600Y-66675000D02*
X172436300Y-66675000D01*
X177583300Y-65405000D02*
X176331600Y-65405000D01*
X171685000Y-65923700D02*
X171685000Y-65405000D01*
X183481600Y-65405000D02*
X182211600Y-66675000D01*
X154881600Y-65405000D02*
X153611600Y-66675000D01*
X177583300Y-65405000D02*
X178835000Y-65405000D01*
X139681700Y-65923700D02*
X139681700Y-65405000D01*
X176331600Y-65405000D02*
X175061600Y-66675000D01*
X140433000Y-66675000D02*
X139681700Y-65923700D01*
X179586300Y-66675000D02*
X178835000Y-65923700D01*
X170433300Y-65405000D02*
X169181600Y-65405000D01*
X160336900Y-63710600D02*
X162031300Y-65405000D01*
X138430000Y-65405000D02*
X139681700Y-65405000D01*
X169181600Y-65006200D02*
X167885100Y-63709700D01*
%TO.N,/PCM*%
X165823300Y-67945000D02*
X166256300Y-67945000D01*
X168345000Y-69215000D02*
X167075000Y-67945000D01*
X180123300Y-67945000D02*
X182892700Y-67945000D01*
X179497500Y-67945000D02*
X180123300Y-67945000D01*
X161195000Y-66675000D02*
X159925000Y-67945000D01*
X187273300Y-67945000D02*
X188525000Y-67945000D01*
X223501700Y-83187800D02*
X226847800Y-79841700D01*
X175495000Y-69215000D02*
X174225000Y-67945000D01*
X166256300Y-67945000D02*
X164986300Y-66675000D01*
X219321000Y-69850000D02*
X190430000Y-69850000D01*
X188490200Y-67910200D02*
X188525000Y-67945000D01*
X172329200Y-69215000D02*
X168345000Y-69215000D01*
X226847800Y-77376800D02*
X219321000Y-69850000D01*
X178871600Y-68492600D02*
X178149200Y-69215000D01*
X173599200Y-67945000D02*
X174225000Y-67945000D01*
X164986300Y-66675000D02*
X161195000Y-66675000D01*
X166449200Y-67945000D02*
X167075000Y-67945000D01*
X185327600Y-66656700D02*
X186581100Y-67910200D01*
X226847800Y-79841700D02*
X226847800Y-77376800D01*
X190430000Y-69850000D02*
X188525000Y-67945000D01*
X179497500Y-67945000D02*
X178871600Y-67945000D01*
X186581100Y-67910200D02*
X188490200Y-67910200D01*
X173599200Y-67945000D02*
X172329200Y-69215000D01*
X166449200Y-67945000D02*
X166256300Y-67945000D01*
X178871600Y-67945000D02*
X178871600Y-68492600D01*
X178149200Y-69215000D02*
X175495000Y-69215000D01*
X158673300Y-67945000D02*
X159925000Y-67945000D01*
X157421600Y-67426300D02*
X157421600Y-67945000D01*
X182892700Y-67945000D02*
X184181000Y-66656700D01*
X156670300Y-66675000D02*
X157421600Y-67426300D01*
X184181000Y-66656700D02*
X185327600Y-66656700D01*
X154469400Y-66675000D02*
X156670300Y-66675000D01*
X158673300Y-67945000D02*
X157421600Y-67945000D01*
X140970000Y-67945000D02*
X153199400Y-67945000D01*
X153199400Y-67945000D02*
X154469400Y-66675000D01*
X172973300Y-67945000D02*
X173599200Y-67945000D01*
%TO.N,/SPEAKER0*%
X139681700Y-68463700D02*
X139681700Y-67945000D01*
X138430000Y-67945000D02*
X139681700Y-67945000D01*
X156133300Y-67945000D02*
X154881600Y-67945000D01*
X154881600Y-67945000D02*
X153611600Y-69215000D01*
X153611600Y-69215000D02*
X140433000Y-69215000D01*
X140433000Y-69215000D02*
X139681700Y-68463700D01*
%TO.N,+5V*%
X193381200Y-101918300D02*
X209842900Y-101918300D01*
X177583300Y-100965000D02*
X177741400Y-100965000D01*
X186736300Y-102235000D02*
X191912200Y-102235000D01*
X177741400Y-100965000D02*
X179011400Y-99695000D01*
X140451500Y-99713300D02*
X139681700Y-100483100D01*
X141488500Y-99713300D02*
X140451500Y-99713300D01*
X143556900Y-101781700D02*
X141488500Y-99713300D01*
X154064900Y-101781700D02*
X143556900Y-101781700D01*
X182211600Y-99695000D02*
X183481600Y-100965000D01*
X209842900Y-101918300D02*
X212112800Y-104188200D01*
X185985000Y-101483700D02*
X186736300Y-102235000D01*
X139681700Y-100483100D02*
X139681700Y-100965000D01*
X184733300Y-100965000D02*
X185985000Y-100965000D01*
X138430000Y-100965000D02*
X139681700Y-100965000D01*
X156133300Y-100965000D02*
X154881600Y-100965000D01*
X192473100Y-101674100D02*
X193137000Y-101674100D01*
X185985000Y-100965000D02*
X185985000Y-101483700D01*
X191912200Y-102235000D02*
X192473100Y-101674100D01*
X184733300Y-100965000D02*
X183481600Y-100965000D01*
X193137000Y-101674100D02*
X193381200Y-101918300D01*
X179011400Y-99695000D02*
X182211600Y-99695000D01*
X154881600Y-100965000D02*
X154064900Y-101781700D01*
%TO.N,VCC*%
X163283300Y-95885000D02*
X164535000Y-95885000D01*
X169181600Y-95885000D02*
X167911600Y-94615000D01*
X165286300Y-94615000D02*
X164535000Y-95366300D01*
X182211600Y-94615000D02*
X183481600Y-95885000D01*
X170433300Y-95885000D02*
X169181600Y-95885000D01*
X177583300Y-95885000D02*
X178835000Y-95885000D01*
X178835000Y-95338200D02*
X179558200Y-94615000D01*
X179558200Y-94615000D02*
X182211600Y-94615000D01*
X167911600Y-94615000D02*
X165286300Y-94615000D01*
X184733300Y-95885000D02*
X183481600Y-95885000D01*
X178835000Y-95885000D02*
X178835000Y-95338200D01*
X164535000Y-95366300D02*
X164535000Y-95885000D01*
%TO.N,+3V3*%
X138430000Y-90805000D02*
X139681700Y-90805000D01*
X154363000Y-91323600D02*
X154881600Y-90805000D01*
X153238600Y-91323600D02*
X154363000Y-91323600D01*
X139681700Y-91323700D02*
X140434500Y-92076500D01*
X156133300Y-90805000D02*
X154881600Y-90805000D01*
X142357200Y-92076500D02*
X143159800Y-92879100D01*
X143159800Y-92879100D02*
X151683100Y-92879100D01*
X151683100Y-92879100D02*
X153238600Y-91323600D01*
X208242900Y-75952400D02*
X207540700Y-76654600D01*
X184733300Y-90805000D02*
X185985000Y-90805000D01*
X185985000Y-91352700D02*
X186689000Y-92056700D01*
X140434500Y-92076500D02*
X142357200Y-92076500D01*
X186689000Y-92056700D02*
X188933900Y-92056700D01*
X223042800Y-75952400D02*
X208242900Y-75952400D01*
X225425000Y-78334600D02*
X223042800Y-75952400D01*
X139681700Y-90805000D02*
X139681700Y-91323700D01*
X185985000Y-90805000D02*
X185985000Y-91352700D01*
X188933900Y-92056700D02*
X189024400Y-91966200D01*
%TD*%
M02*
