M48
; DRILL file {KiCad 8.0.0-rc2-358-gd9abaa23a4} date 2024-02-08T19:09:18+0100
; FORMAT={-:-/ absolute / inch / decimal}
; #@! TF.CreationDate,2024-02-08T19:09:18+01:00
; #@! TF.GenerationSoftware,Kicad,Pcbnew,8.0.0-rc2-358-gd9abaa23a4
; #@! TF.FileFunction,Plated,1,2,PTH
FMAT,2
INCH
; #@! TA.AperFunction,Plated,PTH,ViaDrill
T1C0.0157
; #@! TA.AperFunction,Plated,PTH,ComponentDrill
T2C0.0394
; #@! TA.AperFunction,Plated,PTH,ComponentDrill
T3C0.0433
%
G90
G05
T1
X5.6978Y-4.3598
X5.7136Y-3.1413
X5.7779Y-3.0117
X5.9544Y-4.2113
X5.9544Y-4.4436
X6.0312Y-4.0711
X6.0472Y-3.1709
X6.0821Y-4.5336
X6.0995Y-3.8997
X6.1963Y-3.6035
X6.2612Y-4.4895
X6.2962Y-3.1985
X6.3066Y-3.7035
X6.3106Y-3.9771
X6.3443Y-3.7698
X6.3449Y-4.1145
X6.3535Y-3.06
X6.3542Y-3.1624
X6.4053Y-4.4895
X6.45Y-4.3964
X6.4704Y-3.4607
X6.4704Y-3.6954
X6.477Y-4.2316
X6.5286Y-3.7435
X6.5927Y-3.7693
X6.6354Y-3.8467
T2
X5.45Y-3.575
X5.45Y-3.675
X5.45Y-3.775
X5.45Y-3.875
X5.45Y-3.975
X5.45Y-4.075
X5.45Y-4.175
X5.45Y-4.275
X5.45Y-4.375
X5.45Y-4.475
X5.55Y-3.575
X5.55Y-3.675
X5.55Y-3.775
X5.55Y-3.875
X5.55Y-3.975
X5.55Y-4.075
X5.55Y-4.175
X5.55Y-4.275
X5.55Y-4.375
X5.55Y-4.475
T3
X6.725Y-2.725
X6.725Y-2.9061
X6.725Y-3.0872
X6.725Y-3.2683
X6.725Y-3.4494
X6.7289Y-3.6061
X6.7289Y-3.7872
X6.7289Y-3.9683
X6.7289Y-4.1494
X6.7289Y-4.3305
X6.7289Y-4.5116
M30
