%TF.GenerationSoftware,KiCad,Pcbnew,8.0.0-rc2-358-gd9abaa23a4*%
%TF.CreationDate,2024-02-08T19:09:20+01:00*%
%TF.ProjectId,xDuinoRail-Breakout-RailcomDetect,78447569-6e6f-4526-9169-6c2d42726561,rev?*%
%TF.SameCoordinates,Original*%
%TF.FileFunction,Drillmap*%
%TF.FilePolarity,Positive*%
%FSLAX45Y45*%
G04 Gerber Fmt 4.5, Leading zero omitted, Abs format (unit mm)*
G04 Created by KiCad (PCBNEW 8.0.0-rc2-358-gd9abaa23a4) date 2024-02-08 19:09:20*
%MOMM*%
%LPD*%
G01*
G04 APERTURE LIST*
%ADD10C,0.100000*%
%ADD11C,0.200000*%
%ADD12C,0.110000*%
G04 APERTURE END LIST*
D10*
X13652500Y-6931000D02*
G75*
G02*
X13852500Y-6731000I200000J0D01*
G01*
X13852500Y-11684000D02*
G75*
G02*
X13652500Y-11484000I0J200000D01*
G01*
X18405500Y-11684000D02*
X13852500Y-11684000D01*
X18405500Y-6731000D02*
G75*
G02*
X18605500Y-6931000I0J-200000D01*
G01*
X18605500Y-11484000D02*
G75*
G02*
X18405500Y-11684000I-200000J0D01*
G01*
X13652500Y-11484000D02*
X13652500Y-6931000D01*
X13852500Y-6731000D02*
X18405500Y-6731000D01*
X18605500Y-6931000D02*
X18605500Y-11484000D01*
D11*
D10*
X14452420Y-11053860D02*
X14492420Y-11093860D01*
X14492420Y-11053860D02*
X14452420Y-11093860D01*
X14492660Y-7959020D02*
X14532660Y-7999020D01*
X14532660Y-7959020D02*
X14492660Y-7999020D01*
X14655750Y-7629700D02*
X14695750Y-7669700D01*
X14695750Y-7629700D02*
X14655750Y-7669700D01*
X15104240Y-10676580D02*
X15144240Y-10716580D01*
X15144240Y-10676580D02*
X15104240Y-10716580D01*
X15104240Y-11266820D02*
X15144240Y-11306820D01*
X15144240Y-11266820D02*
X15104240Y-11306820D01*
X15299290Y-10320700D02*
X15339290Y-10360700D01*
X15339290Y-10320700D02*
X15299290Y-10360700D01*
X15339910Y-8034070D02*
X15379910Y-8074070D01*
X15379910Y-8034070D02*
X15339910Y-8074070D01*
X15428460Y-11495320D02*
X15468460Y-11535320D01*
X15468460Y-11495320D02*
X15428460Y-11535320D01*
X15472770Y-9885300D02*
X15512770Y-9925300D01*
X15512770Y-9885300D02*
X15472770Y-9925300D01*
X15718500Y-9133000D02*
X15758500Y-9173000D01*
X15758500Y-9133000D02*
X15718500Y-9173000D01*
X15883530Y-11383280D02*
X15923530Y-11423280D01*
X15923530Y-11383280D02*
X15883530Y-11423280D01*
X15972310Y-8104080D02*
X16012310Y-8144080D01*
X16012310Y-8104080D02*
X15972310Y-8144080D01*
X15998780Y-9386980D02*
X16038780Y-9426980D01*
X16038780Y-9386980D02*
X15998780Y-9426980D01*
X16009000Y-10081880D02*
X16049000Y-10121880D01*
X16049000Y-10081880D02*
X16009000Y-10121880D01*
X16094470Y-9555270D02*
X16134470Y-9595270D01*
X16134470Y-9555270D02*
X16094470Y-9595270D01*
X16096000Y-10430760D02*
X16136000Y-10470760D01*
X16136000Y-10430760D02*
X16096000Y-10470760D01*
X16117920Y-7752390D02*
X16157920Y-7792390D01*
X16157920Y-7752390D02*
X16117920Y-7792390D01*
X16119720Y-8012500D02*
X16159720Y-8052500D01*
X16159720Y-8012500D02*
X16119720Y-8052500D01*
X16249540Y-11383280D02*
X16289540Y-11423280D01*
X16289540Y-11383280D02*
X16249540Y-11423280D01*
X16363000Y-11146760D02*
X16403000Y-11186760D01*
X16403000Y-11146760D02*
X16363000Y-11186760D01*
X16414830Y-8770290D02*
X16454830Y-8810290D01*
X16454830Y-8770290D02*
X16414830Y-8810290D01*
X16414830Y-9366410D02*
X16454830Y-9406410D01*
X16454830Y-9366410D02*
X16414830Y-9406410D01*
X16431510Y-10728190D02*
X16471510Y-10768190D01*
X16471510Y-10728190D02*
X16431510Y-10768190D01*
X16562700Y-9488450D02*
X16602700Y-9528450D01*
X16602700Y-9488450D02*
X16562700Y-9528450D01*
X16725440Y-9553930D02*
X16765440Y-9593930D01*
X16765440Y-9553930D02*
X16725440Y-9593930D01*
X16833890Y-9750680D02*
X16873890Y-9790680D01*
X16873890Y-9750680D02*
X16833890Y-9790680D01*
X13893000Y-9080500D02*
G75*
G02*
X13793000Y-9080500I-50000J0D01*
G01*
X13793000Y-9080500D02*
G75*
G02*
X13893000Y-9080500I50000J0D01*
G01*
X13893000Y-9334500D02*
G75*
G02*
X13793000Y-9334500I-50000J0D01*
G01*
X13793000Y-9334500D02*
G75*
G02*
X13893000Y-9334500I50000J0D01*
G01*
X13893000Y-9588500D02*
G75*
G02*
X13793000Y-9588500I-50000J0D01*
G01*
X13793000Y-9588500D02*
G75*
G02*
X13893000Y-9588500I50000J0D01*
G01*
X13893000Y-9842500D02*
G75*
G02*
X13793000Y-9842500I-50000J0D01*
G01*
X13793000Y-9842500D02*
G75*
G02*
X13893000Y-9842500I50000J0D01*
G01*
X13893000Y-10096500D02*
G75*
G02*
X13793000Y-10096500I-50000J0D01*
G01*
X13793000Y-10096500D02*
G75*
G02*
X13893000Y-10096500I50000J0D01*
G01*
X13893000Y-10350500D02*
G75*
G02*
X13793000Y-10350500I-50000J0D01*
G01*
X13793000Y-10350500D02*
G75*
G02*
X13893000Y-10350500I50000J0D01*
G01*
X13893000Y-10604500D02*
G75*
G02*
X13793000Y-10604500I-50000J0D01*
G01*
X13793000Y-10604500D02*
G75*
G02*
X13893000Y-10604500I50000J0D01*
G01*
X13893000Y-10858500D02*
G75*
G02*
X13793000Y-10858500I-50000J0D01*
G01*
X13793000Y-10858500D02*
G75*
G02*
X13893000Y-10858500I50000J0D01*
G01*
X13893000Y-11112500D02*
G75*
G02*
X13793000Y-11112500I-50000J0D01*
G01*
X13793000Y-11112500D02*
G75*
G02*
X13893000Y-11112500I50000J0D01*
G01*
X13893000Y-11366500D02*
G75*
G02*
X13793000Y-11366500I-50000J0D01*
G01*
X13793000Y-11366500D02*
G75*
G02*
X13893000Y-11366500I50000J0D01*
G01*
X14147000Y-9080500D02*
G75*
G02*
X14047000Y-9080500I-50000J0D01*
G01*
X14047000Y-9080500D02*
G75*
G02*
X14147000Y-9080500I50000J0D01*
G01*
X14147000Y-9334500D02*
G75*
G02*
X14047000Y-9334500I-50000J0D01*
G01*
X14047000Y-9334500D02*
G75*
G02*
X14147000Y-9334500I50000J0D01*
G01*
X14147000Y-9588500D02*
G75*
G02*
X14047000Y-9588500I-50000J0D01*
G01*
X14047000Y-9588500D02*
G75*
G02*
X14147000Y-9588500I50000J0D01*
G01*
X14147000Y-9842500D02*
G75*
G02*
X14047000Y-9842500I-50000J0D01*
G01*
X14047000Y-9842500D02*
G75*
G02*
X14147000Y-9842500I50000J0D01*
G01*
X14147000Y-10096500D02*
G75*
G02*
X14047000Y-10096500I-50000J0D01*
G01*
X14047000Y-10096500D02*
G75*
G02*
X14147000Y-10096500I50000J0D01*
G01*
X14147000Y-10350500D02*
G75*
G02*
X14047000Y-10350500I-50000J0D01*
G01*
X14047000Y-10350500D02*
G75*
G02*
X14147000Y-10350500I50000J0D01*
G01*
X14147000Y-10604500D02*
G75*
G02*
X14047000Y-10604500I-50000J0D01*
G01*
X14047000Y-10604500D02*
G75*
G02*
X14147000Y-10604500I50000J0D01*
G01*
X14147000Y-10858500D02*
G75*
G02*
X14047000Y-10858500I-50000J0D01*
G01*
X14047000Y-10858500D02*
G75*
G02*
X14147000Y-10858500I50000J0D01*
G01*
X14147000Y-11112500D02*
G75*
G02*
X14047000Y-11112500I-50000J0D01*
G01*
X14047000Y-11112500D02*
G75*
G02*
X14147000Y-11112500I50000J0D01*
G01*
X14147000Y-11366500D02*
G75*
G02*
X14047000Y-11366500I-50000J0D01*
G01*
X14047000Y-11366500D02*
G75*
G02*
X14147000Y-11366500I50000J0D01*
G01*
D12*
X17081500Y-6866500D02*
X17081500Y-6976500D01*
X17026500Y-6921500D02*
X17136500Y-6921500D01*
X17081500Y-7326500D02*
X17081500Y-7436500D01*
X17026500Y-7381500D02*
X17136500Y-7381500D01*
X17081500Y-7786500D02*
X17081500Y-7896500D01*
X17026500Y-7841500D02*
X17136500Y-7841500D01*
X17081500Y-8246500D02*
X17081500Y-8356500D01*
X17026500Y-8301500D02*
X17136500Y-8301500D01*
X17081500Y-8706500D02*
X17081500Y-8816500D01*
X17026500Y-8761500D02*
X17136500Y-8761500D01*
X17091500Y-9104500D02*
X17091500Y-9214500D01*
X17036500Y-9159500D02*
X17146500Y-9159500D01*
X17091500Y-9564500D02*
X17091500Y-9674500D01*
X17036500Y-9619500D02*
X17146500Y-9619500D01*
X17091500Y-10024500D02*
X17091500Y-10134500D01*
X17036500Y-10079500D02*
X17146500Y-10079500D01*
X17091500Y-10484500D02*
X17091500Y-10594500D01*
X17036500Y-10539500D02*
X17146500Y-10539500D01*
X17091500Y-10944500D02*
X17091500Y-11054500D01*
X17036500Y-10999500D02*
X17146500Y-10999500D01*
X17091500Y-11404500D02*
X17091500Y-11514500D01*
X17036500Y-11459500D02*
X17146500Y-11459500D01*
D11*
X13908277Y-12000484D02*
X13908277Y-11800484D01*
X13908277Y-11800484D02*
X13955896Y-11800484D01*
X13955896Y-11800484D02*
X13984467Y-11810008D01*
X13984467Y-11810008D02*
X14003515Y-11829055D01*
X14003515Y-11829055D02*
X14013039Y-11848103D01*
X14013039Y-11848103D02*
X14022562Y-11886198D01*
X14022562Y-11886198D02*
X14022562Y-11914769D01*
X14022562Y-11914769D02*
X14013039Y-11952865D01*
X14013039Y-11952865D02*
X14003515Y-11971912D01*
X14003515Y-11971912D02*
X13984467Y-11990960D01*
X13984467Y-11990960D02*
X13955896Y-12000484D01*
X13955896Y-12000484D02*
X13908277Y-12000484D01*
X14108277Y-12000484D02*
X14108277Y-11867150D01*
X14108277Y-11905246D02*
X14117801Y-11886198D01*
X14117801Y-11886198D02*
X14127324Y-11876674D01*
X14127324Y-11876674D02*
X14146372Y-11867150D01*
X14146372Y-11867150D02*
X14165420Y-11867150D01*
X14232086Y-12000484D02*
X14232086Y-11867150D01*
X14232086Y-11800484D02*
X14222562Y-11810008D01*
X14222562Y-11810008D02*
X14232086Y-11819531D01*
X14232086Y-11819531D02*
X14241610Y-11810008D01*
X14241610Y-11810008D02*
X14232086Y-11800484D01*
X14232086Y-11800484D02*
X14232086Y-11819531D01*
X14355896Y-12000484D02*
X14336848Y-11990960D01*
X14336848Y-11990960D02*
X14327324Y-11971912D01*
X14327324Y-11971912D02*
X14327324Y-11800484D01*
X14460658Y-12000484D02*
X14441610Y-11990960D01*
X14441610Y-11990960D02*
X14432086Y-11971912D01*
X14432086Y-11971912D02*
X14432086Y-11800484D01*
X14689229Y-12000484D02*
X14689229Y-11800484D01*
X14689229Y-11800484D02*
X14755896Y-11943341D01*
X14755896Y-11943341D02*
X14822562Y-11800484D01*
X14822562Y-11800484D02*
X14822562Y-12000484D01*
X15003515Y-12000484D02*
X15003515Y-11895722D01*
X15003515Y-11895722D02*
X14993991Y-11876674D01*
X14993991Y-11876674D02*
X14974943Y-11867150D01*
X14974943Y-11867150D02*
X14936848Y-11867150D01*
X14936848Y-11867150D02*
X14917801Y-11876674D01*
X15003515Y-11990960D02*
X14984467Y-12000484D01*
X14984467Y-12000484D02*
X14936848Y-12000484D01*
X14936848Y-12000484D02*
X14917801Y-11990960D01*
X14917801Y-11990960D02*
X14908277Y-11971912D01*
X14908277Y-11971912D02*
X14908277Y-11952865D01*
X14908277Y-11952865D02*
X14917801Y-11933817D01*
X14917801Y-11933817D02*
X14936848Y-11924293D01*
X14936848Y-11924293D02*
X14984467Y-11924293D01*
X14984467Y-11924293D02*
X15003515Y-11914769D01*
X15098753Y-11867150D02*
X15098753Y-12067150D01*
X15098753Y-11876674D02*
X15117801Y-11867150D01*
X15117801Y-11867150D02*
X15155896Y-11867150D01*
X15155896Y-11867150D02*
X15174943Y-11876674D01*
X15174943Y-11876674D02*
X15184467Y-11886198D01*
X15184467Y-11886198D02*
X15193991Y-11905246D01*
X15193991Y-11905246D02*
X15193991Y-11962388D01*
X15193991Y-11962388D02*
X15184467Y-11981436D01*
X15184467Y-11981436D02*
X15174943Y-11990960D01*
X15174943Y-11990960D02*
X15155896Y-12000484D01*
X15155896Y-12000484D02*
X15117801Y-12000484D01*
X15117801Y-12000484D02*
X15098753Y-11990960D01*
X15279705Y-11981436D02*
X15289229Y-11990960D01*
X15289229Y-11990960D02*
X15279705Y-12000484D01*
X15279705Y-12000484D02*
X15270182Y-11990960D01*
X15270182Y-11990960D02*
X15279705Y-11981436D01*
X15279705Y-11981436D02*
X15279705Y-12000484D01*
X15279705Y-11876674D02*
X15289229Y-11886198D01*
X15289229Y-11886198D02*
X15279705Y-11895722D01*
X15279705Y-11895722D02*
X15270182Y-11886198D01*
X15270182Y-11886198D02*
X15279705Y-11876674D01*
X15279705Y-11876674D02*
X15279705Y-11895722D01*
D10*
X13607500Y-12309000D02*
X13647500Y-12349000D01*
X13647500Y-12309000D02*
X13607500Y-12349000D01*
D11*
X13946372Y-12220484D02*
X13965420Y-12220484D01*
X13965420Y-12220484D02*
X13984467Y-12230008D01*
X13984467Y-12230008D02*
X13993991Y-12239531D01*
X13993991Y-12239531D02*
X14003515Y-12258579D01*
X14003515Y-12258579D02*
X14013039Y-12296674D01*
X14013039Y-12296674D02*
X14013039Y-12344293D01*
X14013039Y-12344293D02*
X14003515Y-12382388D01*
X14003515Y-12382388D02*
X13993991Y-12401436D01*
X13993991Y-12401436D02*
X13984467Y-12410960D01*
X13984467Y-12410960D02*
X13965420Y-12420484D01*
X13965420Y-12420484D02*
X13946372Y-12420484D01*
X13946372Y-12420484D02*
X13927324Y-12410960D01*
X13927324Y-12410960D02*
X13917801Y-12401436D01*
X13917801Y-12401436D02*
X13908277Y-12382388D01*
X13908277Y-12382388D02*
X13898753Y-12344293D01*
X13898753Y-12344293D02*
X13898753Y-12296674D01*
X13898753Y-12296674D02*
X13908277Y-12258579D01*
X13908277Y-12258579D02*
X13917801Y-12239531D01*
X13917801Y-12239531D02*
X13927324Y-12230008D01*
X13927324Y-12230008D02*
X13946372Y-12220484D01*
X14098753Y-12401436D02*
X14108277Y-12410960D01*
X14108277Y-12410960D02*
X14098753Y-12420484D01*
X14098753Y-12420484D02*
X14089229Y-12410960D01*
X14089229Y-12410960D02*
X14098753Y-12401436D01*
X14098753Y-12401436D02*
X14098753Y-12420484D01*
X14279705Y-12287150D02*
X14279705Y-12420484D01*
X14232086Y-12210960D02*
X14184467Y-12353817D01*
X14184467Y-12353817D02*
X14308277Y-12353817D01*
X14422562Y-12220484D02*
X14441610Y-12220484D01*
X14441610Y-12220484D02*
X14460658Y-12230008D01*
X14460658Y-12230008D02*
X14470182Y-12239531D01*
X14470182Y-12239531D02*
X14479705Y-12258579D01*
X14479705Y-12258579D02*
X14489229Y-12296674D01*
X14489229Y-12296674D02*
X14489229Y-12344293D01*
X14489229Y-12344293D02*
X14479705Y-12382388D01*
X14479705Y-12382388D02*
X14470182Y-12401436D01*
X14470182Y-12401436D02*
X14460658Y-12410960D01*
X14460658Y-12410960D02*
X14441610Y-12420484D01*
X14441610Y-12420484D02*
X14422562Y-12420484D01*
X14422562Y-12420484D02*
X14403515Y-12410960D01*
X14403515Y-12410960D02*
X14393991Y-12401436D01*
X14393991Y-12401436D02*
X14384467Y-12382388D01*
X14384467Y-12382388D02*
X14374943Y-12344293D01*
X14374943Y-12344293D02*
X14374943Y-12296674D01*
X14374943Y-12296674D02*
X14384467Y-12258579D01*
X14384467Y-12258579D02*
X14393991Y-12239531D01*
X14393991Y-12239531D02*
X14403515Y-12230008D01*
X14403515Y-12230008D02*
X14422562Y-12220484D01*
X14613039Y-12220484D02*
X14632086Y-12220484D01*
X14632086Y-12220484D02*
X14651134Y-12230008D01*
X14651134Y-12230008D02*
X14660658Y-12239531D01*
X14660658Y-12239531D02*
X14670182Y-12258579D01*
X14670182Y-12258579D02*
X14679705Y-12296674D01*
X14679705Y-12296674D02*
X14679705Y-12344293D01*
X14679705Y-12344293D02*
X14670182Y-12382388D01*
X14670182Y-12382388D02*
X14660658Y-12401436D01*
X14660658Y-12401436D02*
X14651134Y-12410960D01*
X14651134Y-12410960D02*
X14632086Y-12420484D01*
X14632086Y-12420484D02*
X14613039Y-12420484D01*
X14613039Y-12420484D02*
X14593991Y-12410960D01*
X14593991Y-12410960D02*
X14584467Y-12401436D01*
X14584467Y-12401436D02*
X14574943Y-12382388D01*
X14574943Y-12382388D02*
X14565420Y-12344293D01*
X14565420Y-12344293D02*
X14565420Y-12296674D01*
X14565420Y-12296674D02*
X14574943Y-12258579D01*
X14574943Y-12258579D02*
X14584467Y-12239531D01*
X14584467Y-12239531D02*
X14593991Y-12230008D01*
X14593991Y-12230008D02*
X14613039Y-12220484D01*
X14765420Y-12420484D02*
X14765420Y-12287150D01*
X14765420Y-12306198D02*
X14774943Y-12296674D01*
X14774943Y-12296674D02*
X14793991Y-12287150D01*
X14793991Y-12287150D02*
X14822563Y-12287150D01*
X14822563Y-12287150D02*
X14841610Y-12296674D01*
X14841610Y-12296674D02*
X14851134Y-12315722D01*
X14851134Y-12315722D02*
X14851134Y-12420484D01*
X14851134Y-12315722D02*
X14860658Y-12296674D01*
X14860658Y-12296674D02*
X14879705Y-12287150D01*
X14879705Y-12287150D02*
X14908277Y-12287150D01*
X14908277Y-12287150D02*
X14927324Y-12296674D01*
X14927324Y-12296674D02*
X14936848Y-12315722D01*
X14936848Y-12315722D02*
X14936848Y-12420484D01*
X15032086Y-12420484D02*
X15032086Y-12287150D01*
X15032086Y-12306198D02*
X15041610Y-12296674D01*
X15041610Y-12296674D02*
X15060658Y-12287150D01*
X15060658Y-12287150D02*
X15089229Y-12287150D01*
X15089229Y-12287150D02*
X15108277Y-12296674D01*
X15108277Y-12296674D02*
X15117801Y-12315722D01*
X15117801Y-12315722D02*
X15117801Y-12420484D01*
X15117801Y-12315722D02*
X15127324Y-12296674D01*
X15127324Y-12296674D02*
X15146372Y-12287150D01*
X15146372Y-12287150D02*
X15174943Y-12287150D01*
X15174943Y-12287150D02*
X15193991Y-12296674D01*
X15193991Y-12296674D02*
X15203515Y-12315722D01*
X15203515Y-12315722D02*
X15203515Y-12420484D01*
X15593991Y-12210960D02*
X15422563Y-12468103D01*
X15851134Y-12220484D02*
X15870182Y-12220484D01*
X15870182Y-12220484D02*
X15889229Y-12230008D01*
X15889229Y-12230008D02*
X15898753Y-12239531D01*
X15898753Y-12239531D02*
X15908277Y-12258579D01*
X15908277Y-12258579D02*
X15917801Y-12296674D01*
X15917801Y-12296674D02*
X15917801Y-12344293D01*
X15917801Y-12344293D02*
X15908277Y-12382388D01*
X15908277Y-12382388D02*
X15898753Y-12401436D01*
X15898753Y-12401436D02*
X15889229Y-12410960D01*
X15889229Y-12410960D02*
X15870182Y-12420484D01*
X15870182Y-12420484D02*
X15851134Y-12420484D01*
X15851134Y-12420484D02*
X15832086Y-12410960D01*
X15832086Y-12410960D02*
X15822563Y-12401436D01*
X15822563Y-12401436D02*
X15813039Y-12382388D01*
X15813039Y-12382388D02*
X15803515Y-12344293D01*
X15803515Y-12344293D02*
X15803515Y-12296674D01*
X15803515Y-12296674D02*
X15813039Y-12258579D01*
X15813039Y-12258579D02*
X15822563Y-12239531D01*
X15822563Y-12239531D02*
X15832086Y-12230008D01*
X15832086Y-12230008D02*
X15851134Y-12220484D01*
X16003515Y-12401436D02*
X16013039Y-12410960D01*
X16013039Y-12410960D02*
X16003515Y-12420484D01*
X16003515Y-12420484D02*
X15993991Y-12410960D01*
X15993991Y-12410960D02*
X16003515Y-12401436D01*
X16003515Y-12401436D02*
X16003515Y-12420484D01*
X16136848Y-12220484D02*
X16155896Y-12220484D01*
X16155896Y-12220484D02*
X16174944Y-12230008D01*
X16174944Y-12230008D02*
X16184467Y-12239531D01*
X16184467Y-12239531D02*
X16193991Y-12258579D01*
X16193991Y-12258579D02*
X16203515Y-12296674D01*
X16203515Y-12296674D02*
X16203515Y-12344293D01*
X16203515Y-12344293D02*
X16193991Y-12382388D01*
X16193991Y-12382388D02*
X16184467Y-12401436D01*
X16184467Y-12401436D02*
X16174944Y-12410960D01*
X16174944Y-12410960D02*
X16155896Y-12420484D01*
X16155896Y-12420484D02*
X16136848Y-12420484D01*
X16136848Y-12420484D02*
X16117801Y-12410960D01*
X16117801Y-12410960D02*
X16108277Y-12401436D01*
X16108277Y-12401436D02*
X16098753Y-12382388D01*
X16098753Y-12382388D02*
X16089229Y-12344293D01*
X16089229Y-12344293D02*
X16089229Y-12296674D01*
X16089229Y-12296674D02*
X16098753Y-12258579D01*
X16098753Y-12258579D02*
X16108277Y-12239531D01*
X16108277Y-12239531D02*
X16117801Y-12230008D01*
X16117801Y-12230008D02*
X16136848Y-12220484D01*
X16393991Y-12420484D02*
X16279706Y-12420484D01*
X16336848Y-12420484D02*
X16336848Y-12220484D01*
X16336848Y-12220484D02*
X16317801Y-12249055D01*
X16317801Y-12249055D02*
X16298753Y-12268103D01*
X16298753Y-12268103D02*
X16279706Y-12277627D01*
X16574944Y-12220484D02*
X16479706Y-12220484D01*
X16479706Y-12220484D02*
X16470182Y-12315722D01*
X16470182Y-12315722D02*
X16479706Y-12306198D01*
X16479706Y-12306198D02*
X16498753Y-12296674D01*
X16498753Y-12296674D02*
X16546372Y-12296674D01*
X16546372Y-12296674D02*
X16565420Y-12306198D01*
X16565420Y-12306198D02*
X16574944Y-12315722D01*
X16574944Y-12315722D02*
X16584467Y-12334769D01*
X16584467Y-12334769D02*
X16584467Y-12382388D01*
X16584467Y-12382388D02*
X16574944Y-12401436D01*
X16574944Y-12401436D02*
X16565420Y-12410960D01*
X16565420Y-12410960D02*
X16546372Y-12420484D01*
X16546372Y-12420484D02*
X16498753Y-12420484D01*
X16498753Y-12420484D02*
X16479706Y-12410960D01*
X16479706Y-12410960D02*
X16470182Y-12401436D01*
X16651134Y-12220484D02*
X16784468Y-12220484D01*
X16784468Y-12220484D02*
X16698753Y-12420484D01*
X16851134Y-12220484D02*
X16851134Y-12258579D01*
X16927325Y-12220484D02*
X16927325Y-12258579D01*
X17222563Y-12496674D02*
X17213039Y-12487150D01*
X17213039Y-12487150D02*
X17193991Y-12458579D01*
X17193991Y-12458579D02*
X17184468Y-12439531D01*
X17184468Y-12439531D02*
X17174944Y-12410960D01*
X17174944Y-12410960D02*
X17165420Y-12363341D01*
X17165420Y-12363341D02*
X17165420Y-12325246D01*
X17165420Y-12325246D02*
X17174944Y-12277627D01*
X17174944Y-12277627D02*
X17184468Y-12249055D01*
X17184468Y-12249055D02*
X17193991Y-12230008D01*
X17193991Y-12230008D02*
X17213039Y-12201436D01*
X17213039Y-12201436D02*
X17222563Y-12191912D01*
X17289230Y-12239531D02*
X17298753Y-12230008D01*
X17298753Y-12230008D02*
X17317801Y-12220484D01*
X17317801Y-12220484D02*
X17365420Y-12220484D01*
X17365420Y-12220484D02*
X17384468Y-12230008D01*
X17384468Y-12230008D02*
X17393991Y-12239531D01*
X17393991Y-12239531D02*
X17403515Y-12258579D01*
X17403515Y-12258579D02*
X17403515Y-12277627D01*
X17403515Y-12277627D02*
X17393991Y-12306198D01*
X17393991Y-12306198D02*
X17279706Y-12420484D01*
X17279706Y-12420484D02*
X17403515Y-12420484D01*
X17574944Y-12220484D02*
X17536849Y-12220484D01*
X17536849Y-12220484D02*
X17517801Y-12230008D01*
X17517801Y-12230008D02*
X17508277Y-12239531D01*
X17508277Y-12239531D02*
X17489230Y-12268103D01*
X17489230Y-12268103D02*
X17479706Y-12306198D01*
X17479706Y-12306198D02*
X17479706Y-12382388D01*
X17479706Y-12382388D02*
X17489230Y-12401436D01*
X17489230Y-12401436D02*
X17498753Y-12410960D01*
X17498753Y-12410960D02*
X17517801Y-12420484D01*
X17517801Y-12420484D02*
X17555896Y-12420484D01*
X17555896Y-12420484D02*
X17574944Y-12410960D01*
X17574944Y-12410960D02*
X17584468Y-12401436D01*
X17584468Y-12401436D02*
X17593991Y-12382388D01*
X17593991Y-12382388D02*
X17593991Y-12334769D01*
X17593991Y-12334769D02*
X17584468Y-12315722D01*
X17584468Y-12315722D02*
X17574944Y-12306198D01*
X17574944Y-12306198D02*
X17555896Y-12296674D01*
X17555896Y-12296674D02*
X17517801Y-12296674D01*
X17517801Y-12296674D02*
X17498753Y-12306198D01*
X17498753Y-12306198D02*
X17489230Y-12315722D01*
X17489230Y-12315722D02*
X17479706Y-12334769D01*
X17832087Y-12420484D02*
X17832087Y-12220484D01*
X17917801Y-12420484D02*
X17917801Y-12315722D01*
X17917801Y-12315722D02*
X17908277Y-12296674D01*
X17908277Y-12296674D02*
X17889230Y-12287150D01*
X17889230Y-12287150D02*
X17860658Y-12287150D01*
X17860658Y-12287150D02*
X17841611Y-12296674D01*
X17841611Y-12296674D02*
X17832087Y-12306198D01*
X18041611Y-12420484D02*
X18022563Y-12410960D01*
X18022563Y-12410960D02*
X18013039Y-12401436D01*
X18013039Y-12401436D02*
X18003515Y-12382388D01*
X18003515Y-12382388D02*
X18003515Y-12325246D01*
X18003515Y-12325246D02*
X18013039Y-12306198D01*
X18013039Y-12306198D02*
X18022563Y-12296674D01*
X18022563Y-12296674D02*
X18041611Y-12287150D01*
X18041611Y-12287150D02*
X18070182Y-12287150D01*
X18070182Y-12287150D02*
X18089230Y-12296674D01*
X18089230Y-12296674D02*
X18098753Y-12306198D01*
X18098753Y-12306198D02*
X18108277Y-12325246D01*
X18108277Y-12325246D02*
X18108277Y-12382388D01*
X18108277Y-12382388D02*
X18098753Y-12401436D01*
X18098753Y-12401436D02*
X18089230Y-12410960D01*
X18089230Y-12410960D02*
X18070182Y-12420484D01*
X18070182Y-12420484D02*
X18041611Y-12420484D01*
X18222563Y-12420484D02*
X18203515Y-12410960D01*
X18203515Y-12410960D02*
X18193992Y-12391912D01*
X18193992Y-12391912D02*
X18193992Y-12220484D01*
X18374944Y-12410960D02*
X18355896Y-12420484D01*
X18355896Y-12420484D02*
X18317801Y-12420484D01*
X18317801Y-12420484D02*
X18298753Y-12410960D01*
X18298753Y-12410960D02*
X18289230Y-12391912D01*
X18289230Y-12391912D02*
X18289230Y-12315722D01*
X18289230Y-12315722D02*
X18298753Y-12296674D01*
X18298753Y-12296674D02*
X18317801Y-12287150D01*
X18317801Y-12287150D02*
X18355896Y-12287150D01*
X18355896Y-12287150D02*
X18374944Y-12296674D01*
X18374944Y-12296674D02*
X18384468Y-12315722D01*
X18384468Y-12315722D02*
X18384468Y-12334769D01*
X18384468Y-12334769D02*
X18289230Y-12353817D01*
X18460658Y-12410960D02*
X18479706Y-12420484D01*
X18479706Y-12420484D02*
X18517801Y-12420484D01*
X18517801Y-12420484D02*
X18536849Y-12410960D01*
X18536849Y-12410960D02*
X18546373Y-12391912D01*
X18546373Y-12391912D02*
X18546373Y-12382388D01*
X18546373Y-12382388D02*
X18536849Y-12363341D01*
X18536849Y-12363341D02*
X18517801Y-12353817D01*
X18517801Y-12353817D02*
X18489230Y-12353817D01*
X18489230Y-12353817D02*
X18470182Y-12344293D01*
X18470182Y-12344293D02*
X18460658Y-12325246D01*
X18460658Y-12325246D02*
X18460658Y-12315722D01*
X18460658Y-12315722D02*
X18470182Y-12296674D01*
X18470182Y-12296674D02*
X18489230Y-12287150D01*
X18489230Y-12287150D02*
X18517801Y-12287150D01*
X18517801Y-12287150D02*
X18536849Y-12296674D01*
X18613039Y-12496674D02*
X18622563Y-12487150D01*
X18622563Y-12487150D02*
X18641611Y-12458579D01*
X18641611Y-12458579D02*
X18651134Y-12439531D01*
X18651134Y-12439531D02*
X18660658Y-12410960D01*
X18660658Y-12410960D02*
X18670182Y-12363341D01*
X18670182Y-12363341D02*
X18670182Y-12325246D01*
X18670182Y-12325246D02*
X18660658Y-12277627D01*
X18660658Y-12277627D02*
X18651134Y-12249055D01*
X18651134Y-12249055D02*
X18641611Y-12230008D01*
X18641611Y-12230008D02*
X18622563Y-12201436D01*
X18622563Y-12201436D02*
X18613039Y-12191912D01*
D10*
X13647500Y-12593000D02*
G75*
G02*
X13547500Y-12593000I-50000J0D01*
G01*
X13547500Y-12593000D02*
G75*
G02*
X13647500Y-12593000I50000J0D01*
G01*
D11*
X14013039Y-12684484D02*
X13898753Y-12684484D01*
X13955896Y-12684484D02*
X13955896Y-12484484D01*
X13955896Y-12484484D02*
X13936848Y-12513055D01*
X13936848Y-12513055D02*
X13917801Y-12532103D01*
X13917801Y-12532103D02*
X13898753Y-12541627D01*
X14098753Y-12665436D02*
X14108277Y-12674960D01*
X14108277Y-12674960D02*
X14098753Y-12684484D01*
X14098753Y-12684484D02*
X14089229Y-12674960D01*
X14089229Y-12674960D02*
X14098753Y-12665436D01*
X14098753Y-12665436D02*
X14098753Y-12684484D01*
X14232086Y-12484484D02*
X14251134Y-12484484D01*
X14251134Y-12484484D02*
X14270182Y-12494008D01*
X14270182Y-12494008D02*
X14279705Y-12503531D01*
X14279705Y-12503531D02*
X14289229Y-12522579D01*
X14289229Y-12522579D02*
X14298753Y-12560674D01*
X14298753Y-12560674D02*
X14298753Y-12608293D01*
X14298753Y-12608293D02*
X14289229Y-12646388D01*
X14289229Y-12646388D02*
X14279705Y-12665436D01*
X14279705Y-12665436D02*
X14270182Y-12674960D01*
X14270182Y-12674960D02*
X14251134Y-12684484D01*
X14251134Y-12684484D02*
X14232086Y-12684484D01*
X14232086Y-12684484D02*
X14213039Y-12674960D01*
X14213039Y-12674960D02*
X14203515Y-12665436D01*
X14203515Y-12665436D02*
X14193991Y-12646388D01*
X14193991Y-12646388D02*
X14184467Y-12608293D01*
X14184467Y-12608293D02*
X14184467Y-12560674D01*
X14184467Y-12560674D02*
X14193991Y-12522579D01*
X14193991Y-12522579D02*
X14203515Y-12503531D01*
X14203515Y-12503531D02*
X14213039Y-12494008D01*
X14213039Y-12494008D02*
X14232086Y-12484484D01*
X14422562Y-12484484D02*
X14441610Y-12484484D01*
X14441610Y-12484484D02*
X14460658Y-12494008D01*
X14460658Y-12494008D02*
X14470182Y-12503531D01*
X14470182Y-12503531D02*
X14479705Y-12522579D01*
X14479705Y-12522579D02*
X14489229Y-12560674D01*
X14489229Y-12560674D02*
X14489229Y-12608293D01*
X14489229Y-12608293D02*
X14479705Y-12646388D01*
X14479705Y-12646388D02*
X14470182Y-12665436D01*
X14470182Y-12665436D02*
X14460658Y-12674960D01*
X14460658Y-12674960D02*
X14441610Y-12684484D01*
X14441610Y-12684484D02*
X14422562Y-12684484D01*
X14422562Y-12684484D02*
X14403515Y-12674960D01*
X14403515Y-12674960D02*
X14393991Y-12665436D01*
X14393991Y-12665436D02*
X14384467Y-12646388D01*
X14384467Y-12646388D02*
X14374943Y-12608293D01*
X14374943Y-12608293D02*
X14374943Y-12560674D01*
X14374943Y-12560674D02*
X14384467Y-12522579D01*
X14384467Y-12522579D02*
X14393991Y-12503531D01*
X14393991Y-12503531D02*
X14403515Y-12494008D01*
X14403515Y-12494008D02*
X14422562Y-12484484D01*
X14613039Y-12484484D02*
X14632086Y-12484484D01*
X14632086Y-12484484D02*
X14651134Y-12494008D01*
X14651134Y-12494008D02*
X14660658Y-12503531D01*
X14660658Y-12503531D02*
X14670182Y-12522579D01*
X14670182Y-12522579D02*
X14679705Y-12560674D01*
X14679705Y-12560674D02*
X14679705Y-12608293D01*
X14679705Y-12608293D02*
X14670182Y-12646388D01*
X14670182Y-12646388D02*
X14660658Y-12665436D01*
X14660658Y-12665436D02*
X14651134Y-12674960D01*
X14651134Y-12674960D02*
X14632086Y-12684484D01*
X14632086Y-12684484D02*
X14613039Y-12684484D01*
X14613039Y-12684484D02*
X14593991Y-12674960D01*
X14593991Y-12674960D02*
X14584467Y-12665436D01*
X14584467Y-12665436D02*
X14574943Y-12646388D01*
X14574943Y-12646388D02*
X14565420Y-12608293D01*
X14565420Y-12608293D02*
X14565420Y-12560674D01*
X14565420Y-12560674D02*
X14574943Y-12522579D01*
X14574943Y-12522579D02*
X14584467Y-12503531D01*
X14584467Y-12503531D02*
X14593991Y-12494008D01*
X14593991Y-12494008D02*
X14613039Y-12484484D01*
X14765420Y-12684484D02*
X14765420Y-12551150D01*
X14765420Y-12570198D02*
X14774943Y-12560674D01*
X14774943Y-12560674D02*
X14793991Y-12551150D01*
X14793991Y-12551150D02*
X14822563Y-12551150D01*
X14822563Y-12551150D02*
X14841610Y-12560674D01*
X14841610Y-12560674D02*
X14851134Y-12579722D01*
X14851134Y-12579722D02*
X14851134Y-12684484D01*
X14851134Y-12579722D02*
X14860658Y-12560674D01*
X14860658Y-12560674D02*
X14879705Y-12551150D01*
X14879705Y-12551150D02*
X14908277Y-12551150D01*
X14908277Y-12551150D02*
X14927324Y-12560674D01*
X14927324Y-12560674D02*
X14936848Y-12579722D01*
X14936848Y-12579722D02*
X14936848Y-12684484D01*
X15032086Y-12684484D02*
X15032086Y-12551150D01*
X15032086Y-12570198D02*
X15041610Y-12560674D01*
X15041610Y-12560674D02*
X15060658Y-12551150D01*
X15060658Y-12551150D02*
X15089229Y-12551150D01*
X15089229Y-12551150D02*
X15108277Y-12560674D01*
X15108277Y-12560674D02*
X15117801Y-12579722D01*
X15117801Y-12579722D02*
X15117801Y-12684484D01*
X15117801Y-12579722D02*
X15127324Y-12560674D01*
X15127324Y-12560674D02*
X15146372Y-12551150D01*
X15146372Y-12551150D02*
X15174943Y-12551150D01*
X15174943Y-12551150D02*
X15193991Y-12560674D01*
X15193991Y-12560674D02*
X15203515Y-12579722D01*
X15203515Y-12579722D02*
X15203515Y-12684484D01*
X15593991Y-12474960D02*
X15422563Y-12732103D01*
X15851134Y-12484484D02*
X15870182Y-12484484D01*
X15870182Y-12484484D02*
X15889229Y-12494008D01*
X15889229Y-12494008D02*
X15898753Y-12503531D01*
X15898753Y-12503531D02*
X15908277Y-12522579D01*
X15908277Y-12522579D02*
X15917801Y-12560674D01*
X15917801Y-12560674D02*
X15917801Y-12608293D01*
X15917801Y-12608293D02*
X15908277Y-12646388D01*
X15908277Y-12646388D02*
X15898753Y-12665436D01*
X15898753Y-12665436D02*
X15889229Y-12674960D01*
X15889229Y-12674960D02*
X15870182Y-12684484D01*
X15870182Y-12684484D02*
X15851134Y-12684484D01*
X15851134Y-12684484D02*
X15832086Y-12674960D01*
X15832086Y-12674960D02*
X15822563Y-12665436D01*
X15822563Y-12665436D02*
X15813039Y-12646388D01*
X15813039Y-12646388D02*
X15803515Y-12608293D01*
X15803515Y-12608293D02*
X15803515Y-12560674D01*
X15803515Y-12560674D02*
X15813039Y-12522579D01*
X15813039Y-12522579D02*
X15822563Y-12503531D01*
X15822563Y-12503531D02*
X15832086Y-12494008D01*
X15832086Y-12494008D02*
X15851134Y-12484484D01*
X16003515Y-12665436D02*
X16013039Y-12674960D01*
X16013039Y-12674960D02*
X16003515Y-12684484D01*
X16003515Y-12684484D02*
X15993991Y-12674960D01*
X15993991Y-12674960D02*
X16003515Y-12665436D01*
X16003515Y-12665436D02*
X16003515Y-12684484D01*
X16136848Y-12484484D02*
X16155896Y-12484484D01*
X16155896Y-12484484D02*
X16174944Y-12494008D01*
X16174944Y-12494008D02*
X16184467Y-12503531D01*
X16184467Y-12503531D02*
X16193991Y-12522579D01*
X16193991Y-12522579D02*
X16203515Y-12560674D01*
X16203515Y-12560674D02*
X16203515Y-12608293D01*
X16203515Y-12608293D02*
X16193991Y-12646388D01*
X16193991Y-12646388D02*
X16184467Y-12665436D01*
X16184467Y-12665436D02*
X16174944Y-12674960D01*
X16174944Y-12674960D02*
X16155896Y-12684484D01*
X16155896Y-12684484D02*
X16136848Y-12684484D01*
X16136848Y-12684484D02*
X16117801Y-12674960D01*
X16117801Y-12674960D02*
X16108277Y-12665436D01*
X16108277Y-12665436D02*
X16098753Y-12646388D01*
X16098753Y-12646388D02*
X16089229Y-12608293D01*
X16089229Y-12608293D02*
X16089229Y-12560674D01*
X16089229Y-12560674D02*
X16098753Y-12522579D01*
X16098753Y-12522579D02*
X16108277Y-12503531D01*
X16108277Y-12503531D02*
X16117801Y-12494008D01*
X16117801Y-12494008D02*
X16136848Y-12484484D01*
X16270182Y-12484484D02*
X16393991Y-12484484D01*
X16393991Y-12484484D02*
X16327325Y-12560674D01*
X16327325Y-12560674D02*
X16355896Y-12560674D01*
X16355896Y-12560674D02*
X16374944Y-12570198D01*
X16374944Y-12570198D02*
X16384467Y-12579722D01*
X16384467Y-12579722D02*
X16393991Y-12598769D01*
X16393991Y-12598769D02*
X16393991Y-12646388D01*
X16393991Y-12646388D02*
X16384467Y-12665436D01*
X16384467Y-12665436D02*
X16374944Y-12674960D01*
X16374944Y-12674960D02*
X16355896Y-12684484D01*
X16355896Y-12684484D02*
X16298753Y-12684484D01*
X16298753Y-12684484D02*
X16279706Y-12674960D01*
X16279706Y-12674960D02*
X16270182Y-12665436D01*
X16489229Y-12684484D02*
X16527325Y-12684484D01*
X16527325Y-12684484D02*
X16546372Y-12674960D01*
X16546372Y-12674960D02*
X16555896Y-12665436D01*
X16555896Y-12665436D02*
X16574944Y-12636865D01*
X16574944Y-12636865D02*
X16584467Y-12598769D01*
X16584467Y-12598769D02*
X16584467Y-12522579D01*
X16584467Y-12522579D02*
X16574944Y-12503531D01*
X16574944Y-12503531D02*
X16565420Y-12494008D01*
X16565420Y-12494008D02*
X16546372Y-12484484D01*
X16546372Y-12484484D02*
X16508277Y-12484484D01*
X16508277Y-12484484D02*
X16489229Y-12494008D01*
X16489229Y-12494008D02*
X16479706Y-12503531D01*
X16479706Y-12503531D02*
X16470182Y-12522579D01*
X16470182Y-12522579D02*
X16470182Y-12570198D01*
X16470182Y-12570198D02*
X16479706Y-12589246D01*
X16479706Y-12589246D02*
X16489229Y-12598769D01*
X16489229Y-12598769D02*
X16508277Y-12608293D01*
X16508277Y-12608293D02*
X16546372Y-12608293D01*
X16546372Y-12608293D02*
X16565420Y-12598769D01*
X16565420Y-12598769D02*
X16574944Y-12589246D01*
X16574944Y-12589246D02*
X16584467Y-12570198D01*
X16755896Y-12551150D02*
X16755896Y-12684484D01*
X16708277Y-12474960D02*
X16660658Y-12617817D01*
X16660658Y-12617817D02*
X16784468Y-12617817D01*
X16851134Y-12484484D02*
X16851134Y-12522579D01*
X16927325Y-12484484D02*
X16927325Y-12522579D01*
X17222563Y-12760674D02*
X17213039Y-12751150D01*
X17213039Y-12751150D02*
X17193991Y-12722579D01*
X17193991Y-12722579D02*
X17184468Y-12703531D01*
X17184468Y-12703531D02*
X17174944Y-12674960D01*
X17174944Y-12674960D02*
X17165420Y-12627341D01*
X17165420Y-12627341D02*
X17165420Y-12589246D01*
X17165420Y-12589246D02*
X17174944Y-12541627D01*
X17174944Y-12541627D02*
X17184468Y-12513055D01*
X17184468Y-12513055D02*
X17193991Y-12494008D01*
X17193991Y-12494008D02*
X17213039Y-12465436D01*
X17213039Y-12465436D02*
X17222563Y-12455912D01*
X17289230Y-12503531D02*
X17298753Y-12494008D01*
X17298753Y-12494008D02*
X17317801Y-12484484D01*
X17317801Y-12484484D02*
X17365420Y-12484484D01*
X17365420Y-12484484D02*
X17384468Y-12494008D01*
X17384468Y-12494008D02*
X17393991Y-12503531D01*
X17393991Y-12503531D02*
X17403515Y-12522579D01*
X17403515Y-12522579D02*
X17403515Y-12541627D01*
X17403515Y-12541627D02*
X17393991Y-12570198D01*
X17393991Y-12570198D02*
X17279706Y-12684484D01*
X17279706Y-12684484D02*
X17403515Y-12684484D01*
X17527325Y-12484484D02*
X17546372Y-12484484D01*
X17546372Y-12484484D02*
X17565420Y-12494008D01*
X17565420Y-12494008D02*
X17574944Y-12503531D01*
X17574944Y-12503531D02*
X17584468Y-12522579D01*
X17584468Y-12522579D02*
X17593991Y-12560674D01*
X17593991Y-12560674D02*
X17593991Y-12608293D01*
X17593991Y-12608293D02*
X17584468Y-12646388D01*
X17584468Y-12646388D02*
X17574944Y-12665436D01*
X17574944Y-12665436D02*
X17565420Y-12674960D01*
X17565420Y-12674960D02*
X17546372Y-12684484D01*
X17546372Y-12684484D02*
X17527325Y-12684484D01*
X17527325Y-12684484D02*
X17508277Y-12674960D01*
X17508277Y-12674960D02*
X17498753Y-12665436D01*
X17498753Y-12665436D02*
X17489230Y-12646388D01*
X17489230Y-12646388D02*
X17479706Y-12608293D01*
X17479706Y-12608293D02*
X17479706Y-12560674D01*
X17479706Y-12560674D02*
X17489230Y-12522579D01*
X17489230Y-12522579D02*
X17498753Y-12503531D01*
X17498753Y-12503531D02*
X17508277Y-12494008D01*
X17508277Y-12494008D02*
X17527325Y-12484484D01*
X17832087Y-12684484D02*
X17832087Y-12484484D01*
X17917801Y-12684484D02*
X17917801Y-12579722D01*
X17917801Y-12579722D02*
X17908277Y-12560674D01*
X17908277Y-12560674D02*
X17889230Y-12551150D01*
X17889230Y-12551150D02*
X17860658Y-12551150D01*
X17860658Y-12551150D02*
X17841611Y-12560674D01*
X17841611Y-12560674D02*
X17832087Y-12570198D01*
X18041611Y-12684484D02*
X18022563Y-12674960D01*
X18022563Y-12674960D02*
X18013039Y-12665436D01*
X18013039Y-12665436D02*
X18003515Y-12646388D01*
X18003515Y-12646388D02*
X18003515Y-12589246D01*
X18003515Y-12589246D02*
X18013039Y-12570198D01*
X18013039Y-12570198D02*
X18022563Y-12560674D01*
X18022563Y-12560674D02*
X18041611Y-12551150D01*
X18041611Y-12551150D02*
X18070182Y-12551150D01*
X18070182Y-12551150D02*
X18089230Y-12560674D01*
X18089230Y-12560674D02*
X18098753Y-12570198D01*
X18098753Y-12570198D02*
X18108277Y-12589246D01*
X18108277Y-12589246D02*
X18108277Y-12646388D01*
X18108277Y-12646388D02*
X18098753Y-12665436D01*
X18098753Y-12665436D02*
X18089230Y-12674960D01*
X18089230Y-12674960D02*
X18070182Y-12684484D01*
X18070182Y-12684484D02*
X18041611Y-12684484D01*
X18222563Y-12684484D02*
X18203515Y-12674960D01*
X18203515Y-12674960D02*
X18193992Y-12655912D01*
X18193992Y-12655912D02*
X18193992Y-12484484D01*
X18374944Y-12674960D02*
X18355896Y-12684484D01*
X18355896Y-12684484D02*
X18317801Y-12684484D01*
X18317801Y-12684484D02*
X18298753Y-12674960D01*
X18298753Y-12674960D02*
X18289230Y-12655912D01*
X18289230Y-12655912D02*
X18289230Y-12579722D01*
X18289230Y-12579722D02*
X18298753Y-12560674D01*
X18298753Y-12560674D02*
X18317801Y-12551150D01*
X18317801Y-12551150D02*
X18355896Y-12551150D01*
X18355896Y-12551150D02*
X18374944Y-12560674D01*
X18374944Y-12560674D02*
X18384468Y-12579722D01*
X18384468Y-12579722D02*
X18384468Y-12598769D01*
X18384468Y-12598769D02*
X18289230Y-12617817D01*
X18460658Y-12674960D02*
X18479706Y-12684484D01*
X18479706Y-12684484D02*
X18517801Y-12684484D01*
X18517801Y-12684484D02*
X18536849Y-12674960D01*
X18536849Y-12674960D02*
X18546373Y-12655912D01*
X18546373Y-12655912D02*
X18546373Y-12646388D01*
X18546373Y-12646388D02*
X18536849Y-12627341D01*
X18536849Y-12627341D02*
X18517801Y-12617817D01*
X18517801Y-12617817D02*
X18489230Y-12617817D01*
X18489230Y-12617817D02*
X18470182Y-12608293D01*
X18470182Y-12608293D02*
X18460658Y-12589246D01*
X18460658Y-12589246D02*
X18460658Y-12579722D01*
X18460658Y-12579722D02*
X18470182Y-12560674D01*
X18470182Y-12560674D02*
X18489230Y-12551150D01*
X18489230Y-12551150D02*
X18517801Y-12551150D01*
X18517801Y-12551150D02*
X18536849Y-12560674D01*
X18613039Y-12760674D02*
X18622563Y-12751150D01*
X18622563Y-12751150D02*
X18641611Y-12722579D01*
X18641611Y-12722579D02*
X18651134Y-12703531D01*
X18651134Y-12703531D02*
X18660658Y-12674960D01*
X18660658Y-12674960D02*
X18670182Y-12627341D01*
X18670182Y-12627341D02*
X18670182Y-12589246D01*
X18670182Y-12589246D02*
X18660658Y-12541627D01*
X18660658Y-12541627D02*
X18651134Y-12513055D01*
X18651134Y-12513055D02*
X18641611Y-12494008D01*
X18641611Y-12494008D02*
X18622563Y-12465436D01*
X18622563Y-12465436D02*
X18613039Y-12455912D01*
D12*
X13592500Y-12802000D02*
X13592500Y-12912000D01*
X13537500Y-12857000D02*
X13647500Y-12857000D01*
D11*
X14013039Y-12948484D02*
X13898753Y-12948484D01*
X13955896Y-12948484D02*
X13955896Y-12748484D01*
X13955896Y-12748484D02*
X13936848Y-12777055D01*
X13936848Y-12777055D02*
X13917801Y-12796103D01*
X13917801Y-12796103D02*
X13898753Y-12805627D01*
X14098753Y-12929436D02*
X14108277Y-12938960D01*
X14108277Y-12938960D02*
X14098753Y-12948484D01*
X14098753Y-12948484D02*
X14089229Y-12938960D01*
X14089229Y-12938960D02*
X14098753Y-12929436D01*
X14098753Y-12929436D02*
X14098753Y-12948484D01*
X14298753Y-12948484D02*
X14184467Y-12948484D01*
X14241610Y-12948484D02*
X14241610Y-12748484D01*
X14241610Y-12748484D02*
X14222562Y-12777055D01*
X14222562Y-12777055D02*
X14203515Y-12796103D01*
X14203515Y-12796103D02*
X14184467Y-12805627D01*
X14422562Y-12748484D02*
X14441610Y-12748484D01*
X14441610Y-12748484D02*
X14460658Y-12758008D01*
X14460658Y-12758008D02*
X14470182Y-12767531D01*
X14470182Y-12767531D02*
X14479705Y-12786579D01*
X14479705Y-12786579D02*
X14489229Y-12824674D01*
X14489229Y-12824674D02*
X14489229Y-12872293D01*
X14489229Y-12872293D02*
X14479705Y-12910388D01*
X14479705Y-12910388D02*
X14470182Y-12929436D01*
X14470182Y-12929436D02*
X14460658Y-12938960D01*
X14460658Y-12938960D02*
X14441610Y-12948484D01*
X14441610Y-12948484D02*
X14422562Y-12948484D01*
X14422562Y-12948484D02*
X14403515Y-12938960D01*
X14403515Y-12938960D02*
X14393991Y-12929436D01*
X14393991Y-12929436D02*
X14384467Y-12910388D01*
X14384467Y-12910388D02*
X14374943Y-12872293D01*
X14374943Y-12872293D02*
X14374943Y-12824674D01*
X14374943Y-12824674D02*
X14384467Y-12786579D01*
X14384467Y-12786579D02*
X14393991Y-12767531D01*
X14393991Y-12767531D02*
X14403515Y-12758008D01*
X14403515Y-12758008D02*
X14422562Y-12748484D01*
X14613039Y-12748484D02*
X14632086Y-12748484D01*
X14632086Y-12748484D02*
X14651134Y-12758008D01*
X14651134Y-12758008D02*
X14660658Y-12767531D01*
X14660658Y-12767531D02*
X14670182Y-12786579D01*
X14670182Y-12786579D02*
X14679705Y-12824674D01*
X14679705Y-12824674D02*
X14679705Y-12872293D01*
X14679705Y-12872293D02*
X14670182Y-12910388D01*
X14670182Y-12910388D02*
X14660658Y-12929436D01*
X14660658Y-12929436D02*
X14651134Y-12938960D01*
X14651134Y-12938960D02*
X14632086Y-12948484D01*
X14632086Y-12948484D02*
X14613039Y-12948484D01*
X14613039Y-12948484D02*
X14593991Y-12938960D01*
X14593991Y-12938960D02*
X14584467Y-12929436D01*
X14584467Y-12929436D02*
X14574943Y-12910388D01*
X14574943Y-12910388D02*
X14565420Y-12872293D01*
X14565420Y-12872293D02*
X14565420Y-12824674D01*
X14565420Y-12824674D02*
X14574943Y-12786579D01*
X14574943Y-12786579D02*
X14584467Y-12767531D01*
X14584467Y-12767531D02*
X14593991Y-12758008D01*
X14593991Y-12758008D02*
X14613039Y-12748484D01*
X14765420Y-12948484D02*
X14765420Y-12815150D01*
X14765420Y-12834198D02*
X14774943Y-12824674D01*
X14774943Y-12824674D02*
X14793991Y-12815150D01*
X14793991Y-12815150D02*
X14822563Y-12815150D01*
X14822563Y-12815150D02*
X14841610Y-12824674D01*
X14841610Y-12824674D02*
X14851134Y-12843722D01*
X14851134Y-12843722D02*
X14851134Y-12948484D01*
X14851134Y-12843722D02*
X14860658Y-12824674D01*
X14860658Y-12824674D02*
X14879705Y-12815150D01*
X14879705Y-12815150D02*
X14908277Y-12815150D01*
X14908277Y-12815150D02*
X14927324Y-12824674D01*
X14927324Y-12824674D02*
X14936848Y-12843722D01*
X14936848Y-12843722D02*
X14936848Y-12948484D01*
X15032086Y-12948484D02*
X15032086Y-12815150D01*
X15032086Y-12834198D02*
X15041610Y-12824674D01*
X15041610Y-12824674D02*
X15060658Y-12815150D01*
X15060658Y-12815150D02*
X15089229Y-12815150D01*
X15089229Y-12815150D02*
X15108277Y-12824674D01*
X15108277Y-12824674D02*
X15117801Y-12843722D01*
X15117801Y-12843722D02*
X15117801Y-12948484D01*
X15117801Y-12843722D02*
X15127324Y-12824674D01*
X15127324Y-12824674D02*
X15146372Y-12815150D01*
X15146372Y-12815150D02*
X15174943Y-12815150D01*
X15174943Y-12815150D02*
X15193991Y-12824674D01*
X15193991Y-12824674D02*
X15203515Y-12843722D01*
X15203515Y-12843722D02*
X15203515Y-12948484D01*
X15593991Y-12738960D02*
X15422563Y-12996103D01*
X15851134Y-12748484D02*
X15870182Y-12748484D01*
X15870182Y-12748484D02*
X15889229Y-12758008D01*
X15889229Y-12758008D02*
X15898753Y-12767531D01*
X15898753Y-12767531D02*
X15908277Y-12786579D01*
X15908277Y-12786579D02*
X15917801Y-12824674D01*
X15917801Y-12824674D02*
X15917801Y-12872293D01*
X15917801Y-12872293D02*
X15908277Y-12910388D01*
X15908277Y-12910388D02*
X15898753Y-12929436D01*
X15898753Y-12929436D02*
X15889229Y-12938960D01*
X15889229Y-12938960D02*
X15870182Y-12948484D01*
X15870182Y-12948484D02*
X15851134Y-12948484D01*
X15851134Y-12948484D02*
X15832086Y-12938960D01*
X15832086Y-12938960D02*
X15822563Y-12929436D01*
X15822563Y-12929436D02*
X15813039Y-12910388D01*
X15813039Y-12910388D02*
X15803515Y-12872293D01*
X15803515Y-12872293D02*
X15803515Y-12824674D01*
X15803515Y-12824674D02*
X15813039Y-12786579D01*
X15813039Y-12786579D02*
X15822563Y-12767531D01*
X15822563Y-12767531D02*
X15832086Y-12758008D01*
X15832086Y-12758008D02*
X15851134Y-12748484D01*
X16003515Y-12929436D02*
X16013039Y-12938960D01*
X16013039Y-12938960D02*
X16003515Y-12948484D01*
X16003515Y-12948484D02*
X15993991Y-12938960D01*
X15993991Y-12938960D02*
X16003515Y-12929436D01*
X16003515Y-12929436D02*
X16003515Y-12948484D01*
X16136848Y-12748484D02*
X16155896Y-12748484D01*
X16155896Y-12748484D02*
X16174944Y-12758008D01*
X16174944Y-12758008D02*
X16184467Y-12767531D01*
X16184467Y-12767531D02*
X16193991Y-12786579D01*
X16193991Y-12786579D02*
X16203515Y-12824674D01*
X16203515Y-12824674D02*
X16203515Y-12872293D01*
X16203515Y-12872293D02*
X16193991Y-12910388D01*
X16193991Y-12910388D02*
X16184467Y-12929436D01*
X16184467Y-12929436D02*
X16174944Y-12938960D01*
X16174944Y-12938960D02*
X16155896Y-12948484D01*
X16155896Y-12948484D02*
X16136848Y-12948484D01*
X16136848Y-12948484D02*
X16117801Y-12938960D01*
X16117801Y-12938960D02*
X16108277Y-12929436D01*
X16108277Y-12929436D02*
X16098753Y-12910388D01*
X16098753Y-12910388D02*
X16089229Y-12872293D01*
X16089229Y-12872293D02*
X16089229Y-12824674D01*
X16089229Y-12824674D02*
X16098753Y-12786579D01*
X16098753Y-12786579D02*
X16108277Y-12767531D01*
X16108277Y-12767531D02*
X16117801Y-12758008D01*
X16117801Y-12758008D02*
X16136848Y-12748484D01*
X16374944Y-12815150D02*
X16374944Y-12948484D01*
X16327325Y-12738960D02*
X16279706Y-12881817D01*
X16279706Y-12881817D02*
X16403515Y-12881817D01*
X16460658Y-12748484D02*
X16584467Y-12748484D01*
X16584467Y-12748484D02*
X16517801Y-12824674D01*
X16517801Y-12824674D02*
X16546372Y-12824674D01*
X16546372Y-12824674D02*
X16565420Y-12834198D01*
X16565420Y-12834198D02*
X16574944Y-12843722D01*
X16574944Y-12843722D02*
X16584467Y-12862769D01*
X16584467Y-12862769D02*
X16584467Y-12910388D01*
X16584467Y-12910388D02*
X16574944Y-12929436D01*
X16574944Y-12929436D02*
X16565420Y-12938960D01*
X16565420Y-12938960D02*
X16546372Y-12948484D01*
X16546372Y-12948484D02*
X16489229Y-12948484D01*
X16489229Y-12948484D02*
X16470182Y-12938960D01*
X16470182Y-12938960D02*
X16460658Y-12929436D01*
X16651134Y-12748484D02*
X16774944Y-12748484D01*
X16774944Y-12748484D02*
X16708277Y-12824674D01*
X16708277Y-12824674D02*
X16736848Y-12824674D01*
X16736848Y-12824674D02*
X16755896Y-12834198D01*
X16755896Y-12834198D02*
X16765420Y-12843722D01*
X16765420Y-12843722D02*
X16774944Y-12862769D01*
X16774944Y-12862769D02*
X16774944Y-12910388D01*
X16774944Y-12910388D02*
X16765420Y-12929436D01*
X16765420Y-12929436D02*
X16755896Y-12938960D01*
X16755896Y-12938960D02*
X16736848Y-12948484D01*
X16736848Y-12948484D02*
X16679706Y-12948484D01*
X16679706Y-12948484D02*
X16660658Y-12938960D01*
X16660658Y-12938960D02*
X16651134Y-12929436D01*
X16851134Y-12748484D02*
X16851134Y-12786579D01*
X16927325Y-12748484D02*
X16927325Y-12786579D01*
X17222563Y-13024674D02*
X17213039Y-13015150D01*
X17213039Y-13015150D02*
X17193991Y-12986579D01*
X17193991Y-12986579D02*
X17184468Y-12967531D01*
X17184468Y-12967531D02*
X17174944Y-12938960D01*
X17174944Y-12938960D02*
X17165420Y-12891341D01*
X17165420Y-12891341D02*
X17165420Y-12853246D01*
X17165420Y-12853246D02*
X17174944Y-12805627D01*
X17174944Y-12805627D02*
X17184468Y-12777055D01*
X17184468Y-12777055D02*
X17193991Y-12758008D01*
X17193991Y-12758008D02*
X17213039Y-12729436D01*
X17213039Y-12729436D02*
X17222563Y-12719912D01*
X17403515Y-12948484D02*
X17289230Y-12948484D01*
X17346372Y-12948484D02*
X17346372Y-12748484D01*
X17346372Y-12748484D02*
X17327325Y-12777055D01*
X17327325Y-12777055D02*
X17308277Y-12796103D01*
X17308277Y-12796103D02*
X17289230Y-12805627D01*
X17593991Y-12948484D02*
X17479706Y-12948484D01*
X17536849Y-12948484D02*
X17536849Y-12748484D01*
X17536849Y-12748484D02*
X17517801Y-12777055D01*
X17517801Y-12777055D02*
X17498753Y-12796103D01*
X17498753Y-12796103D02*
X17479706Y-12805627D01*
X17832087Y-12948484D02*
X17832087Y-12748484D01*
X17917801Y-12948484D02*
X17917801Y-12843722D01*
X17917801Y-12843722D02*
X17908277Y-12824674D01*
X17908277Y-12824674D02*
X17889230Y-12815150D01*
X17889230Y-12815150D02*
X17860658Y-12815150D01*
X17860658Y-12815150D02*
X17841611Y-12824674D01*
X17841611Y-12824674D02*
X17832087Y-12834198D01*
X18041611Y-12948484D02*
X18022563Y-12938960D01*
X18022563Y-12938960D02*
X18013039Y-12929436D01*
X18013039Y-12929436D02*
X18003515Y-12910388D01*
X18003515Y-12910388D02*
X18003515Y-12853246D01*
X18003515Y-12853246D02*
X18013039Y-12834198D01*
X18013039Y-12834198D02*
X18022563Y-12824674D01*
X18022563Y-12824674D02*
X18041611Y-12815150D01*
X18041611Y-12815150D02*
X18070182Y-12815150D01*
X18070182Y-12815150D02*
X18089230Y-12824674D01*
X18089230Y-12824674D02*
X18098753Y-12834198D01*
X18098753Y-12834198D02*
X18108277Y-12853246D01*
X18108277Y-12853246D02*
X18108277Y-12910388D01*
X18108277Y-12910388D02*
X18098753Y-12929436D01*
X18098753Y-12929436D02*
X18089230Y-12938960D01*
X18089230Y-12938960D02*
X18070182Y-12948484D01*
X18070182Y-12948484D02*
X18041611Y-12948484D01*
X18222563Y-12948484D02*
X18203515Y-12938960D01*
X18203515Y-12938960D02*
X18193992Y-12919912D01*
X18193992Y-12919912D02*
X18193992Y-12748484D01*
X18374944Y-12938960D02*
X18355896Y-12948484D01*
X18355896Y-12948484D02*
X18317801Y-12948484D01*
X18317801Y-12948484D02*
X18298753Y-12938960D01*
X18298753Y-12938960D02*
X18289230Y-12919912D01*
X18289230Y-12919912D02*
X18289230Y-12843722D01*
X18289230Y-12843722D02*
X18298753Y-12824674D01*
X18298753Y-12824674D02*
X18317801Y-12815150D01*
X18317801Y-12815150D02*
X18355896Y-12815150D01*
X18355896Y-12815150D02*
X18374944Y-12824674D01*
X18374944Y-12824674D02*
X18384468Y-12843722D01*
X18384468Y-12843722D02*
X18384468Y-12862769D01*
X18384468Y-12862769D02*
X18289230Y-12881817D01*
X18460658Y-12938960D02*
X18479706Y-12948484D01*
X18479706Y-12948484D02*
X18517801Y-12948484D01*
X18517801Y-12948484D02*
X18536849Y-12938960D01*
X18536849Y-12938960D02*
X18546373Y-12919912D01*
X18546373Y-12919912D02*
X18546373Y-12910388D01*
X18546373Y-12910388D02*
X18536849Y-12891341D01*
X18536849Y-12891341D02*
X18517801Y-12881817D01*
X18517801Y-12881817D02*
X18489230Y-12881817D01*
X18489230Y-12881817D02*
X18470182Y-12872293D01*
X18470182Y-12872293D02*
X18460658Y-12853246D01*
X18460658Y-12853246D02*
X18460658Y-12843722D01*
X18460658Y-12843722D02*
X18470182Y-12824674D01*
X18470182Y-12824674D02*
X18489230Y-12815150D01*
X18489230Y-12815150D02*
X18517801Y-12815150D01*
X18517801Y-12815150D02*
X18536849Y-12824674D01*
X18613039Y-13024674D02*
X18622563Y-13015150D01*
X18622563Y-13015150D02*
X18641611Y-12986579D01*
X18641611Y-12986579D02*
X18651134Y-12967531D01*
X18651134Y-12967531D02*
X18660658Y-12938960D01*
X18660658Y-12938960D02*
X18670182Y-12891341D01*
X18670182Y-12891341D02*
X18670182Y-12853246D01*
X18670182Y-12853246D02*
X18660658Y-12805627D01*
X18660658Y-12805627D02*
X18651134Y-12777055D01*
X18651134Y-12777055D02*
X18641611Y-12758008D01*
X18641611Y-12758008D02*
X18622563Y-12729436D01*
X18622563Y-12729436D02*
X18613039Y-12719912D01*
M02*
