%TF.GenerationSoftware,KiCad,Pcbnew,8.0.0-rc2-358-gd9abaa23a4*%
%TF.CreationDate,2024-02-08T19:09:11+01:00*%
%TF.ProjectId,xDuinoRail-Breakout-RailcomDetect,78447569-6e6f-4526-9169-6c2d42726561,rev?*%
%TF.SameCoordinates,Original*%
%TF.FileFunction,Legend,Top*%
%TF.FilePolarity,Positive*%
%FSLAX46Y46*%
G04 Gerber Fmt 4.6, Leading zero omitted, Abs format (unit mm)*
G04 Created by KiCad (PCBNEW 8.0.0-rc2-358-gd9abaa23a4) date 2024-02-08 19:09:11*
%MOMM*%
%LPD*%
G01*
G04 APERTURE LIST*
%ADD10C,0.150000*%
%ADD11C,0.375000*%
%ADD12C,0.120000*%
G04 APERTURE END LIST*
D10*
X179200627Y-68705193D02*
X179105389Y-68657574D01*
X179105389Y-68657574D02*
X178962532Y-68657574D01*
X178962532Y-68657574D02*
X178819675Y-68705193D01*
X178819675Y-68705193D02*
X178724437Y-68800431D01*
X178724437Y-68800431D02*
X178676818Y-68895669D01*
X178676818Y-68895669D02*
X178629199Y-69086145D01*
X178629199Y-69086145D02*
X178629199Y-69229002D01*
X178629199Y-69229002D02*
X178676818Y-69419478D01*
X178676818Y-69419478D02*
X178724437Y-69514716D01*
X178724437Y-69514716D02*
X178819675Y-69609955D01*
X178819675Y-69609955D02*
X178962532Y-69657574D01*
X178962532Y-69657574D02*
X179057770Y-69657574D01*
X179057770Y-69657574D02*
X179200627Y-69609955D01*
X179200627Y-69609955D02*
X179248246Y-69562335D01*
X179248246Y-69562335D02*
X179248246Y-69229002D01*
X179248246Y-69229002D02*
X179057770Y-69229002D01*
X179676818Y-69657574D02*
X179676818Y-68657574D01*
X179676818Y-68657574D02*
X180248246Y-69657574D01*
X180248246Y-69657574D02*
X180248246Y-68657574D01*
X180724437Y-69657574D02*
X180724437Y-68657574D01*
X180724437Y-68657574D02*
X180962532Y-68657574D01*
X180962532Y-68657574D02*
X181105389Y-68705193D01*
X181105389Y-68705193D02*
X181200627Y-68800431D01*
X181200627Y-68800431D02*
X181248246Y-68895669D01*
X181248246Y-68895669D02*
X181295865Y-69086145D01*
X181295865Y-69086145D02*
X181295865Y-69229002D01*
X181295865Y-69229002D02*
X181248246Y-69419478D01*
X181248246Y-69419478D02*
X181200627Y-69514716D01*
X181200627Y-69514716D02*
X181105389Y-69609955D01*
X181105389Y-69609955D02*
X180962532Y-69657574D01*
X180962532Y-69657574D02*
X180724437Y-69657574D01*
X174263207Y-74164819D02*
X173929874Y-73688628D01*
X173691779Y-74164819D02*
X173691779Y-73164819D01*
X173691779Y-73164819D02*
X174072731Y-73164819D01*
X174072731Y-73164819D02*
X174167969Y-73212438D01*
X174167969Y-73212438D02*
X174215588Y-73260057D01*
X174215588Y-73260057D02*
X174263207Y-73355295D01*
X174263207Y-73355295D02*
X174263207Y-73498152D01*
X174263207Y-73498152D02*
X174215588Y-73593390D01*
X174215588Y-73593390D02*
X174167969Y-73641009D01*
X174167969Y-73641009D02*
X174072731Y-73688628D01*
X174072731Y-73688628D02*
X173691779Y-73688628D01*
X175263207Y-74069580D02*
X175215588Y-74117200D01*
X175215588Y-74117200D02*
X175072731Y-74164819D01*
X175072731Y-74164819D02*
X174977493Y-74164819D01*
X174977493Y-74164819D02*
X174834636Y-74117200D01*
X174834636Y-74117200D02*
X174739398Y-74021961D01*
X174739398Y-74021961D02*
X174691779Y-73926723D01*
X174691779Y-73926723D02*
X174644160Y-73736247D01*
X174644160Y-73736247D02*
X174644160Y-73593390D01*
X174644160Y-73593390D02*
X174691779Y-73402914D01*
X174691779Y-73402914D02*
X174739398Y-73307676D01*
X174739398Y-73307676D02*
X174834636Y-73212438D01*
X174834636Y-73212438D02*
X174977493Y-73164819D01*
X174977493Y-73164819D02*
X175072731Y-73164819D01*
X175072731Y-73164819D02*
X175215588Y-73212438D01*
X175215588Y-73212438D02*
X175263207Y-73260057D01*
X175453684Y-74260057D02*
X176215588Y-74260057D01*
X176644160Y-73164819D02*
X176834636Y-73164819D01*
X176834636Y-73164819D02*
X176929874Y-73212438D01*
X176929874Y-73212438D02*
X177025112Y-73307676D01*
X177025112Y-73307676D02*
X177072731Y-73498152D01*
X177072731Y-73498152D02*
X177072731Y-73831485D01*
X177072731Y-73831485D02*
X177025112Y-74021961D01*
X177025112Y-74021961D02*
X176929874Y-74117200D01*
X176929874Y-74117200D02*
X176834636Y-74164819D01*
X176834636Y-74164819D02*
X176644160Y-74164819D01*
X176644160Y-74164819D02*
X176548922Y-74117200D01*
X176548922Y-74117200D02*
X176453684Y-74021961D01*
X176453684Y-74021961D02*
X176406065Y-73831485D01*
X176406065Y-73831485D02*
X176406065Y-73498152D01*
X176406065Y-73498152D02*
X176453684Y-73307676D01*
X176453684Y-73307676D02*
X176548922Y-73212438D01*
X176548922Y-73212438D02*
X176644160Y-73164819D01*
X177501303Y-74164819D02*
X177501303Y-73164819D01*
X177501303Y-73164819D02*
X178072731Y-74164819D01*
X178072731Y-74164819D02*
X178072731Y-73164819D01*
X178310827Y-74260057D02*
X179072731Y-74260057D01*
X179501303Y-73164819D02*
X179691779Y-73164819D01*
X179691779Y-73164819D02*
X179787017Y-73212438D01*
X179787017Y-73212438D02*
X179882255Y-73307676D01*
X179882255Y-73307676D02*
X179929874Y-73498152D01*
X179929874Y-73498152D02*
X179929874Y-73831485D01*
X179929874Y-73831485D02*
X179882255Y-74021961D01*
X179882255Y-74021961D02*
X179787017Y-74117200D01*
X179787017Y-74117200D02*
X179691779Y-74164819D01*
X179691779Y-74164819D02*
X179501303Y-74164819D01*
X179501303Y-74164819D02*
X179406065Y-74117200D01*
X179406065Y-74117200D02*
X179310827Y-74021961D01*
X179310827Y-74021961D02*
X179263208Y-73831485D01*
X179263208Y-73831485D02*
X179263208Y-73498152D01*
X179263208Y-73498152D02*
X179310827Y-73307676D01*
X179310827Y-73307676D02*
X179406065Y-73212438D01*
X179406065Y-73212438D02*
X179501303Y-73164819D01*
X180691779Y-73641009D02*
X180358446Y-73641009D01*
X180358446Y-74164819D02*
X180358446Y-73164819D01*
X180358446Y-73164819D02*
X180834636Y-73164819D01*
X181548922Y-73641009D02*
X181215589Y-73641009D01*
X181215589Y-74164819D02*
X181215589Y-73164819D01*
X181215589Y-73164819D02*
X181691779Y-73164819D01*
X175665789Y-78944764D02*
X175332456Y-78468573D01*
X175094361Y-78944764D02*
X175094361Y-77944764D01*
X175094361Y-77944764D02*
X175475313Y-77944764D01*
X175475313Y-77944764D02*
X175570551Y-77992383D01*
X175570551Y-77992383D02*
X175618170Y-78040002D01*
X175618170Y-78040002D02*
X175665789Y-78135240D01*
X175665789Y-78135240D02*
X175665789Y-78278097D01*
X175665789Y-78278097D02*
X175618170Y-78373335D01*
X175618170Y-78373335D02*
X175570551Y-78420954D01*
X175570551Y-78420954D02*
X175475313Y-78468573D01*
X175475313Y-78468573D02*
X175094361Y-78468573D01*
X176665789Y-78849525D02*
X176618170Y-78897145D01*
X176618170Y-78897145D02*
X176475313Y-78944764D01*
X176475313Y-78944764D02*
X176380075Y-78944764D01*
X176380075Y-78944764D02*
X176237218Y-78897145D01*
X176237218Y-78897145D02*
X176141980Y-78801906D01*
X176141980Y-78801906D02*
X176094361Y-78706668D01*
X176094361Y-78706668D02*
X176046742Y-78516192D01*
X176046742Y-78516192D02*
X176046742Y-78373335D01*
X176046742Y-78373335D02*
X176094361Y-78182859D01*
X176094361Y-78182859D02*
X176141980Y-78087621D01*
X176141980Y-78087621D02*
X176237218Y-77992383D01*
X176237218Y-77992383D02*
X176380075Y-77944764D01*
X176380075Y-77944764D02*
X176475313Y-77944764D01*
X176475313Y-77944764D02*
X176618170Y-77992383D01*
X176618170Y-77992383D02*
X176665789Y-78040002D01*
X176856266Y-79040002D02*
X177618170Y-79040002D01*
X178189599Y-78420954D02*
X177856266Y-78420954D01*
X177856266Y-78944764D02*
X177856266Y-77944764D01*
X177856266Y-77944764D02*
X178332456Y-77944764D01*
X179046742Y-78420954D02*
X179189599Y-78468573D01*
X179189599Y-78468573D02*
X179237218Y-78516192D01*
X179237218Y-78516192D02*
X179284837Y-78611430D01*
X179284837Y-78611430D02*
X179284837Y-78754287D01*
X179284837Y-78754287D02*
X179237218Y-78849525D01*
X179237218Y-78849525D02*
X179189599Y-78897145D01*
X179189599Y-78897145D02*
X179094361Y-78944764D01*
X179094361Y-78944764D02*
X178713409Y-78944764D01*
X178713409Y-78944764D02*
X178713409Y-77944764D01*
X178713409Y-77944764D02*
X179046742Y-77944764D01*
X179046742Y-77944764D02*
X179141980Y-77992383D01*
X179141980Y-77992383D02*
X179189599Y-78040002D01*
X179189599Y-78040002D02*
X179237218Y-78135240D01*
X179237218Y-78135240D02*
X179237218Y-78230478D01*
X179237218Y-78230478D02*
X179189599Y-78325716D01*
X179189599Y-78325716D02*
X179141980Y-78373335D01*
X179141980Y-78373335D02*
X179046742Y-78420954D01*
X179046742Y-78420954D02*
X178713409Y-78420954D01*
X179475314Y-79040002D02*
X180237218Y-79040002D01*
X180475314Y-78944764D02*
X180475314Y-77944764D01*
X180951504Y-78944764D02*
X180951504Y-77944764D01*
X180951504Y-77944764D02*
X181522932Y-78944764D01*
X181522932Y-78944764D02*
X181522932Y-77944764D01*
X174263207Y-83689819D02*
X173929874Y-83213628D01*
X173691779Y-83689819D02*
X173691779Y-82689819D01*
X173691779Y-82689819D02*
X174072731Y-82689819D01*
X174072731Y-82689819D02*
X174167969Y-82737438D01*
X174167969Y-82737438D02*
X174215588Y-82785057D01*
X174215588Y-82785057D02*
X174263207Y-82880295D01*
X174263207Y-82880295D02*
X174263207Y-83023152D01*
X174263207Y-83023152D02*
X174215588Y-83118390D01*
X174215588Y-83118390D02*
X174167969Y-83166009D01*
X174167969Y-83166009D02*
X174072731Y-83213628D01*
X174072731Y-83213628D02*
X173691779Y-83213628D01*
X175263207Y-83594580D02*
X175215588Y-83642200D01*
X175215588Y-83642200D02*
X175072731Y-83689819D01*
X175072731Y-83689819D02*
X174977493Y-83689819D01*
X174977493Y-83689819D02*
X174834636Y-83642200D01*
X174834636Y-83642200D02*
X174739398Y-83546961D01*
X174739398Y-83546961D02*
X174691779Y-83451723D01*
X174691779Y-83451723D02*
X174644160Y-83261247D01*
X174644160Y-83261247D02*
X174644160Y-83118390D01*
X174644160Y-83118390D02*
X174691779Y-82927914D01*
X174691779Y-82927914D02*
X174739398Y-82832676D01*
X174739398Y-82832676D02*
X174834636Y-82737438D01*
X174834636Y-82737438D02*
X174977493Y-82689819D01*
X174977493Y-82689819D02*
X175072731Y-82689819D01*
X175072731Y-82689819D02*
X175215588Y-82737438D01*
X175215588Y-82737438D02*
X175263207Y-82785057D01*
X175453684Y-83785057D02*
X176215588Y-83785057D01*
X176406065Y-83642200D02*
X176548922Y-83689819D01*
X176548922Y-83689819D02*
X176787017Y-83689819D01*
X176787017Y-83689819D02*
X176882255Y-83642200D01*
X176882255Y-83642200D02*
X176929874Y-83594580D01*
X176929874Y-83594580D02*
X176977493Y-83499342D01*
X176977493Y-83499342D02*
X176977493Y-83404104D01*
X176977493Y-83404104D02*
X176929874Y-83308866D01*
X176929874Y-83308866D02*
X176882255Y-83261247D01*
X176882255Y-83261247D02*
X176787017Y-83213628D01*
X176787017Y-83213628D02*
X176596541Y-83166009D01*
X176596541Y-83166009D02*
X176501303Y-83118390D01*
X176501303Y-83118390D02*
X176453684Y-83070771D01*
X176453684Y-83070771D02*
X176406065Y-82975533D01*
X176406065Y-82975533D02*
X176406065Y-82880295D01*
X176406065Y-82880295D02*
X176453684Y-82785057D01*
X176453684Y-82785057D02*
X176501303Y-82737438D01*
X176501303Y-82737438D02*
X176596541Y-82689819D01*
X176596541Y-82689819D02*
X176834636Y-82689819D01*
X176834636Y-82689819D02*
X176977493Y-82737438D01*
X177406065Y-83689819D02*
X177406065Y-82689819D01*
X178406064Y-82737438D02*
X178310826Y-82689819D01*
X178310826Y-82689819D02*
X178167969Y-82689819D01*
X178167969Y-82689819D02*
X178025112Y-82737438D01*
X178025112Y-82737438D02*
X177929874Y-82832676D01*
X177929874Y-82832676D02*
X177882255Y-82927914D01*
X177882255Y-82927914D02*
X177834636Y-83118390D01*
X177834636Y-83118390D02*
X177834636Y-83261247D01*
X177834636Y-83261247D02*
X177882255Y-83451723D01*
X177882255Y-83451723D02*
X177929874Y-83546961D01*
X177929874Y-83546961D02*
X178025112Y-83642200D01*
X178025112Y-83642200D02*
X178167969Y-83689819D01*
X178167969Y-83689819D02*
X178263207Y-83689819D01*
X178263207Y-83689819D02*
X178406064Y-83642200D01*
X178406064Y-83642200D02*
X178453683Y-83594580D01*
X178453683Y-83594580D02*
X178453683Y-83261247D01*
X178453683Y-83261247D02*
X178263207Y-83261247D01*
X178882255Y-83689819D02*
X178882255Y-82689819D01*
X178882255Y-82689819D02*
X179453683Y-83689819D01*
X179453683Y-83689819D02*
X179453683Y-82689819D01*
X179882255Y-83404104D02*
X180358445Y-83404104D01*
X179787017Y-83689819D02*
X180120350Y-82689819D01*
X180120350Y-82689819D02*
X180453683Y-83689819D01*
X181263207Y-83689819D02*
X180787017Y-83689819D01*
X180787017Y-83689819D02*
X180787017Y-82689819D01*
X175533207Y-88134819D02*
X175199874Y-87658628D01*
X174961779Y-88134819D02*
X174961779Y-87134819D01*
X174961779Y-87134819D02*
X175342731Y-87134819D01*
X175342731Y-87134819D02*
X175437969Y-87182438D01*
X175437969Y-87182438D02*
X175485588Y-87230057D01*
X175485588Y-87230057D02*
X175533207Y-87325295D01*
X175533207Y-87325295D02*
X175533207Y-87468152D01*
X175533207Y-87468152D02*
X175485588Y-87563390D01*
X175485588Y-87563390D02*
X175437969Y-87611009D01*
X175437969Y-87611009D02*
X175342731Y-87658628D01*
X175342731Y-87658628D02*
X174961779Y-87658628D01*
X176533207Y-88039580D02*
X176485588Y-88087200D01*
X176485588Y-88087200D02*
X176342731Y-88134819D01*
X176342731Y-88134819D02*
X176247493Y-88134819D01*
X176247493Y-88134819D02*
X176104636Y-88087200D01*
X176104636Y-88087200D02*
X176009398Y-87991961D01*
X176009398Y-87991961D02*
X175961779Y-87896723D01*
X175961779Y-87896723D02*
X175914160Y-87706247D01*
X175914160Y-87706247D02*
X175914160Y-87563390D01*
X175914160Y-87563390D02*
X175961779Y-87372914D01*
X175961779Y-87372914D02*
X176009398Y-87277676D01*
X176009398Y-87277676D02*
X176104636Y-87182438D01*
X176104636Y-87182438D02*
X176247493Y-87134819D01*
X176247493Y-87134819D02*
X176342731Y-87134819D01*
X176342731Y-87134819D02*
X176485588Y-87182438D01*
X176485588Y-87182438D02*
X176533207Y-87230057D01*
X176723684Y-88230057D02*
X177485588Y-88230057D01*
X177628446Y-87134819D02*
X178247493Y-87134819D01*
X178247493Y-87134819D02*
X177914160Y-87515771D01*
X177914160Y-87515771D02*
X178057017Y-87515771D01*
X178057017Y-87515771D02*
X178152255Y-87563390D01*
X178152255Y-87563390D02*
X178199874Y-87611009D01*
X178199874Y-87611009D02*
X178247493Y-87706247D01*
X178247493Y-87706247D02*
X178247493Y-87944342D01*
X178247493Y-87944342D02*
X178199874Y-88039580D01*
X178199874Y-88039580D02*
X178152255Y-88087200D01*
X178152255Y-88087200D02*
X178057017Y-88134819D01*
X178057017Y-88134819D02*
X177771303Y-88134819D01*
X177771303Y-88134819D02*
X177676065Y-88087200D01*
X177676065Y-88087200D02*
X177628446Y-88039580D01*
X178866541Y-87134819D02*
X178961779Y-87134819D01*
X178961779Y-87134819D02*
X179057017Y-87182438D01*
X179057017Y-87182438D02*
X179104636Y-87230057D01*
X179104636Y-87230057D02*
X179152255Y-87325295D01*
X179152255Y-87325295D02*
X179199874Y-87515771D01*
X179199874Y-87515771D02*
X179199874Y-87753866D01*
X179199874Y-87753866D02*
X179152255Y-87944342D01*
X179152255Y-87944342D02*
X179104636Y-88039580D01*
X179104636Y-88039580D02*
X179057017Y-88087200D01*
X179057017Y-88087200D02*
X178961779Y-88134819D01*
X178961779Y-88134819D02*
X178866541Y-88134819D01*
X178866541Y-88134819D02*
X178771303Y-88087200D01*
X178771303Y-88087200D02*
X178723684Y-88039580D01*
X178723684Y-88039580D02*
X178676065Y-87944342D01*
X178676065Y-87944342D02*
X178628446Y-87753866D01*
X178628446Y-87753866D02*
X178628446Y-87515771D01*
X178628446Y-87515771D02*
X178676065Y-87325295D01*
X178676065Y-87325295D02*
X178723684Y-87230057D01*
X178723684Y-87230057D02*
X178771303Y-87182438D01*
X178771303Y-87182438D02*
X178866541Y-87134819D01*
X179628446Y-88134819D02*
X179628446Y-87468152D01*
X179628446Y-87563390D02*
X179676065Y-87515771D01*
X179676065Y-87515771D02*
X179771303Y-87468152D01*
X179771303Y-87468152D02*
X179914160Y-87468152D01*
X179914160Y-87468152D02*
X180009398Y-87515771D01*
X180009398Y-87515771D02*
X180057017Y-87611009D01*
X180057017Y-87611009D02*
X180057017Y-88134819D01*
X180057017Y-87611009D02*
X180104636Y-87515771D01*
X180104636Y-87515771D02*
X180199874Y-87468152D01*
X180199874Y-87468152D02*
X180342731Y-87468152D01*
X180342731Y-87468152D02*
X180437970Y-87515771D01*
X180437970Y-87515771D02*
X180485589Y-87611009D01*
X180485589Y-87611009D02*
X180485589Y-88134819D01*
X180914160Y-87849104D02*
X181390350Y-87849104D01*
X180818922Y-88134819D02*
X181152255Y-87134819D01*
X181152255Y-87134819D02*
X181485588Y-88134819D01*
X175596779Y-91563866D02*
X176358684Y-91563866D01*
X176739636Y-90944819D02*
X177406302Y-90944819D01*
X177406302Y-90944819D02*
X176977731Y-91944819D01*
X178263445Y-90944819D02*
X177787255Y-90944819D01*
X177787255Y-90944819D02*
X177739636Y-91421009D01*
X177739636Y-91421009D02*
X177787255Y-91373390D01*
X177787255Y-91373390D02*
X177882493Y-91325771D01*
X177882493Y-91325771D02*
X178120588Y-91325771D01*
X178120588Y-91325771D02*
X178215826Y-91373390D01*
X178215826Y-91373390D02*
X178263445Y-91421009D01*
X178263445Y-91421009D02*
X178311064Y-91516247D01*
X178311064Y-91516247D02*
X178311064Y-91754342D01*
X178311064Y-91754342D02*
X178263445Y-91849580D01*
X178263445Y-91849580D02*
X178215826Y-91897200D01*
X178215826Y-91897200D02*
X178120588Y-91944819D01*
X178120588Y-91944819D02*
X177882493Y-91944819D01*
X177882493Y-91944819D02*
X177787255Y-91897200D01*
X177787255Y-91897200D02*
X177739636Y-91849580D01*
X178930112Y-90944819D02*
X179025350Y-90944819D01*
X179025350Y-90944819D02*
X179120588Y-90992438D01*
X179120588Y-90992438D02*
X179168207Y-91040057D01*
X179168207Y-91040057D02*
X179215826Y-91135295D01*
X179215826Y-91135295D02*
X179263445Y-91325771D01*
X179263445Y-91325771D02*
X179263445Y-91563866D01*
X179263445Y-91563866D02*
X179215826Y-91754342D01*
X179215826Y-91754342D02*
X179168207Y-91849580D01*
X179168207Y-91849580D02*
X179120588Y-91897200D01*
X179120588Y-91897200D02*
X179025350Y-91944819D01*
X179025350Y-91944819D02*
X178930112Y-91944819D01*
X178930112Y-91944819D02*
X178834874Y-91897200D01*
X178834874Y-91897200D02*
X178787255Y-91849580D01*
X178787255Y-91849580D02*
X178739636Y-91754342D01*
X178739636Y-91754342D02*
X178692017Y-91563866D01*
X178692017Y-91563866D02*
X178692017Y-91325771D01*
X178692017Y-91325771D02*
X178739636Y-91135295D01*
X178739636Y-91135295D02*
X178787255Y-91040057D01*
X178787255Y-91040057D02*
X178834874Y-90992438D01*
X178834874Y-90992438D02*
X178930112Y-90944819D01*
X179692017Y-91944819D02*
X179692017Y-91278152D01*
X179692017Y-91373390D02*
X179739636Y-91325771D01*
X179739636Y-91325771D02*
X179834874Y-91278152D01*
X179834874Y-91278152D02*
X179977731Y-91278152D01*
X179977731Y-91278152D02*
X180072969Y-91325771D01*
X180072969Y-91325771D02*
X180120588Y-91421009D01*
X180120588Y-91421009D02*
X180120588Y-91944819D01*
X180120588Y-91421009D02*
X180168207Y-91325771D01*
X180168207Y-91325771D02*
X180263445Y-91278152D01*
X180263445Y-91278152D02*
X180406302Y-91278152D01*
X180406302Y-91278152D02*
X180501541Y-91325771D01*
X180501541Y-91325771D02*
X180549160Y-91421009D01*
X180549160Y-91421009D02*
X180549160Y-91944819D01*
X180882493Y-90944819D02*
X181215826Y-91944819D01*
X181215826Y-91944819D02*
X181549159Y-90944819D01*
X179295588Y-100517438D02*
X179200350Y-100469819D01*
X179200350Y-100469819D02*
X179057493Y-100469819D01*
X179057493Y-100469819D02*
X178914636Y-100517438D01*
X178914636Y-100517438D02*
X178819398Y-100612676D01*
X178819398Y-100612676D02*
X178771779Y-100707914D01*
X178771779Y-100707914D02*
X178724160Y-100898390D01*
X178724160Y-100898390D02*
X178724160Y-101041247D01*
X178724160Y-101041247D02*
X178771779Y-101231723D01*
X178771779Y-101231723D02*
X178819398Y-101326961D01*
X178819398Y-101326961D02*
X178914636Y-101422200D01*
X178914636Y-101422200D02*
X179057493Y-101469819D01*
X179057493Y-101469819D02*
X179152731Y-101469819D01*
X179152731Y-101469819D02*
X179295588Y-101422200D01*
X179295588Y-101422200D02*
X179343207Y-101374580D01*
X179343207Y-101374580D02*
X179343207Y-101041247D01*
X179343207Y-101041247D02*
X179152731Y-101041247D01*
X179771779Y-101469819D02*
X179771779Y-100469819D01*
X179771779Y-100469819D02*
X180343207Y-101469819D01*
X180343207Y-101469819D02*
X180343207Y-100469819D01*
X180819398Y-101469819D02*
X180819398Y-100469819D01*
X180819398Y-100469819D02*
X181057493Y-100469819D01*
X181057493Y-100469819D02*
X181200350Y-100517438D01*
X181200350Y-100517438D02*
X181295588Y-100612676D01*
X181295588Y-100612676D02*
X181343207Y-100707914D01*
X181343207Y-100707914D02*
X181390826Y-100898390D01*
X181390826Y-100898390D02*
X181390826Y-101041247D01*
X181390826Y-101041247D02*
X181343207Y-101231723D01*
X181343207Y-101231723D02*
X181295588Y-101326961D01*
X181295588Y-101326961D02*
X181200350Y-101422200D01*
X181200350Y-101422200D02*
X181057493Y-101469819D01*
X181057493Y-101469819D02*
X180819398Y-101469819D01*
X176329006Y-96394701D02*
X177090911Y-96394701D01*
X178090910Y-96775654D02*
X177519482Y-96775654D01*
X177805196Y-96775654D02*
X177805196Y-95775654D01*
X177805196Y-95775654D02*
X177709958Y-95918511D01*
X177709958Y-95918511D02*
X177614720Y-96013749D01*
X177614720Y-96013749D02*
X177519482Y-96061368D01*
X178948053Y-95775654D02*
X178757577Y-95775654D01*
X178757577Y-95775654D02*
X178662339Y-95823273D01*
X178662339Y-95823273D02*
X178614720Y-95870892D01*
X178614720Y-95870892D02*
X178519482Y-96013749D01*
X178519482Y-96013749D02*
X178471863Y-96204225D01*
X178471863Y-96204225D02*
X178471863Y-96585177D01*
X178471863Y-96585177D02*
X178519482Y-96680415D01*
X178519482Y-96680415D02*
X178567101Y-96728035D01*
X178567101Y-96728035D02*
X178662339Y-96775654D01*
X178662339Y-96775654D02*
X178852815Y-96775654D01*
X178852815Y-96775654D02*
X178948053Y-96728035D01*
X178948053Y-96728035D02*
X178995672Y-96680415D01*
X178995672Y-96680415D02*
X179043291Y-96585177D01*
X179043291Y-96585177D02*
X179043291Y-96347082D01*
X179043291Y-96347082D02*
X178995672Y-96251844D01*
X178995672Y-96251844D02*
X178948053Y-96204225D01*
X178948053Y-96204225D02*
X178852815Y-96156606D01*
X178852815Y-96156606D02*
X178662339Y-96156606D01*
X178662339Y-96156606D02*
X178567101Y-96204225D01*
X178567101Y-96204225D02*
X178519482Y-96251844D01*
X178519482Y-96251844D02*
X178471863Y-96347082D01*
X179471863Y-96775654D02*
X179471863Y-96108987D01*
X179471863Y-96204225D02*
X179519482Y-96156606D01*
X179519482Y-96156606D02*
X179614720Y-96108987D01*
X179614720Y-96108987D02*
X179757577Y-96108987D01*
X179757577Y-96108987D02*
X179852815Y-96156606D01*
X179852815Y-96156606D02*
X179900434Y-96251844D01*
X179900434Y-96251844D02*
X179900434Y-96775654D01*
X179900434Y-96251844D02*
X179948053Y-96156606D01*
X179948053Y-96156606D02*
X180043291Y-96108987D01*
X180043291Y-96108987D02*
X180186148Y-96108987D01*
X180186148Y-96108987D02*
X180281387Y-96156606D01*
X180281387Y-96156606D02*
X180329006Y-96251844D01*
X180329006Y-96251844D02*
X180329006Y-96775654D01*
X180662339Y-95775654D02*
X180995672Y-96775654D01*
X180995672Y-96775654D02*
X181329005Y-95775654D01*
X176231779Y-105533866D02*
X176993684Y-105533866D01*
X176612731Y-105914819D02*
X176612731Y-105152914D01*
X177993683Y-105914819D02*
X177422255Y-105914819D01*
X177707969Y-105914819D02*
X177707969Y-104914819D01*
X177707969Y-104914819D02*
X177612731Y-105057676D01*
X177612731Y-105057676D02*
X177517493Y-105152914D01*
X177517493Y-105152914D02*
X177422255Y-105200533D01*
X178850826Y-104914819D02*
X178660350Y-104914819D01*
X178660350Y-104914819D02*
X178565112Y-104962438D01*
X178565112Y-104962438D02*
X178517493Y-105010057D01*
X178517493Y-105010057D02*
X178422255Y-105152914D01*
X178422255Y-105152914D02*
X178374636Y-105343390D01*
X178374636Y-105343390D02*
X178374636Y-105724342D01*
X178374636Y-105724342D02*
X178422255Y-105819580D01*
X178422255Y-105819580D02*
X178469874Y-105867200D01*
X178469874Y-105867200D02*
X178565112Y-105914819D01*
X178565112Y-105914819D02*
X178755588Y-105914819D01*
X178755588Y-105914819D02*
X178850826Y-105867200D01*
X178850826Y-105867200D02*
X178898445Y-105819580D01*
X178898445Y-105819580D02*
X178946064Y-105724342D01*
X178946064Y-105724342D02*
X178946064Y-105486247D01*
X178946064Y-105486247D02*
X178898445Y-105391009D01*
X178898445Y-105391009D02*
X178850826Y-105343390D01*
X178850826Y-105343390D02*
X178755588Y-105295771D01*
X178755588Y-105295771D02*
X178565112Y-105295771D01*
X178565112Y-105295771D02*
X178469874Y-105343390D01*
X178469874Y-105343390D02*
X178422255Y-105391009D01*
X178422255Y-105391009D02*
X178374636Y-105486247D01*
X179374636Y-105914819D02*
X179374636Y-105248152D01*
X179374636Y-105343390D02*
X179422255Y-105295771D01*
X179422255Y-105295771D02*
X179517493Y-105248152D01*
X179517493Y-105248152D02*
X179660350Y-105248152D01*
X179660350Y-105248152D02*
X179755588Y-105295771D01*
X179755588Y-105295771D02*
X179803207Y-105391009D01*
X179803207Y-105391009D02*
X179803207Y-105914819D01*
X179803207Y-105391009D02*
X179850826Y-105295771D01*
X179850826Y-105295771D02*
X179946064Y-105248152D01*
X179946064Y-105248152D02*
X180088921Y-105248152D01*
X180088921Y-105248152D02*
X180184160Y-105295771D01*
X180184160Y-105295771D02*
X180231779Y-105391009D01*
X180231779Y-105391009D02*
X180231779Y-105914819D01*
X180565112Y-104914819D02*
X180898445Y-105914819D01*
X180898445Y-105914819D02*
X181231778Y-104914819D01*
X173637318Y-110484387D02*
X173303985Y-110008196D01*
X173065890Y-110484387D02*
X173065890Y-109484387D01*
X173065890Y-109484387D02*
X173446842Y-109484387D01*
X173446842Y-109484387D02*
X173542080Y-109532006D01*
X173542080Y-109532006D02*
X173589699Y-109579625D01*
X173589699Y-109579625D02*
X173637318Y-109674863D01*
X173637318Y-109674863D02*
X173637318Y-109817720D01*
X173637318Y-109817720D02*
X173589699Y-109912958D01*
X173589699Y-109912958D02*
X173542080Y-109960577D01*
X173542080Y-109960577D02*
X173446842Y-110008196D01*
X173446842Y-110008196D02*
X173065890Y-110008196D01*
X174018271Y-110198672D02*
X174494461Y-110198672D01*
X173923033Y-110484387D02*
X174256366Y-109484387D01*
X174256366Y-109484387D02*
X174589699Y-110484387D01*
X174923033Y-110484387D02*
X174923033Y-109484387D01*
X175875413Y-110484387D02*
X175399223Y-110484387D01*
X175399223Y-110484387D02*
X175399223Y-109484387D01*
X176780175Y-110389148D02*
X176732556Y-110436768D01*
X176732556Y-110436768D02*
X176589699Y-110484387D01*
X176589699Y-110484387D02*
X176494461Y-110484387D01*
X176494461Y-110484387D02*
X176351604Y-110436768D01*
X176351604Y-110436768D02*
X176256366Y-110341529D01*
X176256366Y-110341529D02*
X176208747Y-110246291D01*
X176208747Y-110246291D02*
X176161128Y-110055815D01*
X176161128Y-110055815D02*
X176161128Y-109912958D01*
X176161128Y-109912958D02*
X176208747Y-109722482D01*
X176208747Y-109722482D02*
X176256366Y-109627244D01*
X176256366Y-109627244D02*
X176351604Y-109532006D01*
X176351604Y-109532006D02*
X176494461Y-109484387D01*
X176494461Y-109484387D02*
X176589699Y-109484387D01*
X176589699Y-109484387D02*
X176732556Y-109532006D01*
X176732556Y-109532006D02*
X176780175Y-109579625D01*
X177399223Y-109484387D02*
X177589699Y-109484387D01*
X177589699Y-109484387D02*
X177684937Y-109532006D01*
X177684937Y-109532006D02*
X177780175Y-109627244D01*
X177780175Y-109627244D02*
X177827794Y-109817720D01*
X177827794Y-109817720D02*
X177827794Y-110151053D01*
X177827794Y-110151053D02*
X177780175Y-110341529D01*
X177780175Y-110341529D02*
X177684937Y-110436768D01*
X177684937Y-110436768D02*
X177589699Y-110484387D01*
X177589699Y-110484387D02*
X177399223Y-110484387D01*
X177399223Y-110484387D02*
X177303985Y-110436768D01*
X177303985Y-110436768D02*
X177208747Y-110341529D01*
X177208747Y-110341529D02*
X177161128Y-110151053D01*
X177161128Y-110151053D02*
X177161128Y-109817720D01*
X177161128Y-109817720D02*
X177208747Y-109627244D01*
X177208747Y-109627244D02*
X177303985Y-109532006D01*
X177303985Y-109532006D02*
X177399223Y-109484387D01*
X178256366Y-110484387D02*
X178256366Y-109484387D01*
X178256366Y-109484387D02*
X178589699Y-110198672D01*
X178589699Y-110198672D02*
X178923032Y-109484387D01*
X178923032Y-109484387D02*
X178923032Y-110484387D01*
X179161128Y-110579625D02*
X179923032Y-110579625D01*
X180113509Y-110198672D02*
X180589699Y-110198672D01*
X180018271Y-110484387D02*
X180351604Y-109484387D01*
X180351604Y-109484387D02*
X180684937Y-110484387D01*
X181542080Y-110484387D02*
X180970652Y-110484387D01*
X181256366Y-110484387D02*
X181256366Y-109484387D01*
X181256366Y-109484387D02*
X181161128Y-109627244D01*
X181161128Y-109627244D02*
X181065890Y-109722482D01*
X181065890Y-109722482D02*
X180970652Y-109770101D01*
X173628207Y-115439819D02*
X173294874Y-114963628D01*
X173056779Y-115439819D02*
X173056779Y-114439819D01*
X173056779Y-114439819D02*
X173437731Y-114439819D01*
X173437731Y-114439819D02*
X173532969Y-114487438D01*
X173532969Y-114487438D02*
X173580588Y-114535057D01*
X173580588Y-114535057D02*
X173628207Y-114630295D01*
X173628207Y-114630295D02*
X173628207Y-114773152D01*
X173628207Y-114773152D02*
X173580588Y-114868390D01*
X173580588Y-114868390D02*
X173532969Y-114916009D01*
X173532969Y-114916009D02*
X173437731Y-114963628D01*
X173437731Y-114963628D02*
X173056779Y-114963628D01*
X174009160Y-115154104D02*
X174485350Y-115154104D01*
X173913922Y-115439819D02*
X174247255Y-114439819D01*
X174247255Y-114439819D02*
X174580588Y-115439819D01*
X174913922Y-115439819D02*
X174913922Y-114439819D01*
X175866302Y-115439819D02*
X175390112Y-115439819D01*
X175390112Y-115439819D02*
X175390112Y-114439819D01*
X176771064Y-115344580D02*
X176723445Y-115392200D01*
X176723445Y-115392200D02*
X176580588Y-115439819D01*
X176580588Y-115439819D02*
X176485350Y-115439819D01*
X176485350Y-115439819D02*
X176342493Y-115392200D01*
X176342493Y-115392200D02*
X176247255Y-115296961D01*
X176247255Y-115296961D02*
X176199636Y-115201723D01*
X176199636Y-115201723D02*
X176152017Y-115011247D01*
X176152017Y-115011247D02*
X176152017Y-114868390D01*
X176152017Y-114868390D02*
X176199636Y-114677914D01*
X176199636Y-114677914D02*
X176247255Y-114582676D01*
X176247255Y-114582676D02*
X176342493Y-114487438D01*
X176342493Y-114487438D02*
X176485350Y-114439819D01*
X176485350Y-114439819D02*
X176580588Y-114439819D01*
X176580588Y-114439819D02*
X176723445Y-114487438D01*
X176723445Y-114487438D02*
X176771064Y-114535057D01*
X177390112Y-114439819D02*
X177580588Y-114439819D01*
X177580588Y-114439819D02*
X177675826Y-114487438D01*
X177675826Y-114487438D02*
X177771064Y-114582676D01*
X177771064Y-114582676D02*
X177818683Y-114773152D01*
X177818683Y-114773152D02*
X177818683Y-115106485D01*
X177818683Y-115106485D02*
X177771064Y-115296961D01*
X177771064Y-115296961D02*
X177675826Y-115392200D01*
X177675826Y-115392200D02*
X177580588Y-115439819D01*
X177580588Y-115439819D02*
X177390112Y-115439819D01*
X177390112Y-115439819D02*
X177294874Y-115392200D01*
X177294874Y-115392200D02*
X177199636Y-115296961D01*
X177199636Y-115296961D02*
X177152017Y-115106485D01*
X177152017Y-115106485D02*
X177152017Y-114773152D01*
X177152017Y-114773152D02*
X177199636Y-114582676D01*
X177199636Y-114582676D02*
X177294874Y-114487438D01*
X177294874Y-114487438D02*
X177390112Y-114439819D01*
X178247255Y-115439819D02*
X178247255Y-114439819D01*
X178247255Y-114439819D02*
X178580588Y-115154104D01*
X178580588Y-115154104D02*
X178913921Y-114439819D01*
X178913921Y-114439819D02*
X178913921Y-115439819D01*
X179152017Y-115535057D02*
X179913921Y-115535057D01*
X180104398Y-115154104D02*
X180580588Y-115154104D01*
X180009160Y-115439819D02*
X180342493Y-114439819D01*
X180342493Y-114439819D02*
X180675826Y-115439819D01*
X181199636Y-114439819D02*
X181294874Y-114439819D01*
X181294874Y-114439819D02*
X181390112Y-114487438D01*
X181390112Y-114487438D02*
X181437731Y-114535057D01*
X181437731Y-114535057D02*
X181485350Y-114630295D01*
X181485350Y-114630295D02*
X181532969Y-114820771D01*
X181532969Y-114820771D02*
X181532969Y-115058866D01*
X181532969Y-115058866D02*
X181485350Y-115249342D01*
X181485350Y-115249342D02*
X181437731Y-115344580D01*
X181437731Y-115344580D02*
X181390112Y-115392200D01*
X181390112Y-115392200D02*
X181294874Y-115439819D01*
X181294874Y-115439819D02*
X181199636Y-115439819D01*
X181199636Y-115439819D02*
X181104398Y-115392200D01*
X181104398Y-115392200D02*
X181056779Y-115344580D01*
X181056779Y-115344580D02*
X181009160Y-115249342D01*
X181009160Y-115249342D02*
X180961541Y-115058866D01*
X180961541Y-115058866D02*
X180961541Y-114820771D01*
X180961541Y-114820771D02*
X181009160Y-114630295D01*
X181009160Y-114630295D02*
X181056779Y-114535057D01*
X181056779Y-114535057D02*
X181104398Y-114487438D01*
X181104398Y-114487438D02*
X181199636Y-114439819D01*
D11*
X168727185Y-92595379D02*
G75*
G02*
X168352185Y-92595379I-187500J0D01*
G01*
X168352185Y-92595379D02*
G75*
G02*
X168727185Y-92595379I187500J0D01*
G01*
X162531294Y-113836473D02*
G75*
G02*
X162156294Y-113836473I-187500J0D01*
G01*
X162156294Y-113836473D02*
G75*
G02*
X162531294Y-113836473I187500J0D01*
G01*
D10*
X143711054Y-109265342D02*
X143377721Y-108789151D01*
X143139626Y-109265342D02*
X143139626Y-108265342D01*
X143139626Y-108265342D02*
X143520578Y-108265342D01*
X143520578Y-108265342D02*
X143615816Y-108312961D01*
X143615816Y-108312961D02*
X143663435Y-108360580D01*
X143663435Y-108360580D02*
X143711054Y-108455818D01*
X143711054Y-108455818D02*
X143711054Y-108598675D01*
X143711054Y-108598675D02*
X143663435Y-108693913D01*
X143663435Y-108693913D02*
X143615816Y-108741532D01*
X143615816Y-108741532D02*
X143520578Y-108789151D01*
X143520578Y-108789151D02*
X143139626Y-108789151D01*
X144663435Y-109265342D02*
X144092007Y-109265342D01*
X144377721Y-109265342D02*
X144377721Y-108265342D01*
X144377721Y-108265342D02*
X144282483Y-108408199D01*
X144282483Y-108408199D02*
X144187245Y-108503437D01*
X144187245Y-108503437D02*
X144092007Y-108551056D01*
X145282483Y-108265342D02*
X145377721Y-108265342D01*
X145377721Y-108265342D02*
X145472959Y-108312961D01*
X145472959Y-108312961D02*
X145520578Y-108360580D01*
X145520578Y-108360580D02*
X145568197Y-108455818D01*
X145568197Y-108455818D02*
X145615816Y-108646294D01*
X145615816Y-108646294D02*
X145615816Y-108884389D01*
X145615816Y-108884389D02*
X145568197Y-109074865D01*
X145568197Y-109074865D02*
X145520578Y-109170103D01*
X145520578Y-109170103D02*
X145472959Y-109217723D01*
X145472959Y-109217723D02*
X145377721Y-109265342D01*
X145377721Y-109265342D02*
X145282483Y-109265342D01*
X145282483Y-109265342D02*
X145187245Y-109217723D01*
X145187245Y-109217723D02*
X145139626Y-109170103D01*
X145139626Y-109170103D02*
X145092007Y-109074865D01*
X145092007Y-109074865D02*
X145044388Y-108884389D01*
X145044388Y-108884389D02*
X145044388Y-108646294D01*
X145044388Y-108646294D02*
X145092007Y-108455818D01*
X145092007Y-108455818D02*
X145139626Y-108360580D01*
X145139626Y-108360580D02*
X145187245Y-108312961D01*
X145187245Y-108312961D02*
X145282483Y-108265342D01*
X146568197Y-109265342D02*
X145996769Y-109265342D01*
X146282483Y-109265342D02*
X146282483Y-108265342D01*
X146282483Y-108265342D02*
X146187245Y-108408199D01*
X146187245Y-108408199D02*
X146092007Y-108503437D01*
X146092007Y-108503437D02*
X145996769Y-108551056D01*
X165885952Y-105484819D02*
X165552619Y-105008628D01*
X165314524Y-105484819D02*
X165314524Y-104484819D01*
X165314524Y-104484819D02*
X165695476Y-104484819D01*
X165695476Y-104484819D02*
X165790714Y-104532438D01*
X165790714Y-104532438D02*
X165838333Y-104580057D01*
X165838333Y-104580057D02*
X165885952Y-104675295D01*
X165885952Y-104675295D02*
X165885952Y-104818152D01*
X165885952Y-104818152D02*
X165838333Y-104913390D01*
X165838333Y-104913390D02*
X165790714Y-104961009D01*
X165790714Y-104961009D02*
X165695476Y-105008628D01*
X165695476Y-105008628D02*
X165314524Y-105008628D01*
X166790714Y-104484819D02*
X166314524Y-104484819D01*
X166314524Y-104484819D02*
X166266905Y-104961009D01*
X166266905Y-104961009D02*
X166314524Y-104913390D01*
X166314524Y-104913390D02*
X166409762Y-104865771D01*
X166409762Y-104865771D02*
X166647857Y-104865771D01*
X166647857Y-104865771D02*
X166743095Y-104913390D01*
X166743095Y-104913390D02*
X166790714Y-104961009D01*
X166790714Y-104961009D02*
X166838333Y-105056247D01*
X166838333Y-105056247D02*
X166838333Y-105294342D01*
X166838333Y-105294342D02*
X166790714Y-105389580D01*
X166790714Y-105389580D02*
X166743095Y-105437200D01*
X166743095Y-105437200D02*
X166647857Y-105484819D01*
X166647857Y-105484819D02*
X166409762Y-105484819D01*
X166409762Y-105484819D02*
X166314524Y-105437200D01*
X166314524Y-105437200D02*
X166266905Y-105389580D01*
X167457381Y-104484819D02*
X167552619Y-104484819D01*
X167552619Y-104484819D02*
X167647857Y-104532438D01*
X167647857Y-104532438D02*
X167695476Y-104580057D01*
X167695476Y-104580057D02*
X167743095Y-104675295D01*
X167743095Y-104675295D02*
X167790714Y-104865771D01*
X167790714Y-104865771D02*
X167790714Y-105103866D01*
X167790714Y-105103866D02*
X167743095Y-105294342D01*
X167743095Y-105294342D02*
X167695476Y-105389580D01*
X167695476Y-105389580D02*
X167647857Y-105437200D01*
X167647857Y-105437200D02*
X167552619Y-105484819D01*
X167552619Y-105484819D02*
X167457381Y-105484819D01*
X167457381Y-105484819D02*
X167362143Y-105437200D01*
X167362143Y-105437200D02*
X167314524Y-105389580D01*
X167314524Y-105389580D02*
X167266905Y-105294342D01*
X167266905Y-105294342D02*
X167219286Y-105103866D01*
X167219286Y-105103866D02*
X167219286Y-104865771D01*
X167219286Y-104865771D02*
X167266905Y-104675295D01*
X167266905Y-104675295D02*
X167314524Y-104580057D01*
X167314524Y-104580057D02*
X167362143Y-104532438D01*
X167362143Y-104532438D02*
X167457381Y-104484819D01*
X168124048Y-104484819D02*
X168743095Y-104484819D01*
X168743095Y-104484819D02*
X168409762Y-104865771D01*
X168409762Y-104865771D02*
X168552619Y-104865771D01*
X168552619Y-104865771D02*
X168647857Y-104913390D01*
X168647857Y-104913390D02*
X168695476Y-104961009D01*
X168695476Y-104961009D02*
X168743095Y-105056247D01*
X168743095Y-105056247D02*
X168743095Y-105294342D01*
X168743095Y-105294342D02*
X168695476Y-105389580D01*
X168695476Y-105389580D02*
X168647857Y-105437200D01*
X168647857Y-105437200D02*
X168552619Y-105484819D01*
X168552619Y-105484819D02*
X168266905Y-105484819D01*
X168266905Y-105484819D02*
X168171667Y-105437200D01*
X168171667Y-105437200D02*
X168124048Y-105389580D01*
X153743497Y-104930275D02*
X153267306Y-105263608D01*
X153743497Y-105501703D02*
X152743497Y-105501703D01*
X152743497Y-105501703D02*
X152743497Y-105120751D01*
X152743497Y-105120751D02*
X152791116Y-105025513D01*
X152791116Y-105025513D02*
X152838735Y-104977894D01*
X152838735Y-104977894D02*
X152933973Y-104930275D01*
X152933973Y-104930275D02*
X153076830Y-104930275D01*
X153076830Y-104930275D02*
X153172068Y-104977894D01*
X153172068Y-104977894D02*
X153219687Y-105025513D01*
X153219687Y-105025513D02*
X153267306Y-105120751D01*
X153267306Y-105120751D02*
X153267306Y-105501703D01*
X152743497Y-104025513D02*
X152743497Y-104501703D01*
X152743497Y-104501703D02*
X153219687Y-104549322D01*
X153219687Y-104549322D02*
X153172068Y-104501703D01*
X153172068Y-104501703D02*
X153124449Y-104406465D01*
X153124449Y-104406465D02*
X153124449Y-104168370D01*
X153124449Y-104168370D02*
X153172068Y-104073132D01*
X153172068Y-104073132D02*
X153219687Y-104025513D01*
X153219687Y-104025513D02*
X153314925Y-103977894D01*
X153314925Y-103977894D02*
X153553020Y-103977894D01*
X153553020Y-103977894D02*
X153648258Y-104025513D01*
X153648258Y-104025513D02*
X153695878Y-104073132D01*
X153695878Y-104073132D02*
X153743497Y-104168370D01*
X153743497Y-104168370D02*
X153743497Y-104406465D01*
X153743497Y-104406465D02*
X153695878Y-104501703D01*
X153695878Y-104501703D02*
X153648258Y-104549322D01*
X152743497Y-103358846D02*
X152743497Y-103263608D01*
X152743497Y-103263608D02*
X152791116Y-103168370D01*
X152791116Y-103168370D02*
X152838735Y-103120751D01*
X152838735Y-103120751D02*
X152933973Y-103073132D01*
X152933973Y-103073132D02*
X153124449Y-103025513D01*
X153124449Y-103025513D02*
X153362544Y-103025513D01*
X153362544Y-103025513D02*
X153553020Y-103073132D01*
X153553020Y-103073132D02*
X153648258Y-103120751D01*
X153648258Y-103120751D02*
X153695878Y-103168370D01*
X153695878Y-103168370D02*
X153743497Y-103263608D01*
X153743497Y-103263608D02*
X153743497Y-103358846D01*
X153743497Y-103358846D02*
X153695878Y-103454084D01*
X153695878Y-103454084D02*
X153648258Y-103501703D01*
X153648258Y-103501703D02*
X153553020Y-103549322D01*
X153553020Y-103549322D02*
X153362544Y-103596941D01*
X153362544Y-103596941D02*
X153124449Y-103596941D01*
X153124449Y-103596941D02*
X152933973Y-103549322D01*
X152933973Y-103549322D02*
X152838735Y-103501703D01*
X152838735Y-103501703D02*
X152791116Y-103454084D01*
X152791116Y-103454084D02*
X152743497Y-103358846D01*
X152838735Y-102644560D02*
X152791116Y-102596941D01*
X152791116Y-102596941D02*
X152743497Y-102501703D01*
X152743497Y-102501703D02*
X152743497Y-102263608D01*
X152743497Y-102263608D02*
X152791116Y-102168370D01*
X152791116Y-102168370D02*
X152838735Y-102120751D01*
X152838735Y-102120751D02*
X152933973Y-102073132D01*
X152933973Y-102073132D02*
X153029211Y-102073132D01*
X153029211Y-102073132D02*
X153172068Y-102120751D01*
X153172068Y-102120751D02*
X153743497Y-102692179D01*
X153743497Y-102692179D02*
X153743497Y-102073132D01*
X159535952Y-96339819D02*
X159202619Y-95863628D01*
X158964524Y-96339819D02*
X158964524Y-95339819D01*
X158964524Y-95339819D02*
X159345476Y-95339819D01*
X159345476Y-95339819D02*
X159440714Y-95387438D01*
X159440714Y-95387438D02*
X159488333Y-95435057D01*
X159488333Y-95435057D02*
X159535952Y-95530295D01*
X159535952Y-95530295D02*
X159535952Y-95673152D01*
X159535952Y-95673152D02*
X159488333Y-95768390D01*
X159488333Y-95768390D02*
X159440714Y-95816009D01*
X159440714Y-95816009D02*
X159345476Y-95863628D01*
X159345476Y-95863628D02*
X158964524Y-95863628D01*
X160393095Y-95673152D02*
X160393095Y-96339819D01*
X160155000Y-95292200D02*
X159916905Y-96006485D01*
X159916905Y-96006485D02*
X160535952Y-96006485D01*
X161107381Y-95339819D02*
X161202619Y-95339819D01*
X161202619Y-95339819D02*
X161297857Y-95387438D01*
X161297857Y-95387438D02*
X161345476Y-95435057D01*
X161345476Y-95435057D02*
X161393095Y-95530295D01*
X161393095Y-95530295D02*
X161440714Y-95720771D01*
X161440714Y-95720771D02*
X161440714Y-95958866D01*
X161440714Y-95958866D02*
X161393095Y-96149342D01*
X161393095Y-96149342D02*
X161345476Y-96244580D01*
X161345476Y-96244580D02*
X161297857Y-96292200D01*
X161297857Y-96292200D02*
X161202619Y-96339819D01*
X161202619Y-96339819D02*
X161107381Y-96339819D01*
X161107381Y-96339819D02*
X161012143Y-96292200D01*
X161012143Y-96292200D02*
X160964524Y-96244580D01*
X160964524Y-96244580D02*
X160916905Y-96149342D01*
X160916905Y-96149342D02*
X160869286Y-95958866D01*
X160869286Y-95958866D02*
X160869286Y-95720771D01*
X160869286Y-95720771D02*
X160916905Y-95530295D01*
X160916905Y-95530295D02*
X160964524Y-95435057D01*
X160964524Y-95435057D02*
X161012143Y-95387438D01*
X161012143Y-95387438D02*
X161107381Y-95339819D01*
X162393095Y-96339819D02*
X161821667Y-96339819D01*
X162107381Y-96339819D02*
X162107381Y-95339819D01*
X162107381Y-95339819D02*
X162012143Y-95482676D01*
X162012143Y-95482676D02*
X161916905Y-95577914D01*
X161916905Y-95577914D02*
X161821667Y-95625533D01*
X155725952Y-93164819D02*
X155392619Y-92688628D01*
X155154524Y-93164819D02*
X155154524Y-92164819D01*
X155154524Y-92164819D02*
X155535476Y-92164819D01*
X155535476Y-92164819D02*
X155630714Y-92212438D01*
X155630714Y-92212438D02*
X155678333Y-92260057D01*
X155678333Y-92260057D02*
X155725952Y-92355295D01*
X155725952Y-92355295D02*
X155725952Y-92498152D01*
X155725952Y-92498152D02*
X155678333Y-92593390D01*
X155678333Y-92593390D02*
X155630714Y-92641009D01*
X155630714Y-92641009D02*
X155535476Y-92688628D01*
X155535476Y-92688628D02*
X155154524Y-92688628D01*
X156583095Y-92498152D02*
X156583095Y-93164819D01*
X156345000Y-92117200D02*
X156106905Y-92831485D01*
X156106905Y-92831485D02*
X156725952Y-92831485D01*
X157297381Y-92164819D02*
X157392619Y-92164819D01*
X157392619Y-92164819D02*
X157487857Y-92212438D01*
X157487857Y-92212438D02*
X157535476Y-92260057D01*
X157535476Y-92260057D02*
X157583095Y-92355295D01*
X157583095Y-92355295D02*
X157630714Y-92545771D01*
X157630714Y-92545771D02*
X157630714Y-92783866D01*
X157630714Y-92783866D02*
X157583095Y-92974342D01*
X157583095Y-92974342D02*
X157535476Y-93069580D01*
X157535476Y-93069580D02*
X157487857Y-93117200D01*
X157487857Y-93117200D02*
X157392619Y-93164819D01*
X157392619Y-93164819D02*
X157297381Y-93164819D01*
X157297381Y-93164819D02*
X157202143Y-93117200D01*
X157202143Y-93117200D02*
X157154524Y-93069580D01*
X157154524Y-93069580D02*
X157106905Y-92974342D01*
X157106905Y-92974342D02*
X157059286Y-92783866D01*
X157059286Y-92783866D02*
X157059286Y-92545771D01*
X157059286Y-92545771D02*
X157106905Y-92355295D01*
X157106905Y-92355295D02*
X157154524Y-92260057D01*
X157154524Y-92260057D02*
X157202143Y-92212438D01*
X157202143Y-92212438D02*
X157297381Y-92164819D01*
X157964048Y-92164819D02*
X158583095Y-92164819D01*
X158583095Y-92164819D02*
X158249762Y-92545771D01*
X158249762Y-92545771D02*
X158392619Y-92545771D01*
X158392619Y-92545771D02*
X158487857Y-92593390D01*
X158487857Y-92593390D02*
X158535476Y-92641009D01*
X158535476Y-92641009D02*
X158583095Y-92736247D01*
X158583095Y-92736247D02*
X158583095Y-92974342D01*
X158583095Y-92974342D02*
X158535476Y-93069580D01*
X158535476Y-93069580D02*
X158487857Y-93117200D01*
X158487857Y-93117200D02*
X158392619Y-93164819D01*
X158392619Y-93164819D02*
X158106905Y-93164819D01*
X158106905Y-93164819D02*
X158011667Y-93117200D01*
X158011667Y-93117200D02*
X157964048Y-93069580D01*
X143660952Y-116024819D02*
X143327619Y-115548628D01*
X143089524Y-116024819D02*
X143089524Y-115024819D01*
X143089524Y-115024819D02*
X143470476Y-115024819D01*
X143470476Y-115024819D02*
X143565714Y-115072438D01*
X143565714Y-115072438D02*
X143613333Y-115120057D01*
X143613333Y-115120057D02*
X143660952Y-115215295D01*
X143660952Y-115215295D02*
X143660952Y-115358152D01*
X143660952Y-115358152D02*
X143613333Y-115453390D01*
X143613333Y-115453390D02*
X143565714Y-115501009D01*
X143565714Y-115501009D02*
X143470476Y-115548628D01*
X143470476Y-115548628D02*
X143089524Y-115548628D01*
X144613333Y-116024819D02*
X144041905Y-116024819D01*
X144327619Y-116024819D02*
X144327619Y-115024819D01*
X144327619Y-115024819D02*
X144232381Y-115167676D01*
X144232381Y-115167676D02*
X144137143Y-115262914D01*
X144137143Y-115262914D02*
X144041905Y-115310533D01*
X145232381Y-115024819D02*
X145327619Y-115024819D01*
X145327619Y-115024819D02*
X145422857Y-115072438D01*
X145422857Y-115072438D02*
X145470476Y-115120057D01*
X145470476Y-115120057D02*
X145518095Y-115215295D01*
X145518095Y-115215295D02*
X145565714Y-115405771D01*
X145565714Y-115405771D02*
X145565714Y-115643866D01*
X145565714Y-115643866D02*
X145518095Y-115834342D01*
X145518095Y-115834342D02*
X145470476Y-115929580D01*
X145470476Y-115929580D02*
X145422857Y-115977200D01*
X145422857Y-115977200D02*
X145327619Y-116024819D01*
X145327619Y-116024819D02*
X145232381Y-116024819D01*
X145232381Y-116024819D02*
X145137143Y-115977200D01*
X145137143Y-115977200D02*
X145089524Y-115929580D01*
X145089524Y-115929580D02*
X145041905Y-115834342D01*
X145041905Y-115834342D02*
X144994286Y-115643866D01*
X144994286Y-115643866D02*
X144994286Y-115405771D01*
X144994286Y-115405771D02*
X145041905Y-115215295D01*
X145041905Y-115215295D02*
X145089524Y-115120057D01*
X145089524Y-115120057D02*
X145137143Y-115072438D01*
X145137143Y-115072438D02*
X145232381Y-115024819D01*
X145946667Y-115120057D02*
X145994286Y-115072438D01*
X145994286Y-115072438D02*
X146089524Y-115024819D01*
X146089524Y-115024819D02*
X146327619Y-115024819D01*
X146327619Y-115024819D02*
X146422857Y-115072438D01*
X146422857Y-115072438D02*
X146470476Y-115120057D01*
X146470476Y-115120057D02*
X146518095Y-115215295D01*
X146518095Y-115215295D02*
X146518095Y-115310533D01*
X146518095Y-115310533D02*
X146470476Y-115453390D01*
X146470476Y-115453390D02*
X145899048Y-116024819D01*
X145899048Y-116024819D02*
X146518095Y-116024819D01*
X142909574Y-94613837D02*
X141909574Y-94613837D01*
X141909574Y-94613837D02*
X141909574Y-94375742D01*
X141909574Y-94375742D02*
X141957193Y-94232885D01*
X141957193Y-94232885D02*
X142052431Y-94137647D01*
X142052431Y-94137647D02*
X142147669Y-94090028D01*
X142147669Y-94090028D02*
X142338145Y-94042409D01*
X142338145Y-94042409D02*
X142481002Y-94042409D01*
X142481002Y-94042409D02*
X142671478Y-94090028D01*
X142671478Y-94090028D02*
X142766716Y-94137647D01*
X142766716Y-94137647D02*
X142861955Y-94232885D01*
X142861955Y-94232885D02*
X142909574Y-94375742D01*
X142909574Y-94375742D02*
X142909574Y-94613837D01*
X142909574Y-93090028D02*
X142909574Y-93661456D01*
X142909574Y-93375742D02*
X141909574Y-93375742D01*
X141909574Y-93375742D02*
X142052431Y-93470980D01*
X142052431Y-93470980D02*
X142147669Y-93566218D01*
X142147669Y-93566218D02*
X142195288Y-93661456D01*
X141909574Y-92470980D02*
X141909574Y-92375742D01*
X141909574Y-92375742D02*
X141957193Y-92280504D01*
X141957193Y-92280504D02*
X142004812Y-92232885D01*
X142004812Y-92232885D02*
X142100050Y-92185266D01*
X142100050Y-92185266D02*
X142290526Y-92137647D01*
X142290526Y-92137647D02*
X142528621Y-92137647D01*
X142528621Y-92137647D02*
X142719097Y-92185266D01*
X142719097Y-92185266D02*
X142814335Y-92232885D01*
X142814335Y-92232885D02*
X142861955Y-92280504D01*
X142861955Y-92280504D02*
X142909574Y-92375742D01*
X142909574Y-92375742D02*
X142909574Y-92470980D01*
X142909574Y-92470980D02*
X142861955Y-92566218D01*
X142861955Y-92566218D02*
X142814335Y-92613837D01*
X142814335Y-92613837D02*
X142719097Y-92661456D01*
X142719097Y-92661456D02*
X142528621Y-92709075D01*
X142528621Y-92709075D02*
X142290526Y-92709075D01*
X142290526Y-92709075D02*
X142100050Y-92661456D01*
X142100050Y-92661456D02*
X142004812Y-92613837D01*
X142004812Y-92613837D02*
X141957193Y-92566218D01*
X141957193Y-92566218D02*
X141909574Y-92470980D01*
X142242907Y-91280504D02*
X142909574Y-91280504D01*
X141861955Y-91518599D02*
X142576240Y-91756694D01*
X142576240Y-91756694D02*
X142576240Y-91137647D01*
X165345952Y-116659819D02*
X165012619Y-116183628D01*
X164774524Y-116659819D02*
X164774524Y-115659819D01*
X164774524Y-115659819D02*
X165155476Y-115659819D01*
X165155476Y-115659819D02*
X165250714Y-115707438D01*
X165250714Y-115707438D02*
X165298333Y-115755057D01*
X165298333Y-115755057D02*
X165345952Y-115850295D01*
X165345952Y-115850295D02*
X165345952Y-115993152D01*
X165345952Y-115993152D02*
X165298333Y-116088390D01*
X165298333Y-116088390D02*
X165250714Y-116136009D01*
X165250714Y-116136009D02*
X165155476Y-116183628D01*
X165155476Y-116183628D02*
X164774524Y-116183628D01*
X166250714Y-115659819D02*
X165774524Y-115659819D01*
X165774524Y-115659819D02*
X165726905Y-116136009D01*
X165726905Y-116136009D02*
X165774524Y-116088390D01*
X165774524Y-116088390D02*
X165869762Y-116040771D01*
X165869762Y-116040771D02*
X166107857Y-116040771D01*
X166107857Y-116040771D02*
X166203095Y-116088390D01*
X166203095Y-116088390D02*
X166250714Y-116136009D01*
X166250714Y-116136009D02*
X166298333Y-116231247D01*
X166298333Y-116231247D02*
X166298333Y-116469342D01*
X166298333Y-116469342D02*
X166250714Y-116564580D01*
X166250714Y-116564580D02*
X166203095Y-116612200D01*
X166203095Y-116612200D02*
X166107857Y-116659819D01*
X166107857Y-116659819D02*
X165869762Y-116659819D01*
X165869762Y-116659819D02*
X165774524Y-116612200D01*
X165774524Y-116612200D02*
X165726905Y-116564580D01*
X166917381Y-115659819D02*
X167012619Y-115659819D01*
X167012619Y-115659819D02*
X167107857Y-115707438D01*
X167107857Y-115707438D02*
X167155476Y-115755057D01*
X167155476Y-115755057D02*
X167203095Y-115850295D01*
X167203095Y-115850295D02*
X167250714Y-116040771D01*
X167250714Y-116040771D02*
X167250714Y-116278866D01*
X167250714Y-116278866D02*
X167203095Y-116469342D01*
X167203095Y-116469342D02*
X167155476Y-116564580D01*
X167155476Y-116564580D02*
X167107857Y-116612200D01*
X167107857Y-116612200D02*
X167012619Y-116659819D01*
X167012619Y-116659819D02*
X166917381Y-116659819D01*
X166917381Y-116659819D02*
X166822143Y-116612200D01*
X166822143Y-116612200D02*
X166774524Y-116564580D01*
X166774524Y-116564580D02*
X166726905Y-116469342D01*
X166726905Y-116469342D02*
X166679286Y-116278866D01*
X166679286Y-116278866D02*
X166679286Y-116040771D01*
X166679286Y-116040771D02*
X166726905Y-115850295D01*
X166726905Y-115850295D02*
X166774524Y-115755057D01*
X166774524Y-115755057D02*
X166822143Y-115707438D01*
X166822143Y-115707438D02*
X166917381Y-115659819D01*
X168107857Y-115659819D02*
X167917381Y-115659819D01*
X167917381Y-115659819D02*
X167822143Y-115707438D01*
X167822143Y-115707438D02*
X167774524Y-115755057D01*
X167774524Y-115755057D02*
X167679286Y-115897914D01*
X167679286Y-115897914D02*
X167631667Y-116088390D01*
X167631667Y-116088390D02*
X167631667Y-116469342D01*
X167631667Y-116469342D02*
X167679286Y-116564580D01*
X167679286Y-116564580D02*
X167726905Y-116612200D01*
X167726905Y-116612200D02*
X167822143Y-116659819D01*
X167822143Y-116659819D02*
X168012619Y-116659819D01*
X168012619Y-116659819D02*
X168107857Y-116612200D01*
X168107857Y-116612200D02*
X168155476Y-116564580D01*
X168155476Y-116564580D02*
X168203095Y-116469342D01*
X168203095Y-116469342D02*
X168203095Y-116231247D01*
X168203095Y-116231247D02*
X168155476Y-116136009D01*
X168155476Y-116136009D02*
X168107857Y-116088390D01*
X168107857Y-116088390D02*
X168012619Y-116040771D01*
X168012619Y-116040771D02*
X167822143Y-116040771D01*
X167822143Y-116040771D02*
X167726905Y-116088390D01*
X167726905Y-116088390D02*
X167679286Y-116136009D01*
X167679286Y-116136009D02*
X167631667Y-116231247D01*
X142454524Y-110564819D02*
X142454524Y-109564819D01*
X142454524Y-109564819D02*
X142692619Y-109564819D01*
X142692619Y-109564819D02*
X142835476Y-109612438D01*
X142835476Y-109612438D02*
X142930714Y-109707676D01*
X142930714Y-109707676D02*
X142978333Y-109802914D01*
X142978333Y-109802914D02*
X143025952Y-109993390D01*
X143025952Y-109993390D02*
X143025952Y-110136247D01*
X143025952Y-110136247D02*
X142978333Y-110326723D01*
X142978333Y-110326723D02*
X142930714Y-110421961D01*
X142930714Y-110421961D02*
X142835476Y-110517200D01*
X142835476Y-110517200D02*
X142692619Y-110564819D01*
X142692619Y-110564819D02*
X142454524Y-110564819D01*
X143978333Y-110564819D02*
X143406905Y-110564819D01*
X143692619Y-110564819D02*
X143692619Y-109564819D01*
X143692619Y-109564819D02*
X143597381Y-109707676D01*
X143597381Y-109707676D02*
X143502143Y-109802914D01*
X143502143Y-109802914D02*
X143406905Y-109850533D01*
X144597381Y-109564819D02*
X144692619Y-109564819D01*
X144692619Y-109564819D02*
X144787857Y-109612438D01*
X144787857Y-109612438D02*
X144835476Y-109660057D01*
X144835476Y-109660057D02*
X144883095Y-109755295D01*
X144883095Y-109755295D02*
X144930714Y-109945771D01*
X144930714Y-109945771D02*
X144930714Y-110183866D01*
X144930714Y-110183866D02*
X144883095Y-110374342D01*
X144883095Y-110374342D02*
X144835476Y-110469580D01*
X144835476Y-110469580D02*
X144787857Y-110517200D01*
X144787857Y-110517200D02*
X144692619Y-110564819D01*
X144692619Y-110564819D02*
X144597381Y-110564819D01*
X144597381Y-110564819D02*
X144502143Y-110517200D01*
X144502143Y-110517200D02*
X144454524Y-110469580D01*
X144454524Y-110469580D02*
X144406905Y-110374342D01*
X144406905Y-110374342D02*
X144359286Y-110183866D01*
X144359286Y-110183866D02*
X144359286Y-109945771D01*
X144359286Y-109945771D02*
X144406905Y-109755295D01*
X144406905Y-109755295D02*
X144454524Y-109660057D01*
X144454524Y-109660057D02*
X144502143Y-109612438D01*
X144502143Y-109612438D02*
X144597381Y-109564819D01*
X145311667Y-109660057D02*
X145359286Y-109612438D01*
X145359286Y-109612438D02*
X145454524Y-109564819D01*
X145454524Y-109564819D02*
X145692619Y-109564819D01*
X145692619Y-109564819D02*
X145787857Y-109612438D01*
X145787857Y-109612438D02*
X145835476Y-109660057D01*
X145835476Y-109660057D02*
X145883095Y-109755295D01*
X145883095Y-109755295D02*
X145883095Y-109850533D01*
X145883095Y-109850533D02*
X145835476Y-109993390D01*
X145835476Y-109993390D02*
X145264048Y-110564819D01*
X145264048Y-110564819D02*
X145883095Y-110564819D01*
X148177380Y-81830057D02*
X148082142Y-81782438D01*
X148082142Y-81782438D02*
X147986904Y-81687200D01*
X147986904Y-81687200D02*
X147844047Y-81544342D01*
X147844047Y-81544342D02*
X147748809Y-81496723D01*
X147748809Y-81496723D02*
X147653571Y-81496723D01*
X147701190Y-81734819D02*
X147605952Y-81687200D01*
X147605952Y-81687200D02*
X147510714Y-81591961D01*
X147510714Y-81591961D02*
X147463095Y-81401485D01*
X147463095Y-81401485D02*
X147463095Y-81068152D01*
X147463095Y-81068152D02*
X147510714Y-80877676D01*
X147510714Y-80877676D02*
X147605952Y-80782438D01*
X147605952Y-80782438D02*
X147701190Y-80734819D01*
X147701190Y-80734819D02*
X147891666Y-80734819D01*
X147891666Y-80734819D02*
X147986904Y-80782438D01*
X147986904Y-80782438D02*
X148082142Y-80877676D01*
X148082142Y-80877676D02*
X148129761Y-81068152D01*
X148129761Y-81068152D02*
X148129761Y-81401485D01*
X148129761Y-81401485D02*
X148082142Y-81591961D01*
X148082142Y-81591961D02*
X147986904Y-81687200D01*
X147986904Y-81687200D02*
X147891666Y-81734819D01*
X147891666Y-81734819D02*
X147701190Y-81734819D01*
X148510714Y-80830057D02*
X148558333Y-80782438D01*
X148558333Y-80782438D02*
X148653571Y-80734819D01*
X148653571Y-80734819D02*
X148891666Y-80734819D01*
X148891666Y-80734819D02*
X148986904Y-80782438D01*
X148986904Y-80782438D02*
X149034523Y-80830057D01*
X149034523Y-80830057D02*
X149082142Y-80925295D01*
X149082142Y-80925295D02*
X149082142Y-81020533D01*
X149082142Y-81020533D02*
X149034523Y-81163390D01*
X149034523Y-81163390D02*
X148463095Y-81734819D01*
X148463095Y-81734819D02*
X149082142Y-81734819D01*
X149701190Y-80734819D02*
X149796428Y-80734819D01*
X149796428Y-80734819D02*
X149891666Y-80782438D01*
X149891666Y-80782438D02*
X149939285Y-80830057D01*
X149939285Y-80830057D02*
X149986904Y-80925295D01*
X149986904Y-80925295D02*
X150034523Y-81115771D01*
X150034523Y-81115771D02*
X150034523Y-81353866D01*
X150034523Y-81353866D02*
X149986904Y-81544342D01*
X149986904Y-81544342D02*
X149939285Y-81639580D01*
X149939285Y-81639580D02*
X149891666Y-81687200D01*
X149891666Y-81687200D02*
X149796428Y-81734819D01*
X149796428Y-81734819D02*
X149701190Y-81734819D01*
X149701190Y-81734819D02*
X149605952Y-81687200D01*
X149605952Y-81687200D02*
X149558333Y-81639580D01*
X149558333Y-81639580D02*
X149510714Y-81544342D01*
X149510714Y-81544342D02*
X149463095Y-81353866D01*
X149463095Y-81353866D02*
X149463095Y-81115771D01*
X149463095Y-81115771D02*
X149510714Y-80925295D01*
X149510714Y-80925295D02*
X149558333Y-80830057D01*
X149558333Y-80830057D02*
X149605952Y-80782438D01*
X149605952Y-80782438D02*
X149701190Y-80734819D01*
X150415476Y-80830057D02*
X150463095Y-80782438D01*
X150463095Y-80782438D02*
X150558333Y-80734819D01*
X150558333Y-80734819D02*
X150796428Y-80734819D01*
X150796428Y-80734819D02*
X150891666Y-80782438D01*
X150891666Y-80782438D02*
X150939285Y-80830057D01*
X150939285Y-80830057D02*
X150986904Y-80925295D01*
X150986904Y-80925295D02*
X150986904Y-81020533D01*
X150986904Y-81020533D02*
X150939285Y-81163390D01*
X150939285Y-81163390D02*
X150367857Y-81734819D01*
X150367857Y-81734819D02*
X150986904Y-81734819D01*
X155139819Y-101385475D02*
X154139819Y-101385475D01*
X154139819Y-101385475D02*
X154139819Y-101147380D01*
X154139819Y-101147380D02*
X154187438Y-101004523D01*
X154187438Y-101004523D02*
X154282676Y-100909285D01*
X154282676Y-100909285D02*
X154377914Y-100861666D01*
X154377914Y-100861666D02*
X154568390Y-100814047D01*
X154568390Y-100814047D02*
X154711247Y-100814047D01*
X154711247Y-100814047D02*
X154901723Y-100861666D01*
X154901723Y-100861666D02*
X154996961Y-100909285D01*
X154996961Y-100909285D02*
X155092200Y-101004523D01*
X155092200Y-101004523D02*
X155139819Y-101147380D01*
X155139819Y-101147380D02*
X155139819Y-101385475D01*
X154139819Y-99909285D02*
X154139819Y-100385475D01*
X154139819Y-100385475D02*
X154616009Y-100433094D01*
X154616009Y-100433094D02*
X154568390Y-100385475D01*
X154568390Y-100385475D02*
X154520771Y-100290237D01*
X154520771Y-100290237D02*
X154520771Y-100052142D01*
X154520771Y-100052142D02*
X154568390Y-99956904D01*
X154568390Y-99956904D02*
X154616009Y-99909285D01*
X154616009Y-99909285D02*
X154711247Y-99861666D01*
X154711247Y-99861666D02*
X154949342Y-99861666D01*
X154949342Y-99861666D02*
X155044580Y-99909285D01*
X155044580Y-99909285D02*
X155092200Y-99956904D01*
X155092200Y-99956904D02*
X155139819Y-100052142D01*
X155139819Y-100052142D02*
X155139819Y-100290237D01*
X155139819Y-100290237D02*
X155092200Y-100385475D01*
X155092200Y-100385475D02*
X155044580Y-100433094D01*
X154139819Y-99242618D02*
X154139819Y-99147380D01*
X154139819Y-99147380D02*
X154187438Y-99052142D01*
X154187438Y-99052142D02*
X154235057Y-99004523D01*
X154235057Y-99004523D02*
X154330295Y-98956904D01*
X154330295Y-98956904D02*
X154520771Y-98909285D01*
X154520771Y-98909285D02*
X154758866Y-98909285D01*
X154758866Y-98909285D02*
X154949342Y-98956904D01*
X154949342Y-98956904D02*
X155044580Y-99004523D01*
X155044580Y-99004523D02*
X155092200Y-99052142D01*
X155092200Y-99052142D02*
X155139819Y-99147380D01*
X155139819Y-99147380D02*
X155139819Y-99242618D01*
X155139819Y-99242618D02*
X155092200Y-99337856D01*
X155092200Y-99337856D02*
X155044580Y-99385475D01*
X155044580Y-99385475D02*
X154949342Y-99433094D01*
X154949342Y-99433094D02*
X154758866Y-99480713D01*
X154758866Y-99480713D02*
X154520771Y-99480713D01*
X154520771Y-99480713D02*
X154330295Y-99433094D01*
X154330295Y-99433094D02*
X154235057Y-99385475D01*
X154235057Y-99385475D02*
X154187438Y-99337856D01*
X154187438Y-99337856D02*
X154139819Y-99242618D01*
X154139819Y-98575951D02*
X154139819Y-97956904D01*
X154139819Y-97956904D02*
X154520771Y-98290237D01*
X154520771Y-98290237D02*
X154520771Y-98147380D01*
X154520771Y-98147380D02*
X154568390Y-98052142D01*
X154568390Y-98052142D02*
X154616009Y-98004523D01*
X154616009Y-98004523D02*
X154711247Y-97956904D01*
X154711247Y-97956904D02*
X154949342Y-97956904D01*
X154949342Y-97956904D02*
X155044580Y-98004523D01*
X155044580Y-98004523D02*
X155092200Y-98052142D01*
X155092200Y-98052142D02*
X155139819Y-98147380D01*
X155139819Y-98147380D02*
X155139819Y-98433094D01*
X155139819Y-98433094D02*
X155092200Y-98528332D01*
X155092200Y-98528332D02*
X155044580Y-98575951D01*
X150114524Y-88759819D02*
X150114524Y-87759819D01*
X150114524Y-87759819D02*
X150352619Y-87759819D01*
X150352619Y-87759819D02*
X150495476Y-87807438D01*
X150495476Y-87807438D02*
X150590714Y-87902676D01*
X150590714Y-87902676D02*
X150638333Y-87997914D01*
X150638333Y-87997914D02*
X150685952Y-88188390D01*
X150685952Y-88188390D02*
X150685952Y-88331247D01*
X150685952Y-88331247D02*
X150638333Y-88521723D01*
X150638333Y-88521723D02*
X150590714Y-88616961D01*
X150590714Y-88616961D02*
X150495476Y-88712200D01*
X150495476Y-88712200D02*
X150352619Y-88759819D01*
X150352619Y-88759819D02*
X150114524Y-88759819D01*
X151543095Y-88093152D02*
X151543095Y-88759819D01*
X151305000Y-87712200D02*
X151066905Y-88426485D01*
X151066905Y-88426485D02*
X151685952Y-88426485D01*
X152257381Y-87759819D02*
X152352619Y-87759819D01*
X152352619Y-87759819D02*
X152447857Y-87807438D01*
X152447857Y-87807438D02*
X152495476Y-87855057D01*
X152495476Y-87855057D02*
X152543095Y-87950295D01*
X152543095Y-87950295D02*
X152590714Y-88140771D01*
X152590714Y-88140771D02*
X152590714Y-88378866D01*
X152590714Y-88378866D02*
X152543095Y-88569342D01*
X152543095Y-88569342D02*
X152495476Y-88664580D01*
X152495476Y-88664580D02*
X152447857Y-88712200D01*
X152447857Y-88712200D02*
X152352619Y-88759819D01*
X152352619Y-88759819D02*
X152257381Y-88759819D01*
X152257381Y-88759819D02*
X152162143Y-88712200D01*
X152162143Y-88712200D02*
X152114524Y-88664580D01*
X152114524Y-88664580D02*
X152066905Y-88569342D01*
X152066905Y-88569342D02*
X152019286Y-88378866D01*
X152019286Y-88378866D02*
X152019286Y-88140771D01*
X152019286Y-88140771D02*
X152066905Y-87950295D01*
X152066905Y-87950295D02*
X152114524Y-87855057D01*
X152114524Y-87855057D02*
X152162143Y-87807438D01*
X152162143Y-87807438D02*
X152257381Y-87759819D01*
X153543095Y-88759819D02*
X152971667Y-88759819D01*
X153257381Y-88759819D02*
X153257381Y-87759819D01*
X153257381Y-87759819D02*
X153162143Y-87902676D01*
X153162143Y-87902676D02*
X153066905Y-87997914D01*
X153066905Y-87997914D02*
X152971667Y-88045533D01*
X153892380Y-75480057D02*
X153797142Y-75432438D01*
X153797142Y-75432438D02*
X153701904Y-75337200D01*
X153701904Y-75337200D02*
X153559047Y-75194342D01*
X153559047Y-75194342D02*
X153463809Y-75146723D01*
X153463809Y-75146723D02*
X153368571Y-75146723D01*
X153416190Y-75384819D02*
X153320952Y-75337200D01*
X153320952Y-75337200D02*
X153225714Y-75241961D01*
X153225714Y-75241961D02*
X153178095Y-75051485D01*
X153178095Y-75051485D02*
X153178095Y-74718152D01*
X153178095Y-74718152D02*
X153225714Y-74527676D01*
X153225714Y-74527676D02*
X153320952Y-74432438D01*
X153320952Y-74432438D02*
X153416190Y-74384819D01*
X153416190Y-74384819D02*
X153606666Y-74384819D01*
X153606666Y-74384819D02*
X153701904Y-74432438D01*
X153701904Y-74432438D02*
X153797142Y-74527676D01*
X153797142Y-74527676D02*
X153844761Y-74718152D01*
X153844761Y-74718152D02*
X153844761Y-75051485D01*
X153844761Y-75051485D02*
X153797142Y-75241961D01*
X153797142Y-75241961D02*
X153701904Y-75337200D01*
X153701904Y-75337200D02*
X153606666Y-75384819D01*
X153606666Y-75384819D02*
X153416190Y-75384819D01*
X154225714Y-74480057D02*
X154273333Y-74432438D01*
X154273333Y-74432438D02*
X154368571Y-74384819D01*
X154368571Y-74384819D02*
X154606666Y-74384819D01*
X154606666Y-74384819D02*
X154701904Y-74432438D01*
X154701904Y-74432438D02*
X154749523Y-74480057D01*
X154749523Y-74480057D02*
X154797142Y-74575295D01*
X154797142Y-74575295D02*
X154797142Y-74670533D01*
X154797142Y-74670533D02*
X154749523Y-74813390D01*
X154749523Y-74813390D02*
X154178095Y-75384819D01*
X154178095Y-75384819D02*
X154797142Y-75384819D01*
X155416190Y-74384819D02*
X155511428Y-74384819D01*
X155511428Y-74384819D02*
X155606666Y-74432438D01*
X155606666Y-74432438D02*
X155654285Y-74480057D01*
X155654285Y-74480057D02*
X155701904Y-74575295D01*
X155701904Y-74575295D02*
X155749523Y-74765771D01*
X155749523Y-74765771D02*
X155749523Y-75003866D01*
X155749523Y-75003866D02*
X155701904Y-75194342D01*
X155701904Y-75194342D02*
X155654285Y-75289580D01*
X155654285Y-75289580D02*
X155606666Y-75337200D01*
X155606666Y-75337200D02*
X155511428Y-75384819D01*
X155511428Y-75384819D02*
X155416190Y-75384819D01*
X155416190Y-75384819D02*
X155320952Y-75337200D01*
X155320952Y-75337200D02*
X155273333Y-75289580D01*
X155273333Y-75289580D02*
X155225714Y-75194342D01*
X155225714Y-75194342D02*
X155178095Y-75003866D01*
X155178095Y-75003866D02*
X155178095Y-74765771D01*
X155178095Y-74765771D02*
X155225714Y-74575295D01*
X155225714Y-74575295D02*
X155273333Y-74480057D01*
X155273333Y-74480057D02*
X155320952Y-74432438D01*
X155320952Y-74432438D02*
X155416190Y-74384819D01*
X156701904Y-75384819D02*
X156130476Y-75384819D01*
X156416190Y-75384819D02*
X156416190Y-74384819D01*
X156416190Y-74384819D02*
X156320952Y-74527676D01*
X156320952Y-74527676D02*
X156225714Y-74622914D01*
X156225714Y-74622914D02*
X156130476Y-74670533D01*
X159607380Y-83275057D02*
X159512142Y-83227438D01*
X159512142Y-83227438D02*
X159416904Y-83132200D01*
X159416904Y-83132200D02*
X159274047Y-82989342D01*
X159274047Y-82989342D02*
X159178809Y-82941723D01*
X159178809Y-82941723D02*
X159083571Y-82941723D01*
X159131190Y-83179819D02*
X159035952Y-83132200D01*
X159035952Y-83132200D02*
X158940714Y-83036961D01*
X158940714Y-83036961D02*
X158893095Y-82846485D01*
X158893095Y-82846485D02*
X158893095Y-82513152D01*
X158893095Y-82513152D02*
X158940714Y-82322676D01*
X158940714Y-82322676D02*
X159035952Y-82227438D01*
X159035952Y-82227438D02*
X159131190Y-82179819D01*
X159131190Y-82179819D02*
X159321666Y-82179819D01*
X159321666Y-82179819D02*
X159416904Y-82227438D01*
X159416904Y-82227438D02*
X159512142Y-82322676D01*
X159512142Y-82322676D02*
X159559761Y-82513152D01*
X159559761Y-82513152D02*
X159559761Y-82846485D01*
X159559761Y-82846485D02*
X159512142Y-83036961D01*
X159512142Y-83036961D02*
X159416904Y-83132200D01*
X159416904Y-83132200D02*
X159321666Y-83179819D01*
X159321666Y-83179819D02*
X159131190Y-83179819D01*
X159940714Y-82275057D02*
X159988333Y-82227438D01*
X159988333Y-82227438D02*
X160083571Y-82179819D01*
X160083571Y-82179819D02*
X160321666Y-82179819D01*
X160321666Y-82179819D02*
X160416904Y-82227438D01*
X160416904Y-82227438D02*
X160464523Y-82275057D01*
X160464523Y-82275057D02*
X160512142Y-82370295D01*
X160512142Y-82370295D02*
X160512142Y-82465533D01*
X160512142Y-82465533D02*
X160464523Y-82608390D01*
X160464523Y-82608390D02*
X159893095Y-83179819D01*
X159893095Y-83179819D02*
X160512142Y-83179819D01*
X161131190Y-82179819D02*
X161226428Y-82179819D01*
X161226428Y-82179819D02*
X161321666Y-82227438D01*
X161321666Y-82227438D02*
X161369285Y-82275057D01*
X161369285Y-82275057D02*
X161416904Y-82370295D01*
X161416904Y-82370295D02*
X161464523Y-82560771D01*
X161464523Y-82560771D02*
X161464523Y-82798866D01*
X161464523Y-82798866D02*
X161416904Y-82989342D01*
X161416904Y-82989342D02*
X161369285Y-83084580D01*
X161369285Y-83084580D02*
X161321666Y-83132200D01*
X161321666Y-83132200D02*
X161226428Y-83179819D01*
X161226428Y-83179819D02*
X161131190Y-83179819D01*
X161131190Y-83179819D02*
X161035952Y-83132200D01*
X161035952Y-83132200D02*
X160988333Y-83084580D01*
X160988333Y-83084580D02*
X160940714Y-82989342D01*
X160940714Y-82989342D02*
X160893095Y-82798866D01*
X160893095Y-82798866D02*
X160893095Y-82560771D01*
X160893095Y-82560771D02*
X160940714Y-82370295D01*
X160940714Y-82370295D02*
X160988333Y-82275057D01*
X160988333Y-82275057D02*
X161035952Y-82227438D01*
X161035952Y-82227438D02*
X161131190Y-82179819D01*
X162321666Y-82513152D02*
X162321666Y-83179819D01*
X162083571Y-82132200D02*
X161845476Y-82846485D01*
X161845476Y-82846485D02*
X162464523Y-82846485D01*
X143052128Y-96839832D02*
X142718795Y-96363641D01*
X142480700Y-96839832D02*
X142480700Y-95839832D01*
X142480700Y-95839832D02*
X142861652Y-95839832D01*
X142861652Y-95839832D02*
X142956890Y-95887451D01*
X142956890Y-95887451D02*
X143004509Y-95935070D01*
X143004509Y-95935070D02*
X143052128Y-96030308D01*
X143052128Y-96030308D02*
X143052128Y-96173165D01*
X143052128Y-96173165D02*
X143004509Y-96268403D01*
X143004509Y-96268403D02*
X142956890Y-96316022D01*
X142956890Y-96316022D02*
X142861652Y-96363641D01*
X142861652Y-96363641D02*
X142480700Y-96363641D01*
X144004509Y-96839832D02*
X143433081Y-96839832D01*
X143718795Y-96839832D02*
X143718795Y-95839832D01*
X143718795Y-95839832D02*
X143623557Y-95982689D01*
X143623557Y-95982689D02*
X143528319Y-96077927D01*
X143528319Y-96077927D02*
X143433081Y-96125546D01*
X144623557Y-95839832D02*
X144718795Y-95839832D01*
X144718795Y-95839832D02*
X144814033Y-95887451D01*
X144814033Y-95887451D02*
X144861652Y-95935070D01*
X144861652Y-95935070D02*
X144909271Y-96030308D01*
X144909271Y-96030308D02*
X144956890Y-96220784D01*
X144956890Y-96220784D02*
X144956890Y-96458879D01*
X144956890Y-96458879D02*
X144909271Y-96649355D01*
X144909271Y-96649355D02*
X144861652Y-96744593D01*
X144861652Y-96744593D02*
X144814033Y-96792213D01*
X144814033Y-96792213D02*
X144718795Y-96839832D01*
X144718795Y-96839832D02*
X144623557Y-96839832D01*
X144623557Y-96839832D02*
X144528319Y-96792213D01*
X144528319Y-96792213D02*
X144480700Y-96744593D01*
X144480700Y-96744593D02*
X144433081Y-96649355D01*
X144433081Y-96649355D02*
X144385462Y-96458879D01*
X144385462Y-96458879D02*
X144385462Y-96220784D01*
X144385462Y-96220784D02*
X144433081Y-96030308D01*
X144433081Y-96030308D02*
X144480700Y-95935070D01*
X144480700Y-95935070D02*
X144528319Y-95887451D01*
X144528319Y-95887451D02*
X144623557Y-95839832D01*
X145290224Y-95839832D02*
X145909271Y-95839832D01*
X145909271Y-95839832D02*
X145575938Y-96220784D01*
X145575938Y-96220784D02*
X145718795Y-96220784D01*
X145718795Y-96220784D02*
X145814033Y-96268403D01*
X145814033Y-96268403D02*
X145861652Y-96316022D01*
X145861652Y-96316022D02*
X145909271Y-96411260D01*
X145909271Y-96411260D02*
X145909271Y-96649355D01*
X145909271Y-96649355D02*
X145861652Y-96744593D01*
X145861652Y-96744593D02*
X145814033Y-96792213D01*
X145814033Y-96792213D02*
X145718795Y-96839832D01*
X145718795Y-96839832D02*
X145433081Y-96839832D01*
X145433081Y-96839832D02*
X145337843Y-96792213D01*
X145337843Y-96792213D02*
X145290224Y-96744593D01*
X165660785Y-88997028D02*
X165327452Y-88520837D01*
X165089357Y-88997028D02*
X165089357Y-87997028D01*
X165089357Y-87997028D02*
X165470309Y-87997028D01*
X165470309Y-87997028D02*
X165565547Y-88044647D01*
X165565547Y-88044647D02*
X165613166Y-88092266D01*
X165613166Y-88092266D02*
X165660785Y-88187504D01*
X165660785Y-88187504D02*
X165660785Y-88330361D01*
X165660785Y-88330361D02*
X165613166Y-88425599D01*
X165613166Y-88425599D02*
X165565547Y-88473218D01*
X165565547Y-88473218D02*
X165470309Y-88520837D01*
X165470309Y-88520837D02*
X165089357Y-88520837D01*
X166517928Y-88330361D02*
X166517928Y-88997028D01*
X166279833Y-87949409D02*
X166041738Y-88663694D01*
X166041738Y-88663694D02*
X166660785Y-88663694D01*
X167232214Y-87997028D02*
X167327452Y-87997028D01*
X167327452Y-87997028D02*
X167422690Y-88044647D01*
X167422690Y-88044647D02*
X167470309Y-88092266D01*
X167470309Y-88092266D02*
X167517928Y-88187504D01*
X167517928Y-88187504D02*
X167565547Y-88377980D01*
X167565547Y-88377980D02*
X167565547Y-88616075D01*
X167565547Y-88616075D02*
X167517928Y-88806551D01*
X167517928Y-88806551D02*
X167470309Y-88901789D01*
X167470309Y-88901789D02*
X167422690Y-88949409D01*
X167422690Y-88949409D02*
X167327452Y-88997028D01*
X167327452Y-88997028D02*
X167232214Y-88997028D01*
X167232214Y-88997028D02*
X167136976Y-88949409D01*
X167136976Y-88949409D02*
X167089357Y-88901789D01*
X167089357Y-88901789D02*
X167041738Y-88806551D01*
X167041738Y-88806551D02*
X166994119Y-88616075D01*
X166994119Y-88616075D02*
X166994119Y-88377980D01*
X166994119Y-88377980D02*
X167041738Y-88187504D01*
X167041738Y-88187504D02*
X167089357Y-88092266D01*
X167089357Y-88092266D02*
X167136976Y-88044647D01*
X167136976Y-88044647D02*
X167232214Y-87997028D01*
X168422690Y-88330361D02*
X168422690Y-88997028D01*
X168184595Y-87949409D02*
X167946500Y-88663694D01*
X167946500Y-88663694D02*
X168565547Y-88663694D01*
X159957619Y-103989047D02*
X159481428Y-104322380D01*
X159957619Y-104560475D02*
X158957619Y-104560475D01*
X158957619Y-104560475D02*
X158957619Y-104179523D01*
X158957619Y-104179523D02*
X159005238Y-104084285D01*
X159005238Y-104084285D02*
X159052857Y-104036666D01*
X159052857Y-104036666D02*
X159148095Y-103989047D01*
X159148095Y-103989047D02*
X159290952Y-103989047D01*
X159290952Y-103989047D02*
X159386190Y-104036666D01*
X159386190Y-104036666D02*
X159433809Y-104084285D01*
X159433809Y-104084285D02*
X159481428Y-104179523D01*
X159481428Y-104179523D02*
X159481428Y-104560475D01*
X159290952Y-103131904D02*
X159957619Y-103131904D01*
X158910000Y-103369999D02*
X159624285Y-103608094D01*
X159624285Y-103608094D02*
X159624285Y-102989047D01*
X158957619Y-102417618D02*
X158957619Y-102322380D01*
X158957619Y-102322380D02*
X159005238Y-102227142D01*
X159005238Y-102227142D02*
X159052857Y-102179523D01*
X159052857Y-102179523D02*
X159148095Y-102131904D01*
X159148095Y-102131904D02*
X159338571Y-102084285D01*
X159338571Y-102084285D02*
X159576666Y-102084285D01*
X159576666Y-102084285D02*
X159767142Y-102131904D01*
X159767142Y-102131904D02*
X159862380Y-102179523D01*
X159862380Y-102179523D02*
X159910000Y-102227142D01*
X159910000Y-102227142D02*
X159957619Y-102322380D01*
X159957619Y-102322380D02*
X159957619Y-102417618D01*
X159957619Y-102417618D02*
X159910000Y-102512856D01*
X159910000Y-102512856D02*
X159862380Y-102560475D01*
X159862380Y-102560475D02*
X159767142Y-102608094D01*
X159767142Y-102608094D02*
X159576666Y-102655713D01*
X159576666Y-102655713D02*
X159338571Y-102655713D01*
X159338571Y-102655713D02*
X159148095Y-102608094D01*
X159148095Y-102608094D02*
X159052857Y-102560475D01*
X159052857Y-102560475D02*
X159005238Y-102512856D01*
X159005238Y-102512856D02*
X158957619Y-102417618D01*
X158957619Y-101750951D02*
X158957619Y-101084285D01*
X158957619Y-101084285D02*
X159957619Y-101512856D01*
X141120952Y-77289819D02*
X140787619Y-76813628D01*
X140549524Y-77289819D02*
X140549524Y-76289819D01*
X140549524Y-76289819D02*
X140930476Y-76289819D01*
X140930476Y-76289819D02*
X141025714Y-76337438D01*
X141025714Y-76337438D02*
X141073333Y-76385057D01*
X141073333Y-76385057D02*
X141120952Y-76480295D01*
X141120952Y-76480295D02*
X141120952Y-76623152D01*
X141120952Y-76623152D02*
X141073333Y-76718390D01*
X141073333Y-76718390D02*
X141025714Y-76766009D01*
X141025714Y-76766009D02*
X140930476Y-76813628D01*
X140930476Y-76813628D02*
X140549524Y-76813628D01*
X141501905Y-76385057D02*
X141549524Y-76337438D01*
X141549524Y-76337438D02*
X141644762Y-76289819D01*
X141644762Y-76289819D02*
X141882857Y-76289819D01*
X141882857Y-76289819D02*
X141978095Y-76337438D01*
X141978095Y-76337438D02*
X142025714Y-76385057D01*
X142025714Y-76385057D02*
X142073333Y-76480295D01*
X142073333Y-76480295D02*
X142073333Y-76575533D01*
X142073333Y-76575533D02*
X142025714Y-76718390D01*
X142025714Y-76718390D02*
X141454286Y-77289819D01*
X141454286Y-77289819D02*
X142073333Y-77289819D01*
X142692381Y-76289819D02*
X142787619Y-76289819D01*
X142787619Y-76289819D02*
X142882857Y-76337438D01*
X142882857Y-76337438D02*
X142930476Y-76385057D01*
X142930476Y-76385057D02*
X142978095Y-76480295D01*
X142978095Y-76480295D02*
X143025714Y-76670771D01*
X143025714Y-76670771D02*
X143025714Y-76908866D01*
X143025714Y-76908866D02*
X142978095Y-77099342D01*
X142978095Y-77099342D02*
X142930476Y-77194580D01*
X142930476Y-77194580D02*
X142882857Y-77242200D01*
X142882857Y-77242200D02*
X142787619Y-77289819D01*
X142787619Y-77289819D02*
X142692381Y-77289819D01*
X142692381Y-77289819D02*
X142597143Y-77242200D01*
X142597143Y-77242200D02*
X142549524Y-77194580D01*
X142549524Y-77194580D02*
X142501905Y-77099342D01*
X142501905Y-77099342D02*
X142454286Y-76908866D01*
X142454286Y-76908866D02*
X142454286Y-76670771D01*
X142454286Y-76670771D02*
X142501905Y-76480295D01*
X142501905Y-76480295D02*
X142549524Y-76385057D01*
X142549524Y-76385057D02*
X142597143Y-76337438D01*
X142597143Y-76337438D02*
X142692381Y-76289819D01*
X143359048Y-76289819D02*
X143978095Y-76289819D01*
X143978095Y-76289819D02*
X143644762Y-76670771D01*
X143644762Y-76670771D02*
X143787619Y-76670771D01*
X143787619Y-76670771D02*
X143882857Y-76718390D01*
X143882857Y-76718390D02*
X143930476Y-76766009D01*
X143930476Y-76766009D02*
X143978095Y-76861247D01*
X143978095Y-76861247D02*
X143978095Y-77099342D01*
X143978095Y-77099342D02*
X143930476Y-77194580D01*
X143930476Y-77194580D02*
X143882857Y-77242200D01*
X143882857Y-77242200D02*
X143787619Y-77289819D01*
X143787619Y-77289819D02*
X143501905Y-77289819D01*
X143501905Y-77289819D02*
X143406667Y-77242200D01*
X143406667Y-77242200D02*
X143359048Y-77194580D01*
X142636290Y-103925475D02*
X141636290Y-103925475D01*
X141636290Y-103925475D02*
X141636290Y-103687380D01*
X141636290Y-103687380D02*
X141683909Y-103544523D01*
X141683909Y-103544523D02*
X141779147Y-103449285D01*
X141779147Y-103449285D02*
X141874385Y-103401666D01*
X141874385Y-103401666D02*
X142064861Y-103354047D01*
X142064861Y-103354047D02*
X142207718Y-103354047D01*
X142207718Y-103354047D02*
X142398194Y-103401666D01*
X142398194Y-103401666D02*
X142493432Y-103449285D01*
X142493432Y-103449285D02*
X142588671Y-103544523D01*
X142588671Y-103544523D02*
X142636290Y-103687380D01*
X142636290Y-103687380D02*
X142636290Y-103925475D01*
X142636290Y-102401666D02*
X142636290Y-102973094D01*
X142636290Y-102687380D02*
X141636290Y-102687380D01*
X141636290Y-102687380D02*
X141779147Y-102782618D01*
X141779147Y-102782618D02*
X141874385Y-102877856D01*
X141874385Y-102877856D02*
X141922004Y-102973094D01*
X141636290Y-101782618D02*
X141636290Y-101687380D01*
X141636290Y-101687380D02*
X141683909Y-101592142D01*
X141683909Y-101592142D02*
X141731528Y-101544523D01*
X141731528Y-101544523D02*
X141826766Y-101496904D01*
X141826766Y-101496904D02*
X142017242Y-101449285D01*
X142017242Y-101449285D02*
X142255337Y-101449285D01*
X142255337Y-101449285D02*
X142445813Y-101496904D01*
X142445813Y-101496904D02*
X142541051Y-101544523D01*
X142541051Y-101544523D02*
X142588671Y-101592142D01*
X142588671Y-101592142D02*
X142636290Y-101687380D01*
X142636290Y-101687380D02*
X142636290Y-101782618D01*
X142636290Y-101782618D02*
X142588671Y-101877856D01*
X142588671Y-101877856D02*
X142541051Y-101925475D01*
X142541051Y-101925475D02*
X142445813Y-101973094D01*
X142445813Y-101973094D02*
X142255337Y-102020713D01*
X142255337Y-102020713D02*
X142017242Y-102020713D01*
X142017242Y-102020713D02*
X141826766Y-101973094D01*
X141826766Y-101973094D02*
X141731528Y-101925475D01*
X141731528Y-101925475D02*
X141683909Y-101877856D01*
X141683909Y-101877856D02*
X141636290Y-101782618D01*
X141636290Y-100544523D02*
X141636290Y-101020713D01*
X141636290Y-101020713D02*
X142112480Y-101068332D01*
X142112480Y-101068332D02*
X142064861Y-101020713D01*
X142064861Y-101020713D02*
X142017242Y-100925475D01*
X142017242Y-100925475D02*
X142017242Y-100687380D01*
X142017242Y-100687380D02*
X142064861Y-100592142D01*
X142064861Y-100592142D02*
X142112480Y-100544523D01*
X142112480Y-100544523D02*
X142207718Y-100496904D01*
X142207718Y-100496904D02*
X142445813Y-100496904D01*
X142445813Y-100496904D02*
X142541051Y-100544523D01*
X142541051Y-100544523D02*
X142588671Y-100592142D01*
X142588671Y-100592142D02*
X142636290Y-100687380D01*
X142636290Y-100687380D02*
X142636290Y-100925475D01*
X142636290Y-100925475D02*
X142588671Y-101020713D01*
X142588671Y-101020713D02*
X142541051Y-101068332D01*
X164250952Y-101799819D02*
X163917619Y-101323628D01*
X163679524Y-101799819D02*
X163679524Y-100799819D01*
X163679524Y-100799819D02*
X164060476Y-100799819D01*
X164060476Y-100799819D02*
X164155714Y-100847438D01*
X164155714Y-100847438D02*
X164203333Y-100895057D01*
X164203333Y-100895057D02*
X164250952Y-100990295D01*
X164250952Y-100990295D02*
X164250952Y-101133152D01*
X164250952Y-101133152D02*
X164203333Y-101228390D01*
X164203333Y-101228390D02*
X164155714Y-101276009D01*
X164155714Y-101276009D02*
X164060476Y-101323628D01*
X164060476Y-101323628D02*
X163679524Y-101323628D01*
X165108095Y-101133152D02*
X165108095Y-101799819D01*
X164870000Y-100752200D02*
X164631905Y-101466485D01*
X164631905Y-101466485D02*
X165250952Y-101466485D01*
X165822381Y-100799819D02*
X165917619Y-100799819D01*
X165917619Y-100799819D02*
X166012857Y-100847438D01*
X166012857Y-100847438D02*
X166060476Y-100895057D01*
X166060476Y-100895057D02*
X166108095Y-100990295D01*
X166108095Y-100990295D02*
X166155714Y-101180771D01*
X166155714Y-101180771D02*
X166155714Y-101418866D01*
X166155714Y-101418866D02*
X166108095Y-101609342D01*
X166108095Y-101609342D02*
X166060476Y-101704580D01*
X166060476Y-101704580D02*
X166012857Y-101752200D01*
X166012857Y-101752200D02*
X165917619Y-101799819D01*
X165917619Y-101799819D02*
X165822381Y-101799819D01*
X165822381Y-101799819D02*
X165727143Y-101752200D01*
X165727143Y-101752200D02*
X165679524Y-101704580D01*
X165679524Y-101704580D02*
X165631905Y-101609342D01*
X165631905Y-101609342D02*
X165584286Y-101418866D01*
X165584286Y-101418866D02*
X165584286Y-101180771D01*
X165584286Y-101180771D02*
X165631905Y-100990295D01*
X165631905Y-100990295D02*
X165679524Y-100895057D01*
X165679524Y-100895057D02*
X165727143Y-100847438D01*
X165727143Y-100847438D02*
X165822381Y-100799819D01*
X166727143Y-101228390D02*
X166631905Y-101180771D01*
X166631905Y-101180771D02*
X166584286Y-101133152D01*
X166584286Y-101133152D02*
X166536667Y-101037914D01*
X166536667Y-101037914D02*
X166536667Y-100990295D01*
X166536667Y-100990295D02*
X166584286Y-100895057D01*
X166584286Y-100895057D02*
X166631905Y-100847438D01*
X166631905Y-100847438D02*
X166727143Y-100799819D01*
X166727143Y-100799819D02*
X166917619Y-100799819D01*
X166917619Y-100799819D02*
X167012857Y-100847438D01*
X167012857Y-100847438D02*
X167060476Y-100895057D01*
X167060476Y-100895057D02*
X167108095Y-100990295D01*
X167108095Y-100990295D02*
X167108095Y-101037914D01*
X167108095Y-101037914D02*
X167060476Y-101133152D01*
X167060476Y-101133152D02*
X167012857Y-101180771D01*
X167012857Y-101180771D02*
X166917619Y-101228390D01*
X166917619Y-101228390D02*
X166727143Y-101228390D01*
X166727143Y-101228390D02*
X166631905Y-101276009D01*
X166631905Y-101276009D02*
X166584286Y-101323628D01*
X166584286Y-101323628D02*
X166536667Y-101418866D01*
X166536667Y-101418866D02*
X166536667Y-101609342D01*
X166536667Y-101609342D02*
X166584286Y-101704580D01*
X166584286Y-101704580D02*
X166631905Y-101752200D01*
X166631905Y-101752200D02*
X166727143Y-101799819D01*
X166727143Y-101799819D02*
X166917619Y-101799819D01*
X166917619Y-101799819D02*
X167012857Y-101752200D01*
X167012857Y-101752200D02*
X167060476Y-101704580D01*
X167060476Y-101704580D02*
X167108095Y-101609342D01*
X167108095Y-101609342D02*
X167108095Y-101418866D01*
X167108095Y-101418866D02*
X167060476Y-101323628D01*
X167060476Y-101323628D02*
X167012857Y-101276009D01*
X167012857Y-101276009D02*
X166917619Y-101228390D01*
X147398855Y-99679962D02*
X146398855Y-99679962D01*
X146398855Y-99679962D02*
X146398855Y-99441867D01*
X146398855Y-99441867D02*
X146446474Y-99299010D01*
X146446474Y-99299010D02*
X146541712Y-99203772D01*
X146541712Y-99203772D02*
X146636950Y-99156153D01*
X146636950Y-99156153D02*
X146827426Y-99108534D01*
X146827426Y-99108534D02*
X146970283Y-99108534D01*
X146970283Y-99108534D02*
X147160759Y-99156153D01*
X147160759Y-99156153D02*
X147255997Y-99203772D01*
X147255997Y-99203772D02*
X147351236Y-99299010D01*
X147351236Y-99299010D02*
X147398855Y-99441867D01*
X147398855Y-99441867D02*
X147398855Y-99679962D01*
X146398855Y-98203772D02*
X146398855Y-98679962D01*
X146398855Y-98679962D02*
X146875045Y-98727581D01*
X146875045Y-98727581D02*
X146827426Y-98679962D01*
X146827426Y-98679962D02*
X146779807Y-98584724D01*
X146779807Y-98584724D02*
X146779807Y-98346629D01*
X146779807Y-98346629D02*
X146827426Y-98251391D01*
X146827426Y-98251391D02*
X146875045Y-98203772D01*
X146875045Y-98203772D02*
X146970283Y-98156153D01*
X146970283Y-98156153D02*
X147208378Y-98156153D01*
X147208378Y-98156153D02*
X147303616Y-98203772D01*
X147303616Y-98203772D02*
X147351236Y-98251391D01*
X147351236Y-98251391D02*
X147398855Y-98346629D01*
X147398855Y-98346629D02*
X147398855Y-98584724D01*
X147398855Y-98584724D02*
X147351236Y-98679962D01*
X147351236Y-98679962D02*
X147303616Y-98727581D01*
X146398855Y-97537105D02*
X146398855Y-97441867D01*
X146398855Y-97441867D02*
X146446474Y-97346629D01*
X146446474Y-97346629D02*
X146494093Y-97299010D01*
X146494093Y-97299010D02*
X146589331Y-97251391D01*
X146589331Y-97251391D02*
X146779807Y-97203772D01*
X146779807Y-97203772D02*
X147017902Y-97203772D01*
X147017902Y-97203772D02*
X147208378Y-97251391D01*
X147208378Y-97251391D02*
X147303616Y-97299010D01*
X147303616Y-97299010D02*
X147351236Y-97346629D01*
X147351236Y-97346629D02*
X147398855Y-97441867D01*
X147398855Y-97441867D02*
X147398855Y-97537105D01*
X147398855Y-97537105D02*
X147351236Y-97632343D01*
X147351236Y-97632343D02*
X147303616Y-97679962D01*
X147303616Y-97679962D02*
X147208378Y-97727581D01*
X147208378Y-97727581D02*
X147017902Y-97775200D01*
X147017902Y-97775200D02*
X146779807Y-97775200D01*
X146779807Y-97775200D02*
X146589331Y-97727581D01*
X146589331Y-97727581D02*
X146494093Y-97679962D01*
X146494093Y-97679962D02*
X146446474Y-97632343D01*
X146446474Y-97632343D02*
X146398855Y-97537105D01*
X146732188Y-96346629D02*
X147398855Y-96346629D01*
X146351236Y-96584724D02*
X147065521Y-96822819D01*
X147065521Y-96822819D02*
X147065521Y-96203772D01*
X147260634Y-116325597D02*
X147260634Y-115325597D01*
X147260634Y-115325597D02*
X147498729Y-115325597D01*
X147498729Y-115325597D02*
X147641586Y-115373216D01*
X147641586Y-115373216D02*
X147736824Y-115468454D01*
X147736824Y-115468454D02*
X147784443Y-115563692D01*
X147784443Y-115563692D02*
X147832062Y-115754168D01*
X147832062Y-115754168D02*
X147832062Y-115897025D01*
X147832062Y-115897025D02*
X147784443Y-116087501D01*
X147784443Y-116087501D02*
X147736824Y-116182739D01*
X147736824Y-116182739D02*
X147641586Y-116277978D01*
X147641586Y-116277978D02*
X147498729Y-116325597D01*
X147498729Y-116325597D02*
X147260634Y-116325597D01*
X148736824Y-115325597D02*
X148260634Y-115325597D01*
X148260634Y-115325597D02*
X148213015Y-115801787D01*
X148213015Y-115801787D02*
X148260634Y-115754168D01*
X148260634Y-115754168D02*
X148355872Y-115706549D01*
X148355872Y-115706549D02*
X148593967Y-115706549D01*
X148593967Y-115706549D02*
X148689205Y-115754168D01*
X148689205Y-115754168D02*
X148736824Y-115801787D01*
X148736824Y-115801787D02*
X148784443Y-115897025D01*
X148784443Y-115897025D02*
X148784443Y-116135120D01*
X148784443Y-116135120D02*
X148736824Y-116230358D01*
X148736824Y-116230358D02*
X148689205Y-116277978D01*
X148689205Y-116277978D02*
X148593967Y-116325597D01*
X148593967Y-116325597D02*
X148355872Y-116325597D01*
X148355872Y-116325597D02*
X148260634Y-116277978D01*
X148260634Y-116277978D02*
X148213015Y-116230358D01*
X149403491Y-115325597D02*
X149498729Y-115325597D01*
X149498729Y-115325597D02*
X149593967Y-115373216D01*
X149593967Y-115373216D02*
X149641586Y-115420835D01*
X149641586Y-115420835D02*
X149689205Y-115516073D01*
X149689205Y-115516073D02*
X149736824Y-115706549D01*
X149736824Y-115706549D02*
X149736824Y-115944644D01*
X149736824Y-115944644D02*
X149689205Y-116135120D01*
X149689205Y-116135120D02*
X149641586Y-116230358D01*
X149641586Y-116230358D02*
X149593967Y-116277978D01*
X149593967Y-116277978D02*
X149498729Y-116325597D01*
X149498729Y-116325597D02*
X149403491Y-116325597D01*
X149403491Y-116325597D02*
X149308253Y-116277978D01*
X149308253Y-116277978D02*
X149260634Y-116230358D01*
X149260634Y-116230358D02*
X149213015Y-116135120D01*
X149213015Y-116135120D02*
X149165396Y-115944644D01*
X149165396Y-115944644D02*
X149165396Y-115706549D01*
X149165396Y-115706549D02*
X149213015Y-115516073D01*
X149213015Y-115516073D02*
X149260634Y-115420835D01*
X149260634Y-115420835D02*
X149308253Y-115373216D01*
X149308253Y-115373216D02*
X149403491Y-115325597D01*
X150689205Y-116325597D02*
X150117777Y-116325597D01*
X150403491Y-116325597D02*
X150403491Y-115325597D01*
X150403491Y-115325597D02*
X150308253Y-115468454D01*
X150308253Y-115468454D02*
X150213015Y-115563692D01*
X150213015Y-115563692D02*
X150117777Y-115611311D01*
X155725944Y-116564571D02*
X155678325Y-116612191D01*
X155678325Y-116612191D02*
X155535468Y-116659810D01*
X155535468Y-116659810D02*
X155440230Y-116659810D01*
X155440230Y-116659810D02*
X155297373Y-116612191D01*
X155297373Y-116612191D02*
X155202135Y-116516952D01*
X155202135Y-116516952D02*
X155154516Y-116421714D01*
X155154516Y-116421714D02*
X155106897Y-116231238D01*
X155106897Y-116231238D02*
X155106897Y-116088381D01*
X155106897Y-116088381D02*
X155154516Y-115897905D01*
X155154516Y-115897905D02*
X155202135Y-115802667D01*
X155202135Y-115802667D02*
X155297373Y-115707429D01*
X155297373Y-115707429D02*
X155440230Y-115659810D01*
X155440230Y-115659810D02*
X155535468Y-115659810D01*
X155535468Y-115659810D02*
X155678325Y-115707429D01*
X155678325Y-115707429D02*
X155725944Y-115755048D01*
X156583087Y-115659810D02*
X156392611Y-115659810D01*
X156392611Y-115659810D02*
X156297373Y-115707429D01*
X156297373Y-115707429D02*
X156249754Y-115755048D01*
X156249754Y-115755048D02*
X156154516Y-115897905D01*
X156154516Y-115897905D02*
X156106897Y-116088381D01*
X156106897Y-116088381D02*
X156106897Y-116469333D01*
X156106897Y-116469333D02*
X156154516Y-116564571D01*
X156154516Y-116564571D02*
X156202135Y-116612191D01*
X156202135Y-116612191D02*
X156297373Y-116659810D01*
X156297373Y-116659810D02*
X156487849Y-116659810D01*
X156487849Y-116659810D02*
X156583087Y-116612191D01*
X156583087Y-116612191D02*
X156630706Y-116564571D01*
X156630706Y-116564571D02*
X156678325Y-116469333D01*
X156678325Y-116469333D02*
X156678325Y-116231238D01*
X156678325Y-116231238D02*
X156630706Y-116136000D01*
X156630706Y-116136000D02*
X156583087Y-116088381D01*
X156583087Y-116088381D02*
X156487849Y-116040762D01*
X156487849Y-116040762D02*
X156297373Y-116040762D01*
X156297373Y-116040762D02*
X156202135Y-116088381D01*
X156202135Y-116088381D02*
X156154516Y-116136000D01*
X156154516Y-116136000D02*
X156106897Y-116231238D01*
X157297373Y-115659810D02*
X157392611Y-115659810D01*
X157392611Y-115659810D02*
X157487849Y-115707429D01*
X157487849Y-115707429D02*
X157535468Y-115755048D01*
X157535468Y-115755048D02*
X157583087Y-115850286D01*
X157583087Y-115850286D02*
X157630706Y-116040762D01*
X157630706Y-116040762D02*
X157630706Y-116278857D01*
X157630706Y-116278857D02*
X157583087Y-116469333D01*
X157583087Y-116469333D02*
X157535468Y-116564571D01*
X157535468Y-116564571D02*
X157487849Y-116612191D01*
X157487849Y-116612191D02*
X157392611Y-116659810D01*
X157392611Y-116659810D02*
X157297373Y-116659810D01*
X157297373Y-116659810D02*
X157202135Y-116612191D01*
X157202135Y-116612191D02*
X157154516Y-116564571D01*
X157154516Y-116564571D02*
X157106897Y-116469333D01*
X157106897Y-116469333D02*
X157059278Y-116278857D01*
X157059278Y-116278857D02*
X157059278Y-116040762D01*
X157059278Y-116040762D02*
X157106897Y-115850286D01*
X157106897Y-115850286D02*
X157154516Y-115755048D01*
X157154516Y-115755048D02*
X157202135Y-115707429D01*
X157202135Y-115707429D02*
X157297373Y-115659810D01*
X158583087Y-116659810D02*
X158011659Y-116659810D01*
X158297373Y-116659810D02*
X158297373Y-115659810D01*
X158297373Y-115659810D02*
X158202135Y-115802667D01*
X158202135Y-115802667D02*
X158106897Y-115897905D01*
X158106897Y-115897905D02*
X158011659Y-115945524D01*
X142694819Y-107735475D02*
X141694819Y-107735475D01*
X141694819Y-107735475D02*
X141694819Y-107497380D01*
X141694819Y-107497380D02*
X141742438Y-107354523D01*
X141742438Y-107354523D02*
X141837676Y-107259285D01*
X141837676Y-107259285D02*
X141932914Y-107211666D01*
X141932914Y-107211666D02*
X142123390Y-107164047D01*
X142123390Y-107164047D02*
X142266247Y-107164047D01*
X142266247Y-107164047D02*
X142456723Y-107211666D01*
X142456723Y-107211666D02*
X142551961Y-107259285D01*
X142551961Y-107259285D02*
X142647200Y-107354523D01*
X142647200Y-107354523D02*
X142694819Y-107497380D01*
X142694819Y-107497380D02*
X142694819Y-107735475D01*
X142694819Y-106211666D02*
X142694819Y-106783094D01*
X142694819Y-106497380D02*
X141694819Y-106497380D01*
X141694819Y-106497380D02*
X141837676Y-106592618D01*
X141837676Y-106592618D02*
X141932914Y-106687856D01*
X141932914Y-106687856D02*
X141980533Y-106783094D01*
X141694819Y-105592618D02*
X141694819Y-105497380D01*
X141694819Y-105497380D02*
X141742438Y-105402142D01*
X141742438Y-105402142D02*
X141790057Y-105354523D01*
X141790057Y-105354523D02*
X141885295Y-105306904D01*
X141885295Y-105306904D02*
X142075771Y-105259285D01*
X142075771Y-105259285D02*
X142313866Y-105259285D01*
X142313866Y-105259285D02*
X142504342Y-105306904D01*
X142504342Y-105306904D02*
X142599580Y-105354523D01*
X142599580Y-105354523D02*
X142647200Y-105402142D01*
X142647200Y-105402142D02*
X142694819Y-105497380D01*
X142694819Y-105497380D02*
X142694819Y-105592618D01*
X142694819Y-105592618D02*
X142647200Y-105687856D01*
X142647200Y-105687856D02*
X142599580Y-105735475D01*
X142599580Y-105735475D02*
X142504342Y-105783094D01*
X142504342Y-105783094D02*
X142313866Y-105830713D01*
X142313866Y-105830713D02*
X142075771Y-105830713D01*
X142075771Y-105830713D02*
X141885295Y-105783094D01*
X141885295Y-105783094D02*
X141790057Y-105735475D01*
X141790057Y-105735475D02*
X141742438Y-105687856D01*
X141742438Y-105687856D02*
X141694819Y-105592618D01*
X142694819Y-104306904D02*
X142694819Y-104878332D01*
X142694819Y-104592618D02*
X141694819Y-104592618D01*
X141694819Y-104592618D02*
X141837676Y-104687856D01*
X141837676Y-104687856D02*
X141932914Y-104783094D01*
X141932914Y-104783094D02*
X141980533Y-104878332D01*
X184874819Y-99710714D02*
X185589104Y-99710714D01*
X185589104Y-99710714D02*
X185731961Y-99758333D01*
X185731961Y-99758333D02*
X185827200Y-99853571D01*
X185827200Y-99853571D02*
X185874819Y-99996428D01*
X185874819Y-99996428D02*
X185874819Y-100091666D01*
X184874819Y-99329761D02*
X184874819Y-98710714D01*
X184874819Y-98710714D02*
X185255771Y-99044047D01*
X185255771Y-99044047D02*
X185255771Y-98901190D01*
X185255771Y-98901190D02*
X185303390Y-98805952D01*
X185303390Y-98805952D02*
X185351009Y-98758333D01*
X185351009Y-98758333D02*
X185446247Y-98710714D01*
X185446247Y-98710714D02*
X185684342Y-98710714D01*
X185684342Y-98710714D02*
X185779580Y-98758333D01*
X185779580Y-98758333D02*
X185827200Y-98805952D01*
X185827200Y-98805952D02*
X185874819Y-98901190D01*
X185874819Y-98901190D02*
X185874819Y-99186904D01*
X185874819Y-99186904D02*
X185827200Y-99282142D01*
X185827200Y-99282142D02*
X185779580Y-99329761D01*
X184874819Y-98091666D02*
X184874819Y-97996428D01*
X184874819Y-97996428D02*
X184922438Y-97901190D01*
X184922438Y-97901190D02*
X184970057Y-97853571D01*
X184970057Y-97853571D02*
X185065295Y-97805952D01*
X185065295Y-97805952D02*
X185255771Y-97758333D01*
X185255771Y-97758333D02*
X185493866Y-97758333D01*
X185493866Y-97758333D02*
X185684342Y-97805952D01*
X185684342Y-97805952D02*
X185779580Y-97853571D01*
X185779580Y-97853571D02*
X185827200Y-97901190D01*
X185827200Y-97901190D02*
X185874819Y-97996428D01*
X185874819Y-97996428D02*
X185874819Y-98091666D01*
X185874819Y-98091666D02*
X185827200Y-98186904D01*
X185827200Y-98186904D02*
X185779580Y-98234523D01*
X185779580Y-98234523D02*
X185684342Y-98282142D01*
X185684342Y-98282142D02*
X185493866Y-98329761D01*
X185493866Y-98329761D02*
X185255771Y-98329761D01*
X185255771Y-98329761D02*
X185065295Y-98282142D01*
X185065295Y-98282142D02*
X184970057Y-98234523D01*
X184970057Y-98234523D02*
X184922438Y-98186904D01*
X184922438Y-98186904D02*
X184874819Y-98091666D01*
X185874819Y-96805952D02*
X185874819Y-97377380D01*
X185874819Y-97091666D02*
X184874819Y-97091666D01*
X184874819Y-97091666D02*
X185017676Y-97186904D01*
X185017676Y-97186904D02*
X185112914Y-97282142D01*
X185112914Y-97282142D02*
X185160533Y-97377380D01*
X168364819Y-96964285D02*
X169174342Y-96964285D01*
X169174342Y-96964285D02*
X169269580Y-96916666D01*
X169269580Y-96916666D02*
X169317200Y-96869047D01*
X169317200Y-96869047D02*
X169364819Y-96773809D01*
X169364819Y-96773809D02*
X169364819Y-96583333D01*
X169364819Y-96583333D02*
X169317200Y-96488095D01*
X169317200Y-96488095D02*
X169269580Y-96440476D01*
X169269580Y-96440476D02*
X169174342Y-96392857D01*
X169174342Y-96392857D02*
X168364819Y-96392857D01*
X168364819Y-95440476D02*
X168364819Y-95916666D01*
X168364819Y-95916666D02*
X168841009Y-95964285D01*
X168841009Y-95964285D02*
X168793390Y-95916666D01*
X168793390Y-95916666D02*
X168745771Y-95821428D01*
X168745771Y-95821428D02*
X168745771Y-95583333D01*
X168745771Y-95583333D02*
X168793390Y-95488095D01*
X168793390Y-95488095D02*
X168841009Y-95440476D01*
X168841009Y-95440476D02*
X168936247Y-95392857D01*
X168936247Y-95392857D02*
X169174342Y-95392857D01*
X169174342Y-95392857D02*
X169269580Y-95440476D01*
X169269580Y-95440476D02*
X169317200Y-95488095D01*
X169317200Y-95488095D02*
X169364819Y-95583333D01*
X169364819Y-95583333D02*
X169364819Y-95821428D01*
X169364819Y-95821428D02*
X169317200Y-95916666D01*
X169317200Y-95916666D02*
X169269580Y-95964285D01*
X168364819Y-94773809D02*
X168364819Y-94678571D01*
X168364819Y-94678571D02*
X168412438Y-94583333D01*
X168412438Y-94583333D02*
X168460057Y-94535714D01*
X168460057Y-94535714D02*
X168555295Y-94488095D01*
X168555295Y-94488095D02*
X168745771Y-94440476D01*
X168745771Y-94440476D02*
X168983866Y-94440476D01*
X168983866Y-94440476D02*
X169174342Y-94488095D01*
X169174342Y-94488095D02*
X169269580Y-94535714D01*
X169269580Y-94535714D02*
X169317200Y-94583333D01*
X169317200Y-94583333D02*
X169364819Y-94678571D01*
X169364819Y-94678571D02*
X169364819Y-94773809D01*
X169364819Y-94773809D02*
X169317200Y-94869047D01*
X169317200Y-94869047D02*
X169269580Y-94916666D01*
X169269580Y-94916666D02*
X169174342Y-94964285D01*
X169174342Y-94964285D02*
X168983866Y-95011904D01*
X168983866Y-95011904D02*
X168745771Y-95011904D01*
X168745771Y-95011904D02*
X168555295Y-94964285D01*
X168555295Y-94964285D02*
X168460057Y-94916666D01*
X168460057Y-94916666D02*
X168412438Y-94869047D01*
X168412438Y-94869047D02*
X168364819Y-94773809D01*
X169364819Y-93488095D02*
X169364819Y-94059523D01*
X169364819Y-93773809D02*
X168364819Y-93773809D01*
X168364819Y-93773809D02*
X168507676Y-93869047D01*
X168507676Y-93869047D02*
X168602914Y-93964285D01*
X168602914Y-93964285D02*
X168650533Y-94059523D01*
X143749705Y-100272198D02*
X143416372Y-99796007D01*
X143178277Y-100272198D02*
X143178277Y-99272198D01*
X143178277Y-99272198D02*
X143559229Y-99272198D01*
X143559229Y-99272198D02*
X143654467Y-99319817D01*
X143654467Y-99319817D02*
X143702086Y-99367436D01*
X143702086Y-99367436D02*
X143749705Y-99462674D01*
X143749705Y-99462674D02*
X143749705Y-99605531D01*
X143749705Y-99605531D02*
X143702086Y-99700769D01*
X143702086Y-99700769D02*
X143654467Y-99748388D01*
X143654467Y-99748388D02*
X143559229Y-99796007D01*
X143559229Y-99796007D02*
X143178277Y-99796007D01*
X144702086Y-100272198D02*
X144130658Y-100272198D01*
X144416372Y-100272198D02*
X144416372Y-99272198D01*
X144416372Y-99272198D02*
X144321134Y-99415055D01*
X144321134Y-99415055D02*
X144225896Y-99510293D01*
X144225896Y-99510293D02*
X144130658Y-99557912D01*
X145321134Y-99272198D02*
X145416372Y-99272198D01*
X145416372Y-99272198D02*
X145511610Y-99319817D01*
X145511610Y-99319817D02*
X145559229Y-99367436D01*
X145559229Y-99367436D02*
X145606848Y-99462674D01*
X145606848Y-99462674D02*
X145654467Y-99653150D01*
X145654467Y-99653150D02*
X145654467Y-99891245D01*
X145654467Y-99891245D02*
X145606848Y-100081721D01*
X145606848Y-100081721D02*
X145559229Y-100176959D01*
X145559229Y-100176959D02*
X145511610Y-100224579D01*
X145511610Y-100224579D02*
X145416372Y-100272198D01*
X145416372Y-100272198D02*
X145321134Y-100272198D01*
X145321134Y-100272198D02*
X145225896Y-100224579D01*
X145225896Y-100224579D02*
X145178277Y-100176959D01*
X145178277Y-100176959D02*
X145130658Y-100081721D01*
X145130658Y-100081721D02*
X145083039Y-99891245D01*
X145083039Y-99891245D02*
X145083039Y-99653150D01*
X145083039Y-99653150D02*
X145130658Y-99462674D01*
X145130658Y-99462674D02*
X145178277Y-99367436D01*
X145178277Y-99367436D02*
X145225896Y-99319817D01*
X145225896Y-99319817D02*
X145321134Y-99272198D01*
X146511610Y-99605531D02*
X146511610Y-100272198D01*
X146273515Y-99224579D02*
X146035420Y-99938864D01*
X146035420Y-99938864D02*
X146654467Y-99938864D01*
X169999819Y-109704047D02*
X169523628Y-110037380D01*
X169999819Y-110275475D02*
X168999819Y-110275475D01*
X168999819Y-110275475D02*
X168999819Y-109894523D01*
X168999819Y-109894523D02*
X169047438Y-109799285D01*
X169047438Y-109799285D02*
X169095057Y-109751666D01*
X169095057Y-109751666D02*
X169190295Y-109704047D01*
X169190295Y-109704047D02*
X169333152Y-109704047D01*
X169333152Y-109704047D02*
X169428390Y-109751666D01*
X169428390Y-109751666D02*
X169476009Y-109799285D01*
X169476009Y-109799285D02*
X169523628Y-109894523D01*
X169523628Y-109894523D02*
X169523628Y-110275475D01*
X168999819Y-108799285D02*
X168999819Y-109275475D01*
X168999819Y-109275475D02*
X169476009Y-109323094D01*
X169476009Y-109323094D02*
X169428390Y-109275475D01*
X169428390Y-109275475D02*
X169380771Y-109180237D01*
X169380771Y-109180237D02*
X169380771Y-108942142D01*
X169380771Y-108942142D02*
X169428390Y-108846904D01*
X169428390Y-108846904D02*
X169476009Y-108799285D01*
X169476009Y-108799285D02*
X169571247Y-108751666D01*
X169571247Y-108751666D02*
X169809342Y-108751666D01*
X169809342Y-108751666D02*
X169904580Y-108799285D01*
X169904580Y-108799285D02*
X169952200Y-108846904D01*
X169952200Y-108846904D02*
X169999819Y-108942142D01*
X169999819Y-108942142D02*
X169999819Y-109180237D01*
X169999819Y-109180237D02*
X169952200Y-109275475D01*
X169952200Y-109275475D02*
X169904580Y-109323094D01*
X168999819Y-108132618D02*
X168999819Y-108037380D01*
X168999819Y-108037380D02*
X169047438Y-107942142D01*
X169047438Y-107942142D02*
X169095057Y-107894523D01*
X169095057Y-107894523D02*
X169190295Y-107846904D01*
X169190295Y-107846904D02*
X169380771Y-107799285D01*
X169380771Y-107799285D02*
X169618866Y-107799285D01*
X169618866Y-107799285D02*
X169809342Y-107846904D01*
X169809342Y-107846904D02*
X169904580Y-107894523D01*
X169904580Y-107894523D02*
X169952200Y-107942142D01*
X169952200Y-107942142D02*
X169999819Y-108037380D01*
X169999819Y-108037380D02*
X169999819Y-108132618D01*
X169999819Y-108132618D02*
X169952200Y-108227856D01*
X169952200Y-108227856D02*
X169904580Y-108275475D01*
X169904580Y-108275475D02*
X169809342Y-108323094D01*
X169809342Y-108323094D02*
X169618866Y-108370713D01*
X169618866Y-108370713D02*
X169380771Y-108370713D01*
X169380771Y-108370713D02*
X169190295Y-108323094D01*
X169190295Y-108323094D02*
X169095057Y-108275475D01*
X169095057Y-108275475D02*
X169047438Y-108227856D01*
X169047438Y-108227856D02*
X168999819Y-108132618D01*
X169333152Y-106942142D02*
X169999819Y-106942142D01*
X168952200Y-107180237D02*
X169666485Y-107418332D01*
X169666485Y-107418332D02*
X169666485Y-106799285D01*
X154494523Y-104974818D02*
X154494523Y-103974818D01*
X154494523Y-103974818D02*
X154732618Y-103974818D01*
X154732618Y-103974818D02*
X154875475Y-104022437D01*
X154875475Y-104022437D02*
X154970713Y-104117675D01*
X154970713Y-104117675D02*
X155018332Y-104212913D01*
X155018332Y-104212913D02*
X155065951Y-104403389D01*
X155065951Y-104403389D02*
X155065951Y-104546246D01*
X155065951Y-104546246D02*
X155018332Y-104736722D01*
X155018332Y-104736722D02*
X154970713Y-104831960D01*
X154970713Y-104831960D02*
X154875475Y-104927199D01*
X154875475Y-104927199D02*
X154732618Y-104974818D01*
X154732618Y-104974818D02*
X154494523Y-104974818D01*
X155923094Y-104308151D02*
X155923094Y-104974818D01*
X155684999Y-103927199D02*
X155446904Y-104641484D01*
X155446904Y-104641484D02*
X156065951Y-104641484D01*
X156637380Y-103974818D02*
X156732618Y-103974818D01*
X156732618Y-103974818D02*
X156827856Y-104022437D01*
X156827856Y-104022437D02*
X156875475Y-104070056D01*
X156875475Y-104070056D02*
X156923094Y-104165294D01*
X156923094Y-104165294D02*
X156970713Y-104355770D01*
X156970713Y-104355770D02*
X156970713Y-104593865D01*
X156970713Y-104593865D02*
X156923094Y-104784341D01*
X156923094Y-104784341D02*
X156875475Y-104879579D01*
X156875475Y-104879579D02*
X156827856Y-104927199D01*
X156827856Y-104927199D02*
X156732618Y-104974818D01*
X156732618Y-104974818D02*
X156637380Y-104974818D01*
X156637380Y-104974818D02*
X156542142Y-104927199D01*
X156542142Y-104927199D02*
X156494523Y-104879579D01*
X156494523Y-104879579D02*
X156446904Y-104784341D01*
X156446904Y-104784341D02*
X156399285Y-104593865D01*
X156399285Y-104593865D02*
X156399285Y-104355770D01*
X156399285Y-104355770D02*
X156446904Y-104165294D01*
X156446904Y-104165294D02*
X156494523Y-104070056D01*
X156494523Y-104070056D02*
X156542142Y-104022437D01*
X156542142Y-104022437D02*
X156637380Y-103974818D01*
X157351666Y-104070056D02*
X157399285Y-104022437D01*
X157399285Y-104022437D02*
X157494523Y-103974818D01*
X157494523Y-103974818D02*
X157732618Y-103974818D01*
X157732618Y-103974818D02*
X157827856Y-104022437D01*
X157827856Y-104022437D02*
X157875475Y-104070056D01*
X157875475Y-104070056D02*
X157923094Y-104165294D01*
X157923094Y-104165294D02*
X157923094Y-104260532D01*
X157923094Y-104260532D02*
X157875475Y-104403389D01*
X157875475Y-104403389D02*
X157304047Y-104974818D01*
X157304047Y-104974818D02*
X157923094Y-104974818D01*
X158940714Y-114389819D02*
X158940714Y-115199342D01*
X158940714Y-115199342D02*
X158988333Y-115294580D01*
X158988333Y-115294580D02*
X159035952Y-115342200D01*
X159035952Y-115342200D02*
X159131190Y-115389819D01*
X159131190Y-115389819D02*
X159321666Y-115389819D01*
X159321666Y-115389819D02*
X159416904Y-115342200D01*
X159416904Y-115342200D02*
X159464523Y-115294580D01*
X159464523Y-115294580D02*
X159512142Y-115199342D01*
X159512142Y-115199342D02*
X159512142Y-114389819D01*
X160416904Y-114389819D02*
X160226428Y-114389819D01*
X160226428Y-114389819D02*
X160131190Y-114437438D01*
X160131190Y-114437438D02*
X160083571Y-114485057D01*
X160083571Y-114485057D02*
X159988333Y-114627914D01*
X159988333Y-114627914D02*
X159940714Y-114818390D01*
X159940714Y-114818390D02*
X159940714Y-115199342D01*
X159940714Y-115199342D02*
X159988333Y-115294580D01*
X159988333Y-115294580D02*
X160035952Y-115342200D01*
X160035952Y-115342200D02*
X160131190Y-115389819D01*
X160131190Y-115389819D02*
X160321666Y-115389819D01*
X160321666Y-115389819D02*
X160416904Y-115342200D01*
X160416904Y-115342200D02*
X160464523Y-115294580D01*
X160464523Y-115294580D02*
X160512142Y-115199342D01*
X160512142Y-115199342D02*
X160512142Y-114961247D01*
X160512142Y-114961247D02*
X160464523Y-114866009D01*
X160464523Y-114866009D02*
X160416904Y-114818390D01*
X160416904Y-114818390D02*
X160321666Y-114770771D01*
X160321666Y-114770771D02*
X160131190Y-114770771D01*
X160131190Y-114770771D02*
X160035952Y-114818390D01*
X160035952Y-114818390D02*
X159988333Y-114866009D01*
X159988333Y-114866009D02*
X159940714Y-114961247D01*
X161131190Y-114389819D02*
X161226428Y-114389819D01*
X161226428Y-114389819D02*
X161321666Y-114437438D01*
X161321666Y-114437438D02*
X161369285Y-114485057D01*
X161369285Y-114485057D02*
X161416904Y-114580295D01*
X161416904Y-114580295D02*
X161464523Y-114770771D01*
X161464523Y-114770771D02*
X161464523Y-115008866D01*
X161464523Y-115008866D02*
X161416904Y-115199342D01*
X161416904Y-115199342D02*
X161369285Y-115294580D01*
X161369285Y-115294580D02*
X161321666Y-115342200D01*
X161321666Y-115342200D02*
X161226428Y-115389819D01*
X161226428Y-115389819D02*
X161131190Y-115389819D01*
X161131190Y-115389819D02*
X161035952Y-115342200D01*
X161035952Y-115342200D02*
X160988333Y-115294580D01*
X160988333Y-115294580D02*
X160940714Y-115199342D01*
X160940714Y-115199342D02*
X160893095Y-115008866D01*
X160893095Y-115008866D02*
X160893095Y-114770771D01*
X160893095Y-114770771D02*
X160940714Y-114580295D01*
X160940714Y-114580295D02*
X160988333Y-114485057D01*
X160988333Y-114485057D02*
X161035952Y-114437438D01*
X161035952Y-114437438D02*
X161131190Y-114389819D01*
X162416904Y-115389819D02*
X161845476Y-115389819D01*
X162131190Y-115389819D02*
X162131190Y-114389819D01*
X162131190Y-114389819D02*
X162035952Y-114532676D01*
X162035952Y-114532676D02*
X161940714Y-114627914D01*
X161940714Y-114627914D02*
X161845476Y-114675533D01*
X147886882Y-105348605D02*
X147410691Y-105681938D01*
X147886882Y-105920033D02*
X146886882Y-105920033D01*
X146886882Y-105920033D02*
X146886882Y-105539081D01*
X146886882Y-105539081D02*
X146934501Y-105443843D01*
X146934501Y-105443843D02*
X146982120Y-105396224D01*
X146982120Y-105396224D02*
X147077358Y-105348605D01*
X147077358Y-105348605D02*
X147220215Y-105348605D01*
X147220215Y-105348605D02*
X147315453Y-105396224D01*
X147315453Y-105396224D02*
X147363072Y-105443843D01*
X147363072Y-105443843D02*
X147410691Y-105539081D01*
X147410691Y-105539081D02*
X147410691Y-105920033D01*
X146886882Y-104443843D02*
X146886882Y-104920033D01*
X146886882Y-104920033D02*
X147363072Y-104967652D01*
X147363072Y-104967652D02*
X147315453Y-104920033D01*
X147315453Y-104920033D02*
X147267834Y-104824795D01*
X147267834Y-104824795D02*
X147267834Y-104586700D01*
X147267834Y-104586700D02*
X147315453Y-104491462D01*
X147315453Y-104491462D02*
X147363072Y-104443843D01*
X147363072Y-104443843D02*
X147458310Y-104396224D01*
X147458310Y-104396224D02*
X147696405Y-104396224D01*
X147696405Y-104396224D02*
X147791643Y-104443843D01*
X147791643Y-104443843D02*
X147839263Y-104491462D01*
X147839263Y-104491462D02*
X147886882Y-104586700D01*
X147886882Y-104586700D02*
X147886882Y-104824795D01*
X147886882Y-104824795D02*
X147839263Y-104920033D01*
X147839263Y-104920033D02*
X147791643Y-104967652D01*
X146886882Y-103777176D02*
X146886882Y-103681938D01*
X146886882Y-103681938D02*
X146934501Y-103586700D01*
X146934501Y-103586700D02*
X146982120Y-103539081D01*
X146982120Y-103539081D02*
X147077358Y-103491462D01*
X147077358Y-103491462D02*
X147267834Y-103443843D01*
X147267834Y-103443843D02*
X147505929Y-103443843D01*
X147505929Y-103443843D02*
X147696405Y-103491462D01*
X147696405Y-103491462D02*
X147791643Y-103539081D01*
X147791643Y-103539081D02*
X147839263Y-103586700D01*
X147839263Y-103586700D02*
X147886882Y-103681938D01*
X147886882Y-103681938D02*
X147886882Y-103777176D01*
X147886882Y-103777176D02*
X147839263Y-103872414D01*
X147839263Y-103872414D02*
X147791643Y-103920033D01*
X147791643Y-103920033D02*
X147696405Y-103967652D01*
X147696405Y-103967652D02*
X147505929Y-104015271D01*
X147505929Y-104015271D02*
X147267834Y-104015271D01*
X147267834Y-104015271D02*
X147077358Y-103967652D01*
X147077358Y-103967652D02*
X146982120Y-103920033D01*
X146982120Y-103920033D02*
X146934501Y-103872414D01*
X146934501Y-103872414D02*
X146886882Y-103777176D01*
X147886882Y-102491462D02*
X147886882Y-103062890D01*
X147886882Y-102777176D02*
X146886882Y-102777176D01*
X146886882Y-102777176D02*
X147029739Y-102872414D01*
X147029739Y-102872414D02*
X147124977Y-102967652D01*
X147124977Y-102967652D02*
X147172596Y-103062890D01*
X163554580Y-110974047D02*
X163602200Y-111021666D01*
X163602200Y-111021666D02*
X163649819Y-111164523D01*
X163649819Y-111164523D02*
X163649819Y-111259761D01*
X163649819Y-111259761D02*
X163602200Y-111402618D01*
X163602200Y-111402618D02*
X163506961Y-111497856D01*
X163506961Y-111497856D02*
X163411723Y-111545475D01*
X163411723Y-111545475D02*
X163221247Y-111593094D01*
X163221247Y-111593094D02*
X163078390Y-111593094D01*
X163078390Y-111593094D02*
X162887914Y-111545475D01*
X162887914Y-111545475D02*
X162792676Y-111497856D01*
X162792676Y-111497856D02*
X162697438Y-111402618D01*
X162697438Y-111402618D02*
X162649819Y-111259761D01*
X162649819Y-111259761D02*
X162649819Y-111164523D01*
X162649819Y-111164523D02*
X162697438Y-111021666D01*
X162697438Y-111021666D02*
X162745057Y-110974047D01*
X162649819Y-110116904D02*
X162649819Y-110307380D01*
X162649819Y-110307380D02*
X162697438Y-110402618D01*
X162697438Y-110402618D02*
X162745057Y-110450237D01*
X162745057Y-110450237D02*
X162887914Y-110545475D01*
X162887914Y-110545475D02*
X163078390Y-110593094D01*
X163078390Y-110593094D02*
X163459342Y-110593094D01*
X163459342Y-110593094D02*
X163554580Y-110545475D01*
X163554580Y-110545475D02*
X163602200Y-110497856D01*
X163602200Y-110497856D02*
X163649819Y-110402618D01*
X163649819Y-110402618D02*
X163649819Y-110212142D01*
X163649819Y-110212142D02*
X163602200Y-110116904D01*
X163602200Y-110116904D02*
X163554580Y-110069285D01*
X163554580Y-110069285D02*
X163459342Y-110021666D01*
X163459342Y-110021666D02*
X163221247Y-110021666D01*
X163221247Y-110021666D02*
X163126009Y-110069285D01*
X163126009Y-110069285D02*
X163078390Y-110116904D01*
X163078390Y-110116904D02*
X163030771Y-110212142D01*
X163030771Y-110212142D02*
X163030771Y-110402618D01*
X163030771Y-110402618D02*
X163078390Y-110497856D01*
X163078390Y-110497856D02*
X163126009Y-110545475D01*
X163126009Y-110545475D02*
X163221247Y-110593094D01*
X162649819Y-109402618D02*
X162649819Y-109307380D01*
X162649819Y-109307380D02*
X162697438Y-109212142D01*
X162697438Y-109212142D02*
X162745057Y-109164523D01*
X162745057Y-109164523D02*
X162840295Y-109116904D01*
X162840295Y-109116904D02*
X163030771Y-109069285D01*
X163030771Y-109069285D02*
X163268866Y-109069285D01*
X163268866Y-109069285D02*
X163459342Y-109116904D01*
X163459342Y-109116904D02*
X163554580Y-109164523D01*
X163554580Y-109164523D02*
X163602200Y-109212142D01*
X163602200Y-109212142D02*
X163649819Y-109307380D01*
X163649819Y-109307380D02*
X163649819Y-109402618D01*
X163649819Y-109402618D02*
X163602200Y-109497856D01*
X163602200Y-109497856D02*
X163554580Y-109545475D01*
X163554580Y-109545475D02*
X163459342Y-109593094D01*
X163459342Y-109593094D02*
X163268866Y-109640713D01*
X163268866Y-109640713D02*
X163030771Y-109640713D01*
X163030771Y-109640713D02*
X162840295Y-109593094D01*
X162840295Y-109593094D02*
X162745057Y-109545475D01*
X162745057Y-109545475D02*
X162697438Y-109497856D01*
X162697438Y-109497856D02*
X162649819Y-109402618D01*
X162745057Y-108688332D02*
X162697438Y-108640713D01*
X162697438Y-108640713D02*
X162649819Y-108545475D01*
X162649819Y-108545475D02*
X162649819Y-108307380D01*
X162649819Y-108307380D02*
X162697438Y-108212142D01*
X162697438Y-108212142D02*
X162745057Y-108164523D01*
X162745057Y-108164523D02*
X162840295Y-108116904D01*
X162840295Y-108116904D02*
X162935533Y-108116904D01*
X162935533Y-108116904D02*
X163078390Y-108164523D01*
X163078390Y-108164523D02*
X163649819Y-108735951D01*
X163649819Y-108735951D02*
X163649819Y-108116904D01*
X157265952Y-88974819D02*
X156932619Y-88498628D01*
X156694524Y-88974819D02*
X156694524Y-87974819D01*
X156694524Y-87974819D02*
X157075476Y-87974819D01*
X157075476Y-87974819D02*
X157170714Y-88022438D01*
X157170714Y-88022438D02*
X157218333Y-88070057D01*
X157218333Y-88070057D02*
X157265952Y-88165295D01*
X157265952Y-88165295D02*
X157265952Y-88308152D01*
X157265952Y-88308152D02*
X157218333Y-88403390D01*
X157218333Y-88403390D02*
X157170714Y-88451009D01*
X157170714Y-88451009D02*
X157075476Y-88498628D01*
X157075476Y-88498628D02*
X156694524Y-88498628D01*
X158123095Y-88308152D02*
X158123095Y-88974819D01*
X157885000Y-87927200D02*
X157646905Y-88641485D01*
X157646905Y-88641485D02*
X158265952Y-88641485D01*
X158837381Y-87974819D02*
X158932619Y-87974819D01*
X158932619Y-87974819D02*
X159027857Y-88022438D01*
X159027857Y-88022438D02*
X159075476Y-88070057D01*
X159075476Y-88070057D02*
X159123095Y-88165295D01*
X159123095Y-88165295D02*
X159170714Y-88355771D01*
X159170714Y-88355771D02*
X159170714Y-88593866D01*
X159170714Y-88593866D02*
X159123095Y-88784342D01*
X159123095Y-88784342D02*
X159075476Y-88879580D01*
X159075476Y-88879580D02*
X159027857Y-88927200D01*
X159027857Y-88927200D02*
X158932619Y-88974819D01*
X158932619Y-88974819D02*
X158837381Y-88974819D01*
X158837381Y-88974819D02*
X158742143Y-88927200D01*
X158742143Y-88927200D02*
X158694524Y-88879580D01*
X158694524Y-88879580D02*
X158646905Y-88784342D01*
X158646905Y-88784342D02*
X158599286Y-88593866D01*
X158599286Y-88593866D02*
X158599286Y-88355771D01*
X158599286Y-88355771D02*
X158646905Y-88165295D01*
X158646905Y-88165295D02*
X158694524Y-88070057D01*
X158694524Y-88070057D02*
X158742143Y-88022438D01*
X158742143Y-88022438D02*
X158837381Y-87974819D01*
X160027857Y-87974819D02*
X159837381Y-87974819D01*
X159837381Y-87974819D02*
X159742143Y-88022438D01*
X159742143Y-88022438D02*
X159694524Y-88070057D01*
X159694524Y-88070057D02*
X159599286Y-88212914D01*
X159599286Y-88212914D02*
X159551667Y-88403390D01*
X159551667Y-88403390D02*
X159551667Y-88784342D01*
X159551667Y-88784342D02*
X159599286Y-88879580D01*
X159599286Y-88879580D02*
X159646905Y-88927200D01*
X159646905Y-88927200D02*
X159742143Y-88974819D01*
X159742143Y-88974819D02*
X159932619Y-88974819D01*
X159932619Y-88974819D02*
X160027857Y-88927200D01*
X160027857Y-88927200D02*
X160075476Y-88879580D01*
X160075476Y-88879580D02*
X160123095Y-88784342D01*
X160123095Y-88784342D02*
X160123095Y-88546247D01*
X160123095Y-88546247D02*
X160075476Y-88451009D01*
X160075476Y-88451009D02*
X160027857Y-88403390D01*
X160027857Y-88403390D02*
X159932619Y-88355771D01*
X159932619Y-88355771D02*
X159742143Y-88355771D01*
X159742143Y-88355771D02*
X159646905Y-88403390D01*
X159646905Y-88403390D02*
X159599286Y-88451009D01*
X159599286Y-88451009D02*
X159551667Y-88546247D01*
X146907380Y-72305057D02*
X146812142Y-72257438D01*
X146812142Y-72257438D02*
X146716904Y-72162200D01*
X146716904Y-72162200D02*
X146574047Y-72019342D01*
X146574047Y-72019342D02*
X146478809Y-71971723D01*
X146478809Y-71971723D02*
X146383571Y-71971723D01*
X146431190Y-72209819D02*
X146335952Y-72162200D01*
X146335952Y-72162200D02*
X146240714Y-72066961D01*
X146240714Y-72066961D02*
X146193095Y-71876485D01*
X146193095Y-71876485D02*
X146193095Y-71543152D01*
X146193095Y-71543152D02*
X146240714Y-71352676D01*
X146240714Y-71352676D02*
X146335952Y-71257438D01*
X146335952Y-71257438D02*
X146431190Y-71209819D01*
X146431190Y-71209819D02*
X146621666Y-71209819D01*
X146621666Y-71209819D02*
X146716904Y-71257438D01*
X146716904Y-71257438D02*
X146812142Y-71352676D01*
X146812142Y-71352676D02*
X146859761Y-71543152D01*
X146859761Y-71543152D02*
X146859761Y-71876485D01*
X146859761Y-71876485D02*
X146812142Y-72066961D01*
X146812142Y-72066961D02*
X146716904Y-72162200D01*
X146716904Y-72162200D02*
X146621666Y-72209819D01*
X146621666Y-72209819D02*
X146431190Y-72209819D01*
X147240714Y-71305057D02*
X147288333Y-71257438D01*
X147288333Y-71257438D02*
X147383571Y-71209819D01*
X147383571Y-71209819D02*
X147621666Y-71209819D01*
X147621666Y-71209819D02*
X147716904Y-71257438D01*
X147716904Y-71257438D02*
X147764523Y-71305057D01*
X147764523Y-71305057D02*
X147812142Y-71400295D01*
X147812142Y-71400295D02*
X147812142Y-71495533D01*
X147812142Y-71495533D02*
X147764523Y-71638390D01*
X147764523Y-71638390D02*
X147193095Y-72209819D01*
X147193095Y-72209819D02*
X147812142Y-72209819D01*
X148431190Y-71209819D02*
X148526428Y-71209819D01*
X148526428Y-71209819D02*
X148621666Y-71257438D01*
X148621666Y-71257438D02*
X148669285Y-71305057D01*
X148669285Y-71305057D02*
X148716904Y-71400295D01*
X148716904Y-71400295D02*
X148764523Y-71590771D01*
X148764523Y-71590771D02*
X148764523Y-71828866D01*
X148764523Y-71828866D02*
X148716904Y-72019342D01*
X148716904Y-72019342D02*
X148669285Y-72114580D01*
X148669285Y-72114580D02*
X148621666Y-72162200D01*
X148621666Y-72162200D02*
X148526428Y-72209819D01*
X148526428Y-72209819D02*
X148431190Y-72209819D01*
X148431190Y-72209819D02*
X148335952Y-72162200D01*
X148335952Y-72162200D02*
X148288333Y-72114580D01*
X148288333Y-72114580D02*
X148240714Y-72019342D01*
X148240714Y-72019342D02*
X148193095Y-71828866D01*
X148193095Y-71828866D02*
X148193095Y-71590771D01*
X148193095Y-71590771D02*
X148240714Y-71400295D01*
X148240714Y-71400295D02*
X148288333Y-71305057D01*
X148288333Y-71305057D02*
X148335952Y-71257438D01*
X148335952Y-71257438D02*
X148431190Y-71209819D01*
X149097857Y-71209819D02*
X149716904Y-71209819D01*
X149716904Y-71209819D02*
X149383571Y-71590771D01*
X149383571Y-71590771D02*
X149526428Y-71590771D01*
X149526428Y-71590771D02*
X149621666Y-71638390D01*
X149621666Y-71638390D02*
X149669285Y-71686009D01*
X149669285Y-71686009D02*
X149716904Y-71781247D01*
X149716904Y-71781247D02*
X149716904Y-72019342D01*
X149716904Y-72019342D02*
X149669285Y-72114580D01*
X149669285Y-72114580D02*
X149621666Y-72162200D01*
X149621666Y-72162200D02*
X149526428Y-72209819D01*
X149526428Y-72209819D02*
X149240714Y-72209819D01*
X149240714Y-72209819D02*
X149145476Y-72162200D01*
X149145476Y-72162200D02*
X149097857Y-72114580D01*
X154685480Y-95768847D02*
X154733100Y-95816466D01*
X154733100Y-95816466D02*
X154780719Y-95959323D01*
X154780719Y-95959323D02*
X154780719Y-96054561D01*
X154780719Y-96054561D02*
X154733100Y-96197418D01*
X154733100Y-96197418D02*
X154637861Y-96292656D01*
X154637861Y-96292656D02*
X154542623Y-96340275D01*
X154542623Y-96340275D02*
X154352147Y-96387894D01*
X154352147Y-96387894D02*
X154209290Y-96387894D01*
X154209290Y-96387894D02*
X154018814Y-96340275D01*
X154018814Y-96340275D02*
X153923576Y-96292656D01*
X153923576Y-96292656D02*
X153828338Y-96197418D01*
X153828338Y-96197418D02*
X153780719Y-96054561D01*
X153780719Y-96054561D02*
X153780719Y-95959323D01*
X153780719Y-95959323D02*
X153828338Y-95816466D01*
X153828338Y-95816466D02*
X153875957Y-95768847D01*
X154114052Y-94911704D02*
X154780719Y-94911704D01*
X153733100Y-95149799D02*
X154447385Y-95387894D01*
X154447385Y-95387894D02*
X154447385Y-94768847D01*
X153780719Y-94197418D02*
X153780719Y-94102180D01*
X153780719Y-94102180D02*
X153828338Y-94006942D01*
X153828338Y-94006942D02*
X153875957Y-93959323D01*
X153875957Y-93959323D02*
X153971195Y-93911704D01*
X153971195Y-93911704D02*
X154161671Y-93864085D01*
X154161671Y-93864085D02*
X154399766Y-93864085D01*
X154399766Y-93864085D02*
X154590242Y-93911704D01*
X154590242Y-93911704D02*
X154685480Y-93959323D01*
X154685480Y-93959323D02*
X154733100Y-94006942D01*
X154733100Y-94006942D02*
X154780719Y-94102180D01*
X154780719Y-94102180D02*
X154780719Y-94197418D01*
X154780719Y-94197418D02*
X154733100Y-94292656D01*
X154733100Y-94292656D02*
X154685480Y-94340275D01*
X154685480Y-94340275D02*
X154590242Y-94387894D01*
X154590242Y-94387894D02*
X154399766Y-94435513D01*
X154399766Y-94435513D02*
X154161671Y-94435513D01*
X154161671Y-94435513D02*
X153971195Y-94387894D01*
X153971195Y-94387894D02*
X153875957Y-94340275D01*
X153875957Y-94340275D02*
X153828338Y-94292656D01*
X153828338Y-94292656D02*
X153780719Y-94197418D01*
X154780719Y-92911704D02*
X154780719Y-93483132D01*
X154780719Y-93197418D02*
X153780719Y-93197418D01*
X153780719Y-93197418D02*
X153923576Y-93292656D01*
X153923576Y-93292656D02*
X154018814Y-93387894D01*
X154018814Y-93387894D02*
X154066433Y-93483132D01*
X151184226Y-116285965D02*
X151184226Y-115285965D01*
X151184226Y-115285965D02*
X151422321Y-115285965D01*
X151422321Y-115285965D02*
X151565178Y-115333584D01*
X151565178Y-115333584D02*
X151660416Y-115428822D01*
X151660416Y-115428822D02*
X151708035Y-115524060D01*
X151708035Y-115524060D02*
X151755654Y-115714536D01*
X151755654Y-115714536D02*
X151755654Y-115857393D01*
X151755654Y-115857393D02*
X151708035Y-116047869D01*
X151708035Y-116047869D02*
X151660416Y-116143107D01*
X151660416Y-116143107D02*
X151565178Y-116238346D01*
X151565178Y-116238346D02*
X151422321Y-116285965D01*
X151422321Y-116285965D02*
X151184226Y-116285965D01*
X152660416Y-115285965D02*
X152184226Y-115285965D01*
X152184226Y-115285965D02*
X152136607Y-115762155D01*
X152136607Y-115762155D02*
X152184226Y-115714536D01*
X152184226Y-115714536D02*
X152279464Y-115666917D01*
X152279464Y-115666917D02*
X152517559Y-115666917D01*
X152517559Y-115666917D02*
X152612797Y-115714536D01*
X152612797Y-115714536D02*
X152660416Y-115762155D01*
X152660416Y-115762155D02*
X152708035Y-115857393D01*
X152708035Y-115857393D02*
X152708035Y-116095488D01*
X152708035Y-116095488D02*
X152660416Y-116190726D01*
X152660416Y-116190726D02*
X152612797Y-116238346D01*
X152612797Y-116238346D02*
X152517559Y-116285965D01*
X152517559Y-116285965D02*
X152279464Y-116285965D01*
X152279464Y-116285965D02*
X152184226Y-116238346D01*
X152184226Y-116238346D02*
X152136607Y-116190726D01*
X153327083Y-115285965D02*
X153422321Y-115285965D01*
X153422321Y-115285965D02*
X153517559Y-115333584D01*
X153517559Y-115333584D02*
X153565178Y-115381203D01*
X153565178Y-115381203D02*
X153612797Y-115476441D01*
X153612797Y-115476441D02*
X153660416Y-115666917D01*
X153660416Y-115666917D02*
X153660416Y-115905012D01*
X153660416Y-115905012D02*
X153612797Y-116095488D01*
X153612797Y-116095488D02*
X153565178Y-116190726D01*
X153565178Y-116190726D02*
X153517559Y-116238346D01*
X153517559Y-116238346D02*
X153422321Y-116285965D01*
X153422321Y-116285965D02*
X153327083Y-116285965D01*
X153327083Y-116285965D02*
X153231845Y-116238346D01*
X153231845Y-116238346D02*
X153184226Y-116190726D01*
X153184226Y-116190726D02*
X153136607Y-116095488D01*
X153136607Y-116095488D02*
X153088988Y-115905012D01*
X153088988Y-115905012D02*
X153088988Y-115666917D01*
X153088988Y-115666917D02*
X153136607Y-115476441D01*
X153136607Y-115476441D02*
X153184226Y-115381203D01*
X153184226Y-115381203D02*
X153231845Y-115333584D01*
X153231845Y-115333584D02*
X153327083Y-115285965D01*
X154041369Y-115381203D02*
X154088988Y-115333584D01*
X154088988Y-115333584D02*
X154184226Y-115285965D01*
X154184226Y-115285965D02*
X154422321Y-115285965D01*
X154422321Y-115285965D02*
X154517559Y-115333584D01*
X154517559Y-115333584D02*
X154565178Y-115381203D01*
X154565178Y-115381203D02*
X154612797Y-115476441D01*
X154612797Y-115476441D02*
X154612797Y-115571679D01*
X154612797Y-115571679D02*
X154565178Y-115714536D01*
X154565178Y-115714536D02*
X153993750Y-116285965D01*
X153993750Y-116285965D02*
X154612797Y-116285965D01*
X138414285Y-115024819D02*
X138414285Y-115739104D01*
X138414285Y-115739104D02*
X138366666Y-115881961D01*
X138366666Y-115881961D02*
X138271428Y-115977200D01*
X138271428Y-115977200D02*
X138128571Y-116024819D01*
X138128571Y-116024819D02*
X138033333Y-116024819D01*
X139414285Y-116024819D02*
X138842857Y-116024819D01*
X139128571Y-116024819D02*
X139128571Y-115024819D01*
X139128571Y-115024819D02*
X139033333Y-115167676D01*
X139033333Y-115167676D02*
X138938095Y-115262914D01*
X138938095Y-115262914D02*
X138842857Y-115310533D01*
X140033333Y-115024819D02*
X140128571Y-115024819D01*
X140128571Y-115024819D02*
X140223809Y-115072438D01*
X140223809Y-115072438D02*
X140271428Y-115120057D01*
X140271428Y-115120057D02*
X140319047Y-115215295D01*
X140319047Y-115215295D02*
X140366666Y-115405771D01*
X140366666Y-115405771D02*
X140366666Y-115643866D01*
X140366666Y-115643866D02*
X140319047Y-115834342D01*
X140319047Y-115834342D02*
X140271428Y-115929580D01*
X140271428Y-115929580D02*
X140223809Y-115977200D01*
X140223809Y-115977200D02*
X140128571Y-116024819D01*
X140128571Y-116024819D02*
X140033333Y-116024819D01*
X140033333Y-116024819D02*
X139938095Y-115977200D01*
X139938095Y-115977200D02*
X139890476Y-115929580D01*
X139890476Y-115929580D02*
X139842857Y-115834342D01*
X139842857Y-115834342D02*
X139795238Y-115643866D01*
X139795238Y-115643866D02*
X139795238Y-115405771D01*
X139795238Y-115405771D02*
X139842857Y-115215295D01*
X139842857Y-115215295D02*
X139890476Y-115120057D01*
X139890476Y-115120057D02*
X139938095Y-115072438D01*
X139938095Y-115072438D02*
X140033333Y-115024819D01*
X141319047Y-116024819D02*
X140747619Y-116024819D01*
X141033333Y-116024819D02*
X141033333Y-115024819D01*
X141033333Y-115024819D02*
X140938095Y-115167676D01*
X140938095Y-115167676D02*
X140842857Y-115262914D01*
X140842857Y-115262914D02*
X140747619Y-115310533D01*
X143025952Y-70304819D02*
X142692619Y-69828628D01*
X142454524Y-70304819D02*
X142454524Y-69304819D01*
X142454524Y-69304819D02*
X142835476Y-69304819D01*
X142835476Y-69304819D02*
X142930714Y-69352438D01*
X142930714Y-69352438D02*
X142978333Y-69400057D01*
X142978333Y-69400057D02*
X143025952Y-69495295D01*
X143025952Y-69495295D02*
X143025952Y-69638152D01*
X143025952Y-69638152D02*
X142978333Y-69733390D01*
X142978333Y-69733390D02*
X142930714Y-69781009D01*
X142930714Y-69781009D02*
X142835476Y-69828628D01*
X142835476Y-69828628D02*
X142454524Y-69828628D01*
X143406905Y-69400057D02*
X143454524Y-69352438D01*
X143454524Y-69352438D02*
X143549762Y-69304819D01*
X143549762Y-69304819D02*
X143787857Y-69304819D01*
X143787857Y-69304819D02*
X143883095Y-69352438D01*
X143883095Y-69352438D02*
X143930714Y-69400057D01*
X143930714Y-69400057D02*
X143978333Y-69495295D01*
X143978333Y-69495295D02*
X143978333Y-69590533D01*
X143978333Y-69590533D02*
X143930714Y-69733390D01*
X143930714Y-69733390D02*
X143359286Y-70304819D01*
X143359286Y-70304819D02*
X143978333Y-70304819D01*
X144597381Y-69304819D02*
X144692619Y-69304819D01*
X144692619Y-69304819D02*
X144787857Y-69352438D01*
X144787857Y-69352438D02*
X144835476Y-69400057D01*
X144835476Y-69400057D02*
X144883095Y-69495295D01*
X144883095Y-69495295D02*
X144930714Y-69685771D01*
X144930714Y-69685771D02*
X144930714Y-69923866D01*
X144930714Y-69923866D02*
X144883095Y-70114342D01*
X144883095Y-70114342D02*
X144835476Y-70209580D01*
X144835476Y-70209580D02*
X144787857Y-70257200D01*
X144787857Y-70257200D02*
X144692619Y-70304819D01*
X144692619Y-70304819D02*
X144597381Y-70304819D01*
X144597381Y-70304819D02*
X144502143Y-70257200D01*
X144502143Y-70257200D02*
X144454524Y-70209580D01*
X144454524Y-70209580D02*
X144406905Y-70114342D01*
X144406905Y-70114342D02*
X144359286Y-69923866D01*
X144359286Y-69923866D02*
X144359286Y-69685771D01*
X144359286Y-69685771D02*
X144406905Y-69495295D01*
X144406905Y-69495295D02*
X144454524Y-69400057D01*
X144454524Y-69400057D02*
X144502143Y-69352438D01*
X144502143Y-69352438D02*
X144597381Y-69304819D01*
X145883095Y-70304819D02*
X145311667Y-70304819D01*
X145597381Y-70304819D02*
X145597381Y-69304819D01*
X145597381Y-69304819D02*
X145502143Y-69447676D01*
X145502143Y-69447676D02*
X145406905Y-69542914D01*
X145406905Y-69542914D02*
X145311667Y-69590533D01*
X159805952Y-75004819D02*
X159472619Y-74528628D01*
X159234524Y-75004819D02*
X159234524Y-74004819D01*
X159234524Y-74004819D02*
X159615476Y-74004819D01*
X159615476Y-74004819D02*
X159710714Y-74052438D01*
X159710714Y-74052438D02*
X159758333Y-74100057D01*
X159758333Y-74100057D02*
X159805952Y-74195295D01*
X159805952Y-74195295D02*
X159805952Y-74338152D01*
X159805952Y-74338152D02*
X159758333Y-74433390D01*
X159758333Y-74433390D02*
X159710714Y-74481009D01*
X159710714Y-74481009D02*
X159615476Y-74528628D01*
X159615476Y-74528628D02*
X159234524Y-74528628D01*
X160186905Y-74100057D02*
X160234524Y-74052438D01*
X160234524Y-74052438D02*
X160329762Y-74004819D01*
X160329762Y-74004819D02*
X160567857Y-74004819D01*
X160567857Y-74004819D02*
X160663095Y-74052438D01*
X160663095Y-74052438D02*
X160710714Y-74100057D01*
X160710714Y-74100057D02*
X160758333Y-74195295D01*
X160758333Y-74195295D02*
X160758333Y-74290533D01*
X160758333Y-74290533D02*
X160710714Y-74433390D01*
X160710714Y-74433390D02*
X160139286Y-75004819D01*
X160139286Y-75004819D02*
X160758333Y-75004819D01*
X161377381Y-74004819D02*
X161472619Y-74004819D01*
X161472619Y-74004819D02*
X161567857Y-74052438D01*
X161567857Y-74052438D02*
X161615476Y-74100057D01*
X161615476Y-74100057D02*
X161663095Y-74195295D01*
X161663095Y-74195295D02*
X161710714Y-74385771D01*
X161710714Y-74385771D02*
X161710714Y-74623866D01*
X161710714Y-74623866D02*
X161663095Y-74814342D01*
X161663095Y-74814342D02*
X161615476Y-74909580D01*
X161615476Y-74909580D02*
X161567857Y-74957200D01*
X161567857Y-74957200D02*
X161472619Y-75004819D01*
X161472619Y-75004819D02*
X161377381Y-75004819D01*
X161377381Y-75004819D02*
X161282143Y-74957200D01*
X161282143Y-74957200D02*
X161234524Y-74909580D01*
X161234524Y-74909580D02*
X161186905Y-74814342D01*
X161186905Y-74814342D02*
X161139286Y-74623866D01*
X161139286Y-74623866D02*
X161139286Y-74385771D01*
X161139286Y-74385771D02*
X161186905Y-74195295D01*
X161186905Y-74195295D02*
X161234524Y-74100057D01*
X161234524Y-74100057D02*
X161282143Y-74052438D01*
X161282143Y-74052438D02*
X161377381Y-74004819D01*
X162567857Y-74338152D02*
X162567857Y-75004819D01*
X162329762Y-73957200D02*
X162091667Y-74671485D01*
X162091667Y-74671485D02*
X162710714Y-74671485D01*
X138580952Y-70304819D02*
X138247619Y-69828628D01*
X138009524Y-70304819D02*
X138009524Y-69304819D01*
X138009524Y-69304819D02*
X138390476Y-69304819D01*
X138390476Y-69304819D02*
X138485714Y-69352438D01*
X138485714Y-69352438D02*
X138533333Y-69400057D01*
X138533333Y-69400057D02*
X138580952Y-69495295D01*
X138580952Y-69495295D02*
X138580952Y-69638152D01*
X138580952Y-69638152D02*
X138533333Y-69733390D01*
X138533333Y-69733390D02*
X138485714Y-69781009D01*
X138485714Y-69781009D02*
X138390476Y-69828628D01*
X138390476Y-69828628D02*
X138009524Y-69828628D01*
X138961905Y-69400057D02*
X139009524Y-69352438D01*
X139009524Y-69352438D02*
X139104762Y-69304819D01*
X139104762Y-69304819D02*
X139342857Y-69304819D01*
X139342857Y-69304819D02*
X139438095Y-69352438D01*
X139438095Y-69352438D02*
X139485714Y-69400057D01*
X139485714Y-69400057D02*
X139533333Y-69495295D01*
X139533333Y-69495295D02*
X139533333Y-69590533D01*
X139533333Y-69590533D02*
X139485714Y-69733390D01*
X139485714Y-69733390D02*
X138914286Y-70304819D01*
X138914286Y-70304819D02*
X139533333Y-70304819D01*
X140152381Y-69304819D02*
X140247619Y-69304819D01*
X140247619Y-69304819D02*
X140342857Y-69352438D01*
X140342857Y-69352438D02*
X140390476Y-69400057D01*
X140390476Y-69400057D02*
X140438095Y-69495295D01*
X140438095Y-69495295D02*
X140485714Y-69685771D01*
X140485714Y-69685771D02*
X140485714Y-69923866D01*
X140485714Y-69923866D02*
X140438095Y-70114342D01*
X140438095Y-70114342D02*
X140390476Y-70209580D01*
X140390476Y-70209580D02*
X140342857Y-70257200D01*
X140342857Y-70257200D02*
X140247619Y-70304819D01*
X140247619Y-70304819D02*
X140152381Y-70304819D01*
X140152381Y-70304819D02*
X140057143Y-70257200D01*
X140057143Y-70257200D02*
X140009524Y-70209580D01*
X140009524Y-70209580D02*
X139961905Y-70114342D01*
X139961905Y-70114342D02*
X139914286Y-69923866D01*
X139914286Y-69923866D02*
X139914286Y-69685771D01*
X139914286Y-69685771D02*
X139961905Y-69495295D01*
X139961905Y-69495295D02*
X140009524Y-69400057D01*
X140009524Y-69400057D02*
X140057143Y-69352438D01*
X140057143Y-69352438D02*
X140152381Y-69304819D01*
X140866667Y-69400057D02*
X140914286Y-69352438D01*
X140914286Y-69352438D02*
X141009524Y-69304819D01*
X141009524Y-69304819D02*
X141247619Y-69304819D01*
X141247619Y-69304819D02*
X141342857Y-69352438D01*
X141342857Y-69352438D02*
X141390476Y-69400057D01*
X141390476Y-69400057D02*
X141438095Y-69495295D01*
X141438095Y-69495295D02*
X141438095Y-69590533D01*
X141438095Y-69590533D02*
X141390476Y-69733390D01*
X141390476Y-69733390D02*
X140819048Y-70304819D01*
X140819048Y-70304819D02*
X141438095Y-70304819D01*
X140154819Y-86209047D02*
X139678628Y-86542380D01*
X140154819Y-86780475D02*
X139154819Y-86780475D01*
X139154819Y-86780475D02*
X139154819Y-86399523D01*
X139154819Y-86399523D02*
X139202438Y-86304285D01*
X139202438Y-86304285D02*
X139250057Y-86256666D01*
X139250057Y-86256666D02*
X139345295Y-86209047D01*
X139345295Y-86209047D02*
X139488152Y-86209047D01*
X139488152Y-86209047D02*
X139583390Y-86256666D01*
X139583390Y-86256666D02*
X139631009Y-86304285D01*
X139631009Y-86304285D02*
X139678628Y-86399523D01*
X139678628Y-86399523D02*
X139678628Y-86780475D01*
X139154819Y-85875713D02*
X139154819Y-85256666D01*
X139154819Y-85256666D02*
X139535771Y-85589999D01*
X139535771Y-85589999D02*
X139535771Y-85447142D01*
X139535771Y-85447142D02*
X139583390Y-85351904D01*
X139583390Y-85351904D02*
X139631009Y-85304285D01*
X139631009Y-85304285D02*
X139726247Y-85256666D01*
X139726247Y-85256666D02*
X139964342Y-85256666D01*
X139964342Y-85256666D02*
X140059580Y-85304285D01*
X140059580Y-85304285D02*
X140107200Y-85351904D01*
X140107200Y-85351904D02*
X140154819Y-85447142D01*
X140154819Y-85447142D02*
X140154819Y-85732856D01*
X140154819Y-85732856D02*
X140107200Y-85828094D01*
X140107200Y-85828094D02*
X140059580Y-85875713D01*
X139154819Y-84637618D02*
X139154819Y-84542380D01*
X139154819Y-84542380D02*
X139202438Y-84447142D01*
X139202438Y-84447142D02*
X139250057Y-84399523D01*
X139250057Y-84399523D02*
X139345295Y-84351904D01*
X139345295Y-84351904D02*
X139535771Y-84304285D01*
X139535771Y-84304285D02*
X139773866Y-84304285D01*
X139773866Y-84304285D02*
X139964342Y-84351904D01*
X139964342Y-84351904D02*
X140059580Y-84399523D01*
X140059580Y-84399523D02*
X140107200Y-84447142D01*
X140107200Y-84447142D02*
X140154819Y-84542380D01*
X140154819Y-84542380D02*
X140154819Y-84637618D01*
X140154819Y-84637618D02*
X140107200Y-84732856D01*
X140107200Y-84732856D02*
X140059580Y-84780475D01*
X140059580Y-84780475D02*
X139964342Y-84828094D01*
X139964342Y-84828094D02*
X139773866Y-84875713D01*
X139773866Y-84875713D02*
X139535771Y-84875713D01*
X139535771Y-84875713D02*
X139345295Y-84828094D01*
X139345295Y-84828094D02*
X139250057Y-84780475D01*
X139250057Y-84780475D02*
X139202438Y-84732856D01*
X139202438Y-84732856D02*
X139154819Y-84637618D01*
X139154819Y-83970951D02*
X139154819Y-83304285D01*
X139154819Y-83304285D02*
X140154819Y-83732856D01*
X143309367Y-89515423D02*
X143309367Y-88515423D01*
X143309367Y-88515423D02*
X143547462Y-88515423D01*
X143547462Y-88515423D02*
X143690319Y-88563042D01*
X143690319Y-88563042D02*
X143785557Y-88658280D01*
X143785557Y-88658280D02*
X143833176Y-88753518D01*
X143833176Y-88753518D02*
X143880795Y-88943994D01*
X143880795Y-88943994D02*
X143880795Y-89086851D01*
X143880795Y-89086851D02*
X143833176Y-89277327D01*
X143833176Y-89277327D02*
X143785557Y-89372565D01*
X143785557Y-89372565D02*
X143690319Y-89467804D01*
X143690319Y-89467804D02*
X143547462Y-89515423D01*
X143547462Y-89515423D02*
X143309367Y-89515423D01*
X144833176Y-89515423D02*
X144261748Y-89515423D01*
X144547462Y-89515423D02*
X144547462Y-88515423D01*
X144547462Y-88515423D02*
X144452224Y-88658280D01*
X144452224Y-88658280D02*
X144356986Y-88753518D01*
X144356986Y-88753518D02*
X144261748Y-88801137D01*
X145452224Y-88515423D02*
X145547462Y-88515423D01*
X145547462Y-88515423D02*
X145642700Y-88563042D01*
X145642700Y-88563042D02*
X145690319Y-88610661D01*
X145690319Y-88610661D02*
X145737938Y-88705899D01*
X145737938Y-88705899D02*
X145785557Y-88896375D01*
X145785557Y-88896375D02*
X145785557Y-89134470D01*
X145785557Y-89134470D02*
X145737938Y-89324946D01*
X145737938Y-89324946D02*
X145690319Y-89420184D01*
X145690319Y-89420184D02*
X145642700Y-89467804D01*
X145642700Y-89467804D02*
X145547462Y-89515423D01*
X145547462Y-89515423D02*
X145452224Y-89515423D01*
X145452224Y-89515423D02*
X145356986Y-89467804D01*
X145356986Y-89467804D02*
X145309367Y-89420184D01*
X145309367Y-89420184D02*
X145261748Y-89324946D01*
X145261748Y-89324946D02*
X145214129Y-89134470D01*
X145214129Y-89134470D02*
X145214129Y-88896375D01*
X145214129Y-88896375D02*
X145261748Y-88705899D01*
X145261748Y-88705899D02*
X145309367Y-88610661D01*
X145309367Y-88610661D02*
X145356986Y-88563042D01*
X145356986Y-88563042D02*
X145452224Y-88515423D01*
X146118891Y-88515423D02*
X146737938Y-88515423D01*
X146737938Y-88515423D02*
X146404605Y-88896375D01*
X146404605Y-88896375D02*
X146547462Y-88896375D01*
X146547462Y-88896375D02*
X146642700Y-88943994D01*
X146642700Y-88943994D02*
X146690319Y-88991613D01*
X146690319Y-88991613D02*
X146737938Y-89086851D01*
X146737938Y-89086851D02*
X146737938Y-89324946D01*
X146737938Y-89324946D02*
X146690319Y-89420184D01*
X146690319Y-89420184D02*
X146642700Y-89467804D01*
X146642700Y-89467804D02*
X146547462Y-89515423D01*
X146547462Y-89515423D02*
X146261748Y-89515423D01*
X146261748Y-89515423D02*
X146166510Y-89467804D01*
X146166510Y-89467804D02*
X146118891Y-89420184D01*
X146249819Y-83399047D02*
X145773628Y-83732380D01*
X146249819Y-83970475D02*
X145249819Y-83970475D01*
X145249819Y-83970475D02*
X145249819Y-83589523D01*
X145249819Y-83589523D02*
X145297438Y-83494285D01*
X145297438Y-83494285D02*
X145345057Y-83446666D01*
X145345057Y-83446666D02*
X145440295Y-83399047D01*
X145440295Y-83399047D02*
X145583152Y-83399047D01*
X145583152Y-83399047D02*
X145678390Y-83446666D01*
X145678390Y-83446666D02*
X145726009Y-83494285D01*
X145726009Y-83494285D02*
X145773628Y-83589523D01*
X145773628Y-83589523D02*
X145773628Y-83970475D01*
X145345057Y-83018094D02*
X145297438Y-82970475D01*
X145297438Y-82970475D02*
X145249819Y-82875237D01*
X145249819Y-82875237D02*
X145249819Y-82637142D01*
X145249819Y-82637142D02*
X145297438Y-82541904D01*
X145297438Y-82541904D02*
X145345057Y-82494285D01*
X145345057Y-82494285D02*
X145440295Y-82446666D01*
X145440295Y-82446666D02*
X145535533Y-82446666D01*
X145535533Y-82446666D02*
X145678390Y-82494285D01*
X145678390Y-82494285D02*
X146249819Y-83065713D01*
X146249819Y-83065713D02*
X146249819Y-82446666D01*
X145249819Y-81827618D02*
X145249819Y-81732380D01*
X145249819Y-81732380D02*
X145297438Y-81637142D01*
X145297438Y-81637142D02*
X145345057Y-81589523D01*
X145345057Y-81589523D02*
X145440295Y-81541904D01*
X145440295Y-81541904D02*
X145630771Y-81494285D01*
X145630771Y-81494285D02*
X145868866Y-81494285D01*
X145868866Y-81494285D02*
X146059342Y-81541904D01*
X146059342Y-81541904D02*
X146154580Y-81589523D01*
X146154580Y-81589523D02*
X146202200Y-81637142D01*
X146202200Y-81637142D02*
X146249819Y-81732380D01*
X146249819Y-81732380D02*
X146249819Y-81827618D01*
X146249819Y-81827618D02*
X146202200Y-81922856D01*
X146202200Y-81922856D02*
X146154580Y-81970475D01*
X146154580Y-81970475D02*
X146059342Y-82018094D01*
X146059342Y-82018094D02*
X145868866Y-82065713D01*
X145868866Y-82065713D02*
X145630771Y-82065713D01*
X145630771Y-82065713D02*
X145440295Y-82018094D01*
X145440295Y-82018094D02*
X145345057Y-81970475D01*
X145345057Y-81970475D02*
X145297438Y-81922856D01*
X145297438Y-81922856D02*
X145249819Y-81827618D01*
X145249819Y-80589523D02*
X145249819Y-81065713D01*
X145249819Y-81065713D02*
X145726009Y-81113332D01*
X145726009Y-81113332D02*
X145678390Y-81065713D01*
X145678390Y-81065713D02*
X145630771Y-80970475D01*
X145630771Y-80970475D02*
X145630771Y-80732380D01*
X145630771Y-80732380D02*
X145678390Y-80637142D01*
X145678390Y-80637142D02*
X145726009Y-80589523D01*
X145726009Y-80589523D02*
X145821247Y-80541904D01*
X145821247Y-80541904D02*
X146059342Y-80541904D01*
X146059342Y-80541904D02*
X146154580Y-80589523D01*
X146154580Y-80589523D02*
X146202200Y-80637142D01*
X146202200Y-80637142D02*
X146249819Y-80732380D01*
X146249819Y-80732380D02*
X146249819Y-80970475D01*
X146249819Y-80970475D02*
X146202200Y-81065713D01*
X146202200Y-81065713D02*
X146154580Y-81113332D01*
X156002126Y-101789669D02*
X155668793Y-101313478D01*
X155430698Y-101789669D02*
X155430698Y-100789669D01*
X155430698Y-100789669D02*
X155811650Y-100789669D01*
X155811650Y-100789669D02*
X155906888Y-100837288D01*
X155906888Y-100837288D02*
X155954507Y-100884907D01*
X155954507Y-100884907D02*
X156002126Y-100980145D01*
X156002126Y-100980145D02*
X156002126Y-101123002D01*
X156002126Y-101123002D02*
X155954507Y-101218240D01*
X155954507Y-101218240D02*
X155906888Y-101265859D01*
X155906888Y-101265859D02*
X155811650Y-101313478D01*
X155811650Y-101313478D02*
X155430698Y-101313478D01*
X156859269Y-101123002D02*
X156859269Y-101789669D01*
X156621174Y-100742050D02*
X156383079Y-101456335D01*
X156383079Y-101456335D02*
X157002126Y-101456335D01*
X157573555Y-100789669D02*
X157668793Y-100789669D01*
X157668793Y-100789669D02*
X157764031Y-100837288D01*
X157764031Y-100837288D02*
X157811650Y-100884907D01*
X157811650Y-100884907D02*
X157859269Y-100980145D01*
X157859269Y-100980145D02*
X157906888Y-101170621D01*
X157906888Y-101170621D02*
X157906888Y-101408716D01*
X157906888Y-101408716D02*
X157859269Y-101599192D01*
X157859269Y-101599192D02*
X157811650Y-101694430D01*
X157811650Y-101694430D02*
X157764031Y-101742050D01*
X157764031Y-101742050D02*
X157668793Y-101789669D01*
X157668793Y-101789669D02*
X157573555Y-101789669D01*
X157573555Y-101789669D02*
X157478317Y-101742050D01*
X157478317Y-101742050D02*
X157430698Y-101694430D01*
X157430698Y-101694430D02*
X157383079Y-101599192D01*
X157383079Y-101599192D02*
X157335460Y-101408716D01*
X157335460Y-101408716D02*
X157335460Y-101170621D01*
X157335460Y-101170621D02*
X157383079Y-100980145D01*
X157383079Y-100980145D02*
X157430698Y-100884907D01*
X157430698Y-100884907D02*
X157478317Y-100837288D01*
X157478317Y-100837288D02*
X157573555Y-100789669D01*
X158287841Y-100884907D02*
X158335460Y-100837288D01*
X158335460Y-100837288D02*
X158430698Y-100789669D01*
X158430698Y-100789669D02*
X158668793Y-100789669D01*
X158668793Y-100789669D02*
X158764031Y-100837288D01*
X158764031Y-100837288D02*
X158811650Y-100884907D01*
X158811650Y-100884907D02*
X158859269Y-100980145D01*
X158859269Y-100980145D02*
X158859269Y-101075383D01*
X158859269Y-101075383D02*
X158811650Y-101218240D01*
X158811650Y-101218240D02*
X158240222Y-101789669D01*
X158240222Y-101789669D02*
X158859269Y-101789669D01*
X140154819Y-81129047D02*
X139678628Y-81462380D01*
X140154819Y-81700475D02*
X139154819Y-81700475D01*
X139154819Y-81700475D02*
X139154819Y-81319523D01*
X139154819Y-81319523D02*
X139202438Y-81224285D01*
X139202438Y-81224285D02*
X139250057Y-81176666D01*
X139250057Y-81176666D02*
X139345295Y-81129047D01*
X139345295Y-81129047D02*
X139488152Y-81129047D01*
X139488152Y-81129047D02*
X139583390Y-81176666D01*
X139583390Y-81176666D02*
X139631009Y-81224285D01*
X139631009Y-81224285D02*
X139678628Y-81319523D01*
X139678628Y-81319523D02*
X139678628Y-81700475D01*
X139154819Y-80795713D02*
X139154819Y-80176666D01*
X139154819Y-80176666D02*
X139535771Y-80509999D01*
X139535771Y-80509999D02*
X139535771Y-80367142D01*
X139535771Y-80367142D02*
X139583390Y-80271904D01*
X139583390Y-80271904D02*
X139631009Y-80224285D01*
X139631009Y-80224285D02*
X139726247Y-80176666D01*
X139726247Y-80176666D02*
X139964342Y-80176666D01*
X139964342Y-80176666D02*
X140059580Y-80224285D01*
X140059580Y-80224285D02*
X140107200Y-80271904D01*
X140107200Y-80271904D02*
X140154819Y-80367142D01*
X140154819Y-80367142D02*
X140154819Y-80652856D01*
X140154819Y-80652856D02*
X140107200Y-80748094D01*
X140107200Y-80748094D02*
X140059580Y-80795713D01*
X139154819Y-79557618D02*
X139154819Y-79462380D01*
X139154819Y-79462380D02*
X139202438Y-79367142D01*
X139202438Y-79367142D02*
X139250057Y-79319523D01*
X139250057Y-79319523D02*
X139345295Y-79271904D01*
X139345295Y-79271904D02*
X139535771Y-79224285D01*
X139535771Y-79224285D02*
X139773866Y-79224285D01*
X139773866Y-79224285D02*
X139964342Y-79271904D01*
X139964342Y-79271904D02*
X140059580Y-79319523D01*
X140059580Y-79319523D02*
X140107200Y-79367142D01*
X140107200Y-79367142D02*
X140154819Y-79462380D01*
X140154819Y-79462380D02*
X140154819Y-79557618D01*
X140154819Y-79557618D02*
X140107200Y-79652856D01*
X140107200Y-79652856D02*
X140059580Y-79700475D01*
X140059580Y-79700475D02*
X139964342Y-79748094D01*
X139964342Y-79748094D02*
X139773866Y-79795713D01*
X139773866Y-79795713D02*
X139535771Y-79795713D01*
X139535771Y-79795713D02*
X139345295Y-79748094D01*
X139345295Y-79748094D02*
X139250057Y-79700475D01*
X139250057Y-79700475D02*
X139202438Y-79652856D01*
X139202438Y-79652856D02*
X139154819Y-79557618D01*
X139154819Y-78367142D02*
X139154819Y-78557618D01*
X139154819Y-78557618D02*
X139202438Y-78652856D01*
X139202438Y-78652856D02*
X139250057Y-78700475D01*
X139250057Y-78700475D02*
X139392914Y-78795713D01*
X139392914Y-78795713D02*
X139583390Y-78843332D01*
X139583390Y-78843332D02*
X139964342Y-78843332D01*
X139964342Y-78843332D02*
X140059580Y-78795713D01*
X140059580Y-78795713D02*
X140107200Y-78748094D01*
X140107200Y-78748094D02*
X140154819Y-78652856D01*
X140154819Y-78652856D02*
X140154819Y-78462380D01*
X140154819Y-78462380D02*
X140107200Y-78367142D01*
X140107200Y-78367142D02*
X140059580Y-78319523D01*
X140059580Y-78319523D02*
X139964342Y-78271904D01*
X139964342Y-78271904D02*
X139726247Y-78271904D01*
X139726247Y-78271904D02*
X139631009Y-78319523D01*
X139631009Y-78319523D02*
X139583390Y-78367142D01*
X139583390Y-78367142D02*
X139535771Y-78462380D01*
X139535771Y-78462380D02*
X139535771Y-78652856D01*
X139535771Y-78652856D02*
X139583390Y-78748094D01*
X139583390Y-78748094D02*
X139631009Y-78795713D01*
X139631009Y-78795713D02*
X139726247Y-78843332D01*
X161440952Y-88974819D02*
X161107619Y-88498628D01*
X160869524Y-88974819D02*
X160869524Y-87974819D01*
X160869524Y-87974819D02*
X161250476Y-87974819D01*
X161250476Y-87974819D02*
X161345714Y-88022438D01*
X161345714Y-88022438D02*
X161393333Y-88070057D01*
X161393333Y-88070057D02*
X161440952Y-88165295D01*
X161440952Y-88165295D02*
X161440952Y-88308152D01*
X161440952Y-88308152D02*
X161393333Y-88403390D01*
X161393333Y-88403390D02*
X161345714Y-88451009D01*
X161345714Y-88451009D02*
X161250476Y-88498628D01*
X161250476Y-88498628D02*
X160869524Y-88498628D01*
X162298095Y-88308152D02*
X162298095Y-88974819D01*
X162060000Y-87927200D02*
X161821905Y-88641485D01*
X161821905Y-88641485D02*
X162440952Y-88641485D01*
X163012381Y-87974819D02*
X163107619Y-87974819D01*
X163107619Y-87974819D02*
X163202857Y-88022438D01*
X163202857Y-88022438D02*
X163250476Y-88070057D01*
X163250476Y-88070057D02*
X163298095Y-88165295D01*
X163298095Y-88165295D02*
X163345714Y-88355771D01*
X163345714Y-88355771D02*
X163345714Y-88593866D01*
X163345714Y-88593866D02*
X163298095Y-88784342D01*
X163298095Y-88784342D02*
X163250476Y-88879580D01*
X163250476Y-88879580D02*
X163202857Y-88927200D01*
X163202857Y-88927200D02*
X163107619Y-88974819D01*
X163107619Y-88974819D02*
X163012381Y-88974819D01*
X163012381Y-88974819D02*
X162917143Y-88927200D01*
X162917143Y-88927200D02*
X162869524Y-88879580D01*
X162869524Y-88879580D02*
X162821905Y-88784342D01*
X162821905Y-88784342D02*
X162774286Y-88593866D01*
X162774286Y-88593866D02*
X162774286Y-88355771D01*
X162774286Y-88355771D02*
X162821905Y-88165295D01*
X162821905Y-88165295D02*
X162869524Y-88070057D01*
X162869524Y-88070057D02*
X162917143Y-88022438D01*
X162917143Y-88022438D02*
X163012381Y-87974819D01*
X164250476Y-87974819D02*
X163774286Y-87974819D01*
X163774286Y-87974819D02*
X163726667Y-88451009D01*
X163726667Y-88451009D02*
X163774286Y-88403390D01*
X163774286Y-88403390D02*
X163869524Y-88355771D01*
X163869524Y-88355771D02*
X164107619Y-88355771D01*
X164107619Y-88355771D02*
X164202857Y-88403390D01*
X164202857Y-88403390D02*
X164250476Y-88451009D01*
X164250476Y-88451009D02*
X164298095Y-88546247D01*
X164298095Y-88546247D02*
X164298095Y-88784342D01*
X164298095Y-88784342D02*
X164250476Y-88879580D01*
X164250476Y-88879580D02*
X164202857Y-88927200D01*
X164202857Y-88927200D02*
X164107619Y-88974819D01*
X164107619Y-88974819D02*
X163869524Y-88974819D01*
X163869524Y-88974819D02*
X163774286Y-88927200D01*
X163774286Y-88927200D02*
X163726667Y-88879580D01*
X184874819Y-77485714D02*
X185589104Y-77485714D01*
X185589104Y-77485714D02*
X185731961Y-77533333D01*
X185731961Y-77533333D02*
X185827200Y-77628571D01*
X185827200Y-77628571D02*
X185874819Y-77771428D01*
X185874819Y-77771428D02*
X185874819Y-77866666D01*
X184970057Y-77057142D02*
X184922438Y-77009523D01*
X184922438Y-77009523D02*
X184874819Y-76914285D01*
X184874819Y-76914285D02*
X184874819Y-76676190D01*
X184874819Y-76676190D02*
X184922438Y-76580952D01*
X184922438Y-76580952D02*
X184970057Y-76533333D01*
X184970057Y-76533333D02*
X185065295Y-76485714D01*
X185065295Y-76485714D02*
X185160533Y-76485714D01*
X185160533Y-76485714D02*
X185303390Y-76533333D01*
X185303390Y-76533333D02*
X185874819Y-77104761D01*
X185874819Y-77104761D02*
X185874819Y-76485714D01*
X184874819Y-75866666D02*
X184874819Y-75771428D01*
X184874819Y-75771428D02*
X184922438Y-75676190D01*
X184922438Y-75676190D02*
X184970057Y-75628571D01*
X184970057Y-75628571D02*
X185065295Y-75580952D01*
X185065295Y-75580952D02*
X185255771Y-75533333D01*
X185255771Y-75533333D02*
X185493866Y-75533333D01*
X185493866Y-75533333D02*
X185684342Y-75580952D01*
X185684342Y-75580952D02*
X185779580Y-75628571D01*
X185779580Y-75628571D02*
X185827200Y-75676190D01*
X185827200Y-75676190D02*
X185874819Y-75771428D01*
X185874819Y-75771428D02*
X185874819Y-75866666D01*
X185874819Y-75866666D02*
X185827200Y-75961904D01*
X185827200Y-75961904D02*
X185779580Y-76009523D01*
X185779580Y-76009523D02*
X185684342Y-76057142D01*
X185684342Y-76057142D02*
X185493866Y-76104761D01*
X185493866Y-76104761D02*
X185255771Y-76104761D01*
X185255771Y-76104761D02*
X185065295Y-76057142D01*
X185065295Y-76057142D02*
X184970057Y-76009523D01*
X184970057Y-76009523D02*
X184922438Y-75961904D01*
X184922438Y-75961904D02*
X184874819Y-75866666D01*
X185874819Y-74580952D02*
X185874819Y-75152380D01*
X185874819Y-74866666D02*
X184874819Y-74866666D01*
X184874819Y-74866666D02*
X185017676Y-74961904D01*
X185017676Y-74961904D02*
X185112914Y-75057142D01*
X185112914Y-75057142D02*
X185160533Y-75152380D01*
X169999819Y-114149047D02*
X169523628Y-114482380D01*
X169999819Y-114720475D02*
X168999819Y-114720475D01*
X168999819Y-114720475D02*
X168999819Y-114339523D01*
X168999819Y-114339523D02*
X169047438Y-114244285D01*
X169047438Y-114244285D02*
X169095057Y-114196666D01*
X169095057Y-114196666D02*
X169190295Y-114149047D01*
X169190295Y-114149047D02*
X169333152Y-114149047D01*
X169333152Y-114149047D02*
X169428390Y-114196666D01*
X169428390Y-114196666D02*
X169476009Y-114244285D01*
X169476009Y-114244285D02*
X169523628Y-114339523D01*
X169523628Y-114339523D02*
X169523628Y-114720475D01*
X168999819Y-113244285D02*
X168999819Y-113720475D01*
X168999819Y-113720475D02*
X169476009Y-113768094D01*
X169476009Y-113768094D02*
X169428390Y-113720475D01*
X169428390Y-113720475D02*
X169380771Y-113625237D01*
X169380771Y-113625237D02*
X169380771Y-113387142D01*
X169380771Y-113387142D02*
X169428390Y-113291904D01*
X169428390Y-113291904D02*
X169476009Y-113244285D01*
X169476009Y-113244285D02*
X169571247Y-113196666D01*
X169571247Y-113196666D02*
X169809342Y-113196666D01*
X169809342Y-113196666D02*
X169904580Y-113244285D01*
X169904580Y-113244285D02*
X169952200Y-113291904D01*
X169952200Y-113291904D02*
X169999819Y-113387142D01*
X169999819Y-113387142D02*
X169999819Y-113625237D01*
X169999819Y-113625237D02*
X169952200Y-113720475D01*
X169952200Y-113720475D02*
X169904580Y-113768094D01*
X168999819Y-112577618D02*
X168999819Y-112482380D01*
X168999819Y-112482380D02*
X169047438Y-112387142D01*
X169047438Y-112387142D02*
X169095057Y-112339523D01*
X169095057Y-112339523D02*
X169190295Y-112291904D01*
X169190295Y-112291904D02*
X169380771Y-112244285D01*
X169380771Y-112244285D02*
X169618866Y-112244285D01*
X169618866Y-112244285D02*
X169809342Y-112291904D01*
X169809342Y-112291904D02*
X169904580Y-112339523D01*
X169904580Y-112339523D02*
X169952200Y-112387142D01*
X169952200Y-112387142D02*
X169999819Y-112482380D01*
X169999819Y-112482380D02*
X169999819Y-112577618D01*
X169999819Y-112577618D02*
X169952200Y-112672856D01*
X169952200Y-112672856D02*
X169904580Y-112720475D01*
X169904580Y-112720475D02*
X169809342Y-112768094D01*
X169809342Y-112768094D02*
X169618866Y-112815713D01*
X169618866Y-112815713D02*
X169380771Y-112815713D01*
X169380771Y-112815713D02*
X169190295Y-112768094D01*
X169190295Y-112768094D02*
X169095057Y-112720475D01*
X169095057Y-112720475D02*
X169047438Y-112672856D01*
X169047438Y-112672856D02*
X168999819Y-112577618D01*
X168999819Y-111339523D02*
X168999819Y-111815713D01*
X168999819Y-111815713D02*
X169476009Y-111863332D01*
X169476009Y-111863332D02*
X169428390Y-111815713D01*
X169428390Y-111815713D02*
X169380771Y-111720475D01*
X169380771Y-111720475D02*
X169380771Y-111482380D01*
X169380771Y-111482380D02*
X169428390Y-111387142D01*
X169428390Y-111387142D02*
X169476009Y-111339523D01*
X169476009Y-111339523D02*
X169571247Y-111291904D01*
X169571247Y-111291904D02*
X169809342Y-111291904D01*
X169809342Y-111291904D02*
X169904580Y-111339523D01*
X169904580Y-111339523D02*
X169952200Y-111387142D01*
X169952200Y-111387142D02*
X169999819Y-111482380D01*
X169999819Y-111482380D02*
X169999819Y-111720475D01*
X169999819Y-111720475D02*
X169952200Y-111815713D01*
X169952200Y-111815713D02*
X169904580Y-111863332D01*
D12*
%TO.C,R101*%
X144552936Y-106580000D02*
X145007064Y-106580000D01*
X144552936Y-108050000D02*
X145007064Y-108050000D01*
%TO.C,R503*%
X166507936Y-105945000D02*
X166962064Y-105945000D01*
X166507936Y-107415000D02*
X166962064Y-107415000D01*
%TO.C,R502*%
X150805800Y-103364036D02*
X150805800Y-103818164D01*
X152275800Y-103364036D02*
X152275800Y-103818164D01*
%TO.C,R401*%
X157437064Y-95150000D02*
X156982936Y-95150000D01*
X157437064Y-96620000D02*
X156982936Y-96620000D01*
%TO.C,R403*%
X156982936Y-93245000D02*
X157437064Y-93245000D01*
X156982936Y-94715000D02*
X157437064Y-94715000D01*
%TO.C,R102*%
X144552936Y-112930000D02*
X145007064Y-112930000D01*
X144552936Y-114400000D02*
X145007064Y-114400000D01*
%TO.C,D104*%
X143165000Y-91750000D02*
X143165000Y-93670000D01*
X143165000Y-93670000D02*
X146025000Y-93670000D01*
X146025000Y-91750000D02*
X143165000Y-91750000D01*
%TO.C,R506*%
X166507936Y-113565000D02*
X166962064Y-113565000D01*
X166507936Y-115035000D02*
X166962064Y-115035000D01*
%TO.C,D102*%
X142920000Y-110800000D02*
X142920000Y-112720000D01*
X142920000Y-112720000D02*
X145780000Y-112720000D01*
X145780000Y-110800000D02*
X142920000Y-110800000D01*
%TO.C,Q202*%
X147665000Y-78740000D02*
X147665000Y-78090000D01*
X147665000Y-78740000D02*
X147665000Y-79390000D01*
X150785000Y-78740000D02*
X150785000Y-78090000D01*
X150785000Y-78740000D02*
X150785000Y-79390000D01*
X151065000Y-77817500D02*
X150735000Y-77577500D01*
X151065000Y-77337500D01*
X151065000Y-77817500D01*
G36*
X151065000Y-77817500D02*
G01*
X150735000Y-77577500D01*
X151065000Y-77337500D01*
X151065000Y-77817500D01*
G37*
%TO.C,D503*%
X151385000Y-92685000D02*
X151385000Y-99695000D01*
X154685000Y-92685000D02*
X151385000Y-92685000D01*
X154685000Y-92685000D02*
X154685000Y-99695000D01*
%TO.C,D401*%
X147295000Y-89155000D02*
X147295000Y-92455000D01*
X147295000Y-89155000D02*
X154305000Y-89155000D01*
X147295000Y-92455000D02*
X154305000Y-92455000D01*
%TO.C,Q201*%
X153700000Y-77772500D02*
X153700000Y-77122500D01*
X153700000Y-77772500D02*
X153700000Y-78422500D01*
X156820000Y-77772500D02*
X156820000Y-77122500D01*
X156820000Y-77772500D02*
X156820000Y-78422500D01*
X157100000Y-76850000D02*
X156770000Y-76610000D01*
X157100000Y-76370000D01*
X157100000Y-76850000D01*
G36*
X157100000Y-76850000D02*
G01*
X156770000Y-76610000D01*
X157100000Y-76370000D01*
X157100000Y-76850000D01*
G37*
%TO.C,Q204*%
X160352500Y-78765000D02*
X159702500Y-78765000D01*
X160352500Y-78765000D02*
X161002500Y-78765000D01*
X160352500Y-81885000D02*
X159702500Y-81885000D01*
X160352500Y-81885000D02*
X161002500Y-81885000D01*
X161755000Y-82165000D02*
X161275000Y-82165000D01*
X161515000Y-81835000D01*
X161755000Y-82165000D01*
G36*
X161755000Y-82165000D02*
G01*
X161275000Y-82165000D01*
X161515000Y-81835000D01*
X161755000Y-82165000D01*
G37*
%TO.C,R103*%
X145277064Y-93880000D02*
X144822936Y-93880000D01*
X145277064Y-95350000D02*
X144822936Y-95350000D01*
%TO.C,R404*%
X166047936Y-89435000D02*
X166502064Y-89435000D01*
X166047936Y-90905000D02*
X166502064Y-90905000D01*
%TO.C,R407*%
X161517064Y-98960000D02*
X161062936Y-98960000D01*
X161517064Y-100430000D02*
X161062936Y-100430000D01*
%TO.C,R203*%
X142282936Y-74465000D02*
X142737064Y-74465000D01*
X142282936Y-75935000D02*
X142737064Y-75935000D01*
%TO.C,D105*%
X145780000Y-102545000D02*
X142920000Y-102545000D01*
X142920000Y-104465000D02*
X145780000Y-104465000D01*
X142920000Y-102545000D02*
X142920000Y-104465000D01*
%TO.C,R408*%
X165597064Y-98960000D02*
X165142936Y-98960000D01*
X165597064Y-100430000D02*
X165142936Y-100430000D01*
%TO.C,D504*%
X147575000Y-101625000D02*
X147575000Y-94615000D01*
X147575000Y-101625000D02*
X150875000Y-101625000D01*
X150875000Y-101625000D02*
X150875000Y-94615000D01*
%TO.C,D501*%
X147575000Y-115000000D02*
X147575000Y-107990000D01*
X147575000Y-115000000D02*
X150875000Y-115000000D01*
X150875000Y-115000000D02*
X150875000Y-107990000D01*
%TO.C,C601*%
X157011552Y-114114300D02*
X156489048Y-114114300D01*
X157011552Y-115584300D02*
X156489048Y-115584300D01*
%TO.C,D101*%
X143035000Y-104450000D02*
X143035000Y-106370000D01*
X143035000Y-106370000D02*
X145895000Y-106370000D01*
X145895000Y-104450000D02*
X143035000Y-104450000D01*
%TO.C,J301*%
X172225000Y-90435000D02*
X182355000Y-90435000D01*
X172225000Y-92755000D02*
X182355000Y-92755000D01*
X172225000Y-95035000D02*
X182355000Y-95035000D01*
X172225000Y-97355000D02*
X182355000Y-97355000D01*
X172225000Y-99635000D02*
X182355000Y-99635000D01*
X172225000Y-101955000D02*
X182355000Y-101955000D01*
X172225000Y-104235000D02*
X182355000Y-104235000D01*
X172225000Y-106555000D02*
X182355000Y-106555000D01*
X172225000Y-108835000D02*
X182355000Y-108835000D01*
X172225000Y-111155000D02*
X182355000Y-111155000D01*
X172225000Y-113435000D02*
X182355000Y-113435000D01*
X172225000Y-115755000D02*
X182355000Y-115755000D01*
%TO.C,U501*%
X159300000Y-94867500D02*
X159300000Y-92917500D01*
X159300000Y-94867500D02*
X159300000Y-96817500D01*
X168170000Y-94867500D02*
X168170000Y-92917500D01*
X168170000Y-94867500D02*
X168170000Y-96817500D01*
X168435000Y-92407500D02*
X168105000Y-92167500D01*
X168435000Y-91927500D01*
X168435000Y-92407500D01*
G36*
X168435000Y-92407500D02*
G01*
X168105000Y-92167500D01*
X168435000Y-91927500D01*
X168435000Y-92407500D01*
G37*
%TO.C,R104*%
X145008464Y-100741700D02*
X144554336Y-100741700D01*
X145008464Y-102211700D02*
X144554336Y-102211700D01*
%TO.C,R504*%
X166507936Y-108485000D02*
X166962064Y-108485000D01*
X166507936Y-109955000D02*
X166962064Y-109955000D01*
%TO.C,D402*%
X156185000Y-101220000D02*
X156185000Y-104520000D01*
X156185000Y-101220000D02*
X163195000Y-101220000D01*
X156185000Y-104520000D02*
X163195000Y-104520000D01*
%TO.C,U601*%
X158685000Y-104785000D02*
X156735000Y-104785000D01*
X158685000Y-104785000D02*
X160635000Y-104785000D01*
X158685000Y-113655000D02*
X156735000Y-113655000D01*
X158685000Y-113655000D02*
X160635000Y-113655000D01*
X161625000Y-113920000D02*
X161145000Y-113920000D01*
X161385000Y-113590000D01*
X161625000Y-113920000D01*
G36*
X161625000Y-113920000D02*
G01*
X161145000Y-113920000D01*
X161385000Y-113590000D01*
X161625000Y-113920000D01*
G37*
%TO.C,R501*%
X148265800Y-103818164D02*
X148265800Y-103364036D01*
X149735800Y-103818164D02*
X149735800Y-103364036D01*
%TO.C,C602*%
X164565000Y-114158752D02*
X164565000Y-113636248D01*
X163095000Y-114158752D02*
X163095000Y-113636248D01*
%TO.C,R406*%
X158157936Y-89435000D02*
X158612064Y-89435000D01*
X158157936Y-90905000D02*
X158612064Y-90905000D01*
%TO.C,Q203*%
X146715000Y-74295000D02*
X146715000Y-73645000D01*
X146715000Y-74295000D02*
X146715000Y-74945000D01*
X149835000Y-74295000D02*
X149835000Y-73645000D01*
X149835000Y-74295000D02*
X149835000Y-74945000D01*
X146765000Y-75457500D02*
X146435000Y-75697500D01*
X146435000Y-75217500D01*
X146765000Y-75457500D01*
G36*
X146765000Y-75457500D02*
G01*
X146435000Y-75697500D01*
X146435000Y-75217500D01*
X146765000Y-75457500D01*
G37*
%TO.C,C401*%
X156932148Y-97089800D02*
X157454652Y-97089800D01*
X156932148Y-98559800D02*
X157454652Y-98559800D01*
%TO.C,D502*%
X151385000Y-105940000D02*
X151385000Y-112950000D01*
X154685000Y-105940000D02*
X151385000Y-105940000D01*
X154685000Y-105940000D02*
X154685000Y-112950000D01*
%TO.C,J101*%
X128330000Y-90425000D02*
X134330000Y-90425000D01*
X128330000Y-91185000D02*
X128330000Y-90425000D01*
X128330000Y-92965000D02*
X134330000Y-92965000D01*
X128330000Y-93725000D02*
X128330000Y-92965000D01*
X128330000Y-95505000D02*
X134330000Y-95505000D01*
X128330000Y-96265000D02*
X128330000Y-95505000D01*
X128330000Y-98045000D02*
X134330000Y-98045000D01*
X128330000Y-98805000D02*
X128330000Y-98045000D01*
X128330000Y-100585000D02*
X134330000Y-100585000D01*
X128330000Y-101345000D02*
X128330000Y-100585000D01*
X128330000Y-103125000D02*
X134330000Y-103125000D01*
X128330000Y-103885000D02*
X128330000Y-103125000D01*
X128330000Y-105665000D02*
X134330000Y-105665000D01*
X128330000Y-106425000D02*
X128330000Y-105665000D01*
X128330000Y-108205000D02*
X134330000Y-108205000D01*
X128330000Y-108965000D02*
X128330000Y-108205000D01*
X128330000Y-110745000D02*
X134330000Y-110745000D01*
X128330000Y-111505000D02*
X128330000Y-110745000D01*
X128330000Y-113285000D02*
X134330000Y-113285000D01*
X128330000Y-114045000D02*
X128330000Y-113285000D01*
X134330000Y-89475000D02*
X134330000Y-114995000D01*
X134330000Y-91185000D02*
X128330000Y-91185000D01*
X134330000Y-93725000D02*
X128330000Y-93725000D01*
X134330000Y-96265000D02*
X128330000Y-96265000D01*
X134330000Y-98805000D02*
X128330000Y-98805000D01*
X134330000Y-101345000D02*
X128330000Y-101345000D01*
X134330000Y-103885000D02*
X128330000Y-103885000D01*
X134330000Y-106425000D02*
X128330000Y-106425000D01*
X134330000Y-108965000D02*
X128330000Y-108965000D01*
X134330000Y-111505000D02*
X128330000Y-111505000D01*
X134330000Y-113385000D02*
X128330000Y-113385000D01*
X134330000Y-113505000D02*
X128330000Y-113505000D01*
X134330000Y-113625000D02*
X128330000Y-113625000D01*
X134330000Y-113745000D02*
X128330000Y-113745000D01*
X134330000Y-113865000D02*
X128330000Y-113865000D01*
X134330000Y-113985000D02*
X128330000Y-113985000D01*
X134330000Y-114045000D02*
X128330000Y-114045000D01*
X134330000Y-114995000D02*
X136990000Y-114995000D01*
X136990000Y-89475000D02*
X134330000Y-89475000D01*
X136990000Y-92075000D02*
X134330000Y-92075000D01*
X136990000Y-94615000D02*
X134330000Y-94615000D01*
X136990000Y-97155000D02*
X134330000Y-97155000D01*
X136990000Y-99695000D02*
X134330000Y-99695000D01*
X136990000Y-102235000D02*
X134330000Y-102235000D01*
X136990000Y-104775000D02*
X134330000Y-104775000D01*
X136990000Y-107315000D02*
X134330000Y-107315000D01*
X136990000Y-109855000D02*
X134330000Y-109855000D01*
X136990000Y-112395000D02*
X134330000Y-112395000D01*
X136990000Y-114995000D02*
X136990000Y-89475000D01*
X137387071Y-90425000D02*
X136990000Y-90425000D01*
X137387071Y-91185000D02*
X136990000Y-91185000D01*
X137387071Y-92965000D02*
X136990000Y-92965000D01*
X137387071Y-93725000D02*
X136990000Y-93725000D01*
X137387071Y-95505000D02*
X136990000Y-95505000D01*
X137387071Y-96265000D02*
X136990000Y-96265000D01*
X137387071Y-98045000D02*
X136990000Y-98045000D01*
X137387071Y-98805000D02*
X136990000Y-98805000D01*
X137387071Y-100585000D02*
X136990000Y-100585000D01*
X137387071Y-101345000D02*
X136990000Y-101345000D01*
X137387071Y-103125000D02*
X136990000Y-103125000D01*
X137387071Y-103885000D02*
X136990000Y-103885000D01*
X137387071Y-105665000D02*
X136990000Y-105665000D01*
X137387071Y-106425000D02*
X136990000Y-106425000D01*
X137387071Y-108205000D02*
X136990000Y-108205000D01*
X137387071Y-108965000D02*
X136990000Y-108965000D01*
X137387071Y-110745000D02*
X136990000Y-110745000D01*
X137387071Y-111505000D02*
X136990000Y-111505000D01*
X137387071Y-113285000D02*
X136990000Y-113285000D01*
X137387071Y-114045000D02*
X136990000Y-114045000D01*
X139860000Y-113285000D02*
X139472929Y-113285000D01*
X139860000Y-114045000D02*
X139472929Y-114045000D01*
X139927071Y-90425000D02*
X139472929Y-90425000D01*
X139927071Y-91185000D02*
X139472929Y-91185000D01*
X139927071Y-92965000D02*
X139472929Y-92965000D01*
X139927071Y-93725000D02*
X139472929Y-93725000D01*
X139927071Y-95505000D02*
X139472929Y-95505000D01*
X139927071Y-96265000D02*
X139472929Y-96265000D01*
X139927071Y-98045000D02*
X139472929Y-98045000D01*
X139927071Y-98805000D02*
X139472929Y-98805000D01*
X139927071Y-100585000D02*
X139472929Y-100585000D01*
X139927071Y-101345000D02*
X139472929Y-101345000D01*
X139927071Y-103125000D02*
X139472929Y-103125000D01*
X139927071Y-103885000D02*
X139472929Y-103885000D01*
X139927071Y-105665000D02*
X139472929Y-105665000D01*
X139927071Y-106425000D02*
X139472929Y-106425000D01*
X139927071Y-108205000D02*
X139472929Y-108205000D01*
X139927071Y-108965000D02*
X139472929Y-108965000D01*
X139927071Y-110745000D02*
X139472929Y-110745000D01*
X139927071Y-111505000D02*
X139472929Y-111505000D01*
X142240000Y-113665000D02*
X142240000Y-114935000D01*
X142240000Y-114935000D02*
X140970000Y-114935000D01*
%TO.C,R201*%
X142775000Y-72162936D02*
X142775000Y-72617064D01*
X144245000Y-72162936D02*
X144245000Y-72617064D01*
%TO.C,R204*%
X160697936Y-75465000D02*
X161152064Y-75465000D01*
X160697936Y-76935000D02*
X161152064Y-76935000D01*
%TO.C,R202*%
X139670100Y-72162936D02*
X139670100Y-72617064D01*
X141140100Y-72162936D02*
X141140100Y-72617064D01*
%TO.C,R307*%
X140870000Y-84497936D02*
X140870000Y-84952064D01*
X142340000Y-84497936D02*
X142340000Y-84952064D01*
%TO.C,D103*%
X144025000Y-91765000D02*
X146885000Y-91765000D01*
X146885000Y-89845000D02*
X144025000Y-89845000D01*
X146885000Y-91765000D02*
X146885000Y-89845000D01*
%TO.C,R205*%
X143410000Y-82052936D02*
X143410000Y-82507064D01*
X144880000Y-82052936D02*
X144880000Y-82507064D01*
%TO.C,R402*%
X156962336Y-99045800D02*
X157416464Y-99045800D01*
X156962336Y-100515800D02*
X157416464Y-100515800D01*
%TO.C,R306*%
X140870000Y-80640436D02*
X140870000Y-81094564D01*
X142340000Y-80640436D02*
X142340000Y-81094564D01*
%TO.C,R405*%
X162332936Y-89435000D02*
X162787064Y-89435000D01*
X162332936Y-90905000D02*
X162787064Y-90905000D01*
%TO.C,J201*%
X172125000Y-68055000D02*
X182255000Y-68055000D01*
X172125000Y-70375000D02*
X182255000Y-70375000D01*
X172125000Y-72655000D02*
X182255000Y-72655000D01*
X172125000Y-74975000D02*
X182255000Y-74975000D01*
X172125000Y-77255000D02*
X182255000Y-77255000D01*
X172125000Y-79575000D02*
X182255000Y-79575000D01*
X172125000Y-81855000D02*
X182255000Y-81855000D01*
X172125000Y-84175000D02*
X182255000Y-84175000D01*
X172125000Y-86455000D02*
X182255000Y-86455000D01*
X172125000Y-88775000D02*
X182255000Y-88775000D01*
%TO.C,R505*%
X166507936Y-111025000D02*
X166962064Y-111025000D01*
X166507936Y-112495000D02*
X166962064Y-112495000D01*
%TD*%
M02*
