%TF.GenerationSoftware,KiCad,Pcbnew,8.0.0-rc2-358-gd9abaa23a4*%
%TF.CreationDate,2024-02-08T19:09:11+01:00*%
%TF.ProjectId,xDuinoRail-Breakout-RailcomDetect,78447569-6e6f-4526-9169-6c2d42726561,rev?*%
%TF.SameCoordinates,Original*%
%TF.FileFunction,Copper,L1,Top*%
%TF.FilePolarity,Positive*%
%FSLAX46Y46*%
G04 Gerber Fmt 4.6, Leading zero omitted, Abs format (unit mm)*
G04 Created by KiCad (PCBNEW 8.0.0-rc2-358-gd9abaa23a4) date 2024-02-08 19:09:11*
%MOMM*%
%LPD*%
G01*
G04 APERTURE LIST*
G04 Aperture macros list*
%AMRoundRect*
0 Rectangle with rounded corners*
0 $1 Rounding radius*
0 $2 $3 $4 $5 $6 $7 $8 $9 X,Y pos of 4 corners*
0 Add a 4 corners polygon primitive as box body*
4,1,4,$2,$3,$4,$5,$6,$7,$8,$9,$2,$3,0*
0 Add four circle primitives for the rounded corners*
1,1,$1+$1,$2,$3*
1,1,$1+$1,$4,$5*
1,1,$1+$1,$6,$7*
1,1,$1+$1,$8,$9*
0 Add four rect primitives between the rounded corners*
20,1,$1+$1,$2,$3,$4,$5,0*
20,1,$1+$1,$4,$5,$6,$7,0*
20,1,$1+$1,$6,$7,$8,$9,0*
20,1,$1+$1,$8,$9,$2,$3,0*%
G04 Aperture macros list end*
%TA.AperFunction,SMDPad,CuDef*%
%ADD10RoundRect,0.250000X-0.350000X-0.450000X0.350000X-0.450000X0.350000X0.450000X-0.350000X0.450000X0*%
%TD*%
%TA.AperFunction,SMDPad,CuDef*%
%ADD11RoundRect,0.250000X-0.450000X0.350000X-0.450000X-0.350000X0.450000X-0.350000X0.450000X0.350000X0*%
%TD*%
%TA.AperFunction,SMDPad,CuDef*%
%ADD12RoundRect,0.250000X0.350000X0.450000X-0.350000X0.450000X-0.350000X-0.450000X0.350000X-0.450000X0*%
%TD*%
%TA.AperFunction,SMDPad,CuDef*%
%ADD13RoundRect,0.250000X-0.325000X-0.450000X0.325000X-0.450000X0.325000X0.450000X-0.325000X0.450000X0*%
%TD*%
%TA.AperFunction,SMDPad,CuDef*%
%ADD14RoundRect,0.150000X-0.150000X0.587500X-0.150000X-0.587500X0.150000X-0.587500X0.150000X0.587500X0*%
%TD*%
%TA.AperFunction,SMDPad,CuDef*%
%ADD15RoundRect,0.250000X-0.650000X1.500000X-0.650000X-1.500000X0.650000X-1.500000X0.650000X1.500000X0*%
%TD*%
%TA.AperFunction,SMDPad,CuDef*%
%ADD16RoundRect,0.250000X-1.500000X-0.650000X1.500000X-0.650000X1.500000X0.650000X-1.500000X0.650000X0*%
%TD*%
%TA.AperFunction,SMDPad,CuDef*%
%ADD17RoundRect,0.150000X0.587500X0.150000X-0.587500X0.150000X-0.587500X-0.150000X0.587500X-0.150000X0*%
%TD*%
%TA.AperFunction,SMDPad,CuDef*%
%ADD18RoundRect,0.250000X0.650000X-1.500000X0.650000X1.500000X-0.650000X1.500000X-0.650000X-1.500000X0*%
%TD*%
%TA.AperFunction,SMDPad,CuDef*%
%ADD19RoundRect,0.250000X0.337500X0.475000X-0.337500X0.475000X-0.337500X-0.475000X0.337500X-0.475000X0*%
%TD*%
%TA.AperFunction,ComponentPad*%
%ADD20RoundRect,0.250001X0.799999X-0.799999X0.799999X0.799999X-0.799999X0.799999X-0.799999X-0.799999X0*%
%TD*%
%TA.AperFunction,ComponentPad*%
%ADD21C,2.100000*%
%TD*%
%TA.AperFunction,SMDPad,CuDef*%
%ADD22RoundRect,0.150000X-0.150000X0.825000X-0.150000X-0.825000X0.150000X-0.825000X0.150000X0.825000X0*%
%TD*%
%TA.AperFunction,SMDPad,CuDef*%
%ADD23RoundRect,0.150000X0.825000X0.150000X-0.825000X0.150000X-0.825000X-0.150000X0.825000X-0.150000X0*%
%TD*%
%TA.AperFunction,SMDPad,CuDef*%
%ADD24RoundRect,0.250000X0.450000X-0.350000X0.450000X0.350000X-0.450000X0.350000X-0.450000X-0.350000X0*%
%TD*%
%TA.AperFunction,SMDPad,CuDef*%
%ADD25RoundRect,0.250000X0.475000X-0.337500X0.475000X0.337500X-0.475000X0.337500X-0.475000X-0.337500X0*%
%TD*%
%TA.AperFunction,SMDPad,CuDef*%
%ADD26RoundRect,0.150000X0.150000X-0.587500X0.150000X0.587500X-0.150000X0.587500X-0.150000X-0.587500X0*%
%TD*%
%TA.AperFunction,SMDPad,CuDef*%
%ADD27RoundRect,0.250000X-0.337500X-0.475000X0.337500X-0.475000X0.337500X0.475000X-0.337500X0.475000X0*%
%TD*%
%TA.AperFunction,ComponentPad*%
%ADD28R,1.700000X1.700000*%
%TD*%
%TA.AperFunction,ComponentPad*%
%ADD29O,1.700000X1.700000*%
%TD*%
%TA.AperFunction,SMDPad,CuDef*%
%ADD30RoundRect,0.250000X0.325000X0.450000X-0.325000X0.450000X-0.325000X-0.450000X0.325000X-0.450000X0*%
%TD*%
%TA.AperFunction,ViaPad*%
%ADD31C,0.800000*%
%TD*%
%TA.AperFunction,Conductor*%
%ADD32C,0.400000*%
%TD*%
%TA.AperFunction,Conductor*%
%ADD33C,1.000000*%
%TD*%
G04 APERTURE END LIST*
D10*
%TO.P,R101,1*%
%TO.N,/RAILCOM0*%
X143780000Y-107315000D03*
%TO.P,R101,2*%
%TO.N,Net-(D101-A)*%
X145780000Y-107315000D03*
%TD*%
%TO.P,R503,1*%
%TO.N,/CN_A5*%
X165735000Y-106680000D03*
%TO.P,R503,2*%
%TO.N,+3V3*%
X167735000Y-106680000D03*
%TD*%
D11*
%TO.P,R502,1*%
%TO.N,/TRACK_B0*%
X151540800Y-102591100D03*
%TO.P,R502,2*%
%TO.N,/DCC0*%
X151540800Y-104591100D03*
%TD*%
D12*
%TO.P,R401,1*%
%TO.N,/centrale-railcom-feedback/central_railcom-power-source/DCC_NEG*%
X158210000Y-95885000D03*
%TO.P,R401,2*%
%TO.N,Net-(D401-A)*%
X156210000Y-95885000D03*
%TD*%
D10*
%TO.P,R403,1*%
%TO.N,GND*%
X156210000Y-93980000D03*
%TO.P,R403,2*%
%TO.N,+18mV*%
X158210000Y-93980000D03*
%TD*%
%TO.P,R102,1*%
%TO.N,/RAILCOM1*%
X143780000Y-113665000D03*
%TO.P,R102,2*%
%TO.N,Net-(D102-A)*%
X145780000Y-113665000D03*
%TD*%
D13*
%TO.P,D104,1,K*%
%TO.N,/DCC1*%
X144000000Y-92710000D03*
%TO.P,D104,2,A*%
%TO.N,Net-(D103-K)*%
X146050000Y-92710000D03*
%TD*%
D10*
%TO.P,R506,1*%
%TO.N,/CN_A2*%
X165735000Y-114300000D03*
%TO.P,R506,2*%
%TO.N,+3V3*%
X167735000Y-114300000D03*
%TD*%
D13*
%TO.P,D102,1,K*%
%TO.N,GND*%
X143755000Y-111760000D03*
%TO.P,D102,2,A*%
%TO.N,Net-(D102-A)*%
X145805000Y-111760000D03*
%TD*%
D14*
%TO.P,Q202,1,E*%
%TO.N,/rails_signal_feedback_dcc-railcom-8x50/RC_CURR*%
X150175000Y-77802500D03*
%TO.P,Q202,2,B*%
%TO.N,/rails_signal_feedback_dcc-railcom-8x50/RC_FB_IN*%
X148275000Y-77802500D03*
%TO.P,Q202,3,C*%
%TO.N,/rails_signal_feedback_dcc-railcom-8x50/RC_SIGNAL*%
X149225000Y-79677500D03*
%TD*%
D15*
%TO.P,D503,1,K*%
%TO.N,/DCC0*%
X153035000Y-94695000D03*
%TO.P,D503,2,A*%
%TO.N,/TRACK_B0*%
X153035000Y-99695000D03*
%TD*%
D16*
%TO.P,D401,1,K*%
%TO.N,/DCC1*%
X149305000Y-90805000D03*
%TO.P,D401,2,A*%
%TO.N,Net-(D401-A)*%
X154305000Y-90805000D03*
%TD*%
D14*
%TO.P,Q201,1,E*%
%TO.N,/rails_signal_feedback_dcc-railcom-8x50/RC_SIGNAL*%
X156210000Y-76835000D03*
%TO.P,Q201,2,B*%
X154310000Y-76835000D03*
%TO.P,Q201,3,C*%
%TO.N,/RC_GENERATOR1*%
X155260000Y-78710000D03*
%TD*%
D17*
%TO.P,Q204,1,E*%
%TO.N,GND*%
X161290000Y-81275000D03*
%TO.P,Q204,2,B*%
%TO.N,/rails_signal_feedback_dcc-railcom-8x50/RC_ON_OFF*%
X161290000Y-79375000D03*
%TO.P,Q204,3,C*%
%TO.N,/RC_GENERATOR0*%
X159415000Y-80325000D03*
%TD*%
D12*
%TO.P,R103,1*%
%TO.N,/DCC0*%
X146050000Y-94615000D03*
%TO.P,R103,2*%
%TO.N,Net-(D103-K)*%
X144050000Y-94615000D03*
%TD*%
D10*
%TO.P,R404,1*%
%TO.N,Net-(R404-Pad1)*%
X165275000Y-90170000D03*
%TO.P,R404,2*%
%TO.N,+3V3*%
X167275000Y-90170000D03*
%TD*%
D12*
%TO.P,R407,1*%
%TO.N,-18mV*%
X162290000Y-99695000D03*
%TO.P,R407,2*%
%TO.N,GND*%
X160290000Y-99695000D03*
%TD*%
D10*
%TO.P,R203,1*%
%TO.N,/rails_signal_feedback_dcc-railcom-8x50/15R*%
X141510000Y-75200000D03*
%TO.P,R203,2*%
%TO.N,+3V3*%
X143510000Y-75200000D03*
%TD*%
D13*
%TO.P,D105,2,A*%
%TO.N,Net-(D105-A)*%
X145805000Y-103505000D03*
%TO.P,D105,1,K*%
%TO.N,GND*%
X143755000Y-103505000D03*
%TD*%
D12*
%TO.P,R408,1*%
%TO.N,-18mV*%
X166370000Y-99695000D03*
%TO.P,R408,2*%
%TO.N,-750mV*%
X164370000Y-99695000D03*
%TD*%
D18*
%TO.P,D504,1,K*%
%TO.N,/TRACK_B0*%
X149225000Y-99615000D03*
%TO.P,D504,2,A*%
%TO.N,/DCC0*%
X149225000Y-94615000D03*
%TD*%
%TO.P,D501,1,K*%
%TO.N,/DCC0*%
X149225000Y-112990000D03*
%TO.P,D501,2,A*%
%TO.N,/TRACK_A0*%
X149225000Y-107990000D03*
%TD*%
D19*
%TO.P,C601,1*%
%TO.N,+3V3*%
X157787800Y-114849300D03*
%TO.P,C601,2*%
%TO.N,GND*%
X155712800Y-114849300D03*
%TD*%
D13*
%TO.P,D101,1,K*%
%TO.N,GND*%
X143870000Y-105410000D03*
%TO.P,D101,2,A*%
%TO.N,Net-(D101-A)*%
X145920000Y-105410000D03*
%TD*%
D20*
%TO.P,J301,1,Pin_1*%
%TO.N,/CN_A2*%
X170915000Y-114595000D03*
D21*
%TO.P,J301,2,Pin_2*%
%TO.N,/CN_A3*%
X170915000Y-109995000D03*
%TO.P,J301,3,Pin_3*%
%TO.N,+18mV*%
X170915000Y-105395000D03*
%TO.P,J301,4,Pin_4*%
%TO.N,GND*%
X170915000Y-100795000D03*
%TO.P,J301,5,Pin_5*%
%TO.N,-18mV*%
X170915000Y-96195000D03*
%TO.P,J301,6,Pin_6*%
%TO.N,-750mV*%
X170915000Y-91595000D03*
%TD*%
D22*
%TO.P,U501,1*%
%TO.N,/CN_A5*%
X167545000Y-92392500D03*
%TO.P,U501,2*%
%TO.N,/CN_A4*%
X166275000Y-92392500D03*
%TO.P,U501,3,V+*%
%TO.N,+3V3*%
X165005000Y-92392500D03*
%TO.P,U501,4,-*%
%TO.N,-18mV*%
X163735000Y-92392500D03*
%TO.P,U501,5,+*%
%TO.N,/TRACK_A0*%
X162465000Y-92392500D03*
%TO.P,U501,6,-*%
X161195000Y-92392500D03*
%TO.P,U501,7,+*%
%TO.N,+18mV*%
X159925000Y-92392500D03*
%TO.P,U501,8,-*%
X159925000Y-97342500D03*
%TO.P,U501,9,+*%
%TO.N,/TRACK_B0*%
X161195000Y-97342500D03*
%TO.P,U501,10,-*%
X162465000Y-97342500D03*
%TO.P,U501,11,+*%
%TO.N,-18mV*%
X163735000Y-97342500D03*
%TO.P,U501,12,V-*%
%TO.N,-750mV*%
X165005000Y-97342500D03*
%TO.P,U501,13*%
%TO.N,/CN_A2*%
X166275000Y-97342500D03*
%TO.P,U501,14*%
%TO.N,/CN_A3*%
X167545000Y-97342500D03*
%TD*%
D12*
%TO.P,R104,1*%
%TO.N,+3V3*%
X145781400Y-101476700D03*
%TO.P,R104,2*%
%TO.N,Net-(D105-A)*%
X143781400Y-101476700D03*
%TD*%
D10*
%TO.P,R504,1*%
%TO.N,/CN_A4*%
X165735000Y-109220000D03*
%TO.P,R504,2*%
%TO.N,+3V3*%
X167735000Y-109220000D03*
%TD*%
D16*
%TO.P,D402,1,K*%
%TO.N,-750mV*%
X158195000Y-102870000D03*
%TO.P,D402,2,A*%
%TO.N,GND*%
X163195000Y-102870000D03*
%TD*%
D23*
%TO.P,U601,1*%
%TO.N,/RAILCOM0*%
X161160000Y-113030000D03*
%TO.P,U601,2*%
%TO.N,/CN_A2*%
X161160000Y-111760000D03*
%TO.P,U601,3*%
%TO.N,/CN_A3*%
X161160000Y-110490000D03*
%TO.P,U601,4*%
%TO.N,/RAILCOM1*%
X161160000Y-109220000D03*
%TO.P,U601,5*%
%TO.N,/CN_A4*%
X161160000Y-107950000D03*
%TO.P,U601,6*%
%TO.N,/CN_A5*%
X161160000Y-106680000D03*
%TO.P,U601,7,GND*%
%TO.N,GND*%
X161160000Y-105410000D03*
%TO.P,U601,8*%
%TO.N,/centrale-railcom-feedback/central_railcom-merger/RAILCOM_C0*%
X156210000Y-105410000D03*
%TO.P,U601,9*%
%TO.N,/centrale-railcom-feedback/central_railcom-merger/RAILCOM_C1*%
X156210000Y-106680000D03*
%TO.P,U601,10*%
%TO.N,/RAILCOM2*%
X156210000Y-107950000D03*
%TO.P,U601,11*%
%TO.N,/centrale-railcom-feedback/central_railcom-merger/RAILCOM_D0*%
X156210000Y-109220000D03*
%TO.P,U601,12*%
%TO.N,/centrale-railcom-feedback/central_railcom-merger/RAILCOM_D1*%
X156210000Y-110490000D03*
%TO.P,U601,13*%
%TO.N,/RAILCOM3*%
X156210000Y-111760000D03*
%TO.P,U601,14,VCC*%
%TO.N,+3V3*%
X156210000Y-113030000D03*
%TD*%
D24*
%TO.P,R501,1*%
%TO.N,/TRACK_A0*%
X149000800Y-104591100D03*
%TO.P,R501,2*%
%TO.N,/DCC0*%
X149000800Y-102591100D03*
%TD*%
D25*
%TO.P,C602,2*%
%TO.N,GND*%
X163830000Y-112860000D03*
%TO.P,C602,1*%
%TO.N,+3V3*%
X163830000Y-114935000D03*
%TD*%
D10*
%TO.P,R406,1*%
%TO.N,GND*%
X157385000Y-90170000D03*
%TO.P,R406,2*%
%TO.N,+18mV*%
X159385000Y-90170000D03*
%TD*%
D26*
%TO.P,Q203,1,E*%
%TO.N,+3V3*%
X147325000Y-75232500D03*
%TO.P,Q203,2,B*%
%TO.N,/rails_signal_feedback_dcc-railcom-8x50/RC_CURR*%
X149225000Y-75232500D03*
%TO.P,Q203,3,C*%
%TO.N,/rails_signal_feedback_dcc-railcom-8x50/RC_FB_IN*%
X148275000Y-73357500D03*
%TD*%
D27*
%TO.P,C401,1*%
%TO.N,GND*%
X156155900Y-97824800D03*
%TO.P,C401,2*%
%TO.N,/centrale-railcom-feedback/central_railcom-power-source/DCC_NEG*%
X158230900Y-97824800D03*
%TD*%
D15*
%TO.P,D502,1,K*%
%TO.N,/TRACK_A0*%
X153035000Y-107950000D03*
%TO.P,D502,2,A*%
%TO.N,/DCC0*%
X153035000Y-112950000D03*
%TD*%
D28*
%TO.P,J101,1,Pin_1*%
%TO.N,/TRACK_B0*%
X140970000Y-113665000D03*
D29*
%TO.P,J101,2,Pin_2*%
%TO.N,/RAILCOM1*%
X138430000Y-113665000D03*
%TO.P,J101,3,Pin_3*%
%TO.N,/TRACK_A0*%
X140970000Y-111125000D03*
%TO.P,J101,4,Pin_4*%
%TO.N,/RAILCOM0*%
X138430000Y-111125000D03*
%TO.P,J101,5,Pin_5*%
%TO.N,unconnected-(J101-Pin_5-Pad5)*%
X140970000Y-108585000D03*
%TO.P,J101,6,Pin_6*%
%TO.N,unconnected-(J101-Pin_6-Pad6)*%
X138430000Y-108585000D03*
%TO.P,J101,7,Pin_7*%
%TO.N,GND*%
X140970000Y-106045000D03*
%TO.P,J101,8,Pin_8*%
%TO.N,unconnected-(J101-Pin_8-Pad8)*%
X138430000Y-106045000D03*
%TO.P,J101,9,Pin_9*%
%TO.N,unconnected-(J101-Pin_9-Pad9)*%
X140970000Y-103505000D03*
%TO.P,J101,10,Pin_10*%
%TO.N,unconnected-(J101-Pin_10-Pad10)*%
X138430000Y-103505000D03*
%TO.P,J101,11,Pin_11*%
%TO.N,GND*%
X140970000Y-100965000D03*
%TO.P,J101,12,Pin_12*%
%TO.N,unconnected-(J101-Pin_12-Pad12)*%
X138430000Y-100965000D03*
%TO.P,J101,13,Pin_13*%
%TO.N,+3V3*%
X140970000Y-98425000D03*
%TO.P,J101,14,Pin_14*%
%TO.N,unconnected-(J101-Pin_14-Pad14)*%
X138430000Y-98425000D03*
%TO.P,J101,15,Pin_15*%
%TO.N,GND*%
X140970000Y-95885000D03*
%TO.P,J101,16,Pin_16*%
%TO.N,unconnected-(J101-Pin_16-Pad16)*%
X138430000Y-95885000D03*
%TO.P,J101,17,Pin_17*%
%TO.N,/DCC0*%
X140970000Y-93345000D03*
%TO.P,J101,18,Pin_18*%
%TO.N,/DECODER_RAILCOM*%
X138430000Y-93345000D03*
%TO.P,J101,19,Pin_19*%
%TO.N,/DCC1*%
X140970000Y-90805000D03*
%TO.P,J101,20,Pin_20*%
%TO.N,/DECODER_DIGITAL*%
X138430000Y-90805000D03*
%TD*%
D11*
%TO.P,R201,1*%
%TO.N,/rails_signal_feedback_dcc-railcom-8x50/RC_CURR*%
X143510000Y-71390000D03*
%TO.P,R201,2*%
%TO.N,/rails_signal_feedback_dcc-railcom-8x50/15R*%
X143510000Y-73390000D03*
%TD*%
D10*
%TO.P,R204,1*%
%TO.N,/rails_signal_feedback_dcc-railcom-8x50/RC_SIGNAL*%
X159925000Y-76200000D03*
%TO.P,R204,2*%
%TO.N,/rails_signal_feedback_dcc-railcom-8x50/RC_ON_OFF*%
X161925000Y-76200000D03*
%TD*%
D11*
%TO.P,R202,1*%
%TO.N,/rails_signal_feedback_dcc-railcom-8x50/RC_CURR*%
X140405100Y-71390000D03*
%TO.P,R202,2*%
%TO.N,/rails_signal_feedback_dcc-railcom-8x50/15R*%
X140405100Y-73390000D03*
%TD*%
%TO.P,R307,1*%
%TO.N,Net-(R306-Pad2)*%
X141605000Y-83725000D03*
%TO.P,R307,2*%
%TO.N,/DECODER_DIGITAL*%
X141605000Y-85725000D03*
%TD*%
D30*
%TO.P,D103,1,K*%
%TO.N,Net-(D103-K)*%
X146050000Y-90805000D03*
%TO.P,D103,2,A*%
%TO.N,/DCC1*%
X144000000Y-90805000D03*
%TD*%
D11*
%TO.P,R205,1*%
%TO.N,/rails_signal_feedback_dcc-railcom-8x50/RC_FB_IN*%
X144145000Y-81280000D03*
%TO.P,R205,2*%
%TO.N,/DECODER_RAILCOM*%
X144145000Y-83280000D03*
%TD*%
D10*
%TO.P,R402,1*%
%TO.N,-750mV*%
X156189400Y-99780800D03*
%TO.P,R402,2*%
%TO.N,/centrale-railcom-feedback/central_railcom-power-source/DCC_NEG*%
X158189400Y-99780800D03*
%TD*%
D11*
%TO.P,R306,1*%
%TO.N,/RC_GENERATOR1*%
X141605000Y-79867500D03*
%TO.P,R306,2*%
%TO.N,Net-(R306-Pad2)*%
X141605000Y-81867500D03*
%TD*%
D10*
%TO.P,R405,1*%
%TO.N,+18mV*%
X161560000Y-90170000D03*
%TO.P,R405,2*%
%TO.N,Net-(R404-Pad1)*%
X163560000Y-90170000D03*
%TD*%
D20*
%TO.P,J201,1,Pin_1*%
%TO.N,/rails_signal_feedback_dcc-railcom-8x50/RC_SIGNAL*%
X170815000Y-87615000D03*
D21*
%TO.P,J201,2,Pin_2*%
%TO.N,/rails_signal_feedback_dcc-railcom-8x50/RC_CURR*%
X170815000Y-83015000D03*
%TO.P,J201,3,Pin_3*%
%TO.N,/rails_signal_feedback_dcc-railcom-8x50/RC_FB_IN*%
X170815000Y-78415000D03*
%TO.P,J201,4,Pin_4*%
%TO.N,/rails_signal_feedback_dcc-railcom-8x50/RC_ON_OFF*%
X170815000Y-73815000D03*
%TO.P,J201,5,Pin_5*%
%TO.N,GND*%
X170815000Y-69215000D03*
%TD*%
D10*
%TO.P,R505,1*%
%TO.N,/CN_A3*%
X165735000Y-111760000D03*
%TO.P,R505,2*%
%TO.N,+3V3*%
X167735000Y-111760000D03*
%TD*%
D31*
%TO.N,/RC_GENERATOR1*%
X145126600Y-79790200D03*
X153599100Y-80540700D03*
%TO.N,/RC_GENERATOR0*%
X161397200Y-80325000D03*
%TO.N,/rails_signal_feedback_dcc-railcom-8x50/RC_SIGNAL*%
X161379200Y-77723900D03*
%TO.N,/CN_A2*%
X162695400Y-114032800D03*
X167454400Y-95739300D03*
%TO.N,/CN_A3*%
X168538900Y-97706800D03*
%TO.N,/TRACK_B0*%
X161144700Y-95752700D03*
X153192900Y-103407000D03*
%TO.N,/TRACK_A0*%
X160187800Y-94069800D03*
%TO.N,/CN_A4*%
X164515100Y-107481900D03*
X165827000Y-95084500D03*
%TO.N,/DCC0*%
X151242400Y-112868200D03*
X151242400Y-106965800D03*
%TO.N,+3V3*%
X164348300Y-93864100D03*
X164348300Y-87902900D03*
X146757500Y-76497000D03*
%TO.N,/RAILCOM0*%
X159035300Y-114032800D03*
%TO.N,GND*%
X154484600Y-115153200D03*
X160290000Y-101018800D03*
X144724200Y-110738600D03*
X159923100Y-81240800D03*
X157385000Y-91530000D03*
X163830000Y-111667600D03*
X154927700Y-99053000D03*
X161160000Y-104507600D03*
%TD*%
D32*
%TO.N,Net-(R306-Pad2)*%
X141605000Y-81867500D02*
X141605000Y-83725000D01*
%TO.N,Net-(R404-Pad1)*%
X163560000Y-90170000D02*
X165275000Y-90170000D01*
%TO.N,/rails_signal_feedback_dcc-railcom-8x50/15R*%
X142614900Y-73390000D02*
X141510000Y-74494900D01*
X143510000Y-73390000D02*
X142614900Y-73390000D01*
X140405100Y-73390000D02*
X141510000Y-74494900D01*
X141510000Y-74494900D02*
X141510000Y-75200000D01*
%TO.N,/RC_GENERATOR1*%
X155260000Y-78879800D02*
X155260000Y-78710000D01*
X153599100Y-80540700D02*
X155260000Y-78879800D01*
X141682300Y-79790200D02*
X145126600Y-79790200D01*
X141605000Y-79867500D02*
X141682300Y-79790200D01*
%TO.N,/RC_GENERATOR0*%
X161397200Y-80325000D02*
X159415000Y-80325000D01*
%TO.N,/rails_signal_feedback_dcc-railcom-8x50/RC_SIGNAL*%
X156845000Y-76200000D02*
X159925000Y-76200000D01*
X156210000Y-76835000D02*
X156845000Y-76200000D01*
X156210000Y-76835000D02*
X154310000Y-76835000D01*
X151467500Y-79677500D02*
X149225000Y-79677500D01*
X154310000Y-76835000D02*
X151467500Y-79677500D01*
X159925000Y-76269700D02*
X159925000Y-76200000D01*
X161379200Y-77723900D02*
X159925000Y-76269700D01*
%TO.N,/rails_signal_feedback_dcc-railcom-8x50/RC_FB_IN*%
X148275000Y-73357500D02*
X148275000Y-77802500D01*
X147292400Y-81280000D02*
X144145000Y-81280000D01*
X148275000Y-80297400D02*
X147292400Y-81280000D01*
X150043600Y-82066000D02*
X148275000Y-80297400D01*
X167164000Y-82066000D02*
X150043600Y-82066000D01*
X170815000Y-78415000D02*
X167164000Y-82066000D01*
X148275000Y-80297400D02*
X148275000Y-77802500D01*
%TO.N,/rails_signal_feedback_dcc-railcom-8x50/RC_ON_OFF*%
X162223100Y-78441900D02*
X161290000Y-79375000D01*
X162223100Y-76200000D02*
X162223100Y-78441900D01*
X164608100Y-73815000D02*
X162223100Y-76200000D01*
X170815000Y-73815000D02*
X164608100Y-73815000D01*
X162223100Y-76200000D02*
X161925000Y-76200000D01*
%TO.N,Net-(D105-A)*%
X143781400Y-101481400D02*
X143781400Y-101476700D01*
X145805000Y-103505000D02*
X143781400Y-101481400D01*
%TO.N,/rails_signal_feedback_dcc-railcom-8x50/RC_CURR*%
X150175000Y-76182500D02*
X150175000Y-77802500D01*
X149225000Y-75232500D02*
X150175000Y-76182500D01*
X140405100Y-71390000D02*
X143510000Y-71390000D01*
X149576800Y-72363300D02*
X149225000Y-72715100D01*
X171466800Y-72363300D02*
X149576800Y-72363300D01*
X172905600Y-73802100D02*
X171466800Y-72363300D01*
X172905600Y-80924400D02*
X172905600Y-73802100D01*
X170815000Y-83015000D02*
X172905600Y-80924400D01*
X147899900Y-71390000D02*
X149225000Y-72715100D01*
X143510000Y-71390000D02*
X147899900Y-71390000D01*
X149225000Y-72715100D02*
X149225000Y-75232500D01*
%TO.N,Net-(D401-A)*%
X154560300Y-94235300D02*
X156210000Y-95885000D01*
X154560300Y-91060300D02*
X154560300Y-94235300D01*
X154305000Y-90805000D02*
X154560300Y-91060300D01*
%TO.N,Net-(D103-K)*%
X146050000Y-90805000D02*
X146050000Y-92710000D01*
X144145000Y-94615000D02*
X144050000Y-94615000D01*
X146050000Y-92710000D02*
X144145000Y-94615000D01*
%TO.N,Net-(D102-A)*%
X145780000Y-111785000D02*
X145780000Y-113665000D01*
X145805000Y-111760000D02*
X145780000Y-111785000D01*
D33*
%TO.N,/DCC1*%
X144000000Y-90805000D02*
X144000000Y-92710000D01*
X144000000Y-90805000D02*
X140970000Y-90805000D01*
X147889600Y-89389600D02*
X149305000Y-90805000D01*
X145308400Y-89389600D02*
X147889600Y-89389600D01*
X144000000Y-90698000D02*
X145308400Y-89389600D01*
X144000000Y-90805000D02*
X144000000Y-90698000D01*
D32*
%TO.N,/CN_A2*%
X161675900Y-111760000D02*
X161160000Y-111760000D01*
X162639200Y-112723300D02*
X161675900Y-111760000D01*
X162639200Y-113706200D02*
X162639200Y-112723300D01*
X162830600Y-113897600D02*
X162639200Y-113706200D01*
X165332600Y-113897600D02*
X162830600Y-113897600D01*
X165735000Y-114300000D02*
X165332600Y-113897600D01*
X162830600Y-113897600D02*
X162695400Y-114032800D01*
X167364400Y-95739300D02*
X167454400Y-95739300D01*
X166275000Y-96828700D02*
X167364400Y-95739300D01*
X166275000Y-97342500D02*
X166275000Y-96828700D01*
%TO.N,+18mV*%
X159925000Y-92392500D02*
X158337500Y-93980000D01*
X158337500Y-93980000D02*
X158210000Y-93980000D01*
X159925000Y-95567500D02*
X159925000Y-97342500D01*
X158337500Y-93980000D02*
X159925000Y-95567500D01*
X174190500Y-102119500D02*
X170915000Y-105395000D01*
X174190500Y-88396400D02*
X174190500Y-102119500D01*
X171949400Y-86155300D02*
X174190500Y-88396400D01*
X164954400Y-86155300D02*
X171949400Y-86155300D01*
X161560000Y-89549700D02*
X164954400Y-86155300D01*
X161560000Y-90170000D02*
X161560000Y-89549700D01*
X161016400Y-90170000D02*
X161560000Y-90170000D01*
X160200700Y-90985700D02*
X161016400Y-90170000D01*
X159385000Y-90170000D02*
X160200700Y-90985700D01*
X160200700Y-92116800D02*
X159925000Y-92392500D01*
X160200700Y-90985700D02*
X160200700Y-92116800D01*
%TO.N,/CN_A3*%
X164465000Y-110490000D02*
X165735000Y-111760000D01*
X161160000Y-110490000D02*
X164465000Y-110490000D01*
X166900700Y-110594300D02*
X165735000Y-111760000D01*
X170315700Y-110594300D02*
X166900700Y-110594300D01*
X170915000Y-109995000D02*
X170315700Y-110594300D01*
X167909300Y-97706800D02*
X168538900Y-97706800D01*
X167545000Y-97342500D02*
X167909300Y-97706800D01*
%TO.N,/DECODER_RAILCOM*%
X138430000Y-93345000D02*
X138430000Y-92093300D01*
X138977700Y-92093300D02*
X138430000Y-92093300D01*
X139681700Y-91389300D02*
X138977700Y-92093300D01*
X139681700Y-90233300D02*
X139681700Y-91389300D01*
X144145000Y-85770000D02*
X139681700Y-90233300D01*
X144145000Y-83280000D02*
X144145000Y-85770000D01*
%TO.N,/DECODER_DIGITAL*%
X141605000Y-86378300D02*
X141605000Y-85725000D01*
X138430000Y-89553300D02*
X141605000Y-86378300D01*
X138430000Y-90805000D02*
X138430000Y-89553300D01*
D33*
%TO.N,/TRACK_B0*%
X152377000Y-102591100D02*
X153192900Y-103407000D01*
X151540800Y-102591100D02*
X152377000Y-102591100D01*
X150799200Y-101189200D02*
X151540800Y-101189200D01*
X149225000Y-99615000D02*
X150799200Y-101189200D01*
X153035000Y-99695000D02*
X151540800Y-101189200D01*
X151540800Y-101189200D02*
X151540800Y-102591100D01*
X161195000Y-95803000D02*
X161144700Y-95752700D01*
X161195000Y-97342500D02*
X161195000Y-95803000D01*
X161195000Y-97342500D02*
X162465000Y-97342500D01*
%TO.N,/TRACK_A0*%
X161195000Y-92392500D02*
X162465000Y-92392500D01*
X152817500Y-108167500D02*
X153035000Y-107950000D01*
X149402500Y-108167500D02*
X152817500Y-108167500D01*
X149225000Y-107990000D02*
X149402500Y-108167500D01*
X147229100Y-109537500D02*
X149000800Y-107765800D01*
X143115000Y-109537500D02*
X147229100Y-109537500D01*
X141527500Y-111125000D02*
X143115000Y-109537500D01*
X140970000Y-111125000D02*
X141527500Y-111125000D01*
X149225000Y-107990000D02*
X149000800Y-107765800D01*
X149000800Y-107765800D02*
X149000800Y-104591100D01*
X160430200Y-94069800D02*
X160187800Y-94069800D01*
X161195000Y-93305000D02*
X160430200Y-94069800D01*
X161195000Y-92392500D02*
X161195000Y-93305000D01*
D32*
%TO.N,/CN_A4*%
X166275000Y-94636500D02*
X166275000Y-92392500D01*
X165827000Y-95084500D02*
X166275000Y-94636500D01*
X164465000Y-107532000D02*
X164515100Y-107481900D01*
X164465000Y-107950000D02*
X164465000Y-107532000D01*
X161160000Y-107950000D02*
X164465000Y-107950000D01*
X164465000Y-107950000D02*
X165735000Y-109220000D01*
%TO.N,/CN_A5*%
X161160000Y-106680000D02*
X165735000Y-106680000D01*
X165735000Y-103816300D02*
X165735000Y-106680000D01*
X170836000Y-98715300D02*
X165735000Y-103816300D01*
X171311700Y-98715300D02*
X170836000Y-98715300D01*
X172971700Y-97055300D02*
X171311700Y-98715300D01*
X172971700Y-91565100D02*
X172971700Y-97055300D01*
X171532400Y-90125800D02*
X172971700Y-91565100D01*
X169811700Y-90125800D02*
X171532400Y-90125800D01*
X167545000Y-92392500D02*
X169811700Y-90125800D01*
%TO.N,Net-(D101-A)*%
X145780000Y-105550000D02*
X145780000Y-107315000D01*
X145920000Y-105410000D02*
X145780000Y-105550000D01*
%TO.N,/centrale-railcom-feedback/central_railcom-power-source/DCC_NEG*%
X158210000Y-97803900D02*
X158210000Y-95885000D01*
X158230900Y-97824800D02*
X158210000Y-97803900D01*
X158230900Y-99739300D02*
X158230900Y-97824800D01*
X158189400Y-99780800D02*
X158230900Y-99739300D01*
%TO.N,-18mV*%
X163546600Y-97154100D02*
X163735000Y-97342500D01*
X163546600Y-92580900D02*
X163546600Y-97154100D01*
X163735000Y-92392500D02*
X163546600Y-92580900D01*
X163367300Y-99695000D02*
X162290000Y-99695000D01*
X163367300Y-97710200D02*
X163367300Y-99695000D01*
X163735000Y-97342500D02*
X163367300Y-97710200D01*
X165267300Y-100797700D02*
X166370000Y-99695000D01*
X163749800Y-100797700D02*
X165267300Y-100797700D01*
X163367300Y-100415200D02*
X163749800Y-100797700D01*
X163367300Y-99695000D02*
X163367300Y-100415200D01*
X170915000Y-96488900D02*
X170915000Y-96195000D01*
X167708900Y-99695000D02*
X170915000Y-96488900D01*
X166370000Y-99695000D02*
X167708900Y-99695000D01*
D33*
%TO.N,/DCC0*%
X153035000Y-112950000D02*
X151242400Y-112950000D01*
X151202400Y-112990000D02*
X151242400Y-112950000D01*
X149225000Y-112990000D02*
X151202400Y-112990000D01*
X151242400Y-112950000D02*
X151242400Y-112868200D01*
X151343300Y-106864900D02*
X151242400Y-106965800D01*
X151343300Y-104663600D02*
X151343300Y-106864900D01*
X151468300Y-104663600D02*
X151343300Y-104663600D01*
X151540800Y-104591100D02*
X151468300Y-104663600D01*
X149270800Y-102591100D02*
X149000800Y-102591100D01*
X151343300Y-104663600D02*
X149270800Y-102591100D01*
X148645400Y-102591100D02*
X149000800Y-102591100D01*
X147622300Y-101568000D02*
X148645400Y-102591100D01*
X147622300Y-98856100D02*
X147622300Y-101568000D01*
X144790500Y-96024300D02*
X147622300Y-98856100D01*
X143265800Y-96024300D02*
X144790500Y-96024300D01*
X142727900Y-95486400D02*
X143265800Y-96024300D01*
X142727900Y-95102900D02*
X142727900Y-95486400D01*
X140970000Y-93345000D02*
X142727900Y-95102900D01*
X146050000Y-94764800D02*
X146050000Y-94615000D01*
X144790500Y-96024300D02*
X146050000Y-94764800D01*
X146050000Y-94615000D02*
X149225000Y-94615000D01*
X152955000Y-94615000D02*
X153035000Y-94695000D01*
X149225000Y-94615000D02*
X152955000Y-94615000D01*
D32*
%TO.N,-750mV*%
X170915000Y-91595000D02*
X169642600Y-92867400D01*
X156189400Y-100864400D02*
X156189400Y-99780800D01*
X158195000Y-102870000D02*
X156189400Y-100864400D01*
X165005000Y-96824800D02*
X165005000Y-97342500D01*
X165943600Y-95886200D02*
X165005000Y-96824800D01*
X166159000Y-95886200D02*
X165943600Y-95886200D01*
X169177800Y-92867400D02*
X166159000Y-95886200D01*
X169642600Y-92867400D02*
X169177800Y-92867400D01*
X165005000Y-99060000D02*
X164370000Y-99695000D01*
X165005000Y-97342500D02*
X165005000Y-99060000D01*
X172368500Y-95593300D02*
X169642600Y-92867400D01*
X172368500Y-96807700D02*
X172368500Y-95593300D01*
X171062600Y-98113600D02*
X172368500Y-96807700D01*
X170547200Y-98113600D02*
X171062600Y-98113600D01*
X167261200Y-101399600D02*
X170547200Y-98113600D01*
X161592500Y-101399600D02*
X167261200Y-101399600D01*
X160122100Y-102870000D02*
X161592500Y-101399600D01*
X158195000Y-102870000D02*
X160122100Y-102870000D01*
%TO.N,+3V3*%
X166582600Y-115452400D02*
X167735000Y-114300000D01*
X164347400Y-115452400D02*
X166582600Y-115452400D01*
X163830000Y-114935000D02*
X164347400Y-115452400D01*
X165005000Y-93207400D02*
X164348300Y-93864100D01*
X165005000Y-92392500D02*
X165005000Y-93207400D01*
X157873500Y-114935000D02*
X163830000Y-114935000D01*
X157787800Y-114849300D02*
X157873500Y-114935000D01*
X157787800Y-114607800D02*
X157787800Y-114849300D01*
X156210000Y-113030000D02*
X157787800Y-114607800D01*
X167735000Y-111760000D02*
X167735000Y-114300000D01*
X165007900Y-87902900D02*
X164348300Y-87902900D01*
X167275000Y-90170000D02*
X165007900Y-87902900D01*
X167735000Y-109220000D02*
X167735000Y-106680000D01*
X171229300Y-111760000D02*
X167735000Y-111760000D01*
X172367600Y-110621700D02*
X171229300Y-111760000D01*
X172367600Y-109322200D02*
X172367600Y-110621700D01*
X169725400Y-106680000D02*
X172367600Y-109322200D01*
X167735000Y-106680000D02*
X169725400Y-106680000D01*
X142729700Y-98425000D02*
X140970000Y-98425000D01*
X145781400Y-101476700D02*
X142729700Y-98425000D01*
X167735000Y-106179200D02*
X167735000Y-106680000D01*
X173588800Y-100325400D02*
X167735000Y-106179200D01*
X173588800Y-91320500D02*
X173588800Y-100325400D01*
X171782800Y-89514500D02*
X173588800Y-91320500D01*
X167930500Y-89514500D02*
X171782800Y-89514500D01*
X167275000Y-90170000D02*
X167930500Y-89514500D01*
X146757500Y-75516200D02*
X146757500Y-76497000D01*
X147041300Y-75516200D02*
X146757500Y-75516200D01*
X147325000Y-75232500D02*
X147041300Y-75516200D01*
X143826200Y-75516200D02*
X143510000Y-75200000D01*
X146757500Y-75516200D02*
X143826200Y-75516200D01*
%TO.N,/RAILCOM1*%
X142510000Y-112395000D02*
X143780000Y-113665000D01*
X139934700Y-112395000D02*
X142510000Y-112395000D01*
X139681700Y-112648000D02*
X139934700Y-112395000D01*
X139681700Y-113665000D02*
X139681700Y-112648000D01*
X138430000Y-113665000D02*
X139681700Y-113665000D01*
X160638800Y-109220000D02*
X161160000Y-109220000D01*
X158685000Y-107266200D02*
X160638800Y-109220000D01*
X158685000Y-106114600D02*
X158685000Y-107266200D01*
X157277700Y-104707300D02*
X158685000Y-106114600D01*
X155139700Y-104707300D02*
X157277700Y-104707300D01*
X154731600Y-105115400D02*
X155139700Y-104707300D01*
X154731600Y-109369000D02*
X154731600Y-105115400D01*
X153510200Y-110590400D02*
X154731600Y-109369000D01*
X148480700Y-110590400D02*
X153510200Y-110590400D01*
X147791300Y-111279800D02*
X148480700Y-110590400D01*
X147791300Y-113400600D02*
X147791300Y-111279800D01*
X146391500Y-114800400D02*
X147791300Y-113400600D01*
X144915400Y-114800400D02*
X146391500Y-114800400D01*
X143780000Y-113665000D02*
X144915400Y-114800400D01*
%TO.N,/RAILCOM0*%
X142941600Y-108153400D02*
X143780000Y-107315000D01*
X142941500Y-108153400D02*
X142941600Y-108153400D01*
X142941500Y-108383700D02*
X142941500Y-108153400D01*
X141451900Y-109873300D02*
X142941500Y-108383700D01*
X140385700Y-109873300D02*
X141451900Y-109873300D01*
X139681700Y-110577300D02*
X140385700Y-109873300D01*
X139681700Y-111125000D02*
X139681700Y-110577300D01*
X138430000Y-111125000D02*
X139681700Y-111125000D01*
X160157200Y-114032800D02*
X159035300Y-114032800D01*
X161160000Y-113030000D02*
X160157200Y-114032800D01*
%TO.N,GND*%
X155408900Y-115153200D02*
X155712800Y-114849300D01*
X154484600Y-115153200D02*
X155408900Y-115153200D01*
X160290000Y-99695000D02*
X160290000Y-101018800D01*
X143755000Y-111707800D02*
X143755000Y-111760000D01*
X144724200Y-110738600D02*
X143755000Y-111707800D01*
X161255800Y-81240800D02*
X161290000Y-81275000D01*
X159923100Y-81240800D02*
X161255800Y-81240800D01*
X143005000Y-106045000D02*
X143755000Y-105295000D01*
X140970000Y-106045000D02*
X143005000Y-106045000D01*
X143870000Y-105410000D02*
X143755000Y-105295000D01*
X143755000Y-105295000D02*
X143755000Y-103505000D01*
X157385000Y-90170000D02*
X157385000Y-91530000D01*
X157385000Y-92805000D02*
X156210000Y-93980000D01*
X157385000Y-91530000D02*
X157385000Y-92805000D01*
X163830000Y-112860000D02*
X163830000Y-111667600D01*
X154927700Y-99053000D02*
X156155900Y-97824800D01*
X161160000Y-105410000D02*
X161160000Y-104507600D01*
X161557400Y-104507600D02*
X163195000Y-102870000D01*
X161160000Y-104507600D02*
X161557400Y-104507600D01*
%TD*%
M02*
